  0
SECTION
  2
HEADER
  9
$ACADVER
  1
AC1015
  9
$ACADMAINTVER
 70
     6
  9
$DWGCODEPAGE
  3
ANSI_1252
  9
$INSBASE
 10
0.0
 20
0.0
 30
0.0
  9
$EXTMIN
 10
0.0
 20
0.0
 30
0.0
  9
$EXTMAX
 10
210.0
 20
297.0
 30
0.0
  9
$LIMMIN
 10
0.0
 20
0.0
  9
$LIMMAX
 10
210.0
 20
297.0
  9
$ORTHOMODE
 70
     0
  9
$REGENMODE
 70
     1
  9
$FILLMODE
 70
     1
  9
$QTEXTMODE
 70
     0
  9
$MIRRTEXT
 70
     1
  9
$LTSCALE
 40
1.0
  9
$ATTMODE
 70
     1
  9
$TEXTSIZE
 40
3.5
  9
$TRACEWID
 40
1.0
  9
$TEXTSTYLE
  7
Standard
  9
$CLAYER
  8
0
  9
$CELTYPE
  6
ByLayer
  9
$CECOLOR
 62
   256
  9
$CELTSCALE
 40
1.0
  9
$DISPSILH
 70
     0
  9
$DIMSCALE
 40
1.0
  9
$DIMASZ
 40
3.302
  9
$DIMEXO
 40
1.0
  9
$DIMDLI
 40
3.75
  9
$DIMRND
 40
0.0
  9
$DIMDLE
 40
0.0
  9
$DIMEXE
 40
1.0
  9
$DIMTP
 40
0.0
  9
$DIMTM
 40
0.0
  9
$DIMTXT
 40
3.5
  9
$DIMCEN
 40
2.5
  9
$DIMTSZ
 40
0.0
  9
$DIMTOL
 70
     0
  9
$DIMLIM
 70
     0
  9
$DIMTIH
 70
     1
  9
$DIMTOH
 70
     1
  9
$DIMSE1
 70
     0
  9
$DIMSE2
 70
     0
  9
$DIMTAD
 70
     1
  9
$DIMZIN
 70
     0
  9
$DIMBLK
  1

  9
$DIMASO
 70
     1
  9
$DIMSHO
 70
     1
  9
$DIMPOST
  1

  9
$DIMAPOST
  1

  9
$DIMALT
 70
     0
  9
$DIMALTD
 70
     3
  9
$DIMALTF
 40
0.0393700787
  9
$DIMLFAC
 40
5.0
  9
$DIMTOFL
 70
     1
  9
$DIMTVP
 40
0.0
  9
$DIMTIX
 70
     0
  9
$DIMSOXD
 70
     0
  9
$DIMSAH
 70
     0
  9
$DIMBLK1
  1

  9
$DIMBLK2
  1

  9
$DIMSTYLE
  2
ISO-25
  9
$DIMCLRD
 70
     0
  9
$DIMCLRE
 70
     0
  9
$DIMCLRT
 70
     0
  9
$DIMTFAC
 40
1.0
  9
$DIMGAP
 40
1.524
  9
$DIMJUST
 70
     0
  9
$DIMSD1
 70
     0
  9
$DIMSD2
 70
     0
  9
$DIMTOLJ
 70
     0
  9
$DIMTZIN
 70
     0
  9
$DIMALTZ
 70
     0
  9
$DIMALTTZ
 70
     0
  9
$DIMUPT
 70
     0
  9
$DIMDEC
 70
     3
  9
$DIMTDEC
 70
     3
  9
$DIMALTU
 70
     2
  9
$DIMALTTD
 70
     3
  9
$DIMTXSTY
  7
Standard
  9
$DIMAUNIT
 70
     0
  9
$DIMADEC
 70
     2
  9
$DIMALTRND
 40
0.0
  9
$DIMAZIN
 70
     0
  9
$DIMDSEP
 70
    44
  9
$DIMATFIT
 70
     3
  9
$DIMFRAC
 70
     0
  9
$DIMLDRBLK
  1

  9
$DIMLUNIT
 70
     2
  9
$DIMLWD
 70
    -2
  9
$DIMLWE
 70
    -2
  9
$DIMTMOVE
 70
     0
  9
$LUNITS
 70
     2
  9
$LUPREC
 70
     2
  9
$SKETCHINC
 40
1.0
  9
$FILLETRAD
 40
10.0
  9
$AUNITS
 70
     0
  9
$AUPREC
 70
     2
  9
$MENU
  1
.
  9
$ELEVATION
 40
0.0
  9
$PELEVATION
 40
0.0
  9
$THICKNESS
 40
0.0
  9
$LIMCHECK
 70
     0
  9
$CHAMFERA
 40
10.0
  9
$CHAMFERB
 40
10.0
  9
$CHAMFERC
 40
20.0
  9
$CHAMFERD
 40
0.0
  9
$SKPOLY
 70
     0
  9
$TDCREATE
 40
2456750.651454549
  9
$TDUCREATE
 40
2456750.609787882
  9
$TDUPDATE
 40
2456750.65145456
  9
$TDUUPDATE
 40
2456750.609787893
  9
$TDINDWG
 40
0.0000000116
  9
$TDUSRTIMER
 40
0.0000000116
  9
$USRTIMER
 70
     1
  9
$ANGBASE
 50
0.0
  9
$ANGDIR
 70
     0
  9
$PDMODE
 70
     0
  9
$PDSIZE
 40
-1.0
  9
$PLINEWID
 40
0.0
  9
$SPLFRAME
 70
     0
  9
$SPLINETYPE
 70
     6
  9
$SPLINESEGS
 70
     8
  9
$HANDSEED
  5
18F
  9
$SURFTAB1
 70
     6
  9
$SURFTAB2
 70
     6
  9
$SURFTYPE
 70
     6
  9
$SURFU
 70
     6
  9
$SURFV
 70
     6
  9
$UCSBASE
  2

  9
$UCSNAME
  2

  9
$UCSORG
 10
0.0
 20
0.0
 30
0.0
  9
$UCSXDIR
 10
1.0
 20
0.0
 30
0.0
  9
$UCSYDIR
 10
0.0
 20
1.0
 30
0.0
  9
$UCSORTHOREF
  2

  9
$UCSORTHOVIEW
 70
     0
  9
$UCSORGTOP
 10
0.0
 20
0.0
 30
0.0
  9
$UCSORGBOTTOM
 10
0.0
 20
0.0
 30
0.0
  9
$UCSORGLEFT
 10
0.0
 20
0.0
 30
0.0
  9
$UCSORGRIGHT
 10
0.0
 20
0.0
 30
0.0
  9
$UCSORGFRONT
 10
0.0
 20
0.0
 30
0.0
  9
$UCSORGBACK
 10
0.0
 20
0.0
 30
0.0
  9
$PUCSBASE
  2

  9
$PUCSNAME
  2

  9
$PUCSORG
 10
0.0
 20
0.0
 30
0.0
  9
$PUCSXDIR
 10
1.0
 20
0.0
 30
0.0
  9
$PUCSYDIR
 10
0.0
 20
1.0
 30
0.0
  9
$PUCSORTHOREF
  2

  9
$PUCSORTHOVIEW
 70
     0
  9
$PUCSORGTOP
 10
0.0
 20
0.0
 30
0.0
  9
$PUCSORGBOTTOM
 10
0.0
 20
0.0
 30
0.0
  9
$PUCSORGLEFT
 10
0.0
 20
0.0
 30
0.0
  9
$PUCSORGRIGHT
 10
0.0
 20
0.0
 30
0.0
  9
$PUCSORGFRONT
 10
0.0
 20
0.0
 30
0.0
  9
$PUCSORGBACK
 10
0.0
 20
0.0
 30
0.0
  9
$USERI1
 70
     0
  9
$USERI2
 70
     0
  9
$USERI3
 70
     0
  9
$USERI4
 70
     0
  9
$USERI5
 70
     0
  9
$USERR1
 40
0.0
  9
$USERR2
 40
0.0
  9
$USERR3
 40
0.0
  9
$USERR4
 40
0.0
  9
$USERR5
 40
0.0
  9
$WORLDVIEW
 70
     1
  9
$SHADEDGE
 70
     3
  9
$SHADEDIF
 70
    70
  9
$TILEMODE
 70
     1
  9
$MAXACTVP
 70
    64
  9
$PINSBASE
 10
0.0
 20
0.0
 30
0.0
  9
$PLIMCHECK
 70
     0
  9
$PEXTMIN
 10
1.0000000000E+20
 20
1.0000000000E+20
 30
1.0000000000E+20
  9
$PEXTMAX
 10
-1.0000000000E+20
 20
-1.0000000000E+20
 30
-1.0000000000E+20
  9
$PLIMMIN
 10
0.0
 20
0.0
  9
$PLIMMAX
 10
420.0
 20
297.0
  9
$UNITMODE
 70
     0
  9
$VISRETAIN
 70
     1
  9
$PLINEGEN
 70
     0
  9
$PSLTSCALE
 70
     1
  9
$TREEDEPTH
 70
  3020
  9
$CMLSTYLE
  2
Standard
  9
$CMLJUST
 70
     0
  9
$CMLSCALE
 40
20.0
  9
$PROXYGRAPHICS
 70
     1
  9
$MEASUREMENT
 70
     1
  9
$CELWEIGHT
370
    -1
  9
$ENDCAPS
280
     0
  9
$JOINSTYLE
280
     0
  9
$LWDISPLAY
290
     1
  9
$INSUNITS
 70
     4
  9
$HYPERLINKBASE
  1

  9
$STYLESHEET
  1

  9
$XEDIT
290
     1
  9
$CEPSNTYPE
380
     0
  9
$PSTYLEMODE
290
     1
  9
$FINGERPRINTGUID
  2
{17B258A7-9407-4ED4-86B2-0BA06FCF328B}
  9
$VERSIONGUID
  2
{FAEB1C32-E019-11D5-929B-00C0DF256EC4}
  9
$EXTNAMES
290
     1
  9
$PSVPSCALE
 40
0.0
  9
$OLESTARTUP
290
     0
  0
ENDSEC
  0
SECTION
  2
CLASSES
  0
CLASS
  1
ACDBDICTIONARYWDFLT
  2
AcDbDictionaryWithDefault
  3
ObjectDBX Classes
 90
        0
280
     0
281
     0
  0
CLASS
  1
VISUALSTYLE
  2
AcDbVisualStyle
  3
ObjectDBX Classes
 90
     4095
280
     0
281
     0
  0
CLASS
  1
MATERIAL
  2
AcDbMaterial
  3
ObjectDBX Classes
 90
     1153
280
     0
281
     0
  0
CLASS
  1
IMAGEDEF
  2
AcDbRasterImageDef
  3
ISM
 90
        0
280
     0
281
     0
  0
CLASS
  1
IMAGE
  2
AcDbRasterImage
  3
ISM
 90
      127
280
     0
281
     1
  0
CLASS
  1
IMAGEDEF_REACTOR
  2
AcDbRasterImageDefReactor
  3
ISM
 90
        1
280
     0
281
     0
  0
CLASS
  1
ACDBPLACEHOLDER
  2
AcDbPlaceHolder
  3
ObjectDBX Classes
 90
        0
280
     0
281
     0
  0
CLASS
  1
LAYOUT
  2
AcDbLayout
  3
ObjectDBX Classes
 90
        0
280
     0
281
     0
  0
ENDSEC
  0
SECTION
  2
TABLES
  0
TABLE
  2
VPORT
  5
8
330
0
100
AcDbSymbolTable
 70
     1
  0
VPORT
  5
29
330
8
100
AcDbSymbolTableRecord
100
AcDbViewportTableRecord
  2
*Active
 70
     0
 10
0.0
 20
0.0
 11
1.0
 21
1.0
 12
105.0
 22
148.5
 13
0.0
 23
0.0
 14
10.0
 24
10.0
 15
10.0
 25
10.0
 16
0.0
 26
0.0
 36
1.0
 17
0.0
 27
0.0
 37
0.0
 40
297.0
 41
0.7070707071
 42
50.0
 43
0.0
 44
0.0
 50
0.0
 51
0.0
 71
     0
 72
  2000
 73
     1
 74
     3
 75
     0
 76
     0
 77
     0
 78
     0
281
     0
 65
     1
110
0.0
120
0.0
130
0.0
111
1.0
121
0.0
131
0.0
112
0.0
122
1.0
132
0.0
 79
     0
146
0.0
  0
ENDTAB
  0
TABLE
  2
LTYPE
  5
5
330
0
100
AcDbSymbolTable
 70
     6
  0
LTYPE
  5
14
330
5
100
AcDbSymbolTableRecord
100
AcDbLinetypeTableRecord
  2
ByBlock
 70
     0
  3

 72
    65
 73
     0
 40
0.0
  0
LTYPE
  5
15
330
5
100
AcDbSymbolTableRecord
100
AcDbLinetypeTableRecord
  2
ByLayer
 70
     0
  3

 72
    65
 73
     0
 40
0.0
  0
LTYPE
  5
16
330
5
100
AcDbSymbolTableRecord
100
AcDbLinetypeTableRecord
  2
Continuous
 70
     0
  3
Solid line
 72
    65
 73
     0
 40
0.0
  0
LTYPE
  5
3F
330
5
100
AcDbSymbolTableRecord
100
AcDbLinetypeTableRecord
  2
HIDDEN
 70
     0
  3
Hidden __ __ __ __ __ __ __ __ __ __ __ __ __ __
 72
    65
 73
     2
 40
1.905
 49
1.27
 74
     0
 49
-0.635
 74
     0
  0
LTYPE
  5
40
330
5
100
AcDbSymbolTableRecord
100
AcDbLinetypeTableRecord
  2
PHANTOM
 70
     0
  3
Phantom ______  __  __  ______  __  __  ______
 72
    65
 73
     6
 40
12.7
 49
6.35
 74
     0
 49
-1.27
 74
     0
 49
1.27
 74
     0
 49
-1.27
 74
     0
 49
1.27
 74
     0
 49
-1.27
 74
     0
  0
LTYPE
  5
41
330
5
100
AcDbSymbolTableRecord
100
AcDbLinetypeTableRecord
  2
CENTER
 70
     0
  3
Center ____ _ ____ _ ____ _ ____ _ ____ _ ____
 72
    65
 73
     4
 40
10.16
 49
6.35
 74
     0
 49
-1.27
 74
     0
 49
1.27
 74
     0
 49
-1.27
 74
     0
  0
LTYPE
  5
42
330
5
100
AcDbSymbolTableRecord
100
AcDbLinetypeTableRecord
  2
CENTERX2
 70
     0
  3
Center (2x) ________  __  ________  __  _____
 72
    65
 73
     4
 40
20.32
 49
12.7
 74
     0
 49
-2.54
 74
     0
 49
2.54
 74
     0
 49
-2.54
 74
     0
  0
LTYPE
  5
43
330
5
100
AcDbSymbolTableRecord
100
AcDbLinetypeTableRecord
  2
DOT2
 70
     0
  3
Dot (.5x) ........................................
 72
    65
 73
     2
 40
0.635
 49
0.0
 74
     0
 49
-0.635
 74
     0
  0
ENDTAB
  0
TABLE
  2
LAYER
  5
2
330
0
100
AcDbSymbolTable
 70
     2
  0
LAYER
  5
10
330
2
100
AcDbSymbolTableRecord
100
AcDbLayerTableRecord
  2
0
 70
     0
 62
     7
  6
Continuous
370
    -3
390
F
  0
LAYER
  5
44
330
2
100
AcDbSymbolTableRecord
100
AcDbLayerTableRecord
  2
FORMAT
 70
     0
 62
     7
  6
Continuous
370
    -3
390
F
  0
ENDTAB
  0
TABLE
  2
STYLE
  5
3
330
0
100
AcDbSymbolTable
 70
     5
  0
STYLE
  5
11
330
3
100
AcDbSymbolTableRecord
100
AcDbTextStyleTableRecord
  2
Standard
 70
     0
 40
0.0
 41
1.0
 50
0.0
 71
     0
 42
2.5
  3
txt
  4

  0
STYLE
  5
6F
330
3
100
AcDbSymbolTableRecord
100
AcDbTextStyleTableRecord
  2
SLDTEXTSTYLE0
 70
     0
 40
0.0
 41
0.75
 50
0.0
 71
     0
 42
0.2
  3
TXT
  4

  0
STYLE
  5
7B
330
3
100
AcDbSymbolTableRecord
100
AcDbTextStyleTableRecord
  2
SLDTEXTSTYLE1
 70
     0
 40
0.0
 41
0.7
 50
0.0
 71
     0
 42
0.2
  3
TXT
  4

  0
STYLE
  5
98
330
3
100
AcDbSymbolTableRecord
100
AcDbTextStyleTableRecord
  2
SLDTEXTSTYLE2
 70
     0
 40
0.0
 41
0.6875
 50
0.0
 71
     0
 42
0.2
  3
TXT
  4

  0
STYLE
  5
F3
330
3
100
AcDbSymbolTableRecord
100
AcDbTextStyleTableRecord
  2
SLDTEXTSTYLE3
 70
     0
 40
0.0
 41
1.0
 50
0.0
 71
     0
 42
0.2
  3
TXT
  4

  0
ENDTAB
  0
TABLE
  2
VIEW
  5
6
330
0
100
AcDbSymbolTable
 70
     0
  0
ENDTAB
  0
TABLE
  2
UCS
  5
7
330
0
100
AcDbSymbolTable
 70
     0
  0
ENDTAB
  0
TABLE
  2
APPID
  5
9
330
0
100
AcDbSymbolTable
 70
     1
  0
APPID
  5
12
330
9
100
AcDbSymbolTableRecord
100
AcDbRegAppTableRecord
  2
ACAD
 70
     0
  0
ENDTAB
  0
TABLE
  2
DIMSTYLE
  5
A
330
0
100
AcDbSymbolTable
 70
     7
100
AcDbDimStyleTable
  0
DIMSTYLE
105
27
330
A
100
AcDbSymbolTableRecord
100
AcDbDimStyleTableRecord
  2
ISO-25
 70
     0
 41
2.5
 42
0.625
 43
3.75
 44
1.25
 73
     0
 74
     0
 77
     1
 78
     8
140
2.5
141
2.5
143
0.0393700787
147
0.625
171
     3
172
     1
178
     0
271
     2
272
     2
274
     3
278
    44
283
     0
284
     8
340
11
  0
DIMSTYLE
105
A8
102
{ACAD_REACTORS
330
A7
330
DD
330
164
330
172
102
}
330
A
100
AcDbSymbolTableRecord
100
AcDbDimStyleTableRecord
  2
SLDDIMSTYLE0
 70
     0
 41
3.302
 44
0.0
 45
0.000000001
 73
     0
 74
     0
 77
     1
 78
    12
 79
     3
140
3.5
144
5.0
147
0.875
172
     1
173
     1
178
     0
271
     2
272
     2
276
     2
284
    12
289
     0
340
6F
  0
DIMSTYLE
105
C5
102
{ACAD_REACTORS
330
C4
102
}
330
A
100
AcDbSymbolTableRecord
100
AcDbDimStyleTableRecord
  2
SLDDIMSTYLE1
 70
     0
 41
3.302
 44
0.0
 45
0.000000001
 73
     0
 74
     0
 77
     1
 78
    12
 79
     3
140
3.5
144
5.0
147
0.875
173
     1
178
     0
271
     2
272
     2
276
     2
284
    12
340
6F
  0
DIMSTYLE
105
D0
102
{ACAD_REACTORS
330
CF
330
EA
102
}
330
A
100
AcDbSymbolTableRecord
100
AcDbDimStyleTableRecord
  2
SLDDIMSTYLE2
 70
     0
 41
3.302
 44
0.0
 45
0.000000001
 73
     0
 74
     0
 77
     1
 78
    12
 79
     3
140
3.5
141
0.0
144
5.0
147
0.875
172
     1
173
     1
178
     0
271
     2
272
     2
276
     2
284
    12
340
6F
341
D1
343
D1
  0
DIMSTYLE
105
F4
102
{ACAD_REACTORS
330
F5
330
18E
102
}
330
A
100
AcDbSymbolTableRecord
100
AcDbDimStyleTableRecord
  2
SLDDIMSTYLE3
 70
     0
 41
0.0
 44
0.0
 45
0.000000001
140
3.5
147
0.875
173
     1
178
     0
271
     0
272
     0
276
     2
340
F3
341
D1
343
D1
344
D1
  0
DIMSTYLE
105
15A
102
{ACAD_REACTORS
330
159
102
}
330
A
100
AcDbSymbolTableRecord
100
AcDbDimStyleTableRecord
  2
SLDDIMSTYLE4
 70
     0
 41
3.302
 44
0.0
 45
0.000000001
 78
    12
 79
     3
140
3.5
144
5.0
147
0.875
173
     1
178
     0
271
     2
272
     2
276
     2
284
    12
340
6F
  0
DIMSTYLE
105
180
102
{ACAD_REACTORS
330
17F
102
}
330
A
100
AcDbSymbolTableRecord
100
AcDbDimStyleTableRecord
  2
SLDDIMSTYLE5
 70
     0
 41
3.302
 44
0.0
 73
     0
 74
     0
 77
     1
 78
    12
 79
     3
140
3.5
144
5.0
147
0.875
173
     1
178
     0
179
     2
272
     2
276
     2
284
    12
340
6F
  0
ENDTAB
  0
TABLE
  2
BLOCK_RECORD
  5
1
330
0
100
AcDbSymbolTable
 70
    18
  0
BLOCK_RECORD
  5
1F
330
1
100
AcDbSymbolTableRecord
100
AcDbBlockTableRecord
  2
*Model_Space
340
22
  0
BLOCK_RECORD
  5
1B
330
1
100
AcDbSymbolTableRecord
100
AcDbBlockTableRecord
  2
*Paper_Space
340
1E
  0
BLOCK_RECORD
  5
23
330
1
100
AcDbSymbolTableRecord
100
AcDbBlockTableRecord
  2
*Paper_Space0
340
26
  0
BLOCK_RECORD
  5
6C
330
1
100
AcDbSymbolTableRecord
100
AcDbBlockTableRecord
  2
SW_NOTE_0
340
0
102
{BLKREFS
331
72
102
}
  0
BLOCK_RECORD
  5
86
330
1
100
AcDbSymbolTableRecord
100
AcDbBlockTableRecord
  2
SW_NOTE_1
340
0
102
{BLKREFS
331
8B
102
}
  0
BLOCK_RECORD
  5
92
330
1
100
AcDbSymbolTableRecord
100
AcDbBlockTableRecord
  2
SW_NOTE_2
340
0
102
{BLKREFS
331
9C
102
}
  0
BLOCK_RECORD
  5
A9
330
1
100
AcDbSymbolTableRecord
100
AcDbBlockTableRecord
  2
*D4
340
0
  0
BLOCK_RECORD
  5
C6
330
1
100
AcDbSymbolTableRecord
100
AcDbBlockTableRecord
  2
*D5
340
0
  0
BLOCK_RECORD
  5
D1
330
1
100
AcDbSymbolTableRecord
100
AcDbBlockTableRecord
  2
_NONE
340
0
  0
BLOCK_RECORD
  5
D4
330
1
100
AcDbSymbolTableRecord
100
AcDbBlockTableRecord
  2
*D7
340
0
  0
BLOCK_RECORD
  5
DE
330
1
100
AcDbSymbolTableRecord
100
AcDbBlockTableRecord
  2
*D8
340
0
  0
BLOCK_RECORD
  5
EB
330
1
100
AcDbSymbolTableRecord
100
AcDbBlockTableRecord
  2
*D9
340
0
  0
BLOCK_RECORD
  5
F6
330
1
100
AcDbSymbolTableRecord
100
AcDbBlockTableRecord
  2
SW_CENTERMARKSYMBOL_0
340
0
102
{BLKREFS
331
101
102
}
  0
BLOCK_RECORD
  5
102
330
1
100
AcDbSymbolTableRecord
100
AcDbBlockTableRecord
  2
SW_CENTERMARKSYMBOL_1
340
0
102
{BLKREFS
331
10D
102
}
  0
BLOCK_RECORD
  5
10E
330
1
100
AcDbSymbolTableRecord
100
AcDbBlockTableRecord
  2
SW_CENTERMARKSYMBOL_2
340
0
102
{BLKREFS
331
119
102
}
  0
BLOCK_RECORD
  5
11A
330
1
100
AcDbSymbolTableRecord
100
AcDbBlockTableRecord
  2
SW_DATUMTAG_0
340
0
102
{BLKREFS
331
125
102
}
  0
BLOCK_RECORD
  5
15B
330
1
100
AcDbSymbolTableRecord
100
AcDbBlockTableRecord
  2
*D14
340
0
  0
BLOCK_RECORD
  5
165
330
1
100
AcDbSymbolTableRecord
100
AcDbBlockTableRecord
  2
*D15
340
0
  0
BLOCK_RECORD
  5
173
330
1
100
AcDbSymbolTableRecord
100
AcDbBlockTableRecord
  2
*D16
340
0
  0
BLOCK_RECORD
  5
181
330
1
100
AcDbSymbolTableRecord
100
AcDbBlockTableRecord
  2
*D17
340
0
  0
ENDTAB
  0
ENDSEC
  0
SECTION
  2
BLOCKS
  0
BLOCK
  5
20
330
1F
100
AcDbEntity
  8
0
100
AcDbBlockBegin
  2
*Model_Space
 70
     0
 10
0.0
 20
0.0
 30
0.0
  3
*Model_Space
  1

  0
ENDBLK
  5
21
330
1F
100
AcDbEntity
  8
0
100
AcDbBlockEnd
  0
BLOCK
  5
1C
330
1B
100
AcDbEntity
 67
     1
  8
0
100
AcDbBlockBegin
  2
*Paper_Space
 70
     0
 10
0.0
 20
0.0
 30
0.0
  3
*Paper_Space
  1

  0
ENDBLK
  5
1D
330
1B
100
AcDbEntity
 67
     1
  8
0
100
AcDbBlockEnd
  0
BLOCK
  5
24
330
23
100
AcDbEntity
  8
0
100
AcDbBlockBegin
  2
*Paper_Space0
 70
     0
 10
0.0
 20
0.0
 30
0.0
  3
*Paper_Space0
  1

  0
ENDBLK
  5
25
330
23
100
AcDbEntity
  8
0
100
AcDbBlockEnd
  0
BLOCK
  5
6D
330
6C
100
AcDbEntity
  8
0
100
AcDbBlockBegin
  2
SW_NOTE_0
 70
     0
 10
0.0
 20
0.0
 30
0.0
  3
SW_NOTE_0
  1

  0
MTEXT
  5
70
330
6C
100
AcDbEntity
  8
0
  6
Continuous
 62
     0
370
     0
100
AcDbMText
 10
-3.4106583948
 20
0.0
 30
0.0
 40
2.6458333333
 41
0.0
 71
     1
 72
     1
  1
Copyright © 2014 Théophile Bresson, AeroSeeD SAS, Vincent Mauvady, David Vantyghem, Pascal Corradini
  7
SLDTEXTSTYLE0
 11
-3.491481338843133E-15
 21
1.0
 31
0.0
 73
     1
 44
1.0
  0
MTEXT
  5
71
330
6C
100
AcDbEntity
  8
0
  6
Continuous
 62
     0
370
     0
100
AcDbMText
 10
0.1171193403
 20
0.0
 30
0.0
 40
2.6458333333
 41
0.0
 71
     1
 72
     1
  1
Licensed under TAPR Open Hardware Licence (www.tapr.org/OHL)
  7
SLDTEXTSTYLE0
 11
-3.491481338843133E-15
 21
1.0
 31
0.0
 73
     1
 44
1.0
  0
ENDBLK
  5
6E
330
6C
100
AcDbEntity
  8
0
100
AcDbBlockEnd
  0
BLOCK
  5
87
330
86
100
AcDbEntity
  8
0
100
AcDbBlockBegin
  2
SW_NOTE_1
 70
     0
 10
0.0
 20
0.0
 30
0.0
  3
SW_NOTE_1
  1

  0
MTEXT
  5
89
330
86
100
AcDbEntity
  8
0
  6
Continuous
 62
     0
370
     0
100
AcDbMText
 10
0.0
 20
1.9336016097
 30
0.0
 40
1.5
 41
0.0
 71
     1
 72
     1
  1
CASSER LES
  7
SLDTEXTSTYLE0
 73
     1
 44
1.0
  0
MTEXT
  5
8A
330
86
100
AcDbEntity
  8
0
  6
Continuous
 62
     0
370
     0
100
AcDbMText
 10
0.0
 20
-0.5663983345
 30
0.0
 40
1.5
 41
0.0
 71
     1
 72
     1
  1
ANGLES VIFS
  7
SLDTEXTSTYLE0
 73
     1
 44
1.0
  0
ENDBLK
  5
88
330
86
100
AcDbEntity
  8
0
100
AcDbBlockEnd
  0
BLOCK
  5
93
330
92
100
AcDbEntity
  8
0
100
AcDbBlockBegin
  2
SW_NOTE_2
 70
     0
 10
0.0
 20
0.0
 30
0.0
  3
SW_NOTE_2
  1

  0
MTEXT
  5
95
330
92
100
AcDbEntity
  8
0
  6
Continuous
 62
     0
370
     0
100
AcDbMText
 10
0.0
 20
1.9336016097
 30
0.0
 40
1.5
 41
0.0
 71
     1
 72
     1
  1
SAUF INDICATION CONTRAIRE:
  7
SLDTEXTSTYLE0
 73
     1
 44
1.0
  0
MTEXT
  5
96
330
92
100
AcDbEntity
  8
0
  6
Continuous
 62
     0
370
     0
100
AcDbMText
 10
0.0
 20
-0.5663983345
 30
0.0
 40
1.5
 41
0.0
 71
     1
 72
     1
  1
LES COTES SONT EN MILLIMETRES
  7
SLDTEXTSTYLE0
 73
     1
 44
1.0
  0
MTEXT
  5
97
330
92
100
AcDbEntity
  8
0
  6
Continuous
 62
     0
370
     0
100
AcDbMText
 10
0.0
 20
-3.0663982786
 30
0.0
 40
1.5
 41
0.0
 71
     1
 72
     1
  1
ETAT DE SURFACE:
  7
SLDTEXTSTYLE0
 73
     1
 44
1.0
  0
MTEXT
  5
99
330
92
100
AcDbEntity
  8
0
  6
Continuous
 62
     0
370
     0
100
AcDbMText
 10
17.3330735415
 20
-3.0663982786
 30
0.0
 40
1.5
 41
0.0
 71
     1
 72
     1
  1
Ra = 3.2
  7
SLDTEXTSTYLE2
 73
     1
 44
1.0
  0
MTEXT
  5
9A
330
92
100
AcDbEntity
  8
0
  6
Continuous
 62
     0
370
     0
100
AcDbMText
 10
0.0
 20
-5.5663982227
 30
0.0
 40
1.5
 41
0.0
 71
     1
 72
     1
  1
TOLERANCES:
  7
SLDTEXTSTYLE0
 73
     1
 44
1.0
  0
MTEXT
  5
9B
330
92
100
AcDbEntity
  8
0
  6
Continuous
 62
     0
370
     0
100
AcDbMText
 10
1.6624999698
 20
-8.0663981668
 30
0.0
 40
1.5
 41
0.0
 71
     1
 72
     1
  1
Iso 2768 mK
  7
SLDTEXTSTYLE0
 73
     1
 44
1.0
  0
ENDBLK
  5
94
330
92
100
AcDbEntity
  8
0
100
AcDbBlockEnd
  0
BLOCK
  5
AA
330
A9
100
AcDbEntity
  8
0
100
AcDbBlockBegin
  2
*D4
 70
     1
 10
0.0
 20
0.0
 30
0.0
  3
*D4
  1

  0
SOLID
  5
AC
330
A9
100
AcDbEntity
  8
0
  6
Continuous
 62
     7
370
     0
100
AcDbTrace
 10
70.4384111062
 20
240.7090292085
 30
0.0
 11
69.9304111062
 21
237.4070292085
 31
0.0
 12
70.9464111062
 22
237.4070292085
 32
0.0
 13
70.9464111062
 23
237.4070292085
 33
0.0
  0
SOLID
  5
AD
330
A9
100
AcDbEntity
  8
0
  6
Continuous
 62
     7
370
     0
100
AcDbTrace
 10
70.4384111062
 20
242.7090292085
 30
0.0
 11
70.9464111062
 21
246.0110292085
 31
0.0
 12
69.9304111062
 22
246.0110292085
 32
0.0
 13
69.9304111062
 23
246.0110292085
 33
0.0
  0
LINE
  5
AE
330
A9
100
AcDbEntity
  8
0
  6
Continuous
 62
     7
370
     0
100
AcDbLine
 10
61.4384111062
 20
240.7090292085
 30
0.0
 11
71.4384111062
 21
240.7090292085
 31
0.0
  0
LINE
  5
AF
330
A9
100
AcDbEntity
  8
0
  6
Continuous
 62
     7
370
     0
100
AcDbLine
 10
61.4384111062
 20
242.7090292085
 30
0.0
 11
71.4384111062
 21
242.7090292085
 31
0.0
  0
LINE
  5
B0
330
A9
100
AcDbEntity
  8
0
  6
Continuous
 62
     7
370
     0
100
AcDbLine
 10
70.4384111062
 20
240.7090292085
 30
0.0
 11
70.4384111062
 21
234.3590292085
 31
0.0
  0
LINE
  5
B1
330
A9
100
AcDbEntity
  8
0
  6
Continuous
 62
     7
370
     0
100
AcDbLine
 10
70.4384111062
 20
240.7090292085
 30
0.0
 11
70.4384111062
 21
242.7090292085
 31
0.0
  0
LINE
  5
B2
330
A9
100
AcDbEntity
  8
0
  6
Continuous
 62
     7
370
     0
100
AcDbLine
 10
70.4384111062
 20
242.7090292085
 30
0.0
 11
70.4384111062
 21
256.7170154896
 31
0.0
  0
MTEXT
  5
B3
330
A9
100
AcDbEntity
  8
0
  6
Continuous
 62
     7
370
     0
100
AcDbMText
 10
65.9266741916
 20
248.7010429275
 30
0.02
 40
3.5
 41
0.0
 71
     1
 72
     1
  1
10
  7
SLDTEXTSTYLE0
 11
6.123233995736766E-17
 21
1.0
 31
0.0
 73
     1
 44
1.0
  0
ENDBLK
  5
AB
330
A9
100
AcDbEntity
  8
0
100
AcDbBlockEnd
  0
BLOCK
  5
C7
330
C6
100
AcDbEntity
  8
0
100
AcDbBlockBegin
  2
*D5
 70
     1
 10
0.0
 20
0.0
 30
0.0
  3
*D5
  1

  0
SOLID
  5
C9
330
C6
100
AcDbEntity
  8
0
  6
Continuous
 62
     7
370
     0
100
AcDbTrace
 10
85.2165361017
 20
181.5361147716
 30
0.0
 11
84.7085361017
 21
178.2341147716
 31
0.0
 12
85.7245361017
 22
178.2341147716
 32
0.0
 13
85.7245361017
 23
178.2341147716
 33
0.0
  0
SOLID
  5
CA
330
C6
100
AcDbEntity
  8
0
  6
Continuous
 62
     7
370
     0
100
AcDbTrace
 10
85.2165361017
 20
101.5361147716
 30
0.0
 11
85.7245361017
 21
104.8381147716
 31
0.0
 12
84.7085361017
 22
104.8381147716
 32
0.0
 13
84.7085361017
 23
104.8381147716
 33
0.0
  0
LINE
  5
CB
330
C6
100
AcDbEntity
  8
0
  6
Continuous
 62
     7
370
     0
100
AcDbLine
 10
56.4384111062
 20
181.5361147716
 30
0.0
 11
86.2165361017
 21
181.5361147716
 31
0.0
  0
LINE
  5
CC
330
C6
100
AcDbEntity
  8
0
  6
Continuous
 62
     7
370
     0
100
AcDbLine
 10
56.4384111062
 20
101.5361147716
 30
0.0
 11
86.2165361017
 21
101.5361147716
 31
0.0
  0
LINE
  5
CD
330
C6
100
AcDbEntity
  8
0
  6
Continuous
 62
     7
370
     0
100
AcDbLine
 10
85.2165361017
 20
181.5361147716
 30
0.0
 11
85.2165361017
 21
101.5361147716
 31
0.0
  0
MTEXT
  5
CE
330
C6
100
AcDbEntity
  8
0
  6
Continuous
 62
     7
370
     0
100
AcDbMText
 10
80.7047991872
 20
135.4688979268
 30
-0.98
 40
3.5
 41
0.0
 71
     1
 72
     1
  1
400
  7
SLDTEXTSTYLE0
 11
-7.044195017643634E-15
 21
1.0
 31
0.0
 73
     1
 44
1.0
  0
ENDBLK
  5
C8
330
C6
100
AcDbEntity
  8
0
100
AcDbBlockEnd
  0
BLOCK
  5
D2
330
D1
100
AcDbEntity
  8
0
100
AcDbBlockBegin
  2
_NONE
 70
     0
 10
0.0
 20
0.0
 30
0.0
  3
_NONE
  1

  0
ENDBLK
  5
D3
330
D1
100
AcDbEntity
  8
0
100
AcDbBlockEnd
  0
BLOCK
  5
D5
330
D4
100
AcDbEntity
  8
0
100
AcDbBlockBegin
  2
*D7
 70
     1
 10
0.0
 20
0.0
 30
0.0
  3
*D7
  1

  0
SOLID
  5
D7
330
D4
100
AcDbEntity
  8
0
  6
Continuous
 62
     7
370
     0
100
AcDbTrace
 10
56.4384111062
 20
181.2681655791
 30
0.0
 11
58.5293520113
 21
183.8737814624
 31
0.0
 12
57.6494702011
 22
184.3817814624
 32
0.0
 13
57.6494702011
 23
184.3817814624
 33
0.0
  0
LINE
  5
D8
330
D4
100
AcDbEntity
  8
0
  6
Continuous
 62
     7
370
     0
100
AcDbLine
 10
56.4384111062
 20
181.2681655791
 30
0.0
 11
70.3021706526
 21
205.2809014975
 31
0.0
  0
LINE
  5
D9
330
D4
100
AcDbEntity
  8
0
  6
Continuous
 62
     7
370
     0
100
AcDbLine
 10
56.4384111062
 20
181.2681655791
 30
0.0
 11
54.4384111062
 21
177.804063964
 31
0.0
  0
MTEXT
  5
DA
330
D4
100
AcDbEntity
  8
0
  6
Continuous
 62
     7
370
     0
100
AcDbMText
 10
54.9942060338
 20
187.7268752077
 30
-0.98
 40
3.5
 41
0.0
 71
     1
 72
     1
  1
%%c
  7
SLDTEXTSTYLE0
 11
0.4999999999999986
 21
0.8660254037844395
 31
0.0
 73
     1
 44
1.0
  0
MTEXT
  5
DB
330
D4
100
AcDbEntity
  8
0
  6
Continuous
 62
     7
370
     0
100
AcDbMText
 10
57.5871164697
 20
192.3248721753
 30
-0.98
 40
3.5
 41
0.0
 71
     1
 72
     1
  1
20
  7
SLDTEXTSTYLE0
 11
0.4999999999999986
 21
0.8660254037844395
 31
0.0
 73
     1
 44
1.0
  0
MTEXT
  5
DC
330
D4
100
AcDbEntity
  8
0
  6
Continuous
 62
     7
370
     0
100
AcDbMText
 10
62.2513527507
 20
200.4035663926
 30
-0.98
 40
3.5
 41
0.0
 71
     1
 72
     1
  1
(x2)
  7
SLDTEXTSTYLE0
 11
0.4999999999999986
 21
0.8660254037844395
 31
0.0
 73
     1
 44
1.0
  0
ENDBLK
  5
D6
330
D4
100
AcDbEntity
  8
0
100
AcDbBlockEnd
  0
BLOCK
  5
DF
330
DE
100
AcDbEntity
  8
0
100
AcDbBlockBegin
  2
*D8
 70
     1
 10
0.0
 20
0.0
 30
0.0
  3
*D8
  1

  0
SOLID
  5
E1
330
DE
100
AcDbEntity
  8
0
  6
Continuous
 62
     7
370
     0
100
AcDbTrace
 10
55.4384111062
 20
92.4361964188
 30
0.0
 11
52.1364111062
 21
92.9441964188
 31
0.0
 12
52.1364111062
 22
91.9281964188
 32
0.0
 13
52.1364111062
 23
91.9281964188
 33
0.0
  0
SOLID
  5
E2
330
DE
100
AcDbEntity
  8
0
  6
Continuous
 62
     7
370
     0
100
AcDbTrace
 10
60.4384111062
 20
92.4361964188
 30
0.0
 11
63.7404111062
 21
91.9281964188
 31
0.0
 12
63.7404111062
 22
92.9441964188
 32
0.0
 13
63.7404111062
 23
92.9441964188
 33
0.0
  0
LINE
  5
E3
330
DE
100
AcDbEntity
  8
0
  6
Continuous
 62
     7
370
     0
100
AcDbLine
 10
55.4384111062
 20
145.0361147716
 30
0.0
 11
55.4384111062
 21
91.4361964188
 31
0.0
  0
LINE
  5
E4
330
DE
100
AcDbEntity
  8
0
  6
Continuous
 62
     7
370
     0
100
AcDbLine
 10
60.4384111062
 20
140.5361147716
 30
0.0
 11
60.4384111062
 21
91.4361964188
 31
0.0
  0
LINE
  5
E5
330
DE
100
AcDbEntity
  8
0
  6
Continuous
 62
     7
370
     0
100
AcDbLine
 10
55.4384111062
 20
92.4361964188
 30
0.0
 11
49.0884111062
 21
92.4361964188
 31
0.0
  0
LINE
  5
E6
330
DE
100
AcDbEntity
  8
0
  6
Continuous
 62
     7
370
     0
100
AcDbLine
 10
55.4384111062
 20
92.4361964188
 30
0.0
 11
60.4384111062
 21
92.4361964188
 31
0.0
  0
LINE
  5
E7
330
DE
100
AcDbEntity
  8
0
  6
Continuous
 62
     7
370
     0
100
AcDbLine
 10
60.4384111062
 20
92.4361964188
 30
0.0
 11
82.4525988937
 21
92.4361964188
 31
0.0
  0
MTEXT
  5
E8
330
DE
100
AcDbEntity
  8
0
  6
Continuous
 62
     7
370
     0
100
AcDbMText
 10
64.8748203457
 20
96.9479333334
 30
-0.98
 40
3.5
 41
0.0
 71
     1
 72
     1
  1
25
  7
SLDTEXTSTYLE0
 73
     1
 44
1.0
  0
MTEXT
  5
E9
330
DE
100
AcDbEntity
  8
0
  6
Continuous
 62
     7
370
     0
100
AcDbMText
 10
74.2032929079
 20
96.9479333334
 30
-0.98
 40
3.5
 41
0.0
 71
     1
 72
     1
  1
(x2)
  7
SLDTEXTSTYLE0
 73
     1
 44
1.0
  0
ENDBLK
  5
E0
330
DE
100
AcDbEntity
  8
0
100
AcDbBlockEnd
  0
BLOCK
  5
EC
330
EB
100
AcDbEntity
  8
0
100
AcDbBlockBegin
  2
*D9
 70
     1
 10
0.0
 20
0.0
 30
0.0
  3
*D9
  1

  0
SOLID
  5
EE
330
EB
100
AcDbEntity
  8
0
  6
Continuous
 62
     7
370
     0
100
AcDbTrace
 10
53.7063602986
 20
142.5361147716
 30
0.0
 11
51.1007444153
 21
144.6270556767
 31
0.0
 12
50.5927444153
 22
143.7471738664
 32
0.0
 13
50.5927444153
 23
143.7471738664
 33
0.0
  0
LINE
  5
EF
330
EB
100
AcDbEntity
  8
0
  6
Continuous
 62
     7
370
     0
100
AcDbLine
 10
53.7063602986
 20
142.5361147716
 30
0.0
 11
28.3854555875
 21
157.1551459227
 31
0.0
  0
LINE
  5
F0
330
EB
100
AcDbEntity
  8
0
  6
Continuous
 62
     7
370
     0
100
AcDbLine
 10
53.7063602986
 20
142.5361147716
 30
0.0
 11
57.1704619138
 21
140.5361147716
 31
0.0
  0
MTEXT
  5
F1
330
EB
100
AcDbEntity
  8
0
  6
Continuous
 62
     7
370
     0
100
AcDbMText
 10
30.6324029095
 20
161.0469728463
 30
-0.98
 40
3.5
 41
0.0
 71
     1
 72
     1
  1
%%c
  7
SLDTEXTSTYLE0
 11
0.866025403784438
 21
-0.500000000000001
 31
0.0
 73
     1
 44
1.0
  0
MTEXT
  5
F2
330
EB
100
AcDbEntity
  8
0
  6
Continuous
 62
     7
370
     0
100
AcDbMText
 10
35.2303998771
 20
158.4540624105
 30
-0.98
 40
3.5
 41
0.0
 71
     1
 72
     1
  1
20
  7
SLDTEXTSTYLE0
 11
0.866025403784438
 21
-0.500000000000001
 31
0.0
 73
     1
 44
1.0
  0
ENDBLK
  5
ED
330
EB
100
AcDbEntity
  8
0
100
AcDbBlockEnd
  0
BLOCK
  5
F7
330
F6
100
AcDbEntity
  8
0
100
AcDbBlockBegin
  2
SW_CENTERMARKSYMBOL_0
 70
     0
 10
0.0
 20
0.0
 30
0.0
  3
SW_CENTERMARKSYMBOL_0
  1

  0
LINE
  5
F9
330
F6
100
AcDbEntity
  8
0
  6
Continuous
 62
     0
370
     0
100
AcDbLine
 10
0.0
 20
0.0
 30
0.0
 11
0.0
 21
0.5
 31
0.0
  0
LINE
  5
FA
330
F6
100
AcDbEntity
  8
0
  6
Continuous
 62
     0
370
     0
100
AcDbLine
 10
0.0
 20
0.0
 30
0.0
 11
-0.5
 21
0.0
 31
0.0
  0
LINE
  5
FB
330
F6
100
AcDbEntity
  8
0
  6
Continuous
 62
     0
370
     0
100
AcDbLine
 10
0.0
 20
0.0
 30
0.0
 11
0.0
 21
-0.5
 31
0.0
  0
LINE
  5
FC
330
F6
100
AcDbEntity
  8
0
  6
Continuous
 62
     0
370
     0
100
AcDbLine
 10
0.0
 20
0.0
 30
0.0
 11
0.5
 21
0.0
 31
0.0
  0
LINE
  5
FD
330
F6
100
AcDbEntity
  8
0
  6
Continuous
 62
     0
370
     0
100
AcDbLine
 10
0.0
 20
1.0
 30
0.0
 11
0.0
 21
1.4
 31
0.0
  0
LINE
  5
FE
330
F6
100
AcDbEntity
  8
0
  6
Continuous
 62
     0
370
     0
100
AcDbLine
 10
-1.0
 20
0.0
 30
0.0
 11
-1.4
 21
0.0
 31
0.0
  0
LINE
  5
FF
330
F6
100
AcDbEntity
  8
0
  6
Continuous
 62
     0
370
     0
100
AcDbLine
 10
0.0
 20
-1.0
 30
0.0
 11
0.0
 21
-1.4
 31
0.0
  0
LINE
  5
100
330
F6
100
AcDbEntity
  8
0
  6
Continuous
 62
     0
370
     0
100
AcDbLine
 10
1.0
 20
0.0
 30
0.0
 11
1.4
 21
0.0
 31
0.0
  0
ENDBLK
  5
F8
330
F6
100
AcDbEntity
  8
0
100
AcDbBlockEnd
  0
BLOCK
  5
103
330
102
100
AcDbEntity
  8
0
100
AcDbBlockBegin
  2
SW_CENTERMARKSYMBOL_1
 70
     0
 10
0.0
 20
0.0
 30
0.0
  3
SW_CENTERMARKSYMBOL_1
  1

  0
LINE
  5
105
330
102
100
AcDbEntity
  8
0
  6
Continuous
 62
     0
370
     0
100
AcDbLine
 10
0.0
 20
0.0
 30
0.0
 11
0.0
 21
0.5
 31
0.0
  0
LINE
  5
106
330
102
100
AcDbEntity
  8
0
  6
Continuous
 62
     0
370
     0
100
AcDbLine
 10
0.0
 20
0.0
 30
0.0
 11
-0.5
 21
0.0
 31
0.0
  0
LINE
  5
107
330
102
100
AcDbEntity
  8
0
  6
Continuous
 62
     0
370
     0
100
AcDbLine
 10
0.0
 20
0.0
 30
0.0
 11
0.0
 21
-0.5
 31
0.0
  0
LINE
  5
108
330
102
100
AcDbEntity
  8
0
  6
Continuous
 62
     0
370
     0
100
AcDbLine
 10
0.0
 20
0.0
 30
0.0
 11
0.5
 21
0.0
 31
0.0
  0
LINE
  5
109
330
102
100
AcDbEntity
  8
0
  6
Continuous
 62
     0
370
     0
100
AcDbLine
 10
0.0
 20
1.0
 30
0.0
 11
0.0
 21
1.4
 31
0.0
  0
LINE
  5
10A
330
102
100
AcDbEntity
  8
0
  6
Continuous
 62
     0
370
     0
100
AcDbLine
 10
-1.0
 20
0.0
 30
0.0
 11
-1.4
 21
0.0
 31
0.0
  0
LINE
  5
10B
330
102
100
AcDbEntity
  8
0
  6
Continuous
 62
     0
370
     0
100
AcDbLine
 10
0.0
 20
-1.0
 30
0.0
 11
0.0
 21
-1.4
 31
0.0
  0
LINE
  5
10C
330
102
100
AcDbEntity
  8
0
  6
Continuous
 62
     0
370
     0
100
AcDbLine
 10
1.0
 20
0.0
 30
0.0
 11
1.4
 21
0.0
 31
0.0
  0
ENDBLK
  5
104
330
102
100
AcDbEntity
  8
0
100
AcDbBlockEnd
  0
BLOCK
  5
10F
330
10E
100
AcDbEntity
  8
0
100
AcDbBlockBegin
  2
SW_CENTERMARKSYMBOL_2
 70
     0
 10
0.0
 20
0.0
 30
0.0
  3
SW_CENTERMARKSYMBOL_2
  1

  0
LINE
  5
111
330
10E
100
AcDbEntity
  8
0
  6
Continuous
 62
     0
370
     0
100
AcDbLine
 10
0.0
 20
0.0
 30
0.0
 11
0.0
 21
0.5
 31
0.0
  0
LINE
  5
112
330
10E
100
AcDbEntity
  8
0
  6
Continuous
 62
     0
370
     0
100
AcDbLine
 10
0.0
 20
0.0
 30
0.0
 11
-0.5
 21
0.0
 31
0.0
  0
LINE
  5
113
330
10E
100
AcDbEntity
  8
0
  6
Continuous
 62
     0
370
     0
100
AcDbLine
 10
0.0
 20
0.0
 30
0.0
 11
0.0
 21
-0.5
 31
0.0
  0
LINE
  5
114
330
10E
100
AcDbEntity
  8
0
  6
Continuous
 62
     0
370
     0
100
AcDbLine
 10
0.0
 20
0.0
 30
0.0
 11
0.5
 21
0.0
 31
0.0
  0
LINE
  5
115
330
10E
100
AcDbEntity
  8
0
  6
Continuous
 62
     0
370
     0
100
AcDbLine
 10
0.0
 20
1.0
 30
0.0
 11
0.0
 21
2.5
 31
0.0
  0
LINE
  5
116
330
10E
100
AcDbEntity
  8
0
  6
Continuous
 62
     0
370
     0
100
AcDbLine
 10
-1.0
 20
0.0
 30
0.0
 11
-2.5
 21
0.0
 31
0.0
  0
LINE
  5
117
330
10E
100
AcDbEntity
  8
0
  6
Continuous
 62
     0
370
     0
100
AcDbLine
 10
0.0
 20
-1.0
 30
0.0
 11
0.0
 21
-2.5
 31
0.0
  0
LINE
  5
118
330
10E
100
AcDbEntity
  8
0
  6
Continuous
 62
     0
370
     0
100
AcDbLine
 10
1.0
 20
0.0
 30
0.0
 11
2.5
 21
0.0
 31
0.0
  0
ENDBLK
  5
110
330
10E
100
AcDbEntity
  8
0
100
AcDbBlockEnd
  0
BLOCK
  5
11B
330
11A
100
AcDbEntity
  8
0
100
AcDbBlockBegin
  2
SW_DATUMTAG_0
 70
     0
 10
0.0
 20
0.0
 30
0.0
  3
SW_DATUMTAG_0
  1

  0
LINE
  5
11D
330
11A
100
AcDbEntity
  8
0
  6
Continuous
 62
     0
370
     0
100
AcDbLine
 10
23.4165882682
 20
8.2300166162
 30
0.0
 11
11.5756945139
 21
2.7781251702
 31
0.0
  0
LINE
  5
11E
330
11A
100
AcDbEntity
  8
0
  6
Continuous
 62
     0
370
     0
100
AcDbLine
 10
11.5756945139
 20
2.7781251702
 30
0.0
 11
5.2256945139
 21
2.7781251702
 31
0.0
  0
LINE
  5
11F
330
11A
100
AcDbEntity
  8
0
  6
Continuous
 62
     0
370
     0
100
AcDbLine
 10
5.2256945139
 20
-0.7218748298
 30
0.0
 11
-1.7743054861
 21
-0.7218748298
 31
0.0
  0
LINE
  5
120
330
11A
100
AcDbEntity
  8
0
  6
Continuous
 62
     0
370
     0
100
AcDbLine
 10
-1.7743054861
 20
-0.7218748298
 30
0.0
 11
-1.7743054861
 21
6.2781251702
 31
0.0
  0
LINE
  5
121
330
11A
100
AcDbEntity
  8
0
  6
Continuous
 62
     0
370
     0
100
AcDbLine
 10
-1.7743054861
 20
6.2781251702
 30
0.0
 11
5.2256945139
 21
6.2781251702
 31
0.0
  0
LINE
  5
122
330
11A
100
AcDbEntity
  8
0
  6
Continuous
 62
     0
370
     0
100
AcDbLine
 10
5.2256945139
 20
6.2781251702
 30
0.0
 11
5.2256945139
 21
-0.7218748298
 31
0.0
  0
MTEXT
  5
123
330
11A
100
AcDbEntity
  8
0
  6
Continuous
 62
     0
370
     0
100
AcDbMText
 10
0.0
 20
4.5117370892
 30
1.0
 40
3.5
 41
0.0
 71
     1
 72
     1
  1
A
  7
SLDTEXTSTYLE0
 73
     1
 44
1.0
  0
SOLID
  5
124
330
11A
100
AcDbEntity
  8
0
  6
Continuous
 62
     0
370
     0
100
AcDbTrace
 10
22.8310701295
 20
9.5016960212
 30
0.0
 11
24.0021064068
 21
6.9583372111
 31
0.0
 12
21.1911493093
 22
7.2053598736
 32
0.0
 13
21.1911493093
 23
7.2053598736
 33
0.0
  0
ENDBLK
  5
11C
330
11A
100
AcDbEntity
  8
0
100
AcDbBlockEnd
  0
BLOCK
  5
15C
330
15B
100
AcDbEntity
  8
0
100
AcDbBlockBegin
  2
*D14
 70
     1
 10
0.0
 20
0.0
 30
0.0
  3
*D14
  1

  0
SOLID
  5
15E
330
15B
100
AcDbEntity
  8
0
  6
Continuous
 62
     7
370
     0
100
AcDbTrace
 10
108.114586282
 20
261.1775554536
 30
0.0
 11
111.416586282
 21
260.6695554536
 31
0.0
 12
111.416586282
 22
261.6855554536
 32
0.0
 13
111.416586282
 23
261.6855554536
 33
0.0
  0
SOLID
  5
15F
330
15B
100
AcDbEntity
  8
0
  6
Continuous
 62
     7
370
     0
100
AcDbTrace
 10
184.114586282
 20
261.1775554536
 30
0.0
 11
180.812586282
 21
261.6855554536
 31
0.0
 12
180.812586282
 22
260.6695554536
 32
0.0
 13
180.812586282
 23
260.6695554536
 33
0.0
  0
LINE
  5
160
330
15B
100
AcDbEntity
  8
0
  6
Continuous
 62
     7
370
     0
100
AcDbLine
 10
108.114586282
 20
248.9556804491
 30
0.0
 11
108.114586282
 21
262.1775554536
 31
0.0
  0
LINE
  5
161
330
15B
100
AcDbEntity
  8
0
  6
Continuous
 62
     7
370
     0
100
AcDbLine
 10
184.114586282
 20
248.9556804491
 30
0.0
 11
184.114586282
 21
262.1775554536
 31
0.0
  0
LINE
  5
162
330
15B
100
AcDbEntity
  8
0
  6
Continuous
 62
     7
370
     0
100
AcDbLine
 10
108.114586282
 20
261.1775554536
 30
0.0
 11
184.114586282
 21
261.1775554536
 31
0.0
  0
MTEXT
  5
163
330
15B
100
AcDbEntity
  8
0
  6
Continuous
 62
     7
370
     0
100
AcDbMText
 10
140.8135447534
 20
265.6892923682
 30
0.02
 40
3.5
 41
0.0
 71
     1
 72
     1
  1
380
  7
SLDTEXTSTYLE0
 73
     1
 44
1.0
  0
ENDBLK
  5
15D
330
15B
100
AcDbEntity
  8
0
100
AcDbBlockEnd
  0
BLOCK
  5
166
330
165
100
AcDbEntity
  8
0
100
AcDbBlockBegin
  2
*D15
 70
     1
 10
0.0
 20
0.0
 30
0.0
  3
*D15
  1

  0
SOLID
  5
168
330
165
100
AcDbEntity
  8
0
  6
Continuous
 62
     7
370
     0
100
AcDbTrace
 10
107.214586282
 20
226.904761313
 30
0.0
 11
103.912586282
 21
227.412761313
 31
0.0
 12
103.912586282
 22
226.396761313
 32
0.0
 13
103.912586282
 23
226.396761313
 33
0.0
  0
SOLID
  5
169
330
165
100
AcDbEntity
  8
0
  6
Continuous
 62
     7
370
     0
100
AcDbTrace
 10
109.014586282
 20
226.904761313
 30
0.0
 11
112.316586282
 21
226.396761313
 31
0.0
 12
112.316586282
 22
227.412761313
 32
0.0
 13
112.316586282
 23
227.412761313
 33
0.0
  0
LINE
  5
16A
330
165
100
AcDbEntity
  8
0
  6
Continuous
 62
     7
370
     0
100
AcDbLine
 10
107.214586282
 20
239.7090292085
 30
0.0
 11
107.214586282
 21
225.904761313
 31
0.0
  0
LINE
  5
16B
330
165
100
AcDbEntity
  8
0
  6
Continuous
 62
     7
370
     0
100
AcDbLine
 10
109.014586282
 20
239.7090292085
 30
0.0
 11
109.014586282
 21
225.904761313
 31
0.0
  0
LINE
  5
16C
330
165
100
AcDbEntity
  8
0
  6
Continuous
 62
     7
370
     0
100
AcDbLine
 10
107.214586282
 20
226.904761313
 30
0.0
 11
79.7095344876
 21
226.904761313
 31
0.0
  0
LINE
  5
16D
330
165
100
AcDbEntity
  8
0
  6
Continuous
 62
     7
370
     0
100
AcDbLine
 10
107.214586282
 20
226.904761313
 30
0.0
 11
109.014586282
 21
226.904761313
 31
0.0
  0
LINE
  5
16E
330
165
100
AcDbEntity
  8
0
  6
Continuous
 62
     7
370
     0
100
AcDbLine
 10
109.014586282
 20
226.904761313
 30
0.0
 11
115.364586282
 21
226.904761313
 31
0.0
  0
MTEXT
  5
16F
330
165
100
AcDbEntity
  8
0
  6
Continuous
 62
     7
370
     0
100
AcDbMText
 10
79.7095344876
 20
231.4164984022
 30
2.52
 40
3.5
 41
0.0
 71
     1
 72
     1
  1
%%c
  7
SLDTEXTSTYLE0
 73
     1
 44
1.0
  0
MTEXT
  5
170
330
165
100
AcDbEntity
  8
0
  6
Continuous
 62
     7
370
     0
100
AcDbMText
 10
84.987971886
 20
231.4699705789
 30
2.52
 40
3.5
 41
0.0
 71
     1
 72
     1
  1
9
  7
SLDTEXTSTYLE0
 73
     1
 44
1.0
  0
MTEXT
  5
171
330
165
100
AcDbEntity
  8
0
  6
Continuous
 62
     7
370
     0
100
AcDbMText
 10
91.7303330218
 20
231.4699705789
 30
2.52
 40
3.5
 41
0.0
 71
     1
 72
     1
  1
(x2)
  7
SLDTEXTSTYLE0
 73
     1
 44
1.0
  0
ENDBLK
  5
167
330
165
100
AcDbEntity
  8
0
100
AcDbBlockEnd
  0
BLOCK
  5
174
330
173
100
AcDbEntity
  8
0
100
AcDbBlockBegin
  2
*D16
 70
     1
 10
0.0
 20
0.0
 30
0.0
  3
*D16
  1

  0
SOLID
  5
176
330
173
100
AcDbEntity
  8
0
  6
Continuous
 62
     7
370
     0
100
AcDbTrace
 10
89.844586282
 20
242.7090292085
 30
0.0
 11
90.352586282
 21
246.0110292085
 31
0.0
 12
89.336586282
 22
246.0110292085
 32
0.0
 13
89.336586282
 23
246.0110292085
 33
0.0
  0
SOLID
  5
177
330
173
100
AcDbEntity
  8
0
  6
Continuous
 62
     7
370
     0
100
AcDbTrace
 10
89.844586282
 20
241.8790292085
 30
0.0
 11
89.336586282
 21
238.5770292085
 31
0.0
 12
90.352586282
 22
238.5770292085
 32
0.0
 13
90.352586282
 23
238.5770292085
 33
0.0
  0
LINE
  5
178
330
173
100
AcDbEntity
  8
0
  6
Continuous
 62
     7
370
     0
100
AcDbLine
 10
108.844586282
 20
242.7090292085
 30
0.0
 11
88.844586282
 21
242.7090292085
 31
0.0
  0
LINE
  5
179
330
173
100
AcDbEntity
  8
0
  6
Continuous
 62
     7
370
     0
100
AcDbLine
 10
182.214586282
 20
241.8790292085
 30
0.0
 11
88.844586282
 21
241.8790292085
 31
0.0
  0
LINE
  5
17A
330
173
100
AcDbEntity
  8
0
  6
Continuous
 62
     7
370
     0
100
AcDbLine
 10
89.844586282
 20
242.7090292085
 30
0.0
 11
89.844586282
 21
263.437501121
 31
0.0
  0
LINE
  5
17B
330
173
100
AcDbEntity
  8
0
  6
Continuous
 62
     7
370
     0
100
AcDbLine
 10
89.844586282
 20
242.7090292085
 30
0.0
 11
89.844586282
 21
241.8790292085
 31
0.0
  0
LINE
  5
17C
330
173
100
AcDbEntity
  8
0
  6
Continuous
 62
     7
370
     0
100
AcDbLine
 10
89.844586282
 20
241.8790292085
 30
0.0
 11
89.844586282
 21
235.5290292085
 31
0.0
  0
MTEXT
  5
17D
330
173
100
AcDbEntity
  8
0
  6
Continuous
 62
     7
370
     0
100
AcDbMText
 10
85.3328493674
 20
241.9805572961
 30
2.52
 40
3.5
 41
0.0
 71
     1
 72
     1
  1
4,15
  7
SLDTEXTSTYLE0
 11
-7.044195017643634E-15
 21
1.0
 31
0.0
 73
     1
 44
1.0
  0
MTEXT
  5
17E
330
173
100
AcDbEntity
  8
0
  6
Continuous
 62
     7
370
     0
100
AcDbMText
 10
85.3328493674
 20
255.1881969978
 30
2.52
 40
3.5
 41
0.0
 71
     1
 72
     1
  1
(x2)
  7
SLDTEXTSTYLE0
 11
-7.044195017643634E-15
 21
1.0
 31
0.0
 73
     1
 44
1.0
  0
ENDBLK
  5
175
330
173
100
AcDbEntity
  8
0
100
AcDbBlockEnd
  0
BLOCK
  5
182
330
181
100
AcDbEntity
  8
0
100
AcDbBlockBegin
  2
*D17
 70
     1
 10
0.0
 20
0.0
 30
0.0
  3
*D17
  1

  0
ARC
  5
184
330
181
100
AcDbEntity
  8
0
  6
Continuous
 62
     7
370
     0
100
AcDbCircle
 10
108.114586282
 20
240.9790292085
 30
0.0
 40
13.48085623800092
100
AcDbArc
 50
45.0
 51
135.0
  0
ARC
  5
185
330
181
100
AcDbEntity
  8
0
  6
Continuous
 62
     7
370
     0
100
AcDbCircle
 10
108.114586282
 20
240.9790292085
 30
0.0
 40
13.48085623800092
100
AcDbArc
 50
18.6362147999
 51
45.0
  0
ARC
  5
186
330
181
100
AcDbEntity
  8
0
  6
Continuous
 62
     7
370
     0
100
AcDbCircle
 10
108.114586282
 20
240.9790292085
 30
0.0
 40
13.48085623800092
100
AcDbArc
 50
135.0
 51
161.3637852001
  0
SOLID
  5
187
330
181
100
AcDbEntity
  8
0
  6
Continuous
 62
     7
370
     0
100
AcDbTrace
 10
117.6469911441
 20
250.5114340706
 30
0.0
 11
119.2856193752
 21
247.6000485722
 31
0.0
 12
120.0849431906
 22
248.2272147688
 32
0.0
 13
120.0849431906
 23
248.2272147688
 33
0.0
  0
SOLID
  5
188
330
181
100
AcDbEntity
  8
0
  6
Continuous
 62
     7
370
     0
100
AcDbTrace
 10
98.5821814199
 20
250.5114340706
 30
0.0
 11
96.1442293734
 21
248.2272147688
 31
0.0
 12
96.9435531888
 22
247.6000485722
 32
0.0
 13
96.9435531888
 23
247.6000485722
 33
0.0
  0
LINE
  5
189
330
181
100
AcDbEntity
  8
0
  6
Continuous
 62
     7
370
     0
100
AcDbLine
 10
110.5516930632
 20
243.4161359897
 30
0.0
 11
118.3540979253
 21
251.2185408518
 31
0.0
  0
LINE
  5
18A
330
181
100
AcDbEntity
  8
0
  6
Continuous
 62
     7
370
     0
100
AcDbLine
 10
105.6774795008
 20
243.4161359897
 30
0.0
 11
97.8750746387
 21
251.2185408518
 31
0.0
  0
MTEXT
  5
18B
330
181
100
AcDbEntity
  8
0
  6
Continuous
 62
     7
370
     0
100
AcDbMText
 10
98.4891495029
 20
259.0235848125
 30
2.52
 40
3.5
 41
0.0
 71
     1
 72
     1
  1
90°
  7
SLDTEXTSTYLE0
 11
0.9999855738892736
 21
-0.00537140701680174
 31
0.0
 73
     1
 44
1.0
  0
MTEXT
  5
18C
330
181
100
AcDbEntity
  8
0
  6
Continuous
 62
     7
370
     0
100
AcDbMText
 10
109.6841271628
 20
258.9634511635
 30
2.52
 40
3.5
 41
0.0
 71
     1
 72
     1
  1
(x2)
  7
SLDTEXTSTYLE0
 11
0.9999855738892736
 21
-0.00537140701680174
 31
0.0
 73
     1
 44
1.0
  0
ENDBLK
  5
183
330
181
100
AcDbEntity
  8
0
100
AcDbBlockEnd
  0
ENDSEC
  0
SECTION
  2
ENTITIES
  0
IMAGE
  5
47
330
1F
100
AcDbEntity
  8
0
 92
      140
310
8C000000010000008400000006000000050000006990474689D438401D3F14BDC5716F4000000000000000006290474689D438400C723F8850717040000000000000000072808F79477429400B723F885071704000000000000000007F808F79477429401C3F14BDC5716F4000000000000000006990474689D438401D3F14
310
BDC5716F400000000000000000
100
AcDbRasterImage
 90
        0
 10
24.8302196431
 20
251.5553880115
 30
0.0
 11
-5.582327216704780E-17
 21
0.02881693293640597
 31
0.0
 12
-0.02881693293640586
 22
-5.582327216704759E-17
 32
0.0
 13
400.0
 23
420.0
340
46
 70
     7
280
     0
281
    50
282
    50
283
     0
360
48
 71
     1
 91
        2
 14
-0.5
 24
-0.5
 14
399.5
 24
419.5
  0
LINE
  5
49
330
1F
100
AcDbEntity
  8
0
  6
Continuous
 62
     7
370
    40
100
AcDbLine
 10
10.0788435654
 20
5.2147801566
 30
0.0
 11
205.0788435654
 21
5.2147801566
 31
0.0
  0
LINE
  5
4A
330
1F
100
AcDbEntity
  8
0
  6
Continuous
 62
     7
370
    40
100
AcDbLine
 10
0.0788435654
 20
0.2147801566
 30
0.0
 11
210.0788435654
 21
0.2147801566
 31
0.0
  0
LINE
  5
4B
330
1F
100
AcDbEntity
  8
0
  6
Continuous
 62
     7
370
    40
100
AcDbLine
 10
0.0788435654
 20
0.2147801566
 30
0.0
 11
0.0788435654
 21
297.2147801566
 31
0.0
  0
LINE
  5
4C
330
1F
100
AcDbEntity
  8
0
  6
Continuous
 62
     7
370
    40
100
AcDbLine
 10
0.0788435654
 20
297.2147801566
 30
0.0
 11
210.0788435654
 21
297.2147801566
 31
0.0
  0
LINE
  5
4D
330
1F
100
AcDbEntity
  8
0
  6
Continuous
 62
     7
370
    40
100
AcDbLine
 10
210.0788435654
 20
0.2147801566
 30
0.0
 11
210.0788435654
 21
297.2147801566
 31
0.0
  0
LINE
  5
4E
330
1F
100
AcDbEntity
  8
0
  6
Continuous
 62
     7
370
    40
100
AcDbLine
 10
10.0788435654
 20
292.2147801566
 30
0.0
 11
205.0788435654
 21
292.2147801566
 31
0.0
  0
LINE
  5
4F
330
1F
100
AcDbEntity
  8
0
  6
Continuous
 62
     7
370
    40
100
AcDbLine
 10
205.0788435654
 20
5.2147801566
 30
0.0
 11
180.9883118484
 21
5.2147801566
 31
0.0
  0
LINE
  5
50
330
1F
100
AcDbEntity
  8
0
  6
Continuous
 62
     7
370
    40
100
AcDbLine
 10
10.0788435654
 20
5.2147801566
 30
0.0
 11
10.0788435654
 21
292.2147801566
 31
0.0
  0
LINE
  5
51
330
1F
100
AcDbEntity
  8
0
  6
Continuous
 62
     7
370
    40
100
AcDbLine
 10
10.1108209117
 20
9.3709272577
 30
0.0
 11
205.0788435654
 21
9.3709272577
 31
0.0
  0
LINE
  5
52
330
1F
100
AcDbEntity
  8
0
  6
Continuous
 62
     7
370
    40
100
AcDbLine
 10
205.0788435654
 20
43.3709272577
 30
0.0
 11
10.1108209117
 21
43.3709272577
 31
0.0
  0
LINE
  5
53
330
1F
100
AcDbEntity
  8
0
  6
Continuous
 62
     7
370
    40
100
AcDbLine
 10
10.1108209117
 20
60.3709272577
 30
0.0
 11
205.0788435654
 21
60.3709272577
 31
0.0
  0
LINE
  5
54
330
1F
100
AcDbEntity
  8
0
  6
Continuous
 62
     7
370
    40
100
AcDbLine
 10
210.0788435654
 20
292.2147801566
 30
0.0
 11
210.0788435654
 21
297.2147801566
 31
0.0
  0
LINE
  5
55
330
1F
100
AcDbEntity
  8
0
  6
Continuous
 62
     7
370
    40
100
AcDbLine
 10
37.1017733454
 20
43.3709272577
 30
0.0
 11
37.1017733454
 21
5.1209272577
 31
0.0
  0
LINE
  5
56
330
1F
100
AcDbEntity
  8
0
  6
Continuous
 62
     7
370
    40
100
AcDbLine
 10
108.9108209117
 20
26.3709272577
 30
0.0
 11
10.1108209117
 21
26.3709272577
 31
0.0
  0
LINE
  5
57
330
1F
100
AcDbEntity
  8
0
  6
Continuous
 62
     7
370
    40
100
AcDbLine
 10
108.9108209117
 20
30.6209272577
 30
0.0
 11
10.1108209117
 21
30.6209272577
 31
0.0
  0
LINE
  5
58
330
1F
100
AcDbEntity
  8
0
  6
Continuous
 62
     7
370
    40
100
AcDbLine
 10
108.9108209117
 20
34.8709272577
 30
0.0
 11
10.1108209117
 21
34.8709272577
 31
0.0
  0
LINE
  5
59
330
1F
100
AcDbEntity
  8
0
  6
Continuous
 62
     7
370
    40
100
AcDbLine
 10
108.9108209117
 20
39.1209272577
 30
0.0
 11
10.1108209117
 21
39.1209272577
 31
0.0
  0
LINE
  5
5A
330
1F
100
AcDbEntity
  8
0
  6
Continuous
 62
     7
370
    40
100
AcDbLine
 10
64.7108209117
 20
5.1209272577
 30
0.0
 11
64.7108209117
 21
43.3709272577
 31
0.0
  0
LINE
  5
5B
330
1F
100
AcDbEntity
  8
0
  6
Continuous
 62
     7
370
    40
100
AcDbLine
 10
10.1108209117
 20
60.3709272577
 30
0.0
 11
10.1108209117
 21
5.1209272577
 31
0.0
  0
LINE
  5
5C
330
1F
100
AcDbEntity
  8
0
  6
Continuous
 62
     7
370
    40
100
AcDbLine
 10
17.9108209117
 20
43.3709272577
 30
0.0
 11
17.9108209117
 21
5.1209272577
 31
0.0
  0
LINE
  5
5D
330
1F
100
AcDbEntity
  8
0
  6
Continuous
 62
     7
370
    40
100
AcDbLine
 10
43.9108209117
 20
43.3709272577
 30
0.0
 11
43.9108209117
 21
60.3709272577
 31
0.0
  0
LINE
  5
5E
330
1F
100
AcDbEntity
  8
0
  6
Continuous
 62
     7
370
    40
100
AcDbLine
 10
54.5097470752
 20
43.3709272577
 30
0.0
 11
54.5097470752
 21
5.1209272577
 31
0.0
  0
LINE
  5
5F
330
1F
100
AcDbEntity
  8
0
  6
Continuous
 62
     7
370
    40
100
AcDbLine
 10
75.1108209117
 20
26.3709272577
 30
0.0
 11
75.1108209117
 21
43.3709272577
 31
0.0
  0
LINE
  5
60
330
1F
100
AcDbEntity
  8
0
  6
Continuous
 62
     7
370
    40
100
AcDbLine
 10
64.7108209117
 20
13.6209272577
 30
0.0
 11
10.1108209117
 21
13.6209272577
 31
0.0
  0
LINE
  5
61
330
1F
100
AcDbEntity
  8
0
  6
Continuous
 62
     7
370
    40
100
AcDbLine
 10
90.7108209117
 20
60.3709272577
 30
0.0
 11
90.7108209117
 21
22.1209272577
 31
0.0
  0
LINE
  5
62
330
1F
100
AcDbEntity
  8
0
  6
Continuous
 62
     7
370
    40
100
AcDbLine
 10
64.7108209117
 20
17.8708552577
 30
0.0
 11
10.1108209117
 21
17.8708552577
 31
0.0
  0
LINE
  5
63
330
1F
100
AcDbEntity
  8
0
  6
Continuous
 62
     7
370
    40
100
AcDbLine
 10
64.7108209117
 20
22.1209272577
 30
0.0
 11
10.1108209117
 21
22.1209272577
 31
0.0
  0
LINE
  5
64
330
1F
100
AcDbEntity
  8
0
  6
Continuous
 62
     7
370
    40
100
AcDbLine
 10
64.7108209117
 20
22.1209272577
 30
0.0
 11
205.0788435654
 21
22.1209272577
 31
0.0
  0
LINE
  5
65
330
1F
100
AcDbEntity
  8
0
  6
Continuous
 62
     7
370
    40
100
AcDbLine
 10
108.9108209117
 20
60.3709272577
 30
0.0
 11
108.9108209117
 21
5.1209272577
 31
0.0
  0
LINE
  5
66
330
1F
100
AcDbEntity
  8
0
  6
Continuous
 62
     7
370
    40
100
AcDbLine
 10
160.8788435654
 20
5.2147801566
 30
0.0
 11
160.8788435654
 21
9.4647801566
 31
0.0
  0
LINE
  5
67
330
1F
100
AcDbEntity
  8
0
  6
Continuous
 62
     7
370
    40
100
AcDbLine
 10
168.6788435654
 20
54.0897801566
 30
0.0
 11
168.6788435654
 21
60.4647801566
 31
0.0
  0
LINE
  5
68
330
1F
100
AcDbEntity
  8
0
  6
Continuous
 62
     7
370
    40
100
AcDbLine
 10
192.0788435654
 20
9.4647801566
 30
0.0
 11
192.0788435654
 21
22.2147801566
 31
0.0
  0
LINE
  5
69
330
1F
100
AcDbEntity
  8
0
  6
Continuous
 62
     7
370
    40
100
AcDbLine
 10
205.0788435654
 20
53.9959272577
 30
0.0
 11
108.9108209117
 21
53.9959272577
 31
0.0
  0
LINE
  5
6A
330
1F
100
AcDbEntity
  8
0
  6
Continuous
 62
     7
370
    40
100
AcDbLine
 10
205.0788435654
 20
13.7147801566
 30
0.0
 11
192.0788435654
 21
13.7147801566
 31
0.0
  0
LINE
  5
6B
330
1F
100
AcDbEntity
  8
0
  6
Continuous
 62
     7
370
    40
100
AcDbLine
 10
205.0788435654
 20
5.2147801566
 30
0.0
 11
205.0788435654
 21
292.2147801566
 31
0.0
  0
INSERT
  5
72
330
1F
100
AcDbEntity
  8
0
  6
Continuous
 62
     7
370
     0
100
AcDbBlockReference
  2
SW_NOTE_0
 10
17.3194972807
 20
61.5158961239
 30
0.0
  0
MTEXT
  5
73
330
1F
100
AcDbEntity
  8
0
  6
Continuous
 62
     7
370
     0
100
AcDbMText
 10
191.7409117618
 20
57.9900954614
 30
0.0
 40
1.905
 41
0.0
 71
     2
 72
     1
  1
2
  7
SLDTEXTSTYLE0
 73
     1
 44
1.0
  0
MTEXT
  5
74
330
1F
100
AcDbEntity
  8
0
  6
Continuous
 62
     7
370
     0
100
AcDbMText
 10
157.5065795052
 20
36.7512155503
 30
0.0
 40
6.35
 41
0.0
 71
     2
 72
     1
  1
Traverse pale-inferieure
  7
SLDTEXTSTYLE0
 73
     1
 44
1.0
  0
MTEXT
  5
75
330
1F
100
AcDbEntity
  8
0
  6
Continuous
 62
     7
370
     0
100
AcDbMText
 10
157.6910575258
 20
19.8465186829
 30
0.0
 40
6.35
 41
0.0
 71
     2
 72
     1
  1
ASD-US000017
  7
SLDTEXTSTYLE0
 73
     1
 44
1.0
  0
MTEXT
  5
76
330
1F
100
AcDbEntity
  8
0
  6
Continuous
 62
     7
370
     0
100
AcDbMText
 10
59.7386532381
 20
37.6800273381
 30
0.0
 40
1.4986
 41
0.0
 71
     2
 72
     1
  1
23-09/2013
  7
SLDTEXTSTYLE0
 73
     1
 44
1.0
  0
MTEXT
  5
77
330
1F
100
AcDbEntity
  8
0
  6
Continuous
 62
     7
370
     0
100
AcDbMText
 10
27.3455038172
 20
37.5042927656
 30
0.0
 40
1.4986
 41
0.0
 71
     2
 72
     1
  1
BRESSON-T
  7
SLDTEXTSTYLE0
 73
     1
 44
1.0
  0
MTEXT
  5
78
330
1F
100
AcDbEntity
  8
0
  6
Continuous
 62
     7
370
     0
100
AcDbMText
 10
65.7286320398
 20
8.0702391613
 30
0.0
 40
1.4986
 41
0.0
 71
     1
 72
     1
  1
MASSE:
  7
SLDTEXTSTYLE0
 73
     1
 44
1.0
  0
MTEXT
  5
79
330
1F
100
AcDbEntity
  8
0
  6
Continuous
 62
     7
370
     0
100
AcDbMText
 10
87.1969319919
 20
16.6064929491
 30
0.0
 40
2.38125
 41
0.0
 71
     2
 72
     1
  1
Aluminium
  7
SLDTEXTSTYLE0
 73
     1
 44
1.0
  0
MTEXT
  5
7A
330
1F
100
AcDbEntity
  8
0
  6
Continuous
 62
     7
370
     0
100
AcDbMText
 10
195.9998284117
 20
19.5152246096
 30
0.0
 40
2.9104166667
 41
0.0
 71
     1
 72
     1
  1
A4
  7
SLDTEXTSTYLE0
 73
     1
 44
1.0
  0
MTEXT
  5
7C
330
1F
100
AcDbEntity
  8
0
  6
Continuous
 62
     7
370
     0
100
AcDbMText
 10
162.3571379932
 20
8.114867664
 30
0.0
 40
1.5
 41
0.0
 71
     1
 72
     1
  1
FEUILLE 1 SUR 1
  7
SLDTEXTSTYLE1
 73
     1
 44
1.0
  0
MTEXT
  5
7D
330
1F
100
AcDbEntity
  8
0
  6
Continuous
 62
     7
370
     0
100
AcDbMText
 10
110.1847870291
 20
8.021014765
 30
0.0
 40
1.5
 41
0.0
 71
     1
 72
     1
  1
ECHELLE:1:5
  7
SLDTEXTSTYLE0
 73
     1
 44
1.0
  0
MTEXT
  5
7E
330
1F
100
AcDbEntity
  8
0
  6
Continuous
 62
     7
370
     0
100
AcDbMText
 10
110.1847870291
 20
19.9895653175
 30
0.0
 40
1.5
 41
0.0
 71
     1
 72
     1
  1
No. DE PLAN
  7
SLDTEXTSTYLE0
 73
     1
 44
1.0
  0
MTEXT
  5
7F
330
1F
100
AcDbEntity
  8
0
  6
Continuous
 62
     7
370
     0
100
AcDbMText
 10
110.0670078483
 20
41.3992617765
 30
0.0
 40
1.5
 41
0.0
 71
     1
 72
     1
  1
TITRE:
  7
SLDTEXTSTYLE0
 73
     1
 44
1.0
  0
MTEXT
  5
80
330
1F
100
AcDbEntity
  8
0
  6
Continuous
 62
     7
370
     0
100
AcDbMText
 10
171.2064252647
 20
57.5496890699
 30
0.0
 40
1.5
 41
0.0
 71
     1
 72
     1
  1
REVISION
  7
SLDTEXTSTYLE0
 73
     1
 44
1.0
  0
MTEXT
  5
81
330
1F
100
AcDbEntity
  8
0
  6
Continuous
 62
     7
370
     0
100
AcDbMText
 10
130.4934840882
 20
57.7477739645
 30
0.0
 40
1.5
 41
0.0
 71
     1
 72
     1
  1
NE PAS CHANGER L'ECHELLE
  7
SLDTEXTSTYLE0
 73
     1
 44
1.0
  0
MTEXT
  5
82
330
1F
100
AcDbEntity
  8
0
  6
Continuous
 62
     7
370
     0
100
AcDbMText
 10
65.7566832204
 20
21.1069837797
 30
0.0
 40
1.5
 41
0.0
 71
     1
 72
     1
  1
MATERIAU:
  7
SLDTEXTSTYLE0
 73
     1
 44
1.0
  0
MTEXT
  5
83
330
1F
100
AcDbEntity
  8
0
  6
Continuous
 62
     7
370
     0
100
AcDbMText
 10
57.3255228774
 20
41.6971067117
 30
0.0
 40
1.5
 41
0.0
 71
     1
 72
     1
  1
DATE
  7
SLDTEXTSTYLE0
 73
     1
 44
1.0
  0
MTEXT
  5
84
330
1F
100
AcDbEntity
  8
0
  6
Continuous
 62
     7
370
     0
100
AcDbMText
 10
40.1444084748
 20
41.68268387
 30
0.0
 40
1.5
 41
0.0
 71
     1
 72
     1
  1
SIGNATURE
  7
SLDTEXTSTYLE0
 73
     1
 44
1.0
  0
MTEXT
  5
85
330
1F
100
AcDbEntity
  8
0
  6
Continuous
 62
     7
370
     0
100
AcDbMText
 10
24.4330601293
 20
41.622410124
 30
0.0
 40
1.5
 41
0.0
 71
     1
 72
     1
  1
NOM
  7
SLDTEXTSTYLE0
 73
     1
 44
1.0
  0
INSERT
  5
8B
330
1F
100
AcDbEntity
  8
0
  6
Continuous
 62
     7
370
     0
100
AcDbBlockReference
  2
SW_NOTE_1
 10
91.4200365979
 20
57.1904171335
 30
0.0
  0
MTEXT
  5
8C
330
1F
100
AcDbEntity
  8
0
  6
Continuous
 62
     7
370
     0
100
AcDbMText
 10
44.4821130785
 20
59.0401994856
 30
0.0
 40
1.5
 41
0.0
 71
     1
 72
     1
  1
FINITION:
  7
SLDTEXTSTYLE0
 73
     1
 44
1.0
  0
MTEXT
  5
8D
330
1F
100
AcDbEntity
  8
0
  6
Continuous
 62
     7
370
     0
100
AcDbMText
 10
10.7798637738
 20
20.4705766978
 30
0.0
 40
1.5
 41
0.0
 71
     1
 72
     1
  1
QUAL.
  7
SLDTEXTSTYLE0
 73
     1
 44
1.0
  0
MTEXT
  5
8E
330
1F
100
AcDbEntity
  8
0
  6
Continuous
 62
     7
370
     0
100
AcDbMText
 10
10.5660074108
 20
24.8546321411
 30
0.0
 40
1.5
 41
0.0
 71
     1
 72
     1
  1
FAB.
  7
SLDTEXTSTYLE0
 73
     1
 44
1.0
  0
MTEXT
  5
8F
330
1F
100
AcDbEntity
  8
0
  6
Continuous
 62
     7
370
     0
100
AcDbMText
 10
10.51254332
 20
29.1852234936
 30
0.0
 40
1.5
 41
0.0
 71
     1
 72
     1
  1
APPR.
  7
SLDTEXTSTYLE0
 73
     1
 44
1.0
  0
MTEXT
  5
90
330
1F
100
AcDbEntity
  8
0
  6
Continuous
 62
     7
370
     0
100
AcDbMText
 10
10.5212897793
 20
33.2753346505
 30
0.0
 40
1.5
 41
0.0
 71
     1
 72
     1
  1
VERIF.
  7
SLDTEXTSTYLE0
 73
     1
 44
1.0
  0
MTEXT
  5
91
330
1F
100
AcDbEntity
  8
0
  6
Continuous
 62
     7
370
     0
100
AcDbMText
 10
10.3229701557
 20
37.5506423764
 30
0.0
 40
1.5
 41
0.0
 71
     1
 72
     1
  1
AUTEUR
  7
SLDTEXTSTYLE0
 73
     1
 44
1.0
  0
INSERT
  5
9C
330
1F
100
AcDbEntity
  8
0
  6
Continuous
 62
     7
370
     0
100
AcDbBlockReference
  2
SW_NOTE_2
 10
12.0868101695
 20
55.496179779
 30
0.0
  0
LINE
  5
9D
330
1F
100
AcDbEntity
  8
0
  6
Continuous
 62
     7
370
    15
100
AcDbLine
 10
60.4384111062
 20
240.7090292085
 30
0.0
 11
60.4384111062
 21
242.7090292085
 31
0.0
  0
LINE
  5
9E
330
1F
100
AcDbEntity
  8
0
  6
Continuous
 62
     7
370
    15
100
AcDbLine
 10
50.4384111062
 20
242.7090292085
 30
0.0
 11
50.4384111062
 21
240.7090292085
 31
0.0
  0
LINE
  5
9F
330
1F
100
AcDbEntity
  8
0
  6
Continuous
 62
     7
370
    15
100
AcDbLine
 10
53.4631874311
 20
242.7090292085
 30
0.0
 11
53.4631874311
 21
240.7090292085
 31
0.0
  0
LINE
  5
A0
330
1F
100
AcDbEntity
  8
0
  6
Continuous
 62
     7
370
    15
100
AcDbLine
 10
57.4136347814
 20
242.7090292085
 30
0.0
 11
57.4136347814
 21
240.7090292085
 31
0.0
  0
LINE
  5
A1
330
1F
100
AcDbEntity
  8
0
  6
Continuous
 62
     7
370
    15
100
AcDbLine
 10
53.4631874311
 20
240.7090292085
 30
0.0
 11
57.4136347814
 21
240.7090292085
 31
0.0
  0
LINE
  5
A2
330
1F
100
AcDbEntity
  8
0
  6
Continuous
 62
     7
370
    15
100
AcDbLine
 10
53.4631874311
 20
242.7090292085
 30
0.0
 11
57.4136347814
 21
242.7090292085
 31
0.0
  0
LINE
  5
A3
330
1F
100
AcDbEntity
  8
0
  6
Continuous
 62
     7
370
    15
100
AcDbLine
 10
57.4136347814
 20
240.7090292085
 30
0.0
 11
60.4384111062
 21
240.7090292085
 31
0.0
  0
LINE
  5
A4
330
1F
100
AcDbEntity
  8
0
  6
Continuous
 62
     7
370
    15
100
AcDbLine
 10
57.4136347814
 20
242.7090292085
 30
0.0
 11
60.4384111062
 21
242.7090292085
 31
0.0
  0
LINE
  5
A5
330
1F
100
AcDbEntity
  8
0
  6
Continuous
 62
     7
370
    15
100
AcDbLine
 10
50.4384111062
 20
240.7090292085
 30
0.0
 11
53.4631874311
 21
240.7090292085
 31
0.0
  0
LINE
  5
A6
330
1F
100
AcDbEntity
  8
0
  6
Continuous
 62
     7
370
    15
100
AcDbLine
 10
50.4384111062
 20
242.7090292085
 30
0.0
 11
53.4631874311
 21
242.7090292085
 31
0.0
  0
DIMENSION
  5
A7
330
1F
100
AcDbEntity
  8
0
  6
Continuous
 62
     7
370
     0
100
AcDbDimension
  2
*D4
 10
70.4384111062
 20
242.7090292085
 30
0.0
 11
70.4384111062
 21
252.7090292085
 31
0.0
 70
   160
 71
     2
 42
-1.0
  3
SLDDIMSTYLE0
100
AcDbAlignedDimension
 13
60.4384111062
 23
240.7090292085
 33
0.0
 14
60.4384111062
 24
242.7090292085
 34
0.0
 50
90.0
100
AcDbRotatedDimension
  0
LINE
  5
B4
330
1F
100
AcDbEntity
  8
0
  6
CENTER
 62
     7
370
     0
100
AcDbLine
 10
55.4384111062
 20
254.9749446001
 30
0.0
 11
55.4384111062
 21
228.9047040952
 31
0.0
  0
LINE
  5
B5
330
1F
100
AcDbEntity
  8
0
  6
Continuous
 62
     7
370
     0
100
AcDbLine
 10
42.7384111062
 20
252.9749446001
 30
0.0
 11
55.4384111062
 21
252.9749446001
 31
0.0
  0
SOLID
  5
B6
330
1F
100
AcDbEntity
  8
0
  6
Continuous
 62
     7
370
     0
100
AcDbTrace
 10
55.4384111062
 20
252.9749446001
 30
0.0
 11
49.0884111062
 21
253.9909446001
 31
0.0
 12
49.0884111062
 22
251.9589446001
 32
0.0
 13
49.0884111062
 23
251.9589446001
 33
0.0
  0
LINE
  5
B7
330
1F
100
AcDbEntity
  8
0
  6
Continuous
 62
     7
370
     0
100
AcDbLine
 10
42.7384111062
 20
230.9047040952
 30
0.0
 11
55.4384111062
 21
230.9047040952
 31
0.0
  0
SOLID
  5
B8
330
1F
100
AcDbEntity
  8
0
  6
Continuous
 62
     7
370
     0
100
AcDbTrace
 10
55.4384111062
 20
230.9047040952
 30
0.0
 11
49.0884111062
 21
231.9207040952
 31
0.0
 12
49.0884111062
 22
229.8887040952
 32
0.0
 13
49.0884111062
 23
229.8887040952
 33
0.0
  0
MTEXT
  5
B9
330
1F
100
AcDbEntity
  8
0
  6
Continuous
 62
     7
100
AcDbMText
 10
42.7384111062
 20
258.5320150867
 30
0.0
 40
3.5
 41
0.0
 71
     1
 72
     1
  1
A
  7
SLDTEXTSTYLE0
 73
     1
 44
1.0
  0
MTEXT
  5
BA
330
1F
100
AcDbEntity
  8
0
  6
Continuous
 62
     7
100
AcDbMText
 10
42.7384111062
 20
236.4617745818
 30
0.0
 40
3.5
 41
0.0
 71
     1
 72
     1
  1
A
  7
SLDTEXTSTYLE0
 73
     1
 44
1.0
  0
CIRCLE
  5
BB
330
1F
100
AcDbEntity
  8
0
  6
Continuous
 62
     7
370
    15
100
AcDbCircle
 10
55.4384111062
 20
141.5361147716
 30
0.0
 40
2.000000000000007
  0
ARC
  5
BC
330
1F
100
AcDbEntity
  8
0
  6
Continuous
 62
     7
370
    15
100
AcDbCircle
 10
55.4384111062
 20
103.5361147716
 30
0.0
 40
2.000000000000043
100
AcDbArc
 50
189.027976916
 51
350.972023084
  0
ARC
  5
BD
330
1F
100
AcDbEntity
  8
0
  6
Continuous
 62
     7
370
    15
100
AcDbCircle
 10
294.6050777729
 20
141.5361147716
 30
0.0
 40
244.1666666666653
100
AcDbArc
 50
170.972023084
 51
189.027976916
  0
ARC
  5
BE
330
1F
100
AcDbEntity
  8
0
  6
Continuous
 62
     7
370
    15
100
AcDbCircle
 10
55.4384111062
 20
179.5361147716
 30
0.0
 40
1.999999999999966
100
AcDbArc
 50
9.027976916
 51
170.972023084
  0
ARC
  5
BF
330
1F
100
AcDbEntity
  8
0
  6
Continuous
 62
     7
370
    15
100
AcDbCircle
 10
-183.7282555605
 20
141.5361147716
 30
0.0
 40
244.1666666666653
100
AcDbArc
 50
350.972023084
 51
9.027976916
  0
CIRCLE
  5
C0
330
1F
100
AcDbEntity
  8
0
  6
Continuous
 62
     7
370
    15
100
AcDbCircle
 10
55.4384111062
 20
103.5361147716
 30
0.0
 40
1.729999999999997
  0
CIRCLE
  5
C1
330
1F
100
AcDbEntity
  8
0
  6
Continuous
 62
     7
370
    15
100
AcDbCircle
 10
55.4384111062
 20
179.5361147716
 30
0.0
 40
1.729999999999997
  0
CIRCLE
  5
C2
330
1F
100
AcDbEntity
  8
0
  6
Continuous
 62
     7
370
    15
100
AcDbCircle
 10
55.4384111062
 20
179.5361147716
 30
0.0
 40
0.8999999999999986
  0
CIRCLE
  5
C3
330
1F
100
AcDbEntity
  8
0
  6
Continuous
 62
     7
370
    15
100
AcDbCircle
 10
55.4384111062
 20
103.5361147716
 30
0.0
 40
0.8999999999999986
  0
DIMENSION
  5
C4
330
1F
100
AcDbEntity
  8
0
  6
Continuous
 62
     7
370
     0
100
AcDbDimension
  2
*D5
 10
82.4384111062
 20
101.5361147716
 30
0.0
 11
82.4384111062
 21
140.7699394554
 31
0.0
 70
   160
 71
     2
 42
-1.0
  3
SLDDIMSTYLE1
100
AcDbAlignedDimension
 13
55.4384111062
 23
181.5361147716
 33
0.0
 14
55.4384111062
 24
101.5361147716
 34
0.0
 50
90.0
100
AcDbRotatedDimension
  0
DIMENSION
  5
CF
330
1F
100
AcDbEntity
  8
0
  6
Continuous
 62
     7
370
     0
100
AcDbDimension
  2
*D7
 10
54.4384111062
 20
177.804063964
 30
0.0
 11
64.6925970143
 21
195.5648276266
 31
0.0
 70
   163
  1
<> (x2)
 71
     1
 42
-1.0
  3
SLDDIMSTYLE2
100
AcDbDiametricDimension
 15
56.4384111062
 25
181.2681655791
 35
0.0
 40
0.0
  0
DIMENSION
  5
DD
330
1F
100
AcDbEntity
  8
0
  6
Continuous
 62
     7
370
     0
100
AcDbDimension
  2
*D8
 10
60.4384111062
 20
95.2143214143
 30
0.0
 11
73.6637096197
 21
95.2143214143
 31
0.0
 70
   160
  1
<> (x2)
 71
     2
 42
-1.0
  3
SLDDIMSTYLE0
100
AcDbAlignedDimension
 13
55.4384111062
 23
141.5361147716
 33
0.0
 14
60.4384111062
 24
141.5361147716
 34
0.0
100
AcDbRotatedDimension
  0
DIMENSION
  5
EA
330
1F
100
AcDbEntity
  8
0
  6
Continuous
 62
     7
370
     0
100
AcDbDimension
  2
*D9
 10
57.1704619138
 20
140.5361147716
 30
0.0
 11
34.0057753781
 21
153.9102685521
 31
0.0
 70
   163
  1
<>
 71
     1
 42
-1.0
  3
SLDDIMSTYLE2
100
AcDbDiametricDimension
 15
53.7063602986
 25
142.5361147716
 35
0.0
 40
0.0
  0
TOLERANCE
  5
F5
330
1F
100
AcDbEntity
  8
0
  6
Continuous
 62
     7
370
     0
100
AcDbFcf
  3
SLDDIMSTYLE3
 10
75.4384111062
 20
142.4421618425
 30
0.0
  1
{\Fgdt;i}%%v%%v%%vA%%v%%v%%v^J
 11
-3.491481338843133E-15
 21
1.0
 31
0.0
  0
INSERT
  5
101
330
1F
100
AcDbEntity
  8
0
  6
Continuous
 62
     7
370
     0
100
AcDbBlockReference
  2
SW_CENTERMARKSYMBOL_0
 10
55.4384111062
 20
179.5361147716
 30
0.0
  0
INSERT
  5
10D
330
1F
100
AcDbEntity
  8
0
  6
Continuous
 62
     7
370
     0
100
AcDbBlockReference
  2
SW_CENTERMARKSYMBOL_1
 10
55.4384111062
 20
103.5361147716
 30
0.0
  0
INSERT
  5
119
330
1F
100
AcDbEntity
  8
0
  6
Continuous
 62
     7
370
     0
100
AcDbBlockReference
  2
SW_CENTERMARKSYMBOL_2
 10
55.4384111062
 20
141.5361147716
 30
0.0
  0
INSERT
  5
125
330
1F
100
AcDbEntity
  8
0
  6
Continuous
 62
     7
370
     0
100
AcDbBlockReference
  2
SW_DATUMTAG_0
 10
30.2051379736
 20
132.4696436717
 30
0.0
  0
LINE
  5
126
330
1F
100
AcDbEntity
  8
0
  6
Continuous
 62
     7
370
    15
100
AcDbLine
 10
172.6896197289
 20
135.9799532387
 30
0.0
 11
172.6896197289
 21
137.6130348624
 31
0.0
  0
LINE
  5
127
330
1F
100
AcDbEntity
  8
0
  6
Continuous
 62
     7
370
    15
100
AcDbLine
 10
114.9495043587
 20
168.6365431117
 30
0.0
 11
114.9495043587
 21
167.0034614879
 31
0.0
  0
LWPOLYLINE
  5
128
330
1F
100
AcDbEntity
  8
0
  6
Continuous
 62
     7
370
    15
100
AcDbPolyline
 90
       38
 70
   128
 43
0.0
 10
142.4053484814
 20
152.3083808752
 10
142.6646939082
 20
152.1821505221
 10
142.9572627887
 20
152.0830381613
 10
143.2746384487
 20
152.0138950751
 10
143.6076905684
 20
151.9767103842
 10
143.9468378446
 20
151.9725538243
 10
144.2823236279
 20
152.0015449722
 10
144.6044966029
 20
152.0628498053
 10
144.9040884397
 20
152.1547046952
 10
145.1724804268
 20
152.274467144
 10
145.4019514152
 20
152.418691804
 10
145.5858999425
 20
152.5832295944
 10
145.7190341443
 20
152.7633470625
 10
145.7975239922
 20
152.9538625566
 10
145.8191114761
 20
153.149295293
 10
145.7831755635
 20
153.3440230276
 10
145.6907500649
 20
153.532443798
 10
145.5444938939
 20
153.7091370817
 10
145.3486145742
 20
153.8690197346
 10
145.108747197
 20
154.007492224
 10
144.8317923103
 20
154.1205709483
 10
144.5257174017
 20
154.2050028387
 10
144.1993276892
 20
154.2583589433
 10
143.8620128105
 20
154.2791043041
 10
143.5234767005
 20
154.2666421149
 10
143.1934584268
 20
154.2213308902
 10
142.8814520141
 20
154.1444741514
 10
142.5964333191
 20
154.0382829269
 10
142.3466018105
 20
153.905812145
 10
142.139144686
 20
153.7508727489
 10
141.9800301093
 20
153.5779220628
 10
141.8738355172
 20
153.3919355632
 10
141.8236159347
 20
153.1982637429
 10
141.8308160877
 20
153.0024781878
 10
141.895228841
 20
152.8102112916
 10
142.0150011569
 20
152.6269942229
 10
142.1866874039
 20
152.4580978033
 10
142.4053484814
 20
152.3083808752
  0
LWPOLYLINE
  5
129
330
1F
100
AcDbEntity
  8
0
  6
Continuous
 62
     7
370
    15
100
AcDbPolyline
 90
       18
 70
   128
 43
0.0
 10
169.5148394331
 20
136.6786324605
 10
169.7989144506
 20
136.5792796929
 10
170.1075546635
 20
136.5084373633
 10
170.4322479327
 20
136.468059267
 10
170.7640393843
 20
136.4592590111
 10
171.0937783799
 20
136.4822793023
 10
171.4123708869
 20
136.5364852526
 10
171.7110302871
 20
136.6203818897
 10
171.9815197073
 20
136.7316553874
 10
172.2163791879
 20
136.8672368796
 10
172.4091314245
 20
137.0233870982
 10
172.5544604094
 20
137.1957995
 10
172.6483580434
 20
137.3797190395
 10
172.688234678
 20
137.5700733098
 10
172.672990536
 20
137.7616124378
 10
172.603046043
 20
137.9490538723
 10
172.4803302324
 20
138.1272280747
 10
172.3082275432
 20
138.2912210916
  0
LWPOLYLINE
  5
12A
330
1F
100
AcDbEntity
  8
0
  6
Continuous
 62
     7
370
    15
100
AcDbPolyline
 90
       21
 70
   128
 43
0.0
 10
115.3308965444
 20
167.9583568825
 10
117.615189252
 20
166.1712536642
 10
119.9479745072
 20
164.4051498184
 10
122.3286731463
 20
162.6604838182
 10
124.7566941099
 20
160.9376888142
 10
127.2314345899
 20
159.237192527
 10
129.7522801793
 20
157.5594171412
 10
132.3186050241
 20
155.9047792003
 10
134.9297719795
 20
154.2736895037
 10
137.5851327674
 20
152.6665530041
 10
140.2840281379
 20
151.0837687075
 10
143.0257880324
 20
149.525729574
 10
145.8097317505
 20
147.9928224199
 10
148.6351681187
 20
146.4854278224
 10
151.5013956621
 20
145.0039200242
 10
154.4077027784
 20
143.5486668415
 10
157.3533679148
 20
142.1200295717
 10
160.337659747
 20
140.7183629047
 10
163.3598373609
 20
139.3440148342
 10
166.4191504362
 20
137.9973265714
 10
169.5148394331
 20
136.6786324605
  0
LWPOLYLINE
  5
12B
330
1F
100
AcDbEntity
  8
0
  6
Continuous
 62
     7
370
    15
100
AcDbPolyline
 90
       18
 70
   128
 43
0.0
 10
118.1242846545
 20
169.5709455136
 10
117.840209637
 20
169.6702982813
 10
117.5315694241
 20
169.7411406108
 10
117.2068761549
 20
169.7815187072
 10
116.8750847033
 20
169.790318963
 10
116.5453457077
 20
169.7672986719
 10
116.2267532007
 20
169.7130927215
 10
115.9280938005
 20
169.6291960844
 10
115.6576043802
 20
169.5179225867
 10
115.4227448997
 20
169.3823410945
 10
115.229992663
 20
169.226190876
 10
115.0846636782
 20
169.0537784741
 10
114.9907660442
 20
168.8698589347
 10
114.9508894096
 20
168.6795046643
 10
114.9661335516
 20
168.4879655363
 10
115.0360780446
 20
168.3005241018
 10
115.1587938552
 20
168.1223498995
 10
115.3308965444
 20
167.9583568825
  0
LWPOLYLINE
  5
12C
330
1F
100
AcDbEntity
  8
0
  6
Continuous
 62
     7
370
    15
100
AcDbPolyline
 90
       21
 70
   128
 43
0.0
 10
172.3082275432
 20
138.2912210916
 10
170.0239348356
 20
140.07832431
 10
167.6911495804
 20
141.8444281557
 10
165.3104509413
 20
143.589094156
 10
162.8824299777
 20
145.31188916
 10
160.4076894976
 20
147.0123854472
 10
157.8868439083
 20
148.690160833
 10
155.3205190635
 20
150.3447987738
 10
152.7093521081
 20
151.9758884704
 10
150.0539913202
 20
153.58302497
 10
147.3550959497
 20
155.1658092666
 10
144.6133360552
 20
156.7238484002
 10
141.8293923371
 20
158.2567555542
 10
139.0039559689
 20
159.7641501517
 10
136.1377284255
 20
161.2456579499
 10
133.2314213092
 20
162.7009111327
 10
130.2857561728
 20
164.1295484024
 10
127.3014643405
 20
165.5312150694
 10
124.2792867267
 20
166.9055631399
 10
121.2199736514
 20
168.2522514027
 10
118.1242846545
 20
169.5709455136
  0
LWPOLYLINE
  5
12D
330
1F
100
AcDbEntity
  8
0
  6
Continuous
 62
     7
370
    15
100
AcDbPolyline
 90
       36
 70
   128
 43
0.0
 10
169.4663249974
 20
136.9068418457
 10
169.7044115557
 20
136.7920950258
 10
169.9741635153
 20
136.7037338878
 10
170.2669108263
 20
136.6445984312
 10
170.5732443492
 20
136.6165893184
 10
170.8833182725
 20
136.6206067852
 10
171.1871665653
 20
136.656521707
 10
171.4750232934
 20
136.7231797486
 10
171.7376365047
 20
136.8184384658
 10
171.9665655945
 20
136.939236165
 10
172.1544525935
 20
137.0816903087
 10
172.295258659
 20
137.2412223035
 10
172.3844581682
 20
137.4127046599
 10
172.4191841753
 20
137.5906257939
 10
172.3983205581
 20
137.7692671738
 10
172.3225378903
 20
137.9428871186
 10
172.1942718892
 20
138.1059053405
 10
172.0176451297
 20
138.2530822997
 10
171.7983345411
 20
138.3796876077
 10
171.5433889461
 20
138.4816520656
 10
171.2610025061
 20
138.5556984519
 10
170.9602513534
 20
138.5994468548
 10
170.6508018777
 20
138.6114911646
 10
170.3426000396
 20
138.5914442674
 10
170.0455516998
 20
138.5399504869
 10
169.7692042365
 20
138.4586648755
 10
169.5224396844
 20
138.3502000197
 10
169.3131892593
 20
138.2180420692
 10
169.148178442
 20
138.0664386893
 10
169.032710816
 20
137.9002625373
 10
168.9704976058
 20
137.7248546515
 10
168.9635383951
 20
137.5458527857
 10
169.0120568586
 20
137.3690102072
 10
169.1144935732
 20
137.2000107818
 10
169.2675561384
 20
137.0442862902
 10
169.4663249974
 20
136.9068418457
  0
LWPOLYLINE
  5
12E
330
1F
100
AcDbEntity
  8
0
  6
Continuous
 62
     7
370
    15
100
AcDbPolyline
 90
       36
 70
   128
 43
0.0
 10
115.7262096273
 20
167.930350095
 10
115.9642961855
 20
167.8156032751
 10
116.2340481451
 20
167.727242137
 10
116.5267954561
 20
167.6681066805
 10
116.833128979
 20
167.6400975676
 10
117.1432029024
 20
167.6441150345
 10
117.4470511952
 20
167.6800299563
 10
117.7349079233
 20
167.7466879979
 10
117.9975211346
 20
167.8419467151
 10
118.2264502244
 20
167.9627444142
 10
118.4143372234
 20
168.1051985579
 10
118.5551432888
 20
168.2647305528
 10
118.644342798
 20
168.4362129092
 10
118.6790688052
 20
168.6141340432
 10
118.6582051879
 20
168.792775423
 10
118.5824225201
 20
168.9663953679
 10
118.4541565191
 20
169.1294135898
 10
118.2775297595
 20
169.276590549
 10
118.0582191709
 20
169.4031958569
 10
117.803273576
 20
169.5051603148
 10
117.5208871359
 20
169.5792067011
 10
117.2201359832
 20
169.622955104
 10
116.9106865075
 20
169.6349994139
 10
116.6024846694
 20
169.6149525167
 10
116.3054363297
 20
169.5634587361
 10
116.0290888663
 20
169.4821731247
 10
115.7823243142
 20
169.3737082689
 10
115.5730738891
 20
169.2415503185
 10
115.4080630719
 20
169.0899469385
 10
115.2925954458
 20
168.9237707866
 10
115.2303822356
 20
168.7483629008
 10
115.2234230249
 20
168.569361035
 10
115.2719414885
 20
168.3925184564
 10
115.374378203
 20
168.2235190311
 10
115.5274407682
 20
168.0677945395
 10
115.7262096273
 20
167.930350095
  0
LINE
  5
12F
330
1F
100
AcDbEntity
  8
0
  6
Continuous
 62
     7
370
    15
100
AcDbLine
 10
115.3308965444
 20
167.9583568825
 30
0.0
 11
115.3308965444
 21
166.3252752588
 31
0.0
  0
LINE
  5
130
330
1F
100
AcDbEntity
  8
0
  6
Continuous
 62
     7
370
    15
100
AcDbLine
 10
169.5148394331
 20
136.6786324605
 30
0.0
 11
169.5148394331
 21
135.0455508368
 31
0.0
  0
LWPOLYLINE
  5
131
330
1F
100
AcDbEntity
  8
0
  6
Continuous
 62
     7
370
    15
100
AcDbPolyline
 90
       21
 70
   128
 43
0.0
 10
115.3308965444
 20
166.3252752588
 10
117.615189252
 20
164.5381720404
 10
119.9479745072
 20
162.7720681946
 10
122.3286731463
 20
161.0274021944
 10
124.7566941099
 20
159.3046071904
 10
127.2314345899
 20
157.6041109032
 10
129.7522801793
 20
155.9263355174
 10
132.3186050241
 20
154.2716975766
 10
134.9297719795
 20
152.6406078799
 10
137.5851327674
 20
151.0334713803
 10
140.2840281379
 20
149.4506870837
 10
143.0257880324
 20
147.8926479502
 10
145.8097317505
 20
146.3597407962
 10
148.6351681187
 20
144.8523461986
 10
151.5013956621
 20
143.3708384005
 10
154.4077027784
 20
141.9155852177
 10
157.3533679148
 20
140.4869479479
 10
160.337659747
 20
139.085281281
 10
163.3598373609
 20
137.7109332104
 10
166.4191504362
 20
136.3642449477
 10
169.5148394331
 20
135.0455508368
  0
LWPOLYLINE
  5
132
330
1F
100
AcDbEntity
  8
0
  6
Continuous
 62
     7
370
    15
100
AcDbPolyline
 90
       15
 70
   128
 43
0.0
 10
169.5148394331
 20
135.0455508368
 10
169.7989144506
 20
134.9461980691
 10
170.1075546635
 20
134.8753557395
 10
170.4322479327
 20
134.8349776432
 10
170.7640393843
 20
134.8261773873
 10
171.0937783799
 20
134.8491976785
 10
171.4123708869
 20
134.9034036288
 10
171.7110302871
 20
134.987300266
 10
171.9815197073
 20
135.0985737637
 10
172.2163791879
 20
135.2341552559
 10
172.4091314245
 20
135.3903054744
 10
172.5544604094
 20
135.5627178763
 10
172.6483580434
 20
135.7466374157
 10
172.688234678
 20
135.9369916861
 10
172.6896197289
 20
135.9799532387
  0
LWPOLYLINE
  5
133
330
1F
100
AcDbEntity
  8
0
  6
Continuous
 62
     7
370
    15
100
AcDbPolyline
 90
       18
 70
   128
 43
0.0
 10
171.5218195355
 20
136.7374693281
 10
171.5364124209
 20
136.7593116735
 10
171.585625497
 20
136.886411173
 10
171.5785392354
 20
137.0165829135
 10
171.515598892
 20
137.141647726
 10
171.40075924
 20
137.2537473282
 10
171.2412360772
 20
137.3458380899
 10
171.0470528305
 20
137.4121336099
 10
170.8304107474
 20
137.4484682967
 10
170.6049222469
 20
137.4525591085
 10
170.3847556007
 20
137.4241490044
 10
170.1837446888
 20
137.3650230958
 10
170.0145197662
 20
137.2788964809
 10
169.8877138571
 20
137.1711808118
 10
169.8112946431
 20
137.04864426
 10
169.7900638246
 20
136.9189862479
 10
169.8253554118
 20
136.790353665
 10
169.8574199223
 20
136.7374693281
  0
ARC
  5
134
330
1F
100
AcDbEntity
  8
0
  6
Continuous
 62
     7
370
    15
100
AcDbCircle
 10
143.8195620438
 20
149.6179634307
 30
0.0
 40
3.039240330782868
100
AcDbArc
 50
62.2740850411
 51
117.7259149589
  0
LWPOLYLINE
  5
135
330
1F
100
AcDbEntity
  8
0
  6
Continuous
 62
     7
370
    15
100
AcDbPolyline
 90
       18
 70
   128
 43
0.0
 10
117.7817041654
 20
167.7609775774
 10
117.7962970508
 20
167.7828199228
 10
117.8455101268
 20
167.9099194222
 10
117.8384238652
 20
168.0400911628
 10
117.7754835218
 20
168.1651559753
 10
117.6606438698
 20
168.2772555775
 10
117.501120707
 20
168.3693463392
 10
117.3069374603
 20
168.4356418591
 10
117.0902953772
 20
168.471976546
 10
116.8648068767
 20
168.4760673577
 10
116.6446402305
 20
168.4476572536
 10
116.4436293186
 20
168.388531345
 10
116.274404396
 20
168.3024047302
 10
116.1475984869
 20
168.194689061
 10
116.071179273
 20
168.0721525093
 10
116.0499484544
 20
167.9424944971
 10
116.0852400416
 20
167.8138619143
 10
116.117304552
 20
167.7609775774
  0
ARC
  5
136
330
1F
100
AcDbEntity
  8
0
  6
Continuous
 62
     7
370
    15
100
AcDbCircle
 10
115.8310507048
 20
167.0528824374
 30
0.0
 40
0.8829305694754317
100
AcDbArc
 50
183.2087375967
 51
235.4955290236
  0
LINE
  5
137
330
1F
100
AcDbEntity
  8
0
  6
Continuous
 62
     7
370
    15
100
AcDbLine
 10
182.384586282
 20
242.7090292085
 30
0.0
 11
183.214586282
 21
241.8790292085
 31
0.0
  0
LINE
  5
138
330
1F
100
AcDbEntity
  8
0
  6
Continuous
 62
     7
370
    15
100
AcDbLine
 10
183.214586282
 20
241.8790292085
 30
0.0
 11
183.214586282
 21
240.7090292085
 31
0.0
  0
LINE
  5
139
330
1F
100
AcDbEntity
  8
0
  6
Continuous
 62
     7
370
    15
100
AcDbLine
 10
148.114586282
 20
240.7090292085
 30
0.0
 11
183.214586282
 21
240.7090292085
 31
0.0
  0
LINE
  5
13A
330
1F
100
AcDbEntity
  8
0
  6
Continuous
 62
     7
370
    15
100
AcDbLine
 10
148.114586282
 20
242.7090292085
 30
0.0
 11
148.114586282
 21
240.7090292085
 31
0.0
  0
LINE
  5
13B
330
1F
100
AcDbEntity
  8
0
  6
Continuous
 62
     7
370
    15
100
AcDbLine
 10
148.114586282
 20
242.7090292085
 30
0.0
 11
182.384586282
 21
242.7090292085
 31
0.0
  0
LINE
  5
13C
330
1F
100
AcDbEntity
  8
0
  6
Continuous
 62
     7
370
    15
100
AcDbLine
 10
106.114586282
 20
240.7090292085
 30
0.0
 11
106.114586282
 21
242.7090292085
 31
0.0
  0
LINE
  5
13D
330
1F
100
AcDbEntity
  8
0
  6
Continuous
 62
     7
370
    15
100
AcDbLine
 10
109.014586282
 20
241.8790292085
 30
0.0
 11
109.844586282
 21
242.7090292085
 31
0.0
  0
LINE
  5
13E
330
1F
100
AcDbEntity
  8
0
  6
Continuous
 62
     7
370
    15
100
AcDbLine
 10
109.014586282
 20
241.8790292085
 30
0.0
 11
107.214586282
 21
241.8790292085
 31
0.0
  0
LINE
  5
13F
330
1F
100
AcDbEntity
  8
0
  6
Continuous
 62
     7
370
    15
100
AcDbLine
 10
106.384586282
 20
242.7090292085
 30
0.0
 11
107.214586282
 21
241.8790292085
 31
0.0
  0
LINE
  5
140
330
1F
100
AcDbEntity
  8
0
  6
Continuous
 62
     7
370
    15
100
AcDbLine
 10
109.844586282
 20
242.7090292085
 30
0.0
 11
106.384586282
 21
242.7090292085
 31
0.0
  0
LINE
  5
141
330
1F
100
AcDbEntity
  8
0
  6
Continuous
 62
     7
370
    15
100
AcDbLine
 10
109.014586282
 20
240.7090292085
 30
0.0
 11
109.014586282
 21
241.8790292085
 31
0.0
  0
LINE
  5
142
330
1F
100
AcDbEntity
  8
0
  6
Continuous
 62
     7
370
    15
100
AcDbLine
 10
109.014586282
 20
240.7090292085
 30
0.0
 11
107.214586282
 21
240.7090292085
 31
0.0
  0
LINE
  5
143
330
1F
100
AcDbEntity
  8
0
  6
Continuous
 62
     7
370
    15
100
AcDbLine
 10
107.214586282
 20
241.8790292085
 30
0.0
 11
107.214586282
 21
240.7090292085
 31
0.0
  0
LINE
  5
144
330
1F
100
AcDbEntity
  8
0
  6
Continuous
 62
     7
370
    15
100
AcDbLine
 10
148.114586282
 20
240.7090292085
 30
0.0
 11
144.114586282
 21
240.7090292085
 31
0.0
  0
LINE
  5
145
330
1F
100
AcDbEntity
  8
0
  6
Continuous
 62
     7
370
    15
100
AcDbLine
 10
144.114586282
 20
240.7090292085
 30
0.0
 11
144.114586282
 21
242.7090292085
 31
0.0
  0
LINE
  5
146
330
1F
100
AcDbEntity
  8
0
  6
Continuous
 62
     7
370
    15
100
AcDbLine
 10
148.114586282
 20
242.7090292085
 30
0.0
 11
144.114586282
 21
242.7090292085
 31
0.0
  0
LINE
  5
147
330
1F
100
AcDbEntity
  8
0
  6
Continuous
 62
     7
370
    15
100
AcDbLine
 10
185.014586282
 20
241.8790292085
 30
0.0
 11
185.844586282
 21
242.7090292085
 31
0.0
  0
LINE
  5
148
330
1F
100
AcDbEntity
  8
0
  6
Continuous
 62
     7
370
    15
100
AcDbLine
 10
185.014586282
 20
241.8790292085
 30
0.0
 11
183.214586282
 21
241.8790292085
 31
0.0
  0
LINE
  5
149
330
1F
100
AcDbEntity
  8
0
  6
Continuous
 62
     7
370
    15
100
AcDbLine
 10
185.844586282
 20
242.7090292085
 30
0.0
 11
182.384586282
 21
242.7090292085
 31
0.0
  0
LINE
  5
14A
330
1F
100
AcDbEntity
  8
0
  6
Continuous
 62
     7
370
    15
100
AcDbLine
 10
185.014586282
 20
240.7090292085
 30
0.0
 11
185.014586282
 21
241.8790292085
 31
0.0
  0
LINE
  5
14B
330
1F
100
AcDbEntity
  8
0
  6
Continuous
 62
     7
370
    15
100
AcDbLine
 10
185.014586282
 20
240.7090292085
 30
0.0
 11
183.214586282
 21
240.7090292085
 31
0.0
  0
LINE
  5
14C
330
1F
100
AcDbEntity
  8
0
  6
Continuous
 62
     7
370
    15
100
AcDbLine
 10
186.114586282
 20
242.7090292085
 30
0.0
 11
186.114586282
 21
240.7090292085
 31
0.0
  0
LINE
  5
14D
330
1F
100
AcDbEntity
  8
0
  6
Continuous
 62
     7
370
    15
100
AcDbLine
 10
109.844586282
 20
242.7090292085
 30
0.0
 11
144.114586282
 21
242.7090292085
 31
0.0
  0
LINE
  5
14E
330
1F
100
AcDbEntity
  8
0
  6
Continuous
 62
     7
370
    15
100
AcDbLine
 10
109.014586282
 20
240.7090292085
 30
0.0
 11
144.114586282
 21
240.7090292085
 31
0.0
  0
LINE
  5
14F
330
1F
100
AcDbEntity
  8
0
  6
Continuous
 62
     7
370
    15
100
AcDbLine
 10
106.114586282
 20
242.7090292085
 30
0.0
 11
106.384586282
 21
242.7090292085
 31
0.0
  0
LINE
  5
150
330
1F
100
AcDbEntity
  8
0
  6
Continuous
 62
     7
370
    15
100
AcDbLine
 10
106.114586282
 20
240.7090292085
 30
0.0
 11
107.214586282
 21
240.7090292085
 31
0.0
  0
LINE
  5
151
330
1F
100
AcDbEntity
  8
0
  6
Continuous
 62
     7
370
    15
100
AcDbLine
 10
185.844586282
 20
242.7090292085
 30
0.0
 11
186.114586282
 21
242.7090292085
 31
0.0
  0
LINE
  5
152
330
1F
100
AcDbEntity
  8
0
  6
Continuous
 62
     7
370
    15
100
AcDbLine
 10
185.014586282
 20
240.7090292085
 30
0.0
 11
186.114586282
 21
240.7090292085
 31
0.0
  0
LINE
  5
153
330
1F
100
AcDbEntity
  8
0
  6
CENTERX2
 62
     7
370
     0
100
AcDbLine
 10
108.114586282
 20
240.7090292085
 30
0.0
 11
108.114586282
 21
247.9556804491
 31
0.0
  0
LINE
  5
154
330
1F
100
AcDbEntity
  8
0
  6
CENTERX2
 62
     7
370
     0
100
AcDbLine
 10
184.114586282
 20
240.7090292085
 30
0.0
 11
184.114586282
 21
247.9556804491
 31
0.0
  0
HATCH
  5
155
330
1F
100
AcDbEntity
  8
0
  6
Continuous
 62
     7
370
     0
100
AcDbHatch
 10
0.0
 20
0.0
 30
0.0
210
0.0
220
0.0
230
1.0
  2
ANSI38
 70
     0
 71
     0
 91
        1
 92
        0
 93
        5
 72
     1
 10
182.3845862819965
 20
242.7090292085391
 11
148.1145862819965
 21
242.7090292085391
 72
     1
 10
148.1145862819965
 20
242.7090292085391
 11
148.1145862819965
 21
240.7090292085391
 72
     1
 10
148.1145862819965
 20
240.7090292085391
 11
183.2145862819965
 21
240.7090292085391
 72
     1
 10
183.2145862819965
 20
240.7090292085391
 11
183.2145862819965
 21
241.8790292085391
 72
     1
 10
183.2145862819965
 20
241.8790292085391
 11
182.3845862819965
 21
242.7090292085391
 97
        0
 75
     0
 76
     1
 52
0.0
 41
1.0
 77
     0
 78
     2
 53
45.0
 43
0.0
 44
0.0
 45
-2.245064030267288
 46
2.245064030267288
 79
     0
 53
135.0
 43
0.0
 44
0.0
 45
-6.735192090801864
 46
2.245064030267289
 79
     2
 49
7.9375
 49
-4.7625
 98
        1
 10
0.0
 20
0.0
  0
HATCH
  5
156
330
1F
100
AcDbEntity
  8
0
  6
Continuous
 62
     7
370
     0
100
AcDbHatch
 10
0.0
 20
0.0
 30
0.0
210
0.0
220
0.0
230
1.0
  2
ANSI38
 70
     0
 71
     0
 91
        1
 92
        0
 93
        5
 72
     1
 10
109.0145862819965
 20
240.7090292085391
 11
144.1145862819965
 21
240.7090292085391
 72
     1
 10
144.1145862819965
 20
240.7090292085391
 11
144.1145862819965
 21
242.7090292085391
 72
     1
 10
144.1145862819965
 20
242.7090292085391
 11
109.8445862819965
 21
242.7090292085391
 72
     1
 10
109.8445862819965
 20
242.7090292085391
 11
109.0145862819965
 21
241.8790292085391
 72
     1
 10
109.0145862819965
 20
241.8790292085391
 11
109.0145862819965
 21
240.7090292085391
 97
        0
 75
     0
 76
     1
 52
0.0
 41
1.0
 77
     0
 78
     2
 53
45.0
 43
0.0
 44
0.0
 45
-2.245064030267288
 46
2.245064030267288
 79
     0
 53
135.0
 43
0.0
 44
0.0
 45
-6.735192090801864
 46
2.245064030267289
 79
     2
 49
7.9375
 49
-4.7625
 98
        1
 10
0.0
 20
0.0
  0
HATCH
  5
157
330
1F
100
AcDbEntity
  8
0
  6
Continuous
 62
     7
370
     0
100
AcDbHatch
 10
0.0
 20
0.0
 30
0.0
210
0.0
220
0.0
230
1.0
  2
ANSI38
 70
     0
 71
     0
 91
        1
 92
        0
 93
        5
 72
     1
 10
106.1145862819965
 20
242.7090292085391
 11
106.1145862819965
 21
240.7090292085391
 72
     1
 10
106.1145862819965
 20
240.7090292085391
 11
107.2145862819965
 21
240.7090292085391
 72
     1
 10
107.2145862819965
 20
240.7090292085391
 11
107.2145862819965
 21
241.8790292085391
 72
     1
 10
107.2145862819965
 20
241.8790292085391
 11
106.3845862819965
 21
242.7090292085391
 72
     1
 10
106.3845862819965
 20
242.7090292085391
 11
106.1145862819965
 21
242.7090292085391
 97
        0
 75
     0
 76
     1
 52
0.0
 41
1.0
 77
     0
 78
     2
 53
45.0
 43
0.0
 44
0.0
 45
-2.245064030267288
 46
2.245064030267288
 79
     0
 53
135.0
 43
0.0
 44
0.0
 45
-6.735192090801864
 46
2.245064030267289
 79
     2
 49
7.9375
 49
-4.7625
 98
        1
 10
0.0
 20
0.0
  0
HATCH
  5
158
330
1F
100
AcDbEntity
  8
0
  6
Continuous
 62
     7
370
     0
100
AcDbHatch
 10
0.0
 20
0.0
 30
0.0
210
0.0
220
0.0
230
1.0
  2
ANSI38
 70
     0
 71
     0
 91
        1
 92
        0
 93
        5
 72
     1
 10
186.1145862819965
 20
240.7090292085391
 11
186.1145862819965
 21
242.7090292085391
 72
     1
 10
186.1145862819965
 20
242.7090292085391
 11
185.8445862819965
 21
242.7090292085391
 72
     1
 10
185.8445862819965
 20
242.7090292085391
 11
185.0145862819965
 21
241.8790292085391
 72
     1
 10
185.0145862819965
 20
241.8790292085391
 11
185.0145862819965
 21
240.7090292085391
 72
     1
 10
185.0145862819965
 20
240.7090292085391
 11
186.1145862819965
 21
240.7090292085391
 97
        0
 75
     0
 76
     1
 52
0.0
 41
1.0
 77
     0
 78
     2
 53
45.0
 43
0.0
 44
0.0
 45
-2.245064030267288
 46
2.245064030267288
 79
     0
 53
135.0
 43
0.0
 44
0.0
 45
-6.735192090801864
 46
2.245064030267289
 79
     2
 49
7.9375
 49
-4.7625
 98
        1
 10
0.0
 20
0.0
  0
DIMENSION
  5
159
330
1F
100
AcDbEntity
  8
0
  6
Continuous
 62
     7
370
     0
100
AcDbDimension
  2
*D14
 10
184.114586282
 20
263.9556804491
 30
0.0
 11
146.114586282
 21
263.9556804491
 31
0.0
 70
   160
 71
     2
 42
-1.0
  3
SLDDIMSTYLE4
100
AcDbAlignedDimension
 13
108.114586282
 23
247.9556804491
 33
0.0
 14
184.114586282
 24
247.9556804491
 34
0.0
100
AcDbRotatedDimension
  0
DIMENSION
  5
164
330
1F
100
AcDbEntity
  8
0
  6
Continuous
 62
     7
370
     0
100
AcDbDimension
  2
*D15
 10
109.014586282
 20
226.904761313
 30
0.0
 11
89.844586282
 21
226.904761313
 31
0.0
 70
   160
  1
%%c<> (x2)
 71
     2
 42
-1.0
  3
SLDDIMSTYLE0
100
AcDbAlignedDimension
 13
107.214586282
 23
240.7090292085
 33
0.0
 14
109.014586282
 24
240.7090292085
 34
0.0
100
AcDbRotatedDimension
  0
DIMENSION
  5
172
330
1F
100
AcDbEntity
  8
0
  6
Continuous
 62
     7
370
     0
100
AcDbDimension
  2
*D16
 10
89.844586282
 20
241.8790292085
 30
0.0
 11
89.844586282
 21
252.7090292085
 31
0.0
 70
   160
  1
<> (x2)
 71
     2
 42
-1.0
  3
SLDDIMSTYLE0
100
AcDbAlignedDimension
 13
109.844586282
 23
242.7090292085
 33
0.0
 14
183.214586282
 24
241.8790292085
 34
0.0
 50
90.0
100
AcDbRotatedDimension
  0
DIMENSION
  5
17F
330
1F
100
AcDbEntity
  8
0
  6
Continuous
 62
     7
370
     0
100
AcDbDimension
  2
*D17
 10
109.844586282
 20
242.7090292085
 30
0.0
 11
108.1869974478
 21
254.4596909702
 31
0.0
 70
   162
  1
<> (x2)
 71
     1
 42
-1.0
  3
SLDDIMSTYLE5
100
AcDb2LineAngularDimension
 13
106.384586282
 23
242.7090292085
 33
0.0
 14
107.214586282
 24
241.8790292085
 34
0.0
 15
109.014586282
 25
241.8790292085
 35
0.0
 16
108.114586282
 26
254.4598854465
 36
0.0
  0
MTEXT
  5
18D
330
1F
100
AcDbEntity
  8
0
  6
Continuous
 62
     7
370
     0
100
AcDbMText
 10
145.7901061731
 20
226.1675132181
 30
0.0
 40
3.5
 41
0.0
 71
     2
 72
     1
  1
COUPE A-A
  7
SLDTEXTSTYLE0
 73
     1
 44
1.0
  0
TOLERANCE
  5
18E
330
1F
100
AcDbEntity
  8
0
  6
Continuous
 62
     7
370
     0
100
AcDbFcf
  3
SLDDIMSTYLE3
 10
139.114586282
 20
257.6775554536
 30
0.0
  1
{\Fgdt;i}%%v%%v%%vA%%v%%v%%v^J
  0
ENDSEC
  0
SECTION
  2
OBJECTS
  0
DICTIONARY
  5
C
330
0
100
AcDbDictionary
281
     1
  3
ACAD_GROUP
350
D
  3
ACAD_IMAGE_DICT
350
45
  3
ACAD_LAYOUT
350
1A
  3
ACAD_MLINESTYLE
350
17
  3
ACAD_PLOTSETTINGS
350
19
  3
ACAD_PLOTSTYLENAME
350
E
  0
IMAGEDEF_REACTOR
  5
48
330
47
100
AcDbRasterImageDefReactor
 90
        2
330
47
  0
DICTIONARY
  5
D
102
{ACAD_REACTORS
330
C
102
}
330
C
100
AcDbDictionary
281
     1
  0
DICTIONARY
  5
45
102
{ACAD_REACTORS
330
C
102
}
330
C
100
AcDbDictionary
281
     1
  3
J:\Ingenierie\HOWIT\Prototype-2013\Plans\dxfEE7C.bmp
350
46
  0
DICTIONARY
  5
1A
102
{ACAD_REACTORS
330
C
102
}
330
C
100
AcDbDictionary
281
     1
  3
Layout1
350
1E
  3
Layout2
350
26
  3
Model
350
22
  0
DICTIONARY
  5
17
102
{ACAD_REACTORS
330
C
102
}
330
C
100
AcDbDictionary
281
     1
  3
Standard
350
18
  0
DICTIONARY
  5
19
102
{ACAD_REACTORS
330
C
102
}
330
C
100
AcDbDictionary
281
     1
  0
ACDBDICTIONARYWDFLT
  5
E
102
{ACAD_REACTORS
330
C
102
}
330
C
100
AcDbDictionary
281
     1
  3
Normal
350
F
100
AcDbDictionaryWithDefault
340
F
  0
IMAGEDEF
  5
46
102
{ACAD_REACTORS
330
45
330
48
102
}
330
45
100
AcDbRasterImageDef
 90
        0
  1
J:\Ingenierie\HOWIT\Prototype-2013\Plans\dxfEE7C.bmp
 10
400.0
 20
420.0
 11
0.2645502645502645
 21
0.2645502645502645
280
     1
281
     3
  0
LAYOUT
  5
1E
102
{ACAD_REACTORS
330
1A
102
}
330
1A
100
AcDbPlotSettings
  1

  2
none_device
  4

  6

 40
0.0
 41
0.0
 42
0.0
 43
0.0
 44
0.0
 45
0.0
 46
0.0
 47
0.0
 48
0.0
 49
0.0
140
0.0
141
0.0
142
1.0
143
1.0
 70
   688
 72
     0
 73
     0
 74
     5
  7

 75
    16
147
1.0
148
0.0
149
0.0
100
AcDbLayout
  1
Layout1
 70
     1
 71
     1
 10
0.0
 20
0.0
 11
420.0
 21
297.0
 12
0.0
 22
0.0
 32
0.0
 14
1.0000000000E+20
 24
1.0000000000E+20
 34
1.0000000000E+20
 15
-1.0000000000E+20
 25
-1.0000000000E+20
 35
-1.0000000000E+20
146
0.0
 13
0.0
 23
0.0
 33
0.0
 16
1.0
 26
0.0
 36
0.0
 17
0.0
 27
1.0
 37
0.0
 76
     0
330
1B
  0
LAYOUT
  5
26
102
{ACAD_REACTORS
330
1A
102
}
330
1A
100
AcDbPlotSettings
  1

  2
none_device
  4

  6

 40
0.0
 41
0.0
 42
0.0
 43
0.0
 44
0.0
 45
0.0
 46
0.0
 47
0.0
 48
0.0
 49
0.0
140
0.0
141
0.0
142
1.0
143
1.0
 70
   688
 72
     0
 73
     0
 74
     5
  7

 75
    16
147
1.0
148
0.0
149
0.0
100
AcDbLayout
  1
Layout2
 70
     1
 71
     2
 10
0.0
 20
0.0
 11
0.0
 21
0.0
 12
0.0
 22
0.0
 32
0.0
 14
0.0
 24
0.0
 34
0.0
 15
0.0
 25
0.0
 35
0.0
146
0.0
 13
0.0
 23
0.0
 33
0.0
 16
1.0
 26
0.0
 36
0.0
 17
0.0
 27
1.0
 37
0.0
 76
     0
330
23
  0
LAYOUT
  5
22
102
{ACAD_REACTORS
330
1A
102
}
330
1A
100
AcDbPlotSettings
  1

  2
none_device
  4

  6

 40
0.0
 41
0.0
 42
0.0
 43
0.0
 44
0.0
 45
0.0
 46
0.0
 47
0.0
 48
0.0
 49
0.0
140
0.0
141
0.0
142
1.0
143
1.0
 70
  1712
 72
     0
 73
     0
 74
     0
  7

 75
     0
147
1.0
148
0.0
149
0.0
100
AcDbLayout
  1
Model
 70
     1
 71
     0
 10
0.0
 20
0.0
 11
210.0
 21
297.0
 12
0.0
 22
0.0
 32
0.0
 14
0.0
 24
0.0
 34
0.0
 15
210.0
 25
297.0
 35
0.0
146
0.0
 13
0.0
 23
0.0
 33
0.0
 16
1.0
 26
0.0
 36
0.0
 17
0.0
 27
1.0
 37
0.0
 76
     0
330
1F
331
29
  0
MLINESTYLE
  5
18
102
{ACAD_REACTORS
330
17
102
}
330
17
100
AcDbMlineStyle
  2
Standard
 70
     0
  3

 62
   256
 51
90.0
 52
90.0
 71
     2
 49
0.5
 62
   256
  6
BYLAYER
 49
-0.5
 62
   256
  6
BYLAYER
  0
ACDBPLACEHOLDER
  5
F
102
{ACAD_REACTORS
330
E
102
}
330
E
  0
ENDSEC
  0
EOF
