  0
SECTION
  2
HEADER
  9
$ACADVER
  1
AC1015
  9
$ACADMAINTVER
 70
     6
  9
$DWGCODEPAGE
  3
ANSI_1252
  9
$INSBASE
 10
0.0
 20
0.0
 30
0.0
  9
$EXTMIN
 10
0.0
 20
0.0
 30
0.0
  9
$EXTMAX
 10
420.0
 20
297.0
 30
0.0
  9
$LIMMIN
 10
0.0
 20
0.0
  9
$LIMMAX
 10
420.0
 20
297.0
  9
$ORTHOMODE
 70
     0
  9
$REGENMODE
 70
     1
  9
$FILLMODE
 70
     1
  9
$QTEXTMODE
 70
     0
  9
$MIRRTEXT
 70
     1
  9
$LTSCALE
 40
1.0
  9
$ATTMODE
 70
     1
  9
$TEXTSIZE
 40
3.5
  9
$TRACEWID
 40
1.0
  9
$TEXTSTYLE
  7
Standard
  9
$CLAYER
  8
0
  9
$CELTYPE
  6
ByLayer
  9
$CECOLOR
 62
   256
  9
$CELTSCALE
 40
1.0
  9
$DISPSILH
 70
     0
  9
$DIMSCALE
 40
1.0
  9
$DIMASZ
 40
3.302
  9
$DIMEXO
 40
1.0
  9
$DIMDLI
 40
3.75
  9
$DIMRND
 40
0.0
  9
$DIMDLE
 40
0.0
  9
$DIMEXE
 40
1.0
  9
$DIMTP
 40
0.0
  9
$DIMTM
 40
0.0
  9
$DIMTXT
 40
3.5
  9
$DIMCEN
 40
2.5
  9
$DIMTSZ
 40
0.0
  9
$DIMTOL
 70
     0
  9
$DIMLIM
 70
     0
  9
$DIMTIH
 70
     1
  9
$DIMTOH
 70
     1
  9
$DIMSE1
 70
     0
  9
$DIMSE2
 70
     0
  9
$DIMTAD
 70
     1
  9
$DIMZIN
 70
     0
  9
$DIMBLK
  1

  9
$DIMASO
 70
     1
  9
$DIMSHO
 70
     1
  9
$DIMPOST
  1

  9
$DIMAPOST
  1

  9
$DIMALT
 70
     0
  9
$DIMALTD
 70
     3
  9
$DIMALTF
 40
0.0393700787
  9
$DIMLFAC
 40
2.0
  9
$DIMTOFL
 70
     1
  9
$DIMTVP
 40
0.0
  9
$DIMTIX
 70
     0
  9
$DIMSOXD
 70
     0
  9
$DIMSAH
 70
     0
  9
$DIMBLK1
  1

  9
$DIMBLK2
  1

  9
$DIMSTYLE
  2
ISO-25
  9
$DIMCLRD
 70
     0
  9
$DIMCLRE
 70
     0
  9
$DIMCLRT
 70
     0
  9
$DIMTFAC
 40
1.0
  9
$DIMGAP
 40
1.524
  9
$DIMJUST
 70
     0
  9
$DIMSD1
 70
     0
  9
$DIMSD2
 70
     0
  9
$DIMTOLJ
 70
     0
  9
$DIMTZIN
 70
     0
  9
$DIMALTZ
 70
     0
  9
$DIMALTTZ
 70
     0
  9
$DIMUPT
 70
     0
  9
$DIMDEC
 70
     3
  9
$DIMTDEC
 70
     3
  9
$DIMALTU
 70
     2
  9
$DIMALTTD
 70
     3
  9
$DIMTXSTY
  7
Standard
  9
$DIMAUNIT
 70
     0
  9
$DIMADEC
 70
     2
  9
$DIMALTRND
 40
0.0
  9
$DIMAZIN
 70
     0
  9
$DIMDSEP
 70
    44
  9
$DIMATFIT
 70
     3
  9
$DIMFRAC
 70
     0
  9
$DIMLDRBLK
  1

  9
$DIMLUNIT
 70
     2
  9
$DIMLWD
 70
    -2
  9
$DIMLWE
 70
    -2
  9
$DIMTMOVE
 70
     0
  9
$LUNITS
 70
     2
  9
$LUPREC
 70
     2
  9
$SKETCHINC
 40
1.0
  9
$FILLETRAD
 40
10.0
  9
$AUNITS
 70
     0
  9
$AUPREC
 70
     2
  9
$MENU
  1
.
  9
$ELEVATION
 40
0.0
  9
$PELEVATION
 40
0.0
  9
$THICKNESS
 40
0.0
  9
$LIMCHECK
 70
     0
  9
$CHAMFERA
 40
10.0
  9
$CHAMFERB
 40
10.0
  9
$CHAMFERC
 40
20.0
  9
$CHAMFERD
 40
0.0
  9
$SKPOLY
 70
     0
  9
$TDCREATE
 40
2456750.647719028
  9
$TDUCREATE
 40
2456750.606052361
  9
$TDUPDATE
 40
2456750.64771904
  9
$TDUUPDATE
 40
2456750.606052373
  9
$TDINDWG
 40
0.0000000116
  9
$TDUSRTIMER
 40
0.0000000116
  9
$USRTIMER
 70
     1
  9
$ANGBASE
 50
0.0
  9
$ANGDIR
 70
     0
  9
$PDMODE
 70
     0
  9
$PDSIZE
 40
-1.0
  9
$PLINEWID
 40
0.0
  9
$SPLFRAME
 70
     0
  9
$SPLINETYPE
 70
     6
  9
$SPLINESEGS
 70
     8
  9
$HANDSEED
  5
1A7
  9
$SURFTAB1
 70
     6
  9
$SURFTAB2
 70
     6
  9
$SURFTYPE
 70
     6
  9
$SURFU
 70
     6
  9
$SURFV
 70
     6
  9
$UCSBASE
  2

  9
$UCSNAME
  2

  9
$UCSORG
 10
0.0
 20
0.0
 30
0.0
  9
$UCSXDIR
 10
1.0
 20
0.0
 30
0.0
  9
$UCSYDIR
 10
0.0
 20
1.0
 30
0.0
  9
$UCSORTHOREF
  2

  9
$UCSORTHOVIEW
 70
     0
  9
$UCSORGTOP
 10
0.0
 20
0.0
 30
0.0
  9
$UCSORGBOTTOM
 10
0.0
 20
0.0
 30
0.0
  9
$UCSORGLEFT
 10
0.0
 20
0.0
 30
0.0
  9
$UCSORGRIGHT
 10
0.0
 20
0.0
 30
0.0
  9
$UCSORGFRONT
 10
0.0
 20
0.0
 30
0.0
  9
$UCSORGBACK
 10
0.0
 20
0.0
 30
0.0
  9
$PUCSBASE
  2

  9
$PUCSNAME
  2

  9
$PUCSORG
 10
0.0
 20
0.0
 30
0.0
  9
$PUCSXDIR
 10
1.0
 20
0.0
 30
0.0
  9
$PUCSYDIR
 10
0.0
 20
1.0
 30
0.0
  9
$PUCSORTHOREF
  2

  9
$PUCSORTHOVIEW
 70
     0
  9
$PUCSORGTOP
 10
0.0
 20
0.0
 30
0.0
  9
$PUCSORGBOTTOM
 10
0.0
 20
0.0
 30
0.0
  9
$PUCSORGLEFT
 10
0.0
 20
0.0
 30
0.0
  9
$PUCSORGRIGHT
 10
0.0
 20
0.0
 30
0.0
  9
$PUCSORGFRONT
 10
0.0
 20
0.0
 30
0.0
  9
$PUCSORGBACK
 10
0.0
 20
0.0
 30
0.0
  9
$USERI1
 70
     0
  9
$USERI2
 70
     0
  9
$USERI3
 70
     0
  9
$USERI4
 70
     0
  9
$USERI5
 70
     0
  9
$USERR1
 40
0.0
  9
$USERR2
 40
0.0
  9
$USERR3
 40
0.0
  9
$USERR4
 40
0.0
  9
$USERR5
 40
0.0
  9
$WORLDVIEW
 70
     1
  9
$SHADEDGE
 70
     3
  9
$SHADEDIF
 70
    70
  9
$TILEMODE
 70
     1
  9
$MAXACTVP
 70
    64
  9
$PINSBASE
 10
0.0
 20
0.0
 30
0.0
  9
$PLIMCHECK
 70
     0
  9
$PEXTMIN
 10
1.0000000000E+20
 20
1.0000000000E+20
 30
1.0000000000E+20
  9
$PEXTMAX
 10
-1.0000000000E+20
 20
-1.0000000000E+20
 30
-1.0000000000E+20
  9
$PLIMMIN
 10
0.0
 20
0.0
  9
$PLIMMAX
 10
420.0
 20
297.0
  9
$UNITMODE
 70
     0
  9
$VISRETAIN
 70
     1
  9
$PLINEGEN
 70
     0
  9
$PSLTSCALE
 70
     1
  9
$TREEDEPTH
 70
  3020
  9
$CMLSTYLE
  2
Standard
  9
$CMLJUST
 70
     0
  9
$CMLSCALE
 40
20.0
  9
$PROXYGRAPHICS
 70
     1
  9
$MEASUREMENT
 70
     1
  9
$CELWEIGHT
370
    -1
  9
$ENDCAPS
280
     0
  9
$JOINSTYLE
280
     0
  9
$LWDISPLAY
290
     1
  9
$INSUNITS
 70
     4
  9
$HYPERLINKBASE
  1

  9
$STYLESHEET
  1

  9
$XEDIT
290
     1
  9
$CEPSNTYPE
380
     0
  9
$PSTYLEMODE
290
     1
  9
$FINGERPRINTGUID
  2
{CE0A31C1-E143-436F-9A0A-6BE8EB61B8E6}
  9
$VERSIONGUID
  2
{FAEB1C32-E019-11D5-929B-00C0DF256EC4}
  9
$EXTNAMES
290
     1
  9
$PSVPSCALE
 40
0.0
  9
$OLESTARTUP
290
     0
  0
ENDSEC
  0
SECTION
  2
CLASSES
  0
CLASS
  1
ACDBDICTIONARYWDFLT
  2
AcDbDictionaryWithDefault
  3
ObjectDBX Classes
 90
        0
280
     0
281
     0
  0
CLASS
  1
VISUALSTYLE
  2
AcDbVisualStyle
  3
ObjectDBX Classes
 90
     4095
280
     0
281
     0
  0
CLASS
  1
MATERIAL
  2
AcDbMaterial
  3
ObjectDBX Classes
 90
     1153
280
     0
281
     0
  0
CLASS
  1
IMAGEDEF
  2
AcDbRasterImageDef
  3
ISM
 90
        0
280
     0
281
     0
  0
CLASS
  1
IMAGE
  2
AcDbRasterImage
  3
ISM
 90
      127
280
     0
281
     1
  0
CLASS
  1
IMAGEDEF_REACTOR
  2
AcDbRasterImageDefReactor
  3
ISM
 90
        1
280
     0
281
     0
  0
CLASS
  1
ACDBPLACEHOLDER
  2
AcDbPlaceHolder
  3
ObjectDBX Classes
 90
        0
280
     0
281
     0
  0
CLASS
  1
LAYOUT
  2
AcDbLayout
  3
ObjectDBX Classes
 90
        0
280
     0
281
     0
  0
ENDSEC
  0
SECTION
  2
TABLES
  0
TABLE
  2
VPORT
  5
8
330
0
100
AcDbSymbolTable
 70
     1
  0
VPORT
  5
29
330
8
100
AcDbSymbolTableRecord
100
AcDbViewportTableRecord
  2
*Active
 70
     0
 10
0.0
 20
0.0
 11
1.0
 21
1.0
 12
210.0
 22
148.5
 13
0.0
 23
0.0
 14
10.0
 24
10.0
 15
10.0
 25
10.0
 16
0.0
 26
0.0
 36
1.0
 17
0.0
 27
0.0
 37
0.0
 40
297.0
 41
1.4141414141
 42
50.0
 43
0.0
 44
0.0
 50
0.0
 51
0.0
 71
     0
 72
  2000
 73
     1
 74
     3
 75
     0
 76
     0
 77
     0
 78
     0
281
     0
 65
     1
110
0.0
120
0.0
130
0.0
111
1.0
121
0.0
131
0.0
112
0.0
122
1.0
132
0.0
 79
     0
146
0.0
  0
ENDTAB
  0
TABLE
  2
LTYPE
  5
5
330
0
100
AcDbSymbolTable
 70
     6
  0
LTYPE
  5
14
330
5
100
AcDbSymbolTableRecord
100
AcDbLinetypeTableRecord
  2
ByBlock
 70
     0
  3

 72
    65
 73
     0
 40
0.0
  0
LTYPE
  5
15
330
5
100
AcDbSymbolTableRecord
100
AcDbLinetypeTableRecord
  2
ByLayer
 70
     0
  3

 72
    65
 73
     0
 40
0.0
  0
LTYPE
  5
16
330
5
100
AcDbSymbolTableRecord
100
AcDbLinetypeTableRecord
  2
Continuous
 70
     0
  3
Solid line
 72
    65
 73
     0
 40
0.0
  0
LTYPE
  5
3F
330
5
100
AcDbSymbolTableRecord
100
AcDbLinetypeTableRecord
  2
HIDDEN
 70
     0
  3
Hidden __ __ __ __ __ __ __ __ __ __ __ __ __ __
 72
    65
 73
     2
 40
1.905
 49
1.27
 74
     0
 49
-0.635
 74
     0
  0
LTYPE
  5
40
330
5
100
AcDbSymbolTableRecord
100
AcDbLinetypeTableRecord
  2
PHANTOM
 70
     0
  3
Phantom ______  __  __  ______  __  __  ______
 72
    65
 73
     6
 40
12.7
 49
6.35
 74
     0
 49
-1.27
 74
     0
 49
1.27
 74
     0
 49
-1.27
 74
     0
 49
1.27
 74
     0
 49
-1.27
 74
     0
  0
LTYPE
  5
41
330
5
100
AcDbSymbolTableRecord
100
AcDbLinetypeTableRecord
  2
CENTER
 70
     0
  3
Center ____ _ ____ _ ____ _ ____ _ ____ _ ____
 72
    65
 73
     4
 40
10.16
 49
6.35
 74
     0
 49
-1.27
 74
     0
 49
1.27
 74
     0
 49
-1.27
 74
     0
  0
LTYPE
  5
42
330
5
100
AcDbSymbolTableRecord
100
AcDbLinetypeTableRecord
  2
CENTERX2
 70
     0
  3
Center (2x) ________  __  ________  __  _____
 72
    65
 73
     4
 40
20.32
 49
12.7
 74
     0
 49
-2.54
 74
     0
 49
2.54
 74
     0
 49
-2.54
 74
     0
  0
LTYPE
  5
43
330
5
100
AcDbSymbolTableRecord
100
AcDbLinetypeTableRecord
  2
DOT2
 70
     0
  3
Dot (.5x) ........................................
 72
    65
 73
     2
 40
0.635
 49
0.0
 74
     0
 49
-0.635
 74
     0
  0
ENDTAB
  0
TABLE
  2
LAYER
  5
2
330
0
100
AcDbSymbolTable
 70
     2
  0
LAYER
  5
10
330
2
100
AcDbSymbolTableRecord
100
AcDbLayerTableRecord
  2
0
 70
     0
 62
     7
  6
Continuous
370
    -3
390
F
  0
LAYER
  5
44
330
2
100
AcDbSymbolTableRecord
100
AcDbLayerTableRecord
  2
FORMAT
 70
     0
 62
     7
  6
Continuous
370
    -3
390
F
  0
ENDTAB
  0
TABLE
  2
STYLE
  5
3
330
0
100
AcDbSymbolTable
 70
     5
  0
STYLE
  5
11
330
3
100
AcDbSymbolTableRecord
100
AcDbTextStyleTableRecord
  2
Standard
 70
     0
 40
0.0
 41
1.0
 50
0.0
 71
     0
 42
2.5
  3
txt
  4

  0
STYLE
  5
6D
330
3
100
AcDbSymbolTableRecord
100
AcDbTextStyleTableRecord
  2
SLDTEXTSTYLE0
 70
     0
 40
0.0
 41
0.75
 50
0.0
 71
     0
 42
0.2
  3
TXT
  4

  0
STYLE
  5
79
330
3
100
AcDbSymbolTableRecord
100
AcDbTextStyleTableRecord
  2
SLDTEXTSTYLE1
 70
     0
 40
0.0
 41
0.7
 50
0.0
 71
     0
 42
0.2
  3
TXT
  4

  0
STYLE
  5
96
330
3
100
AcDbSymbolTableRecord
100
AcDbTextStyleTableRecord
  2
SLDTEXTSTYLE2
 70
     0
 40
0.0
 41
0.6875
 50
0.0
 71
     0
 42
0.2
  3
TXT
  4

  0
STYLE
  5
198
330
3
100
AcDbSymbolTableRecord
100
AcDbTextStyleTableRecord
  2
SLDTEXTSTYLE3
 70
     0
 40
0.0
 41
0.6923076923
 50
0.0
 71
     0
 42
0.2
  3
TXT
  4

  0
ENDTAB
  0
TABLE
  2
VIEW
  5
6
330
0
100
AcDbSymbolTable
 70
     0
  0
ENDTAB
  0
TABLE
  2
UCS
  5
7
330
0
100
AcDbSymbolTable
 70
     0
  0
ENDTAB
  0
TABLE
  2
APPID
  5
9
330
0
100
AcDbSymbolTable
 70
     1
  0
APPID
  5
12
330
9
100
AcDbSymbolTableRecord
100
AcDbRegAppTableRecord
  2
ACAD
 70
     0
  0
ENDTAB
  0
TABLE
  2
DIMSTYLE
  5
A
330
0
100
AcDbSymbolTable
 70
     8
100
AcDbDimStyleTable
  0
DIMSTYLE
105
27
330
A
100
AcDbSymbolTableRecord
100
AcDbDimStyleTableRecord
  2
ISO-25
 70
     0
 41
2.5
 42
0.625
 43
3.75
 44
1.25
 73
     0
 74
     0
 77
     1
 78
     8
140
2.5
141
2.5
143
0.0393700787
147
0.625
171
     3
172
     1
178
     0
271
     2
272
     2
274
     3
278
    44
283
     0
284
     8
340
11
  0
DIMSTYLE
105
A5
102
{ACAD_REACTORS
330
A4
102
}
330
A
100
AcDbSymbolTableRecord
100
AcDbDimStyleTableRecord
  2
SLDDIMSTYLE0
 70
     0
 41
3.302
 44
0.0
 45
0.000000001
 73
     0
 74
     0
 77
     1
 78
    12
 79
     3
140
3.5
141
0.0
147
0.875
172
     1
173
     1
178
     0
271
     2
272
     2
276
     2
284
    12
340
6D
341
A6
343
A6
  0
DIMSTYLE
105
B2
102
{ACAD_REACTORS
330
B1
102
}
330
A
100
AcDbSymbolTableRecord
100
AcDbDimStyleTableRecord
  2
SLDDIMSTYLE1
 70
     0
 41
3.302
 44
0.0
 45
0.000000001
 73
     0
 74
     0
 77
     1
 78
    12
 79
     3
140
3.5
141
0.0
147
0.875
172
     1
173
     1
178
     0
271
     2
272
     2
276
     2
284
    12
340
6D
341
A6
343
A6
  0
DIMSTYLE
105
BD
102
{ACAD_REACTORS
330
BC
102
}
330
A
100
AcDbSymbolTableRecord
100
AcDbDimStyleTableRecord
  2
SLDDIMSTYLE2
 70
     0
 41
3.302
 44
0.0
 45
0.000000001
 73
     0
 74
     0
 77
     1
 78
    12
 79
     3
140
3.5
141
0.0
147
0.875
172
     1
173
     1
178
     0
271
     2
272
     2
276
     2
284
    12
340
6D
341
A6
343
A6
  0
DIMSTYLE
105
148
102
{ACAD_REACTORS
330
147
102
}
330
A
100
AcDbSymbolTableRecord
100
AcDbDimStyleTableRecord
  2
SLDDIMSTYLE3
 70
     0
 41
3.302
 44
0.0
 45
0.000000001
 47
0.5
 48
-0.2
 71
     1
 73
     0
 74
     0
 77
     1
 78
    12
 79
     3
140
3.5
147
0.875
173
     1
178
     0
271
     2
272
     1
276
     2
284
     8
340
6D
  0
DIMSTYLE
105
159
102
{ACAD_REACTORS
330
158
330
189
102
}
330
A
100
AcDbSymbolTableRecord
100
AcDbDimStyleTableRecord
  2
SLDDIMSTYLE4
 70
     0
 41
3.302
 44
0.0
 45
0.000000001
 73
     0
 74
     0
 77
     1
 78
    12
 79
     3
140
3.5
147
0.875
173
     1
178
     0
271
     2
272
     2
276
     2
284
    12
340
6D
  0
DIMSTYLE
105
164
102
{ACAD_REACTORS
330
163
330
170
102
}
330
A
100
AcDbSymbolTableRecord
100
AcDbDimStyleTableRecord
  2
SLDDIMSTYLE5
 70
     0
 41
3.302
 44
0.0
 45
0.000000001
 73
     0
 74
     0
 77
     1
 78
    12
 79
     3
140
3.5
147
0.875
172
     1
173
     1
178
     0
271
     2
272
     2
276
     2
284
    12
289
     0
340
6D
  0
DIMSTYLE
105
17D
102
{ACAD_REACTORS
330
17C
102
}
330
A
100
AcDbSymbolTableRecord
100
AcDbDimStyleTableRecord
  2
SLDDIMSTYLE6
 70
     0
 41
3.302
 44
0.0
 45
0.000000001
 73
     0
 74
     0
 77
     1
 78
    12
 79
     3
140
3.5
147
0.875
173
     1
178
     0
271
     2
272
     2
276
     2
284
    12
340
6D
  0
ENDTAB
  0
TABLE
  2
BLOCK_RECORD
  5
1
330
0
100
AcDbSymbolTable
 70
    19
  0
BLOCK_RECORD
  5
1F
330
1
100
AcDbSymbolTableRecord
100
AcDbBlockTableRecord
  2
*Model_Space
340
22
  0
BLOCK_RECORD
  5
1B
330
1
100
AcDbSymbolTableRecord
100
AcDbBlockTableRecord
  2
*Paper_Space
340
1E
  0
BLOCK_RECORD
  5
23
330
1
100
AcDbSymbolTableRecord
100
AcDbBlockTableRecord
  2
*Paper_Space0
340
26
  0
BLOCK_RECORD
  5
6A
330
1
100
AcDbSymbolTableRecord
100
AcDbBlockTableRecord
  2
SW_NOTE_0
340
0
102
{BLKREFS
331
70
102
}
  0
BLOCK_RECORD
  5
84
330
1
100
AcDbSymbolTableRecord
100
AcDbBlockTableRecord
  2
SW_NOTE_1
340
0
102
{BLKREFS
331
89
102
}
  0
BLOCK_RECORD
  5
90
330
1
100
AcDbSymbolTableRecord
100
AcDbBlockTableRecord
  2
SW_NOTE_2
340
0
102
{BLKREFS
331
9A
102
}
  0
BLOCK_RECORD
  5
A6
330
1
100
AcDbSymbolTableRecord
100
AcDbBlockTableRecord
  2
_NONE
340
0
  0
BLOCK_RECORD
  5
A9
330
1
100
AcDbSymbolTableRecord
100
AcDbBlockTableRecord
  2
*D5
340
0
  0
BLOCK_RECORD
  5
B3
330
1
100
AcDbSymbolTableRecord
100
AcDbBlockTableRecord
  2
*D6
340
0
  0
BLOCK_RECORD
  5
BE
330
1
100
AcDbSymbolTableRecord
100
AcDbBlockTableRecord
  2
*D7
340
0
  0
BLOCK_RECORD
  5
C6
330
1
100
AcDbSymbolTableRecord
100
AcDbBlockTableRecord
  2
SW_CENTERMARKSYMBOL_0
340
0
102
{BLKREFS
331
FB
102
}
  0
BLOCK_RECORD
  5
103
330
1
100
AcDbSymbolTableRecord
100
AcDbBlockTableRecord
  2
SW_DATUMTAG_0
340
0
102
{BLKREFS
331
10E
102
}
  0
BLOCK_RECORD
  5
10F
330
1
100
AcDbSymbolTableRecord
100
AcDbBlockTableRecord
  2
SW_DATUMTAG_1
340
0
102
{BLKREFS
331
11A
102
}
  0
BLOCK_RECORD
  5
149
330
1
100
AcDbSymbolTableRecord
100
AcDbBlockTableRecord
  2
*D11
340
0
  0
BLOCK_RECORD
  5
15A
330
1
100
AcDbSymbolTableRecord
100
AcDbBlockTableRecord
  2
*D12
340
0
  0
BLOCK_RECORD
  5
165
330
1
100
AcDbSymbolTableRecord
100
AcDbBlockTableRecord
  2
*D13
340
0
  0
BLOCK_RECORD
  5
171
330
1
100
AcDbSymbolTableRecord
100
AcDbBlockTableRecord
  2
*D14
340
0
  0
BLOCK_RECORD
  5
17E
330
1
100
AcDbSymbolTableRecord
100
AcDbBlockTableRecord
  2
*D15
340
0
  0
BLOCK_RECORD
  5
18A
330
1
100
AcDbSymbolTableRecord
100
AcDbBlockTableRecord
  2
*D16
340
0
  0
BLOCK_RECORD
  5
194
330
1
100
AcDbSymbolTableRecord
100
AcDbBlockTableRecord
  2
SW_NOTE_3
340
0
102
{BLKREFS
331
19A
102
}
  0
BLOCK_RECORD
  5
19B
330
1
100
AcDbSymbolTableRecord
100
AcDbBlockTableRecord
  2
SW_DATUMTAG_2
340
0
102
{BLKREFS
331
1A6
102
}
  0
ENDTAB
  0
ENDSEC
  0
SECTION
  2
BLOCKS
  0
BLOCK
  5
20
330
1F
100
AcDbEntity
  8
0
100
AcDbBlockBegin
  2
*Model_Space
 70
     0
 10
0.0
 20
0.0
 30
0.0
  3
*Model_Space
  1

  0
ENDBLK
  5
21
330
1F
100
AcDbEntity
  8
0
100
AcDbBlockEnd
  0
BLOCK
  5
1C
330
1B
100
AcDbEntity
 67
     1
  8
0
100
AcDbBlockBegin
  2
*Paper_Space
 70
     0
 10
0.0
 20
0.0
 30
0.0
  3
*Paper_Space
  1

  0
ENDBLK
  5
1D
330
1B
100
AcDbEntity
 67
     1
  8
0
100
AcDbBlockEnd
  0
BLOCK
  5
24
330
23
100
AcDbEntity
  8
0
100
AcDbBlockBegin
  2
*Paper_Space0
 70
     0
 10
0.0
 20
0.0
 30
0.0
  3
*Paper_Space0
  1

  0
ENDBLK
  5
25
330
23
100
AcDbEntity
  8
0
100
AcDbBlockEnd
  0
BLOCK
  5
6B
330
6A
100
AcDbEntity
  8
0
100
AcDbBlockBegin
  2
SW_NOTE_0
 70
     0
 10
0.0
 20
0.0
 30
0.0
  3
SW_NOTE_0
  1

  0
MTEXT
  5
6E
330
6A
100
AcDbEntity
  8
0
  6
Continuous
 62
     0
370
     0
100
AcDbMText
 10
-3.4106583948
 20
0.0
 30
0.0
 40
2.6458333333
 41
0.0
 71
     1
 72
     1
  1
Copyright © 2014 Théophile Bresson, AeroSeeD SAS, Vincent Mauvady, David Vantyghem, Pascal Corradini
  7
SLDTEXTSTYLE0
 11
-3.491481338843133E-15
 21
1.0
 31
0.0
 73
     1
 44
1.0
  0
MTEXT
  5
6F
330
6A
100
AcDbEntity
  8
0
  6
Continuous
 62
     0
370
     0
100
AcDbMText
 10
0.1171193403
 20
0.0
 30
0.0
 40
2.6458333333
 41
0.0
 71
     1
 72
     1
  1
Licensed under TAPR Open Hardware Licence (www.tapr.org/OHL)
  7
SLDTEXTSTYLE0
 11
-3.491481338843133E-15
 21
1.0
 31
0.0
 73
     1
 44
1.0
  0
ENDBLK
  5
6C
330
6A
100
AcDbEntity
  8
0
100
AcDbBlockEnd
  0
BLOCK
  5
85
330
84
100
AcDbEntity
  8
0
100
AcDbBlockBegin
  2
SW_NOTE_1
 70
     0
 10
0.0
 20
0.0
 30
0.0
  3
SW_NOTE_1
  1

  0
MTEXT
  5
87
330
84
100
AcDbEntity
  8
0
  6
Continuous
 62
     0
370
     0
100
AcDbMText
 10
0.0
 20
1.9336016097
 30
0.0
 40
1.5
 41
0.0
 71
     1
 72
     1
  1
CASSER LES
  7
SLDTEXTSTYLE0
 73
     1
 44
1.0
  0
MTEXT
  5
88
330
84
100
AcDbEntity
  8
0
  6
Continuous
 62
     0
370
     0
100
AcDbMText
 10
0.0
 20
-0.5663983345
 30
0.0
 40
1.5
 41
0.0
 71
     1
 72
     1
  1
ANGLES VIFS
  7
SLDTEXTSTYLE0
 73
     1
 44
1.0
  0
ENDBLK
  5
86
330
84
100
AcDbEntity
  8
0
100
AcDbBlockEnd
  0
BLOCK
  5
91
330
90
100
AcDbEntity
  8
0
100
AcDbBlockBegin
  2
SW_NOTE_2
 70
     0
 10
0.0
 20
0.0
 30
0.0
  3
SW_NOTE_2
  1

  0
MTEXT
  5
93
330
90
100
AcDbEntity
  8
0
  6
Continuous
 62
     0
370
     0
100
AcDbMText
 10
0.0
 20
1.9336016097
 30
0.0
 40
1.5
 41
0.0
 71
     1
 72
     1
  1
SAUF INDICATION CONTRAIRE:
  7
SLDTEXTSTYLE0
 73
     1
 44
1.0
  0
MTEXT
  5
94
330
90
100
AcDbEntity
  8
0
  6
Continuous
 62
     0
370
     0
100
AcDbMText
 10
0.0
 20
-0.5663983345
 30
0.0
 40
1.5
 41
0.0
 71
     1
 72
     1
  1
LES COTES SONT EN MILLIMETRES
  7
SLDTEXTSTYLE0
 73
     1
 44
1.0
  0
MTEXT
  5
95
330
90
100
AcDbEntity
  8
0
  6
Continuous
 62
     0
370
     0
100
AcDbMText
 10
0.0
 20
-3.0663982786
 30
0.0
 40
1.5
 41
0.0
 71
     1
 72
     1
  1
ETAT DE SURFACE:
  7
SLDTEXTSTYLE0
 73
     1
 44
1.0
  0
MTEXT
  5
97
330
90
100
AcDbEntity
  8
0
  6
Continuous
 62
     0
370
     0
100
AcDbMText
 10
17.3330735415
 20
-3.0663982786
 30
0.0
 40
1.5
 41
0.0
 71
     1
 72
     1
  1
Ra = 3.2
  7
SLDTEXTSTYLE2
 73
     1
 44
1.0
  0
MTEXT
  5
98
330
90
100
AcDbEntity
  8
0
  6
Continuous
 62
     0
370
     0
100
AcDbMText
 10
0.0
 20
-5.5663982227
 30
0.0
 40
1.5
 41
0.0
 71
     1
 72
     1
  1
TOLERANCES:
  7
SLDTEXTSTYLE0
 73
     1
 44
1.0
  0
MTEXT
  5
99
330
90
100
AcDbEntity
  8
0
  6
Continuous
 62
     0
370
     0
100
AcDbMText
 10
1.6624999698
 20
-8.0663981668
 30
0.0
 40
1.5
 41
0.0
 71
     1
 72
     1
  1
Iso 2768 mK
  7
SLDTEXTSTYLE0
 73
     1
 44
1.0
  0
ENDBLK
  5
92
330
90
100
AcDbEntity
  8
0
100
AcDbBlockEnd
  0
BLOCK
  5
A7
330
A6
100
AcDbEntity
  8
0
100
AcDbBlockBegin
  2
_NONE
 70
     0
 10
0.0
 20
0.0
 30
0.0
  3
_NONE
  1

  0
ENDBLK
  5
A8
330
A6
100
AcDbEntity
  8
0
100
AcDbBlockEnd
  0
BLOCK
  5
AA
330
A9
100
AcDbEntity
  8
0
100
AcDbBlockBegin
  2
*D5
 70
     1
 10
0.0
 20
0.0
 30
0.0
  3
*D5
  1

  0
SOLID
  5
AC
330
A9
100
AcDbEntity
  8
0
  6
Continuous
 62
     7
370
     0
100
AcDbTrace
 10
178.7433938942
 20
63.8633150068
 30
0.0
 11
180.7190502408
 21
61.1692381705
 31
0.0
 12
181.4374707305
 22
61.8876586602
 32
0.0
 13
181.4374707305
 23
61.8876586602
 33
0.0
  0
LINE
  5
AD
330
A9
100
AcDbEntity
  8
0
  6
Continuous
 62
     7
370
     0
100
AcDbLine
 10
178.7433938942
 20
63.8633150068
 30
0.0
 11
198.5999929656
 21
44.0067159353
 31
0.0
  0
LINE
  5
AE
330
A9
100
AcDbEntity
  8
0
  6
Continuous
 62
     7
370
     0
100
AcDbLine
 10
178.7433938942
 20
63.8633150068
 30
0.0
 11
100.9616479636
 21
141.6450609373
 31
0.0
  0
MTEXT
  5
AF
330
A9
100
AcDbEntity
  8
0
  6
Continuous
 62
     7
370
     0
100
AcDbMText
 10
190.5596700928
 20
58.4248417853
 30
-25.4
 40
3.5
 41
0.0
 71
     1
 72
     1
  1
%%c
  7
SLDTEXTSTYLE0
 11
0.7071067811865561
 21
-0.7071067811865389
 31
0.0
 73
     1
 44
1.0
  0
MTEXT
  5
B0
330
A9
100
AcDbEntity
  8
0
  6
Continuous
 62
     7
370
     0
100
AcDbMText
 10
194.32989951
 20
54.7302334456
 30
-25.4
 40
3.5
 41
0.0
 71
     1
 72
     1
  1
110
  7
SLDTEXTSTYLE0
 11
0.7071067811865561
 21
-0.7071067811865389
 31
0.0
 73
     1
 44
1.0
  0
ENDBLK
  5
AB
330
A9
100
AcDbEntity
  8
0
100
AcDbBlockEnd
  0
BLOCK
  5
B4
330
B3
100
AcDbEntity
  8
0
100
AcDbBlockBegin
  2
*D6
 70
     1
 10
0.0
 20
0.0
 30
0.0
  3
*D6
  1

  0
SOLID
  5
B6
330
B3
100
AcDbEntity
  8
0
  6
Continuous
 62
     7
370
     0
100
AcDbTrace
 10
96.3828618712
 20
76.6707355941
 30
0.0
 11
93.6887850349
 21
74.6950792475
 31
0.0
 12
94.4072055246
 22
73.9766587578
 32
0.0
 13
94.4072055246
 23
73.9766587578
 33
0.0
  0
LINE
  5
B7
330
B3
100
AcDbEntity
  8
0
  6
Continuous
 62
     7
370
     0
100
AcDbLine
 10
96.3828618712
 20
76.6707355941
 30
0.0
 11
71.740920066
 21
52.0287937889
 31
0.0
  0
LINE
  5
B8
330
B3
100
AcDbEntity
  8
0
  6
Continuous
 62
     7
370
     0
100
AcDbLine
 10
96.3828618712
 20
76.6707355941
 30
0.0
 11
101.0497666271
 21
81.33764035
 31
0.0
  0
MTEXT
  5
B9
330
B3
100
AcDbEntity
  8
0
  6
Continuous
 62
     7
370
     0
100
AcDbMText
 10
68.561889207
 20
55.207824648
 30
-25.4
 40
3.5
 41
0.0
 71
     1
 72
     1
  1
%%c
  7
SLDTEXTSTYLE0
 11
0.7071067811865469
 21
0.7071067811865481
 31
0.0
 73
     1
 44
1.0
  0
MTEXT
  5
BA
330
B3
100
AcDbEntity
  8
0
  6
Continuous
 62
     7
370
     0
100
AcDbMText
 10
72.2564975467
 20
58.9780540652
 30
-25.4
 40
3.5
 41
0.0
 71
     1
 72
     1
  1
6,6
  7
SLDTEXTSTYLE0
 11
0.7071067811865469
 21
0.7071067811865481
 31
0.0
 73
     1
 44
1.0
  0
MTEXT
  5
BB
330
B3
100
AcDbEntity
  8
0
  6
Continuous
 62
     7
370
     0
100
AcDbMText
 10
79.7670522167
 20
66.4886087352
 30
-25.4
 40
3.5
 41
0.0
 71
     1
 72
     1
  1
(x6)
  7
SLDTEXTSTYLE0
 11
0.7071067811865469
 21
0.7071067811865481
 31
0.0
 73
     1
 44
1.0
  0
ENDBLK
  5
B5
330
B3
100
AcDbEntity
  8
0
100
AcDbBlockEnd
  0
BLOCK
  5
BF
330
BE
100
AcDbEntity
  8
0
100
AcDbBlockBegin
  2
*D7
 70
     1
 10
0.0
 20
0.0
 30
0.0
  3
*D7
  1

  0
SOLID
  5
C1
330
BE
100
AcDbEntity
  8
0
  6
Continuous
 62
     7
370
     0
100
AcDbTrace
 10
106.3531620046
 20
69.0786337575
 30
0.0
 11
103.6642764317
 21
67.0959178484
 31
0.0
 12
104.3845788124
 22
66.3793841922
 32
0.0
 13
104.3845788124
 23
66.3793841922
 33
0.0
  0
LINE
  5
C2
330
BE
100
AcDbEntity
  8
0
  6
Continuous
 62
     7
370
     0
100
AcDbLine
 10
106.3531620046
 20
69.0786337575
 30
0.0
 11
75.6146835275
 21
38.178481287
 31
0.0
  0
LINE
  5
C3
330
BE
100
AcDbEntity
  8
0
  6
Continuous
 62
     7
370
     0
100
AcDbLine
 10
106.3531620046
 20
69.0786337575
 30
0.0
 11
173.3518798533
 21
136.4297421866
 31
0.0
  0
MTEXT
  5
C4
330
BE
100
AcDbEntity
  8
0
  6
Continuous
 62
     7
370
     0
100
AcDbMText
 10
72.4171417436
 20
41.3592930774
 30
-25.4
 40
3.5
 41
0.0
 71
     1
 72
     1
  1
%%c
  7
SLDTEXTSTYLE0
 11
0.705249661565275
 21
0.7089590360959264
 31
0.0
 73
     1
 44
1.0
  0
MTEXT
  5
C5
330
BE
100
AcDbEntity
  8
0
  6
Continuous
 62
     7
370
     0
100
AcDbMText
 10
76.1018483495
 20
45.1392002019
 30
-25.4
 40
3.5
 41
0.0
 71
     1
 72
     1
  1
95
  7
SLDTEXTSTYLE0
 11
0.705249661565275
 21
0.7089590360959264
 31
0.0
 73
     1
 44
1.0
  0
ENDBLK
  5
C0
330
BE
100
AcDbEntity
  8
0
100
AcDbBlockEnd
  0
BLOCK
  5
C7
330
C6
100
AcDbEntity
  8
0
100
AcDbBlockBegin
  2
SW_CENTERMARKSYMBOL_0
 70
     0
 10
0.0
 20
0.0
 30
0.0
  3
SW_CENTERMARKSYMBOL_0
  1

  0
ARC
  5
C9
330
C6
100
AcDbEntity
  8
0
  6
Continuous
 62
     0
370
     0
100
AcDbCircle
 10
-41.1362066798
 20
23.75
 30
0.0
 40
47.50000000000016
100
AcDbArc
 50
330.0
 51
333.0155673428
  0
ARC
  5
CA
330
C6
100
AcDbEntity
  8
0
  6
Continuous
 62
     0
370
     0
100
AcDbCircle
 10
-41.1362066798
 20
23.75
 30
0.0
 40
47.50000000000016
100
AcDbArc
 50
326.9844326572
 51
330.0
  0
ARC
  5
CB
330
C6
100
AcDbEntity
  8
0
  6
Continuous
 62
     0
370
     0
100
AcDbCircle
 10
-41.1362066798
 20
23.75
 30
0.0
 40
47.50000000000016
100
AcDbArc
 50
270.0
 51
273.0155673428
  0
ARC
  5
CC
330
C6
100
AcDbEntity
  8
0
  6
Continuous
 62
     0
370
     0
100
AcDbCircle
 10
-41.1362066798
 20
23.75
 30
0.0
 40
47.50000000000016
100
AcDbArc
 50
266.9844326572
 51
270.0
  0
ARC
  5
CD
330
C6
100
AcDbEntity
  8
0
  6
Continuous
 62
     0
370
     0
100
AcDbCircle
 10
-41.1362066798
 20
23.75
 30
0.0
 40
47.50000000000017
100
AcDbArc
 50
30.0
 51
33.0155673428
  0
ARC
  5
CE
330
C6
100
AcDbEntity
  8
0
  6
Continuous
 62
     0
370
     0
100
AcDbCircle
 10
-41.1362066798
 20
23.75
 30
0.0
 40
47.50000000000016
100
AcDbArc
 50
26.9844326572
 51
30.0
  0
ARC
  5
CF
330
C6
100
AcDbEntity
  8
0
  6
Continuous
 62
     0
370
     0
100
AcDbCircle
 10
-41.1362066798
 20
23.75
 30
0.0
 40
47.50000000000016
100
AcDbArc
 50
90.0
 51
93.0155673428
  0
ARC
  5
D0
330
C6
100
AcDbEntity
  8
0
  6
Continuous
 62
     0
370
     0
100
AcDbCircle
 10
-41.1362066798
 20
23.75
 30
0.0
 40
47.50000000000016
100
AcDbArc
 50
86.9844326572
 51
90.0
  0
ARC
  5
D1
330
C6
100
AcDbEntity
  8
0
  6
Continuous
 62
     0
370
     0
100
AcDbCircle
 10
-41.1362066798
 20
23.75
 30
0.0
 40
47.50000000000016
100
AcDbArc
 50
150.0
 51
153.0155673428
  0
ARC
  5
D2
330
C6
100
AcDbEntity
  8
0
  6
Continuous
 62
     0
370
     0
100
AcDbCircle
 10
-41.1362066798
 20
23.75
 30
0.0
 40
47.50000000000018
100
AcDbArc
 50
146.9844326572
 51
150.0
  0
ARC
  5
D3
330
C6
100
AcDbEntity
  8
0
  6
Continuous
 62
     0
370
     0
100
AcDbCircle
 10
-41.1362066798
 20
23.75
 30
0.0
 40
47.50000000000017
100
AcDbArc
 50
210.0
 51
213.0155673428
  0
ARC
  5
D4
330
C6
100
AcDbEntity
  8
0
  6
Continuous
 62
     0
370
     0
100
AcDbCircle
 10
-41.1362066798
 20
23.75
 30
0.0
 40
47.50000000000017
100
AcDbArc
 50
206.9844326572
 51
210.0
  0
ARC
  5
D5
330
C6
100
AcDbEntity
  8
0
  6
CENTERX2
 62
     0
370
     0
100
AcDbCircle
 10
-41.1362066798
 20
23.75
 30
0.0
 40
47.50000000000016
100
AcDbArc
 50
96.0311346856
 51
143.9688653144
  0
ARC
  5
D6
330
C6
100
AcDbEntity
  8
0
  6
CENTERX2
 62
     0
370
     0
100
AcDbCircle
 10
-41.1362066798
 20
23.75
 30
0.0
 40
47.50000000000017
100
AcDbArc
 50
156.0311346856
 51
203.9688653144
  0
ARC
  5
D7
330
C6
100
AcDbEntity
  8
0
  6
CENTERX2
 62
     0
370
     0
100
AcDbCircle
 10
-41.1362066798
 20
23.75
 30
0.0
 40
47.50000000000016
100
AcDbArc
 50
276.0311346856
 51
323.9688653144
  0
ARC
  5
D8
330
C6
100
AcDbEntity
  8
0
  6
CENTERX2
 62
     0
370
     0
100
AcDbCircle
 10
-41.1362066798
 20
23.75
 30
0.0
 40
47.50000000000018
100
AcDbArc
 50
336.0311346856
 51
23.9688653144
  0
ARC
  5
D9
330
C6
100
AcDbEntity
  8
0
  6
CENTERX2
 62
     0
370
     0
100
AcDbCircle
 10
-41.1362066798
 20
23.75
 30
0.0
 40
47.50000000000016
100
AcDbArc
 50
36.0311346856
 51
83.9688653144
  0
ARC
  5
DA
330
C6
100
AcDbEntity
  8
0
  6
CENTERX2
 62
     0
370
     0
100
AcDbCircle
 10
-41.1362066798
 20
23.75
 30
0.0
 40
47.50000000000017
100
AcDbArc
 50
216.0311346856
 51
263.9688653144
  0
LINE
  5
DB
330
C6
100
AcDbEntity
  8
0
  6
Continuous
 62
     0
370
     0
100
AcDbLine
 10
0.0
 20
0.0
 30
0.0
 11
2.1650635095
 21
-1.25
 31
0.0
  0
LINE
  5
DC
330
C6
100
AcDbEntity
  8
0
  6
Continuous
 62
     0
370
     0
100
AcDbLine
 10
0.0
 20
0.0
 30
0.0
 11
-2.1650635095
 21
1.25
 31
0.0
  0
LINE
  5
DD
330
C6
100
AcDbEntity
  8
0
  6
Continuous
 62
     0
370
     0
100
AcDbLine
 10
4.3301270189
 20
-2.5
 30
0.0
 11
5.0229473419
 21
-2.9
 31
0.0
  0
LINE
  5
DE
330
C6
100
AcDbEntity
  8
0
  6
Continuous
 62
     0
370
     0
100
AcDbLine
 10
-4.3301270189
 20
2.5
 30
0.0
 11
-5.0229473419
 21
2.9
 31
0.0
  0
LINE
  5
DF
330
C6
100
AcDbEntity
  8
0
  6
Continuous
 62
     0
370
     0
100
AcDbLine
 10
-41.1362066798
 20
23.75
 30
0.0
 11
-41.1362066798
 21
26.25
 31
0.0
  0
LINE
  5
E0
330
C6
100
AcDbEntity
  8
0
  6
Continuous
 62
     0
370
     0
100
AcDbLine
 10
-41.1362066798
 20
23.75
 30
0.0
 11
-43.6362066798
 21
23.75
 31
0.0
  0
LINE
  5
E1
330
C6
100
AcDbEntity
  8
0
  6
Continuous
 62
     0
370
     0
100
AcDbLine
 10
-41.1362066798
 20
23.75
 30
0.0
 11
-41.1362066798
 21
21.25
 31
0.0
  0
LINE
  5
E2
330
C6
100
AcDbEntity
  8
0
  6
Continuous
 62
     0
370
     0
100
AcDbLine
 10
-41.1362066798
 20
23.75
 30
0.0
 11
-38.6362066798
 21
23.75
 31
0.0
  0
LINE
  5
E3
330
C6
100
AcDbEntity
  8
0
  6
Continuous
 62
     0
370
     0
100
AcDbLine
 10
-41.1362066798
 20
28.75
 30
0.0
 11
-41.1362066798
 21
71.25
 31
0.0
  0
LINE
  5
E4
330
C6
100
AcDbEntity
  8
0
  6
Continuous
 62
     0
370
     0
100
AcDbLine
 10
-46.1362066798
 20
23.75
 30
0.0
 11
-88.6362066798
 21
23.75
 31
0.0
  0
LINE
  5
E5
330
C6
100
AcDbEntity
  8
0
  6
Continuous
 62
     0
370
     0
100
AcDbLine
 10
-41.1362066798
 20
18.75
 30
0.0
 11
-41.1362066798
 21
-23.75
 31
0.0
  0
LINE
  5
E6
330
C6
100
AcDbEntity
  8
0
  6
Continuous
 62
     0
370
     0
100
AcDbLine
 10
-36.1362066798
 20
23.75
 30
0.0
 11
6.3637933202
 21
23.75
 31
0.0
  0
LINE
  5
E7
330
C6
100
AcDbEntity
  8
0
  6
Continuous
 62
     0
370
     0
100
AcDbLine
 10
-41.1362066798
 20
-23.75
 30
0.0
 11
-41.1362066798
 21
-26.25
 31
0.0
  0
LINE
  5
E8
330
C6
100
AcDbEntity
  8
0
  6
Continuous
 62
     0
370
     0
100
AcDbLine
 10
-41.1362066798
 20
-23.75
 30
0.0
 11
-41.1362066798
 21
-21.25
 31
0.0
  0
LINE
  5
E9
330
C6
100
AcDbEntity
  8
0
  6
Continuous
 62
     0
370
     0
100
AcDbLine
 10
-41.1362066798
 20
-28.75
 30
0.0
 11
-41.1362066798
 21
-29.55
 31
0.0
  0
LINE
  5
EA
330
C6
100
AcDbEntity
  8
0
  6
Continuous
 62
     0
370
     0
100
AcDbLine
 10
-41.1362066798
 20
-18.75
 30
0.0
 11
-41.1362066798
 21
-17.95
 31
0.0
  0
LINE
  5
EB
330
C6
100
AcDbEntity
  8
0
  6
Continuous
 62
     0
370
     0
100
AcDbLine
 10
0.0
 20
47.5
 30
0.0
 11
2.1650635095
 21
48.75
 31
0.0
  0
LINE
  5
EC
330
C6
100
AcDbEntity
  8
0
  6
Continuous
 62
     0
370
     0
100
AcDbLine
 10
0.0
 20
47.5
 30
0.0
 11
-2.1650635095
 21
46.25
 31
0.0
  0
LINE
  5
ED
330
C6
100
AcDbEntity
  8
0
  6
Continuous
 62
     0
370
     0
100
AcDbLine
 10
4.3301270189
 20
50.0
 30
0.0
 11
5.0229473419
 21
50.4
 31
0.0
  0
LINE
  5
EE
330
C6
100
AcDbEntity
  8
0
  6
Continuous
 62
     0
370
     0
100
AcDbLine
 10
-4.3301270189
 20
45.0
 30
0.0
 11
-5.0229473419
 21
44.6
 31
0.0
  0
LINE
  5
EF
330
C6
100
AcDbEntity
  8
0
  6
Continuous
 62
     0
370
     0
100
AcDbLine
 10
-41.1362066798
 20
71.25
 30
0.0
 11
-41.1362066798
 21
73.75
 31
0.0
  0
LINE
  5
F0
330
C6
100
AcDbEntity
  8
0
  6
Continuous
 62
     0
370
     0
100
AcDbLine
 10
-41.1362066798
 20
71.25
 30
0.0
 11
-41.1362066798
 21
68.75
 31
0.0
  0
LINE
  5
F1
330
C6
100
AcDbEntity
  8
0
  6
Continuous
 62
     0
370
     0
100
AcDbLine
 10
-41.1362066798
 20
76.25
 30
0.0
 11
-41.1362066798
 21
77.05
 31
0.0
  0
LINE
  5
F2
330
C6
100
AcDbEntity
  8
0
  6
Continuous
 62
     0
370
     0
100
AcDbLine
 10
-41.1362066798
 20
66.25
 30
0.0
 11
-41.1362066798
 21
65.45
 31
0.0
  0
LINE
  5
F3
330
C6
100
AcDbEntity
  8
0
  6
Continuous
 62
     0
370
     0
100
AcDbLine
 10
-82.2724133595
 20
47.5
 30
0.0
 11
-84.437476869
 21
48.75
 31
0.0
  0
LINE
  5
F4
330
C6
100
AcDbEntity
  8
0
  6
Continuous
 62
     0
370
     0
100
AcDbLine
 10
-82.2724133595
 20
47.5
 30
0.0
 11
-80.1073498501
 21
46.25
 31
0.0
  0
LINE
  5
F5
330
C6
100
AcDbEntity
  8
0
  6
Continuous
 62
     0
370
     0
100
AcDbLine
 10
-86.6025403784
 20
50.0
 30
0.0
 11
-87.2953607015
 21
50.4
 31
0.0
  0
LINE
  5
F6
330
C6
100
AcDbEntity
  8
0
  6
Continuous
 62
     0
370
     0
100
AcDbLine
 10
-77.9422863406
 20
45.0
 30
0.0
 11
-77.2494660176
 21
44.6
 31
0.0
  0
LINE
  5
F7
330
C6
100
AcDbEntity
  8
0
  6
Continuous
 62
     0
370
     0
100
AcDbLine
 10
-82.2724133595
 20
0.0
 30
0.0
 11
-84.437476869
 21
-1.25
 31
0.0
  0
LINE
  5
F8
330
C6
100
AcDbEntity
  8
0
  6
Continuous
 62
     0
370
     0
100
AcDbLine
 10
-82.2724133595
 20
0.0
 30
0.0
 11
-80.1073498501
 21
1.25
 31
0.0
  0
LINE
  5
F9
330
C6
100
AcDbEntity
  8
0
  6
Continuous
 62
     0
370
     0
100
AcDbLine
 10
-86.6025403784
 20
-2.5
 30
0.0
 11
-87.2953607015
 21
-2.9
 31
0.0
  0
LINE
  5
FA
330
C6
100
AcDbEntity
  8
0
  6
Continuous
 62
     0
370
     0
100
AcDbLine
 10
-77.9422863406
 20
2.5
 30
0.0
 11
-77.2494660176
 21
2.9
 31
0.0
  0
ENDBLK
  5
C8
330
C6
100
AcDbEntity
  8
0
100
AcDbBlockEnd
  0
BLOCK
  5
104
330
103
100
AcDbEntity
  8
0
100
AcDbBlockBegin
  2
SW_DATUMTAG_0
 70
     0
 10
0.0
 20
0.0
 30
0.0
  3
SW_DATUMTAG_0
  1

  0
LINE
  5
106
330
103
100
AcDbEntity
  8
0
  6
Continuous
 62
     0
370
     0
100
AcDbLine
 10
1.7256945139
 20
-43.1134497496
 30
0.0
 11
1.7256945139
 21
-0.7218748298
 31
0.0
  0
LINE
  5
107
330
103
100
AcDbEntity
  8
0
  6
Continuous
 62
     0
370
     0
100
AcDbLine
 10
47.3867456063
 20
-43.1134497496
 30
0.0
 11
-0.6743054861
 21
-43.1134497496
 31
0.0
  0
LINE
  5
108
330
103
100
AcDbEntity
  8
0
  6
Continuous
 62
     0
370
     0
100
AcDbLine
 10
5.2256945139
 20
-0.7218748298
 30
0.0
 11
-1.7743054861
 21
-0.7218748298
 31
0.0
  0
LINE
  5
109
330
103
100
AcDbEntity
  8
0
  6
Continuous
 62
     0
370
     0
100
AcDbLine
 10
-1.7743054861
 20
-0.7218748298
 30
0.0
 11
-1.7743054861
 21
6.2781251702
 31
0.0
  0
LINE
  5
10A
330
103
100
AcDbEntity
  8
0
  6
Continuous
 62
     0
370
     0
100
AcDbLine
 10
-1.7743054861
 20
6.2781251702
 30
0.0
 11
5.2256945139
 21
6.2781251702
 31
0.0
  0
LINE
  5
10B
330
103
100
AcDbEntity
  8
0
  6
Continuous
 62
     0
370
     0
100
AcDbLine
 10
5.2256945139
 20
6.2781251702
 30
0.0
 11
5.2256945139
 21
-0.7218748298
 31
0.0
  0
MTEXT
  5
10C
330
103
100
AcDbEntity
  8
0
  6
Continuous
 62
     0
370
     0
100
AcDbMText
 10
0.0
 20
4.5117370892
 30
-25.5
 40
3.5
 41
0.0
 71
     1
 72
     1
  1
A
  7
SLDTEXTSTYLE0
 73
     1
 44
1.0
  0
SOLID
  5
10D
330
103
100
AcDbEntity
  8
0
  6
Continuous
 62
     0
370
     0
100
AcDbTrace
 10
3.1256945139
 20
-43.1134497496
 30
0.0
 11
0.3256945139
 21
-43.1134497496
 31
0.0
 12
1.7256945139
 22
-40.6634497496
 32
0.0
 13
1.7256945139
 23
-40.6634497496
 33
0.0
  0
ENDBLK
  5
105
330
103
100
AcDbEntity
  8
0
100
AcDbBlockEnd
  0
BLOCK
  5
110
330
10F
100
AcDbEntity
  8
0
100
AcDbBlockBegin
  2
SW_DATUMTAG_1
 70
     0
 10
0.0
 20
0.0
 30
0.0
  3
SW_DATUMTAG_1
  1

  0
LINE
  5
112
330
10F
100
AcDbEntity
  8
0
  6
Continuous
 62
     0
370
     0
100
AcDbLine
 10
94.6512072574
 20
2.7781251702
 30
0.0
 11
4.8392361579
 21
2.7781251702
 31
0.0
  0
LINE
  5
113
330
10F
100
AcDbEntity
  8
0
  6
Continuous
 62
     0
370
     0
100
AcDbLine
 10
94.6512072574
 20
-9.6514151394
 30
0.0
 11
94.6512072574
 21
5.1781251702
 31
0.0
  0
LINE
  5
114
330
10F
100
AcDbEntity
  8
0
  6
Continuous
 62
     0
370
     0
100
AcDbLine
 10
4.8392361579
 20
-0.7218748298
 30
0.0
 11
-2.1607638421
 21
-0.7218748298
 31
0.0
  0
LINE
  5
115
330
10F
100
AcDbEntity
  8
0
  6
Continuous
 62
     0
370
     0
100
AcDbLine
 10
-2.1607638421
 20
-0.7218748298
 30
0.0
 11
-2.1607638421
 21
6.2781251702
 31
0.0
  0
LINE
  5
116
330
10F
100
AcDbEntity
  8
0
  6
Continuous
 62
     0
370
     0
100
AcDbLine
 10
-2.1607638421
 20
6.2781251702
 30
0.0
 11
4.8392361579
 21
6.2781251702
 31
0.0
  0
LINE
  5
117
330
10F
100
AcDbEntity
  8
0
  6
Continuous
 62
     0
370
     0
100
AcDbLine
 10
4.8392361579
 20
6.2781251702
 30
0.0
 11
4.8392361579
 21
-0.7218748298
 31
0.0
  0
MTEXT
  5
118
330
10F
100
AcDbEntity
  8
0
  6
Continuous
 62
     0
370
     0
100
AcDbMText
 10
0.0
 20
4.5117370892
 30
-25.5
 40
3.5
 41
0.0
 71
     1
 72
     1
  1
B
  7
SLDTEXTSTYLE0
 73
     1
 44
1.0
  0
SOLID
  5
119
330
10F
100
AcDbEntity
  8
0
  6
Continuous
 62
     0
370
     0
100
AcDbTrace
 10
94.6512072574
 20
1.3781251702
 30
0.0
 11
94.6512072574
 21
4.1781251702
 31
0.0
 12
92.2012072574
 22
2.7781251702
 32
0.0
 13
92.2012072574
 23
2.7781251702
 33
0.0
  0
ENDBLK
  5
111
330
10F
100
AcDbEntity
  8
0
100
AcDbBlockEnd
  0
BLOCK
  5
14A
330
149
100
AcDbEntity
  8
0
100
AcDbBlockBegin
  2
*D11
 70
     1
 10
0.0
 20
0.0
 30
0.0
  3
*D11
  1

  0
SOLID
  5
14C
330
149
100
AcDbEntity
  8
0
  6
Continuous
 62
     7
370
     0
100
AcDbTrace
 10
104.8525209289
 20
194.4940711782
 30
0.0
 11
108.1545209289
 21
193.9860711782
 31
0.0
 12
108.1545209289
 22
195.0020711782
 32
0.0
 13
108.1545209289
 23
195.0020711782
 33
0.0
  0
SOLID
  5
14D
330
149
100
AcDbEntity
  8
0
  6
Continuous
 62
     7
370
     0
100
AcDbTrace
 10
174.8525209289
 20
194.4940711782
 30
0.0
 11
171.5505209289
 21
195.0020711782
 31
0.0
 12
171.5505209289
 22
193.9860711782
 32
0.0
 13
171.5505209289
 23
193.9860711782
 33
0.0
  0
LINE
  5
14E
330
149
100
AcDbEntity
  8
0
  6
Continuous
 62
     7
370
     0
100
AcDbLine
 10
104.8525209289
 20
203.4940711782
 30
0.0
 11
104.8525209289
 21
193.4940711782
 31
0.0
  0
LINE
  5
14F
330
149
100
AcDbEntity
  8
0
  6
Continuous
 62
     7
370
     0
100
AcDbLine
 10
174.8525209289
 20
203.4940711782
 30
0.0
 11
174.8525209289
 21
193.4940711782
 31
0.0
  0
LINE
  5
150
330
149
100
AcDbEntity
  8
0
  6
Continuous
 62
     7
370
     0
100
AcDbLine
 10
104.8525209289
 20
194.4940711782
 30
0.0
 11
174.8525209289
 21
194.4940711782
 31
0.0
  0
MTEXT
  5
151
330
149
100
AcDbEntity
  8
0
  6
Continuous
 62
     7
370
     0
100
AcDbMText
 10
127.3351685865
 20
199.0058082674
 30
26.35
 40
3.5
 41
0.0
 71
     1
 72
     1
  1
%%c
  7
SLDTEXTSTYLE0
 73
     1
 44
1.0
  0
MTEXT
  5
152
330
149
100
AcDbEntity
  8
0
  6
Continuous
 62
     7
370
     0
100
AcDbMText
 10
132.6136059849
 20
199.059280444
 30
26.35
 40
3.5
 41
0.0
 71
     1
 72
     1
  1
70
  7
SLDTEXTSTYLE0
 73
     1
 44
1.0
  0
MTEXT
  5
153
330
149
100
AcDbEntity
  8
0
  6
Continuous
 62
     7
370
     0
100
AcDbMText
 10
141.942078547
 20
199.059280444
 30
26.35
 40
3.5
 41
0.0
 71
     1
 72
     1
  1

  7
SLDTEXTSTYLE0
 73
     1
 44
1.0
  0
MTEXT
  5
154
330
149
100
AcDbEntity
  8
0
  6
Continuous
 62
     7
370
     0
100
AcDbMText
 10
141.9226342602
 20
203.5315027978
 30
26.35
 40
3.5
 41
0.0
 71
     1
 72
     1
  1
+
  7
SLDTEXTSTYLE0
 73
     1
 44
1.0
  0
MTEXT
  5
155
330
149
100
AcDbEntity
  8
0
  6
Continuous
 62
     7
370
     0
100
AcDbMText
 10
141.9226342602
 20
199.0058082674
 30
26.35
 40
3.5
 41
0.0
 71
     1
 72
     1
  1
+
  7
SLDTEXTSTYLE0
 73
     1
 44
1.0
  0
MTEXT
  5
156
330
149
100
AcDbEntity
  8
0
  6
Continuous
 62
     7
370
     0
100
AcDbMText
 10
144.7518003894
 20
203.5315027978
 30
26.35
 40
3.5
 41
0.0
 71
     1
 72
     1
  1
0,5
  7
SLDTEXTSTYLE0
 73
     1
 44
1.0
  0
MTEXT
  5
157
330
149
100
AcDbEntity
  8
0
  6
Continuous
 62
     7
370
     0
100
AcDbMText
 10
144.7518003894
 20
199.0058082674
 30
26.35
 40
3.5
 41
0.0
 71
     1
 72
     1
  1
0,2
  7
SLDTEXTSTYLE0
 73
     1
 44
1.0
  0
ENDBLK
  5
14B
330
149
100
AcDbEntity
  8
0
100
AcDbBlockEnd
  0
BLOCK
  5
15B
330
15A
100
AcDbEntity
  8
0
100
AcDbBlockBegin
  2
*D12
 70
     1
 10
0.0
 20
0.0
 30
0.0
  3
*D12
  1

  0
SOLID
  5
15D
330
15A
100
AcDbEntity
  8
0
  6
Continuous
 62
     7
370
     0
100
AcDbTrace
 10
222.4275209289
 20
229.4940711782
 30
0.0
 11
221.9195209289
 21
226.1920711782
 31
0.0
 12
222.9355209289
 22
226.1920711782
 32
0.0
 13
222.9355209289
 23
226.1920711782
 33
0.0
  0
SOLID
  5
15E
330
15A
100
AcDbEntity
  8
0
  6
Continuous
 62
     7
370
     0
100
AcDbTrace
 10
222.4275209289
 20
204.4940711782
 30
0.0
 11
222.9355209289
 21
207.7960711782
 31
0.0
 12
221.9195209289
 22
207.7960711782
 32
0.0
 13
221.9195209289
 23
207.7960711782
 33
0.0
  0
LINE
  5
15F
330
15A
100
AcDbEntity
  8
0
  6
Continuous
 62
     7
370
     0
100
AcDbLine
 10
175.8525209289
 20
229.4940711782
 30
0.0
 11
223.4275209289
 21
229.4940711782
 31
0.0
  0
LINE
  5
160
330
15A
100
AcDbEntity
  8
0
  6
Continuous
 62
     7
370
     0
100
AcDbLine
 10
178.8525209289
 20
204.4940711782
 30
0.0
 11
223.4275209289
 21
204.4940711782
 31
0.0
  0
LINE
  5
161
330
15A
100
AcDbEntity
  8
0
  6
Continuous
 62
     7
370
     0
100
AcDbLine
 10
222.4275209289
 20
229.4940711782
 30
0.0
 11
222.4275209289
 21
204.4940711782
 31
0.0
  0
MTEXT
  5
162
330
15A
100
AcDbEntity
  8
0
  6
Continuous
 62
     7
370
     0
100
AcDbMText
 10
217.9157840143
 20
215.2000283401
 30
26.35
 40
3.5
 41
0.0
 71
     1
 72
     1
  1
25
  7
SLDTEXTSTYLE0
 11
-7.044195017643634E-15
 21
1.0
 31
0.0
 73
     1
 44
1.0
  0
ENDBLK
  5
15C
330
15A
100
AcDbEntity
  8
0
100
AcDbBlockEnd
  0
BLOCK
  5
166
330
165
100
AcDbEntity
  8
0
100
AcDbBlockBegin
  2
*D13
 70
     1
 10
0.0
 20
0.0
 30
0.0
  3
*D13
  1

  0
SOLID
  5
168
330
165
100
AcDbEntity
  8
0
  6
Continuous
 62
     7
370
     0
100
AcDbTrace
 10
75.2775209289
 20
229.4940711782
 30
0.0
 11
74.7695209289
 21
226.1920711782
 31
0.0
 12
75.7855209289
 22
226.1920711782
 32
0.0
 13
75.7855209289
 23
226.1920711782
 33
0.0
  0
SOLID
  5
169
330
165
100
AcDbEntity
  8
0
  6
Continuous
 62
     7
370
     0
100
AcDbTrace
 10
75.2775209289
 20
233.4940711782
 30
0.0
 11
75.7855209289
 21
236.7960711782
 31
0.0
 12
74.7695209289
 22
236.7960711782
 32
0.0
 13
74.7695209289
 23
236.7960711782
 33
0.0
  0
LINE
  5
16A
330
165
100
AcDbEntity
  8
0
  6
Continuous
 62
     7
370
     0
100
AcDbLine
 10
103.8525209289
 20
229.4940711782
 30
0.0
 11
74.2775209289
 21
229.4940711782
 31
0.0
  0
LINE
  5
16B
330
165
100
AcDbEntity
  8
0
  6
Continuous
 62
     7
370
     0
100
AcDbLine
 10
98.8525209289
 20
233.4940711782
 30
0.0
 11
74.2775209289
 21
233.4940711782
 31
0.0
  0
LINE
  5
16C
330
165
100
AcDbEntity
  8
0
  6
Continuous
 62
     7
370
     0
100
AcDbLine
 10
75.2775209289
 20
229.4940711782
 30
0.0
 11
75.2775209289
 21
223.1440711782
 31
0.0
  0
LINE
  5
16D
330
165
100
AcDbEntity
  8
0
  6
Continuous
 62
     7
370
     0
100
AcDbLine
 10
75.2775209289
 20
229.4940711782
 30
0.0
 11
75.2775209289
 21
233.4940711782
 31
0.0
  0
LINE
  5
16E
330
165
100
AcDbEntity
  8
0
  6
Continuous
 62
     7
370
     0
100
AcDbLine
 10
75.2775209289
 20
233.4940711782
 30
0.0
 11
75.2775209289
 21
271.9534465202
 31
0.0
  0
MTEXT
  5
16F
330
165
100
AcDbEntity
  8
0
  6
Continuous
 62
     7
370
     0
100
AcDbMText
 10
70.7657840143
 20
266.5235853844
 30
26.35
 40
3.5
 41
0.0
 71
     1
 72
     1
  1
4
  7
SLDTEXTSTYLE0
 11
6.123233995736766E-17
 21
1.0
 31
0.0
 73
     1
 44
1.0
  0
ENDBLK
  5
167
330
165
100
AcDbEntity
  8
0
100
AcDbBlockEnd
  0
BLOCK
  5
172
330
171
100
AcDbEntity
  8
0
100
AcDbBlockBegin
  2
*D14
 70
     1
 10
0.0
 20
0.0
 30
0.0
  3
*D14
  1

  0
SOLID
  5
174
330
171
100
AcDbEntity
  8
0
  6
Continuous
 62
     7
370
     0
100
AcDbTrace
 10
215.2758437996
 20
229.4940711782
 30
0.0
 11
214.7678437996
 21
226.1920711782
 31
0.0
 12
215.7838437996
 22
226.1920711782
 32
0.0
 13
215.7838437996
 23
226.1920711782
 33
0.0
  0
SOLID
  5
175
330
171
100
AcDbEntity
  8
0
  6
Continuous
 62
     7
370
     0
100
AcDbTrace
 10
215.2758437996
 20
249.4940711782
 30
0.0
 11
215.7838437996
 21
252.7960711782
 31
0.0
 12
214.7678437996
 22
252.7960711782
 32
0.0
 13
214.7678437996
 23
252.7960711782
 33
0.0
  0
LINE
  5
176
330
171
100
AcDbEntity
  8
0
  6
Continuous
 62
     7
370
     0
100
AcDbLine
 10
175.8525209289
 20
229.4940711782
 30
0.0
 11
216.2758437996
 21
229.4940711782
 31
0.0
  0
LINE
  5
177
330
171
100
AcDbEntity
  8
0
  6
Continuous
 62
     7
370
     0
100
AcDbLine
 10
195.8525209289
 20
249.4940711782
 30
0.0
 11
216.2758437996
 21
249.4940711782
 31
0.0
  0
LINE
  5
178
330
171
100
AcDbEntity
  8
0
  6
Continuous
 62
     7
370
     0
100
AcDbLine
 10
215.2758437996
 20
229.4940711782
 30
0.0
 11
215.2758437996
 21
223.1440711782
 31
0.0
  0
LINE
  5
179
330
171
100
AcDbEntity
  8
0
  6
Continuous
 62
     7
370
     0
100
AcDbLine
 10
215.2758437996
 20
229.4940711782
 30
0.0
 11
215.2758437996
 21
249.4940711782
 31
0.0
  0
LINE
  5
17A
330
171
100
AcDbEntity
  8
0
  6
Continuous
 62
     7
370
     0
100
AcDbLine
 10
215.2758437996
 20
249.4940711782
 30
0.0
 11
215.2758437996
 21
255.8440711782
 31
0.0
  0
MTEXT
  5
17B
330
171
100
AcDbEntity
  8
0
  6
Continuous
 62
     7
370
     0
100
AcDbMText
 10
210.764106885
 20
235.243934833
 30
26.35
 40
3.5
 41
0.0
 71
     1
 72
     1
  1
20
  7
SLDTEXTSTYLE0
 11
6.123233995736766E-17
 21
1.0
 31
0.0
 73
     1
 44
1.0
  0
ENDBLK
  5
173
330
171
100
AcDbEntity
  8
0
100
AcDbBlockEnd
  0
BLOCK
  5
17F
330
17E
100
AcDbEntity
  8
0
100
AcDbBlockBegin
  2
*D15
 70
     1
 10
0.0
 20
0.0
 30
0.0
  3
*D15
  1

  0
SOLID
  5
181
330
17E
100
AcDbEntity
  8
0
  6
Continuous
 62
     7
370
     0
100
AcDbTrace
 10
99.8525209289
 20
265.4940711782
 30
0.0
 11
103.1545209289
 21
264.9860711782
 31
0.0
 12
103.1545209289
 22
266.0020711782
 32
0.0
 13
103.1545209289
 23
266.0020711782
 33
0.0
  0
SOLID
  5
182
330
17E
100
AcDbEntity
  8
0
  6
Continuous
 62
     7
370
     0
100
AcDbTrace
 10
179.8525209289
 20
265.4940711782
 30
0.0
 11
176.5505209289
 21
266.0020711782
 31
0.0
 12
176.5505209289
 22
264.9860711782
 32
0.0
 13
176.5505209289
 23
264.9860711782
 33
0.0
  0
LINE
  5
183
330
17E
100
AcDbEntity
  8
0
  6
Continuous
 62
     7
370
     0
100
AcDbLine
 10
99.8525209289
 20
250.4940711782
 30
0.0
 11
99.8525209289
 21
266.4940711782
 31
0.0
  0
LINE
  5
184
330
17E
100
AcDbEntity
  8
0
  6
Continuous
 62
     7
370
     0
100
AcDbLine
 10
179.8525209289
 20
250.4940711782
 30
0.0
 11
179.8525209289
 21
266.4940711782
 31
0.0
  0
LINE
  5
185
330
17E
100
AcDbEntity
  8
0
  6
Continuous
 62
     7
370
     0
100
AcDbLine
 10
99.8525209289
 20
265.4940711782
 30
0.0
 11
179.8525209289
 21
265.4940711782
 31
0.0
  0
MTEXT
  5
186
330
17E
100
AcDbEntity
  8
0
  6
Continuous
 62
     7
370
     0
100
AcDbMText
 10
129.5400382143
 20
270.0058082674
 30
26.35
 40
3.5
 41
0.0
 71
     1
 72
     1
  1
%%c
  7
SLDTEXTSTYLE0
 73
     1
 44
1.0
  0
MTEXT
  5
187
330
17E
100
AcDbEntity
  8
0
  6
Continuous
 62
     7
370
     0
100
AcDbMText
 10
134.8184756126
 20
270.059280444
 30
26.35
 40
3.5
 41
0.0
 71
     1
 72
     1
  1
80
  7
SLDTEXTSTYLE0
 73
     1
 44
1.0
  0
MTEXT
  5
188
330
17E
100
AcDbEntity
  8
0
  6
Continuous
 62
     7
370
     0
100
AcDbMText
 10
144.1469481748
 20
270.059280444
 30
26.35
 40
3.5
 41
0.0
 71
     1
 72
     1
  1
N7
  7
SLDTEXTSTYLE0
 73
     1
 44
1.0
  0
ENDBLK
  5
180
330
17E
100
AcDbEntity
  8
0
100
AcDbBlockEnd
  0
BLOCK
  5
18B
330
18A
100
AcDbEntity
  8
0
100
AcDbBlockBegin
  2
*D16
 70
     1
 10
0.0
 20
0.0
 30
0.0
  3
*D16
  1

  0
SOLID
  5
18D
330
18A
100
AcDbEntity
  8
0
  6
Continuous
 62
     7
370
     0
100
AcDbTrace
 10
107.8525209289
 20
258.4940711782
 30
0.0
 11
111.1545209289
 21
257.9860711782
 31
0.0
 12
111.1545209289
 22
259.0020711782
 32
0.0
 13
111.1545209289
 23
259.0020711782
 33
0.0
  0
SOLID
  5
18E
330
18A
100
AcDbEntity
  8
0
  6
Continuous
 62
     7
370
     0
100
AcDbTrace
 10
171.8525209289
 20
258.4940711782
 30
0.0
 11
168.5505209289
 21
259.0020711782
 31
0.0
 12
168.5505209289
 22
257.9860711782
 32
0.0
 13
168.5505209289
 23
257.9860711782
 33
0.0
  0
LINE
  5
18F
330
18A
100
AcDbEntity
  8
0
  6
Continuous
 62
     7
370
     0
100
AcDbLine
 10
107.8525209289
 20
234.4940711782
 30
0.0
 11
107.8525209289
 21
259.4940711782
 31
0.0
  0
LINE
  5
190
330
18A
100
AcDbEntity
  8
0
  6
Continuous
 62
     7
370
     0
100
AcDbLine
 10
171.8525209289
 20
234.4940711782
 30
0.0
 11
171.8525209289
 21
259.4940711782
 31
0.0
  0
LINE
  5
191
330
18A
100
AcDbEntity
  8
0
  6
Continuous
 62
     7
370
     0
100
AcDbLine
 10
107.8525209289
 20
258.4940711782
 30
0.0
 11
171.8525209289
 21
258.4940711782
 31
0.0
  0
MTEXT
  5
192
330
18A
100
AcDbEntity
  8
0
  6
Continuous
 62
     7
370
     0
100
AcDbMText
 10
133.2053159487
 20
263.0058082674
 30
26.35
 40
3.5
 41
0.0
 71
     1
 72
     1
  1
%%c
  7
SLDTEXTSTYLE0
 73
     1
 44
1.0
  0
MTEXT
  5
193
330
18A
100
AcDbEntity
  8
0
  6
Continuous
 62
     7
370
     0
100
AcDbMText
 10
138.483753347
 20
263.059280444
 30
26.35
 40
3.5
 41
0.0
 71
     1
 72
     1
  1
64
  7
SLDTEXTSTYLE0
 73
     1
 44
1.0
  0
ENDBLK
  5
18C
330
18A
100
AcDbEntity
  8
0
100
AcDbBlockEnd
  0
BLOCK
  5
195
330
194
100
AcDbEntity
  8
0
100
AcDbBlockBegin
  2
SW_NOTE_3
 70
     0
 10
0.0
 20
0.0
 30
0.0
  3
SW_NOTE_3
  1

  0
MTEXT
  5
197
330
194
100
AcDbEntity
  8
0
  6
Continuous
 62
     0
370
     0
100
AcDbMText
 10
12.6328125
 20
4.5117370892
 30
0.0
 40
3.5
 41
0.0
 71
     2
 72
     1
  1
COUPE A-A
  7
SLDTEXTSTYLE0
 73
     1
 44
1.0
  0
MTEXT
  5
199
330
194
100
AcDbEntity
  8
0
  6
Continuous
 62
     0
370
     0
100
AcDbMText
 10
13.4154505357
 20
-0.0139574413
 30
0.0
 40
3.5
 41
0.0
 71
     2
 72
     1
  1
ECHELLE 1 : 1
  7
SLDTEXTSTYLE3
 73
     1
 44
1.0
  0
ENDBLK
  5
196
330
194
100
AcDbEntity
  8
0
100
AcDbBlockEnd
  0
BLOCK
  5
19C
330
19B
100
AcDbEntity
  8
0
100
AcDbBlockBegin
  2
SW_DATUMTAG_2
 70
     0
 10
0.0
 20
0.0
 30
0.0
  3
SW_DATUMTAG_2
  1

  0
LINE
  5
19E
330
19B
100
AcDbEntity
  8
0
  6
Continuous
 62
     0
370
     0
100
AcDbLine
 10
1.8958334113
 20
54.9356242127
 30
0.0
 11
1.8958334113
 21
6.2781251702
 31
0.0
  0
LINE
  5
19F
330
19B
100
AcDbEntity
  8
0
  6
Continuous
 62
     0
370
     0
100
AcDbLine
 10
63.2606516215
 20
54.9356242127
 30
0.0
 11
-0.5041665887
 21
54.9356242127
 31
0.0
  0
LINE
  5
1A0
330
19B
100
AcDbEntity
  8
0
  6
Continuous
 62
     0
370
     0
100
AcDbLine
 10
5.3958334113
 20
-0.7218748298
 30
0.0
 11
-1.6041665887
 21
-0.7218748298
 31
0.0
  0
LINE
  5
1A1
330
19B
100
AcDbEntity
  8
0
  6
Continuous
 62
     0
370
     0
100
AcDbLine
 10
-1.6041665887
 20
-0.7218748298
 30
0.0
 11
-1.6041665887
 21
6.2781251702
 31
0.0
  0
LINE
  5
1A2
330
19B
100
AcDbEntity
  8
0
  6
Continuous
 62
     0
370
     0
100
AcDbLine
 10
-1.6041665887
 20
6.2781251702
 30
0.0
 11
5.3958334113
 21
6.2781251702
 31
0.0
  0
LINE
  5
1A3
330
19B
100
AcDbEntity
  8
0
  6
Continuous
 62
     0
370
     0
100
AcDbLine
 10
5.3958334113
 20
6.2781251702
 30
0.0
 11
5.3958334113
 21
-0.7218748298
 31
0.0
  0
MTEXT
  5
1A4
330
19B
100
AcDbEntity
  8
0
  6
Continuous
 62
     0
370
     0
100
AcDbMText
 10
0.0
 20
4.5117370892
 30
26.25
 40
3.5
 41
0.0
 71
     1
 72
     1
  1
C
  7
SLDTEXTSTYLE0
 73
     1
 44
1.0
  0
SOLID
  5
1A5
330
19B
100
AcDbEntity
  8
0
  6
Continuous
 62
     0
370
     0
100
AcDbTrace
 10
3.2958334113
 20
54.9356242127
 30
0.0
 11
0.4958334113
 21
54.9356242127
 31
0.0
 12
1.8958334113
 22
52.4856242127
 32
0.0
 13
1.8958334113
 23
52.4856242127
 33
0.0
  0
ENDBLK
  5
19D
330
19B
100
AcDbEntity
  8
0
100
AcDbBlockEnd
  0
ENDSEC
  0
SECTION
  2
ENTITIES
  0
IMAGE
  5
47
330
1F
100
AcDbEntity
  8
0
 92
      140
310
8C00000001000000840000000600000005000000661491E7A04F3740564F11E6C8C9684000000000000000005F1491E7A04F3740CD761FD62C426A400000000000000000A05E340EE6EB2540CC761FD62C426A400000000000000000AF5E340EE6EB2540554F11E6C8C968400000000000000000661491E7A04F3740564F11
310
E6C8C968400000000000000000
100
AcDbRasterImage
 90
        0
 10
23.3110489587
 20
198.3057737673
 30
0.0
 11
-6.349275564212381E-17
 21
0.02940549857054914
 31
0.0
 12
-0.02940549857054901
 22
-6.349275564212354E-17
 32
0.0
 13
400.0
 23
420.0
340
46
 70
     7
280
     0
281
    50
282
    50
283
     0
360
48
 71
     1
 91
        2
 14
-0.5
 24
-0.5
 14
399.5
 24
419.5
  0
LINE
  5
49
330
1F
100
AcDbEntity
  8
0
  6
Continuous
 62
     7
370
    40
100
AcDbLine
 10
25.0788435654
 20
10.2147801566
 30
0.0
 11
25.0788435654
 21
287.2147801566
 31
0.0
  0
LINE
  5
4A
330
1F
100
AcDbEntity
  8
0
  6
Continuous
 62
     7
370
    40
100
AcDbLine
 10
0.0788435654
 20
0.2147801566
 30
0.0
 11
420.0788435654
 21
0.2147801566
 31
0.0
  0
LINE
  5
4B
330
1F
100
AcDbEntity
  8
0
  6
Continuous
 62
     7
370
    40
100
AcDbLine
 10
0.0788435654
 20
0.2147801566
 30
0.0
 11
0.0788435654
 21
297.2147801566
 31
0.0
  0
LINE
  5
4C
330
1F
100
AcDbEntity
  8
0
  6
Continuous
 62
     7
370
    40
100
AcDbLine
 10
0.0788435654
 20
297.2147801566
 30
0.0
 11
420.0788435654
 21
297.2147801566
 31
0.0
  0
LINE
  5
4D
330
1F
100
AcDbEntity
  8
0
  6
Continuous
 62
     7
370
    40
100
AcDbLine
 10
420.0788435654
 20
0.2147801566
 30
0.0
 11
420.0788435654
 21
297.2147801566
 31
0.0
  0
LINE
  5
4E
330
1F
100
AcDbEntity
  8
0
  6
Continuous
 62
     7
370
    40
100
AcDbLine
 10
25.0788435654
 20
287.2147801566
 30
0.0
 11
410.0788435654
 21
287.2147801566
 31
0.0
  0
LINE
  5
4F
330
1F
100
AcDbEntity
  8
0
  6
Continuous
 62
     7
370
    40
100
AcDbLine
 10
25.0788435654
 20
10.2147801566
 30
0.0
 11
410.0788435654
 21
10.2147801566
 31
0.0
  0
LINE
  5
50
330
1F
100
AcDbEntity
  8
0
  6
Continuous
 62
     7
370
    40
100
AcDbLine
 10
410.0788435654
 20
287.2147801566
 30
0.0
 11
410.0788435654
 21
10.2147801566
 31
0.0
  0
LINE
  5
51
330
1F
100
AcDbEntity
  8
0
  6
Continuous
 62
     7
370
    40
100
AcDbLine
 10
222.8788435654
 20
14.4647801566
 30
0.0
 11
410.0788435654
 21
14.4647801566
 31
0.0
  0
LINE
  5
52
330
1F
100
AcDbEntity
  8
0
  6
Continuous
 62
     7
370
    40
100
AcDbLine
 10
410.0788435654
 20
48.4647801566
 30
0.0
 11
222.8788435654
 21
48.4647801566
 31
0.0
  0
LINE
  5
53
330
1F
100
AcDbEntity
  8
0
  6
Continuous
 62
     7
370
    40
100
AcDbLine
 10
222.8788435654
 20
65.4647801566
 30
0.0
 11
410.0788435654
 21
65.4647801566
 31
0.0
  0
LINE
  5
54
330
1F
100
AcDbEntity
  8
0
  6
Continuous
 62
     7
370
    40
100
AcDbLine
 10
249.8697959991
 20
48.4647801566
 30
0.0
 11
249.8697959991
 21
10.2147801566
 31
0.0
  0
LINE
  5
55
330
1F
100
AcDbEntity
  8
0
  6
Continuous
 62
     7
370
    40
100
AcDbLine
 10
321.6788435654
 20
31.4647801566
 30
0.0
 11
222.8788435654
 21
31.4647801566
 31
0.0
  0
LINE
  5
56
330
1F
100
AcDbEntity
  8
0
  6
Continuous
 62
     7
370
    40
100
AcDbLine
 10
321.6788435654
 20
35.7147801566
 30
0.0
 11
222.8788435654
 21
35.7147801566
 31
0.0
  0
LINE
  5
57
330
1F
100
AcDbEntity
  8
0
  6
Continuous
 62
     7
370
    40
100
AcDbLine
 10
321.6788435654
 20
39.9647801566
 30
0.0
 11
222.8788435654
 21
39.9647801566
 31
0.0
  0
LINE
  5
58
330
1F
100
AcDbEntity
  8
0
  6
Continuous
 62
     7
370
    40
100
AcDbLine
 10
321.6788435654
 20
44.2147801566
 30
0.0
 11
222.8788435654
 21
44.2147801566
 31
0.0
  0
LINE
  5
59
330
1F
100
AcDbEntity
  8
0
  6
Continuous
 62
     7
370
    40
100
AcDbLine
 10
277.4788435654
 20
10.2147801566
 30
0.0
 11
277.4788435654
 21
48.4647801566
 31
0.0
  0
LINE
  5
5A
330
1F
100
AcDbEntity
  8
0
  6
Continuous
 62
     7
370
    40
100
AcDbLine
 10
222.8788435654
 20
65.4647801566
 30
0.0
 11
222.8788435654
 21
10.2147801566
 31
0.0
  0
LINE
  5
5B
330
1F
100
AcDbEntity
  8
0
  6
Continuous
 62
     7
370
    40
100
AcDbLine
 10
230.6788435654
 20
48.4647801566
 30
0.0
 11
230.6788435654
 21
10.2147801566
 31
0.0
  0
LINE
  5
5C
330
1F
100
AcDbEntity
  8
0
  6
Continuous
 62
     7
370
    40
100
AcDbLine
 10
256.6788435654
 20
48.4647801566
 30
0.0
 11
256.6788435654
 21
65.4647801566
 31
0.0
  0
LINE
  5
5D
330
1F
100
AcDbEntity
  8
0
  6
Continuous
 62
     7
370
    40
100
AcDbLine
 10
267.2777697289
 20
48.4647801566
 30
0.0
 11
267.2777697289
 21
10.2147801566
 31
0.0
  0
LINE
  5
5E
330
1F
100
AcDbEntity
  8
0
  6
Continuous
 62
     7
370
    40
100
AcDbLine
 10
287.8788435654
 20
31.4647801566
 30
0.0
 11
287.8788435654
 21
48.4647801566
 31
0.0
  0
LINE
  5
5F
330
1F
100
AcDbEntity
  8
0
  6
Continuous
 62
     7
370
    40
100
AcDbLine
 10
277.4788435654
 20
18.7147801566
 30
0.0
 11
222.8788435654
 21
18.7147801566
 31
0.0
  0
LINE
  5
60
330
1F
100
AcDbEntity
  8
0
  6
Continuous
 62
     7
370
    40
100
AcDbLine
 10
303.4788435654
 20
65.4647801566
 30
0.0
 11
303.4788435654
 21
27.2147801566
 31
0.0
  0
LINE
  5
61
330
1F
100
AcDbEntity
  8
0
  6
Continuous
 62
     7
370
    40
100
AcDbLine
 10
277.4788435654
 20
22.9647081566
 30
0.0
 11
222.8788435654
 21
22.9647081566
 31
0.0
  0
LINE
  5
62
330
1F
100
AcDbEntity
  8
0
  6
Continuous
 62
     7
370
    40
100
AcDbLine
 10
277.4788435654
 20
27.2147801566
 30
0.0
 11
222.8788435654
 21
27.2147801566
 31
0.0
  0
LINE
  5
63
330
1F
100
AcDbEntity
  8
0
  6
Continuous
 62
     7
370
    40
100
AcDbLine
 10
277.4788435654
 20
27.2147801566
 30
0.0
 11
410.0788435654
 21
27.2147801566
 31
0.0
  0
LINE
  5
64
330
1F
100
AcDbEntity
  8
0
  6
Continuous
 62
     7
370
    40
100
AcDbLine
 10
321.6788435654
 20
65.4647801566
 30
0.0
 11
321.6788435654
 21
10.2147801566
 31
0.0
  0
LINE
  5
65
330
1F
100
AcDbEntity
  8
0
  6
Continuous
 62
     7
370
    40
100
AcDbLine
 10
365.8788435654
 20
10.2147801566
 30
0.0
 11
365.8788435654
 21
14.4647801566
 31
0.0
  0
LINE
  5
66
330
1F
100
AcDbEntity
  8
0
  6
Continuous
 62
     7
370
    40
100
AcDbLine
 10
373.6788435654
 20
59.0897801566
 30
0.0
 11
373.6788435654
 21
65.4647801566
 31
0.0
  0
LINE
  5
67
330
1F
100
AcDbEntity
  8
0
  6
Continuous
 62
     7
370
    40
100
AcDbLine
 10
397.0788435654
 20
14.4647801566
 30
0.0
 11
397.0788435654
 21
27.2147801566
 31
0.0
  0
LINE
  5
68
330
1F
100
AcDbEntity
  8
0
  6
Continuous
 62
     7
370
    40
100
AcDbLine
 10
410.0788435654
 20
59.0897801566
 30
0.0
 11
321.6788435654
 21
59.0897801566
 31
0.0
  0
LINE
  5
69
330
1F
100
AcDbEntity
  8
0
  6
Continuous
 62
     7
370
    40
100
AcDbLine
 10
410.0788435654
 20
18.7147801566
 30
0.0
 11
397.0788435654
 21
18.7147801566
 31
0.0
  0
INSERT
  5
70
330
1F
100
AcDbEntity
  8
0
  6
Continuous
 62
     7
370
     0
100
AcDbBlockReference
  2
SW_NOTE_0
 10
17.2393555408
 20
9.5109524758
 30
0.0
  0
MTEXT
  5
71
330
1F
100
AcDbEntity
  8
0
  6
Continuous
 62
     7
370
     0
100
AcDbMText
 10
396.7420693376
 20
62.9900954614
 30
0.0
 40
1.905
 41
0.0
 71
     2
 72
     1
  1
3
  7
SLDTEXTSTYLE0
 73
     1
 44
1.0
  0
MTEXT
  5
72
330
1F
100
AcDbEntity
  8
0
  6
Continuous
 62
     7
370
     0
100
AcDbMText
 10
366.4707156166
 20
40.9203258086
 30
0.0
 40
5.8208333333
 41
0.0
 71
     2
 72
     1
  1
Porte platine superieur
  7
SLDTEXTSTYLE0
 73
     1
 44
1.0
  0
MTEXT
  5
73
330
1F
100
AcDbEntity
  8
0
  6
Continuous
 62
     7
370
     0
100
AcDbMText
 10
362.5290018099
 20
24.8465186829
 30
0.0
 40
6.35
 41
0.0
 71
     2
 72
     1
  1
ASD-US000007
  7
SLDTEXTSTYLE0
 73
     1
 44
1.0
  0
MTEXT
  5
74
330
1F
100
AcDbEntity
  8
0
  6
Continuous
 62
     7
370
     0
100
AcDbMText
 10
272.5762722308
 20
42.773880237
 30
0.0
 40
1.4986
 41
0.0
 71
     2
 72
     1
  1
22-11/2013
  7
SLDTEXTSTYLE0
 73
     1
 44
1.0
  0
MTEXT
  5
75
330
1F
100
AcDbEntity
  8
0
  6
Continuous
 62
     7
370
     0
100
AcDbMText
 10
240.1135264709
 20
42.5981456645
 30
0.0
 40
1.4986
 41
0.0
 71
     2
 72
     1
  1
BRESSON-T
  7
SLDTEXTSTYLE0
 73
     1
 44
1.0
  0
MTEXT
  5
76
330
1F
100
AcDbEntity
  8
0
  6
Continuous
 62
     7
370
     0
100
AcDbMText
 10
278.4966546935
 20
13.1640920602
 30
0.0
 40
1.4986
 41
0.0
 71
     1
 72
     1
  1
MASSE:
  7
SLDTEXTSTYLE0
 73
     1
 44
1.0
  0
MTEXT
  5
77
330
1F
100
AcDbEntity
  8
0
  6
Continuous
 62
     7
370
     0
100
AcDbMText
 10
299.8177807388
 20
21.700345848
 30
0.0
 40
2.38125
 41
0.0
 71
     2
 72
     1
  1
Acier
  7
SLDTEXTSTYLE0
 73
     1
 44
1.0
  0
MTEXT
  5
78
330
1F
100
AcDbEntity
  8
0
  6
Continuous
 62
     7
370
     0
100
AcDbMText
 10
400.9998284117
 20
24.5152246096
 30
0.0
 40
2.9104166667
 41
0.0
 71
     1
 72
     1
  1
A3
  7
SLDTEXTSTYLE0
 73
     1
 44
1.0
  0
MTEXT
  5
7A
330
1F
100
AcDbEntity
  8
0
  6
Continuous
 62
     7
370
     0
100
AcDbMText
 10
367.3571379932
 20
13.114867664
 30
0.0
 40
1.5
 41
0.0
 71
     1
 72
     1
  1
FEUILLE 1 SUR 1
  7
SLDTEXTSTYLE1
 73
     1
 44
1.0
  0
MTEXT
  5
7B
330
1F
100
AcDbEntity
  8
0
  6
Continuous
 62
     7
370
     0
100
AcDbMText
 10
322.9528096828
 20
13.114867664
 30
0.0
 40
1.5
 41
0.0
 71
     1
 72
     1
  1
ECHELLE:1:2
  7
SLDTEXTSTYLE0
 73
     1
 44
1.0
  0
MTEXT
  5
7C
330
1F
100
AcDbEntity
  8
0
  6
Continuous
 62
     7
370
     0
100
AcDbMText
 10
322.9528096828
 20
25.0834182165
 30
0.0
 40
1.5
 41
0.0
 71
     1
 72
     1
  1
No. DE PLAN
  7
SLDTEXTSTYLE0
 73
     1
 44
1.0
  0
MTEXT
  5
7D
330
1F
100
AcDbEntity
  8
0
  6
Continuous
 62
     7
370
     0
100
AcDbMText
 10
322.835030502
 20
46.4931146755
 30
0.0
 40
1.5
 41
0.0
 71
     1
 72
     1
  1
TITRE:
  7
SLDTEXTSTYLE0
 73
     1
 44
1.0
  0
MTEXT
  5
7E
330
1F
100
AcDbEntity
  8
0
  6
Continuous
 62
     7
370
     0
100
AcDbMText
 10
376.2064252647
 20
62.5496890699
 30
0.0
 40
1.5
 41
0.0
 71
     1
 72
     1
  1
REVISION
  7
SLDTEXTSTYLE0
 73
     1
 44
1.0
  0
MTEXT
  5
7F
330
1F
100
AcDbEntity
  8
0
  6
Continuous
 62
     7
370
     0
100
AcDbMText
 10
335.4934840882
 20
62.7477739645
 30
0.0
 40
1.5
 41
0.0
 71
     1
 72
     1
  1
NE PAS CHANGER L'ECHELLE
  7
SLDTEXTSTYLE0
 73
     1
 44
1.0
  0
MTEXT
  5
80
330
1F
100
AcDbEntity
  8
0
  6
Continuous
 62
     7
370
     0
100
AcDbMText
 10
278.5247058741
 20
26.2008366787
 30
0.0
 40
1.5
 41
0.0
 71
     1
 72
     1
  1
MATERIAU:
  7
SLDTEXTSTYLE0
 73
     1
 44
1.0
  0
MTEXT
  5
81
330
1F
100
AcDbEntity
  8
0
  6
Continuous
 62
     7
370
     0
100
AcDbMText
 10
270.0935455311
 20
46.7909596107
 30
0.0
 40
1.5
 41
0.0
 71
     1
 72
     1
  1
DATE
  7
SLDTEXTSTYLE0
 73
     1
 44
1.0
  0
MTEXT
  5
82
330
1F
100
AcDbEntity
  8
0
  6
Continuous
 62
     7
370
     0
100
AcDbMText
 10
252.9124311285
 20
46.776536769
 30
0.0
 40
1.5
 41
0.0
 71
     1
 72
     1
  1
SIGNATURE
  7
SLDTEXTSTYLE0
 73
     1
 44
1.0
  0
MTEXT
  5
83
330
1F
100
AcDbEntity
  8
0
  6
Continuous
 62
     7
370
     0
100
AcDbMText
 10
237.201082783
 20
46.7162630229
 30
0.0
 40
1.5
 41
0.0
 71
     1
 72
     1
  1
NOM
  7
SLDTEXTSTYLE0
 73
     1
 44
1.0
  0
INSERT
  5
89
330
1F
100
AcDbEntity
  8
0
  6
Continuous
 62
     7
370
     0
100
AcDbBlockReference
  2
SW_NOTE_1
 10
304.1880592516
 20
62.2842700325
 30
0.0
  0
MTEXT
  5
8A
330
1F
100
AcDbEntity
  8
0
  6
Continuous
 62
     7
370
     0
100
AcDbMText
 10
257.2501357322
 20
64.1340523846
 30
0.0
 40
1.5
 41
0.0
 71
     1
 72
     1
  1
FINITION:
  7
SLDTEXTSTYLE0
 73
     1
 44
1.0
  0
MTEXT
  5
8B
330
1F
100
AcDbEntity
  8
0
  6
Continuous
 62
     7
370
     0
100
AcDbMText
 10
223.5478864275
 20
25.5644295968
 30
0.0
 40
1.5
 41
0.0
 71
     1
 72
     1
  1
QUAL.
  7
SLDTEXTSTYLE0
 73
     1
 44
1.0
  0
MTEXT
  5
8C
330
1F
100
AcDbEntity
  8
0
  6
Continuous
 62
     7
370
     0
100
AcDbMText
 10
223.3340300644
 20
29.9484850401
 30
0.0
 40
1.5
 41
0.0
 71
     1
 72
     1
  1
FAB.
  7
SLDTEXTSTYLE0
 73
     1
 44
1.0
  0
MTEXT
  5
8D
330
1F
100
AcDbEntity
  8
0
  6
Continuous
 62
     7
370
     0
100
AcDbMText
 10
223.2805659737
 20
34.2790763926
 30
0.0
 40
1.5
 41
0.0
 71
     1
 72
     1
  1
APPR.
  7
SLDTEXTSTYLE0
 73
     1
 44
1.0
  0
MTEXT
  5
8E
330
1F
100
AcDbEntity
  8
0
  6
Continuous
 62
     7
370
     0
100
AcDbMText
 10
223.289312433
 20
38.3691875495
 30
0.0
 40
1.5
 41
0.0
 71
     1
 72
     1
  1
VERIF.
  7
SLDTEXTSTYLE0
 73
     1
 44
1.0
  0
MTEXT
  5
8F
330
1F
100
AcDbEntity
  8
0
  6
Continuous
 62
     7
370
     0
100
AcDbMText
 10
223.0909928094
 20
42.6444952754
 30
0.0
 40
1.5
 41
0.0
 71
     1
 72
     1
  1
AUTEUR
  7
SLDTEXTSTYLE0
 73
     1
 44
1.0
  0
INSERT
  5
9A
330
1F
100
AcDbEntity
  8
0
  6
Continuous
 62
     7
370
     0
100
AcDbBlockReference
  2
SW_NOTE_2
 10
225.0978633669
 20
61.2639549512
 30
0.0
  0
CIRCLE
  5
9B
330
1F
100
AcDbEntity
  8
0
  6
Continuous
 62
     7
370
    15
100
AcDbCircle
 10
139.8525209289
 20
102.7541879721
 30
0.0
 40
55.0000000000002
  0
CIRCLE
  5
9C
330
1F
100
AcDbEntity
  8
0
  6
Continuous
 62
     7
370
    15
100
AcDbCircle
 10
139.8525209289
 20
150.2541879721
 30
0.0
 40
3.300000000000011
  0
CIRCLE
  5
9D
330
1F
100
AcDbEntity
  8
0
  6
Continuous
 62
     7
370
    15
100
AcDbCircle
 10
98.7163142491
 20
126.5041879721
 30
0.0
 40
3.299999999999997
  0
CIRCLE
  5
9E
330
1F
100
AcDbEntity
  8
0
  6
Continuous
 62
     7
370
    15
100
AcDbCircle
 10
98.7163142491
 20
79.0041879721
 30
0.0
 40
3.299999999999997
  0
CIRCLE
  5
9F
330
1F
100
AcDbEntity
  8
0
  6
Continuous
 62
     7
370
    15
100
AcDbCircle
 10
180.9887276087
 20
79.0041879721
 30
0.0
 40
3.299999999999983
  0
CIRCLE
  5
A0
330
1F
100
AcDbEntity
  8
0
  6
Continuous
 62
     7
370
    15
100
AcDbCircle
 10
139.8525209289
 20
55.2541879721
 30
0.0
 40
3.299999999999997
  0
CIRCLE
  5
A1
330
1F
100
AcDbEntity
  8
0
  6
Continuous
 62
     7
370
    15
100
AcDbCircle
 10
139.8525209289
 20
102.7541879721
 30
0.0
 40
40.00000000000014
  0
CIRCLE
  5
A2
330
1F
100
AcDbEntity
  8
0
  6
Continuous
 62
     7
370
    15
100
AcDbCircle
 10
180.9887276087
 20
126.5041879721
 30
0.0
 40
3.300000000000011
  0
CIRCLE
  5
A3
330
1F
100
AcDbEntity
  8
0
  6
Continuous
 62
     7
370
    15
100
AcDbCircle
 10
139.8525209289
 20
102.7541879721
 30
0.0
 40
32.00000000000013
  0
DIMENSION
  5
A4
330
1F
100
AcDbEntity
  8
0
  6
Continuous
 62
     7
370
     0
100
AcDbDimension
  2
*D5
 10
100.9616479636
 20
141.6450609373
 30
0.0
 11
193.0223433586
 21
49.5843855424
 31
0.0
 70
   163
  1
<>
 71
     1
 42
-1.0
  3
SLDDIMSTYLE0
100
AcDbDiametricDimension
 15
178.7433938942
 25
63.8633150068
 35
0.0
 40
0.0
  0
DIMENSION
  5
B1
330
1F
100
AcDbEntity
  8
0
  6
Continuous
 62
     7
370
     0
100
AcDbDimension
  2
*D6
 10
101.0497666271
 20
81.33764035
 30
0.0
 11
80.1738177427
 21
60.4616914656
 31
0.0
 70
   163
  1
<> (x6)
 71
     1
 42
-1.0
  3
SLDDIMSTYLE1
100
AcDbDiametricDimension
 15
96.3828618712
 25
76.6707355941
 35
0.0
 40
0.0
  0
DIMENSION
  5
BC
330
1F
100
AcDbEntity
  8
0
  6
Continuous
 62
     7
370
     0
100
AcDbDimension
  2
*D7
 10
173.3518798533
 20
136.4297421866
 30
0.0
 11
80.2698231026
 21
42.8581052682
 31
0.0
 70
   163
  1
<>
 71
     1
 42
-1.0
  3
SLDDIMSTYLE2
100
AcDbDiametricDimension
 15
106.3531620046
 25
69.0786337575
 35
0.0
 40
0.0
  0
INSERT
  5
FB
330
1F
100
AcDbEntity
  8
0
  6
Continuous
 62
     7
370
     0
100
AcDbBlockReference
  2
SW_CENTERMARKSYMBOL_0
 10
180.9887276087
 20
79.0041879721
 30
0.0
  0
LINE
  5
FC
330
1F
100
AcDbEntity
  8
0
  6
CENTER
 62
     7
370
     0
100
AcDbLine
 10
60.4935428267
 20
102.7541879721
 30
0.0
 11
225.5995282282
 21
102.7541879721
 31
0.0
  0
LINE
  5
FD
330
1F
100
AcDbEntity
  8
0
  6
Continuous
 62
     7
370
     0
100
AcDbLine
 10
62.4935428267
 20
90.0541879721
 30
0.0
 11
62.4935428267
 21
102.7541879721
 31
0.0
  0
SOLID
  5
FE
330
1F
100
AcDbEntity
  8
0
  6
Continuous
 62
     7
370
     0
100
AcDbTrace
 10
62.4935428267
 20
102.7541879721
 30
0.0
 11
61.4775428267
 21
96.4041879721
 31
0.0
 12
63.5095428267
 22
96.4041879721
 32
0.0
 13
63.5095428267
 23
96.4041879721
 33
0.0
  0
LINE
  5
FF
330
1F
100
AcDbEntity
  8
0
  6
Continuous
 62
     7
370
     0
100
AcDbLine
 10
223.5995282282
 20
90.0541879721
 30
0.0
 11
223.5995282282
 21
102.7541879721
 31
0.0
  0
SOLID
  5
100
330
1F
100
AcDbEntity
  8
0
  6
Continuous
 62
     7
370
     0
100
AcDbTrace
 10
223.5995282282
 20
102.7541879721
 30
0.0
 11
222.5835282282
 21
96.4041879721
 31
0.0
 12
224.6155282282
 22
96.4041879721
 32
0.0
 13
224.6155282282
 23
96.4041879721
 33
0.0
  0
MTEXT
  5
101
330
1F
100
AcDbEntity
  8
0
  6
Continuous
 62
     7
100
AcDbMText
 10
63.8736556682
 20
95.6112584587
 30
0.0
 40
3.5
 41
0.0
 71
     1
 72
     1
  1
A
  7
SLDTEXTSTYLE0
 73
     1
 44
1.0
  0
MTEXT
  5
102
330
1F
100
AcDbEntity
  8
0
  6
Continuous
 62
     7
100
AcDbMText
 10
224.9796410696
 20
95.6112584587
 30
0.0
 40
3.5
 41
0.0
 71
     1
 72
     1
  1
A
  7
SLDTEXTSTYLE0
 73
     1
 44
1.0
  0
INSERT
  5
10E
330
1F
100
AcDbEntity
  8
0
  6
Continuous
 62
     7
370
     0
100
AcDbBlockReference
  2
SW_DATUMTAG_0
 10
44.9657753226
 20
145.8676377216
 30
0.0
  0
INSERT
  5
11A
330
1F
100
AcDbEntity
  8
0
  6
Continuous
 62
     7
370
     0
100
AcDbBlockReference
  2
SW_DATUMTAG_1
 10
45.2013136715
 20
159.9056031114
 30
0.0
  0
LINE
  5
11B
330
1F
100
AcDbEntity
  8
0
  6
Continuous
 62
     7
370
    15
100
AcDbLine
 10
258.7602931972
 20
139.7846630158
 30
0.0
 11
272.9024298219
 21
131.6205813197
 31
0.0
  0
LINE
  5
11C
330
1F
100
AcDbEntity
  8
0
  6
Continuous
 62
     7
370
    15
100
AcDbLine
 10
327.897961104
 20
226.8859594541
 30
0.0
 11
313.7558244792
 21
235.0500411502
 31
0.0
  0
LWPOLYLINE
  5
11D
330
1F
100
AcDbEntity
  8
0
  6
Continuous
 62
     7
370
    15
100
AcDbPolyline
 90
      141
 70
   128
 43
0.0
 10
286.2580588382
 20
142.5076076726
 10
288.0028912806
 20
143.5600981666
 10
289.7442097296
 20
144.7009121924
 10
291.4785077648
 20
145.92775177
 10
293.2022921369
 20
147.2381470536
 10
294.9120923164
 20
148.6294557603
 10
296.6044641155
 20
150.0988774285
 10
298.2759995663
 20
151.6434560784
 10
299.923332848
 20
153.2600775501
 10
301.5431455547
 20
154.9454877541
 10
303.1321765739
 20
156.69629229
 10
304.6872253795
 20
158.5089644311
 10
306.2051599337
 20
160.3798527287
 10
307.6829232729
 20
162.3051908969
 10
309.117540093
 20
164.2811016144
 10
310.5061207008
 20
166.3036079317
 10
311.8458715503
 20
168.3686332692
 10
313.1340873409
 20
170.4720211906
 10
314.3681813096
 20
172.6095346395
 10
315.5456667924
 20
174.7768665873
 10
316.6641677607
 20
176.9696582837
 10
317.7214372607
 20
179.1834886082
 10
318.7153416081
 20
181.4138999277
 10
319.6438814618
 20
183.6564011359
 10
320.5051865555
 20
185.9064767797
 10
321.2975235999
 20
188.1595961837
 10
322.0192962831
 20
190.4112210552
 10
322.669050539
 20
192.65681613
 10
323.2454771811
 20
194.8918598186
 10
323.7474171709
 20
197.1118510499
 10
324.1738563499
 20
199.3123176367
 10
324.5239386104
 20
201.4888299631
 10
324.7969606267
 20
203.637004787
 10
324.9923692214
 20
205.7525151264
 10
325.1097719021
 20
207.8311005248
 10
325.1489315927
 20
209.8685750364
 10
325.1097719021
 20
211.8608367317
 10
324.9923692214
 20
213.8038718802
 10
324.7969606267
 20
215.6937682584
 10
324.5239386104
 20
217.526718572
 10
324.1738563499
 20
219.2990345241
 10
323.7474171709
 20
221.0071449149
 10
323.2454771811
 20
222.6476085695
 10
322.669050539
 20
224.2171242234
 10
322.0192962831
 20
225.7125290026
 10
321.2975235999
 20
227.1308128722
 10
320.5051865555
 20
228.4691193971
 10
319.6438814618
 20
229.724753347
 10
318.7153416081
 20
230.8951852597
 10
317.7214372607
 20
231.9780590457
 10
316.6641677607
 20
232.9711919889
 10
315.5456667924
 20
233.8725899553
 10
314.3681813096
 20
234.6804261024
 10
313.1340873409
 20
235.3930849838
 10
311.8458715503
 20
236.0091306124
 10
310.5061207008
 20
236.5273125445
 10
309.117540093
 20
236.9465978176
 10
307.6829232729
 20
237.2661352115
 10
306.2051599337
 20
237.4852841455
 10
304.6872253795
 20
237.6036025113
 10
303.1321765739
 20
237.6208535182
 10
301.5431455547
 20
237.537001891
 10
299.923332848
 20
237.3522161521
 10
298.2759995663
 20
237.0668671014
 10
296.6044641155
 20
236.6815319991
 10
294.9120923164
 20
236.1969827795
 10
293.2022921369
 20
235.6141982187
 10
291.4785077648
 20
234.9343544297
 10
289.7442097296
 20
234.1588161176
 10
288.0028912806
 20
233.2891466566
 10
286.2580588382
 20
232.3270964933
 10
284.5132263958
 20
231.2746059993
 10
282.7719079469
 20
230.1337919735
 10
281.0376099117
 20
228.9069523959
 10
279.3138255396
 20
227.5965571123
 10
277.6040253601
 20
226.2052484056
 10
275.911653561
 20
224.7358267375
 10
274.2401181101
 20
223.1912480875
 10
272.5927848284
 20
221.5746266158
 10
270.9729721218
 20
219.8892164118
 10
269.3839411025
 20
218.138411876
 10
267.8288922969
 20
216.3257397348
 10
266.3109577428
 20
214.4548514372
 10
264.8331944036
 20
212.5295132691
 10
263.3985775834
 20
210.5536025515
 10
262.0099969757
 20
208.5310962342
 10
260.6702461261
 20
206.4660708967
 10
259.3820303355
 20
204.3626829753
 10
258.1479363668
 20
202.2251695264
 10
256.970450884
 20
200.0578375787
 10
255.8519499157
 20
197.8650458823
 10
254.7946804157
 20
195.6512155577
 10
253.8007760683
 20
193.4208042382
 10
252.8722362146
 20
191.17830303
 10
252.010931121
 20
188.9282273863
 10
251.2185940766
 20
186.6751079823
 10
250.4968213933
 20
184.4234831107
 10
249.8470671374
 20
182.1778880359
 10
249.2706404954
 20
179.9428443473
 10
248.7687005056
 20
177.7228531161
 10
248.3422613265
 20
175.5223865292
 10
247.9921790661
 20
173.3458742028
 10
247.7191570498
 20
171.1976993789
 10
247.523748455
 20
169.0821890395
 10
247.4063457743
 20
167.0036036411
 10
247.3671860837
 20
164.9661291295
 10
247.4063457743
 20
162.9738674343
 10
247.523748455
 20
161.0308322858
 10
247.7191570498
 20
159.1409359076
 10
247.9921790661
 20
157.3079855939
 10
248.3422613265
 20
155.5356696419
 10
248.7687005056
 20
153.8275592511
 10
249.2706404954
 20
152.1870955964
 10
249.8470671374
 20
150.6175799426
 10
250.4968213933
 20
149.1221751633
 10
251.2185940766
 20
147.7038912938
 10
252.010931121
 20
146.3655847689
 10
252.8722362146
 20
145.109950819
 10
253.8007760683
 20
143.9395189063
 10
254.7946804157
 20
142.8566451203
 10
255.8519499157
 20
141.8635121771
 10
256.970450884
 20
140.9621142106
 10
258.1479363668
 20
140.1542780636
 10
259.3820303355
 20
139.4416191821
 10
260.6702461261
 20
138.8255735535
 10
262.0099969757
 20
138.3073916214
 10
263.3985775834
 20
137.8881063484
 10
264.8331944036
 20
137.5685689544
 10
266.3109577428
 20
137.3494200205
 10
267.8288922969
 20
137.2311016546
 10
269.3839411025
 20
137.2138506477
 10
270.9729721218
 20
137.297702275
 10
272.5927848284
 20
137.4824880139
 10
274.2401181101
 20
137.7678370646
 10
275.911653561
 20
138.1531721668
 10
277.6040253601
 20
138.6377213865
 10
279.3138255396
 20
139.2205059473
 10
281.0376099117
 20
139.9003497363
 10
282.7719079469
 20
140.6758880483
 10
284.5132263958
 20
141.5455575093
 10
286.2580588382
 20
142.5076076726
  0
LWPOLYLINE
  5
11E
330
1F
100
AcDbEntity
  8
0
  6
Continuous
 62
     7
370
    15
100
AcDbPolyline
 90
      120
 70
   128
 43
0.0
 10
286.2580588382
 20
154.7557203376
 10
287.7507711378
 20
155.6629600307
 10
289.2393227531
 20
156.6587065879
 10
290.7195651831
 20
157.7401848989
 10
292.1873729757
 20
158.9043746021
 10
293.6386542646
 20
160.1480374602
 10
295.0693645987
 20
161.4677070924
 10
296.4755158325
 20
162.8597001906
 10
297.8531902846
 20
164.3201399026
 10
299.198545348
 20
165.8449554507
 10
300.5078345628
 20
167.4298973395
 10
301.7774069583
 20
169.0705491434
 10
303.0037235164
 20
170.7623370099
 10
304.183366391
 20
172.5005425876
 10
305.3130494451
 20
174.2803258385
 10
306.3896222016
 20
176.0967242774
 10
307.410084332
 20
177.944675024
 10
308.3715935579
 20
179.8190284902
 10
309.2714656521
 20
181.7145590268
 10
310.1071981454
 20
183.6259862145
 10
310.8764571561
 20
185.5479779063
 10
311.5771010974
 20
187.4751821655
 10
312.2071754092
 20
189.4022227027
 10
312.764925729
 20
191.323733096
 10
313.2487952575
 20
193.2343545095
 10
313.6574379297
 20
195.1287638292
 10
313.9897131467
 20
197.0016797474
 10
314.2446963118
 20
198.8478825335
 10
314.4216735629
 20
200.6622256319
 10
314.5201549428
 20
202.4396532459
 10
314.539866497
 20
204.1752121263
 10
314.4807502736
 20
205.8640630728
 10
314.3429722258
 20
207.5014995652
 10
314.1269169437
 20
209.0829583146
 10
313.8331850197
 20
210.604030291
 10
313.4625956833
 20
212.0604769776
 10
313.0161841664
 20
213.4482396868
 10
312.4951911669
 20
214.7634483065
 10
311.9010733852
 20
216.0024403107
 10
311.235482451
 20
217.1617600012
 10
310.5002754597
 20
218.2381759968
 10
309.6974991678
 20
219.2286888397
 10
308.8293952606
 20
220.1305378395
 10
307.8983792796
 20
220.9412102
 10
306.9070485241
 20
221.6584440609
 10
305.8581649299
 20
222.2802429479
 10
304.7546537517
 20
222.8048719706
 10
303.5995877581
 20
223.2308699917
 10
302.3961885489
 20
223.5570503865
 10
301.1478094327
 20
223.7825018061
 10
299.8579288416
 20
223.9065980629
 10
298.5301437458
 20
223.9289912879
 10
297.1681545067
 20
223.8496183958
 10
295.775756975
 20
223.6687056483
 10
294.3568312949
 20
223.386750024
 10
292.9153333432
 20
223.0045446949
 10
291.4552799121
 20
222.523149179
 10
289.9807411361
 20
221.943909304
 10
288.4958266621
 20
221.2684370556
 10
287.0046751131
 20
220.4986166628
 10
285.5114425634
 20
219.6365918605
 10
284.0202910143
 20
218.6847653212
 10
282.5353765403
 20
217.6457918108
 10
281.0608377643
 20
216.522565453
 10
279.6007843333
 20
215.3182191595
 10
278.1592863816
 20
214.0361063797
 10
276.7403607015
 20
212.6798052849
 10
275.3479631697
 20
211.2530900616
 10
273.9859739307
 20
209.7599436503
 10
272.6581888348
 20
208.204522385
 10
271.3683082437
 20
206.5911616976
 10
270.1199291275
 20
204.9243624305
 10
268.9165299184
 20
203.2087668832
 10
267.7614639248
 20
201.4491580527
 10
266.6579527465
 20
199.6504421433
 10
265.6090691523
 20
197.8176280356
 10
264.6177383969
 20
195.9558280472
 10
263.6867224158
 20
194.0702275155
 10
262.8186185087
 20
192.1660870789
 10
262.0158422167
 20
190.2487084581
 10
261.2806352255
 20
188.3234405388
 10
260.6150442913
 20
186.3956459132
 10
260.0209265096
 20
184.4707001191
 10
259.4999335101
 20
182.553965786
 10
259.0535219932
 20
180.6507873104
 10
258.6829326568
 20
178.7664672835
 10
258.3892007328
 20
176.9062596464
 10
258.1731454506
 20
175.0753487779
 10
258.0353674028
 20
173.2788371375
 10
257.9762511794
 20
171.5217320523
 10
257.9959627336
 20
169.808931648
 10
258.0944441135
 20
168.1452082149
 10
258.2714213646
 20
166.5351987013
 10
258.5264045297
 20
164.9833932112
 10
258.8586797467
 20
163.4941140926
 10
259.267322419
 20
162.0715135596
 10
259.7511919475
 20
160.7195560122
 10
260.3089422672
 20
159.4420104309
 10
260.9390165791
 20
158.2424382095
 10
261.6396605203
 20
157.124180226
 10
262.408919531
 20
156.0903560827
 10
263.2446520243
 20
155.143845093
 10
264.1445241185
 20
154.2872847612
 10
265.1060333445
 20
153.5230662175
 10
266.1264954748
 20
152.8533159679
 10
267.2030682314
 20
152.279901976
 10
268.3327512854
 20
151.8044230164
 10
269.5123941601
 20
151.4282041111
 10
270.7387107181
 20
151.1522912048
 10
272.0082831137
 20
150.977456488
 10
273.3175723285
 20
150.9041877497
 10
274.6629273918
 20
150.9326860945
 10
276.040601844
 20
151.0628754476
 10
277.4467530777
 20
151.2943900065
 10
278.8774634119
 20
151.6265833651
 10
280.3287447008
 20
152.0585342168
 10
281.7965524934
 20
152.5890393183
 10
283.2767949234
 20
153.2166125388
 10
284.7653465387
 20
153.9395110944
 10
286.2580588382
 20
154.7557203376
  0
LWPOLYLINE
  5
11F
330
1F
100
AcDbEntity
  8
0
  6
Continuous
 62
     7
370
    15
100
AcDbPolyline
 90
       35
 70
   128
 43
0.0
 10
286.2580588382
 20
145.9370793405
 10
286.6868295941
 20
146.2304836763
 10
287.1009991012
 20
146.6056558732
 10
287.4864632293
 20
147.0498240921
 10
287.8300954579
 20
147.5478576365
 10
288.1201940272
 20
148.082801896
 10
288.3468796995
 20
148.636433447
 10
288.5024331806
 20
149.1899050361
 10
288.5815571386
 20
149.7243652853
 10
288.5815571386
 20
150.2216167606
 10
288.5024331806
 20
150.6647224325
 10
288.3468796995
 20
151.0385927533
 10
288.1201940272
 20
151.3305016399
 10
287.8300954579
 20
151.5305021788
 10
287.4864632293
 20
151.631789439
 10
287.1009991012
 20
151.6309072068
 10
286.6868295941
 20
151.5278925112
 10
286.2580588382
 20
151.3262486697
 10
285.8292880823
 20
151.0328443339
 10
285.4151185753
 20
150.6576690951
 10
285.0296544471
 20
150.2135039181
 10
284.6860222185
 20
149.7154673318
 10
284.3959236492
 20
149.1805261142
 10
284.169237977
 20
148.6268915214
 10
284.0136844958
 20
148.0734229741
 10
283.9345605378
 20
147.5389627249
 10
283.9345605378
 20
147.0417112496
 10
284.0136844958
 20
146.5986055777
 10
284.169237977
 20
146.2247322151
 10
284.3959236492
 20
145.9328263703
 10
284.6860222185
 20
145.7328227895
 10
285.0296544471
 20
145.6315385712
 10
285.4151185753
 20
145.6324177616
 10
285.8292880823
 20
145.7354354989
 10
286.2580588382
 20
145.9370793405
  0
LWPOLYLINE
  5
120
330
1F
100
AcDbEntity
  8
0
  6
Continuous
 62
     7
370
    15
100
AcDbPolyline
 90
       35
 70
   128
 43
0.0
 10
315.3457484849
 20
182.1218891854
 10
315.7745215457
 20
182.4152948518
 10
316.1886907234
 20
182.7904683795
 10
316.574152629
 20
183.2346337945
 10
316.9177864217
 20
183.7326697627
 10
317.2078858141
 20
184.2676129764
 10
317.4345700047
 20
184.821245193
 10
317.5901234858
 20
185.3747152612
 10
317.6692489255
 20
185.9091763658
 10
317.6692489255
 20
186.4064263201
 10
317.5901234858
 20
186.8495311366
 10
317.4345700047
 20
187.2234044993
 10
317.2078858141
 20
187.5153127204
 10
316.9177864217
 20
187.715314305
 10
316.574152629
 20
187.8165976204
 10
316.1886907234
 20
187.8157197131
 10
315.7745215457
 20
187.7127036867
 10
315.3457484849
 20
187.5110585146
 10
314.9169780583
 20
187.2176543689
 10
314.5028088805
 20
186.8424808411
 10
314.1173443407
 20
186.3983123846
 10
313.7737131823
 20
185.900279458
 10
313.4836137898
 20
185.3653362442
 10
313.2569295992
 20
184.8117040277
 10
313.1013761181
 20
184.2582324386
 10
313.0222506784
 20
183.723771334
 10
313.0222506784
 20
183.2265213796
 10
313.1013761181
 20
182.7834165631
 10
313.2569295992
 20
182.4095447214
 10
313.4836137898
 20
182.1176365003
 10
313.7737131823
 20
181.9176349157
 10
314.1173443407
 20
181.8163485586
 10
314.5028088805
 20
181.8172295076
 10
314.9169780583
 20
181.9202455339
 10
315.3457484849
 20
182.1218891854
  0
LWPOLYLINE
  5
121
330
1F
100
AcDbEntity
  8
0
  6
Continuous
 62
     7
370
    15
100
AcDbPolyline
 90
       35
 70
   128
 43
0.0
 10
315.3457484849
 20
220.9075772633
 10
315.7745215457
 20
221.2009829297
 10
316.1886907234
 20
221.5761564574
 10
316.574152629
 20
222.0203233933
 10
316.9177864217
 20
222.5183578405
 10
317.2078858141
 20
223.0533010543
 10
317.4345700047
 20
223.6069332709
 10
317.5901234858
 20
224.16040486
 10
317.6692489255
 20
224.6948659646
 10
317.6692489255
 20
225.1921159189
 10
317.5901234858
 20
225.6352207354
 10
317.4345700047
 20
226.0090925771
 10
317.2078858141
 20
226.3010007982
 10
316.9177864217
 20
226.5010023829
 10
316.574152629
 20
226.6022872192
 10
316.1886907234
 20
226.601407791
 10
315.7745215457
 20
226.4983917646
 10
315.3457484849
 20
226.2967465925
 10
314.9169780583
 20
226.0033424468
 10
314.5028088805
 20
225.628168919
 10
314.1173443407
 20
225.1840019834
 10
313.7737131823
 20
224.6859675359
 10
313.4836137898
 20
224.1510243221
 10
313.2569295992
 20
223.5973921056
 10
313.1013761181
 20
223.0439220374
 10
313.0222506784
 20
222.5094609328
 10
313.0222506784
 20
222.0122109784
 10
313.1013761181
 20
221.5691061619
 10
313.2569295992
 20
221.1952327993
 10
313.4836137898
 20
220.9033245782
 10
313.7737131823
 20
220.7033229935
 10
314.1173443407
 20
220.6020381575
 10
314.5028088805
 20
220.6029175854
 10
314.9169780583
 20
220.7059336118
 10
315.3457484849
 20
220.9075772633
  0
LWPOLYLINE
  5
122
330
1F
100
AcDbEntity
  8
0
  6
Continuous
 62
     7
370
    15
100
AcDbPolyline
 90
       35
 70
   128
 43
0.0
 10
286.2580588382
 20
223.5084554962
 10
286.6868295941
 20
223.8018598321
 10
287.1009991012
 20
224.1770350708
 10
287.4864632293
 20
224.6212002479
 10
287.8300954579
 20
225.1192368341
 10
288.1201940272
 20
225.6541780517
 10
288.3468796995
 20
226.2078126446
 10
288.5024331806
 20
226.7612811918
 10
288.5815571386
 20
227.2957414411
 10
288.5815571386
 20
227.7929929164
 10
288.5024331806
 20
228.2360985882
 10
288.3468796995
 20
228.6099719509
 10
288.1201940272
 20
228.9018777957
 10
287.8300954579
 20
229.1018813764
 10
287.4864632293
 20
229.2031655948
 10
287.1009991012
 20
229.2022864044
 10
286.6868295941
 20
229.099268667
 10
286.2580588382
 20
228.8976248255
 10
285.8292880823
 20
228.6042204896
 10
285.4151185753
 20
228.2290482927
 10
285.0296544471
 20
227.7848800738
 10
284.6860222185
 20
227.2868465294
 10
284.3959236492
 20
226.75190227
 10
284.169237977
 20
226.198270719
 10
284.0136844958
 20
225.6447991299
 10
283.9345605378
 20
225.1103388806
 10
283.9345605378
 20
224.6130874053
 10
284.0136844958
 20
224.1699817335
 10
284.169237977
 20
223.7961114127
 10
284.3959236492
 20
223.504202526
 10
284.6860222185
 20
223.3042019871
 10
285.0296544471
 20
223.2029147269
 10
285.4151185753
 20
223.2037969592
 10
285.8292880823
 20
223.3068116547
 10
286.2580588382
 20
223.5084554962
  0
LWPOLYLINE
  5
123
330
1F
100
AcDbEntity
  8
0
  6
Continuous
 62
     7
370
    15
100
AcDbPolyline
 90
       35
 70
   128
 43
0.0
 10
257.1703691916
 20
187.3236456513
 10
257.5991396182
 20
187.6170497971
 10
258.013308796
 20
187.9922233248
 10
258.3987733357
 20
188.4363917813
 10
258.7424044942
 20
188.9344247079
 10
259.0325038867
 20
189.4693679217
 10
259.2591880772
 20
190.0230001382
 10
259.4147415583
 20
190.5764717274
 10
259.4938669981
 20
191.110932832
 10
259.4938669981
 20
191.6081827863
 10
259.4147415583
 20
192.0512876028
 10
259.2591880772
 20
192.4251594445
 10
259.0325038867
 20
192.7170676656
 10
258.7424044942
 20
192.9170692503
 10
258.3987733357
 20
193.0183556073
 10
258.013308796
 20
193.0174746584
 10
257.5991396182
 20
192.914458632
 10
257.1703691916
 20
192.7128149806
 10
256.7415961308
 20
192.4194093141
 10
256.327426953
 20
192.0442357864
 10
255.9419650474
 20
191.6000703715
 10
255.5983312548
 20
191.1020344033
 10
255.3082318623
 20
190.5670911895
 10
255.0815476718
 20
190.013458973
 10
254.9259941906
 20
189.4599889048
 10
254.8468687509
 20
188.9255278002
 10
254.8468687509
 20
188.4282778458
 10
254.9259941906
 20
187.9851730293
 10
255.0815476718
 20
187.6112996667
 10
255.3082318623
 20
187.3193914456
 10
255.5983312548
 20
187.1193898609
 10
255.9419650474
 20
187.0181065455
 10
256.327426953
 20
187.0189844528
 10
256.7415961308
 20
187.1220004792
 10
257.1703691916
 20
187.3236456513
  0
LWPOLYLINE
  5
124
330
1F
100
AcDbEntity
  8
0
  6
Continuous
 62
     7
370
    15
100
AcDbPolyline
 90
       35
 70
   128
 43
0.0
 10
257.1703691916
 20
148.5379575734
 10
257.5991396182
 20
148.8313617192
 10
258.013308796
 20
149.2065352469
 10
258.3987733357
 20
149.6507021825
 10
258.7424044942
 20
150.1487366301
 10
259.0325038867
 20
150.6836798438
 10
259.2591880772
 20
151.2373120604
 10
259.4147415583
 20
151.7907821286
 10
259.4938669981
 20
152.3252432332
 10
259.4938669981
 20
152.8224931875
 10
259.4147415583
 20
153.265598004
 10
259.2591880772
 20
153.6394713667
 10
259.0325038867
 20
153.9313795877
 10
258.7424044942
 20
154.1313811724
 10
258.3987733357
 20
154.2326660085
 10
258.013308796
 20
154.2317865805
 10
257.5991396182
 20
154.1287705541
 10
257.1703691916
 20
153.9271269027
 10
256.7415961308
 20
153.6337212363
 10
256.327426953
 20
153.2585477085
 10
255.9419650474
 20
152.8143807727
 10
255.5983312548
 20
152.3163463254
 10
255.3082318623
 20
151.7814031116
 10
255.0815476718
 20
151.2277708951
 10
254.9259941906
 20
150.674299306
 10
254.8468687509
 20
150.1398382014
 10
254.8468687509
 20
149.642588247
 10
254.9259941906
 20
149.1994834305
 10
255.0815476718
 20
148.8256115888
 10
255.3082318623
 20
148.5337033677
 10
255.5983312548
 20
148.3337017831
 10
255.9419650474
 20
148.2324169467
 10
256.327426953
 20
148.2332963749
 10
256.7415961308
 20
148.3363124013
 10
257.1703691916
 20
148.5379575734
  0
LWPOLYLINE
  5
125
330
1F
100
AcDbEntity
  8
0
  6
Continuous
 62
     7
370
    15
100
AcDbPolyline
 90
       54
 70
   128
 43
0.0
 10
300.4001954629
 20
134.3435259765
 10
302.1450279054
 20
135.3960164705
 10
303.8863463543
 20
136.5368304963
 10
305.6206443895
 20
137.7636700739
 10
307.3444287616
 20
139.0740653575
 10
309.0542289411
 20
140.4653740642
 10
310.7466007402
 20
141.9347957324
 10
312.4181361911
 20
143.4793743823
 10
314.0654694727
 20
145.0959958541
 10
315.6852821794
 20
146.781406058
 10
317.2743131986
 20
148.5322105939
 10
318.8293620042
 20
150.3448827351
 10
320.3472965584
 20
152.2157710326
 10
321.8250598976
 20
154.1411092008
 10
323.2596767177
 20
156.1170199184
 10
324.6482573255
 20
158.1395262356
 10
325.9880081751
 20
160.2045515731
 10
327.2762239656
 20
162.3079394946
 10
328.5103179343
 20
164.4454529434
 10
329.6878034171
 20
166.6127848912
 10
330.8063043855
 20
168.8055765876
 10
331.8635738854
 20
171.0194069122
 10
332.8574782328
 20
173.2498182317
 10
333.7860180865
 20
175.4923194398
 10
334.6473231802
 20
177.7423950836
 10
335.4396602246
 20
179.9955144876
 10
336.1614329079
 20
182.2471393591
 10
336.8111871638
 20
184.4927344339
 10
337.3876138058
 20
186.7277781225
 10
337.8895537956
 20
188.9477693538
 10
338.3159929746
 20
191.1482359406
 10
338.6660752351
 20
193.3247482671
 10
338.9390972514
 20
195.4729230909
 10
339.1345058461
 20
197.5884334303
 10
339.2519085268
 20
199.6670188287
 10
339.2910682175
 20
201.7044933404
 10
339.2519085268
 20
203.6967550356
 10
339.1345058461
 20
205.6397901841
 10
338.9390972514
 20
207.5296865623
 10
338.6660752351
 20
209.3626368759
 10
338.3159929746
 20
211.134952828
 10
337.8895537956
 20
212.8430632188
 10
337.3876138058
 20
214.4835268734
 10
336.8111871638
 20
216.0530425273
 10
336.1614329079
 20
217.5484473065
 10
335.4396602246
 20
218.9667311761
 10
334.6473231802
 20
220.305037701
 10
333.7860180865
 20
221.5606716509
 10
332.8574782328
 20
222.7311035636
 10
331.8635738854
 20
223.8139773496
 10
330.8063043855
 20
224.8071102928
 10
329.6878034171
 20
225.7085082592
 10
328.5103179343
 20
226.5163444063
 10
327.897961104
 20
226.8859594541
  0
LWPOLYLINE
  5
126
330
1F
100
AcDbEntity
  8
0
  6
Continuous
 62
     7
370
    15
100
AcDbPolyline
 90
       19
 70
   128
 43
0.0
 10
272.9024298219
 20
131.6205813197
 10
273.5241669603
 20
131.277537486
 10
274.8123827508
 20
130.6614918574
 10
276.1521336004
 20
130.1433099253
 10
277.5407142081
 20
129.7240246523
 10
278.9753310283
 20
129.4044872583
 10
280.4530943675
 20
129.1853383244
 10
281.9710289217
 20
129.0670199585
 10
283.5260777272
 20
129.0497689517
 10
285.1151087465
 20
129.1336205789
 10
286.7349214532
 20
129.3184063178
 10
288.3822547348
 20
129.6037553685
 10
290.0537901857
 20
129.9890904708
 10
291.7461619848
 20
130.4736396904
 10
293.4559621643
 20
131.0564242512
 10
295.1797465364
 20
131.7362680402
 10
296.9140445716
 20
132.5118063522
 10
298.6553630205
 20
133.3814758132
 10
300.4001954629
 20
134.3435259765
  0
LWPOLYLINE
  5
127
330
1F
100
AcDbEntity
  8
0
  6
Continuous
 62
     7
370
    15
100
AcDbPolyline
 90
       50
 70
   128
 43
0.0
 10
311.0968180023
 20
217.3793482788
 10
309.8438540992
 20
217.3977253228
 10
308.4818648602
 20
217.3183524307
 10
307.0894673284
 20
217.1374396832
 10
305.6705416483
 20
216.8554840589
 10
304.2290436966
 20
216.4732787297
 10
302.7689902656
 20
215.9918832138
 10
301.2944514896
 20
215.4126433388
 10
299.8095370156
 20
214.7371710905
 10
298.3183854665
 20
213.9673506976
 10
296.8251529168
 20
213.1053258954
 10
295.3340013678
 20
212.153499356
 10
293.8490868938
 20
211.1145258457
 10
292.3745481177
 20
209.9912994879
 10
290.9144946867
 20
208.7869531943
 10
289.472996735
 20
207.5048404145
 10
288.0540710549
 20
206.1485393198
 10
286.6616735232
 20
204.7218240965
 10
285.2996842841
 20
203.2286776852
 10
283.9718991882
 20
201.6732564199
 10
282.6820185972
 20
200.0598957325
 10
281.433639481
 20
198.3930964654
 10
280.2302402718
 20
196.6775009181
 10
279.0751742782
 20
194.9178920876
 10
277.9716631
 20
193.1191761781
 10
276.9227795058
 20
191.2863620704
 10
275.9314487503
 20
189.4245620821
 10
275.0004327693
 20
187.5389615503
 10
274.1323288621
 20
185.6348211138
 10
273.3295525702
 20
183.717442493
 10
272.5943455789
 20
181.7921745737
 10
271.9287546447
 20
179.864379948
 10
271.334636863
 20
177.939434154
 10
270.8136438635
 20
176.0226998209
 10
270.3672323466
 20
174.1195213452
 10
269.9966430102
 20
172.2352013183
 10
269.7029110862
 20
170.3749936812
 10
269.486855804
 20
168.5440828127
 10
269.3490777563
 20
166.7475711724
 10
269.2899615329
 20
164.9904660871
 10
269.3096730871
 20
163.2776656828
 10
269.408154467
 20
161.6139422498
 10
269.5851317181
 20
160.0039327362
 10
269.8401148832
 20
158.4521272461
 10
270.1723901001
 20
156.9628481275
 10
270.5810327724
 20
155.5402475944
 10
271.0649023009
 20
154.1882900471
 10
271.6226526207
 20
152.9107444658
 10
272.2527269325
 20
151.7111722444
 10
272.7330113447
 20
150.9240876294
  0
LWPOLYLINE
  5
128
330
1F
100
AcDbEntity
  8
0
  6
Continuous
 62
     7
370
    15
100
AcDbPolyline
 90
       56
 70
   128
 43
0.0
 10
314.2629353605
 20
208.1636957163
 10
313.3329203671
 20
208.7327719642
 10
312.3434480242
 20
209.2068377552
 10
311.3020889596
 20
209.5814254199
 10
310.2125020464
 20
209.8552205352
 10
309.0785147455
 20
210.0272615167
 10
307.9041092753
 20
210.0969407613
 10
306.6934114174
 20
210.0640179557
 10
305.4506727349
 20
209.9286052495
 10
304.180259378
 20
209.6911805642
 10
302.8866336443
 20
209.3525769483
 10
301.5743391616
 20
208.9139816286
 10
300.2479855769
 20
208.3769408588
 10
298.9122315986
 20
207.7433334007
 10
297.5717691917
 20
207.0153933393
 10
296.2313067848
 20
206.1956684487
 10
294.8955528064
 20
205.2870471906
 10
293.5691992217
 20
204.2927127077
 10
292.256904739
 20
203.2161650685
 10
290.9632790053
 20
202.0611802041
 10
289.6928656485
 20
200.8318168491
 10
288.450126966
 20
199.5323940138
 10
287.239429108
 20
198.1674748265
 10
286.0650236379
 20
196.7418558881
 10
284.9310363369
 20
195.2605410375
 10
283.8414494238
 20
193.7287356499
 10
282.8000903591
 20
192.1518204013
 10
281.8106180162
 20
190.5353341603
 10
280.8765081931
 20
188.8849549772
 10
280.0010404412
 20
187.2064787922
 10
279.1872901636
 20
185.5058011857
 10
278.4381154434
 20
183.7888976069
 10
277.7561491414
 20
182.061797519
 10
277.1437857256
 20
180.3305676702
 10
276.6031773194
 20
178.6012892803
 10
276.1362205309
 20
176.8800359886
 10
275.7445577702
 20
175.1728548417
 10
275.4295640783
 20
173.4857415804
 10
275.1923431756
 20
171.8246208674
 10
275.0337340479
 20
170.1953305076
 10
274.9542898727
 20
168.6035915064
 10
274.9542898727
 20
167.0549949509
 10
275.0337340479
 20
165.554980242
 10
275.1923431756
 20
164.108816083
 10
275.4295640783
 20
162.7215847944
 10
275.7445577702
 20
161.3981555086
 10
276.1362205309
 20
160.1431785597
 10
276.6031773194
 20
158.9610621001
 10
277.1437857256
 20
157.8559568902
 10
277.7561491414
 20
156.8317467919
 10
278.4381154434
 20
155.8920282364
 10
279.1872901636
 20
155.0401033779
 10
280.0010404412
 20
154.2789618434
 10
280.8765081931
 20
153.6112792094
 10
281.8106180162
 20
153.0394002715
 10
282.2968846467
 20
152.7908733939
  0
LWPOLYLINE
  5
129
330
1F
100
AcDbEntity
  8
0
  6
Continuous
 62
     7
370
    15
100
AcDbPolyline
 90
       43
 70
   128
 43
0.0
 10
318.077865256
 20
138.0196189831
 10
319.5325808545
 20
138.9049145221
 10
320.9830294139
 20
139.8786251092
 10
322.4249567366
 20
140.937893324
 10
323.8541336498
 20
142.0796176353
 10
325.2663672007
 20
143.3004436544
 10
326.6575154735
 20
144.5967909403
 10
328.023498785
 20
145.9648594625
 10
329.3603092333
 20
147.4006351136
 10
330.6640271616
 20
148.8999083387
 10
331.9308270848
 20
150.4582775574
 10
333.1569934947
 20
152.0711734968
 10
334.3389307384
 20
153.7338679359
 10
335.4731722375
 20
155.4414820703
 10
336.5563897082
 20
157.1890055221
 10
337.5854063317
 20
158.9713145906
 10
338.5572033399
 20
160.7831806161
 10
339.4689318695
 20
162.6192905118
 10
340.3179169124
 20
164.474256649
 10
341.1016665364
 20
166.3426373892
 10
341.8178837383
 20
168.2189545732
 10
342.464469078
 20
170.0977056885
 10
343.0395233132
 20
171.9733767969
 10
343.5413605701
 20
173.840468389
 10
343.968508343
 20
175.6935022282
 10
344.3197153975
 20
177.5270449247
 10
344.5939517699
 20
179.3357189617
 10
344.7904087675
 20
181.1142156237
 10
344.9085147737
 20
182.8573212307
 10
344.9479220771
 20
184.5599224629
 10
344.9085147737
 20
186.2170249911
 10
344.7904087675
 20
187.8237683058
 10
344.5939517699
 20
189.3754405465
 10
344.3197153975
 20
190.8674880075
 10
343.968508343
 20
192.2955356701
 10
343.5413605701
 20
193.6553951882
 10
343.0395233132
 20
194.9430778166
 10
342.464469078
 20
196.1548054374
 10
341.8178837383
 20
197.2870250099
 10
341.1016665364
 20
198.3364154143
 10
340.3179169124
 20
199.2998980998
 10
339.4689318695
 20
200.1746469709
 10
339.2737616678
 20
200.3548197038
  0
LWPOLYLINE
  5
12A
330
1F
100
AcDbEntity
  8
0
  6
Continuous
 62
     7
370
    15
100
AcDbPolyline
 90
       14
 70
   128
 43
0.0
 10
301.5666503252
 20
135.0371103758
 10
301.8167997737
 20
134.9592413592
 10
302.9987370174
 20
134.6611826145
 10
304.2249034273
 20
134.463988278
 10
305.4917033505
 20
134.3682351179
 10
306.7954212787
 20
134.3742025728
 10
308.1322317271
 20
134.4818754122
 10
309.4982150386
 20
134.6909376512
 10
310.8893633114
 20
135.0007759725
 10
312.3015968622
 20
135.4104801044
 10
313.7307737754
 20
135.9188483339
 10
315.1727010981
 20
136.5243939693
 10
316.6231496575
 20
137.2253356429
 10
318.077865256
 20
138.0196189831
  0
ARC
  5
12B
330
1F
100
AcDbEntity
  8
0
  6
Continuous
 62
     7
370
    15
100
AcDbCircle
 10
349.3404129551
 20
151.0006851817
 30
0.0
 40
56.35487387974186
100
AcDbArc
 50
129.4483802788
 51
170.5569971957
  0
LWPOLYLINE
  5
12C
330
1F
100
AcDbEntity
  8
0
  6
Continuous
 62
     7
370
    15
100
AcDbPolyline
 90
       51
 70
   128
 43
0.0
 10
314.2969847458
 20
207.8965403837
 10
314.1305152309
 20
207.948609689
 10
313.0409283177
 20
208.2224048042
 10
311.9069410167
 20
208.3944457858
 10
310.7325355466
 20
208.4641250303
 10
309.5218376886
 20
208.4312022247
 10
308.2790990062
 20
208.2957895185
 10
307.0086856493
 20
208.0583648332
 10
305.7150599156
 20
207.7197612174
 10
304.4027654329
 20
207.2811658976
 10
303.0764118482
 20
206.7441251278
 10
301.7406578699
 20
206.1105176698
 10
300.4001954629
 20
205.3825776083
 10
299.059733056
 20
204.5628527177
 10
297.7239790777
 20
203.6542314597
 10
296.397625493
 20
202.6598969768
 10
295.0853310103
 20
201.5833493376
 10
293.7917052766
 20
200.4283644732
 10
292.5212919197
 20
199.1990011181
 10
291.2785532373
 20
197.8995782829
 10
290.0678553793
 20
196.5346590956
 10
288.8934499091
 20
195.1090401572
 10
287.7594626082
 20
193.6277253066
 10
286.669875695
 20
192.0959199189
 10
285.6285166304
 20
190.5190046704
 10
284.6390442875
 20
188.9025184294
 10
283.7049344643
 20
187.2521392462
 10
282.8294667125
 20
185.5736630613
 10
282.0157164349
 20
183.8729854548
 10
281.2665417146
 20
182.156081876
 10
280.5845754127
 20
180.428981788
 10
279.9722119969
 20
178.6977519392
 10
279.4316035906
 20
176.9684735494
 10
278.9646468022
 20
175.2472202576
 10
278.5729840415
 20
173.5400391108
 10
278.2579903495
 20
171.8529258495
 10
278.0207694469
 20
170.1918051365
 10
277.8621603192
 20
168.5625147767
 10
277.7827161439
 20
166.9707757754
 10
277.7827161439
 20
165.4221792199
 10
277.8621603192
 20
163.9221645111
 10
278.0207694469
 20
162.4760003521
 10
278.2579903495
 20
161.0887690634
 10
278.5729840415
 20
159.7653397776
 10
278.9646468022
 20
158.5103628288
 10
279.4316035906
 20
157.3282463692
 10
279.9722119969
 20
156.2231411592
 10
280.5845754127
 20
155.198931061
 10
281.2665417146
 20
154.2592125054
 10
282.0157164349
 20
153.407287647
 10
282.5452639276
 20
152.894987873
  0
LINE
  5
12D
330
1F
100
AcDbEntity
  8
0
  6
Continuous
 62
     7
370
    15
100
AcDbLine
 10
101.8525221508
 20
204.4940711782
 30
0.0
 11
101.8525221508
 21
229.4940715507
 31
0.0
  0
LINE
  5
12E
330
1F
100
AcDbEntity
  8
0
  6
Continuous
 62
     7
370
    15
100
AcDbLine
 10
101.8525221508
 20
229.4940715507
 30
0.0
 11
84.8525212269
 21
229.4940715507
 31
0.0
  0
LINE
  5
12F
330
1F
100
AcDbEntity
  8
0
  6
Continuous
 62
     7
370
    15
100
AcDbLine
 10
84.8525212269
 20
229.4940715507
 30
0.0
 11
84.8525212269
 21
249.4940729663
 31
0.0
  0
LINE
  5
130
330
1F
100
AcDbEntity
  8
0
  6
Continuous
 62
     7
370
    15
100
AcDbLine
 10
84.8525212269
 20
249.4940729663
 30
0.0
 11
99.852521823
 21
249.4940729663
 31
0.0
  0
LINE
  5
131
330
1F
100
AcDbEntity
  8
0
  6
Continuous
 62
     7
370
    15
100
AcDbLine
 10
99.852521823
 20
249.4940729663
 30
0.0
 11
99.852521823
 21
233.4940703437
 31
0.0
  0
LINE
  5
132
330
1F
100
AcDbEntity
  8
0
  6
Continuous
 62
     7
370
    15
100
AcDbLine
 10
99.852521823
 20
233.4940703437
 30
0.0
 11
107.852519409
 21
233.4940703437
 31
0.0
  0
LINE
  5
133
330
1F
100
AcDbEntity
  8
0
  6
Continuous
 62
     7
370
    15
100
AcDbLine
 10
107.852519409
 20
233.4940703437
 30
0.0
 11
107.852519409
 21
229.4940715507
 31
0.0
  0
LINE
  5
134
330
1F
100
AcDbEntity
  8
0
  6
Continuous
 62
     7
370
    15
100
AcDbLine
 10
107.852519409
 20
229.4940715507
 30
0.0
 11
104.8525207799
 21
229.4940715507
 31
0.0
  0
LINE
  5
135
330
1F
100
AcDbEntity
  8
0
  6
Continuous
 62
     7
370
    15
100
AcDbLine
 10
104.8525207799
 20
229.4940715507
 30
0.0
 11
104.8525207799
 21
204.4940711782
 31
0.0
  0
LINE
  5
136
330
1F
100
AcDbEntity
  8
0
  6
Continuous
 62
     7
370
    15
100
AcDbLine
 10
104.8525207799
 20
204.4940711782
 30
0.0
 11
101.8525221508
 21
204.4940711782
 31
0.0
  0
LINE
  5
137
330
1F
100
AcDbEntity
  8
0
  6
Continuous
 62
     7
370
    15
100
AcDbLine
 10
179.8525200348
 20
233.4940703437
 30
0.0
 11
179.8525200348
 21
249.4940729663
 31
0.0
  0
LINE
  5
138
330
1F
100
AcDbEntity
  8
0
  6
Continuous
 62
     7
370
    15
100
AcDbLine
 10
179.8525200348
 20
249.4940729663
 30
0.0
 11
99.852521823
 21
249.4940729663
 31
0.0
  0
LINE
  5
139
330
1F
100
AcDbEntity
  8
0
  6
Continuous
 62
     7
370
    15
100
AcDbLine
 10
171.8525224488
 20
229.4940715507
 30
0.0
 11
171.8525224488
 21
233.4940703437
 31
0.0
  0
LINE
  5
13A
330
1F
100
AcDbEntity
  8
0
  6
Continuous
 62
     7
370
    15
100
AcDbLine
 10
171.8525224488
 20
229.4940715507
 30
0.0
 11
107.852519409
 21
229.4940715507
 31
0.0
  0
LINE
  5
13B
330
1F
100
AcDbEntity
  8
0
  6
Continuous
 62
     7
370
    15
100
AcDbLine
 10
171.8525224488
 20
233.4940703437
 30
0.0
 11
107.852519409
 21
233.4940703437
 31
0.0
  0
LINE
  5
13C
330
1F
100
AcDbEntity
  8
0
  6
Continuous
 62
     7
370
    15
100
AcDbLine
 10
177.852519707
 20
229.4940715507
 30
0.0
 11
177.852519707
 21
204.4940711782
 31
0.0
  0
LINE
  5
13D
330
1F
100
AcDbEntity
  8
0
  6
Continuous
 62
     7
370
    15
100
AcDbLine
 10
194.8525206309
 20
249.4940729663
 30
0.0
 11
194.8525206309
 21
229.4940715507
 31
0.0
  0
LINE
  5
13E
330
1F
100
AcDbEntity
  8
0
  6
Continuous
 62
     7
370
    15
100
AcDbLine
 10
174.8525210779
 20
204.4940711782
 30
0.0
 11
174.8525210779
 21
229.4940715507
 31
0.0
  0
LINE
  5
13F
330
1F
100
AcDbEntity
  8
0
  6
Continuous
 62
     7
370
    15
100
AcDbLine
 10
174.8525210779
 20
204.4940711782
 30
0.0
 11
104.8525207799
 21
204.4940711782
 31
0.0
  0
LINE
  5
140
330
1F
100
AcDbEntity
  8
0
  6
Continuous
 62
     7
370
    15
100
AcDbLine
 10
177.852519707
 20
204.4940711782
 30
0.0
 11
174.8525210779
 21
204.4940711782
 31
0.0
  0
LINE
  5
141
330
1F
100
AcDbEntity
  8
0
  6
Continuous
 62
     7
370
    15
100
AcDbLine
 10
174.8525210779
 20
229.4940715507
 30
0.0
 11
171.8525224488
 21
229.4940715507
 31
0.0
  0
LINE
  5
142
330
1F
100
AcDbEntity
  8
0
  6
Continuous
 62
     7
370
    15
100
AcDbLine
 10
179.8525200348
 20
249.4940729663
 30
0.0
 11
194.8525206309
 21
249.4940729663
 31
0.0
  0
LINE
  5
143
330
1F
100
AcDbEntity
  8
0
  6
Continuous
 62
     7
370
    15
100
AcDbLine
 10
194.8525206309
 20
229.4940715507
 30
0.0
 11
177.852519707
 21
229.4940715507
 31
0.0
  0
LINE
  5
144
330
1F
100
AcDbEntity
  8
0
  6
Continuous
 62
     7
370
    15
100
AcDbLine
 10
171.8525224488
 20
233.4940703437
 30
0.0
 11
179.8525200348
 21
233.4940703437
 31
0.0
  0
HATCH
  5
145
330
1F
100
AcDbEntity
  8
0
  6
Continuous
 62
     7
370
     0
100
AcDbHatch
 10
0.0
 20
0.0
 30
0.0
210
0.0
220
0.0
230
1.0
  2
ANSI32
 70
     0
 71
     0
 91
        1
 92
        0
 93
       10
 72
     1
 10
101.8525209289088
 20
204.4940711781855
 11
104.8525209289088
 21
204.4940711781855
 72
     1
 10
104.8525209289088
 20
204.4940711781855
 11
104.8525209289087
 21
229.4940711781854
 72
     1
 10
104.8525209289087
 20
229.4940711781854
 11
107.8525209289088
 21
229.4940711781854
 72
     1
 10
107.8525209289088
 20
229.4940711781854
 11
107.8525209289088
 21
233.4940711781854
 72
     1
 10
107.8525209289088
 20
233.4940711781854
 11
99.85252092890882
 21
233.4940711781854
 72
     1
 10
99.85252092890882
 20
233.4940711781854
 11
99.85252092890882
 21
249.4940711781854
 72
     1
 10
99.85252092890882
 20
249.4940711781854
 11
84.85252092890883
 21
249.4940711781854
 72
     1
 10
84.85252092890883
 20
249.4940711781854
 11
84.85252092890863
 21
229.4940711781854
 72
     1
 10
84.85252092890863
 20
229.4940711781854
 11
101.8525209289088
 21
229.4940711781854
 72
     1
 10
101.8525209289088
 20
229.4940711781854
 11
101.8525209289088
 21
204.4940711781855
 97
        0
 75
     0
 76
     1
 52
0.0
 41
1.0
 77
     0
 78
     2
 53
45.0
 43
0.0
 44
0.0
 45
-6.735192090801865
 46
6.735192090801866
 79
     0
 53
45.0
 43
4.49013
 44
0.0
 45
-6.735192090801865
 46
6.735192090801866
 79
     0
 98
        1
 10
0.0
 20
0.0
  0
HATCH
  5
146
330
1F
100
AcDbEntity
  8
0
  6
Continuous
 62
     7
370
     0
100
AcDbHatch
 10
0.0
 20
0.0
 30
0.0
210
0.0
220
0.0
230
1.0
  2
ANSI32
 70
     0
 71
     0
 91
        1
 92
        0
 93
       10
 72
     1
 10
174.8525209289088
 20
204.4940711781855
 11
177.8525209289088
 21
204.4940711781855
 72
     1
 10
177.8525209289088
 20
204.4940711781855
 11
177.8525209289088
 21
229.4940711781854
 72
     1
 10
177.8525209289088
 20
229.4940711781854
 11
194.852520928909
 21
229.4940711781854
 72
     1
 10
194.852520928909
 20
229.4940711781854
 11
194.8525209289088
 21
249.4940711781854
 72
     1
 10
194.8525209289088
 20
249.4940711781854
 11
179.8525209289088
 21
249.4940711781854
 72
     1
 10
179.8525209289088
 20
249.4940711781854
 11
179.8525209289088
 21
233.4940711781854
 72
     1
 10
179.8525209289088
 20
233.4940711781854
 11
171.8525209289088
 21
233.4940711781854
 72
     1
 10
171.8525209289088
 20
233.4940711781854
 11
171.8525209289088
 21
229.4940711781854
 72
     1
 10
171.8525209289088
 20
229.4940711781854
 11
174.852520928909
 21
229.4940711781854
 72
     1
 10
174.852520928909
 20
229.4940711781854
 11
174.8525209289088
 21
204.4940711781855
 97
        0
 75
     0
 76
     1
 52
0.0
 41
1.0
 77
     0
 78
     2
 53
45.0
 43
0.0
 44
0.0
 45
-6.735192090801865
 46
6.735192090801866
 79
     0
 53
45.0
 43
4.49013
 44
0.0
 45
-6.735192090801865
 46
6.735192090801866
 79
     0
 98
        1
 10
0.0
 20
0.0
  0
DIMENSION
  5
147
330
1F
100
AcDbEntity
  8
0
  6
Continuous
 62
     7
370
     0
100
AcDbDimension
  2
*D11
 10
174.8525209289
 20
194.4940711782
 30
0.0
 11
139.2761228396
 21
194.4940711782
 31
0.0
 70
   160
  1
%%c<>
 71
     2
 42
-1.0
  3
SLDDIMSTYLE3
100
AcDbAlignedDimension
 13
104.8525209289
 23
204.4940711782
 33
0.0
 14
174.8525209289
 24
204.4940711782
 34
0.0
 50
0.0
100
AcDbRotatedDimension
  0
DIMENSION
  5
158
330
1F
100
AcDbEntity
  8
0
  6
Continuous
 62
     7
370
     0
100
AcDbDimension
  2
*D12
 10
222.4275209289
 20
204.4940711782
 30
0.0
 11
222.4275209289
 21
219.2080146212
 31
0.0
 70
   160
 71
     2
 42
-1.0
  3
SLDDIMSTYLE4
100
AcDbAlignedDimension
 13
174.8525209289
 23
229.4940711782
 33
0.0
 14
177.8525209289
 24
204.4940711782
 34
0.0
 50
90.0
100
AcDbRotatedDimension
  0
DIMENSION
  5
163
330
1F
100
AcDbEntity
  8
0
  6
Continuous
 62
     7
370
     0
100
AcDbDimension
  2
*D13
 10
75.2775209289
 20
233.4940711782
 30
0.0
 11
75.2775209289
 21
269.2385159523
 31
0.0
 70
   160
 71
     2
 42
-1.0
  3
SLDDIMSTYLE5
100
AcDbAlignedDimension
 13
104.8525209289
 23
229.4940711782
 33
0.0
 14
99.8525209289
 24
233.4940711782
 34
0.0
 50
90.0
100
AcDbRotatedDimension
  0
DIMENSION
  5
170
330
1F
100
AcDbEntity
  8
0
  6
Continuous
 62
     7
370
     0
100
AcDbDimension
  2
*D14
 10
215.2758437996
 20
249.4940711782
 30
0.0
 11
215.2758437996
 21
239.2519211141
 31
0.0
 70
   160
 71
     2
 42
-1.0
  3
SLDDIMSTYLE5
100
AcDbAlignedDimension
 13
174.8525209289
 23
229.4940711782
 33
0.0
 14
194.8525209289
 24
249.4940711782
 34
0.0
 50
90.0
100
AcDbRotatedDimension
  0
DIMENSION
  5
17C
330
1F
100
AcDbEntity
  8
0
  6
Continuous
 62
     7
370
     0
100
AcDbDimension
  2
*D15
 10
179.8525209289
 20
265.4940711782
 30
0.0
 11
139.8525209289
 21
265.4940711782
 31
0.0
 70
   160
  1
%%c<>N7
 71
     2
 42
-1.0
  3
SLDDIMSTYLE6
100
AcDbAlignedDimension
 13
99.8525209289
 23
249.4940711782
 33
0.0
 14
179.8525209289
 24
249.4940711782
 34
0.0
100
AcDbRotatedDimension
  0
DIMENSION
  5
189
330
1F
100
AcDbEntity
  8
0
  6
Continuous
 62
     7
370
     0
100
AcDbDimension
  2
*D16
 10
171.8525209289
 20
258.4940711782
 30
0.0
 11
139.8525209289
 21
258.4940711782
 31
0.0
 70
   160
  1
%%c<>
 71
     2
 42
-1.0
  3
SLDDIMSTYLE4
100
AcDbAlignedDimension
 13
107.8525209289
 23
233.4940711782
 33
0.0
 14
171.8525209289
 24
233.4940711782
 34
0.0
100
AcDbRotatedDimension
  0
INSERT
  5
19A
330
1F
100
AcDbEntity
  8
0
  6
Continuous
 62
     7
370
     0
100
AcDbBlockReference
  2
SW_NOTE_3
 10
125.0959042847
 20
186.6002940048
 30
0.0
  0
INSERT
  5
1A6
330
1F
100
AcDbEntity
  8
0
  6
Continuous
 62
     7
370
     0
100
AcDbBlockReference
  2
SW_DATUMTAG_2
 10
44.5918693074
 20
174.5584469655
 30
0.0
  0
ENDSEC
  0
SECTION
  2
OBJECTS
  0
DICTIONARY
  5
C
330
0
100
AcDbDictionary
281
     1
  3
ACAD_GROUP
350
D
  3
ACAD_IMAGE_DICT
350
45
  3
ACAD_LAYOUT
350
1A
  3
ACAD_MLINESTYLE
350
17
  3
ACAD_PLOTSETTINGS
350
19
  3
ACAD_PLOTSTYLENAME
350
E
  0
IMAGEDEF_REACTOR
  5
48
330
47
100
AcDbRasterImageDefReactor
 90
        2
330
47
  0
DICTIONARY
  5
D
102
{ACAD_REACTORS
330
C
102
}
330
C
100
AcDbDictionary
281
     1
  0
DICTIONARY
  5
45
102
{ACAD_REACTORS
330
C
102
}
330
C
100
AcDbDictionary
281
     1
  3
J:\Ingenierie\HOWIT\Prototype-2013\Plans\dxf186.bmp
350
46
  0
DICTIONARY
  5
1A
102
{ACAD_REACTORS
330
C
102
}
330
C
100
AcDbDictionary
281
     1
  3
Layout1
350
1E
  3
Layout2
350
26
  3
Model
350
22
  0
DICTIONARY
  5
17
102
{ACAD_REACTORS
330
C
102
}
330
C
100
AcDbDictionary
281
     1
  3
Standard
350
18
  0
DICTIONARY
  5
19
102
{ACAD_REACTORS
330
C
102
}
330
C
100
AcDbDictionary
281
     1
  0
ACDBDICTIONARYWDFLT
  5
E
102
{ACAD_REACTORS
330
C
102
}
330
C
100
AcDbDictionary
281
     1
  3
Normal
350
F
100
AcDbDictionaryWithDefault
340
F
  0
IMAGEDEF
  5
46
102
{ACAD_REACTORS
330
45
330
48
102
}
330
45
100
AcDbRasterImageDef
 90
        0
  1
J:\Ingenierie\HOWIT\Prototype-2013\Plans\dxf186.bmp
 10
400.0
 20
420.0
 11
0.2645502645502645
 21
0.2645502645502645
280
     1
281
     3
  0
LAYOUT
  5
1E
102
{ACAD_REACTORS
330
1A
102
}
330
1A
100
AcDbPlotSettings
  1

  2
none_device
  4

  6

 40
0.0
 41
0.0
 42
0.0
 43
0.0
 44
0.0
 45
0.0
 46
0.0
 47
0.0
 48
0.0
 49
0.0
140
0.0
141
0.0
142
1.0
143
1.0
 70
   688
 72
     0
 73
     0
 74
     5
  7

 75
    16
147
1.0
148
0.0
149
0.0
100
AcDbLayout
  1
Layout1
 70
     1
 71
     1
 10
0.0
 20
0.0
 11
420.0
 21
297.0
 12
0.0
 22
0.0
 32
0.0
 14
1.0000000000E+20
 24
1.0000000000E+20
 34
1.0000000000E+20
 15
-1.0000000000E+20
 25
-1.0000000000E+20
 35
-1.0000000000E+20
146
0.0
 13
0.0
 23
0.0
 33
0.0
 16
1.0
 26
0.0
 36
0.0
 17
0.0
 27
1.0
 37
0.0
 76
     0
330
1B
  0
LAYOUT
  5
26
102
{ACAD_REACTORS
330
1A
102
}
330
1A
100
AcDbPlotSettings
  1

  2
none_device
  4

  6

 40
0.0
 41
0.0
 42
0.0
 43
0.0
 44
0.0
 45
0.0
 46
0.0
 47
0.0
 48
0.0
 49
0.0
140
0.0
141
0.0
142
1.0
143
1.0
 70
   688
 72
     0
 73
     0
 74
     5
  7

 75
    16
147
1.0
148
0.0
149
0.0
100
AcDbLayout
  1
Layout2
 70
     1
 71
     2
 10
0.0
 20
0.0
 11
0.0
 21
0.0
 12
0.0
 22
0.0
 32
0.0
 14
0.0
 24
0.0
 34
0.0
 15
0.0
 25
0.0
 35
0.0
146
0.0
 13
0.0
 23
0.0
 33
0.0
 16
1.0
 26
0.0
 36
0.0
 17
0.0
 27
1.0
 37
0.0
 76
     0
330
23
  0
LAYOUT
  5
22
102
{ACAD_REACTORS
330
1A
102
}
330
1A
100
AcDbPlotSettings
  1

  2
none_device
  4

  6

 40
0.0
 41
0.0
 42
0.0
 43
0.0
 44
0.0
 45
0.0
 46
0.0
 47
0.0
 48
0.0
 49
0.0
140
0.0
141
0.0
142
1.0
143
1.0
 70
  1712
 72
     0
 73
     0
 74
     0
  7

 75
     0
147
1.0
148
0.0
149
0.0
100
AcDbLayout
  1
Model
 70
     1
 71
     0
 10
0.0
 20
0.0
 11
420.0
 21
297.0
 12
0.0
 22
0.0
 32
0.0
 14
0.0
 24
0.0
 34
0.0
 15
420.0
 25
297.0
 35
0.0
146
0.0
 13
0.0
 23
0.0
 33
0.0
 16
1.0
 26
0.0
 36
0.0
 17
0.0
 27
1.0
 37
0.0
 76
     0
330
1F
331
29
  0
MLINESTYLE
  5
18
102
{ACAD_REACTORS
330
17
102
}
330
17
100
AcDbMlineStyle
  2
Standard
 70
     0
  3

 62
   256
 51
90.0
 52
90.0
 71
     2
 49
0.5
 62
   256
  6
BYLAYER
 49
-0.5
 62
   256
  6
BYLAYER
  0
ACDBPLACEHOLDER
  5
F
102
{ACAD_REACTORS
330
E
102
}
330
E
  0
ENDSEC
  0
EOF
