  0
SECTION
  2
HEADER
  9
$ACADVER
  1
AC1015
  9
$ACADMAINTVER
 70
     6
  9
$DWGCODEPAGE
  3
ANSI_1252
  9
$INSBASE
 10
0.0
 20
0.0
 30
0.0
  9
$EXTMIN
 10
0.0
 20
0.0
 30
0.0
  9
$EXTMAX
 10
210.0
 20
297.0
 30
0.0
  9
$LIMMIN
 10
0.0
 20
0.0
  9
$LIMMAX
 10
210.0
 20
297.0
  9
$ORTHOMODE
 70
     0
  9
$REGENMODE
 70
     1
  9
$FILLMODE
 70
     1
  9
$QTEXTMODE
 70
     0
  9
$MIRRTEXT
 70
     1
  9
$LTSCALE
 40
1.0
  9
$ATTMODE
 70
     1
  9
$TEXTSIZE
 40
3.5
  9
$TRACEWID
 40
1.0
  9
$TEXTSTYLE
  7
Standard
  9
$CLAYER
  8
0
  9
$CELTYPE
  6
ByLayer
  9
$CECOLOR
 62
   256
  9
$CELTSCALE
 40
1.0
  9
$DISPSILH
 70
     0
  9
$DIMSCALE
 40
1.0
  9
$DIMASZ
 40
3.302
  9
$DIMEXO
 40
1.0
  9
$DIMDLI
 40
3.75
  9
$DIMRND
 40
0.0
  9
$DIMDLE
 40
0.0
  9
$DIMEXE
 40
1.0
  9
$DIMTP
 40
0.0
  9
$DIMTM
 40
0.0
  9
$DIMTXT
 40
3.5
  9
$DIMCEN
 40
2.5
  9
$DIMTSZ
 40
0.0
  9
$DIMTOL
 70
     0
  9
$DIMLIM
 70
     0
  9
$DIMTIH
 70
     1
  9
$DIMTOH
 70
     1
  9
$DIMSE1
 70
     0
  9
$DIMSE2
 70
     0
  9
$DIMTAD
 70
     1
  9
$DIMZIN
 70
     0
  9
$DIMBLK
  1

  9
$DIMASO
 70
     1
  9
$DIMSHO
 70
     1
  9
$DIMPOST
  1

  9
$DIMAPOST
  1

  9
$DIMALT
 70
     0
  9
$DIMALTD
 70
     3
  9
$DIMALTF
 40
0.0393700787
  9
$DIMLFAC
 40
2.0
  9
$DIMTOFL
 70
     1
  9
$DIMTVP
 40
0.0
  9
$DIMTIX
 70
     0
  9
$DIMSOXD
 70
     0
  9
$DIMSAH
 70
     0
  9
$DIMBLK1
  1

  9
$DIMBLK2
  1

  9
$DIMSTYLE
  2
ISO-25
  9
$DIMCLRD
 70
     0
  9
$DIMCLRE
 70
     0
  9
$DIMCLRT
 70
     0
  9
$DIMTFAC
 40
1.0
  9
$DIMGAP
 40
1.524
  9
$DIMJUST
 70
     0
  9
$DIMSD1
 70
     0
  9
$DIMSD2
 70
     0
  9
$DIMTOLJ
 70
     0
  9
$DIMTZIN
 70
     0
  9
$DIMALTZ
 70
     0
  9
$DIMALTTZ
 70
     0
  9
$DIMUPT
 70
     0
  9
$DIMDEC
 70
     3
  9
$DIMTDEC
 70
     3
  9
$DIMALTU
 70
     2
  9
$DIMALTTD
 70
     3
  9
$DIMTXSTY
  7
Standard
  9
$DIMAUNIT
 70
     0
  9
$DIMADEC
 70
     2
  9
$DIMALTRND
 40
0.0
  9
$DIMAZIN
 70
     0
  9
$DIMDSEP
 70
    44
  9
$DIMATFIT
 70
     3
  9
$DIMFRAC
 70
     0
  9
$DIMLDRBLK
  1

  9
$DIMLUNIT
 70
     2
  9
$DIMLWD
 70
    -2
  9
$DIMLWE
 70
    -2
  9
$DIMTMOVE
 70
     0
  9
$LUNITS
 70
     2
  9
$LUPREC
 70
     2
  9
$SKETCHINC
 40
1.0
  9
$FILLETRAD
 40
10.0
  9
$AUNITS
 70
     0
  9
$AUPREC
 70
     2
  9
$MENU
  1
.
  9
$ELEVATION
 40
0.0
  9
$PELEVATION
 40
0.0
  9
$THICKNESS
 40
0.0
  9
$LIMCHECK
 70
     0
  9
$CHAMFERA
 40
10.0
  9
$CHAMFERB
 40
10.0
  9
$CHAMFERC
 40
20.0
  9
$CHAMFERD
 40
0.0
  9
$SKPOLY
 70
     0
  9
$TDCREATE
 40
2456750.651148438
  9
$TDUCREATE
 40
2456750.609481771
  9
$TDUPDATE
 40
2456750.651148449
  9
$TDUUPDATE
 40
2456750.609481782
  9
$TDINDWG
 40
0.0000000116
  9
$TDUSRTIMER
 40
0.0000000116
  9
$USRTIMER
 70
     1
  9
$ANGBASE
 50
0.0
  9
$ANGDIR
 70
     0
  9
$PDMODE
 70
     0
  9
$PDSIZE
 40
-1.0
  9
$PLINEWID
 40
0.0
  9
$SPLFRAME
 70
     0
  9
$SPLINETYPE
 70
     6
  9
$SPLINESEGS
 70
     8
  9
$HANDSEED
  5
17E
  9
$SURFTAB1
 70
     6
  9
$SURFTAB2
 70
     6
  9
$SURFTYPE
 70
     6
  9
$SURFU
 70
     6
  9
$SURFV
 70
     6
  9
$UCSBASE
  2

  9
$UCSNAME
  2

  9
$UCSORG
 10
0.0
 20
0.0
 30
0.0
  9
$UCSXDIR
 10
1.0
 20
0.0
 30
0.0
  9
$UCSYDIR
 10
0.0
 20
1.0
 30
0.0
  9
$UCSORTHOREF
  2

  9
$UCSORTHOVIEW
 70
     0
  9
$UCSORGTOP
 10
0.0
 20
0.0
 30
0.0
  9
$UCSORGBOTTOM
 10
0.0
 20
0.0
 30
0.0
  9
$UCSORGLEFT
 10
0.0
 20
0.0
 30
0.0
  9
$UCSORGRIGHT
 10
0.0
 20
0.0
 30
0.0
  9
$UCSORGFRONT
 10
0.0
 20
0.0
 30
0.0
  9
$UCSORGBACK
 10
0.0
 20
0.0
 30
0.0
  9
$PUCSBASE
  2

  9
$PUCSNAME
  2

  9
$PUCSORG
 10
0.0
 20
0.0
 30
0.0
  9
$PUCSXDIR
 10
1.0
 20
0.0
 30
0.0
  9
$PUCSYDIR
 10
0.0
 20
1.0
 30
0.0
  9
$PUCSORTHOREF
  2

  9
$PUCSORTHOVIEW
 70
     0
  9
$PUCSORGTOP
 10
0.0
 20
0.0
 30
0.0
  9
$PUCSORGBOTTOM
 10
0.0
 20
0.0
 30
0.0
  9
$PUCSORGLEFT
 10
0.0
 20
0.0
 30
0.0
  9
$PUCSORGRIGHT
 10
0.0
 20
0.0
 30
0.0
  9
$PUCSORGFRONT
 10
0.0
 20
0.0
 30
0.0
  9
$PUCSORGBACK
 10
0.0
 20
0.0
 30
0.0
  9
$USERI1
 70
     0
  9
$USERI2
 70
     0
  9
$USERI3
 70
     0
  9
$USERI4
 70
     0
  9
$USERI5
 70
     0
  9
$USERR1
 40
0.0
  9
$USERR2
 40
0.0
  9
$USERR3
 40
0.0
  9
$USERR4
 40
0.0
  9
$USERR5
 40
0.0
  9
$WORLDVIEW
 70
     1
  9
$SHADEDGE
 70
     3
  9
$SHADEDIF
 70
    70
  9
$TILEMODE
 70
     1
  9
$MAXACTVP
 70
    64
  9
$PINSBASE
 10
0.0
 20
0.0
 30
0.0
  9
$PLIMCHECK
 70
     0
  9
$PEXTMIN
 10
1.0000000000E+20
 20
1.0000000000E+20
 30
1.0000000000E+20
  9
$PEXTMAX
 10
-1.0000000000E+20
 20
-1.0000000000E+20
 30
-1.0000000000E+20
  9
$PLIMMIN
 10
0.0
 20
0.0
  9
$PLIMMAX
 10
420.0
 20
297.0
  9
$UNITMODE
 70
     0
  9
$VISRETAIN
 70
     1
  9
$PLINEGEN
 70
     0
  9
$PSLTSCALE
 70
     1
  9
$TREEDEPTH
 70
  3020
  9
$CMLSTYLE
  2
Standard
  9
$CMLJUST
 70
     0
  9
$CMLSCALE
 40
20.0
  9
$PROXYGRAPHICS
 70
     1
  9
$MEASUREMENT
 70
     1
  9
$CELWEIGHT
370
    -1
  9
$ENDCAPS
280
     0
  9
$JOINSTYLE
280
     0
  9
$LWDISPLAY
290
     1
  9
$INSUNITS
 70
     4
  9
$HYPERLINKBASE
  1

  9
$STYLESHEET
  1

  9
$XEDIT
290
     1
  9
$CEPSNTYPE
380
     0
  9
$PSTYLEMODE
290
     1
  9
$FINGERPRINTGUID
  2
{52EB4283-A8EE-4E03-8EBC-A9D6B3338234}
  9
$VERSIONGUID
  2
{FAEB1C32-E019-11D5-929B-00C0DF256EC4}
  9
$EXTNAMES
290
     1
  9
$PSVPSCALE
 40
0.0
  9
$OLESTARTUP
290
     0
  0
ENDSEC
  0
SECTION
  2
CLASSES
  0
CLASS
  1
ACDBDICTIONARYWDFLT
  2
AcDbDictionaryWithDefault
  3
ObjectDBX Classes
 90
        0
280
     0
281
     0
  0
CLASS
  1
VISUALSTYLE
  2
AcDbVisualStyle
  3
ObjectDBX Classes
 90
     4095
280
     0
281
     0
  0
CLASS
  1
MATERIAL
  2
AcDbMaterial
  3
ObjectDBX Classes
 90
     1153
280
     0
281
     0
  0
CLASS
  1
IMAGEDEF
  2
AcDbRasterImageDef
  3
ISM
 90
        0
280
     0
281
     0
  0
CLASS
  1
IMAGE
  2
AcDbRasterImage
  3
ISM
 90
      127
280
     0
281
     1
  0
CLASS
  1
IMAGEDEF_REACTOR
  2
AcDbRasterImageDefReactor
  3
ISM
 90
        1
280
     0
281
     0
  0
CLASS
  1
ACDBPLACEHOLDER
  2
AcDbPlaceHolder
  3
ObjectDBX Classes
 90
        0
280
     0
281
     0
  0
CLASS
  1
LAYOUT
  2
AcDbLayout
  3
ObjectDBX Classes
 90
        0
280
     0
281
     0
  0
ENDSEC
  0
SECTION
  2
TABLES
  0
TABLE
  2
VPORT
  5
8
330
0
100
AcDbSymbolTable
 70
     1
  0
VPORT
  5
29
330
8
100
AcDbSymbolTableRecord
100
AcDbViewportTableRecord
  2
*Active
 70
     0
 10
0.0
 20
0.0
 11
1.0
 21
1.0
 12
105.0
 22
148.5
 13
0.0
 23
0.0
 14
10.0
 24
10.0
 15
10.0
 25
10.0
 16
0.0
 26
0.0
 36
1.0
 17
0.0
 27
0.0
 37
0.0
 40
297.0
 41
0.7070707071
 42
50.0
 43
0.0
 44
0.0
 50
0.0
 51
0.0
 71
     0
 72
  2000
 73
     1
 74
     3
 75
     0
 76
     0
 77
     0
 78
     0
281
     0
 65
     1
110
0.0
120
0.0
130
0.0
111
1.0
121
0.0
131
0.0
112
0.0
122
1.0
132
0.0
 79
     0
146
0.0
  0
ENDTAB
  0
TABLE
  2
LTYPE
  5
5
330
0
100
AcDbSymbolTable
 70
     6
  0
LTYPE
  5
14
330
5
100
AcDbSymbolTableRecord
100
AcDbLinetypeTableRecord
  2
ByBlock
 70
     0
  3

 72
    65
 73
     0
 40
0.0
  0
LTYPE
  5
15
330
5
100
AcDbSymbolTableRecord
100
AcDbLinetypeTableRecord
  2
ByLayer
 70
     0
  3

 72
    65
 73
     0
 40
0.0
  0
LTYPE
  5
16
330
5
100
AcDbSymbolTableRecord
100
AcDbLinetypeTableRecord
  2
Continuous
 70
     0
  3
Solid line
 72
    65
 73
     0
 40
0.0
  0
LTYPE
  5
3F
330
5
100
AcDbSymbolTableRecord
100
AcDbLinetypeTableRecord
  2
HIDDEN
 70
     0
  3
Hidden __ __ __ __ __ __ __ __ __ __ __ __ __ __
 72
    65
 73
     2
 40
1.905
 49
1.27
 74
     0
 49
-0.635
 74
     0
  0
LTYPE
  5
40
330
5
100
AcDbSymbolTableRecord
100
AcDbLinetypeTableRecord
  2
PHANTOM
 70
     0
  3
Phantom ______  __  __  ______  __  __  ______
 72
    65
 73
     6
 40
12.7
 49
6.35
 74
     0
 49
-1.27
 74
     0
 49
1.27
 74
     0
 49
-1.27
 74
     0
 49
1.27
 74
     0
 49
-1.27
 74
     0
  0
LTYPE
  5
41
330
5
100
AcDbSymbolTableRecord
100
AcDbLinetypeTableRecord
  2
CENTER
 70
     0
  3
Center ____ _ ____ _ ____ _ ____ _ ____ _ ____
 72
    65
 73
     4
 40
10.16
 49
6.35
 74
     0
 49
-1.27
 74
     0
 49
1.27
 74
     0
 49
-1.27
 74
     0
  0
LTYPE
  5
42
330
5
100
AcDbSymbolTableRecord
100
AcDbLinetypeTableRecord
  2
CENTERX2
 70
     0
  3
Center (2x) ________  __  ________  __  _____
 72
    65
 73
     4
 40
20.32
 49
12.7
 74
     0
 49
-2.54
 74
     0
 49
2.54
 74
     0
 49
-2.54
 74
     0
  0
LTYPE
  5
43
330
5
100
AcDbSymbolTableRecord
100
AcDbLinetypeTableRecord
  2
DOT2
 70
     0
  3
Dot (.5x) ........................................
 72
    65
 73
     2
 40
0.635
 49
0.0
 74
     0
 49
-0.635
 74
     0
  0
ENDTAB
  0
TABLE
  2
LAYER
  5
2
330
0
100
AcDbSymbolTable
 70
     2
  0
LAYER
  5
10
330
2
100
AcDbSymbolTableRecord
100
AcDbLayerTableRecord
  2
0
 70
     0
 62
     7
  6
Continuous
370
    -3
390
F
  0
LAYER
  5
44
330
2
100
AcDbSymbolTableRecord
100
AcDbLayerTableRecord
  2
FORMAT
 70
     0
 62
     7
  6
Continuous
370
    -3
390
F
  0
ENDTAB
  0
TABLE
  2
STYLE
  5
3
330
0
100
AcDbSymbolTable
 70
     5
  0
STYLE
  5
11
330
3
100
AcDbSymbolTableRecord
100
AcDbTextStyleTableRecord
  2
Standard
 70
     0
 40
0.0
 41
1.0
 50
0.0
 71
     0
 42
2.5
  3
txt
  4

  0
STYLE
  5
6F
330
3
100
AcDbSymbolTableRecord
100
AcDbTextStyleTableRecord
  2
SLDTEXTSTYLE0
 70
     0
 40
0.0
 41
0.75
 50
0.0
 71
     0
 42
0.2
  3
TXT
  4

  0
STYLE
  5
7B
330
3
100
AcDbSymbolTableRecord
100
AcDbTextStyleTableRecord
  2
SLDTEXTSTYLE1
 70
     0
 40
0.0
 41
0.7
 50
0.0
 71
     0
 42
0.2
  3
TXT
  4

  0
STYLE
  5
98
330
3
100
AcDbSymbolTableRecord
100
AcDbTextStyleTableRecord
  2
SLDTEXTSTYLE2
 70
     0
 40
0.0
 41
0.6875
 50
0.0
 71
     0
 42
0.2
  3
TXT
  4

  0
STYLE
  5
160
330
3
100
AcDbSymbolTableRecord
100
AcDbTextStyleTableRecord
  2
SLDTEXTSTYLE3
 70
     0
 40
0.0
 41
1.0
 50
0.0
 71
     0
 42
0.2
  3
TXT
  4

  0
ENDTAB
  0
TABLE
  2
VIEW
  5
6
330
0
100
AcDbSymbolTable
 70
     0
  0
ENDTAB
  0
TABLE
  2
UCS
  5
7
330
0
100
AcDbSymbolTable
 70
     0
  0
ENDTAB
  0
TABLE
  2
APPID
  5
9
330
0
100
AcDbSymbolTable
 70
     1
  0
APPID
  5
12
330
9
100
AcDbSymbolTableRecord
100
AcDbRegAppTableRecord
  2
ACAD
 70
     0
  0
ENDTAB
  0
TABLE
  2
DIMSTYLE
  5
A
330
0
100
AcDbSymbolTable
 70
     8
100
AcDbDimStyleTable
  0
DIMSTYLE
105
27
330
A
100
AcDbSymbolTableRecord
100
AcDbDimStyleTableRecord
  2
ISO-25
 70
     0
 41
2.5
 42
0.625
 43
3.75
 44
1.25
 73
     0
 74
     0
 77
     1
 78
     8
140
2.5
141
2.5
143
0.0393700787
147
0.625
171
     3
172
     1
178
     0
271
     2
272
     2
274
     3
278
    44
283
     0
284
     8
340
11
  0
DIMSTYLE
105
A0
102
{ACAD_REACTORS
330
9F
102
}
330
A
100
AcDbSymbolTableRecord
100
AcDbDimStyleTableRecord
  2
SLDDIMSTYLE0
 70
     0
 41
3.302
 44
0.0
 45
0.000000001
 73
     0
 74
     0
 77
     1
 78
    12
 79
     3
140
3.5
141
0.0
144
2.0
147
0.875
172
     1
173
     1
178
     0
271
     2
272
     2
276
     2
284
    12
340
6F
341
A1
343
A1
  0
DIMSTYLE
105
FC
102
{ACAD_REACTORS
330
FB
330
108
330
114
330
12B
330
143
102
}
330
A
100
AcDbSymbolTableRecord
100
AcDbDimStyleTableRecord
  2
SLDDIMSTYLE1
 70
     0
 41
3.302
 44
0.0
 45
0.000000001
 73
     0
 74
     0
 77
     1
 78
    12
 79
     3
140
3.5
144
2.0
147
0.875
172
     1
173
     1
178
     0
271
     2
272
     2
276
     2
284
    12
289
     0
340
6F
  0
DIMSTYLE
105
121
102
{ACAD_REACTORS
330
120
102
}
330
A
100
AcDbSymbolTableRecord
100
AcDbDimStyleTableRecord
  2
SLDDIMSTYLE2
 70
     0
 41
3.302
 44
0.0
 45
0.000000001
 73
     0
 74
     0
 77
     1
 78
    12
 79
     3
140
3.5
144
2.0
147
0.875
173
     1
178
     0
271
     2
272
     2
276
     2
284
    12
340
6F
  0
DIMSTYLE
105
138
102
{ACAD_REACTORS
330
137
102
}
330
A
100
AcDbSymbolTableRecord
100
AcDbDimStyleTableRecord
  2
SLDDIMSTYLE3
 70
     0
 41
3.302
 44
0.0
 45
0.000000001
 78
    12
 79
     3
140
3.5
141
0.0
144
2.0
147
0.875
172
     1
173
     1
178
     0
271
     2
272
     2
276
     2
284
    12
340
6F
341
A1
343
A1
  0
DIMSTYLE
105
151
102
{ACAD_REACTORS
330
150
102
}
330
A
100
AcDbSymbolTableRecord
100
AcDbDimStyleTableRecord
  2
SLDDIMSTYLE4
 70
     0
 41
3.302
 44
0.0
 45
0.000000001
 73
     0
 74
     0
 77
     1
 78
    12
 79
     3
140
3.5
144
2.0
147
0.875
172
     1
173
     1
178
     0
271
     2
272
     2
276
     2
284
    12
289
     0
340
6F
  0
DIMSTYLE
105
161
102
{ACAD_REACTORS
330
162
330
165
102
}
330
A
100
AcDbSymbolTableRecord
100
AcDbDimStyleTableRecord
  2
SLDDIMSTYLE5
 70
     0
 41
0.0
 44
0.0
 45
0.000000001
140
3.5
147
0.875
173
     1
178
     0
271
     0
272
     0
276
     2
340
160
341
A1
343
A1
344
A1
  0
DIMSTYLE
105
163
330
A
100
AcDbSymbolTableRecord
100
AcDbDimStyleTableRecord
  2
SLDDIMSTYLE6
 70
     0
 41
3.302
 44
0.0
 45
0.000000001
140
0.0
146
3.302
147
0.0
173
     1
178
     0
271
     0
272
     0
276
     2
340
11
341
A1
343
A1
344
A1
  0
ENDTAB
  0
TABLE
  2
BLOCK_RECORD
  5
1
330
0
100
AcDbSymbolTable
 70
    19
  0
BLOCK_RECORD
  5
1F
330
1
100
AcDbSymbolTableRecord
100
AcDbBlockTableRecord
  2
*Model_Space
340
22
  0
BLOCK_RECORD
  5
1B
330
1
100
AcDbSymbolTableRecord
100
AcDbBlockTableRecord
  2
*Paper_Space
340
1E
  0
BLOCK_RECORD
  5
23
330
1
100
AcDbSymbolTableRecord
100
AcDbBlockTableRecord
  2
*Paper_Space0
340
26
  0
BLOCK_RECORD
  5
6C
330
1
100
AcDbSymbolTableRecord
100
AcDbBlockTableRecord
  2
SW_NOTE_0
340
0
102
{BLKREFS
331
72
102
}
  0
BLOCK_RECORD
  5
86
330
1
100
AcDbSymbolTableRecord
100
AcDbBlockTableRecord
  2
SW_NOTE_1
340
0
102
{BLKREFS
331
8B
102
}
  0
BLOCK_RECORD
  5
92
330
1
100
AcDbSymbolTableRecord
100
AcDbBlockTableRecord
  2
SW_NOTE_2
340
0
102
{BLKREFS
331
9C
102
}
  0
BLOCK_RECORD
  5
A1
330
1
100
AcDbSymbolTableRecord
100
AcDbBlockTableRecord
  2
_NONE
340
0
  0
BLOCK_RECORD
  5
A4
330
1
100
AcDbSymbolTableRecord
100
AcDbBlockTableRecord
  2
*D5
340
0
  0
BLOCK_RECORD
  5
AC
330
1
100
AcDbSymbolTableRecord
100
AcDbBlockTableRecord
  2
SW_CENTERMARKSYMBOL_0
340
0
102
{BLKREFS
331
B7
102
}
  0
BLOCK_RECORD
  5
BF
330
1
100
AcDbSymbolTableRecord
100
AcDbBlockTableRecord
  2
SW_DATUMTAG_0
340
0
102
{BLKREFS
331
CA
102
}
  0
BLOCK_RECORD
  5
CB
330
1
100
AcDbSymbolTableRecord
100
AcDbBlockTableRecord
  2
SW_DATUMTAG_1
340
0
102
{BLKREFS
331
D6
102
}
  0
BLOCK_RECORD
  5
FD
330
1
100
AcDbSymbolTableRecord
100
AcDbBlockTableRecord
  2
*D9
340
0
  0
BLOCK_RECORD
  5
109
330
1
100
AcDbSymbolTableRecord
100
AcDbBlockTableRecord
  2
*D10
340
0
  0
BLOCK_RECORD
  5
115
330
1
100
AcDbSymbolTableRecord
100
AcDbBlockTableRecord
  2
*D11
340
0
  0
BLOCK_RECORD
  5
122
330
1
100
AcDbSymbolTableRecord
100
AcDbBlockTableRecord
  2
*D12
340
0
  0
BLOCK_RECORD
  5
12C
330
1
100
AcDbSymbolTableRecord
100
AcDbBlockTableRecord
  2
*D13
340
0
  0
BLOCK_RECORD
  5
139
330
1
100
AcDbSymbolTableRecord
100
AcDbBlockTableRecord
  2
*D14
340
0
  0
BLOCK_RECORD
  5
144
330
1
100
AcDbSymbolTableRecord
100
AcDbBlockTableRecord
  2
*D15
340
0
  0
BLOCK_RECORD
  5
152
330
1
100
AcDbSymbolTableRecord
100
AcDbBlockTableRecord
  2
*D16
340
0
  0
BLOCK_RECORD
  5
166
330
1
100
AcDbSymbolTableRecord
100
AcDbBlockTableRecord
  2
SW_CENTERMARKSYMBOL_1
340
0
102
{BLKREFS
331
171
102
}
  0
BLOCK_RECORD
  5
172
330
1
100
AcDbSymbolTableRecord
100
AcDbBlockTableRecord
  2
SW_DATUMTAG_2
340
0
102
{BLKREFS
331
17D
102
}
  0
ENDTAB
  0
ENDSEC
  0
SECTION
  2
BLOCKS
  0
BLOCK
  5
20
330
1F
100
AcDbEntity
  8
0
100
AcDbBlockBegin
  2
*Model_Space
 70
     0
 10
0.0
 20
0.0
 30
0.0
  3
*Model_Space
  1

  0
ENDBLK
  5
21
330
1F
100
AcDbEntity
  8
0
100
AcDbBlockEnd
  0
BLOCK
  5
1C
330
1B
100
AcDbEntity
 67
     1
  8
0
100
AcDbBlockBegin
  2
*Paper_Space
 70
     0
 10
0.0
 20
0.0
 30
0.0
  3
*Paper_Space
  1

  0
ENDBLK
  5
1D
330
1B
100
AcDbEntity
 67
     1
  8
0
100
AcDbBlockEnd
  0
BLOCK
  5
24
330
23
100
AcDbEntity
  8
0
100
AcDbBlockBegin
  2
*Paper_Space0
 70
     0
 10
0.0
 20
0.0
 30
0.0
  3
*Paper_Space0
  1

  0
ENDBLK
  5
25
330
23
100
AcDbEntity
  8
0
100
AcDbBlockEnd
  0
BLOCK
  5
6D
330
6C
100
AcDbEntity
  8
0
100
AcDbBlockBegin
  2
SW_NOTE_0
 70
     0
 10
0.0
 20
0.0
 30
0.0
  3
SW_NOTE_0
  1

  0
MTEXT
  5
70
330
6C
100
AcDbEntity
  8
0
  6
Continuous
 62
     0
370
     0
100
AcDbMText
 10
-3.4106583948
 20
0.0
 30
0.0
 40
2.6458333333
 41
0.0
 71
     1
 72
     1
  1
Copyright © 2014 Théophile Bresson, AeroSeeD SAS, Vincent Mauvady, David Vantyghem, Pascal Corradini
  7
SLDTEXTSTYLE0
 11
-3.491481338843133E-15
 21
1.0
 31
0.0
 73
     1
 44
1.0
  0
MTEXT
  5
71
330
6C
100
AcDbEntity
  8
0
  6
Continuous
 62
     0
370
     0
100
AcDbMText
 10
0.1171193403
 20
0.0
 30
0.0
 40
2.6458333333
 41
0.0
 71
     1
 72
     1
  1
Licensed under TAPR Open Hardware Licence (www.tapr.org/OHL)
  7
SLDTEXTSTYLE0
 11
-3.491481338843133E-15
 21
1.0
 31
0.0
 73
     1
 44
1.0
  0
ENDBLK
  5
6E
330
6C
100
AcDbEntity
  8
0
100
AcDbBlockEnd
  0
BLOCK
  5
87
330
86
100
AcDbEntity
  8
0
100
AcDbBlockBegin
  2
SW_NOTE_1
 70
     0
 10
0.0
 20
0.0
 30
0.0
  3
SW_NOTE_1
  1

  0
MTEXT
  5
89
330
86
100
AcDbEntity
  8
0
  6
Continuous
 62
     0
370
     0
100
AcDbMText
 10
0.0
 20
1.9336016097
 30
0.0
 40
1.5
 41
0.0
 71
     1
 72
     1
  1
CASSER LES
  7
SLDTEXTSTYLE0
 73
     1
 44
1.0
  0
MTEXT
  5
8A
330
86
100
AcDbEntity
  8
0
  6
Continuous
 62
     0
370
     0
100
AcDbMText
 10
0.0
 20
-0.5663983345
 30
0.0
 40
1.5
 41
0.0
 71
     1
 72
     1
  1
ANGLES VIFS
  7
SLDTEXTSTYLE0
 73
     1
 44
1.0
  0
ENDBLK
  5
88
330
86
100
AcDbEntity
  8
0
100
AcDbBlockEnd
  0
BLOCK
  5
93
330
92
100
AcDbEntity
  8
0
100
AcDbBlockBegin
  2
SW_NOTE_2
 70
     0
 10
0.0
 20
0.0
 30
0.0
  3
SW_NOTE_2
  1

  0
MTEXT
  5
95
330
92
100
AcDbEntity
  8
0
  6
Continuous
 62
     0
370
     0
100
AcDbMText
 10
0.0
 20
1.9336016097
 30
0.0
 40
1.5
 41
0.0
 71
     1
 72
     1
  1
SAUF INDICATION CONTRAIRE:
  7
SLDTEXTSTYLE0
 73
     1
 44
1.0
  0
MTEXT
  5
96
330
92
100
AcDbEntity
  8
0
  6
Continuous
 62
     0
370
     0
100
AcDbMText
 10
0.0
 20
-0.5663983345
 30
0.0
 40
1.5
 41
0.0
 71
     1
 72
     1
  1
LES COTES SONT EN MILLIMETRES
  7
SLDTEXTSTYLE0
 73
     1
 44
1.0
  0
MTEXT
  5
97
330
92
100
AcDbEntity
  8
0
  6
Continuous
 62
     0
370
     0
100
AcDbMText
 10
0.0
 20
-3.0663982786
 30
0.0
 40
1.5
 41
0.0
 71
     1
 72
     1
  1
ETAT DE SURFACE:
  7
SLDTEXTSTYLE0
 73
     1
 44
1.0
  0
MTEXT
  5
99
330
92
100
AcDbEntity
  8
0
  6
Continuous
 62
     0
370
     0
100
AcDbMText
 10
17.3330735415
 20
-3.0663982786
 30
0.0
 40
1.5
 41
0.0
 71
     1
 72
     1
  1
Ra = 3.2
  7
SLDTEXTSTYLE2
 73
     1
 44
1.0
  0
MTEXT
  5
9A
330
92
100
AcDbEntity
  8
0
  6
Continuous
 62
     0
370
     0
100
AcDbMText
 10
0.0
 20
-5.5663982227
 30
0.0
 40
1.5
 41
0.0
 71
     1
 72
     1
  1
TOLERANCES:
  7
SLDTEXTSTYLE0
 73
     1
 44
1.0
  0
MTEXT
  5
9B
330
92
100
AcDbEntity
  8
0
  6
Continuous
 62
     0
370
     0
100
AcDbMText
 10
1.6624999698
 20
-8.0663981668
 30
0.0
 40
1.5
 41
0.0
 71
     1
 72
     1
  1
Iso 2768 mK
  7
SLDTEXTSTYLE0
 73
     1
 44
1.0
  0
ENDBLK
  5
94
330
92
100
AcDbEntity
  8
0
100
AcDbBlockEnd
  0
BLOCK
  5
A2
330
A1
100
AcDbEntity
  8
0
100
AcDbBlockBegin
  2
_NONE
 70
     0
 10
0.0
 20
0.0
 30
0.0
  3
_NONE
  1

  0
ENDBLK
  5
A3
330
A1
100
AcDbEntity
  8
0
100
AcDbBlockEnd
  0
BLOCK
  5
A5
330
A4
100
AcDbEntity
  8
0
100
AcDbBlockBegin
  2
*D5
 70
     1
 10
0.0
 20
0.0
 30
0.0
  3
*D5
  1

  0
SOLID
  5
A7
330
A4
100
AcDbEntity
  8
0
  6
Continuous
 62
     7
370
     0
100
AcDbTrace
 10
84.1190860133
 20
110.3307004366
 30
0.0
 11
82.1434296667
 21
113.0247772729
 31
0.0
 12
81.425009177
 22
112.3063567832
 32
0.0
 13
81.425009177
 23
112.3063567832
 33
0.0
  0
LINE
  5
A8
330
A4
100
AcDbEntity
  8
0
  6
Continuous
 62
     7
370
     0
100
AcDbLine
 10
84.1190860133
 20
110.3307004366
 30
0.0
 11
68.0837623767
 21
126.3660240732
 31
0.0
  0
LINE
  5
A9
330
A4
100
AcDbEntity
  8
0
  6
Continuous
 62
     7
370
     0
100
AcDbLine
 10
84.1190860133
 20
110.3307004366
 30
0.0
 11
91.1901538252
 21
103.2596326247
 31
0.0
  0
MTEXT
  5
AA
330
A4
100
AcDbEntity
  8
0
  6
Continuous
 62
     7
370
     0
100
AcDbMText
 10
71.2569292248
 20
129.5391909214
 30
-34.45
 40
3.5
 41
0.0
 71
     1
 72
     1
  1
%%c
  7
SLDTEXTSTYLE0
 11
0.7071067811865435
 21
-0.7071067811865516
 31
0.0
 73
     1
 44
1.0
  0
MTEXT
  5
AB
330
A4
100
AcDbEntity
  8
0
  6
Continuous
 62
     7
370
     0
100
AcDbMText
 10
75.027158642
 20
125.8445825817
 30
-34.45
 40
3.5
 41
0.0
 71
     1
 72
     1
  1
20
  7
SLDTEXTSTYLE0
 11
0.7071067811865435
 21
-0.7071067811865516
 31
0.0
 73
     1
 44
1.0
  0
ENDBLK
  5
A6
330
A4
100
AcDbEntity
  8
0
100
AcDbBlockEnd
  0
BLOCK
  5
AD
330
AC
100
AcDbEntity
  8
0
100
AcDbBlockBegin
  2
SW_CENTERMARKSYMBOL_0
 70
     0
 10
0.0
 20
0.0
 30
0.0
  3
SW_CENTERMARKSYMBOL_0
  1

  0
LINE
  5
AF
330
AC
100
AcDbEntity
  8
0
  6
Continuous
 62
     0
370
     0
100
AcDbLine
 10
0.0
 20
0.0
 30
0.0
 11
0.0
 21
1.25
 31
0.0
  0
LINE
  5
B0
330
AC
100
AcDbEntity
  8
0
  6
Continuous
 62
     0
370
     0
100
AcDbLine
 10
0.0
 20
0.0
 30
0.0
 11
-1.25
 21
0.0
 31
0.0
  0
LINE
  5
B1
330
AC
100
AcDbEntity
  8
0
  6
Continuous
 62
     0
370
     0
100
AcDbLine
 10
0.0
 20
0.0
 30
0.0
 11
0.0
 21
-1.25
 31
0.0
  0
LINE
  5
B2
330
AC
100
AcDbEntity
  8
0
  6
Continuous
 62
     0
370
     0
100
AcDbLine
 10
0.0
 20
0.0
 30
0.0
 11
1.25
 21
0.0
 31
0.0
  0
LINE
  5
B3
330
AC
100
AcDbEntity
  8
0
  6
Continuous
 62
     0
370
     0
100
AcDbLine
 10
0.0
 20
2.5
 30
0.0
 11
0.0
 21
6.25
 31
0.0
  0
LINE
  5
B4
330
AC
100
AcDbEntity
  8
0
  6
Continuous
 62
     0
370
     0
100
AcDbLine
 10
-2.5
 20
0.0
 30
0.0
 11
-6.25
 21
0.0
 31
0.0
  0
LINE
  5
B5
330
AC
100
AcDbEntity
  8
0
  6
Continuous
 62
     0
370
     0
100
AcDbLine
 10
0.0
 20
-2.5
 30
0.0
 11
0.0
 21
-6.25
 31
0.0
  0
LINE
  5
B6
330
AC
100
AcDbEntity
  8
0
  6
Continuous
 62
     0
370
     0
100
AcDbLine
 10
2.5
 20
0.0
 30
0.0
 11
6.25
 21
0.0
 31
0.0
  0
ENDBLK
  5
AE
330
AC
100
AcDbEntity
  8
0
100
AcDbBlockEnd
  0
BLOCK
  5
C0
330
BF
100
AcDbEntity
  8
0
100
AcDbBlockBegin
  2
SW_DATUMTAG_0
 70
     0
 10
0.0
 20
0.0
 30
0.0
  3
SW_DATUMTAG_0
  1

  0
LINE
  5
C2
330
BF
100
AcDbEntity
  8
0
  6
Continuous
 62
     0
370
     0
100
AcDbLine
 10
1.7256945139
 20
-41.7597820982
 30
0.0
 11
1.7256945139
 21
-0.7218748298
 31
0.0
  0
LINE
  5
C3
330
BF
100
AcDbEntity
  8
0
  6
Continuous
 62
     0
370
     0
100
AcDbLine
 10
36.5520606277
 20
-41.7597820982
 30
0.0
 11
-0.6743054861
 21
-41.7597820982
 31
0.0
  0
LINE
  5
C4
330
BF
100
AcDbEntity
  8
0
  6
Continuous
 62
     0
370
     0
100
AcDbLine
 10
5.2256945139
 20
-0.7218748298
 30
0.0
 11
-1.7743054861
 21
-0.7218748298
 31
0.0
  0
LINE
  5
C5
330
BF
100
AcDbEntity
  8
0
  6
Continuous
 62
     0
370
     0
100
AcDbLine
 10
-1.7743054861
 20
-0.7218748298
 30
0.0
 11
-1.7743054861
 21
6.2781251702
 31
0.0
  0
LINE
  5
C6
330
BF
100
AcDbEntity
  8
0
  6
Continuous
 62
     0
370
     0
100
AcDbLine
 10
-1.7743054861
 20
6.2781251702
 30
0.0
 11
5.2256945139
 21
6.2781251702
 31
0.0
  0
LINE
  5
C7
330
BF
100
AcDbEntity
  8
0
  6
Continuous
 62
     0
370
     0
100
AcDbLine
 10
5.2256945139
 20
6.2781251702
 30
0.0
 11
5.2256945139
 21
-0.7218748298
 31
0.0
  0
MTEXT
  5
C8
330
BF
100
AcDbEntity
  8
0
  6
Continuous
 62
     0
370
     0
100
AcDbMText
 10
0.0
 20
4.5117370892
 30
-34.5
 40
3.5
 41
0.0
 71
     1
 72
     1
  1
A
  7
SLDTEXTSTYLE0
 73
     1
 44
1.0
  0
SOLID
  5
C9
330
BF
100
AcDbEntity
  8
0
  6
Continuous
 62
     0
370
     0
100
AcDbTrace
 10
3.1256945139
 20
-41.7597820982
 30
0.0
 11
0.3256945139
 21
-41.7597820982
 31
0.0
 12
1.7256945139
 22
-39.3097820982
 32
0.0
 13
1.7256945139
 23
-39.3097820982
 33
0.0
  0
ENDBLK
  5
C1
330
BF
100
AcDbEntity
  8
0
100
AcDbBlockEnd
  0
BLOCK
  5
CC
330
CB
100
AcDbEntity
  8
0
100
AcDbBlockBegin
  2
SW_DATUMTAG_1
 70
     0
 10
0.0
 20
0.0
 30
0.0
  3
SW_DATUMTAG_1
  1

  0
LINE
  5
CE
330
CB
100
AcDbEntity
  8
0
  6
Continuous
 62
     0
370
     0
100
AcDbLine
 10
42.6538121055
 20
2.7781251702
 30
0.0
 11
4.8392361579
 21
2.7781251702
 31
0.0
  0
LINE
  5
CF
330
CB
100
AcDbEntity
  8
0
  6
Continuous
 62
     0
370
     0
100
AcDbLine
 10
42.6538121055
 20
-50.2838779485
 30
0.0
 11
42.6538121055
 21
5.1781251702
 31
0.0
  0
LINE
  5
D0
330
CB
100
AcDbEntity
  8
0
  6
Continuous
 62
     0
370
     0
100
AcDbLine
 10
4.8392361579
 20
-0.7218748298
 30
0.0
 11
-2.1607638421
 21
-0.7218748298
 31
0.0
  0
LINE
  5
D1
330
CB
100
AcDbEntity
  8
0
  6
Continuous
 62
     0
370
     0
100
AcDbLine
 10
-2.1607638421
 20
-0.7218748298
 30
0.0
 11
-2.1607638421
 21
6.2781251702
 31
0.0
  0
LINE
  5
D2
330
CB
100
AcDbEntity
  8
0
  6
Continuous
 62
     0
370
     0
100
AcDbLine
 10
-2.1607638421
 20
6.2781251702
 30
0.0
 11
4.8392361579
 21
6.2781251702
 31
0.0
  0
LINE
  5
D3
330
CB
100
AcDbEntity
  8
0
  6
Continuous
 62
     0
370
     0
100
AcDbLine
 10
4.8392361579
 20
6.2781251702
 30
0.0
 11
4.8392361579
 21
-0.7218748298
 31
0.0
  0
MTEXT
  5
D4
330
CB
100
AcDbEntity
  8
0
  6
Continuous
 62
     0
370
     0
100
AcDbMText
 10
0.0
 20
4.5117370892
 30
-34.5
 40
3.5
 41
0.0
 71
     1
 72
     1
  1
B
  7
SLDTEXTSTYLE0
 73
     1
 44
1.0
  0
SOLID
  5
D5
330
CB
100
AcDbEntity
  8
0
  6
Continuous
 62
     0
370
     0
100
AcDbTrace
 10
42.6538121055
 20
1.3781251702
 30
0.0
 11
42.6538121055
 21
4.1781251702
 31
0.0
 12
40.2038121055
 22
2.7781251702
 32
0.0
 13
40.2038121055
 23
2.7781251702
 33
0.0
  0
ENDBLK
  5
CD
330
CB
100
AcDbEntity
  8
0
100
AcDbBlockEnd
  0
BLOCK
  5
FE
330
FD
100
AcDbEntity
  8
0
100
AcDbBlockBegin
  2
*D9
 70
     1
 10
0.0
 20
0.0
 30
0.0
  3
*D9
  1

  0
SOLID
  5
100
330
FD
100
AcDbEntity
  8
0
  6
Continuous
 62
     7
370
     0
100
AcDbTrace
 10
114.6546199192
 20
213.7665474438
 30
0.0
 11
114.1466199192
 21
210.4645474438
 31
0.0
 12
115.1626199192
 22
210.4645474438
 32
0.0
 13
115.1626199192
 23
210.4645474438
 33
0.0
  0
SOLID
  5
101
330
FD
100
AcDbEntity
  8
0
  6
Continuous
 62
     7
370
     0
100
AcDbTrace
 10
114.6546199192
 20
230.9415474438
 30
0.0
 11
115.1626199192
 21
234.2435474438
 31
0.0
 12
114.1466199192
 22
234.2435474438
 32
0.0
 13
114.1466199192
 23
234.2435474438
 33
0.0
  0
LINE
  5
102
330
FD
100
AcDbEntity
  8
0
  6
Continuous
 62
     7
370
     0
100
AcDbLine
 10
93.6546199192
 20
213.7665474438
 30
0.0
 11
115.6546199192
 21
213.7665474438
 31
0.0
  0
LINE
  5
103
330
FD
100
AcDbEntity
  8
0
  6
Continuous
 62
     7
370
     0
100
AcDbLine
 10
95.3353214948
 20
230.9415474438
 30
0.0
 11
115.6546199192
 21
230.9415474438
 31
0.0
  0
LINE
  5
104
330
FD
100
AcDbEntity
  8
0
  6
Continuous
 62
     7
370
     0
100
AcDbLine
 10
114.6546199192
 20
213.7665474438
 30
0.0
 11
114.6546199192
 21
207.4165474438
 31
0.0
  0
LINE
  5
105
330
FD
100
AcDbEntity
  8
0
  6
Continuous
 62
     7
370
     0
100
AcDbLine
 10
114.6546199192
 20
213.7665474438
 30
0.0
 11
114.6546199192
 21
230.9415474438
 31
0.0
  0
LINE
  5
106
330
FD
100
AcDbEntity
  8
0
  6
Continuous
 62
     7
370
     0
100
AcDbLine
 10
114.6546199192
 20
230.9415474438
 30
0.0
 11
114.6546199192
 21
237.2915474438
 31
0.0
  0
MTEXT
  5
107
330
FD
100
AcDbEntity
  8
0
  6
Continuous
 62
     7
370
     0
100
AcDbMText
 10
110.1428830047
 20
212.4977708541
 30
0.05
 40
3.5
 41
0.0
 71
     1
 72
     1
  1
34,35
  7
SLDTEXTSTYLE0
 11
6.123233995736766E-17
 21
1.0
 31
0.0
 73
     1
 44
1.0
  0
ENDBLK
  5
FF
330
FD
100
AcDbEntity
  8
0
100
AcDbBlockEnd
  0
BLOCK
  5
10A
330
109
100
AcDbEntity
  8
0
100
AcDbBlockBegin
  2
*D10
 70
     1
 10
0.0
 20
0.0
 30
0.0
  3
*D10
  1

  0
SOLID
  5
10C
330
109
100
AcDbEntity
  8
0
  6
Continuous
 62
     7
370
     0
100
AcDbTrace
 10
72.6546199192
 20
213.7665474438
 30
0.0
 11
72.1466199192
 21
210.4645474438
 31
0.0
 12
73.1626199192
 22
210.4645474438
 32
0.0
 13
73.1626199192
 23
210.4645474438
 33
0.0
  0
SOLID
  5
10D
330
109
100
AcDbEntity
  8
0
  6
Continuous
 62
     7
370
     0
100
AcDbTrace
 10
72.6546199192
 20
216.2665474438
 30
0.0
 11
73.1626199192
 21
219.5685474438
 31
0.0
 12
72.1466199192
 22
219.5685474438
 32
0.0
 13
72.1466199192
 23
219.5685474438
 33
0.0
  0
LINE
  5
10E
330
109
100
AcDbEntity
  8
0
  6
Continuous
 62
     7
370
     0
100
AcDbLine
 10
81.6546199192
 20
213.7665474438
 30
0.0
 11
71.6546199192
 21
213.7665474438
 31
0.0
  0
LINE
  5
10F
330
109
100
AcDbEntity
  8
0
  6
Continuous
 62
     7
370
     0
100
AcDbLine
 10
81.6546199192
 20
216.2665474438
 30
0.0
 11
71.6546199192
 21
216.2665474438
 31
0.0
  0
LINE
  5
110
330
109
100
AcDbEntity
  8
0
  6
Continuous
 62
     7
370
     0
100
AcDbLine
 10
72.6546199192
 20
213.7665474438
 30
0.0
 11
72.6546199192
 21
202.1155056824
 31
0.0
  0
LINE
  5
111
330
109
100
AcDbEntity
  8
0
  6
Continuous
 62
     7
370
     0
100
AcDbLine
 10
72.6546199192
 20
213.7665474438
 30
0.0
 11
72.6546199192
 21
216.2665474438
 31
0.0
  0
LINE
  5
112
330
109
100
AcDbEntity
  8
0
  6
Continuous
 62
     7
370
     0
100
AcDbLine
 10
72.6546199192
 20
216.2665474438
 30
0.0
 11
72.6546199192
 21
222.6165474438
 31
0.0
  0
MTEXT
  5
113
330
109
100
AcDbEntity
  8
0
  6
Continuous
 62
     7
370
     0
100
AcDbMText
 10
68.1428830047
 20
202.1155056824
 30
2.5194916291
 40
3.5
 41
0.0
 71
     1
 72
     1
  1
5
  7
SLDTEXTSTYLE0
 11
-1.608122649676637E-16
 21
1.0
 31
0.0
 73
     1
 44
1.0
  0
ENDBLK
  5
10B
330
109
100
AcDbEntity
  8
0
100
AcDbBlockEnd
  0
BLOCK
  5
116
330
115
100
AcDbEntity
  8
0
100
AcDbBlockBegin
  2
*D11
 70
     1
 10
0.0
 20
0.0
 30
0.0
  3
*D11
  1

  0
SOLID
  5
118
330
115
100
AcDbEntity
  8
0
  6
Continuous
 62
     7
370
     0
100
AcDbTrace
 10
66.6546199192
 20
213.7665474438
 30
0.0
 11
67.1626199192
 21
217.0685474438
 31
0.0
 12
66.1466199192
 22
217.0685474438
 32
0.0
 13
66.1466199192
 23
217.0685474438
 33
0.0
  0
SOLID
  5
119
330
115
100
AcDbEntity
  8
0
  6
Continuous
 62
     7
370
     0
100
AcDbTrace
 10
66.6546199192
 20
198.7665474438
 30
0.0
 11
66.1466199192
 21
195.4645474438
 31
0.0
 12
67.1626199192
 22
195.4645474438
 32
0.0
 13
67.1626199192
 23
195.4645474438
 33
0.0
  0
LINE
  5
11A
330
115
100
AcDbEntity
  8
0
  6
Continuous
 62
     7
370
     0
100
AcDbLine
 10
81.6546199192
 20
213.7665474438
 30
0.0
 11
65.6546199192
 21
213.7665474438
 31
0.0
  0
LINE
  5
11B
330
115
100
AcDbEntity
  8
0
  6
Continuous
 62
     7
370
     0
100
AcDbLine
 10
82.4046199192
 20
198.7665474438
 30
0.0
 11
65.6546199192
 21
198.7665474438
 31
0.0
  0
LINE
  5
11C
330
115
100
AcDbEntity
  8
0
  6
Continuous
 62
     7
370
     0
100
AcDbLine
 10
66.6546199192
 20
213.7665474438
 30
0.0
 11
66.6546199192
 21
220.1165474438
 31
0.0
  0
LINE
  5
11D
330
115
100
AcDbEntity
  8
0
  6
Continuous
 62
     7
370
     0
100
AcDbLine
 10
66.6546199192
 20
213.7665474438
 30
0.0
 11
66.6546199192
 21
198.7665474438
 31
0.0
  0
LINE
  5
11E
330
115
100
AcDbEntity
  8
0
  6
Continuous
 62
     7
370
     0
100
AcDbLine
 10
66.6546199192
 20
198.7665474438
 30
0.0
 11
66.6546199192
 21
192.4165474438
 31
0.0
  0
MTEXT
  5
11F
330
115
100
AcDbEntity
  8
0
  6
Continuous
 62
     7
370
     0
100
AcDbMText
 10
62.1428830047
 20
202.2585611628
 30
2.5194916291
 40
3.5
 41
0.0
 71
     1
 72
     1
  1
30
  7
SLDTEXTSTYLE0
 11
-7.044195017643634E-15
 21
1.0
 31
0.0
 73
     1
 44
1.0
  0
ENDBLK
  5
117
330
115
100
AcDbEntity
  8
0
100
AcDbBlockEnd
  0
BLOCK
  5
123
330
122
100
AcDbEntity
  8
0
100
AcDbBlockBegin
  2
*D12
 70
     1
 10
0.0
 20
0.0
 30
0.0
  3
*D12
  1

  0
SOLID
  5
125
330
122
100
AcDbEntity
  8
0
  6
Continuous
 62
     7
370
     0
100
AcDbTrace
 10
54.6546199192
 20
213.7665474438
 30
0.0
 11
55.1626199192
 21
217.0685474438
 31
0.0
 12
54.1466199192
 22
217.0685474438
 32
0.0
 13
54.1466199192
 23
217.0685474438
 33
0.0
  0
SOLID
  5
126
330
122
100
AcDbEntity
  8
0
  6
Continuous
 62
     7
370
     0
100
AcDbTrace
 10
54.6546199192
 20
267.7665474438
 30
0.0
 11
54.1466199192
 21
264.4645474438
 31
0.0
 12
55.1626199192
 22
264.4645474438
 32
0.0
 13
55.1626199192
 23
264.4645474438
 33
0.0
  0
LINE
  5
127
330
122
100
AcDbEntity
  8
0
  6
Continuous
 62
     7
370
     0
100
AcDbLine
 10
81.6546199192
 20
213.7665474438
 30
0.0
 11
53.6546199192
 21
213.7665474438
 31
0.0
  0
LINE
  5
128
330
122
100
AcDbEntity
  8
0
  6
Continuous
 62
     7
370
     0
100
AcDbLine
 10
83.6546199192
 20
267.7665474438
 30
0.0
 11
53.6546199192
 21
267.7665474438
 31
0.0
  0
LINE
  5
129
330
122
100
AcDbEntity
  8
0
  6
Continuous
 62
     7
370
     0
100
AcDbLine
 10
54.6546199192
 20
213.7665474438
 30
0.0
 11
54.6546199192
 21
267.7665474438
 31
0.0
  0
MTEXT
  5
12A
330
122
100
AcDbEntity
  8
0
  6
Continuous
 62
     7
370
     0
100
AcDbMText
 10
50.1428830047
 20
236.5016026465
 30
2.5194916291
 40
3.5
 41
0.0
 71
     1
 72
     1
  1
108
  7
SLDTEXTSTYLE0
 11
-1.608122649676637E-16
 21
1.0
 31
0.0
 73
     1
 44
1.0
  0
ENDBLK
  5
124
330
122
100
AcDbEntity
  8
0
100
AcDbBlockEnd
  0
BLOCK
  5
12D
330
12C
100
AcDbEntity
  8
0
100
AcDbBlockBegin
  2
*D13
 70
     1
 10
0.0
 20
0.0
 30
0.0
  3
*D13
  1

  0
SOLID
  5
12F
330
12C
100
AcDbEntity
  8
0
  6
Continuous
 62
     7
370
     0
100
AcDbTrace
 10
104.773005758
 20
213.7665474438
 30
0.0
 11
104.265005758
 21
210.4645474438
 31
0.0
 12
105.281005758
 22
210.4645474438
 32
0.0
 13
105.281005758
 23
210.4645474438
 33
0.0
  0
SOLID
  5
130
330
12C
100
AcDbEntity
  8
0
  6
Continuous
 62
     7
370
     0
100
AcDbTrace
 10
104.773005758
 20
226.9415474438
 30
0.0
 11
105.281005758
 21
230.2435474438
 31
0.0
 12
104.265005758
 22
230.2435474438
 32
0.0
 13
104.265005758
 23
230.2435474438
 33
0.0
  0
LINE
  5
131
330
12C
100
AcDbEntity
  8
0
  6
Continuous
 62
     7
370
     0
100
AcDbLine
 10
93.6546199192
 20
213.7665474438
 30
0.0
 11
105.773005758
 21
213.7665474438
 31
0.0
  0
LINE
  5
132
330
12C
100
AcDbEntity
  8
0
  6
Continuous
 62
     7
370
     0
100
AcDbLine
 10
90.9046199192
 20
226.9415474438
 30
0.0
 11
105.773005758
 21
226.9415474438
 31
0.0
  0
LINE
  5
133
330
12C
100
AcDbEntity
  8
0
  6
Continuous
 62
     7
370
     0
100
AcDbLine
 10
104.773005758
 20
213.7665474438
 30
0.0
 11
104.773005758
 21
207.4165474438
 31
0.0
  0
LINE
  5
134
330
12C
100
AcDbEntity
  8
0
  6
Continuous
 62
     7
370
     0
100
AcDbLine
 10
104.773005758
 20
213.7665474438
 30
0.0
 11
104.773005758
 21
226.9415474438
 31
0.0
  0
LINE
  5
135
330
12C
100
AcDbEntity
  8
0
  6
Continuous
 62
     7
370
     0
100
AcDbLine
 10
104.773005758
 20
226.9415474438
 30
0.0
 11
104.773005758
 21
233.2915474438
 31
0.0
  0
MTEXT
  5
136
330
12C
100
AcDbEntity
  8
0
  6
Continuous
 62
     7
370
     0
100
AcDbMText
 10
100.2612688434
 20
212.4977708541
 30
2.5194916291
 40
3.5
 41
0.0
 71
     1
 72
     1
  1
26,35
  7
SLDTEXTSTYLE0
 11
-1.608122649676637E-16
 21
1.0
 31
0.0
 73
     1
 44
1.0
  0
ENDBLK
  5
12E
330
12C
100
AcDbEntity
  8
0
100
AcDbBlockEnd
  0
BLOCK
  5
13A
330
139
100
AcDbEntity
  8
0
100
AcDbBlockBegin
  2
*D14
 70
     1
 10
0.0
 20
0.0
 30
0.0
  3
*D14
  1

  0
SOLID
  5
13C
330
139
100
AcDbEntity
  8
0
  6
Continuous
 62
     7
370
     0
100
AcDbTrace
 10
88.3596920253
 20
227.6506830622
 30
0.0
 11
91.0480810135
 21
229.6340722444
 31
0.0
 12
90.3275992252
 22
230.3504255041
 32
0.0
 13
90.3275992252
 23
230.3504255041
 33
0.0
  0
LINE
  5
13D
330
139
100
AcDbEntity
  8
0
  6
Continuous
 62
     7
370
     0
100
AcDbLine
 10
88.3596920253
 20
227.6506830622
 30
0.0
 11
110.00633109
 21
249.4220772905
 31
0.0
  0
LINE
  5
13E
330
139
100
AcDbEntity
  8
0
  6
Continuous
 62
     7
370
     0
100
AcDbLine
 10
86.9495478132
 20
226.2324118254
 30
0.0
 11
88.3596920253
 21
227.6506830622
 31
0.0
  0
LINE
  5
13F
330
139
100
AcDbEntity
  8
0
  6
Continuous
 62
     7
370
     0
100
AcDbLine
 10
110.00633109
 20
249.4220772905
 30
0.0
 11
116.35633109
 21
249.4220772905
 31
0.0
  0
MTEXT
  5
140
330
139
100
AcDbEntity
  8
0
  6
Continuous
 62
     7
370
     0
100
AcDbMText
 10
116.35633109
 20
251.1289532085
 30
2.5194916291
 40
3.5
 41
0.0
 71
     1
 72
     1
  1
%%c
  7
SLDTEXTSTYLE0
 73
     1
 44
1.0
  0
MTEXT
  5
141
330
139
100
AcDbEntity
  8
0
  6
Continuous
 62
     7
370
     0
100
AcDbMText
 10
121.6347684884
 20
251.1824253852
 30
2.5194916291
 40
3.5
 41
0.0
 71
     1
 72
     1
  1
4
  7
SLDTEXTSTYLE0
 73
     1
 44
1.0
  0
MTEXT
  5
142
330
139
100
AcDbEntity
  8
0
  6
Continuous
 62
     7
370
     0
100
AcDbMText
 10
128.3771296242
 20
251.1824253852
 30
2.5194916291
 40
3.5
 41
0.0
 71
     1
 72
     1
  1
(x2)
  7
SLDTEXTSTYLE0
 73
     1
 44
1.0
  0
ENDBLK
  5
13B
330
139
100
AcDbEntity
  8
0
100
AcDbBlockEnd
  0
BLOCK
  5
145
330
144
100
AcDbEntity
  8
0
100
AcDbBlockBegin
  2
*D15
 70
     1
 10
0.0
 20
0.0
 30
0.0
  3
*D15
  1

  0
SOLID
  5
147
330
144
100
AcDbEntity
  8
0
  6
Continuous
 62
     7
370
     0
100
AcDbTrace
 10
83.4046199192
 20
188.7665474438
 30
0.0
 11
80.1026199192
 21
189.2745474438
 31
0.0
 12
80.1026199192
 22
188.2585474438
 32
0.0
 13
80.1026199192
 23
188.2585474438
 33
0.0
  0
SOLID
  5
148
330
144
100
AcDbEntity
  8
0
  6
Continuous
 62
     7
370
     0
100
AcDbTrace
 10
91.9046199192
 20
188.7665474438
 30
0.0
 11
95.2066199192
 21
188.2585474438
 31
0.0
 12
95.2066199192
 22
189.2745474438
 32
0.0
 13
95.2066199192
 23
189.2745474438
 33
0.0
  0
LINE
  5
149
330
144
100
AcDbEntity
  8
0
  6
Continuous
 62
     7
370
     0
100
AcDbLine
 10
83.4046199192
 20
197.7665474438
 30
0.0
 11
83.4046199192
 21
187.7665474438
 31
0.0
  0
LINE
  5
14A
330
144
100
AcDbEntity
  8
0
  6
Continuous
 62
     7
370
     0
100
AcDbLine
 10
91.9046199192
 20
197.7665474438
 30
0.0
 11
91.9046199192
 21
187.7665474438
 31
0.0
  0
LINE
  5
14B
330
144
100
AcDbEntity
  8
0
  6
Continuous
 62
     7
370
     0
100
AcDbLine
 10
83.4046199192
 20
188.7665474438
 30
0.0
 11
77.0546199192
 21
188.7665474438
 31
0.0
  0
LINE
  5
14C
330
144
100
AcDbEntity
  8
0
  6
Continuous
 62
     7
370
     0
100
AcDbLine
 10
83.4046199192
 20
188.7665474438
 30
0.0
 11
91.9046199192
 21
188.7665474438
 31
0.0
  0
LINE
  5
14D
330
144
100
AcDbEntity
  8
0
  6
Continuous
 62
     7
370
     0
100
AcDbLine
 10
91.9046199192
 20
188.7665474438
 30
0.0
 11
111.4202107382
 21
188.7665474438
 31
0.0
  0
MTEXT
  5
14E
330
144
100
AcDbEntity
  8
0
  6
Continuous
 62
     7
370
     0
100
AcDbMText
 10
98.1258007777
 20
193.278284533
 30
2.5194916291
 40
3.5
 41
0.0
 71
     1
 72
     1
  1
%%c
  7
SLDTEXTSTYLE0
 73
     1
 44
1.0
  0
MTEXT
  5
14F
330
144
100
AcDbEntity
  8
0
  6
Continuous
 62
     7
370
     0
100
AcDbMText
 10
103.4042381761
 20
193.3317567097
 30
2.5194916291
 40
3.5
 41
0.0
 71
     1
 72
     1
  1
17
  7
SLDTEXTSTYLE0
 73
     1
 44
1.0
  0
ENDBLK
  5
146
330
144
100
AcDbEntity
  8
0
100
AcDbBlockEnd
  0
BLOCK
  5
153
330
152
100
AcDbEntity
  8
0
100
AcDbBlockBegin
  2
*D16
 70
     1
 10
0.0
 20
0.0
 30
0.0
  3
*D16
  1

  0
SOLID
  5
155
330
152
100
AcDbEntity
  8
0
  6
Continuous
 62
     7
370
     0
100
AcDbTrace
 10
84.6546199192
 20
277.7665474438
 30
0.0
 11
81.3526199192
 21
278.2745474438
 31
0.0
 12
81.3526199192
 22
277.2585474438
 32
0.0
 13
81.3526199192
 23
277.2585474438
 33
0.0
  0
SOLID
  5
156
330
152
100
AcDbEntity
  8
0
  6
Continuous
 62
     7
370
     0
100
AcDbTrace
 10
90.6546199192
 20
277.7665474438
 30
0.0
 11
93.9566199192
 21
277.2585474438
 31
0.0
 12
93.9566199192
 22
278.2745474438
 32
0.0
 13
93.9566199192
 23
278.2745474438
 33
0.0
  0
LINE
  5
157
330
152
100
AcDbEntity
  8
0
  6
Continuous
 62
     7
370
     0
100
AcDbLine
 10
84.6546199192
 20
268.7665474438
 30
0.0
 11
84.6546199192
 21
278.7665474438
 31
0.0
  0
LINE
  5
158
330
152
100
AcDbEntity
  8
0
  6
Continuous
 62
     7
370
     0
100
AcDbLine
 10
90.6546199192
 20
268.7665474438
 30
0.0
 11
90.6546199192
 21
278.7665474438
 31
0.0
  0
LINE
  5
159
330
152
100
AcDbEntity
  8
0
  6
Continuous
 62
     7
370
     0
100
AcDbLine
 10
84.6546199192
 20
277.7665474438
 30
0.0
 11
78.3046199192
 21
277.7665474438
 31
0.0
  0
LINE
  5
15A
330
152
100
AcDbEntity
  8
0
  6
Continuous
 62
     7
370
     0
100
AcDbLine
 10
84.6546199192
 20
277.7665474438
 30
0.0
 11
90.6546199192
 21
277.7665474438
 31
0.0
  0
LINE
  5
15B
330
152
100
AcDbEntity
  8
0
  6
Continuous
 62
     7
370
     0
100
AcDbLine
 10
90.6546199192
 20
277.7665474438
 30
0.0
 11
111.7233354864
 21
277.7665474438
 31
0.0
  0
MTEXT
  5
15C
330
152
100
AcDbEntity
  8
0
  6
Continuous
 62
     7
370
     0
100
AcDbMText
 10
95.3226760295
 20
282.278284533
 30
2.5194916291
 40
3.5
 41
0.0
 71
     1
 72
     1
  1
%%c
  7
SLDTEXTSTYLE0
 73
     1
 44
1.0
  0
MTEXT
  5
15D
330
152
100
AcDbEntity
  8
0
  6
Continuous
 62
     7
370
     0
100
AcDbMText
 10
100.6011134279
 20
282.3317567097
 30
2.5194916291
 40
3.5
 41
0.0
 71
     1
 72
     1
  1
12
  7
SLDTEXTSTYLE0
 73
     1
 44
1.0
  0
MTEXT
  5
15E
330
152
100
AcDbEntity
  8
0
  6
Continuous
 62
     7
370
     0
100
AcDbMText
 10
109.92958599
 20
282.3317567097
 30
2.5194916291
 40
3.5
 41
0.0
 71
     1
 72
     1
  1
s
  7
SLDTEXTSTYLE0
 73
     1
 44
1.0
  0
ENDBLK
  5
154
330
152
100
AcDbEntity
  8
0
100
AcDbBlockEnd
  0
BLOCK
  5
167
330
166
100
AcDbEntity
  8
0
100
AcDbBlockBegin
  2
SW_CENTERMARKSYMBOL_1
 70
     0
 10
0.0
 20
0.0
 30
0.0
  3
SW_CENTERMARKSYMBOL_1
  1

  0
LINE
  5
169
330
166
100
AcDbEntity
  8
0
  6
Continuous
 62
     0
370
     0
100
AcDbLine
 10
0.0
 20
0.0
 30
0.0
 11
0.0
 21
1.25
 31
0.0
  0
LINE
  5
16A
330
166
100
AcDbEntity
  8
0
  6
Continuous
 62
     0
370
     0
100
AcDbLine
 10
0.0
 20
0.0
 30
0.0
 11
-1.25
 21
0.0
 31
0.0
  0
LINE
  5
16B
330
166
100
AcDbEntity
  8
0
  6
Continuous
 62
     0
370
     0
100
AcDbLine
 10
0.0
 20
0.0
 30
0.0
 11
0.0
 21
-1.25
 31
0.0
  0
LINE
  5
16C
330
166
100
AcDbEntity
  8
0
  6
Continuous
 62
     0
370
     0
100
AcDbLine
 10
0.0
 20
0.0
 30
0.0
 11
1.25
 21
0.0
 31
0.0
  0
LINE
  5
16D
330
166
100
AcDbEntity
  8
0
  6
Continuous
 62
     0
370
     0
100
AcDbLine
 10
0.0
 20
1.25
 30
0.0
 11
0.0
 21
2.25
 31
0.0
  0
LINE
  5
16E
330
166
100
AcDbEntity
  8
0
  6
Continuous
 62
     0
370
     0
100
AcDbLine
 10
-1.25
 20
0.0
 30
0.0
 11
-2.25
 21
0.0
 31
0.0
  0
LINE
  5
16F
330
166
100
AcDbEntity
  8
0
  6
Continuous
 62
     0
370
     0
100
AcDbLine
 10
0.0
 20
-1.25
 30
0.0
 11
0.0
 21
-2.25
 31
0.0
  0
LINE
  5
170
330
166
100
AcDbEntity
  8
0
  6
Continuous
 62
     0
370
     0
100
AcDbLine
 10
1.25
 20
0.0
 30
0.0
 11
2.25
 21
0.0
 31
0.0
  0
ENDBLK
  5
168
330
166
100
AcDbEntity
  8
0
100
AcDbBlockEnd
  0
BLOCK
  5
173
330
172
100
AcDbEntity
  8
0
100
AcDbBlockBegin
  2
SW_DATUMTAG_2
 70
     0
 10
0.0
 20
0.0
 30
0.0
  3
SW_DATUMTAG_2
  1

  0
LINE
  5
175
330
172
100
AcDbEntity
  8
0
  6
Continuous
 62
     0
370
     0
100
AcDbLine
 10
1.8958334113
 20
37.111444631
 30
0.0
 11
1.8958334113
 21
6.2781251702
 31
0.0
  0
LINE
  5
176
330
172
100
AcDbEntity
  8
0
  6
Continuous
 62
     0
370
     0
100
AcDbLine
 10
38.0621944278
 20
37.111444631
 30
0.0
 11
-0.5041665887
 21
37.111444631
 31
0.0
  0
LINE
  5
177
330
172
100
AcDbEntity
  8
0
  6
Continuous
 62
     0
370
     0
100
AcDbLine
 10
5.3958334113
 20
-0.7218748298
 30
0.0
 11
-1.6041665887
 21
-0.7218748298
 31
0.0
  0
LINE
  5
178
330
172
100
AcDbEntity
  8
0
  6
Continuous
 62
     0
370
     0
100
AcDbLine
 10
-1.6041665887
 20
-0.7218748298
 30
0.0
 11
-1.6041665887
 21
6.2781251702
 31
0.0
  0
LINE
  5
179
330
172
100
AcDbEntity
  8
0
  6
Continuous
 62
     0
370
     0
100
AcDbLine
 10
-1.6041665887
 20
6.2781251702
 30
0.0
 11
5.3958334113
 21
6.2781251702
 31
0.0
  0
LINE
  5
17A
330
172
100
AcDbEntity
  8
0
  6
Continuous
 62
     0
370
     0
100
AcDbLine
 10
5.3958334113
 20
6.2781251702
 30
0.0
 11
5.3958334113
 21
-0.7218748298
 31
0.0
  0
MTEXT
  5
17B
330
172
100
AcDbEntity
  8
0
  6
Continuous
 62
     0
370
     0
100
AcDbMText
 10
0.0
 20
4.5117370892
 30
2.4694916291
 40
3.5
 41
0.0
 71
     1
 72
     1
  1
C
  7
SLDTEXTSTYLE0
 73
     1
 44
1.0
  0
SOLID
  5
17C
330
172
100
AcDbEntity
  8
0
  6
Continuous
 62
     0
370
     0
100
AcDbTrace
 10
3.2958334113
 20
37.111444631
 30
0.0
 11
0.4958334113
 21
37.111444631
 31
0.0
 12
1.8958334113
 22
34.661444631
 32
0.0
 13
1.8958334113
 23
34.661444631
 33
0.0
  0
ENDBLK
  5
174
330
172
100
AcDbEntity
  8
0
100
AcDbBlockEnd
  0
ENDSEC
  0
SECTION
  2
ENTITIES
  0
IMAGE
  5
47
330
1F
100
AcDbEntity
  8
0
 92
      140
310
8C000000010000008400000006000000050000007EC0E6D317C63540F41529DEFCEB6F4000000000000000007AC0E6D317C63540E6BC4443ED8F70400000000000000000165AAD340A582740E6BC4443ED8F704000000000000000001F5AAD340A582740F41529DEFCEB6F4000000000000000007EC0E6D317C63540F41529
310
DEFCEB6F400000000000000000
100
AcDbRasterImage
 90
        0
 10
21.7738010825
 20
255.3746176531
 30
0.0
 11
-4.125220802235129E-17
 21
0.02405201956811362
 31
0.0
 12
-0.02405201956811356
 22
-4.125220802235119E-17
 32
0.0
 13
400.0
 23
420.0
340
46
 70
     7
280
     0
281
    50
282
    50
283
     0
360
48
 71
     1
 91
        2
 14
-0.5
 24
-0.5
 14
399.5
 24
419.5
  0
LINE
  5
49
330
1F
100
AcDbEntity
  8
0
  6
Continuous
 62
     7
370
    40
100
AcDbLine
 10
10.0788435654
 20
5.2147801566
 30
0.0
 11
205.0788435654
 21
5.2147801566
 31
0.0
  0
LINE
  5
4A
330
1F
100
AcDbEntity
  8
0
  6
Continuous
 62
     7
370
    40
100
AcDbLine
 10
0.0788435654
 20
0.2147801566
 30
0.0
 11
210.0788435654
 21
0.2147801566
 31
0.0
  0
LINE
  5
4B
330
1F
100
AcDbEntity
  8
0
  6
Continuous
 62
     7
370
    40
100
AcDbLine
 10
0.0788435654
 20
0.2147801566
 30
0.0
 11
0.0788435654
 21
297.2147801566
 31
0.0
  0
LINE
  5
4C
330
1F
100
AcDbEntity
  8
0
  6
Continuous
 62
     7
370
    40
100
AcDbLine
 10
0.0788435654
 20
297.2147801566
 30
0.0
 11
210.0788435654
 21
297.2147801566
 31
0.0
  0
LINE
  5
4D
330
1F
100
AcDbEntity
  8
0
  6
Continuous
 62
     7
370
    40
100
AcDbLine
 10
210.0788435654
 20
0.2147801566
 30
0.0
 11
210.0788435654
 21
297.2147801566
 31
0.0
  0
LINE
  5
4E
330
1F
100
AcDbEntity
  8
0
  6
Continuous
 62
     7
370
    40
100
AcDbLine
 10
10.0788435654
 20
292.2147801566
 30
0.0
 11
205.0788435654
 21
292.2147801566
 31
0.0
  0
LINE
  5
4F
330
1F
100
AcDbEntity
  8
0
  6
Continuous
 62
     7
370
    40
100
AcDbLine
 10
205.0788435654
 20
5.2147801566
 30
0.0
 11
180.9883118484
 21
5.2147801566
 31
0.0
  0
LINE
  5
50
330
1F
100
AcDbEntity
  8
0
  6
Continuous
 62
     7
370
    40
100
AcDbLine
 10
10.0788435654
 20
5.2147801566
 30
0.0
 11
10.0788435654
 21
292.2147801566
 31
0.0
  0
LINE
  5
51
330
1F
100
AcDbEntity
  8
0
  6
Continuous
 62
     7
370
    40
100
AcDbLine
 10
10.1108209117
 20
9.3709272577
 30
0.0
 11
205.0788435654
 21
9.3709272577
 31
0.0
  0
LINE
  5
52
330
1F
100
AcDbEntity
  8
0
  6
Continuous
 62
     7
370
    40
100
AcDbLine
 10
205.0788435654
 20
43.3709272577
 30
0.0
 11
10.1108209117
 21
43.3709272577
 31
0.0
  0
LINE
  5
53
330
1F
100
AcDbEntity
  8
0
  6
Continuous
 62
     7
370
    40
100
AcDbLine
 10
10.1108209117
 20
60.3709272577
 30
0.0
 11
205.0788435654
 21
60.3709272577
 31
0.0
  0
LINE
  5
54
330
1F
100
AcDbEntity
  8
0
  6
Continuous
 62
     7
370
    40
100
AcDbLine
 10
210.0788435654
 20
292.2147801566
 30
0.0
 11
210.0788435654
 21
297.2147801566
 31
0.0
  0
LINE
  5
55
330
1F
100
AcDbEntity
  8
0
  6
Continuous
 62
     7
370
    40
100
AcDbLine
 10
37.1017733454
 20
43.3709272577
 30
0.0
 11
37.1017733454
 21
5.1209272577
 31
0.0
  0
LINE
  5
56
330
1F
100
AcDbEntity
  8
0
  6
Continuous
 62
     7
370
    40
100
AcDbLine
 10
108.9108209117
 20
26.3709272577
 30
0.0
 11
10.1108209117
 21
26.3709272577
 31
0.0
  0
LINE
  5
57
330
1F
100
AcDbEntity
  8
0
  6
Continuous
 62
     7
370
    40
100
AcDbLine
 10
108.9108209117
 20
30.6209272577
 30
0.0
 11
10.1108209117
 21
30.6209272577
 31
0.0
  0
LINE
  5
58
330
1F
100
AcDbEntity
  8
0
  6
Continuous
 62
     7
370
    40
100
AcDbLine
 10
108.9108209117
 20
34.8709272577
 30
0.0
 11
10.1108209117
 21
34.8709272577
 31
0.0
  0
LINE
  5
59
330
1F
100
AcDbEntity
  8
0
  6
Continuous
 62
     7
370
    40
100
AcDbLine
 10
108.9108209117
 20
39.1209272577
 30
0.0
 11
10.1108209117
 21
39.1209272577
 31
0.0
  0
LINE
  5
5A
330
1F
100
AcDbEntity
  8
0
  6
Continuous
 62
     7
370
    40
100
AcDbLine
 10
64.7108209117
 20
5.1209272577
 30
0.0
 11
64.7108209117
 21
43.3709272577
 31
0.0
  0
LINE
  5
5B
330
1F
100
AcDbEntity
  8
0
  6
Continuous
 62
     7
370
    40
100
AcDbLine
 10
10.1108209117
 20
60.3709272577
 30
0.0
 11
10.1108209117
 21
5.1209272577
 31
0.0
  0
LINE
  5
5C
330
1F
100
AcDbEntity
  8
0
  6
Continuous
 62
     7
370
    40
100
AcDbLine
 10
17.9108209117
 20
43.3709272577
 30
0.0
 11
17.9108209117
 21
5.1209272577
 31
0.0
  0
LINE
  5
5D
330
1F
100
AcDbEntity
  8
0
  6
Continuous
 62
     7
370
    40
100
AcDbLine
 10
43.9108209117
 20
43.3709272577
 30
0.0
 11
43.9108209117
 21
60.3709272577
 31
0.0
  0
LINE
  5
5E
330
1F
100
AcDbEntity
  8
0
  6
Continuous
 62
     7
370
    40
100
AcDbLine
 10
54.5097470752
 20
43.3709272577
 30
0.0
 11
54.5097470752
 21
5.1209272577
 31
0.0
  0
LINE
  5
5F
330
1F
100
AcDbEntity
  8
0
  6
Continuous
 62
     7
370
    40
100
AcDbLine
 10
75.1108209117
 20
26.3709272577
 30
0.0
 11
75.1108209117
 21
43.3709272577
 31
0.0
  0
LINE
  5
60
330
1F
100
AcDbEntity
  8
0
  6
Continuous
 62
     7
370
    40
100
AcDbLine
 10
64.7108209117
 20
13.6209272577
 30
0.0
 11
10.1108209117
 21
13.6209272577
 31
0.0
  0
LINE
  5
61
330
1F
100
AcDbEntity
  8
0
  6
Continuous
 62
     7
370
    40
100
AcDbLine
 10
90.7108209117
 20
60.3709272577
 30
0.0
 11
90.7108209117
 21
22.1209272577
 31
0.0
  0
LINE
  5
62
330
1F
100
AcDbEntity
  8
0
  6
Continuous
 62
     7
370
    40
100
AcDbLine
 10
64.7108209117
 20
17.8708552577
 30
0.0
 11
10.1108209117
 21
17.8708552577
 31
0.0
  0
LINE
  5
63
330
1F
100
AcDbEntity
  8
0
  6
Continuous
 62
     7
370
    40
100
AcDbLine
 10
64.7108209117
 20
22.1209272577
 30
0.0
 11
10.1108209117
 21
22.1209272577
 31
0.0
  0
LINE
  5
64
330
1F
100
AcDbEntity
  8
0
  6
Continuous
 62
     7
370
    40
100
AcDbLine
 10
64.7108209117
 20
22.1209272577
 30
0.0
 11
205.0788435654
 21
22.1209272577
 31
0.0
  0
LINE
  5
65
330
1F
100
AcDbEntity
  8
0
  6
Continuous
 62
     7
370
    40
100
AcDbLine
 10
108.9108209117
 20
60.3709272577
 30
0.0
 11
108.9108209117
 21
5.1209272577
 31
0.0
  0
LINE
  5
66
330
1F
100
AcDbEntity
  8
0
  6
Continuous
 62
     7
370
    40
100
AcDbLine
 10
160.8788435654
 20
5.2147801566
 30
0.0
 11
160.8788435654
 21
9.4647801566
 31
0.0
  0
LINE
  5
67
330
1F
100
AcDbEntity
  8
0
  6
Continuous
 62
     7
370
    40
100
AcDbLine
 10
168.6788435654
 20
54.0897801566
 30
0.0
 11
168.6788435654
 21
60.4647801566
 31
0.0
  0
LINE
  5
68
330
1F
100
AcDbEntity
  8
0
  6
Continuous
 62
     7
370
    40
100
AcDbLine
 10
192.0788435654
 20
9.4647801566
 30
0.0
 11
192.0788435654
 21
22.2147801566
 31
0.0
  0
LINE
  5
69
330
1F
100
AcDbEntity
  8
0
  6
Continuous
 62
     7
370
    40
100
AcDbLine
 10
205.0788435654
 20
53.9959272577
 30
0.0
 11
108.9108209117
 21
53.9959272577
 31
0.0
  0
LINE
  5
6A
330
1F
100
AcDbEntity
  8
0
  6
Continuous
 62
     7
370
    40
100
AcDbLine
 10
205.0788435654
 20
13.7147801566
 30
0.0
 11
192.0788435654
 21
13.7147801566
 31
0.0
  0
LINE
  5
6B
330
1F
100
AcDbEntity
  8
0
  6
Continuous
 62
     7
370
    40
100
AcDbLine
 10
205.0788435654
 20
5.2147801566
 30
0.0
 11
205.0788435654
 21
292.2147801566
 31
0.0
  0
INSERT
  5
72
330
1F
100
AcDbEntity
  8
0
  6
Continuous
 62
     7
370
     0
100
AcDbBlockReference
  2
SW_NOTE_0
 10
16.5044025971
 20
64.3235792779
 30
0.0
  0
MTEXT
  5
73
330
1F
100
AcDbEntity
  8
0
  6
Continuous
 62
     7
370
     0
100
AcDbMText
 10
191.7409117618
 20
57.9900954614
 30
0.0
 40
1.905
 41
0.0
 71
     2
 72
     1
  1
2
  7
SLDTEXTSTYLE0
 73
     1
 44
1.0
  0
MTEXT
  5
74
330
1F
100
AcDbEntity
  8
0
  6
Continuous
 62
     7
370
     0
100
AcDbMText
 10
153.1900671891
 20
36.1558268151
 30
0.0
 40
6.35
 41
0.0
 71
     2
 72
     1
  1
Axe superieur pale
  7
SLDTEXTSTYLE0
 73
     1
 44
1.0
  0
MTEXT
  5
75
330
1F
100
AcDbEntity
  8
0
  6
Continuous
 62
     7
370
     0
100
AcDbMText
 10
157.5124633836
 20
19.8465186829
 30
0.0
 40
6.35
 41
0.0
 71
     2
 72
     1
  1
ASD-US000020
  7
SLDTEXTSTYLE0
 73
     1
 44
1.0
  0
MTEXT
  5
76
330
1F
100
AcDbEntity
  8
0
  6
Continuous
 62
     7
370
     0
100
AcDbMText
 10
59.7386532381
 20
37.6800273381
 30
0.0
 40
1.4986
 41
0.0
 71
     2
 72
     1
  1
23-09/2013
  7
SLDTEXTSTYLE0
 73
     1
 44
1.0
  0
MTEXT
  5
77
330
1F
100
AcDbEntity
  8
0
  6
Continuous
 62
     7
370
     0
100
AcDbMText
 10
27.3455038172
 20
37.5042927656
 30
0.0
 40
1.4986
 41
0.0
 71
     2
 72
     1
  1
BRESSON-T
  7
SLDTEXTSTYLE0
 73
     1
 44
1.0
  0
MTEXT
  5
78
330
1F
100
AcDbEntity
  8
0
  6
Continuous
 62
     7
370
     0
100
AcDbMText
 10
65.7286320398
 20
8.0702391613
 30
0.0
 40
1.4986
 41
0.0
 71
     1
 72
     1
  1
MASSE:
  7
SLDTEXTSTYLE0
 73
     1
 44
1.0
  0
MTEXT
  5
79
330
1F
100
AcDbEntity
  8
0
  6
Continuous
 62
     7
370
     0
100
AcDbMText
 10
87.1969319919
 20
16.6064929491
 30
0.0
 40
2.38125
 41
0.0
 71
     2
 72
     1
  1
Aluminium
  7
SLDTEXTSTYLE0
 73
     1
 44
1.0
  0
MTEXT
  5
7A
330
1F
100
AcDbEntity
  8
0
  6
Continuous
 62
     7
370
     0
100
AcDbMText
 10
195.9998284117
 20
19.5152246096
 30
0.0
 40
2.9104166667
 41
0.0
 71
     1
 72
     1
  1
A4
  7
SLDTEXTSTYLE0
 73
     1
 44
1.0
  0
MTEXT
  5
7C
330
1F
100
AcDbEntity
  8
0
  6
Continuous
 62
     7
370
     0
100
AcDbMText
 10
162.3571379932
 20
8.114867664
 30
0.0
 40
1.5
 41
0.0
 71
     1
 72
     1
  1
FEUILLE 1 SUR 1
  7
SLDTEXTSTYLE1
 73
     1
 44
1.0
  0
MTEXT
  5
7D
330
1F
100
AcDbEntity
  8
0
  6
Continuous
 62
     7
370
     0
100
AcDbMText
 10
110.1847870291
 20
8.021014765
 30
0.0
 40
1.5
 41
0.0
 71
     1
 72
     1
  1
ECHELLE:1:2
  7
SLDTEXTSTYLE0
 73
     1
 44
1.0
  0
MTEXT
  5
7E
330
1F
100
AcDbEntity
  8
0
  6
Continuous
 62
     7
370
     0
100
AcDbMText
 10
110.1847870291
 20
19.9895653175
 30
0.0
 40
1.5
 41
0.0
 71
     1
 72
     1
  1
No. DE PLAN
  7
SLDTEXTSTYLE0
 73
     1
 44
1.0
  0
MTEXT
  5
7F
330
1F
100
AcDbEntity
  8
0
  6
Continuous
 62
     7
370
     0
100
AcDbMText
 10
110.0670078483
 20
41.3992617765
 30
0.0
 40
1.5
 41
0.0
 71
     1
 72
     1
  1
TITRE:
  7
SLDTEXTSTYLE0
 73
     1
 44
1.0
  0
MTEXT
  5
80
330
1F
100
AcDbEntity
  8
0
  6
Continuous
 62
     7
370
     0
100
AcDbMText
 10
171.2064252647
 20
57.5496890699
 30
0.0
 40
1.5
 41
0.0
 71
     1
 72
     1
  1
REVISION
  7
SLDTEXTSTYLE0
 73
     1
 44
1.0
  0
MTEXT
  5
81
330
1F
100
AcDbEntity
  8
0
  6
Continuous
 62
     7
370
     0
100
AcDbMText
 10
130.4934840882
 20
57.7477739645
 30
0.0
 40
1.5
 41
0.0
 71
     1
 72
     1
  1
NE PAS CHANGER L'ECHELLE
  7
SLDTEXTSTYLE0
 73
     1
 44
1.0
  0
MTEXT
  5
82
330
1F
100
AcDbEntity
  8
0
  6
Continuous
 62
     7
370
     0
100
AcDbMText
 10
65.7566832204
 20
21.1069837797
 30
0.0
 40
1.5
 41
0.0
 71
     1
 72
     1
  1
MATERIAU:
  7
SLDTEXTSTYLE0
 73
     1
 44
1.0
  0
MTEXT
  5
83
330
1F
100
AcDbEntity
  8
0
  6
Continuous
 62
     7
370
     0
100
AcDbMText
 10
57.3255228774
 20
41.6971067117
 30
0.0
 40
1.5
 41
0.0
 71
     1
 72
     1
  1
DATE
  7
SLDTEXTSTYLE0
 73
     1
 44
1.0
  0
MTEXT
  5
84
330
1F
100
AcDbEntity
  8
0
  6
Continuous
 62
     7
370
     0
100
AcDbMText
 10
40.1444084748
 20
41.68268387
 30
0.0
 40
1.5
 41
0.0
 71
     1
 72
     1
  1
SIGNATURE
  7
SLDTEXTSTYLE0
 73
     1
 44
1.0
  0
MTEXT
  5
85
330
1F
100
AcDbEntity
  8
0
  6
Continuous
 62
     7
370
     0
100
AcDbMText
 10
24.4330601293
 20
41.622410124
 30
0.0
 40
1.5
 41
0.0
 71
     1
 72
     1
  1
NOM
  7
SLDTEXTSTYLE0
 73
     1
 44
1.0
  0
INSERT
  5
8B
330
1F
100
AcDbEntity
  8
0
  6
Continuous
 62
     7
370
     0
100
AcDbBlockReference
  2
SW_NOTE_1
 10
91.4200365979
 20
57.1904171335
 30
0.0
  0
MTEXT
  5
8C
330
1F
100
AcDbEntity
  8
0
  6
Continuous
 62
     7
370
     0
100
AcDbMText
 10
44.4821130785
 20
59.0401994856
 30
0.0
 40
1.5
 41
0.0
 71
     1
 72
     1
  1
FINITION:
  7
SLDTEXTSTYLE0
 73
     1
 44
1.0
  0
MTEXT
  5
8D
330
1F
100
AcDbEntity
  8
0
  6
Continuous
 62
     7
370
     0
100
AcDbMText
 10
10.7798637738
 20
20.4705766978
 30
0.0
 40
1.5
 41
0.0
 71
     1
 72
     1
  1
QUAL.
  7
SLDTEXTSTYLE0
 73
     1
 44
1.0
  0
MTEXT
  5
8E
330
1F
100
AcDbEntity
  8
0
  6
Continuous
 62
     7
370
     0
100
AcDbMText
 10
10.5660074108
 20
24.8546321411
 30
0.0
 40
1.5
 41
0.0
 71
     1
 72
     1
  1
FAB.
  7
SLDTEXTSTYLE0
 73
     1
 44
1.0
  0
MTEXT
  5
8F
330
1F
100
AcDbEntity
  8
0
  6
Continuous
 62
     7
370
     0
100
AcDbMText
 10
10.51254332
 20
29.1852234936
 30
0.0
 40
1.5
 41
0.0
 71
     1
 72
     1
  1
APPR.
  7
SLDTEXTSTYLE0
 73
     1
 44
1.0
  0
MTEXT
  5
90
330
1F
100
AcDbEntity
  8
0
  6
Continuous
 62
     7
370
     0
100
AcDbMText
 10
10.5212897793
 20
33.2753346505
 30
0.0
 40
1.5
 41
0.0
 71
     1
 72
     1
  1
VERIF.
  7
SLDTEXTSTYLE0
 73
     1
 44
1.0
  0
MTEXT
  5
91
330
1F
100
AcDbEntity
  8
0
  6
Continuous
 62
     7
370
     0
100
AcDbMText
 10
10.3229701557
 20
37.5506423764
 30
0.0
 40
1.5
 41
0.0
 71
     1
 72
     1
  1
AUTEUR
  7
SLDTEXTSTYLE0
 73
     1
 44
1.0
  0
INSERT
  5
9C
330
1F
100
AcDbEntity
  8
0
  6
Continuous
 62
     7
370
     0
100
AcDbBlockReference
  2
SW_NOTE_2
 10
11.8808483697
 20
56.4986553933
 30
0.0
  0
CIRCLE
  5
9D
330
1F
100
AcDbEntity
  8
0
  6
Continuous
 62
     7
370
    15
100
AcDbCircle
 10
87.6546199192
 20
106.7951665307
 30
0.0
 40
3.0
  0
CIRCLE
  5
9E
330
1F
100
AcDbEntity
  8
0
  6
Continuous
 62
     7
370
    15
100
AcDbCircle
 10
87.6546199192
 20
106.7951665307
 30
0.0
 40
5.0
  0
DIMENSION
  5
9F
330
1F
100
AcDbEntity
  8
0
  6
Continuous
 62
     7
370
     0
100
AcDbDimension
  2
*D5
 10
91.1901538252
 20
103.2596326247
 30
0.0
 11
72.6546299192
 21
121.7951765307
 31
0.0
 70
   163
  1
<>
 71
     1
 42
-1.0
  3
SLDDIMSTYLE0
100
AcDbDiametricDimension
 15
84.1190860133
 25
110.3307004366
 35
0.0
 40
0.0
  0
INSERT
  5
B7
330
1F
100
AcDbEntity
  8
0
  6
Continuous
 62
     7
370
     0
100
AcDbBlockReference
  2
SW_CENTERMARKSYMBOL_0
 10
87.6546199192
 20
106.7951665307
 30
0.0
  0
LINE
  5
B8
330
1F
100
AcDbEntity
  8
0
  6
CENTER
 62
     7
370
     0
100
AcDbLine
 10
66.9528902644
 20
106.7951665307
 30
0.0
 11
110.6972914172
 21
106.7951665307
 31
0.0
  0
LINE
  5
B9
330
1F
100
AcDbEntity
  8
0
  6
Continuous
 62
     7
370
     0
100
AcDbLine
 10
68.9528902644
 20
94.0951665307
 30
0.0
 11
68.9528902644
 21
106.7951665307
 31
0.0
  0
SOLID
  5
BA
330
1F
100
AcDbEntity
  8
0
  6
Continuous
 62
     7
370
     0
100
AcDbTrace
 10
68.9528902644
 20
106.7951665307
 30
0.0
 11
67.9368902644
 21
100.4451665307
 31
0.0
 12
69.9688902644
 22
100.4451665307
 32
0.0
 13
69.9688902644
 23
100.4451665307
 33
0.0
  0
LINE
  5
BB
330
1F
100
AcDbEntity
  8
0
  6
Continuous
 62
     7
370
     0
100
AcDbLine
 10
108.6972914172
 20
94.0951665307
 30
0.0
 11
108.6972914172
 21
106.7951665307
 31
0.0
  0
SOLID
  5
BC
330
1F
100
AcDbEntity
  8
0
  6
Continuous
 62
     7
370
     0
100
AcDbTrace
 10
108.6972914172
 20
106.7951665307
 30
0.0
 11
107.6812914172
 21
100.4451665307
 31
0.0
 12
109.7132914172
 22
100.4451665307
 32
0.0
 13
109.7132914172
 23
100.4451665307
 33
0.0
  0
MTEXT
  5
BD
330
1F
100
AcDbEntity
  8
0
  6
Continuous
 62
     7
100
AcDbMText
 10
70.3330031059
 20
99.6522370173
 30
0.0
 40
3.5
 41
0.0
 71
     1
 72
     1
  1
A
  7
SLDTEXTSTYLE0
 73
     1
 44
1.0
  0
MTEXT
  5
BE
330
1F
100
AcDbEntity
  8
0
  6
Continuous
 62
     7
100
AcDbMText
 10
110.0774042586
 20
99.6522370173
 30
0.0
 40
3.5
 41
0.0
 71
     1
 72
     1
  1
A
  7
SLDTEXTSTYLE0
 73
     1
 44
1.0
  0
INSERT
  5
CA
330
1F
100
AcDbEntity
  8
0
  6
Continuous
 62
     7
370
     0
100
AcDbBlockReference
  2
SW_DATUMTAG_0
 10
44.8525592915
 20
148.5549486288
 30
0.0
  0
INSERT
  5
D6
330
1F
100
AcDbEntity
  8
0
  6
Continuous
 62
     7
370
     0
100
AcDbBlockReference
  2
SW_DATUMTAG_1
 10
45.0008078138
 20
163.3290444791
 30
0.0
  0
LINE
  5
D7
330
1F
100
AcDbEntity
  8
0
  6
Continuous
 62
     7
370
    15
100
AcDbLine
 10
166.9909925361
 20
141.2279595435
 30
0.0
 11
166.9909925361
 21
183.2798098833
 31
0.0
  0
LINE
  5
D8
330
1F
100
AcDbEntity
  8
0
  6
Continuous
 62
     7
370
    15
100
AcDbLine
 10
160.9909928653
 20
183.2798098833
 30
0.0
 11
160.9909928653
 21
141.2279595435
 31
0.0
  0
LINE
  5
D9
330
1F
100
AcDbEntity
  8
0
  6
Continuous
 62
     7
370
    15
100
AcDbLine
 10
168.9909925361
 20
139.1866071791
 30
0.0
 11
168.9909925361
 21
141.2279595435
 31
0.0
  0
LINE
  5
DA
330
1F
100
AcDbEntity
  8
0
  6
Continuous
 62
     7
370
    15
100
AcDbLine
 10
158.9909928653
 20
141.2279595435
 30
0.0
 11
158.9909928653
 21
139.1866071791
 31
0.0
  0
LINE
  5
DB
330
1F
100
AcDbEntity
  8
0
  6
Continuous
 62
     7
370
    15
100
AcDbLine
 10
168.2409926596
 20
126.9384952746
 30
0.0
 11
168.2409926596
 21
137.6660814002
 31
0.0
  0
LINE
  5
DC
330
1F
100
AcDbEntity
  8
0
  6
Continuous
 62
     7
370
    15
100
AcDbLine
 10
159.7409927419
 20
137.6660814002
 30
0.0
 11
159.7409927419
 21
126.9384952746
 31
0.0
  0
LWPOLYLINE
  5
DD
330
1F
100
AcDbEntity
  8
0
  6
Continuous
 62
     7
370
    15
100
AcDbPolyline
 90
       50
 70
   128
 43
0.0
 10
161.8696723387
 20
184.5044220617
 10
162.1583567866
 20
184.6509679228
 10
162.4771331376
 20
184.7749994005
 10
162.8207669303
 20
184.8744799141
 10
163.1836157345
 20
184.9477760528
 10
163.5597216983
 20
184.9936841995
 10
163.9429090735
 20
185.0114505253
 10
164.3268861258
 20
185.0007834401
 10
164.7053477856
 20
184.9618580119
 10
165.0720796976
 20
184.8953133061
 10
165.4210601308
 20
184.8022421202
 10
165.7465589247
 20
184.6841726411
 10
166.0432315072
 20
184.5430436333
 10
166.3062062231
 20
184.3811722722
 10
166.5311652328
 20
184.2012165675
 10
166.7144148734
 20
184.0061315124
 10
166.8529457199
 20
183.7991201552
 10
166.9444834888
 20
183.5835817828
 10
166.98752497
 20
183.363055442
 10
166.9813635453
 20
183.1411623438
 10
166.9261003012
 20
182.9215456539
 10
166.8226426297
 20
182.7078118042
 10
166.672689411
 20
182.5034700459
 10
166.4787027373
 20
182.3118758274
 10
166.2438679472
 20
182.1361750289
 10
165.9720410246
 20
181.9792526866
 10
165.6676853371
 20
181.8436854479
 10
165.3357984556
 20
181.7316993249
 10
164.9818297948
 20
181.6451331744
 10
164.6115917918
 20
181.5854083319
 10
164.2311633066
 20
181.5535055402
 10
163.8467915391
 20
181.5499486254
 10
163.4647873214
 20
181.5747959436
 10
163.0914234547
 20
181.6276395728
 10
162.732830412
 20
181.7076117282
 10
162.394896569
 20
181.813399494
 10
162.0831703691
 20
181.943265566
 10
161.8027705655
 20
182.0950776381
 10
161.5583014647
 20
182.2663430744
 10
161.3537769676
 20
182.4542495285
 10
161.1925554762
 20
182.6557116443
 10
161.0772841748
 20
182.8674214707
 10
161.0098560496
 20
183.0859027364
 10
160.9913781139
 20
183.3075679705
 10
161.0221536274
 20
183.5287773336
 10
161.1016774866
 20
183.7458986849
 10
161.2286438799
 20
183.955366841
 10
161.4009678555
 20
184.1537424069
 10
161.6158199563
 20
184.3377680773
 10
161.8696723387
 20
184.5044220617
  0
LWPOLYLINE
  5
DE
330
1F
100
AcDbEntity
  8
0
  6
Continuous
 62
     7
370
    15
100
AcDbPolyline
 90
       26
 70
   128
 43
0.0
 10
166.9909925361
 20
141.2279595435
 10
166.9813635453
 20
141.0893120039
 10
166.9261003012
 20
140.869695314
 10
166.8226426297
 20
140.6559614644
 10
166.672689411
 20
140.451619706
 10
166.4787027373
 20
140.2600254875
 10
166.2438679472
 20
140.084324689
 10
165.9720410246
 20
139.9274023468
 10
165.6676853371
 20
139.7918351081
 10
165.3357984556
 20
139.679848985
 10
164.9818297948
 20
139.5932828345
 10
164.6115917918
 20
139.5335579921
 10
164.2311633066
 20
139.5016552003
 10
163.8467915391
 20
139.4980982855
 10
163.4647873214
 20
139.5229456037
 10
163.0914234547
 20
139.5757892329
 10
162.732830412
 20
139.6557613884
 10
162.394896569
 20
139.7615491541
 10
162.0831703691
 20
139.8914152261
 10
161.8027705655
 20
140.0432272982
 10
161.5583014647
 20
140.2144927346
 10
161.3537769676
 20
140.4023991886
 10
161.1925554762
 20
140.6038613045
 10
161.0772841748
 20
140.8155711309
 10
161.0098560496
 20
141.0340523966
 10
160.9909928653
 20
141.2279595435
  0
SPLINE
  5
DF
330
1F
100
AcDbEntity
  8
0
  6
Continuous
 62
     7
370
    15
100
AcDbSpline
210
0.0
220
0.0
230
1.0
 70
     8
 71
     3
 72
    62
 73
    58
 74
     0
 42
0.00000001
 43
0.00000001
 40
-0.0312500000000007
 40
-0.0312500000000007
 40
0.0
 40
0.0
 40
0.0312499999999999
 40
0.0312499999999999
 40
0.0624999999999998
 40
0.0624999999999998
 40
0.0937499999999997
 40
0.0937499999999997
 40
0.1249999999999996
 40
0.1249999999999996
 40
0.1874999999999981
 40
0.1874999999999981
 40
0.2187499999999978
 40
0.2187499999999978
 40
0.2499999999999974
 40
0.2499999999999974
 40
0.281249999999997
 40
0.281249999999997
 40
0.3124999999999966
 40
0.3124999999999966
 40
0.3437499999999962
 40
0.3437499999999962
 40
0.3749999999999958
 40
0.3749999999999958
 40
0.4062499999999954
 40
0.4062499999999954
 40
0.4374999999999951
 40
0.4374999999999951
 40
0.4687499999999947
 40
0.4687499999999947
 40
0.4999999999999943
 40
0.4999999999999943
 40
0.5624999999999951
 40
0.5624999999999951
 40
0.5937499999999956
 40
0.5937499999999956
 40
0.624999999999996
 40
0.624999999999996
 40
0.6874999999999968
 40
0.6874999999999968
 40
0.7187499999999969
 40
0.7187499999999969
 40
0.749999999999997
 40
0.749999999999997
 40
0.7812499999999971
 40
0.7812499999999971
 40
0.8124999999999972
 40
0.8124999999999972
 40
0.8749999999999973
 40
0.8749999999999973
 40
0.906249999999998
 40
0.906249999999998
 40
0.9374999999999987
 40
0.9374999999999987
 40
0.9687499999999993
 40
0.9687499999999993
 40
1.0
 40
1.0
 40
1.03125
 40
1.03125
 10
161.2838859195436
 20
149.1437940669367
 30
0.0
 10
161.2838859195436
 20
149.2525284955316
 30
0.0
 10
161.286877807767
 20
149.3022561199874
 30
0.0
 10
161.2987625530615
 20
149.3930128874747
 30
0.0
 10
161.3078177904417
 20
149.4344147902524
 30
0.0
 10
161.3319016265752
 20
149.5058889923907
 30
0.0
 10
161.3468546092467
 20
149.5361655935372
 30
0.0
 10
161.3833567104948
 20
149.5864742415862
 30
0.0
 10
161.4049558505765
 20
149.6063142818925
 30
0.0
 10
161.4784952497027
 20
149.6487686696444
 30
0.0
 10
161.5412455770618
 20
149.6552673369216
 30
0.0
 10
161.6522256396624
 20
149.6334978487663
 30
0.0
 10
161.692685797576
 20
149.6208864007334
 30
0.0
 10
161.77813309903
 20
149.5857757544838
 30
0.0
 10
161.8227088365583
 20
149.5635488438004
 30
0.0
 10
161.9156961782201
 20
149.5099159800837
 30
0.0
 10
161.9644958145963
 20
149.4781607611701
 30
0.0
 10
162.0614482814707
 20
149.4080507742373
 30
0.0
 10
162.1100866246053
 20
149.3694672999405
 30
0.0
 10
162.2072711600684
 20
149.2848495688355
 30
0.0
 10
162.2546875906579
 20
149.239757743163
 30
0.0
 10
162.3453447296969
 20
149.1450566072667
 30
0.0
 10
162.3892278847805
 20
149.0947047866267
 30
0.0
 10
162.4700833601212
 20
148.9910647335252
 30
0.0
 10
162.5069665210112
 20
148.9380246851174
 30
0.0
 10
162.5728964183683
 20
148.8288311662577
 30
0.0
 10
162.6020163983438
 20
148.7722693462559
 30
0.0
 10
162.6488827518321
 20
148.6601802910534
 30
0.0
 10
162.6670269526062
 20
148.6041115975011
 30
0.0
 10
162.6917691992178
 20
148.49151020483
 30
0.0
 10
162.6980735174889
 20
148.4356439405506
 30
0.0
 10
162.6981511666267
 20
148.2749818721684
 30
0.0
 10
162.6725472507132
 20
148.1737139075915
 30
0.0
 10
162.6021541470458
 20
148.0467134672219
 30
0.0
 10
162.573044432615
 20
148.0077875635116
 30
0.0
 10
162.5071612451885
 20
147.9406457988935
 30
0.0
 10
162.4702412242108
 20
147.9119872014598
 30
0.0
 10
162.3485464405937
 20
147.8416298069103
 30
0.0
 10
162.2560338531802
 20
147.8174152636304
 30
0.0
 10
162.110412303196
 20
147.8202400968275
 30
0.0
 10
162.0618471489782
 20
147.8276768547921
 30
0.0
 10
161.965082303157
 20
147.8555889273832
 30
0.0
 10
161.9163136600149
 20
147.8764585326433
 30
0.0
 10
161.8231160504227
 20
147.930251743835
 30
0.0
 10
161.7784974228729
 20
147.9630433356637
 30
0.0
 10
161.693061206619
 20
148.0403367260585
 30
0.0
 10
161.6525076084299
 20
148.0847982661007
 30
0.0
 10
161.5412397371158
 20
148.2295001363918
 30
0.0
 10
161.478533940498
 20
148.3443501090355
 30
0.0
 10
161.4048916893707
 20
148.5263566232487
 30
0.0
 10
161.3832441528833
 20
148.5897996124931
 30
0.0
 10
161.3468514231385
 20
148.7160588604235
 30
0.0
 10
161.3319119359508
 20
148.7791692525679
 30
0.0
 10
161.3078241836893
 20
148.905037322913
 30
0.0
 10
161.2987662794903
 20
148.9677563283705
 30
0.0
 10
161.2868799581202
 20
149.08674228865
 30
0.0
 10
161.2838859195436
 20
149.1437940669367
 30
0.0
 10
161.2838859195436
 20
149.2525284955316
 30
0.0
  0
SPLINE
  5
E0
330
1F
100
AcDbEntity
  8
0
  6
Continuous
 62
     7
370
    15
100
AcDbSpline
210
0.0
220
0.0
230
1.0
 70
     8
 71
     3
 72
    62
 73
    58
 74
     0
 42
0.00000001
 43
0.00000001
 40
-0.0312500000000006
 40
-0.0312500000000006
 40
0.0
 40
0.0
 40
0.0312500000000009
 40
0.0312500000000009
 40
0.0625000000000018
 40
0.0625000000000018
 40
0.0937500000000028
 40
0.0937500000000028
 40
0.1250000000000037
 40
0.1250000000000037
 40
0.1875000000000032
 40
0.1875000000000032
 40
0.2187500000000024
 40
0.2187500000000024
 40
0.2500000000000016
 40
0.2500000000000016
 40
0.2812500000000007
 40
0.2812500000000007
 40
0.3124999999999998
 40
0.3124999999999998
 40
0.3437499999999996
 40
0.3437499999999996
 40
0.3749999999999993
 40
0.3749999999999993
 40
0.4062499999999991
 40
0.4062499999999991
 40
0.4374999999999989
 40
0.4374999999999989
 40
0.4687499999999986
 40
0.4687499999999986
 40
0.4999999999999984
 40
0.4999999999999984
 40
0.562499999999998
 40
0.562499999999998
 40
0.5937499999999992
 40
0.5937499999999992
 40
0.6250000000000004
 40
0.6250000000000004
 40
0.6875000000000008
 40
0.6875000000000008
 40
0.7187500000000002
 40
0.7187500000000002
 40
0.7499999999999997
 40
0.7499999999999997
 40
0.7812499999999992
 40
0.7812499999999992
 40
0.8124999999999987
 40
0.8124999999999987
 40
0.8749999999999977
 40
0.8749999999999977
 40
0.9062499999999982
 40
0.9062499999999982
 40
0.9374999999999988
 40
0.9374999999999988
 40
0.9687499999999994
 40
0.9687499999999994
 40
1.0
 40
1.0
 40
1.031250000000001
 40
1.031250000000001
 10
166.6980994819167
 20
152.5186917430746
 30
0.0
 10
166.6980994819167
 20
152.4099573144797
 30
0.0
 10
166.6951075936933
 20
152.3529361310986
 30
0.0
 10
166.6832228483988
 20
152.2339478139994
 30
0.0
 10
166.6741676110186
 20
152.1712409850257
 30
0.0
 10
166.6500837748851
 20
152.0453793682379
 30
0.0
 10
166.6351307922135
 20
151.9821868281979
 30
0.0
 10
166.5986286909655
 20
151.8555966608662
 30
0.0
 10
166.5770295508838
 20
151.7923534074958
 30
0.0
 10
166.5034901517576
 20
151.6106247734399
 30
0.0
 10
166.4407398243985
 20
151.4957100115599
 30
0.0
 10
166.3297597617979
 20
151.3513011998951
 30
0.0
 10
166.2892996038843
 20
151.3068838581983
 30
0.0
 10
166.2038523024302
 20
151.2294923098407
 30
0.0
 10
166.159276564902
 20
151.1967022013685
 30
0.0
 10
166.0662892232402
 20
151.1429265912527
 30
0.0
 10
166.017489586864
 20
151.1219666572171
 30
0.0
 10
165.9205371199896
 20
151.0939103067065
 30
0.0
 10
165.8718987768549
 20
151.0864344087076
 30
0.0
 10
165.7747142413919
 20
151.0844998245576
 30
0.0
 10
165.7272978108023
 20
151.0901192839206
 30
0.0
 10
165.6366406717634
 20
151.1133943826164
 30
0.0
 10
165.5927575166798
 20
151.1313153861078
 30
0.0
 10
165.5119020413391
 20
151.1780566784129
 30
0.0
 10
165.4750188804491
 20
151.2066421079495
 30
0.0
 10
165.4090889830919
 20
151.2737686271255
 30
0.0
 10
165.3799690031164
 20
151.3126920845557
 30
0.0
 10
165.3331026496282
 20
151.3971191753156
 30
0.0
 10
165.3149584488541
 20
151.4429055720849
 30
0.0
 10
165.2902162022425
 20
151.541620114753
 30
0.0
 10
165.2839118839714
 20
151.5940399630245
 30
0.0
 10
165.2838342348336
 20
151.7546592144051
 30
0.0
 10
165.3094381507471
 20
151.8696223730128
 30
0.0
 10
165.3798312544145
 20
152.0381645067842
 30
0.0
 10
165.4089409688453
 20
152.0947210370487
 30
0.0
 10
165.4748241562718
 20
152.2038935173728
 30
0.0
 10
165.5117441772495
 20
152.2570236385527
 30
0.0
 10
165.6334389608665
 20
152.4130172452411
 30
0.0
 10
165.7259515482801
 20
152.5085268344379
 30
0.0
 10
165.8715730982642
 20
152.6353612855006
 30
0.0
 10
165.9201382524821
 20
152.6739020541636
 30
0.0
 10
166.0169030983033
 20
152.7439231897703
 30
0.0
 10
166.0656717414454
 20
152.7756969330294
 30
0.0
 10
166.1588693510375
 20
152.8295030801791
 30
0.0
 10
166.2034879785873
 20
152.8517663513539
 30
0.0
 10
166.2889241948413
 20
152.8869181418021
 30
0.0
 10
166.3294777930304
 20
152.8995902608559
 30
0.0
 10
166.4407456643444
 20
152.9214626642309
 30
0.0
 10
166.5034514609623
 20
152.9149660571504
 30
0.0
 10
166.5770937120895
 20
152.8724345818427
 30
0.0
 10
166.598741248577
 20
152.8525029327475
 30
0.0
 10
166.6351339783218
 20
152.8023038093335
 30
0.0
 10
166.6500734655095
 20
152.7720762373551
 30
0.0
 10
166.6741612177709
 20
152.7006036045926
 30
0.0
 10
166.68321912197
 20
152.6591956016537
 30
0.0
 10
166.6951054433401
 20
152.5684447739577
 30
0.0
 10
166.6980994819167
 20
152.5186917430746
 30
0.0
 10
166.6980994819167
 20
152.4099573144797
 30
0.0
  0
LWPOLYLINE
  5
E1
330
1F
100
AcDbEntity
  8
0
  6
Continuous
 62
     7
370
    15
100
AcDbPolyline
 90
        3
 70
   128
 43
0.0
 10
160.4554588738
 20
143.2689797774
 10
160.8190261502
 20
143.459206787
 10
160.9909926184
 20
143.5371104393
  0
LWPOLYLINE
  5
E2
330
1F
100
AcDbEntity
  8
0
  6
Continuous
 62
     7
370
    15
100
AcDbPolyline
 90
       52
 70
   128
 43
0.0
 10
166.9909927831
 20
143.5371104393
 10
167.1629592513
 20
143.459206787
 10
167.5265265276
 20
143.2689797774
 10
167.8560450773
 20
143.0590968562
 10
168.1483408392
 20
142.8315789342
 10
168.4005991529
 20
142.5886173328
 10
168.6103903597
 20
142.3325517824
 10
168.7756942509
 20
142.0658483249
 10
168.8949191242
 20
141.7910757665
 10
168.9669163136
 20
141.5108799929
 10
168.9909925361
 20
141.2279595435
 10
168.9669163136
 20
140.945039094
 10
168.8949191242
 20
140.6648433204
 10
168.7756942509
 20
140.390070762
 10
168.6103903597
 20
140.1233673045
 10
168.4005991529
 20
139.8673017541
 10
168.1483408392
 20
139.6243401527
 10
167.8560450773
 20
139.3968222307
 10
167.5265265276
 20
139.1869393095
 10
167.1629592513
 20
138.9967122999
 10
166.7688439474
 20
138.8279735483
 10
166.3479765076
 20
138.6823479235
 10
165.904409903
 20
138.5612380377
 10
165.442415906
 20
138.4658101326
 10
164.9664443018
 20
138.3969830782
 10
164.4810783955
 20
138.3554199855
 10
163.9909927007
 20
138.341521078
 10
163.500907006
 20
138.3554199855
 10
163.0155410997
 20
138.3969830782
 10
162.5395694955
 20
138.4658101326
 10
162.0775754984
 20
138.5612380377
 10
161.6340088938
 20
138.6823479235
 10
161.2131414541
 20
138.8279735483
 10
160.8190261502
 20
138.9967122999
 10
160.4554588738
 20
139.1869393095
 10
160.1259403242
 20
139.3968222307
 10
159.8336445623
 20
139.6243401527
 10
159.5813862485
 20
139.8673017541
 10
159.3715950417
 20
140.1233673045
 10
159.2062911506
 20
140.390070762
 10
159.0870662772
 20
140.6648433204
 10
159.0150690879
 20
140.945039094
 10
158.9909928653
 20
141.2279595435
 10
159.0150690879
 20
141.5108799929
 10
159.0870662772
 20
141.7910757665
 10
159.2062911506
 20
142.0658483249
 10
159.3715950417
 20
142.3325517824
 10
159.5813862485
 20
142.5886173328
 10
159.8336445623
 20
142.8315789342
 10
160.1259403242
 20
143.0590968562
 10
160.4554588738
 20
143.2689797774
 10
160.4554588738
 20
143.2689797774
  0
LWPOLYLINE
  5
E3
330
1F
100
AcDbEntity
  8
0
  6
Continuous
 62
     7
370
    15
100
AcDbPolyline
 90
       33
 70
   128
 43
0.0
 10
168.9909925361
 20
139.1866071791
 10
168.9669163136
 20
138.9036867297
 10
168.8949191242
 20
138.6234909561
 10
168.7756942509
 20
138.3487183977
 10
168.6103903597
 20
138.0820149402
 10
168.4005991529
 20
137.8259493898
 10
168.1483408392
 20
137.5829877884
 10
167.8560450773
 20
137.3554698663
 10
167.5265265276
 20
137.1455869452
 10
167.1629592513
 20
136.9553599356
 10
166.7688439474
 20
136.786621184
 10
166.3479765076
 20
136.6409955591
 10
165.904409903
 20
136.5198856733
 10
165.442415906
 20
136.4244577682
 10
164.9664443018
 20
136.3556307139
 10
164.4810783955
 20
136.3140676212
 10
163.9909927007
 20
136.3001687137
 10
163.500907006
 20
136.3140676212
 10
163.0155410997
 20
136.3556307139
 10
162.5395694955
 20
136.4244577682
 10
162.0775754984
 20
136.5198856733
 10
161.6340088938
 20
136.6409955591
 10
161.2131414541
 20
136.786621184
 10
160.8190261502
 20
136.9553599356
 10
160.4554588738
 20
137.1455869452
 10
160.1259403242
 20
137.3554698663
 10
159.8336445623
 20
137.5829877884
 10
159.5813862485
 20
137.8259493898
 10
159.3715950417
 20
138.0820149402
 10
159.2062911506
 20
138.3487183977
 10
159.0870662772
 20
138.6234909561
 10
159.0150690879
 20
138.9036867297
 10
158.9909928653
 20
139.1866071791
  0
LWPOLYLINE
  5
E4
330
1F
100
AcDbEntity
  8
0
  6
Continuous
 62
     7
370
    15
100
AcDbPolyline
 90
       31
 70
   128
 43
0.0
 10
168.2409926596
 20
126.9384952746
 10
168.2225545658
 20
126.7102044439
 10
168.156547662
 20
126.4518409581
 10
168.0433435318
 20
126.1989914529
 10
167.8842244437
 20
125.9545209344
 10
167.6809937396
 20
125.721199081
 10
167.4359534853
 20
125.5016698539
 10
167.1518807011
 20
125.2984202873
 10
166.8319937353
 20
125.1137534727
 10
166.4799170111
 20
124.9497617451
 10
166.0996400322
 20
124.8083030173
 10
165.6954709351
 20
124.6909804291
 10
165.271989691
 20
124.5991229348
 10
164.8339940437
 20
124.5337715815
 10
164.3864468668
 20
124.495666607
 10
163.934418953
 20
124.485239884
 10
163.483032297
 20
124.5026095503
 10
163.0374009907
 20
124.547578773
 10
162.6025740126
 20
124.6196379822
 10
162.1834787573
 20
124.7179708587
 10
161.784862919
 20
124.8414629826
 10
161.4112437428
 20
124.9887155434
 10
161.066854008
 20
125.1580597954
 10
160.7555960486
 20
125.3475771381
 10
160.4809962009
 20
125.5551200913
 10
160.2461661029
 20
125.7783372967
 10
160.0537666449
 20
126.0146996519
 10
159.9059772389
 20
126.2615288855
 10
159.8044726458
 20
126.516028422
 10
159.7504031782
 20
126.7753147696
 10
159.7409927419
 20
126.9384952746
  0
LINE
  5
E5
330
1F
100
AcDbEntity
  8
0
  6
Continuous
 62
     7
370
    15
100
AcDbLine
 10
84.6546198932
 20
231.9415465021
 30
0.0
 11
84.6546198932
 21
267.7665457153
 31
0.0
  0
SPLINE
  5
E6
330
1F
100
AcDbEntity
  8
0
  6
Continuous
 62
     7
370
    15
100
AcDbSpline
210
0.0
220
0.0
230
1.0
 70
     8
 71
     3
 72
    32
 73
    28
 74
     0
 42
0.00000001
 43
0.00000001
 40
0.0
 40
0.0
 40
0.0
 40
0.0
 40
0.1249999999999963
 40
0.1249999999999963
 40
0.187499999999995
 40
0.187499999999995
 40
0.2499999999999938
 40
0.2499999999999938
 40
0.3749999999999913
 40
0.3749999999999913
 40
0.4374999999999931
 40
0.4374999999999931
 40
0.4999999999999949
 40
0.4999999999999949
 40
0.5624999999999967
 40
0.5624999999999967
 40
0.6249999999999984
 40
0.6249999999999984
 40
0.7500000000000021
 40
0.7500000000000021
 40
0.8125000000000016
 40
0.8125000000000016
 40
0.875000000000001
 40
0.875000000000001
 40
0.9375000000000006
 40
0.9375000000000006
 40
1.0
 40
1.0
 40
1.0
 40
1.0
 10
84.65461991923364
 20
229.9415474438226
 30
0.0
 10
84.65461991923365
 20
229.9415474438226
 30
0.0
 10
84.6637430842645
 20
229.9680880974824
 30
0.0
 10
84.68711643169225
 20
230.0434123410536
 30
0.0
 10
84.69658504312171
 20
230.0748426219926
 30
0.0
 10
84.71698656267431
 20
230.1472574102335
 30
0.0
 10
84.72797630372068
 20
230.1883873502622
 30
0.0
 10
84.76157219776704
 20
230.3269303142856
 30
0.0
 10
84.78388965409104
 20
230.4359883536673
 30
0.0
 10
84.80841310149872
 20
230.6182554953784
 30
0.0
 10
84.81491309769035
 20
230.6807164124602
 30
0.0
 10
84.82381512063967
 20
230.8090566805793
 30
0.0
 10
84.82619556718183
 20
230.8757715277349
 30
0.0
 10
84.82619001677624
 20
231.0075616011872
 30
0.0
 10
84.82388224375568
 20
231.0728119614693
 30
0.0
 10
84.81495478519804
 20
231.2020328746627
 30
0.0
 10
84.80830742698383
 20
231.2656658205669
 30
0.0
 10
84.7839931510679
 20
231.446254999278
 30
0.0
 10
84.76140413442717
 20
231.5568579439434
 30
0.0
 10
84.72805941171984
 20
231.6943646611243
 30
0.0
 10
84.71684934913857
 20
231.736343430975
 30
0.0
 10
84.69645461863614
 20
231.8086960379724
 30
0.0
 10
84.68719620055953
 20
231.839421025501
 30
0.0
 10
84.67156611364524
 20
231.8898002843466
 30
0.0
 10
84.66525137994188
 20
231.9092621093991
 30
0.0
 10
84.65683306466639
 20
231.934962480794
 30
0.0
 10
84.65461991923364
 20
231.9415474438227
 30
0.0
 10
84.65461991923364
 20
231.9415474438227
 30
0.0
  0
LINE
  5
E7
330
1F
100
AcDbEntity
  8
0
  6
Continuous
 62
     7
370
    15
100
AcDbLine
 10
84.6546198932
 20
216.2665475183
 30
0.0
 11
84.6546198932
 21
229.9415480369
 31
0.0
  0
LINE
  5
E8
330
1F
100
AcDbEntity
  8
0
  6
Continuous
 62
     7
370
    15
100
AcDbLine
 10
90.6546199453
 20
229.9415480369
 30
0.0
 11
90.6546199453
 21
216.2665475183
 31
0.0
  0
SPLINE
  5
E9
330
1F
100
AcDbEntity
  8
0
  6
Continuous
 62
     7
370
    15
100
AcDbSpline
210
0.0
220
0.0
230
1.0
 70
     8
 71
     3
 72
    34
 73
    30
 74
     0
 42
0.00000001
 43
0.00000001
 40
0.0
 40
0.0
 40
0.0
 40
0.0
 40
0.0625
 40
0.0625
 40
0.125
 40
0.125
 40
0.2500000000000001
 40
0.2500000000000001
 40
0.3125000000000001
 40
0.3125000000000001
 40
0.3750000000000001
 40
0.3750000000000001
 40
0.4375000000000001
 40
0.4375000000000001
 40
0.5
 40
0.5
 40
0.5625
 40
0.5625
 40
0.625
 40
0.625
 40
0.6875
 40
0.6875
 40
0.75
 40
0.75
 40
0.875
 40
0.875
 40
0.9375
 40
0.9375
 40
1.0
 40
1.0
 40
1.0
 40
1.0
 10
90.65461991923364
 20
231.9415474438227
 30
0.0
 10
90.65461991923364
 20
231.9415474438227
 30
0.0
 10
90.65245020679976
 20
231.9350942464664
 30
0.0
 10
90.64399123900562
 20
231.9092714248576
 30
0.0
 10
90.63767275778764
 20
231.8897947018471
 30
0.0
 10
90.614323788202
 20
231.8145431431072
 30
0.0
 10
90.59229590825367
 20
231.7402054639559
 30
0.0
 10
90.55894179128376
 20
231.6026557107753
 30
0.0
 10
90.5475993330743
 20
231.551581898258
 30
0.0
 10
90.52675102000161
 20
231.4434928658469
 30
0.0
 10
90.51717730748706
 20
231.386318929926
 30
0.0
 10
90.50090129506505
 20
231.2654371537722
 30
0.0
 10
90.49425943519935
 20
231.2016599834366
 30
0.0
 10
90.48538409393784
 20
231.0731976068271
 30
0.0
 10
90.4830384336522
 20
231.0077713164582
 30
0.0
 10
90.4830557018578
 20
230.8745901064367
 30
0.0
 10
90.48541603881242
 20
230.8092155937761
 30
0.0
 10
90.49432101327628
 20
230.6807652522883
 30
0.0
 10
90.50097578809643
 20
230.6170087151182
 30
0.0
 10
90.51727089392742
 20
230.4961776456385
 30
0.0
 10
90.5268637512091
 20
230.4389460642126
 30
0.0
 10
90.54778301964639
 20
230.3306331764703
 30
0.0
 10
90.55909513077593
 20
230.2797729224573
 30
0.0
 10
90.59239677721432
 20
230.14254186315
 30
0.0
 10
90.61441832180293
 20
230.0682397456502
 30
0.0
 10
90.63769525305949
 20
229.9932313650603
 30
0.0
 10
90.64400285536968
 20
229.9737876438989
 30
0.0
 10
90.65245854643408
 20
229.9479755409278
 30
0.0
 10
90.65461991923365
 20
229.9415474438226
 30
0.0
 10
90.65461991923364
 20
229.9415474438226
 30
0.0
  0
LINE
  5
EA
330
1F
100
AcDbEntity
  8
0
  6
Continuous
 62
     7
370
    15
100
AcDbLine
 10
90.6546199453
 20
267.7665457153
 30
0.0
 11
90.6546199453
 21
231.9415465021
 31
0.0
  0
LINE
  5
EB
330
1F
100
AcDbEntity
  8
0
  6
Continuous
 62
     7
370
    15
100
AcDbLine
 10
84.6546198932
 20
229.9415480369
 30
0.0
 11
90.6546199453
 21
229.9415480369
 31
0.0
  0
LINE
  5
EC
330
1F
100
AcDbEntity
  8
0
  6
Continuous
 62
     7
370
    15
100
AcDbLine
 10
90.6546199453
 20
231.9415465021
 30
0.0
 11
84.6546198932
 21
231.9415465021
 31
0.0
  0
CIRCLE
  5
ED
330
1F
100
AcDbEntity
  8
0
  6
Continuous
 62
     7
370
    15
100
AcDbCircle
 10
87.6546199192
 20
226.9415474438
 30
0.0
 40
0.9999999999999858
  0
LINE
  5
EE
330
1F
100
AcDbEntity
  8
0
  6
Continuous
 62
     7
370
    15
100
AcDbLine
 10
83.4046196883
 20
198.7665474438
 30
0.0
 11
83.4046196883
 21
213.7665471085
 31
0.0
  0
LINE
  5
EF
330
1F
100
AcDbEntity
  8
0
  6
Continuous
 62
     7
370
    15
100
AcDbLine
 10
83.4046196883
 20
213.7665471085
 30
0.0
 11
82.654620031
 21
213.7665471085
 31
0.0
  0
LINE
  5
F0
330
1F
100
AcDbEntity
  8
0
  6
Continuous
 62
     7
370
    15
100
AcDbLine
 10
82.654620031
 20
213.7665471085
 30
0.0
 11
82.654620031
 21
216.2665475183
 31
0.0
  0
LINE
  5
F1
330
1F
100
AcDbEntity
  8
0
  6
Continuous
 62
     7
370
    15
100
AcDbLine
 10
82.654620031
 20
216.2665475183
 30
0.0
 11
84.6546198932
 21
216.2665475183
 31
0.0
  0
LINE
  5
F2
330
1F
100
AcDbEntity
  8
0
  6
Continuous
 62
     7
370
    15
100
AcDbLine
 10
90.6546199453
 20
216.2665475183
 30
0.0
 11
92.6546198075
 21
216.2665475183
 31
0.0
  0
LINE
  5
F3
330
1F
100
AcDbEntity
  8
0
  6
Continuous
 62
     7
370
    15
100
AcDbLine
 10
92.6546198075
 20
216.2665475183
 30
0.0
 11
92.6546198075
 21
213.7665471085
 31
0.0
  0
LINE
  5
F4
330
1F
100
AcDbEntity
  8
0
  6
Continuous
 62
     7
370
    15
100
AcDbLine
 10
92.6546198075
 20
213.7665471085
 30
0.0
 11
91.9046201502
 21
213.7665471085
 31
0.0
  0
LINE
  5
F5
330
1F
100
AcDbEntity
  8
0
  6
Continuous
 62
     7
370
    15
100
AcDbLine
 10
91.9046201502
 20
213.7665471085
 30
0.0
 11
91.9046201502
 21
198.7665474438
 31
0.0
  0
LINE
  5
F6
330
1F
100
AcDbEntity
  8
0
  6
Continuous
 62
     7
370
    15
100
AcDbLine
 10
91.9046201502
 20
198.7665474438
 30
0.0
 11
83.4046196883
 21
198.7665474438
 31
0.0
  0
LINE
  5
F7
330
1F
100
AcDbEntity
  8
0
  6
Continuous
 62
     7
370
    15
100
AcDbLine
 10
84.6546198932
 20
267.7665457153
 30
0.0
 11
90.6546199453
 21
267.7665457153
 31
0.0
  0
LINE
  5
F8
330
1F
100
AcDbEntity
  8
0
  6
CENTERX2
 62
     7
370
     0
100
AcDbLine
 10
80.9546862782
 20
230.9415474438
 30
0.0
 11
94.3353214948
 21
230.9415474438
 31
0.0
  0
HATCH
  5
F9
330
1F
100
AcDbEntity
  8
0
  6
Continuous
 62
     7
370
     0
100
AcDbHatch
 10
0.0
 20
0.0
 30
0.0
210
0.0
220
0.0
230
1.0
  2
ANSI31
 70
     0
 71
     0
 91
        2
 92
        0
 93
       12
 72
     1
 10
83.40461991923364
 20
198.7665474438227
 11
91.90461991923364
 21
198.7665474438227
 72
     1
 10
91.90461991923364
 20
198.7665474438227
 11
91.90461991923364
 21
213.7665474438227
 72
     1
 10
91.90461991923364
 20
213.7665474438227
 11
92.65461991923364
 21
213.7665474438227
 72
     1
 10
92.65461991923364
 20
213.7665474438227
 11
92.65461991923364
 21
216.2665474438226
 72
     1
 10
92.65461991923364
 20
216.2665474438226
 11
90.65461991923364
 21
216.2665474438226
 72
     1
 10
90.65461991923364
 20
216.2665474438226
 11
90.65461991923416
 21
229.9415474438211
 72
     1
 10
90.65461991923416
 20
229.9415474438211
 11
84.65461991923364
 21
229.9415474438227
 72
     1
 10
84.65461991923364
 20
229.9415474438227
 11
84.65461991923364
 21
216.2665474438226
 72
     1
 10
84.65461991923364
 20
216.2665474438226
 11
82.65461991923364
 21
216.2665474438226
 72
     1
 10
82.65461991923364
 20
216.2665474438226
 11
82.65461991923364
 21
213.7665474438227
 72
     1
 10
82.65461991923364
 20
213.7665474438227
 11
83.40461991923364
 21
213.7665474438227
 72
     1
 10
83.40461991923364
 20
213.7665474438227
 11
83.40461991923364
 21
198.7665474438227
 97
        0
 92
        0
 93
        1
 72
     2
 10
87.65461991923364
 20
226.9415474438227
 40
0.9999999999999957
 50
0.0
 51
360.0
 73
     1
 97
        0
 75
     0
 76
     1
 52
0.0
 41
1.0
 77
     0
 78
     1
 53
45.0
 43
0.0
 44
0.0
 45
-2.245064030267288
 46
2.245064030267288
 79
     0
 98
        1
 10
0.0
 20
0.0
  0
HATCH
  5
FA
330
1F
100
AcDbEntity
  8
0
  6
Continuous
 62
     7
370
     0
100
AcDbHatch
 10
0.0
 20
0.0
 30
0.0
210
0.0
220
0.0
230
1.0
  2
ANSI31
 70
     0
 71
     0
 91
        1
 92
        0
 93
        4
 72
     1
 10
90.65461991923362
 20
267.7665474438227
 11
84.65461991923364
 21
267.7665474438227
 72
     1
 10
84.65461991923364
 20
267.7665474438227
 11
84.65461991923364
 21
231.9415474438227
 72
     1
 10
84.65461991923364
 20
231.9415474438227
 11
90.65461991923364
 21
231.9415474438227
 72
     1
 10
90.65461991923364
 20
231.9415474438227
 11
90.65461991923362
 21
267.7665474438227
 97
        0
 75
     0
 76
     1
 52
0.0
 41
1.0
 77
     0
 78
     1
 53
45.0
 43
0.0
 44
0.0
 45
-2.245064030267288
 46
2.245064030267288
 79
     0
 98
        1
 10
0.0
 20
0.0
  0
DIMENSION
  5
FB
330
1F
100
AcDbEntity
  8
0
  6
Continuous
 62
     7
370
     0
100
AcDbDimension
  2
*D9
 10
114.6546199192
 20
230.9415474438
 30
0.0
 11
114.6546199192
 21
219.7383959525
 31
0.0
 70
   160
 71
     2
 42
-1.0
  3
SLDDIMSTYLE1
100
AcDbAlignedDimension
 13
92.6546199192
 23
213.7665474438
 33
0.0
 14
94.3353214948
 24
230.9415474438
 34
0.0
 50
90.0
100
AcDbRotatedDimension
  0
DIMENSION
  5
108
330
1F
100
AcDbEntity
  8
0
  6
Continuous
 62
     7
370
     0
100
AcDbDimension
  2
*D10
 10
72.6546199192
 20
216.2665474438
 30
0.0
 11
72.6546199192
 21
204.8304362503
 31
0.0
 70
   160
 71
     2
 42
-1.0
  3
SLDDIMSTYLE1
100
AcDbAlignedDimension
 13
82.6546199192
 23
213.7665474438
 33
0.0
 14
82.6546199192
 24
216.2665474438
 34
0.0
 50
90.0
100
AcDbRotatedDimension
  0
DIMENSION
  5
114
330
1F
100
AcDbEntity
  8
0
  6
Continuous
 62
     7
370
     0
100
AcDbDimension
  2
*D11
 10
66.6546199192
 20
198.7665474438
 30
0.0
 11
66.6546199192
 21
206.2665474438
 31
0.0
 70
   160
 71
     2
 42
-1.0
  3
SLDDIMSTYLE1
100
AcDbAlignedDimension
 13
82.6546199192
 23
213.7665474438
 33
0.0
 14
83.4046199192
 24
198.7665474438
 34
0.0
 50
90.0
100
AcDbRotatedDimension
  0
DIMENSION
  5
120
330
1F
100
AcDbEntity
  8
0
  6
Continuous
 62
     7
370
     0
100
AcDbDimension
  2
*D12
 10
54.6546199192
 20
267.7665474438
 30
0.0
 11
54.6546199192
 21
241.802644175
 31
0.0
 70
   160
 71
     2
 42
-1.0
  3
SLDDIMSTYLE2
100
AcDbAlignedDimension
 13
82.6546199192
 23
213.7665474438
 33
0.0
 14
84.6546199192
 24
267.7665474438
 34
0.0
 50
90.0
100
AcDbRotatedDimension
  0
DIMENSION
  5
12B
330
1F
100
AcDbEntity
  8
0
  6
Continuous
 62
     7
370
     0
100
AcDbDimension
  2
*D13
 10
104.773005758
 20
226.9415474438
 30
0.0
 11
104.773005758
 21
219.7383959525
 31
0.0
 70
   160
 71
     2
 42
-1.0
  3
SLDDIMSTYLE1
100
AcDbAlignedDimension
 13
92.6546199192
 23
213.7665474438
 33
0.0
 14
89.9046199192
 24
226.9415474438
 34
0.0
 50
90.0
100
AcDbRotatedDimension
  0
DIMENSION
  5
137
330
1F
100
AcDbEntity
  8
0
  6
Continuous
 62
     7
370
     0
100
AcDbDimension
  2
*D14
 10
86.9495478132
 20
226.2324118254
 30
0.0
 11
126.4913828844
 21
249.4220772905
 31
0.0
 70
   163
  1
<> (x2)
 71
     1
 42
-1.0
  3
SLDDIMSTYLE3
100
AcDbDiametricDimension
 15
88.3596920253
 25
227.6506830622
 35
0.0
 40
0.0
  0
DIMENSION
  5
143
330
1F
100
AcDbEntity
  8
0
  6
Continuous
 62
     7
370
     0
100
AcDbDimension
  2
*D15
 10
91.9046199192
 20
188.7665474438
 30
0.0
 11
104.773005758
 21
188.7665474438
 31
0.0
 70
   160
  1
%%c<>
 71
     2
 42
-1.0
  3
SLDDIMSTYLE1
100
AcDbAlignedDimension
 13
83.4046199192
 23
198.7665474438
 33
0.0
 14
91.9046199192
 24
198.7665474438
 34
0.0
100
AcDbRotatedDimension
  0
DIMENSION
  5
150
330
1F
100
AcDbEntity
  8
0
  6
Continuous
 62
     7
370
     0
100
AcDbDimension
  2
*D16
 10
90.6546199192
 20
277.7665474438
 30
0.0
 11
103.523005758
 21
277.7665474438
 31
0.0
 70
   160
  1
%%c<>s
 71
     2
 42
-1.0
  3
SLDDIMSTYLE4
100
AcDbAlignedDimension
 13
84.6546199192
 23
267.7665474438
 33
0.0
 14
90.6546199192
 24
267.7665474438
 34
0.0
100
AcDbRotatedDimension
  0
MTEXT
  5
15F
330
1F
100
AcDbEntity
  8
0
  6
Continuous
 62
     7
370
     0
100
AcDbMText
 10
88.2166525933
 20
183.7102398784
 30
0.0
 40
3.5
 41
0.0
 71
     2
 72
     1
  1
COUPE A-A
  7
SLDTEXTSTYLE0
 73
     1
 44
1.0
  0
TOLERANCE
  5
162
102
{ACAD_REACTORS
330
164
102
}
330
1F
100
AcDbEntity
  8
0
  6
Continuous
 62
     7
370
     0
100
AcDbFcf
  3
SLDDIMSTYLE5
 10
52.8110504116
 20
230.9415474438
 30
0.0
  1
{\Fgdt;b}%%vB%%v%%v0.1%%v%%v%%v^J
  0
LEADER
  5
164
330
1F
100
AcDbEntity
  8
0
  6
Continuous
 62
     7
370
     0
100
AcDbLeader
  3
SLDDIMSTYLE6
 71
     0
 73
     1
 40
25.0845
 41
7.0
 76
     2
 10
80.9546862782
 20
230.9415474438
 30
0.0
 10
77.8955504116
 20
230.9415474438
 30
0.0
340
162
  0
TOLERANCE
  5
165
330
1F
100
AcDbEntity
  8
0
  6
Continuous
 62
     7
370
     0
100
AcDbFcf
  3
SLDDIMSTYLE5
 10
116.4851497659
 20
243.1172161193
 30
0.0
  1
{\Fgdt;b}%%vA%%v%%v0.1%%v%%v%%v^J
  0
INSERT
  5
171
330
1F
100
AcDbEntity
  8
0
  6
Continuous
 62
     7
370
     0
100
AcDbBlockReference
  2
SW_CENTERMARKSYMBOL_1
 10
87.6546199192
 20
226.9415474438
 30
0.0
  0
INSERT
  5
17D
330
1F
100
AcDbEntity
  8
0
  6
Continuous
 62
     7
370
     0
100
AcDbBlockReference
  2
SW_DATUMTAG_2
 10
44.5924254915
 20
176.6551028129
 30
0.0
  0
ENDSEC
  0
SECTION
  2
OBJECTS
  0
DICTIONARY
  5
C
330
0
100
AcDbDictionary
281
     1
  3
ACAD_GROUP
350
D
  3
ACAD_IMAGE_DICT
350
45
  3
ACAD_LAYOUT
350
1A
  3
ACAD_MLINESTYLE
350
17
  3
ACAD_PLOTSETTINGS
350
19
  3
ACAD_PLOTSTYLENAME
350
E
  0
IMAGEDEF_REACTOR
  5
48
330
47
100
AcDbRasterImageDefReactor
 90
        2
330
47
  0
DICTIONARY
  5
D
102
{ACAD_REACTORS
330
C
102
}
330
C
100
AcDbDictionary
281
     1
  0
DICTIONARY
  5
45
102
{ACAD_REACTORS
330
C
102
}
330
C
100
AcDbDictionary
281
     1
  3
J:\Ingenierie\HOWIT\Prototype-2013\Plans\dxf871D.bmp
350
46
  0
DICTIONARY
  5
1A
102
{ACAD_REACTORS
330
C
102
}
330
C
100
AcDbDictionary
281
     1
  3
Layout1
350
1E
  3
Layout2
350
26
  3
Model
350
22
  0
DICTIONARY
  5
17
102
{ACAD_REACTORS
330
C
102
}
330
C
100
AcDbDictionary
281
     1
  3
Standard
350
18
  0
DICTIONARY
  5
19
102
{ACAD_REACTORS
330
C
102
}
330
C
100
AcDbDictionary
281
     1
  0
ACDBDICTIONARYWDFLT
  5
E
102
{ACAD_REACTORS
330
C
102
}
330
C
100
AcDbDictionary
281
     1
  3
Normal
350
F
100
AcDbDictionaryWithDefault
340
F
  0
IMAGEDEF
  5
46
102
{ACAD_REACTORS
330
45
330
48
102
}
330
45
100
AcDbRasterImageDef
 90
        0
  1
J:\Ingenierie\HOWIT\Prototype-2013\Plans\dxf871D.bmp
 10
400.0
 20
420.0
 11
0.2645502645502645
 21
0.2645502645502645
280
     1
281
     3
  0
LAYOUT
  5
1E
102
{ACAD_REACTORS
330
1A
102
}
330
1A
100
AcDbPlotSettings
  1

  2
none_device
  4

  6

 40
0.0
 41
0.0
 42
0.0
 43
0.0
 44
0.0
 45
0.0
 46
0.0
 47
0.0
 48
0.0
 49
0.0
140
0.0
141
0.0
142
1.0
143
1.0
 70
   688
 72
     0
 73
     0
 74
     5
  7

 75
    16
147
1.0
148
0.0
149
0.0
100
AcDbLayout
  1
Layout1
 70
     1
 71
     1
 10
0.0
 20
0.0
 11
420.0
 21
297.0
 12
0.0
 22
0.0
 32
0.0
 14
1.0000000000E+20
 24
1.0000000000E+20
 34
1.0000000000E+20
 15
-1.0000000000E+20
 25
-1.0000000000E+20
 35
-1.0000000000E+20
146
0.0
 13
0.0
 23
0.0
 33
0.0
 16
1.0
 26
0.0
 36
0.0
 17
0.0
 27
1.0
 37
0.0
 76
     0
330
1B
  0
LAYOUT
  5
26
102
{ACAD_REACTORS
330
1A
102
}
330
1A
100
AcDbPlotSettings
  1

  2
none_device
  4

  6

 40
0.0
 41
0.0
 42
0.0
 43
0.0
 44
0.0
 45
0.0
 46
0.0
 47
0.0
 48
0.0
 49
0.0
140
0.0
141
0.0
142
1.0
143
1.0
 70
   688
 72
     0
 73
     0
 74
     5
  7

 75
    16
147
1.0
148
0.0
149
0.0
100
AcDbLayout
  1
Layout2
 70
     1
 71
     2
 10
0.0
 20
0.0
 11
0.0
 21
0.0
 12
0.0
 22
0.0
 32
0.0
 14
0.0
 24
0.0
 34
0.0
 15
0.0
 25
0.0
 35
0.0
146
0.0
 13
0.0
 23
0.0
 33
0.0
 16
1.0
 26
0.0
 36
0.0
 17
0.0
 27
1.0
 37
0.0
 76
     0
330
23
  0
LAYOUT
  5
22
102
{ACAD_REACTORS
330
1A
102
}
330
1A
100
AcDbPlotSettings
  1

  2
none_device
  4

  6

 40
0.0
 41
0.0
 42
0.0
 43
0.0
 44
0.0
 45
0.0
 46
0.0
 47
0.0
 48
0.0
 49
0.0
140
0.0
141
0.0
142
1.0
143
1.0
 70
  1712
 72
     0
 73
     0
 74
     0
  7

 75
     0
147
1.0
148
0.0
149
0.0
100
AcDbLayout
  1
Model
 70
     1
 71
     0
 10
0.0
 20
0.0
 11
210.0
 21
297.0
 12
0.0
 22
0.0
 32
0.0
 14
0.0
 24
0.0
 34
0.0
 15
210.0
 25
297.0
 35
0.0
146
0.0
 13
0.0
 23
0.0
 33
0.0
 16
1.0
 26
0.0
 36
0.0
 17
0.0
 27
1.0
 37
0.0
 76
     0
330
1F
331
29
  0
MLINESTYLE
  5
18
102
{ACAD_REACTORS
330
17
102
}
330
17
100
AcDbMlineStyle
  2
Standard
 70
     0
  3

 62
   256
 51
90.0
 52
90.0
 71
     2
 49
0.5
 62
   256
  6
BYLAYER
 49
-0.5
 62
   256
  6
BYLAYER
  0
ACDBPLACEHOLDER
  5
F
102
{ACAD_REACTORS
330
E
102
}
330
E
  0
ENDSEC
  0
EOF
