  0
SECTION
  2
HEADER
  9
$ACADVER
  1
AC1015
  9
$ACADMAINTVER
 70
     6
  9
$DWGCODEPAGE
  3
ANSI_1252
  9
$INSBASE
 10
0.0
 20
0.0
 30
0.0
  9
$EXTMIN
 10
0.0
 20
0.0
 30
0.0
  9
$EXTMAX
 10
420.0
 20
297.0
 30
0.0
  9
$LIMMIN
 10
0.0
 20
0.0
  9
$LIMMAX
 10
420.0
 20
297.0
  9
$ORTHOMODE
 70
     0
  9
$REGENMODE
 70
     1
  9
$FILLMODE
 70
     1
  9
$QTEXTMODE
 70
     0
  9
$MIRRTEXT
 70
     1
  9
$LTSCALE
 40
1.0
  9
$ATTMODE
 70
     1
  9
$TEXTSIZE
 40
3.5
  9
$TRACEWID
 40
1.0
  9
$TEXTSTYLE
  7
Standard
  9
$CLAYER
  8
0
  9
$CELTYPE
  6
ByLayer
  9
$CECOLOR
 62
   256
  9
$CELTSCALE
 40
1.0
  9
$DISPSILH
 70
     0
  9
$DIMSCALE
 40
1.0
  9
$DIMASZ
 40
3.302
  9
$DIMEXO
 40
1.0
  9
$DIMDLI
 40
3.75
  9
$DIMRND
 40
0.0
  9
$DIMDLE
 40
0.0
  9
$DIMEXE
 40
1.0
  9
$DIMTP
 40
0.0
  9
$DIMTM
 40
0.0
  9
$DIMTXT
 40
3.5
  9
$DIMCEN
 40
2.5
  9
$DIMTSZ
 40
0.0
  9
$DIMTOL
 70
     0
  9
$DIMLIM
 70
     0
  9
$DIMTIH
 70
     1
  9
$DIMTOH
 70
     1
  9
$DIMSE1
 70
     0
  9
$DIMSE2
 70
     0
  9
$DIMTAD
 70
     1
  9
$DIMZIN
 70
     0
  9
$DIMBLK
  1

  9
$DIMASO
 70
     1
  9
$DIMSHO
 70
     1
  9
$DIMPOST
  1

  9
$DIMAPOST
  1

  9
$DIMALT
 70
     0
  9
$DIMALTD
 70
     3
  9
$DIMALTF
 40
0.0393700787
  9
$DIMLFAC
 40
5.0
  9
$DIMTOFL
 70
     1
  9
$DIMTVP
 40
0.0
  9
$DIMTIX
 70
     0
  9
$DIMSOXD
 70
     0
  9
$DIMSAH
 70
     0
  9
$DIMBLK1
  1

  9
$DIMBLK2
  1

  9
$DIMSTYLE
  2
ISO-25
  9
$DIMCLRD
 70
     0
  9
$DIMCLRE
 70
     0
  9
$DIMCLRT
 70
     0
  9
$DIMTFAC
 40
1.0
  9
$DIMGAP
 40
1.524
  9
$DIMJUST
 70
     0
  9
$DIMSD1
 70
     0
  9
$DIMSD2
 70
     0
  9
$DIMTOLJ
 70
     0
  9
$DIMTZIN
 70
     0
  9
$DIMALTZ
 70
     0
  9
$DIMALTTZ
 70
     0
  9
$DIMUPT
 70
     0
  9
$DIMDEC
 70
     3
  9
$DIMTDEC
 70
     3
  9
$DIMALTU
 70
     2
  9
$DIMALTTD
 70
     3
  9
$DIMTXSTY
  7
Standard
  9
$DIMAUNIT
 70
     0
  9
$DIMADEC
 70
     2
  9
$DIMALTRND
 40
0.0
  9
$DIMAZIN
 70
     0
  9
$DIMDSEP
 70
    44
  9
$DIMATFIT
 70
     3
  9
$DIMFRAC
 70
     0
  9
$DIMLDRBLK
  1

  9
$DIMLUNIT
 70
     2
  9
$DIMLWD
 70
    -2
  9
$DIMLWE
 70
    -2
  9
$DIMTMOVE
 70
     0
  9
$LUNITS
 70
     2
  9
$LUPREC
 70
     2
  9
$SKETCHINC
 40
1.0
  9
$FILLETRAD
 40
10.0
  9
$AUNITS
 70
     0
  9
$AUPREC
 70
     2
  9
$MENU
  1
.
  9
$ELEVATION
 40
0.0
  9
$PELEVATION
 40
0.0
  9
$THICKNESS
 40
0.0
  9
$LIMCHECK
 70
     0
  9
$CHAMFERA
 40
10.0
  9
$CHAMFERB
 40
10.0
  9
$CHAMFERC
 40
20.0
  9
$CHAMFERD
 40
0.0
  9
$SKPOLY
 70
     0
  9
$TDCREATE
 40
2456790.285311065
  9
$TDUCREATE
 40
2456790.243644398
  9
$TDUPDATE
 40
2456790.285311076
  9
$TDUUPDATE
 40
2456790.24364441
  9
$TDINDWG
 40
0.0000000116
  9
$TDUSRTIMER
 40
0.0000000116
  9
$USRTIMER
 70
     1
  9
$ANGBASE
 50
0.0
  9
$ANGDIR
 70
     0
  9
$PDMODE
 70
     0
  9
$PDSIZE
 40
-1.0
  9
$PLINEWID
 40
0.0
  9
$SPLFRAME
 70
     0
  9
$SPLINETYPE
 70
     6
  9
$SPLINESEGS
 70
     8
  9
$HANDSEED
  5
2D6
  9
$SURFTAB1
 70
     6
  9
$SURFTAB2
 70
     6
  9
$SURFTYPE
 70
     6
  9
$SURFU
 70
     6
  9
$SURFV
 70
     6
  9
$UCSBASE
  2

  9
$UCSNAME
  2

  9
$UCSORG
 10
0.0
 20
0.0
 30
0.0
  9
$UCSXDIR
 10
1.0
 20
0.0
 30
0.0
  9
$UCSYDIR
 10
0.0
 20
1.0
 30
0.0
  9
$UCSORTHOREF
  2

  9
$UCSORTHOVIEW
 70
     0
  9
$UCSORGTOP
 10
0.0
 20
0.0
 30
0.0
  9
$UCSORGBOTTOM
 10
0.0
 20
0.0
 30
0.0
  9
$UCSORGLEFT
 10
0.0
 20
0.0
 30
0.0
  9
$UCSORGRIGHT
 10
0.0
 20
0.0
 30
0.0
  9
$UCSORGFRONT
 10
0.0
 20
0.0
 30
0.0
  9
$UCSORGBACK
 10
0.0
 20
0.0
 30
0.0
  9
$PUCSBASE
  2

  9
$PUCSNAME
  2

  9
$PUCSORG
 10
0.0
 20
0.0
 30
0.0
  9
$PUCSXDIR
 10
1.0
 20
0.0
 30
0.0
  9
$PUCSYDIR
 10
0.0
 20
1.0
 30
0.0
  9
$PUCSORTHOREF
  2

  9
$PUCSORTHOVIEW
 70
     0
  9
$PUCSORGTOP
 10
0.0
 20
0.0
 30
0.0
  9
$PUCSORGBOTTOM
 10
0.0
 20
0.0
 30
0.0
  9
$PUCSORGLEFT
 10
0.0
 20
0.0
 30
0.0
  9
$PUCSORGRIGHT
 10
0.0
 20
0.0
 30
0.0
  9
$PUCSORGFRONT
 10
0.0
 20
0.0
 30
0.0
  9
$PUCSORGBACK
 10
0.0
 20
0.0
 30
0.0
  9
$USERI1
 70
     0
  9
$USERI2
 70
     0
  9
$USERI3
 70
     0
  9
$USERI4
 70
     0
  9
$USERI5
 70
     0
  9
$USERR1
 40
0.0
  9
$USERR2
 40
0.0
  9
$USERR3
 40
0.0
  9
$USERR4
 40
0.0
  9
$USERR5
 40
0.0
  9
$WORLDVIEW
 70
     1
  9
$SHADEDGE
 70
     3
  9
$SHADEDIF
 70
    70
  9
$TILEMODE
 70
     1
  9
$MAXACTVP
 70
    64
  9
$PINSBASE
 10
0.0
 20
0.0
 30
0.0
  9
$PLIMCHECK
 70
     0
  9
$PEXTMIN
 10
1.0000000000E+20
 20
1.0000000000E+20
 30
1.0000000000E+20
  9
$PEXTMAX
 10
-1.0000000000E+20
 20
-1.0000000000E+20
 30
-1.0000000000E+20
  9
$PLIMMIN
 10
0.0
 20
0.0
  9
$PLIMMAX
 10
420.0
 20
297.0
  9
$UNITMODE
 70
     0
  9
$VISRETAIN
 70
     1
  9
$PLINEGEN
 70
     0
  9
$PSLTSCALE
 70
     1
  9
$TREEDEPTH
 70
  3020
  9
$CMLSTYLE
  2
Standard
  9
$CMLJUST
 70
     0
  9
$CMLSCALE
 40
20.0
  9
$PROXYGRAPHICS
 70
     1
  9
$MEASUREMENT
 70
     1
  9
$CELWEIGHT
370
    -1
  9
$ENDCAPS
280
     0
  9
$JOINSTYLE
280
     0
  9
$LWDISPLAY
290
     1
  9
$INSUNITS
 70
     4
  9
$HYPERLINKBASE
  1

  9
$STYLESHEET
  1

  9
$XEDIT
290
     1
  9
$CEPSNTYPE
380
     0
  9
$PSTYLEMODE
290
     1
  9
$FINGERPRINTGUID
  2
{B625B832-66E0-4D81-80AB-647566FDB1AD}
  9
$VERSIONGUID
  2
{FAEB1C32-E019-11D5-929B-00C0DF256EC4}
  9
$EXTNAMES
290
     1
  9
$PSVPSCALE
 40
0.0
  9
$OLESTARTUP
290
     0
  0
ENDSEC
  0
SECTION
  2
CLASSES
  0
CLASS
  1
ACDBDICTIONARYWDFLT
  2
AcDbDictionaryWithDefault
  3
ObjectDBX Classes
 90
        0
280
     0
281
     0
  0
CLASS
  1
VISUALSTYLE
  2
AcDbVisualStyle
  3
ObjectDBX Classes
 90
     4095
280
     0
281
     0
  0
CLASS
  1
MATERIAL
  2
AcDbMaterial
  3
ObjectDBX Classes
 90
     1153
280
     0
281
     0
  0
CLASS
  1
IMAGEDEF
  2
AcDbRasterImageDef
  3
ISM
 90
        0
280
     0
281
     0
  0
CLASS
  1
IMAGE
  2
AcDbRasterImage
  3
ISM
 90
      127
280
     0
281
     1
  0
CLASS
  1
IMAGEDEF_REACTOR
  2
AcDbRasterImageDefReactor
  3
ISM
 90
        1
280
     0
281
     0
  0
CLASS
  1
ACDBPLACEHOLDER
  2
AcDbPlaceHolder
  3
ObjectDBX Classes
 90
        0
280
     0
281
     0
  0
CLASS
  1
LAYOUT
  2
AcDbLayout
  3
ObjectDBX Classes
 90
        0
280
     0
281
     0
  0
ENDSEC
  0
SECTION
  2
TABLES
  0
TABLE
  2
VPORT
  5
8
330
0
100
AcDbSymbolTable
 70
     1
  0
VPORT
  5
29
330
8
100
AcDbSymbolTableRecord
100
AcDbViewportTableRecord
  2
*Active
 70
     0
 10
0.0
 20
0.0
 11
1.0
 21
1.0
 12
210.0
 22
148.5
 13
0.0
 23
0.0
 14
10.0
 24
10.0
 15
10.0
 25
10.0
 16
0.0
 26
0.0
 36
1.0
 17
0.0
 27
0.0
 37
0.0
 40
297.0
 41
1.4141414141
 42
50.0
 43
0.0
 44
0.0
 50
0.0
 51
0.0
 71
     0
 72
  2000
 73
     1
 74
     3
 75
     0
 76
     0
 77
     0
 78
     0
281
     0
 65
     1
110
0.0
120
0.0
130
0.0
111
1.0
121
0.0
131
0.0
112
0.0
122
1.0
132
0.0
 79
     0
146
0.0
  0
ENDTAB
  0
TABLE
  2
LTYPE
  5
5
330
0
100
AcDbSymbolTable
 70
     6
  0
LTYPE
  5
14
330
5
100
AcDbSymbolTableRecord
100
AcDbLinetypeTableRecord
  2
ByBlock
 70
     0
  3

 72
    65
 73
     0
 40
0.0
  0
LTYPE
  5
15
330
5
100
AcDbSymbolTableRecord
100
AcDbLinetypeTableRecord
  2
ByLayer
 70
     0
  3

 72
    65
 73
     0
 40
0.0
  0
LTYPE
  5
16
330
5
100
AcDbSymbolTableRecord
100
AcDbLinetypeTableRecord
  2
Continuous
 70
     0
  3
Solid line
 72
    65
 73
     0
 40
0.0
  0
LTYPE
  5
3F
330
5
100
AcDbSymbolTableRecord
100
AcDbLinetypeTableRecord
  2
HIDDEN
 70
     0
  3
Hidden __ __ __ __ __ __ __ __ __ __ __ __ __ __
 72
    65
 73
     2
 40
1.905
 49
1.27
 74
     0
 49
-0.635
 74
     0
  0
LTYPE
  5
40
330
5
100
AcDbSymbolTableRecord
100
AcDbLinetypeTableRecord
  2
PHANTOM
 70
     0
  3
Phantom ______  __  __  ______  __  __  ______
 72
    65
 73
     6
 40
12.7
 49
6.35
 74
     0
 49
-1.27
 74
     0
 49
1.27
 74
     0
 49
-1.27
 74
     0
 49
1.27
 74
     0
 49
-1.27
 74
     0
  0
LTYPE
  5
41
330
5
100
AcDbSymbolTableRecord
100
AcDbLinetypeTableRecord
  2
CENTER
 70
     0
  3
Center ____ _ ____ _ ____ _ ____ _ ____ _ ____
 72
    65
 73
     4
 40
10.16
 49
6.35
 74
     0
 49
-1.27
 74
     0
 49
1.27
 74
     0
 49
-1.27
 74
     0
  0
LTYPE
  5
42
330
5
100
AcDbSymbolTableRecord
100
AcDbLinetypeTableRecord
  2
CENTERX2
 70
     0
  3
Center (2x) ________  __  ________  __  _____
 72
    65
 73
     4
 40
20.32
 49
12.7
 74
     0
 49
-2.54
 74
     0
 49
2.54
 74
     0
 49
-2.54
 74
     0
  0
LTYPE
  5
43
330
5
100
AcDbSymbolTableRecord
100
AcDbLinetypeTableRecord
  2
DOT2
 70
     0
  3
Dot (.5x) ........................................
 72
    65
 73
     2
 40
0.635
 49
0.0
 74
     0
 49
-0.635
 74
     0
  0
ENDTAB
  0
TABLE
  2
LAYER
  5
2
330
0
100
AcDbSymbolTable
 70
     2
  0
LAYER
  5
10
330
2
100
AcDbSymbolTableRecord
100
AcDbLayerTableRecord
  2
0
 70
     0
 62
     7
  6
Continuous
370
    -3
390
F
  0
LAYER
  5
44
330
2
100
AcDbSymbolTableRecord
100
AcDbLayerTableRecord
  2
FORMAT
 70
     0
 62
     7
  6
Continuous
370
    -3
390
F
  0
ENDTAB
  0
TABLE
  2
STYLE
  5
3
330
0
100
AcDbSymbolTable
 70
     5
  0
STYLE
  5
11
330
3
100
AcDbSymbolTableRecord
100
AcDbTextStyleTableRecord
  2
Standard
 70
     0
 40
0.0
 41
1.0
 50
0.0
 71
     0
 42
2.5
  3
txt
  4

  0
STYLE
  5
6D
330
3
100
AcDbSymbolTableRecord
100
AcDbTextStyleTableRecord
  2
SLDTEXTSTYLE0
 70
     0
 40
0.0
 41
0.75
 50
0.0
 71
     0
 42
0.2
  3
TXT
  4

  0
STYLE
  5
79
330
3
100
AcDbSymbolTableRecord
100
AcDbTextStyleTableRecord
  2
SLDTEXTSTYLE1
 70
     0
 40
0.0
 41
0.7
 50
0.0
 71
     0
 42
0.2
  3
TXT
  4

  0
STYLE
  5
96
330
3
100
AcDbSymbolTableRecord
100
AcDbTextStyleTableRecord
  2
SLDTEXTSTYLE2
 70
     0
 40
0.0
 41
0.6875
 50
0.0
 71
     0
 42
0.2
  3
TXT
  4

  0
STYLE
  5
279
330
3
100
AcDbSymbolTableRecord
100
AcDbTextStyleTableRecord
  2
SLDTEXTSTYLE3
 70
     0
 40
0.0
 41
0.6923076923
 50
0.0
 71
     0
 42
0.2
  3
TXT
  4

  0
ENDTAB
  0
TABLE
  2
VIEW
  5
6
330
0
100
AcDbSymbolTable
 70
     0
  0
ENDTAB
  0
TABLE
  2
UCS
  5
7
330
0
100
AcDbSymbolTable
 70
     0
  0
ENDTAB
  0
TABLE
  2
APPID
  5
9
330
0
100
AcDbSymbolTable
 70
     1
  0
APPID
  5
12
330
9
100
AcDbSymbolTableRecord
100
AcDbRegAppTableRecord
  2
ACAD
 70
     0
  0
ENDTAB
  0
TABLE
  2
DIMSTYLE
  5
A
330
0
100
AcDbSymbolTable
 70
     6
100
AcDbDimStyleTable
  0
DIMSTYLE
105
27
330
A
100
AcDbSymbolTableRecord
100
AcDbDimStyleTableRecord
  2
ISO-25
 70
     0
 41
2.5
 42
0.625
 43
3.75
 44
1.25
 73
     0
 74
     0
 77
     1
 78
     8
140
2.5
141
2.5
143
0.0393700787
147
0.625
171
     3
172
     1
178
     0
271
     2
272
     2
274
     3
278
    44
283
     0
284
     8
340
11
  0
DIMSTYLE
105
B9
102
{ACAD_REACTORS
330
B8
102
}
330
A
100
AcDbSymbolTableRecord
100
AcDbDimStyleTableRecord
  2
SLDDIMSTYLE0
 70
     0
 41
3.302
 44
0.0
 45
0.000000001
 73
     0
 74
     0
 77
     1
 78
    12
 79
     3
140
3.5
144
3.0
147
0.875
173
     1
178
     0
271
     2
272
     2
276
     2
284
    12
340
6D
  0
DIMSTYLE
105
C3
102
{ACAD_REACTORS
330
C2
330
CF
330
D8
330
E1
330
EA
330
F3
330
FC
330
105
102
}
330
A
100
AcDbSymbolTableRecord
100
AcDbDimStyleTableRecord
  2
SLDDIMSTYLE1
 70
     0
 41
3.302
 44
0.0
 45
0.000000001
 73
     0
 74
     0
 77
     1
 78
    12
 79
     3
140
3.5
141
0.0
144
3.0
147
0.875
172
     1
173
     1
178
     0
271
     2
272
     2
276
     2
284
    12
340
6D
341
C4
343
C4
  0
DIMSTYLE
105
10F
102
{ACAD_REACTORS
330
10E
102
}
330
A
100
AcDbSymbolTableRecord
100
AcDbDimStyleTableRecord
  2
SLDDIMSTYLE2
 70
     0
 41
3.302
 44
0.0
 45
0.000000001
 73
     0
 74
     0
 77
     1
 78
    12
 79
     3
140
3.5
141
0.0
144
3.0
147
0.875
172
     1
173
     1
178
     0
271
     2
272
     2
276
     2
284
    12
340
6D
341
C4
343
C4
  0
DIMSTYLE
105
269
102
{ACAD_REACTORS
330
268
330
2B5
102
}
330
A
100
AcDbSymbolTableRecord
100
AcDbDimStyleTableRecord
  2
SLDDIMSTYLE3
 70
     0
 41
3.302
 44
0.0
 45
0.000000001
 73
     0
 74
     0
 77
     1
 78
    12
 79
     3
140
3.5
144
3.0
147
0.875
172
     1
173
     1
178
     0
271
     2
272
     2
276
     2
284
    12
289
     0
340
6D
  0
DIMSTYLE
105
2C4
102
{ACAD_REACTORS
330
2C3
102
}
330
A
100
AcDbSymbolTableRecord
100
AcDbDimStyleTableRecord
  2
SLDDIMSTYLE4
 70
     0
 41
3.302
 44
0.0
 45
0.000000001
 73
     0
 74
     0
 77
     1
 78
    12
 79
     3
140
3.5
144
3.0
147
0.875
172
     1
173
     1
178
     0
271
     2
272
     2
276
     2
284
    12
289
     0
340
6D
  0
ENDTAB
  0
TABLE
  2
BLOCK_RECORD
  5
1
330
0
100
AcDbSymbolTable
 70
    40
  0
BLOCK_RECORD
  5
1F
330
1
100
AcDbSymbolTableRecord
100
AcDbBlockTableRecord
  2
*Model_Space
340
22
  0
BLOCK_RECORD
  5
1B
330
1
100
AcDbSymbolTableRecord
100
AcDbBlockTableRecord
  2
*Paper_Space
340
1E
  0
BLOCK_RECORD
  5
23
330
1
100
AcDbSymbolTableRecord
100
AcDbBlockTableRecord
  2
*Paper_Space0
340
26
  0
BLOCK_RECORD
  5
6A
330
1
100
AcDbSymbolTableRecord
100
AcDbBlockTableRecord
  2
SW_NOTE_0
340
0
102
{BLKREFS
331
70
102
}
  0
BLOCK_RECORD
  5
84
330
1
100
AcDbSymbolTableRecord
100
AcDbBlockTableRecord
  2
SW_NOTE_1
340
0
102
{BLKREFS
331
89
102
}
  0
BLOCK_RECORD
  5
90
330
1
100
AcDbSymbolTableRecord
100
AcDbBlockTableRecord
  2
SW_NOTE_2
340
0
102
{BLKREFS
331
9A
102
}
  0
BLOCK_RECORD
  5
BA
330
1
100
AcDbSymbolTableRecord
100
AcDbBlockTableRecord
  2
*D4
340
0
  0
BLOCK_RECORD
  5
C4
330
1
100
AcDbSymbolTableRecord
100
AcDbBlockTableRecord
  2
_NONE
340
0
  0
BLOCK_RECORD
  5
C7
330
1
100
AcDbSymbolTableRecord
100
AcDbBlockTableRecord
  2
*D6
340
0
  0
BLOCK_RECORD
  5
D0
330
1
100
AcDbSymbolTableRecord
100
AcDbBlockTableRecord
  2
*D7
340
0
  0
BLOCK_RECORD
  5
D9
330
1
100
AcDbSymbolTableRecord
100
AcDbBlockTableRecord
  2
*D8
340
0
  0
BLOCK_RECORD
  5
E2
330
1
100
AcDbSymbolTableRecord
100
AcDbBlockTableRecord
  2
*D9
340
0
  0
BLOCK_RECORD
  5
EB
330
1
100
AcDbSymbolTableRecord
100
AcDbBlockTableRecord
  2
*D10
340
0
  0
BLOCK_RECORD
  5
F4
330
1
100
AcDbSymbolTableRecord
100
AcDbBlockTableRecord
  2
*D11
340
0
  0
BLOCK_RECORD
  5
FD
330
1
100
AcDbSymbolTableRecord
100
AcDbBlockTableRecord
  2
*D12
340
0
  0
BLOCK_RECORD
  5
106
330
1
100
AcDbSymbolTableRecord
100
AcDbBlockTableRecord
  2
*D13
340
0
  0
BLOCK_RECORD
  5
110
330
1
100
AcDbSymbolTableRecord
100
AcDbBlockTableRecord
  2
*D14
340
0
  0
BLOCK_RECORD
  5
118
330
1
100
AcDbSymbolTableRecord
100
AcDbBlockTableRecord
  2
SW_CENTERMARKSYMBOL_0
340
0
102
{BLKREFS
331
123
102
}
  0
BLOCK_RECORD
  5
124
330
1
100
AcDbSymbolTableRecord
100
AcDbBlockTableRecord
  2
SW_CENTERMARKSYMBOL_1
340
0
102
{BLKREFS
331
12F
102
}
  0
BLOCK_RECORD
  5
130
330
1
100
AcDbSymbolTableRecord
100
AcDbBlockTableRecord
  2
SW_CENTERMARKSYMBOL_2
340
0
102
{BLKREFS
331
13B
102
}
  0
BLOCK_RECORD
  5
13C
330
1
100
AcDbSymbolTableRecord
100
AcDbBlockTableRecord
  2
SW_CENTERMARKSYMBOL_3
340
0
102
{BLKREFS
331
147
102
}
  0
BLOCK_RECORD
  5
148
330
1
100
AcDbSymbolTableRecord
100
AcDbBlockTableRecord
  2
SW_CENTERMARKSYMBOL_4
340
0
102
{BLKREFS
331
153
102
}
  0
BLOCK_RECORD
  5
154
330
1
100
AcDbSymbolTableRecord
100
AcDbBlockTableRecord
  2
SW_CENTERMARKSYMBOL_5
340
0
102
{BLKREFS
331
15F
102
}
  0
BLOCK_RECORD
  5
160
330
1
100
AcDbSymbolTableRecord
100
AcDbBlockTableRecord
  2
SW_CENTERMARKSYMBOL_6
340
0
102
{BLKREFS
331
16B
102
}
  0
BLOCK_RECORD
  5
16C
330
1
100
AcDbSymbolTableRecord
100
AcDbBlockTableRecord
  2
SW_CENTERMARKSYMBOL_7
340
0
102
{BLKREFS
331
177
102
}
  0
BLOCK_RECORD
  5
178
330
1
100
AcDbSymbolTableRecord
100
AcDbBlockTableRecord
  2
SW_CENTERMARKSYMBOL_8
340
0
102
{BLKREFS
331
183
102
}
  0
BLOCK_RECORD
  5
184
330
1
100
AcDbSymbolTableRecord
100
AcDbBlockTableRecord
  2
SW_CENTERMARKSYMBOL_9
340
0
102
{BLKREFS
331
18F
102
}
  0
BLOCK_RECORD
  5
190
330
1
100
AcDbSymbolTableRecord
100
AcDbBlockTableRecord
  2
SW_CENTERMARKSYMBOL_10
340
0
102
{BLKREFS
331
19B
102
}
  0
BLOCK_RECORD
  5
19C
330
1
100
AcDbSymbolTableRecord
100
AcDbBlockTableRecord
  2
SW_CENTERMARKSYMBOL_11
340
0
102
{BLKREFS
331
1A7
102
}
  0
BLOCK_RECORD
  5
1A8
330
1
100
AcDbSymbolTableRecord
100
AcDbBlockTableRecord
  2
SW_CENTERMARKSYMBOL_12
340
0
102
{BLKREFS
331
1B3
102
}
  0
BLOCK_RECORD
  5
1B4
330
1
100
AcDbSymbolTableRecord
100
AcDbBlockTableRecord
  2
SW_CENTERMARKSYMBOL_13
340
0
102
{BLKREFS
331
1BF
102
}
  0
BLOCK_RECORD
  5
1C0
330
1
100
AcDbSymbolTableRecord
100
AcDbBlockTableRecord
  2
SW_CENTERMARKSYMBOL_14
340
0
102
{BLKREFS
331
1CB
102
}
  0
BLOCK_RECORD
  5
1CC
330
1
100
AcDbSymbolTableRecord
100
AcDbBlockTableRecord
  2
SW_CENTERMARKSYMBOL_15
340
0
102
{BLKREFS
331
1D7
102
}
  0
BLOCK_RECORD
  5
1D8
330
1
100
AcDbSymbolTableRecord
100
AcDbBlockTableRecord
  2
SW_CENTERMARKSYMBOL_16
340
0
102
{BLKREFS
331
1E3
102
}
  0
BLOCK_RECORD
  5
1E4
330
1
100
AcDbSymbolTableRecord
100
AcDbBlockTableRecord
  2
SW_CENTERMARKSYMBOL_17
340
0
102
{BLKREFS
331
1EF
102
}
  0
BLOCK_RECORD
  5
1F0
330
1
100
AcDbSymbolTableRecord
100
AcDbBlockTableRecord
  2
SW_CENTERMARKSYMBOL_18
340
0
102
{BLKREFS
331
1FB
102
}
  0
BLOCK_RECORD
  5
1FC
330
1
100
AcDbSymbolTableRecord
100
AcDbBlockTableRecord
  2
SW_CENTERMARKSYMBOL_19
340
0
102
{BLKREFS
331
231
102
}
  0
BLOCK_RECORD
  5
26A
330
1
100
AcDbSymbolTableRecord
100
AcDbBlockTableRecord
  2
*D35
340
0
  0
BLOCK_RECORD
  5
275
330
1
100
AcDbSymbolTableRecord
100
AcDbBlockTableRecord
  2
SW_NOTE_3
340
0
102
{BLKREFS
331
27B
102
}
  0
BLOCK_RECORD
  5
2B6
330
1
100
AcDbSymbolTableRecord
100
AcDbBlockTableRecord
  2
*D37
340
0
  0
BLOCK_RECORD
  5
2C5
330
1
100
AcDbSymbolTableRecord
100
AcDbBlockTableRecord
  2
*D38
340
0
  0
BLOCK_RECORD
  5
2D0
330
1
100
AcDbSymbolTableRecord
100
AcDbBlockTableRecord
  2
SW_NOTE_4
340
0
102
{BLKREFS
331
2D5
102
}
  0
ENDTAB
  0
ENDSEC
  0
SECTION
  2
BLOCKS
  0
BLOCK
  5
20
330
1F
100
AcDbEntity
  8
0
100
AcDbBlockBegin
  2
*Model_Space
 70
     0
 10
0.0
 20
0.0
 30
0.0
  3
*Model_Space
  1

  0
ENDBLK
  5
21
330
1F
100
AcDbEntity
  8
0
100
AcDbBlockEnd
  0
BLOCK
  5
1C
330
1B
100
AcDbEntity
 67
     1
  8
0
100
AcDbBlockBegin
  2
*Paper_Space
 70
     0
 10
0.0
 20
0.0
 30
0.0
  3
*Paper_Space
  1

  0
ENDBLK
  5
1D
330
1B
100
AcDbEntity
 67
     1
  8
0
100
AcDbBlockEnd
  0
BLOCK
  5
24
330
23
100
AcDbEntity
  8
0
100
AcDbBlockBegin
  2
*Paper_Space0
 70
     0
 10
0.0
 20
0.0
 30
0.0
  3
*Paper_Space0
  1

  0
ENDBLK
  5
25
330
23
100
AcDbEntity
  8
0
100
AcDbBlockEnd
  0
BLOCK
  5
6B
330
6A
100
AcDbEntity
  8
0
100
AcDbBlockBegin
  2
SW_NOTE_0
 70
     0
 10
0.0
 20
0.0
 30
0.0
  3
SW_NOTE_0
  1

  0
MTEXT
  5
6E
330
6A
100
AcDbEntity
  8
0
  6
Continuous
 62
     0
370
     0
100
AcDbMText
 10
-3.4106583948
 20
0.0
 30
0.0
 40
2.6458333333
 41
0.0
 71
     1
 72
     1
  1
Copyright © 2014 Théophile BRESSON, AeroSeeD SAS, Vincent MAUVADY, David VANTYGHEM, Pascal CORRADINI
  7
SLDTEXTSTYLE0
 11
-3.491481338843133E-15
 21
1.0
 31
0.0
 73
     1
 44
1.0
  0
MTEXT
  5
6F
330
6A
100
AcDbEntity
  8
0
  6
Continuous
 62
     0
370
     0
100
AcDbMText
 10
0.1171193403
 20
0.0
 30
0.0
 40
2.6458333333
 41
0.0
 71
     1
 72
     1
  1
Licensed under TAPR Open Hardware Licence (www.tapr.org/OHL)
  7
SLDTEXTSTYLE0
 11
-3.491481338843133E-15
 21
1.0
 31
0.0
 73
     1
 44
1.0
  0
ENDBLK
  5
6C
330
6A
100
AcDbEntity
  8
0
100
AcDbBlockEnd
  0
BLOCK
  5
85
330
84
100
AcDbEntity
  8
0
100
AcDbBlockBegin
  2
SW_NOTE_1
 70
     0
 10
0.0
 20
0.0
 30
0.0
  3
SW_NOTE_1
  1

  0
MTEXT
  5
87
330
84
100
AcDbEntity
  8
0
  6
Continuous
 62
     0
370
     0
100
AcDbMText
 10
0.0
 20
1.9336016097
 30
0.0
 40
1.5
 41
0.0
 71
     1
 72
     1
  1
CASSER LES
  7
SLDTEXTSTYLE0
 73
     1
 44
1.0
  0
MTEXT
  5
88
330
84
100
AcDbEntity
  8
0
  6
Continuous
 62
     0
370
     0
100
AcDbMText
 10
0.0
 20
-0.5663983345
 30
0.0
 40
1.5
 41
0.0
 71
     1
 72
     1
  1
ANGLES VIFS
  7
SLDTEXTSTYLE0
 73
     1
 44
1.0
  0
ENDBLK
  5
86
330
84
100
AcDbEntity
  8
0
100
AcDbBlockEnd
  0
BLOCK
  5
91
330
90
100
AcDbEntity
  8
0
100
AcDbBlockBegin
  2
SW_NOTE_2
 70
     0
 10
0.0
 20
0.0
 30
0.0
  3
SW_NOTE_2
  1

  0
MTEXT
  5
93
330
90
100
AcDbEntity
  8
0
  6
Continuous
 62
     0
370
     0
100
AcDbMText
 10
0.0
 20
1.9336016097
 30
0.0
 40
1.5
 41
0.0
 71
     1
 72
     1
  1
SAUF INDICATION CONTRAIRE:
  7
SLDTEXTSTYLE0
 73
     1
 44
1.0
  0
MTEXT
  5
94
330
90
100
AcDbEntity
  8
0
  6
Continuous
 62
     0
370
     0
100
AcDbMText
 10
0.0
 20
-0.5663983345
 30
0.0
 40
1.5
 41
0.0
 71
     1
 72
     1
  1
LES COTES SONT EN MILLIMETRES
  7
SLDTEXTSTYLE0
 73
     1
 44
1.0
  0
MTEXT
  5
95
330
90
100
AcDbEntity
  8
0
  6
Continuous
 62
     0
370
     0
100
AcDbMText
 10
0.0
 20
-3.0663982786
 30
0.0
 40
1.5
 41
0.0
 71
     1
 72
     1
  1
ETAT DE SURFACE:
  7
SLDTEXTSTYLE0
 73
     1
 44
1.0
  0
MTEXT
  5
97
330
90
100
AcDbEntity
  8
0
  6
Continuous
 62
     0
370
     0
100
AcDbMText
 10
17.3330735415
 20
-3.0663982786
 30
0.0
 40
1.5
 41
0.0
 71
     1
 72
     1
  1
Ra = 3.2
  7
SLDTEXTSTYLE2
 73
     1
 44
1.0
  0
MTEXT
  5
98
330
90
100
AcDbEntity
  8
0
  6
Continuous
 62
     0
370
     0
100
AcDbMText
 10
0.0
 20
-5.5663982227
 30
0.0
 40
1.5
 41
0.0
 71
     1
 72
     1
  1
TOLERANCES:
  7
SLDTEXTSTYLE0
 73
     1
 44
1.0
  0
MTEXT
  5
99
330
90
100
AcDbEntity
  8
0
  6
Continuous
 62
     0
370
     0
100
AcDbMText
 10
1.6624999698
 20
-8.0663981668
 30
0.0
 40
1.5
 41
0.0
 71
     1
 72
     1
  1
Iso 2768 mK
  7
SLDTEXTSTYLE0
 73
     1
 44
1.0
  0
ENDBLK
  5
92
330
90
100
AcDbEntity
  8
0
100
AcDbBlockEnd
  0
BLOCK
  5
BB
330
BA
100
AcDbEntity
  8
0
100
AcDbBlockBegin
  2
*D4
 70
     1
 10
0.0
 20
0.0
 30
0.0
  3
*D4
  1

  0
SOLID
  5
BD
330
BA
100
AcDbEntity
  8
0
  6
Continuous
 62
     7
370
     0
100
AcDbTrace
 10
175.1058974359
 20
110.352585034
 30
0.0
 11
171.8038974359
 21
110.860585034
 31
0.0
 12
171.8038974359
 22
109.844585034
 32
0.0
 13
171.8038974359
 23
109.844585034
 33
0.0
  0
SOLID
  5
BE
330
BA
100
AcDbEntity
  8
0
  6
Continuous
 62
     7
370
     0
100
AcDbTrace
 10
128.4392307692
 20
110.352585034
 30
0.0
 11
131.7412307692
 21
109.844585034
 31
0.0
 12
131.7412307692
 22
110.860585034
 32
0.0
 13
131.7412307692
 23
110.860585034
 33
0.0
  0
LINE
  5
BF
330
BA
100
AcDbEntity
  8
0
  6
Continuous
 62
     7
370
     0
100
AcDbLine
 10
175.1058974359
 20
187.6859183673
 30
0.0
 11
175.1058974359
 21
109.352585034
 31
0.0
  0
LINE
  5
C0
330
BA
100
AcDbEntity
  8
0
  6
Continuous
 62
     7
370
     0
100
AcDbLine
 10
175.1058974359
 20
110.352585034
 30
0.0
 11
128.4392307692
 21
110.352585034
 31
0.0
  0
MTEXT
  5
C1
330
BA
100
AcDbEntity
  8
0
  6
Continuous
 62
     7
370
     0
100
AcDbMText
 10
146.471522574
 20
114.8643219486
 30
0.0333333333
 40
3.5
 41
0.0
 71
     1
 72
     1
  1
140
  7
SLDTEXTSTYLE0
 73
     1
 44
1.0
  0
ENDBLK
  5
BC
330
BA
100
AcDbEntity
  8
0
100
AcDbBlockEnd
  0
BLOCK
  5
C5
330
C4
100
AcDbEntity
  8
0
100
AcDbBlockBegin
  2
_NONE
 70
     0
 10
0.0
 20
0.0
 30
0.0
  3
_NONE
  1

  0
ENDBLK
  5
C6
330
C4
100
AcDbEntity
  8
0
100
AcDbBlockEnd
  0
BLOCK
  5
C8
330
C7
100
AcDbEntity
  8
0
100
AcDbBlockBegin
  2
*D6
 70
     1
 10
0.0
 20
0.0
 30
0.0
  3
*D6
  1

  0
SOLID
  5
CA
330
C7
100
AcDbEntity
  8
0
  6
Continuous
 62
     7
370
     0
100
AcDbTrace
 10
86.012823898
 20
231.1123252385
 30
0.0
 11
84.0371675514
 21
233.8064020749
 31
0.0
 12
83.3187470617
 22
233.0879815852
 32
0.0
 13
83.3187470617
 23
233.0879815852
 33
0.0
  0
LINE
  5
CB
330
C7
100
AcDbEntity
  8
0
  6
Continuous
 62
     7
370
     0
100
AcDbLine
 10
86.012823898
 20
231.1123252385
 30
0.0
 11
55.2419797033
 21
261.8831694333
 31
0.0
  0
LINE
  5
CC
330
C7
100
AcDbEntity
  8
0
  6
Continuous
 62
     7
370
     0
100
AcDbLine
 10
86.012823898
 20
231.1123252385
 30
0.0
 11
170.8656376404
 21
146.2595114962
 31
0.0
  0
MTEXT
  5
CD
330
C7
100
AcDbEntity
  8
0
  6
Continuous
 62
     7
370
     0
100
AcDbMText
 10
58.4314068177
 20
265.0725965477
 30
0.0333333333
 40
3.5
 41
0.0
 71
     1
 72
     1
  1
%%c
  7
SLDTEXTSTYLE0
 11
0.7071067811865464
 21
-0.7071067811865488
 31
0.0
 73
     1
 44
1.0
  0
MTEXT
  5
CE
330
C7
100
AcDbEntity
  8
0
  6
Continuous
 62
     7
370
     0
100
AcDbMText
 10
62.2016362349
 20
261.3779882079
 30
0.0333333333
 40
3.5
 41
0.0
 71
     1
 72
     1
  1
360
  7
SLDTEXTSTYLE0
 11
0.7071067811865464
 21
-0.7071067811865488
 31
0.0
 73
     1
 44
1.0
  0
ENDBLK
  5
C9
330
C7
100
AcDbEntity
  8
0
100
AcDbBlockEnd
  0
BLOCK
  5
D1
330
D0
100
AcDbEntity
  8
0
100
AcDbBlockBegin
  2
*D7
 70
     1
 10
0.0
 20
0.0
 30
0.0
  3
*D7
  1

  0
SOLID
  5
D3
330
D0
100
AcDbEntity
  8
0
  6
Continuous
 62
     7
370
     0
100
AcDbTrace
 10
108.3062177058
 20
180.6792817806
 30
0.0
 11
105.0502216817
 21
179.9311120865
 31
0.0
 12
105.4256713481
 22
178.9870286431
 32
0.0
 13
105.4256713481
 23
178.9870286431
 33
0.0
  0
LINE
  5
D4
330
D0
100
AcDbEntity
  8
0
  6
Continuous
 62
     7
370
     0
100
AcDbLine
 10
108.3062177058
 20
180.6792817806
 30
0.0
 11
42.292008437
 21
154.4262921506
 31
0.0
  0
LINE
  5
D5
330
D0
100
AcDbEntity
  8
0
  6
Continuous
 62
     7
370
     0
100
AcDbLine
 10
108.3062177058
 20
180.6792817806
 30
0.0
 11
148.5722438327
 21
196.6925549541
 31
0.0
  0
MTEXT
  5
D6
330
D0
100
AcDbEntity
  8
0
  6
Continuous
 62
     7
370
     0
100
AcDbMText
 10
40.6253206276
 20
158.6172463767
 30
0.0333333333
 40
3.5
 41
0.0
 71
     1
 72
     1
  1
%%c
  7
SLDTEXTSTYLE0
 11
0.9292159875434229
 21
0.3695370732331214
 31
0.0
 73
     1
 44
1.0
  0
MTEXT
  5
D7
330
D0
100
AcDbEntity
  8
0
  6
Continuous
 62
     7
370
     0
100
AcDbMText
 10
45.5103690957
 20
160.6175118856
 30
0.0333333333
 40
3.5
 41
0.0
 71
     1
 72
     1
  1
130
  7
SLDTEXTSTYLE0
 11
0.9292159875434229
 21
0.3695370732331214
 31
0.0
 73
     1
 44
1.0
  0
ENDBLK
  5
D2
330
D0
100
AcDbEntity
  8
0
100
AcDbBlockEnd
  0
BLOCK
  5
DA
330
D9
100
AcDbEntity
  8
0
100
AcDbBlockBegin
  2
*D8
 70
     1
 10
0.0
 20
0.0
 30
0.0
  3
*D8
  1

  0
SOLID
  5
DC
330
D9
100
AcDbEntity
  8
0
  6
Continuous
 62
     7
370
     0
100
AcDbTrace
 10
133.6647359574
 20
192.8257903427
 30
0.0
 11
136.5683869217
 21
194.4780854368
 31
0.0
 12
135.9374704326
 22
195.2744524275
 32
0.0
 13
135.9374704326
 23
195.2744524275
 33
0.0
  0
LINE
  5
DD
330
D9
100
AcDbEntity
  8
0
  6
Continuous
 62
     7
370
     0
100
AcDbLine
 10
133.6647359574
 20
192.8257903427
 30
0.0
 11
199.5424545568
 21
245.0169778374
 31
0.0
  0
LINE
  5
DE
330
D9
100
AcDbEntity
  8
0
  6
Continuous
 62
     7
370
     0
100
AcDbLine
 10
133.6647359574
 20
192.8257903427
 30
0.0
 11
123.213725581
 21
184.546046392
 31
0.0
  0
MTEXT
  5
DF
330
D9
100
AcDbEntity
  8
0
  6
Continuous
 62
     7
370
     0
100
AcDbMText
 10
186.3212188389
 20
240.2965990396
 30
-0.9666666667
 40
3.5
 41
0.0
 71
     1
 72
     1
  1
%%c
  7
SLDTEXTSTYLE0
 11
0.7838257782300303
 21
0.6209807963070092
 31
0.0
 73
     1
 44
1.0
  0
MTEXT
  5
E0
330
D9
100
AcDbEntity
  8
0
  6
Continuous
 62
     7
370
     0
100
AcDbMText
 10
190.4253889457
 20
243.6163201689
 30
-0.9666666667
 40
3.5
 41
0.0
 71
     1
 72
     1
  1
40
  7
SLDTEXTSTYLE0
 11
0.7838257782300303
 21
0.6209807963070092
 31
0.0
 73
     1
 44
1.0
  0
ENDBLK
  5
DB
330
D9
100
AcDbEntity
  8
0
100
AcDbBlockEnd
  0
BLOCK
  5
E3
330
E2
100
AcDbEntity
  8
0
100
AcDbBlockBegin
  2
*D9
 70
     1
 10
0.0
 20
0.0
 30
0.0
  3
*D9
  1

  0
SOLID
  5
E5
330
E2
100
AcDbEntity
  8
0
  6
Continuous
 62
     7
370
     0
100
AcDbTrace
 10
170.8901261775
 20
237.9090986693
 30
0.0
 11
173.4313297503
 21
240.0778661537
 31
0.0
 12
172.6619335782
 22
240.7414063035
 32
0.0
 13
172.6619335782
 23
240.7414063035
 33
0.0
  0
LINE
  5
E6
330
E2
100
AcDbEntity
  8
0
  6
Continuous
 62
     7
370
     0
100
AcDbLine
 10
170.8901261775
 20
237.9090986693
 30
0.0
 11
186.2476580321
 21
255.7166514241
 31
0.0
  0
LINE
  5
E7
330
E2
100
AcDbEntity
  8
0
  6
Continuous
 62
     7
370
     0
100
AcDbLine
 10
170.8901261775
 20
237.9090986693
 30
0.0
 11
85.988335361
 21
139.4627380654
 31
0.0
  0
MTEXT
  5
E8
330
E2
100
AcDbEntity
  8
0
  6
Continuous
 62
     7
370
     0
100
AcDbMText
 10
172.4608745563
 20
246.6361209899
 30
-0.9666666667
 40
3.5
 41
0.0
 71
     1
 72
     1
  1
%%c
  7
SLDTEXTSTYLE0
 11
0.6530906985888819
 21
0.7572796969526426
 31
0.0
 73
     1
 44
1.0
  0
MTEXT
  5
E9
330
E2
100
AcDbEntity
  8
0
  6
Continuous
 62
     7
370
     0
100
AcDbMText
 10
175.8676795306
 20
250.6682966446
 30
-0.9666666667
 40
3.5
 41
0.0
 71
     1
 72
     1
  1
390
  7
SLDTEXTSTYLE0
 11
0.6530906985888819
 21
0.7572796969526426
 31
0.0
 73
     1
 44
1.0
  0
ENDBLK
  5
E4
330
E2
100
AcDbEntity
  8
0
100
AcDbBlockEnd
  0
BLOCK
  5
EC
330
EB
100
AcDbEntity
  8
0
100
AcDbBlockBegin
  2
*D10
 70
     1
 10
0.0
 20
0.0
 30
0.0
  3
*D10
  1

  0
SOLID
  5
EE
330
EB
100
AcDbEntity
  8
0
  6
Continuous
 62
     7
370
     0
100
AcDbTrace
 10
178.5235802116
 20
185.2682355916
 30
0.0
 11
180.4992365583
 21
182.5741587553
 31
0.0
 12
181.217657048
 22
183.292579245
 32
0.0
 13
181.217657048
 23
183.292579245
 33
0.0
  0
LINE
  5
EF
330
EB
100
AcDbEntity
  8
0
  6
Continuous
 62
     7
370
     0
100
AcDbLine
 10
178.5235802116
 20
185.2682355916
 30
0.0
 11
211.4109201163
 21
152.3808956869
 31
0.0
  0
LINE
  5
F0
330
EB
100
AcDbEntity
  8
0
  6
Continuous
 62
     7
370
     0
100
AcDbLine
 10
178.5235802116
 20
185.2682355916
 30
0.0
 11
171.6882146602
 21
192.1036011431
 31
0.0
  0
MTEXT
  5
F1
330
EB
100
AcDbEntity
  8
0
  6
Continuous
 62
     7
370
     0
100
AcDbMText
 10
205.1967539363
 20
164.9678643768
 30
-0.9666666667
 40
3.5
 41
0.0
 71
     1
 72
     1
  1
%%c
  7
SLDTEXTSTYLE0
 11
0.7071067811865581
 21
-0.707106781186537
 31
0.0
 73
     1
 44
1.0
  0
MTEXT
  5
F2
330
EB
100
AcDbEntity
  8
0
  6
Continuous
 62
     7
370
     0
100
AcDbMText
 10
208.9669833535
 20
161.273256037
 30
-0.9666666667
 40
3.5
 41
0.0
 71
     1
 72
     1
  1
29
  7
SLDTEXTSTYLE0
 11
0.7071067811865581
 21
-0.707106781186537
 31
0.0
 73
     1
 44
1.0
  0
ENDBLK
  5
ED
330
EB
100
AcDbEntity
  8
0
100
AcDbBlockEnd
  0
BLOCK
  5
F5
330
F4
100
AcDbEntity
  8
0
100
AcDbBlockBegin
  2
*D11
 70
     1
 10
0.0
 20
0.0
 30
0.0
  3
*D11
  1

  0
SOLID
  5
F7
330
F4
100
AcDbEntity
  8
0
  6
Continuous
 62
     7
370
     0
100
AcDbTrace
 10
97.6614133099
 20
241.4252600537
 30
0.0
 11
95.6857569633
 21
244.11933689
 31
0.0
 12
94.9673364736
 22
243.4009164004
 32
0.0
 13
94.9673364736
 23
243.4009164004
 33
0.0
  0
LINE
  5
F8
330
F4
100
AcDbEntity
  8
0
  6
Continuous
 62
     7
370
     0
100
AcDbLine
 10
97.6614133099
 20
241.4252600537
 30
0.0
 11
66.9842389032
 21
272.1024344604
 31
0.0
  0
LINE
  5
F9
330
F4
100
AcDbEntity
  8
0
  6
Continuous
 62
     7
370
     0
100
AcDbLine
 10
97.6614133099
 20
241.4252600537
 30
0.0
 11
99.2170482285
 21
239.8696251351
 31
0.0
  0
MTEXT
  5
FA
330
F4
100
AcDbEntity
  8
0
  6
Continuous
 62
     7
370
     0
100
AcDbMText
 10
70.1689335552
 20
275.2871291124
 30
-0.9666666667
 40
3.5
 41
0.0
 71
     1
 72
     1
  1
%%c
  7
SLDTEXTSTYLE0
 11
0.7071067811865422
 21
-0.7071067811865528
 31
0.0
 73
     1
 44
1.0
  0
MTEXT
  5
FB
330
F4
100
AcDbEntity
  8
0
  6
Continuous
 62
     7
370
     0
100
AcDbMText
 10
73.9391629724
 20
271.5925207726
 30
-0.9666666667
 40
3.5
 41
0.0
 71
     1
 72
     1
  1
6,6
  7
SLDTEXTSTYLE0
 11
0.7071067811865422
 21
-0.7071067811865528
 31
0.0
 73
     1
 44
1.0
  0
ENDBLK
  5
F6
330
F4
100
AcDbEntity
  8
0
100
AcDbBlockEnd
  0
BLOCK
  5
FE
330
FD
100
AcDbEntity
  8
0
100
AcDbBlockBegin
  2
*D12
 70
     1
 10
0.0
 20
0.0
 30
0.0
  3
*D12
  1

  0
SOLID
  5
100
330
FD
100
AcDbEntity
  8
0
  6
Continuous
 62
     7
370
     0
100
AcDbTrace
 10
105.7491005262
 20
188.2827778115
 30
0.0
 11
102.4906713156
 21
187.545277249
 31
0.0
 12
102.8630265927
 22
186.599969073
 32
0.0
 13
102.8630265927
 23
186.599969073
 33
0.0
  0
LINE
  5
101
330
FD
100
AcDbEntity
  8
0
  6
Continuous
 62
     7
370
     0
100
AcDbLine
 10
105.7491005262
 20
188.2827778115
 30
0.0
 11
39.8784749785
 21
162.3364508373
 31
0.0
  0
LINE
  5
102
330
FD
100
AcDbEntity
  8
0
  6
Continuous
 62
     7
370
     0
100
AcDbLine
 10
105.7491005262
 20
188.2827778115
 30
0.0
 11
107.796027679
 21
189.0890589232
 31
0.0
  0
MTEXT
  5
103
330
FD
100
AcDbEntity
  8
0
  6
Continuous
 62
     7
370
     0
100
AcDbMText
 10
38.2259277581
 20
166.5318161105
 30
-0.9666666667
 40
3.5
 41
0.0
 71
     1
 72
     1
  1
%%c
  7
SLDTEXTSTYLE0
 11
0.9304214330859664
 21
0.3664914144345766
 31
0.0
 73
     1
 44
1.0
  0
MTEXT
  5
104
330
FD
100
AcDbEntity
  8
0
  6
Continuous
 62
     7
370
     0
100
AcDbMText
 10
43.1175019531
 20
168.5160697579
 30
-0.9666666667
 40
3.5
 41
0.0
 71
     1
 72
     1
  1
6,6
  7
SLDTEXTSTYLE0
 11
0.9304214330859664
 21
0.3664914144345766
 31
0.0
 73
     1
 44
1.0
  0
ENDBLK
  5
FF
330
FD
100
AcDbEntity
  8
0
100
AcDbBlockEnd
  0
BLOCK
  5
107
330
106
100
AcDbEntity
  8
0
100
AcDbBlockBegin
  2
*D13
 70
     1
 10
0.0
 20
0.0
 30
0.0
  3
*D13
  1

  0
SOLID
  5
109
330
106
100
AcDbEntity
  8
0
  6
Continuous
 62
     7
370
     0
100
AcDbTrace
 10
127.6176262291
 20
172.9914484476
 30
0.0
 11
126.0526679981
 21
170.0398092869
 31
0.0
 12
127.0122339068
 22
169.7059092017
 32
0.0
 13
127.0122339068
 23
169.7059092017
 33
0.0
  0
LINE
  5
10A
330
106
100
AcDbEntity
  8
0
  6
Continuous
 62
     7
370
     0
100
AcDbLine
 10
127.6176262291
 20
172.9914484476
 30
0.0
 11
100.4664501429
 21
94.9640860252
 31
0.0
  0
LINE
  5
10B
330
106
100
AcDbEntity
  8
0
  6
Continuous
 62
     7
370
     0
100
AcDbLine
 10
127.6176262291
 20
172.9914484476
 30
0.0
 11
129.2608353094
 21
177.7137216204
 31
0.0
  0
MTEXT
  5
10C
330
106
100
AcDbEntity
  8
0
  6
Continuous
 62
     7
370
     0
100
AcDbMText
 10
96.2070077069
 20
96.4462439249
 30
-0.9666666667
 40
3.5
 41
0.0
 71
     1
 72
     1
  1
%%c
  7
SLDTEXTSTYLE0
 11
0.3286418160537197
 21
0.9444546345594971
 31
0.0
 73
     1
 44
1.0
  0
MTEXT
  5
10D
330
106
100
AcDbEntity
  8
0
  6
Continuous
 62
     7
370
     0
100
AcDbMText
 10
97.8912209144
 20
101.4490617822
 30
-0.9666666667
 40
3.5
 41
0.0
 71
     1
 72
     1
  1
15
  7
SLDTEXTSTYLE0
 11
0.3286418160537197
 21
0.9444546345594971
 31
0.0
 73
     1
 44
1.0
  0
ENDBLK
  5
108
330
106
100
AcDbEntity
  8
0
100
AcDbBlockEnd
  0
BLOCK
  5
111
330
110
100
AcDbEntity
  8
0
100
AcDbBlockBegin
  2
*D14
 70
     1
 10
0.0
 20
0.0
 30
0.0
  3
*D14
  1

  0
SOLID
  5
113
330
110
100
AcDbEntity
  8
0
  6
Continuous
 62
     7
370
     0
100
AcDbTrace
 10
123.4655658864
 20
176.3149670939
 30
0.0
 11
121.7625045346
 21
173.440797643
 31
0.0
 12
122.7051710217
 22
173.0618043789
 32
0.0
 13
122.7051710217
 23
173.0618043789
 33
0.0
  0
LINE
  5
114
330
110
100
AcDbEntity
  8
0
  6
Continuous
 62
     7
370
     0
100
AcDbLine
 10
123.4655658864
 20
176.3149670939
 30
0.0
 11
91.1894862821
 21
96.0349688453
 31
0.0
  0
LINE
  5
115
330
110
100
AcDbEntity
  8
0
  6
Continuous
 62
     7
370
     0
100
AcDbLine
 10
123.4655658864
 20
176.3149670939
 30
0.0
 11
133.4128956521
 21
201.0568696408
 31
0.0
  0
MTEXT
  5
116
330
110
100
AcDbEntity
  8
0
  6
Continuous
 62
     7
370
     0
100
AcDbMText
 10
87.0045766731
 20
97.717486018
 30
-0.9666666667
 40
3.5
 41
0.0
 71
     1
 72
     1
  1
%%c
  7
SLDTEXTSTYLE0
 11
0.3730248662134654
 21
0.9278213455113146
 31
0.0
 73
     1
 44
1.0
  0
MTEXT
  5
117
330
110
100
AcDbEntity
  8
0
  6
Continuous
 62
     7
370
     0
100
AcDbMText
 10
88.9239524506
 20
102.6348793587
 30
-0.9666666667
 40
3.5
 41
0.0
 71
     1
 72
     1
  1
80
  7
SLDTEXTSTYLE0
 11
0.3730248662134654
 21
0.9278213455113146
 31
0.0
 73
     1
 44
1.0
  0
ENDBLK
  5
112
330
110
100
AcDbEntity
  8
0
100
AcDbBlockEnd
  0
BLOCK
  5
119
330
118
100
AcDbEntity
  8
0
100
AcDbBlockBegin
  2
SW_CENTERMARKSYMBOL_0
 70
     0
 10
0.0
 20
0.0
 30
0.0
  3
SW_CENTERMARKSYMBOL_0
  1

  0
LINE
  5
11B
330
118
100
AcDbEntity
  8
0
  6
Continuous
 62
     0
370
     0
100
AcDbLine
 10
0.0
 20
0.0
 30
0.0
 11
0.0
 21
0.8333333333
 31
0.0
  0
LINE
  5
11C
330
118
100
AcDbEntity
  8
0
  6
Continuous
 62
     0
370
     0
100
AcDbLine
 10
0.0
 20
0.0
 30
0.0
 11
-0.8333333333
 21
0.0
 31
0.0
  0
LINE
  5
11D
330
118
100
AcDbEntity
  8
0
  6
Continuous
 62
     0
370
     0
100
AcDbLine
 10
0.0
 20
0.0
 30
0.0
 11
0.0
 21
-0.8333333333
 31
0.0
  0
LINE
  5
11E
330
118
100
AcDbEntity
  8
0
  6
Continuous
 62
     0
370
     0
100
AcDbLine
 10
0.0
 20
0.0
 30
0.0
 11
0.8333333333
 21
0.0
 31
0.0
  0
LINE
  5
11F
330
118
100
AcDbEntity
  8
0
  6
Continuous
 62
     0
370
     0
100
AcDbLine
 10
0.0
 20
1.6666666667
 30
0.0
 11
0.0
 21
1.9333333333
 31
0.0
  0
LINE
  5
120
330
118
100
AcDbEntity
  8
0
  6
Continuous
 62
     0
370
     0
100
AcDbLine
 10
-1.6666666667
 20
0.0
 30
0.0
 11
-1.9333333333
 21
0.0
 31
0.0
  0
LINE
  5
121
330
118
100
AcDbEntity
  8
0
  6
Continuous
 62
     0
370
     0
100
AcDbLine
 10
0.0
 20
-1.6666666667
 30
0.0
 11
0.0
 21
-1.9333333333
 31
0.0
  0
LINE
  5
122
330
118
100
AcDbEntity
  8
0
  6
Continuous
 62
     0
370
     0
100
AcDbLine
 10
1.6666666667
 20
0.0
 30
0.0
 11
1.9333333333
 21
0.0
 31
0.0
  0
ENDBLK
  5
11A
330
118
100
AcDbEntity
  8
0
100
AcDbBlockEnd
  0
BLOCK
  5
125
330
124
100
AcDbEntity
  8
0
100
AcDbBlockBegin
  2
SW_CENTERMARKSYMBOL_1
 70
     0
 10
0.0
 20
0.0
 30
0.0
  3
SW_CENTERMARKSYMBOL_1
  1

  0
LINE
  5
127
330
124
100
AcDbEntity
  8
0
  6
Continuous
 62
     0
370
     0
100
AcDbLine
 10
0.0
 20
0.0
 30
0.0
 11
0.0
 21
0.8333333333
 31
0.0
  0
LINE
  5
128
330
124
100
AcDbEntity
  8
0
  6
Continuous
 62
     0
370
     0
100
AcDbLine
 10
0.0
 20
0.0
 30
0.0
 11
-0.8333333333
 21
0.0
 31
0.0
  0
LINE
  5
129
330
124
100
AcDbEntity
  8
0
  6
Continuous
 62
     0
370
     0
100
AcDbLine
 10
0.0
 20
0.0
 30
0.0
 11
0.0
 21
-0.8333333333
 31
0.0
  0
LINE
  5
12A
330
124
100
AcDbEntity
  8
0
  6
Continuous
 62
     0
370
     0
100
AcDbLine
 10
0.0
 20
0.0
 30
0.0
 11
0.8333333333
 21
0.0
 31
0.0
  0
LINE
  5
12B
330
124
100
AcDbEntity
  8
0
  6
Continuous
 62
     0
370
     0
100
AcDbLine
 10
0.0
 20
1.6666666667
 30
0.0
 11
0.0
 21
1.9333333333
 31
0.0
  0
LINE
  5
12C
330
124
100
AcDbEntity
  8
0
  6
Continuous
 62
     0
370
     0
100
AcDbLine
 10
-1.6666666667
 20
0.0
 30
0.0
 11
-1.9333333333
 21
0.0
 31
0.0
  0
LINE
  5
12D
330
124
100
AcDbEntity
  8
0
  6
Continuous
 62
     0
370
     0
100
AcDbLine
 10
0.0
 20
-1.6666666667
 30
0.0
 11
0.0
 21
-1.9333333333
 31
0.0
  0
LINE
  5
12E
330
124
100
AcDbEntity
  8
0
  6
Continuous
 62
     0
370
     0
100
AcDbLine
 10
1.6666666667
 20
0.0
 30
0.0
 11
1.9333333333
 21
0.0
 31
0.0
  0
ENDBLK
  5
126
330
124
100
AcDbEntity
  8
0
100
AcDbBlockEnd
  0
BLOCK
  5
131
330
130
100
AcDbEntity
  8
0
100
AcDbBlockBegin
  2
SW_CENTERMARKSYMBOL_2
 70
     0
 10
0.0
 20
0.0
 30
0.0
  3
SW_CENTERMARKSYMBOL_2
  1

  0
LINE
  5
133
330
130
100
AcDbEntity
  8
0
  6
Continuous
 62
     0
370
     0
100
AcDbLine
 10
0.0
 20
0.0
 30
0.0
 11
0.0
 21
0.8333333333
 31
0.0
  0
LINE
  5
134
330
130
100
AcDbEntity
  8
0
  6
Continuous
 62
     0
370
     0
100
AcDbLine
 10
0.0
 20
0.0
 30
0.0
 11
-0.8333333333
 21
0.0
 31
0.0
  0
LINE
  5
135
330
130
100
AcDbEntity
  8
0
  6
Continuous
 62
     0
370
     0
100
AcDbLine
 10
0.0
 20
0.0
 30
0.0
 11
0.0
 21
-0.8333333333
 31
0.0
  0
LINE
  5
136
330
130
100
AcDbEntity
  8
0
  6
Continuous
 62
     0
370
     0
100
AcDbLine
 10
0.0
 20
0.0
 30
0.0
 11
0.8333333333
 21
0.0
 31
0.0
  0
LINE
  5
137
330
130
100
AcDbEntity
  8
0
  6
Continuous
 62
     0
370
     0
100
AcDbLine
 10
0.0
 20
1.6666666667
 30
0.0
 11
0.0
 21
1.9333333333
 31
0.0
  0
LINE
  5
138
330
130
100
AcDbEntity
  8
0
  6
Continuous
 62
     0
370
     0
100
AcDbLine
 10
-1.6666666667
 20
0.0
 30
0.0
 11
-1.9333333333
 21
0.0
 31
0.0
  0
LINE
  5
139
330
130
100
AcDbEntity
  8
0
  6
Continuous
 62
     0
370
     0
100
AcDbLine
 10
0.0
 20
-1.6666666667
 30
0.0
 11
0.0
 21
-1.9333333333
 31
0.0
  0
LINE
  5
13A
330
130
100
AcDbEntity
  8
0
  6
Continuous
 62
     0
370
     0
100
AcDbLine
 10
1.6666666667
 20
0.0
 30
0.0
 11
1.9333333333
 21
0.0
 31
0.0
  0
ENDBLK
  5
132
330
130
100
AcDbEntity
  8
0
100
AcDbBlockEnd
  0
BLOCK
  5
13D
330
13C
100
AcDbEntity
  8
0
100
AcDbBlockBegin
  2
SW_CENTERMARKSYMBOL_3
 70
     0
 10
0.0
 20
0.0
 30
0.0
  3
SW_CENTERMARKSYMBOL_3
  1

  0
LINE
  5
13F
330
13C
100
AcDbEntity
  8
0
  6
Continuous
 62
     0
370
     0
100
AcDbLine
 10
0.0
 20
0.0
 30
0.0
 11
0.0
 21
0.8333333333
 31
0.0
  0
LINE
  5
140
330
13C
100
AcDbEntity
  8
0
  6
Continuous
 62
     0
370
     0
100
AcDbLine
 10
0.0
 20
0.0
 30
0.0
 11
-0.8333333333
 21
0.0
 31
0.0
  0
LINE
  5
141
330
13C
100
AcDbEntity
  8
0
  6
Continuous
 62
     0
370
     0
100
AcDbLine
 10
0.0
 20
0.0
 30
0.0
 11
0.0
 21
-0.8333333333
 31
0.0
  0
LINE
  5
142
330
13C
100
AcDbEntity
  8
0
  6
Continuous
 62
     0
370
     0
100
AcDbLine
 10
0.0
 20
0.0
 30
0.0
 11
0.8333333333
 21
0.0
 31
0.0
  0
LINE
  5
143
330
13C
100
AcDbEntity
  8
0
  6
Continuous
 62
     0
370
     0
100
AcDbLine
 10
0.0
 20
1.6666666667
 30
0.0
 11
0.0
 21
1.9333333333
 31
0.0
  0
LINE
  5
144
330
13C
100
AcDbEntity
  8
0
  6
Continuous
 62
     0
370
     0
100
AcDbLine
 10
-1.6666666667
 20
0.0
 30
0.0
 11
-1.9333333333
 21
0.0
 31
0.0
  0
LINE
  5
145
330
13C
100
AcDbEntity
  8
0
  6
Continuous
 62
     0
370
     0
100
AcDbLine
 10
0.0
 20
-1.6666666667
 30
0.0
 11
0.0
 21
-1.9333333333
 31
0.0
  0
LINE
  5
146
330
13C
100
AcDbEntity
  8
0
  6
Continuous
 62
     0
370
     0
100
AcDbLine
 10
1.6666666667
 20
0.0
 30
0.0
 11
1.9333333333
 21
0.0
 31
0.0
  0
ENDBLK
  5
13E
330
13C
100
AcDbEntity
  8
0
100
AcDbBlockEnd
  0
BLOCK
  5
149
330
148
100
AcDbEntity
  8
0
100
AcDbBlockBegin
  2
SW_CENTERMARKSYMBOL_4
 70
     0
 10
0.0
 20
0.0
 30
0.0
  3
SW_CENTERMARKSYMBOL_4
  1

  0
LINE
  5
14B
330
148
100
AcDbEntity
  8
0
  6
Continuous
 62
     0
370
     0
100
AcDbLine
 10
0.0
 20
0.0
 30
0.0
 11
0.0
 21
0.8333333333
 31
0.0
  0
LINE
  5
14C
330
148
100
AcDbEntity
  8
0
  6
Continuous
 62
     0
370
     0
100
AcDbLine
 10
0.0
 20
0.0
 30
0.0
 11
-0.8333333333
 21
0.0
 31
0.0
  0
LINE
  5
14D
330
148
100
AcDbEntity
  8
0
  6
Continuous
 62
     0
370
     0
100
AcDbLine
 10
0.0
 20
0.0
 30
0.0
 11
0.0
 21
-0.8333333333
 31
0.0
  0
LINE
  5
14E
330
148
100
AcDbEntity
  8
0
  6
Continuous
 62
     0
370
     0
100
AcDbLine
 10
0.0
 20
0.0
 30
0.0
 11
0.8333333333
 21
0.0
 31
0.0
  0
LINE
  5
14F
330
148
100
AcDbEntity
  8
0
  6
Continuous
 62
     0
370
     0
100
AcDbLine
 10
0.0
 20
1.6666666667
 30
0.0
 11
0.0
 21
1.9333333333
 31
0.0
  0
LINE
  5
150
330
148
100
AcDbEntity
  8
0
  6
Continuous
 62
     0
370
     0
100
AcDbLine
 10
-1.6666666667
 20
0.0
 30
0.0
 11
-1.9333333333
 21
0.0
 31
0.0
  0
LINE
  5
151
330
148
100
AcDbEntity
  8
0
  6
Continuous
 62
     0
370
     0
100
AcDbLine
 10
0.0
 20
-1.6666666667
 30
0.0
 11
0.0
 21
-1.9333333333
 31
0.0
  0
LINE
  5
152
330
148
100
AcDbEntity
  8
0
  6
Continuous
 62
     0
370
     0
100
AcDbLine
 10
1.6666666667
 20
0.0
 30
0.0
 11
1.9333333333
 21
0.0
 31
0.0
  0
ENDBLK
  5
14A
330
148
100
AcDbEntity
  8
0
100
AcDbBlockEnd
  0
BLOCK
  5
155
330
154
100
AcDbEntity
  8
0
100
AcDbBlockBegin
  2
SW_CENTERMARKSYMBOL_5
 70
     0
 10
0.0
 20
0.0
 30
0.0
  3
SW_CENTERMARKSYMBOL_5
  1

  0
LINE
  5
157
330
154
100
AcDbEntity
  8
0
  6
Continuous
 62
     0
370
     0
100
AcDbLine
 10
0.0
 20
0.0
 30
0.0
 11
0.0
 21
0.8333333333
 31
0.0
  0
LINE
  5
158
330
154
100
AcDbEntity
  8
0
  6
Continuous
 62
     0
370
     0
100
AcDbLine
 10
0.0
 20
0.0
 30
0.0
 11
-0.8333333333
 21
0.0
 31
0.0
  0
LINE
  5
159
330
154
100
AcDbEntity
  8
0
  6
Continuous
 62
     0
370
     0
100
AcDbLine
 10
0.0
 20
0.0
 30
0.0
 11
0.0
 21
-0.8333333333
 31
0.0
  0
LINE
  5
15A
330
154
100
AcDbEntity
  8
0
  6
Continuous
 62
     0
370
     0
100
AcDbLine
 10
0.0
 20
0.0
 30
0.0
 11
0.8333333333
 21
0.0
 31
0.0
  0
LINE
  5
15B
330
154
100
AcDbEntity
  8
0
  6
Continuous
 62
     0
370
     0
100
AcDbLine
 10
0.0
 20
1.6666666667
 30
0.0
 11
0.0
 21
1.9333333333
 31
0.0
  0
LINE
  5
15C
330
154
100
AcDbEntity
  8
0
  6
Continuous
 62
     0
370
     0
100
AcDbLine
 10
-1.6666666667
 20
0.0
 30
0.0
 11
-1.9333333333
 21
0.0
 31
0.0
  0
LINE
  5
15D
330
154
100
AcDbEntity
  8
0
  6
Continuous
 62
     0
370
     0
100
AcDbLine
 10
0.0
 20
-1.6666666667
 30
0.0
 11
0.0
 21
-1.9333333333
 31
0.0
  0
LINE
  5
15E
330
154
100
AcDbEntity
  8
0
  6
Continuous
 62
     0
370
     0
100
AcDbLine
 10
1.6666666667
 20
0.0
 30
0.0
 11
1.9333333333
 21
0.0
 31
0.0
  0
ENDBLK
  5
156
330
154
100
AcDbEntity
  8
0
100
AcDbBlockEnd
  0
BLOCK
  5
161
330
160
100
AcDbEntity
  8
0
100
AcDbBlockBegin
  2
SW_CENTERMARKSYMBOL_6
 70
     0
 10
0.0
 20
0.0
 30
0.0
  3
SW_CENTERMARKSYMBOL_6
  1

  0
LINE
  5
163
330
160
100
AcDbEntity
  8
0
  6
Continuous
 62
     0
370
     0
100
AcDbLine
 10
0.0
 20
0.0
 30
0.0
 11
0.0
 21
0.8333333333
 31
0.0
  0
LINE
  5
164
330
160
100
AcDbEntity
  8
0
  6
Continuous
 62
     0
370
     0
100
AcDbLine
 10
0.0
 20
0.0
 30
0.0
 11
-0.8333333333
 21
0.0
 31
0.0
  0
LINE
  5
165
330
160
100
AcDbEntity
  8
0
  6
Continuous
 62
     0
370
     0
100
AcDbLine
 10
0.0
 20
0.0
 30
0.0
 11
0.0
 21
-0.8333333333
 31
0.0
  0
LINE
  5
166
330
160
100
AcDbEntity
  8
0
  6
Continuous
 62
     0
370
     0
100
AcDbLine
 10
0.0
 20
0.0
 30
0.0
 11
0.8333333333
 21
0.0
 31
0.0
  0
LINE
  5
167
330
160
100
AcDbEntity
  8
0
  6
Continuous
 62
     0
370
     0
100
AcDbLine
 10
0.0
 20
1.6666666667
 30
0.0
 11
0.0
 21
1.9333333333
 31
0.0
  0
LINE
  5
168
330
160
100
AcDbEntity
  8
0
  6
Continuous
 62
     0
370
     0
100
AcDbLine
 10
-1.6666666667
 20
0.0
 30
0.0
 11
-1.9333333333
 21
0.0
 31
0.0
  0
LINE
  5
169
330
160
100
AcDbEntity
  8
0
  6
Continuous
 62
     0
370
     0
100
AcDbLine
 10
0.0
 20
-1.6666666667
 30
0.0
 11
0.0
 21
-1.9333333333
 31
0.0
  0
LINE
  5
16A
330
160
100
AcDbEntity
  8
0
  6
Continuous
 62
     0
370
     0
100
AcDbLine
 10
1.6666666667
 20
0.0
 30
0.0
 11
1.9333333333
 21
0.0
 31
0.0
  0
ENDBLK
  5
162
330
160
100
AcDbEntity
  8
0
100
AcDbBlockEnd
  0
BLOCK
  5
16D
330
16C
100
AcDbEntity
  8
0
100
AcDbBlockBegin
  2
SW_CENTERMARKSYMBOL_7
 70
     0
 10
0.0
 20
0.0
 30
0.0
  3
SW_CENTERMARKSYMBOL_7
  1

  0
LINE
  5
16F
330
16C
100
AcDbEntity
  8
0
  6
Continuous
 62
     0
370
     0
100
AcDbLine
 10
0.0
 20
0.0
 30
0.0
 11
0.0
 21
0.8333333333
 31
0.0
  0
LINE
  5
170
330
16C
100
AcDbEntity
  8
0
  6
Continuous
 62
     0
370
     0
100
AcDbLine
 10
0.0
 20
0.0
 30
0.0
 11
-0.8333333333
 21
0.0
 31
0.0
  0
LINE
  5
171
330
16C
100
AcDbEntity
  8
0
  6
Continuous
 62
     0
370
     0
100
AcDbLine
 10
0.0
 20
0.0
 30
0.0
 11
0.0
 21
-0.8333333333
 31
0.0
  0
LINE
  5
172
330
16C
100
AcDbEntity
  8
0
  6
Continuous
 62
     0
370
     0
100
AcDbLine
 10
0.0
 20
0.0
 30
0.0
 11
0.8333333333
 21
0.0
 31
0.0
  0
LINE
  5
173
330
16C
100
AcDbEntity
  8
0
  6
Continuous
 62
     0
370
     0
100
AcDbLine
 10
0.0
 20
1.6666666667
 30
0.0
 11
0.0
 21
1.9333333333
 31
0.0
  0
LINE
  5
174
330
16C
100
AcDbEntity
  8
0
  6
Continuous
 62
     0
370
     0
100
AcDbLine
 10
-1.6666666667
 20
0.0
 30
0.0
 11
-1.9333333333
 21
0.0
 31
0.0
  0
LINE
  5
175
330
16C
100
AcDbEntity
  8
0
  6
Continuous
 62
     0
370
     0
100
AcDbLine
 10
0.0
 20
-1.6666666667
 30
0.0
 11
0.0
 21
-1.9333333333
 31
0.0
  0
LINE
  5
176
330
16C
100
AcDbEntity
  8
0
  6
Continuous
 62
     0
370
     0
100
AcDbLine
 10
1.6666666667
 20
0.0
 30
0.0
 11
1.9333333333
 21
0.0
 31
0.0
  0
ENDBLK
  5
16E
330
16C
100
AcDbEntity
  8
0
100
AcDbBlockEnd
  0
BLOCK
  5
179
330
178
100
AcDbEntity
  8
0
100
AcDbBlockBegin
  2
SW_CENTERMARKSYMBOL_8
 70
     0
 10
0.0
 20
0.0
 30
0.0
  3
SW_CENTERMARKSYMBOL_8
  1

  0
LINE
  5
17B
330
178
100
AcDbEntity
  8
0
  6
Continuous
 62
     0
370
     0
100
AcDbLine
 10
0.0
 20
0.0
 30
0.0
 11
0.0
 21
0.8333333333
 31
0.0
  0
LINE
  5
17C
330
178
100
AcDbEntity
  8
0
  6
Continuous
 62
     0
370
     0
100
AcDbLine
 10
0.0
 20
0.0
 30
0.0
 11
-0.8333333333
 21
0.0
 31
0.0
  0
LINE
  5
17D
330
178
100
AcDbEntity
  8
0
  6
Continuous
 62
     0
370
     0
100
AcDbLine
 10
0.0
 20
0.0
 30
0.0
 11
0.0
 21
-0.8333333333
 31
0.0
  0
LINE
  5
17E
330
178
100
AcDbEntity
  8
0
  6
Continuous
 62
     0
370
     0
100
AcDbLine
 10
0.0
 20
0.0
 30
0.0
 11
0.8333333333
 21
0.0
 31
0.0
  0
LINE
  5
17F
330
178
100
AcDbEntity
  8
0
  6
Continuous
 62
     0
370
     0
100
AcDbLine
 10
0.0
 20
1.6666666667
 30
0.0
 11
0.0
 21
1.9333333333
 31
0.0
  0
LINE
  5
180
330
178
100
AcDbEntity
  8
0
  6
Continuous
 62
     0
370
     0
100
AcDbLine
 10
-1.6666666667
 20
0.0
 30
0.0
 11
-1.9333333333
 21
0.0
 31
0.0
  0
LINE
  5
181
330
178
100
AcDbEntity
  8
0
  6
Continuous
 62
     0
370
     0
100
AcDbLine
 10
0.0
 20
-1.6666666667
 30
0.0
 11
0.0
 21
-1.9333333333
 31
0.0
  0
LINE
  5
182
330
178
100
AcDbEntity
  8
0
  6
Continuous
 62
     0
370
     0
100
AcDbLine
 10
1.6666666667
 20
0.0
 30
0.0
 11
1.9333333333
 21
0.0
 31
0.0
  0
ENDBLK
  5
17A
330
178
100
AcDbEntity
  8
0
100
AcDbBlockEnd
  0
BLOCK
  5
185
330
184
100
AcDbEntity
  8
0
100
AcDbBlockBegin
  2
SW_CENTERMARKSYMBOL_9
 70
     0
 10
0.0
 20
0.0
 30
0.0
  3
SW_CENTERMARKSYMBOL_9
  1

  0
LINE
  5
187
330
184
100
AcDbEntity
  8
0
  6
Continuous
 62
     0
370
     0
100
AcDbLine
 10
0.0
 20
0.0
 30
0.0
 11
0.0
 21
0.8333333333
 31
0.0
  0
LINE
  5
188
330
184
100
AcDbEntity
  8
0
  6
Continuous
 62
     0
370
     0
100
AcDbLine
 10
0.0
 20
0.0
 30
0.0
 11
-0.8333333333
 21
0.0
 31
0.0
  0
LINE
  5
189
330
184
100
AcDbEntity
  8
0
  6
Continuous
 62
     0
370
     0
100
AcDbLine
 10
0.0
 20
0.0
 30
0.0
 11
0.0
 21
-0.8333333333
 31
0.0
  0
LINE
  5
18A
330
184
100
AcDbEntity
  8
0
  6
Continuous
 62
     0
370
     0
100
AcDbLine
 10
0.0
 20
0.0
 30
0.0
 11
0.8333333333
 21
0.0
 31
0.0
  0
LINE
  5
18B
330
184
100
AcDbEntity
  8
0
  6
Continuous
 62
     0
370
     0
100
AcDbLine
 10
0.0
 20
1.6666666667
 30
0.0
 11
0.0
 21
1.9333333333
 31
0.0
  0
LINE
  5
18C
330
184
100
AcDbEntity
  8
0
  6
Continuous
 62
     0
370
     0
100
AcDbLine
 10
-1.6666666667
 20
0.0
 30
0.0
 11
-1.9333333333
 21
0.0
 31
0.0
  0
LINE
  5
18D
330
184
100
AcDbEntity
  8
0
  6
Continuous
 62
     0
370
     0
100
AcDbLine
 10
0.0
 20
-1.6666666667
 30
0.0
 11
0.0
 21
-1.9333333333
 31
0.0
  0
LINE
  5
18E
330
184
100
AcDbEntity
  8
0
  6
Continuous
 62
     0
370
     0
100
AcDbLine
 10
1.6666666667
 20
0.0
 30
0.0
 11
1.9333333333
 21
0.0
 31
0.0
  0
ENDBLK
  5
186
330
184
100
AcDbEntity
  8
0
100
AcDbBlockEnd
  0
BLOCK
  5
191
330
190
100
AcDbEntity
  8
0
100
AcDbBlockBegin
  2
SW_CENTERMARKSYMBOL_10
 70
     0
 10
0.0
 20
0.0
 30
0.0
  3
SW_CENTERMARKSYMBOL_10
  1

  0
LINE
  5
193
330
190
100
AcDbEntity
  8
0
  6
Continuous
 62
     0
370
     0
100
AcDbLine
 10
0.0
 20
0.0
 30
0.0
 11
0.0
 21
0.8333333333
 31
0.0
  0
LINE
  5
194
330
190
100
AcDbEntity
  8
0
  6
Continuous
 62
     0
370
     0
100
AcDbLine
 10
0.0
 20
0.0
 30
0.0
 11
-0.8333333333
 21
0.0
 31
0.0
  0
LINE
  5
195
330
190
100
AcDbEntity
  8
0
  6
Continuous
 62
     0
370
     0
100
AcDbLine
 10
0.0
 20
0.0
 30
0.0
 11
0.0
 21
-0.8333333333
 31
0.0
  0
LINE
  5
196
330
190
100
AcDbEntity
  8
0
  6
Continuous
 62
     0
370
     0
100
AcDbLine
 10
0.0
 20
0.0
 30
0.0
 11
0.8333333333
 21
0.0
 31
0.0
  0
LINE
  5
197
330
190
100
AcDbEntity
  8
0
  6
Continuous
 62
     0
370
     0
100
AcDbLine
 10
0.0
 20
1.6666666667
 30
0.0
 11
0.0
 21
1.9333333333
 31
0.0
  0
LINE
  5
198
330
190
100
AcDbEntity
  8
0
  6
Continuous
 62
     0
370
     0
100
AcDbLine
 10
-1.6666666667
 20
0.0
 30
0.0
 11
-1.9333333333
 21
0.0
 31
0.0
  0
LINE
  5
199
330
190
100
AcDbEntity
  8
0
  6
Continuous
 62
     0
370
     0
100
AcDbLine
 10
0.0
 20
-1.6666666667
 30
0.0
 11
0.0
 21
-1.9333333333
 31
0.0
  0
LINE
  5
19A
330
190
100
AcDbEntity
  8
0
  6
Continuous
 62
     0
370
     0
100
AcDbLine
 10
1.6666666667
 20
0.0
 30
0.0
 11
1.9333333333
 21
0.0
 31
0.0
  0
ENDBLK
  5
192
330
190
100
AcDbEntity
  8
0
100
AcDbBlockEnd
  0
BLOCK
  5
19D
330
19C
100
AcDbEntity
  8
0
100
AcDbBlockBegin
  2
SW_CENTERMARKSYMBOL_11
 70
     0
 10
0.0
 20
0.0
 30
0.0
  3
SW_CENTERMARKSYMBOL_11
  1

  0
LINE
  5
19F
330
19C
100
AcDbEntity
  8
0
  6
Continuous
 62
     0
370
     0
100
AcDbLine
 10
0.0
 20
0.0
 30
0.0
 11
0.0
 21
0.8333333333
 31
0.0
  0
LINE
  5
1A0
330
19C
100
AcDbEntity
  8
0
  6
Continuous
 62
     0
370
     0
100
AcDbLine
 10
0.0
 20
0.0
 30
0.0
 11
-0.8333333333
 21
0.0
 31
0.0
  0
LINE
  5
1A1
330
19C
100
AcDbEntity
  8
0
  6
Continuous
 62
     0
370
     0
100
AcDbLine
 10
0.0
 20
0.0
 30
0.0
 11
0.0
 21
-0.8333333333
 31
0.0
  0
LINE
  5
1A2
330
19C
100
AcDbEntity
  8
0
  6
Continuous
 62
     0
370
     0
100
AcDbLine
 10
0.0
 20
0.0
 30
0.0
 11
0.8333333333
 21
0.0
 31
0.0
  0
LINE
  5
1A3
330
19C
100
AcDbEntity
  8
0
  6
Continuous
 62
     0
370
     0
100
AcDbLine
 10
0.0
 20
1.6666666667
 30
0.0
 11
0.0
 21
1.9333333333
 31
0.0
  0
LINE
  5
1A4
330
19C
100
AcDbEntity
  8
0
  6
Continuous
 62
     0
370
     0
100
AcDbLine
 10
-1.6666666667
 20
0.0
 30
0.0
 11
-1.9333333333
 21
0.0
 31
0.0
  0
LINE
  5
1A5
330
19C
100
AcDbEntity
  8
0
  6
Continuous
 62
     0
370
     0
100
AcDbLine
 10
0.0
 20
-1.6666666667
 30
0.0
 11
0.0
 21
-1.9333333333
 31
0.0
  0
LINE
  5
1A6
330
19C
100
AcDbEntity
  8
0
  6
Continuous
 62
     0
370
     0
100
AcDbLine
 10
1.6666666667
 20
0.0
 30
0.0
 11
1.9333333333
 21
0.0
 31
0.0
  0
ENDBLK
  5
19E
330
19C
100
AcDbEntity
  8
0
100
AcDbBlockEnd
  0
BLOCK
  5
1A9
330
1A8
100
AcDbEntity
  8
0
100
AcDbBlockBegin
  2
SW_CENTERMARKSYMBOL_12
 70
     0
 10
0.0
 20
0.0
 30
0.0
  3
SW_CENTERMARKSYMBOL_12
  1

  0
LINE
  5
1AB
330
1A8
100
AcDbEntity
  8
0
  6
Continuous
 62
     0
370
     0
100
AcDbLine
 10
0.0
 20
0.0
 30
0.0
 11
0.0
 21
0.8333333333
 31
0.0
  0
LINE
  5
1AC
330
1A8
100
AcDbEntity
  8
0
  6
Continuous
 62
     0
370
     0
100
AcDbLine
 10
0.0
 20
0.0
 30
0.0
 11
-0.8333333333
 21
0.0
 31
0.0
  0
LINE
  5
1AD
330
1A8
100
AcDbEntity
  8
0
  6
Continuous
 62
     0
370
     0
100
AcDbLine
 10
0.0
 20
0.0
 30
0.0
 11
0.0
 21
-0.8333333333
 31
0.0
  0
LINE
  5
1AE
330
1A8
100
AcDbEntity
  8
0
  6
Continuous
 62
     0
370
     0
100
AcDbLine
 10
0.0
 20
0.0
 30
0.0
 11
0.8333333333
 21
0.0
 31
0.0
  0
LINE
  5
1AF
330
1A8
100
AcDbEntity
  8
0
  6
Continuous
 62
     0
370
     0
100
AcDbLine
 10
0.0
 20
1.6666666667
 30
0.0
 11
0.0
 21
1.9333333333
 31
0.0
  0
LINE
  5
1B0
330
1A8
100
AcDbEntity
  8
0
  6
Continuous
 62
     0
370
     0
100
AcDbLine
 10
-1.6666666667
 20
0.0
 30
0.0
 11
-1.9333333333
 21
0.0
 31
0.0
  0
LINE
  5
1B1
330
1A8
100
AcDbEntity
  8
0
  6
Continuous
 62
     0
370
     0
100
AcDbLine
 10
0.0
 20
-1.6666666667
 30
0.0
 11
0.0
 21
-1.9333333333
 31
0.0
  0
LINE
  5
1B2
330
1A8
100
AcDbEntity
  8
0
  6
Continuous
 62
     0
370
     0
100
AcDbLine
 10
1.6666666667
 20
0.0
 30
0.0
 11
1.9333333333
 21
0.0
 31
0.0
  0
ENDBLK
  5
1AA
330
1A8
100
AcDbEntity
  8
0
100
AcDbBlockEnd
  0
BLOCK
  5
1B5
330
1B4
100
AcDbEntity
  8
0
100
AcDbBlockBegin
  2
SW_CENTERMARKSYMBOL_13
 70
     0
 10
0.0
 20
0.0
 30
0.0
  3
SW_CENTERMARKSYMBOL_13
  1

  0
LINE
  5
1B7
330
1B4
100
AcDbEntity
  8
0
  6
Continuous
 62
     0
370
     0
100
AcDbLine
 10
0.0
 20
0.0
 30
0.0
 11
0.0
 21
0.8333333333
 31
0.0
  0
LINE
  5
1B8
330
1B4
100
AcDbEntity
  8
0
  6
Continuous
 62
     0
370
     0
100
AcDbLine
 10
0.0
 20
0.0
 30
0.0
 11
-0.8333333333
 21
0.0
 31
0.0
  0
LINE
  5
1B9
330
1B4
100
AcDbEntity
  8
0
  6
Continuous
 62
     0
370
     0
100
AcDbLine
 10
0.0
 20
0.0
 30
0.0
 11
0.0
 21
-0.8333333333
 31
0.0
  0
LINE
  5
1BA
330
1B4
100
AcDbEntity
  8
0
  6
Continuous
 62
     0
370
     0
100
AcDbLine
 10
0.0
 20
0.0
 30
0.0
 11
0.8333333333
 21
0.0
 31
0.0
  0
LINE
  5
1BB
330
1B4
100
AcDbEntity
  8
0
  6
Continuous
 62
     0
370
     0
100
AcDbLine
 10
0.0
 20
1.6666666667
 30
0.0
 11
0.0
 21
1.9333333333
 31
0.0
  0
LINE
  5
1BC
330
1B4
100
AcDbEntity
  8
0
  6
Continuous
 62
     0
370
     0
100
AcDbLine
 10
-1.6666666667
 20
0.0
 30
0.0
 11
-1.9333333333
 21
0.0
 31
0.0
  0
LINE
  5
1BD
330
1B4
100
AcDbEntity
  8
0
  6
Continuous
 62
     0
370
     0
100
AcDbLine
 10
0.0
 20
-1.6666666667
 30
0.0
 11
0.0
 21
-1.9333333333
 31
0.0
  0
LINE
  5
1BE
330
1B4
100
AcDbEntity
  8
0
  6
Continuous
 62
     0
370
     0
100
AcDbLine
 10
1.6666666667
 20
0.0
 30
0.0
 11
1.9333333333
 21
0.0
 31
0.0
  0
ENDBLK
  5
1B6
330
1B4
100
AcDbEntity
  8
0
100
AcDbBlockEnd
  0
BLOCK
  5
1C1
330
1C0
100
AcDbEntity
  8
0
100
AcDbBlockBegin
  2
SW_CENTERMARKSYMBOL_14
 70
     0
 10
0.0
 20
0.0
 30
0.0
  3
SW_CENTERMARKSYMBOL_14
  1

  0
LINE
  5
1C3
330
1C0
100
AcDbEntity
  8
0
  6
Continuous
 62
     0
370
     0
100
AcDbLine
 10
0.0
 20
0.0
 30
0.0
 11
0.0
 21
0.8333333333
 31
0.0
  0
LINE
  5
1C4
330
1C0
100
AcDbEntity
  8
0
  6
Continuous
 62
     0
370
     0
100
AcDbLine
 10
0.0
 20
0.0
 30
0.0
 11
-0.8333333333
 21
0.0
 31
0.0
  0
LINE
  5
1C5
330
1C0
100
AcDbEntity
  8
0
  6
Continuous
 62
     0
370
     0
100
AcDbLine
 10
0.0
 20
0.0
 30
0.0
 11
0.0
 21
-0.8333333333
 31
0.0
  0
LINE
  5
1C6
330
1C0
100
AcDbEntity
  8
0
  6
Continuous
 62
     0
370
     0
100
AcDbLine
 10
0.0
 20
0.0
 30
0.0
 11
0.8333333333
 21
0.0
 31
0.0
  0
LINE
  5
1C7
330
1C0
100
AcDbEntity
  8
0
  6
Continuous
 62
     0
370
     0
100
AcDbLine
 10
0.0
 20
1.6666666667
 30
0.0
 11
0.0
 21
1.9333333333
 31
0.0
  0
LINE
  5
1C8
330
1C0
100
AcDbEntity
  8
0
  6
Continuous
 62
     0
370
     0
100
AcDbLine
 10
-1.6666666667
 20
0.0
 30
0.0
 11
-1.9333333333
 21
0.0
 31
0.0
  0
LINE
  5
1C9
330
1C0
100
AcDbEntity
  8
0
  6
Continuous
 62
     0
370
     0
100
AcDbLine
 10
0.0
 20
-1.6666666667
 30
0.0
 11
0.0
 21
-1.9333333333
 31
0.0
  0
LINE
  5
1CA
330
1C0
100
AcDbEntity
  8
0
  6
Continuous
 62
     0
370
     0
100
AcDbLine
 10
1.6666666667
 20
0.0
 30
0.0
 11
1.9333333333
 21
0.0
 31
0.0
  0
ENDBLK
  5
1C2
330
1C0
100
AcDbEntity
  8
0
100
AcDbBlockEnd
  0
BLOCK
  5
1CD
330
1CC
100
AcDbEntity
  8
0
100
AcDbBlockBegin
  2
SW_CENTERMARKSYMBOL_15
 70
     0
 10
0.0
 20
0.0
 30
0.0
  3
SW_CENTERMARKSYMBOL_15
  1

  0
LINE
  5
1CF
330
1CC
100
AcDbEntity
  8
0
  6
Continuous
 62
     0
370
     0
100
AcDbLine
 10
0.0
 20
0.0
 30
0.0
 11
0.0
 21
0.8333333333
 31
0.0
  0
LINE
  5
1D0
330
1CC
100
AcDbEntity
  8
0
  6
Continuous
 62
     0
370
     0
100
AcDbLine
 10
0.0
 20
0.0
 30
0.0
 11
-0.8333333333
 21
0.0
 31
0.0
  0
LINE
  5
1D1
330
1CC
100
AcDbEntity
  8
0
  6
Continuous
 62
     0
370
     0
100
AcDbLine
 10
0.0
 20
0.0
 30
0.0
 11
0.0
 21
-0.8333333333
 31
0.0
  0
LINE
  5
1D2
330
1CC
100
AcDbEntity
  8
0
  6
Continuous
 62
     0
370
     0
100
AcDbLine
 10
0.0
 20
0.0
 30
0.0
 11
0.8333333333
 21
0.0
 31
0.0
  0
LINE
  5
1D3
330
1CC
100
AcDbEntity
  8
0
  6
Continuous
 62
     0
370
     0
100
AcDbLine
 10
0.0
 20
1.6666666667
 30
0.0
 11
0.0
 21
1.9333333333
 31
0.0
  0
LINE
  5
1D4
330
1CC
100
AcDbEntity
  8
0
  6
Continuous
 62
     0
370
     0
100
AcDbLine
 10
-1.6666666667
 20
0.0
 30
0.0
 11
-1.9333333333
 21
0.0
 31
0.0
  0
LINE
  5
1D5
330
1CC
100
AcDbEntity
  8
0
  6
Continuous
 62
     0
370
     0
100
AcDbLine
 10
0.0
 20
-1.6666666667
 30
0.0
 11
0.0
 21
-1.9333333333
 31
0.0
  0
LINE
  5
1D6
330
1CC
100
AcDbEntity
  8
0
  6
Continuous
 62
     0
370
     0
100
AcDbLine
 10
1.6666666667
 20
0.0
 30
0.0
 11
1.9333333333
 21
0.0
 31
0.0
  0
ENDBLK
  5
1CE
330
1CC
100
AcDbEntity
  8
0
100
AcDbBlockEnd
  0
BLOCK
  5
1D9
330
1D8
100
AcDbEntity
  8
0
100
AcDbBlockBegin
  2
SW_CENTERMARKSYMBOL_16
 70
     0
 10
0.0
 20
0.0
 30
0.0
  3
SW_CENTERMARKSYMBOL_16
  1

  0
LINE
  5
1DB
330
1D8
100
AcDbEntity
  8
0
  6
Continuous
 62
     0
370
     0
100
AcDbLine
 10
0.0
 20
0.0
 30
0.0
 11
0.0
 21
0.8333333333
 31
0.0
  0
LINE
  5
1DC
330
1D8
100
AcDbEntity
  8
0
  6
Continuous
 62
     0
370
     0
100
AcDbLine
 10
0.0
 20
0.0
 30
0.0
 11
-0.8333333333
 21
0.0
 31
0.0
  0
LINE
  5
1DD
330
1D8
100
AcDbEntity
  8
0
  6
Continuous
 62
     0
370
     0
100
AcDbLine
 10
0.0
 20
0.0
 30
0.0
 11
0.0
 21
-0.8333333333
 31
0.0
  0
LINE
  5
1DE
330
1D8
100
AcDbEntity
  8
0
  6
Continuous
 62
     0
370
     0
100
AcDbLine
 10
0.0
 20
0.0
 30
0.0
 11
0.8333333333
 21
0.0
 31
0.0
  0
LINE
  5
1DF
330
1D8
100
AcDbEntity
  8
0
  6
Continuous
 62
     0
370
     0
100
AcDbLine
 10
0.0
 20
1.6666666667
 30
0.0
 11
0.0
 21
1.9333333333
 31
0.0
  0
LINE
  5
1E0
330
1D8
100
AcDbEntity
  8
0
  6
Continuous
 62
     0
370
     0
100
AcDbLine
 10
-1.6666666667
 20
0.0
 30
0.0
 11
-1.9333333333
 21
0.0
 31
0.0
  0
LINE
  5
1E1
330
1D8
100
AcDbEntity
  8
0
  6
Continuous
 62
     0
370
     0
100
AcDbLine
 10
0.0
 20
-1.6666666667
 30
0.0
 11
0.0
 21
-1.9333333333
 31
0.0
  0
LINE
  5
1E2
330
1D8
100
AcDbEntity
  8
0
  6
Continuous
 62
     0
370
     0
100
AcDbLine
 10
1.6666666667
 20
0.0
 30
0.0
 11
1.9333333333
 21
0.0
 31
0.0
  0
ENDBLK
  5
1DA
330
1D8
100
AcDbEntity
  8
0
100
AcDbBlockEnd
  0
BLOCK
  5
1E5
330
1E4
100
AcDbEntity
  8
0
100
AcDbBlockBegin
  2
SW_CENTERMARKSYMBOL_17
 70
     0
 10
0.0
 20
0.0
 30
0.0
  3
SW_CENTERMARKSYMBOL_17
  1

  0
LINE
  5
1E7
330
1E4
100
AcDbEntity
  8
0
  6
Continuous
 62
     0
370
     0
100
AcDbLine
 10
0.0
 20
0.0
 30
0.0
 11
0.0
 21
0.8333333333
 31
0.0
  0
LINE
  5
1E8
330
1E4
100
AcDbEntity
  8
0
  6
Continuous
 62
     0
370
     0
100
AcDbLine
 10
0.0
 20
0.0
 30
0.0
 11
-0.8333333333
 21
0.0
 31
0.0
  0
LINE
  5
1E9
330
1E4
100
AcDbEntity
  8
0
  6
Continuous
 62
     0
370
     0
100
AcDbLine
 10
0.0
 20
0.0
 30
0.0
 11
0.0
 21
-0.8333333333
 31
0.0
  0
LINE
  5
1EA
330
1E4
100
AcDbEntity
  8
0
  6
Continuous
 62
     0
370
     0
100
AcDbLine
 10
0.0
 20
0.0
 30
0.0
 11
0.8333333333
 21
0.0
 31
0.0
  0
LINE
  5
1EB
330
1E4
100
AcDbEntity
  8
0
  6
Continuous
 62
     0
370
     0
100
AcDbLine
 10
0.0
 20
1.6666666667
 30
0.0
 11
0.0
 21
1.9333333333
 31
0.0
  0
LINE
  5
1EC
330
1E4
100
AcDbEntity
  8
0
  6
Continuous
 62
     0
370
     0
100
AcDbLine
 10
-1.6666666667
 20
0.0
 30
0.0
 11
-1.9333333333
 21
0.0
 31
0.0
  0
LINE
  5
1ED
330
1E4
100
AcDbEntity
  8
0
  6
Continuous
 62
     0
370
     0
100
AcDbLine
 10
0.0
 20
-1.6666666667
 30
0.0
 11
0.0
 21
-1.9333333333
 31
0.0
  0
LINE
  5
1EE
330
1E4
100
AcDbEntity
  8
0
  6
Continuous
 62
     0
370
     0
100
AcDbLine
 10
1.6666666667
 20
0.0
 30
0.0
 11
1.9333333333
 21
0.0
 31
0.0
  0
ENDBLK
  5
1E6
330
1E4
100
AcDbEntity
  8
0
100
AcDbBlockEnd
  0
BLOCK
  5
1F1
330
1F0
100
AcDbEntity
  8
0
100
AcDbBlockBegin
  2
SW_CENTERMARKSYMBOL_18
 70
     0
 10
0.0
 20
0.0
 30
0.0
  3
SW_CENTERMARKSYMBOL_18
  1

  0
LINE
  5
1F3
330
1F0
100
AcDbEntity
  8
0
  6
Continuous
 62
     0
370
     0
100
AcDbLine
 10
0.0
 20
0.0
 30
0.0
 11
0.0
 21
0.8333333333
 31
0.0
  0
LINE
  5
1F4
330
1F0
100
AcDbEntity
  8
0
  6
Continuous
 62
     0
370
     0
100
AcDbLine
 10
0.0
 20
0.0
 30
0.0
 11
-0.8333333333
 21
0.0
 31
0.0
  0
LINE
  5
1F5
330
1F0
100
AcDbEntity
  8
0
  6
Continuous
 62
     0
370
     0
100
AcDbLine
 10
0.0
 20
0.0
 30
0.0
 11
0.0
 21
-0.8333333333
 31
0.0
  0
LINE
  5
1F6
330
1F0
100
AcDbEntity
  8
0
  6
Continuous
 62
     0
370
     0
100
AcDbLine
 10
0.0
 20
0.0
 30
0.0
 11
0.8333333333
 21
0.0
 31
0.0
  0
LINE
  5
1F7
330
1F0
100
AcDbEntity
  8
0
  6
Continuous
 62
     0
370
     0
100
AcDbLine
 10
0.0
 20
1.6666666667
 30
0.0
 11
0.0
 21
5.6666666667
 31
0.0
  0
LINE
  5
1F8
330
1F0
100
AcDbEntity
  8
0
  6
Continuous
 62
     0
370
     0
100
AcDbLine
 10
-1.6666666667
 20
0.0
 30
0.0
 11
-5.6666666667
 21
0.0
 31
0.0
  0
LINE
  5
1F9
330
1F0
100
AcDbEntity
  8
0
  6
Continuous
 62
     0
370
     0
100
AcDbLine
 10
0.0
 20
-1.6666666667
 30
0.0
 11
0.0
 21
-5.6666666667
 31
0.0
  0
LINE
  5
1FA
330
1F0
100
AcDbEntity
  8
0
  6
Continuous
 62
     0
370
     0
100
AcDbLine
 10
1.6666666667
 20
0.0
 30
0.0
 11
5.6666666667
 21
0.0
 31
0.0
  0
ENDBLK
  5
1F2
330
1F0
100
AcDbEntity
  8
0
100
AcDbBlockEnd
  0
BLOCK
  5
1FD
330
1FC
100
AcDbEntity
  8
0
100
AcDbBlockBegin
  2
SW_CENTERMARKSYMBOL_19
 70
     0
 10
0.0
 20
0.0
 30
0.0
  3
SW_CENTERMARKSYMBOL_19
  1

  0
ARC
  5
1FF
330
1FC
100
AcDbEntity
  8
0
  6
Continuous
 62
     0
370
     0
100
AcDbCircle
 10
-11.5470053838
 20
6.6666666667
 30
0.0
 40
13.33333333333333
100
AcDbArc
 50
330.0
 51
333.5809862196
  0
ARC
  5
200
330
1FC
100
AcDbEntity
  8
0
  6
Continuous
 62
     0
370
     0
100
AcDbCircle
 10
-11.5470053838
 20
6.6666666667
 30
0.0
 40
13.33333333333333
100
AcDbArc
 50
326.4190137804
 51
330.0
  0
ARC
  5
201
330
1FC
100
AcDbEntity
  8
0
  6
Continuous
 62
     0
370
     0
100
AcDbCircle
 10
-11.5470053838
 20
6.6666666667
 30
0.0
 40
13.33333333333334
100
AcDbArc
 50
30.0
 51
33.5809862196
  0
ARC
  5
202
330
1FC
100
AcDbEntity
  8
0
  6
Continuous
 62
     0
370
     0
100
AcDbCircle
 10
-11.5470053838
 20
6.6666666667
 30
0.0
 40
13.33333333333334
100
AcDbArc
 50
26.4190137804
 51
30.0
  0
ARC
  5
203
330
1FC
100
AcDbEntity
  8
0
  6
Continuous
 62
     0
370
     0
100
AcDbCircle
 10
-11.5470053838
 20
6.6666666667
 30
0.0
 40
13.33333333333334
100
AcDbArc
 50
270.0
 51
273.5809862196
  0
ARC
  5
204
330
1FC
100
AcDbEntity
  8
0
  6
Continuous
 62
     0
370
     0
100
AcDbCircle
 10
-11.5470053838
 20
6.6666666667
 30
0.0
 40
13.33333333333334
100
AcDbArc
 50
266.4190137804
 51
270.0
  0
ARC
  5
205
330
1FC
100
AcDbEntity
  8
0
  6
Continuous
 62
     0
370
     0
100
AcDbCircle
 10
-11.5470053838
 20
6.6666666667
 30
0.0
 40
13.33333333333333
100
AcDbArc
 50
210.0
 51
213.5809862196
  0
ARC
  5
206
330
1FC
100
AcDbEntity
  8
0
  6
Continuous
 62
     0
370
     0
100
AcDbCircle
 10
-11.5470053838
 20
6.6666666667
 30
0.0
 40
13.33333333333333
100
AcDbArc
 50
206.4190137804
 51
210.0
  0
ARC
  5
207
330
1FC
100
AcDbEntity
  8
0
  6
Continuous
 62
     0
370
     0
100
AcDbCircle
 10
-11.5470053838
 20
6.6666666667
 30
0.0
 40
13.33333333333333
100
AcDbArc
 50
150.0
 51
153.5809862196
  0
ARC
  5
208
330
1FC
100
AcDbEntity
  8
0
  6
Continuous
 62
     0
370
     0
100
AcDbCircle
 10
-11.5470053838
 20
6.6666666667
 30
0.0
 40
13.33333333333333
100
AcDbArc
 50
146.4190137804
 51
150.0
  0
ARC
  5
209
330
1FC
100
AcDbEntity
  8
0
  6
Continuous
 62
     0
370
     0
100
AcDbCircle
 10
-11.5470053838
 20
6.6666666667
 30
0.0
 40
13.33333333333334
100
AcDbArc
 50
90.0
 51
93.5809862196
  0
ARC
  5
20A
330
1FC
100
AcDbEntity
  8
0
  6
Continuous
 62
     0
370
     0
100
AcDbCircle
 10
-11.5470053838
 20
6.6666666667
 30
0.0
 40
13.33333333333334
100
AcDbArc
 50
86.4190137804
 51
90.0
  0
ARC
  5
20B
330
1FC
100
AcDbEntity
  8
0
  6
CENTERX2
 62
     0
370
     0
100
AcDbCircle
 10
-11.5470053838
 20
6.6666666667
 30
0.0
 40
13.33333333333334
100
AcDbArc
 50
37.1619724391
 51
82.8380275609
  0
ARC
  5
20C
330
1FC
100
AcDbEntity
  8
0
  6
CENTERX2
 62
     0
370
     0
100
AcDbCircle
 10
-11.5470053838
 20
6.6666666667
 30
0.0
 40
13.33333333333334
100
AcDbArc
 50
97.1619724391
 51
142.8380275609
  0
ARC
  5
20D
330
1FC
100
AcDbEntity
  8
0
  6
CENTERX2
 62
     0
370
     0
100
AcDbCircle
 10
-11.5470053838
 20
6.6666666667
 30
0.0
 40
13.33333333333333
100
AcDbArc
 50
157.1619724391
 51
202.8380275609
  0
ARC
  5
20E
330
1FC
100
AcDbEntity
  8
0
  6
CENTERX2
 62
     0
370
     0
100
AcDbCircle
 10
-11.5470053838
 20
6.6666666667
 30
0.0
 40
13.33333333333333
100
AcDbArc
 50
217.1619724391
 51
262.8380275609
  0
ARC
  5
20F
330
1FC
100
AcDbEntity
  8
0
  6
CENTERX2
 62
     0
370
     0
100
AcDbCircle
 10
-11.5470053838
 20
6.6666666667
 30
0.0
 40
13.33333333333334
100
AcDbArc
 50
277.1619724391
 51
322.8380275609
  0
ARC
  5
210
330
1FC
100
AcDbEntity
  8
0
  6
CENTERX2
 62
     0
370
     0
100
AcDbCircle
 10
-11.5470053838
 20
6.6666666667
 30
0.0
 40
13.33333333333334
100
AcDbArc
 50
337.1619724391
 51
22.8380275609
  0
LINE
  5
211
330
1FC
100
AcDbEntity
  8
0
  6
Continuous
 62
     0
370
     0
100
AcDbLine
 10
0.0
 20
0.0
 30
0.0
 11
0.7216878365
 21
-0.4166666667
 31
0.0
  0
LINE
  5
212
330
1FC
100
AcDbEntity
  8
0
  6
Continuous
 62
     0
370
     0
100
AcDbLine
 10
0.0
 20
0.0
 30
0.0
 11
-0.7216878365
 21
0.4166666667
 31
0.0
  0
LINE
  5
213
330
1FC
100
AcDbEntity
  8
0
  6
Continuous
 62
     0
370
     0
100
AcDbLine
 10
1.443375673
 20
-0.8333333333
 30
0.0
 11
2.8867513459
 21
-1.6666666667
 31
0.0
  0
LINE
  5
214
330
1FC
100
AcDbEntity
  8
0
  6
Continuous
 62
     0
370
     0
100
AcDbLine
 10
-1.443375673
 20
0.8333333333
 30
0.0
 11
-2.8867513459
 21
1.6666666667
 31
0.0
  0
LINE
  5
215
330
1FC
100
AcDbEntity
  8
0
  6
Continuous
 62
     0
370
     0
100
AcDbLine
 10
-11.5470053838
 20
6.6666666667
 30
0.0
 11
-11.5470053838
 21
7.5
 31
0.0
  0
LINE
  5
216
330
1FC
100
AcDbEntity
  8
0
  6
Continuous
 62
     0
370
     0
100
AcDbLine
 10
-11.5470053838
 20
6.6666666667
 30
0.0
 11
-12.3803387171
 21
6.6666666667
 31
0.0
  0
LINE
  5
217
330
1FC
100
AcDbEntity
  8
0
  6
Continuous
 62
     0
370
     0
100
AcDbLine
 10
-11.5470053838
 20
6.6666666667
 30
0.0
 11
-11.5470053838
 21
5.8333333333
 31
0.0
  0
LINE
  5
218
330
1FC
100
AcDbEntity
  8
0
  6
Continuous
 62
     0
370
     0
100
AcDbLine
 10
-11.5470053838
 20
6.6666666667
 30
0.0
 11
-10.7136720505
 21
6.6666666667
 31
0.0
  0
LINE
  5
219
330
1FC
100
AcDbEntity
  8
0
  6
Continuous
 62
     0
370
     0
100
AcDbLine
 10
-11.5470053838
 20
8.3333333333
 30
0.0
 11
-11.5470053838
 21
20.8333333333
 31
0.0
  0
LINE
  5
21A
330
1FC
100
AcDbEntity
  8
0
  6
Continuous
 62
     0
370
     0
100
AcDbLine
 10
-13.2136720505
 20
6.6666666667
 30
0.0
 11
-25.7136720505
 21
6.6666666667
 31
0.0
  0
LINE
  5
21B
330
1FC
100
AcDbEntity
  8
0
  6
Continuous
 62
     0
370
     0
100
AcDbLine
 10
-11.5470053838
 20
5.0
 30
0.0
 11
-11.5470053838
 21
-7.5
 31
0.0
  0
LINE
  5
21C
330
1FC
100
AcDbEntity
  8
0
  6
Continuous
 62
     0
370
     0
100
AcDbLine
 10
-9.8803387171
 20
6.6666666667
 30
0.0
 11
2.6196612829
 21
6.6666666667
 31
0.0
  0
LINE
  5
21D
330
1FC
100
AcDbEntity
  8
0
  6
Continuous
 62
     0
370
     0
100
AcDbLine
 10
0.0
 20
13.3333333333
 30
0.0
 11
0.7216878365
 21
13.75
 31
0.0
  0
LINE
  5
21E
330
1FC
100
AcDbEntity
  8
0
  6
Continuous
 62
     0
370
     0
100
AcDbLine
 10
0.0
 20
13.3333333333
 30
0.0
 11
-0.7216878365
 21
12.9166666667
 31
0.0
  0
LINE
  5
21F
330
1FC
100
AcDbEntity
  8
0
  6
Continuous
 62
     0
370
     0
100
AcDbLine
 10
1.443375673
 20
14.1666666667
 30
0.0
 11
2.8867513459
 21
15.0
 31
0.0
  0
LINE
  5
220
330
1FC
100
AcDbEntity
  8
0
  6
Continuous
 62
     0
370
     0
100
AcDbLine
 10
-1.443375673
 20
12.5
 30
0.0
 11
-2.8867513459
 21
11.6666666667
 31
0.0
  0
LINE
  5
221
330
1FC
100
AcDbEntity
  8
0
  6
Continuous
 62
     0
370
     0
100
AcDbLine
 10
-11.5470053838
 20
-6.6666666667
 30
0.0
 11
-11.5470053838
 21
-7.5
 31
0.0
  0
LINE
  5
222
330
1FC
100
AcDbEntity
  8
0
  6
Continuous
 62
     0
370
     0
100
AcDbLine
 10
-11.5470053838
 20
-6.6666666667
 30
0.0
 11
-11.5470053838
 21
-5.8333333333
 31
0.0
  0
LINE
  5
223
330
1FC
100
AcDbEntity
  8
0
  6
Continuous
 62
     0
370
     0
100
AcDbLine
 10
-11.5470053838
 20
-8.3333333333
 30
0.0
 11
-11.5470053838
 21
-10.0
 31
0.0
  0
LINE
  5
224
330
1FC
100
AcDbEntity
  8
0
  6
Continuous
 62
     0
370
     0
100
AcDbLine
 10
-11.5470053838
 20
-5.0
 30
0.0
 11
-11.5470053838
 21
-3.3333333333
 31
0.0
  0
LINE
  5
225
330
1FC
100
AcDbEntity
  8
0
  6
Continuous
 62
     0
370
     0
100
AcDbLine
 10
-23.0940107676
 20
0.0
 30
0.0
 11
-23.8156986041
 21
-0.4166666667
 31
0.0
  0
LINE
  5
226
330
1FC
100
AcDbEntity
  8
0
  6
Continuous
 62
     0
370
     0
100
AcDbLine
 10
-23.0940107676
 20
0.0
 30
0.0
 11
-22.3723229311
 21
0.4166666667
 31
0.0
  0
LINE
  5
227
330
1FC
100
AcDbEntity
  8
0
  6
Continuous
 62
     0
370
     0
100
AcDbLine
 10
-24.5373864406
 20
-0.8333333333
 30
0.0
 11
-25.9807621135
 21
-1.6666666667
 31
0.0
  0
LINE
  5
228
330
1FC
100
AcDbEntity
  8
0
  6
Continuous
 62
     0
370
     0
100
AcDbLine
 10
-21.6506350946
 20
0.8333333333
 30
0.0
 11
-20.2072594216
 21
1.6666666667
 31
0.0
  0
LINE
  5
229
330
1FC
100
AcDbEntity
  8
0
  6
Continuous
 62
     0
370
     0
100
AcDbLine
 10
-23.0940107676
 20
13.3333333333
 30
0.0
 11
-23.8156986041
 21
13.75
 31
0.0
  0
LINE
  5
22A
330
1FC
100
AcDbEntity
  8
0
  6
Continuous
 62
     0
370
     0
100
AcDbLine
 10
-23.0940107676
 20
13.3333333333
 30
0.0
 11
-22.3723229311
 21
12.9166666667
 31
0.0
  0
LINE
  5
22B
330
1FC
100
AcDbEntity
  8
0
  6
Continuous
 62
     0
370
     0
100
AcDbLine
 10
-24.5373864406
 20
14.1666666667
 30
0.0
 11
-25.9807621135
 21
15.0
 31
0.0
  0
LINE
  5
22C
330
1FC
100
AcDbEntity
  8
0
  6
Continuous
 62
     0
370
     0
100
AcDbLine
 10
-21.6506350946
 20
12.5
 30
0.0
 11
-20.2072594216
 21
11.6666666667
 31
0.0
  0
LINE
  5
22D
330
1FC
100
AcDbEntity
  8
0
  6
Continuous
 62
     0
370
     0
100
AcDbLine
 10
-11.5470053838
 20
20.0
 30
0.0
 11
-11.5470053838
 21
20.8333333333
 31
0.0
  0
LINE
  5
22E
330
1FC
100
AcDbEntity
  8
0
  6
Continuous
 62
     0
370
     0
100
AcDbLine
 10
-11.5470053838
 20
20.0
 30
0.0
 11
-11.5470053838
 21
19.1666666667
 31
0.0
  0
LINE
  5
22F
330
1FC
100
AcDbEntity
  8
0
  6
Continuous
 62
     0
370
     0
100
AcDbLine
 10
-11.5470053838
 20
21.6666666667
 30
0.0
 11
-11.5470053838
 21
23.3333333333
 31
0.0
  0
LINE
  5
230
330
1FC
100
AcDbEntity
  8
0
  6
Continuous
 62
     0
370
     0
100
AcDbLine
 10
-11.5470053838
 20
18.3333333333
 30
0.0
 11
-11.5470053838
 21
16.6666666667
 31
0.0
  0
ENDBLK
  5
1FE
330
1FC
100
AcDbEntity
  8
0
100
AcDbBlockEnd
  0
BLOCK
  5
26B
330
26A
100
AcDbEntity
  8
0
100
AcDbBlockBegin
  2
*D35
 70
     1
 10
0.0
 20
0.0
 30
0.0
  3
*D35
  1

  0
SOLID
  5
26D
330
26A
100
AcDbEntity
  8
0
  6
Continuous
 62
     7
370
     0
100
AcDbTrace
 10
321.9485871272
 20
263.6859183673
 30
0.0
 11
318.6465871272
 21
264.1939183673
 31
0.0
 12
318.6465871272
 22
263.1779183673
 32
0.0
 13
318.6465871272
 23
263.1779183673
 33
0.0
  0
SOLID
  5
26E
330
26A
100
AcDbEntity
  8
0
  6
Continuous
 62
     7
370
     0
100
AcDbTrace
 10
323.9485871272
 20
263.6859183673
 30
0.0
 11
327.2505871272
 21
263.1779183673
 31
0.0
 12
327.2505871272
 22
264.1939183673
 32
0.0
 13
327.2505871272
 23
264.1939183673
 33
0.0
  0
LINE
  5
26F
330
26A
100
AcDbEntity
  8
0
  6
Continuous
 62
     7
370
     0
100
AcDbLine
 10
321.9485871272
 20
254.6859183673
 30
0.0
 11
321.9485871272
 21
264.6859183673
 31
0.0
  0
LINE
  5
270
330
26A
100
AcDbEntity
  8
0
  6
Continuous
 62
     7
370
     0
100
AcDbLine
 10
323.9485871272
 20
254.6859183673
 30
0.0
 11
323.9485871272
 21
264.6859183673
 31
0.0
  0
LINE
  5
271
330
26A
100
AcDbEntity
  8
0
  6
Continuous
 62
     7
370
     0
100
AcDbLine
 10
321.9485871272
 20
263.6859183673
 30
0.0
 11
315.5985871272
 21
263.6859183673
 31
0.0
  0
LINE
  5
272
330
26A
100
AcDbEntity
  8
0
  6
Continuous
 62
     7
370
     0
100
AcDbLine
 10
321.9485871272
 20
263.6859183673
 30
0.0
 11
323.9485871272
 21
263.6859183673
 31
0.0
  0
LINE
  5
273
330
26A
100
AcDbEntity
  8
0
  6
Continuous
 62
     7
370
     0
100
AcDbLine
 10
323.9485871272
 20
263.6859183673
 30
0.0
 11
335.5996288886
 21
263.6859183673
 31
0.0
  0
MTEXT
  5
274
330
26A
100
AcDbEntity
  8
0
  6
Continuous
 62
     7
370
     0
100
AcDbMText
 10
330.1697677528
 20
268.1976552819
 30
34.2
 40
3.5
 41
0.0
 71
     1
 72
     1
  1
6
  7
SLDTEXTSTYLE0
 73
     1
 44
1.0
  0
ENDBLK
  5
26C
330
26A
100
AcDbEntity
  8
0
100
AcDbBlockEnd
  0
BLOCK
  5
276
330
275
100
AcDbEntity
  8
0
100
AcDbBlockBegin
  2
SW_NOTE_3
 70
     0
 10
0.0
 20
0.0
 30
0.0
  3
SW_NOTE_3
  1

  0
MTEXT
  5
278
330
275
100
AcDbEntity
  8
0
  6
Continuous
 62
     0
370
     0
100
AcDbMText
 10
12.6328125
 20
4.5117370892
 30
0.0
 40
3.5
 41
0.0
 71
     2
 72
     1
  1
COUPE A-A
  7
SLDTEXTSTYLE0
 73
     1
 44
1.0
  0
MTEXT
  5
27A
330
275
100
AcDbEntity
  8
0
  6
Continuous
 62
     0
370
     0
100
AcDbMText
 10
13.4154505357
 20
-0.0139574413
 30
0.0
 40
3.5
 41
0.0
 71
     2
 72
     1
  1
ECHELLE 1 : 3
  7
SLDTEXTSTYLE3
 73
     1
 44
1.0
  0
ENDBLK
  5
277
330
275
100
AcDbEntity
  8
0
100
AcDbBlockEnd
  0
BLOCK
  5
2B7
330
2B6
100
AcDbEntity
  8
0
100
AcDbBlockBegin
  2
*D37
 70
     1
 10
0.0
 20
0.0
 30
0.0
  3
*D37
  1

  0
SOLID
  5
2B9
330
2B6
100
AcDbEntity
  8
0
  6
Continuous
 62
     7
370
     0
100
AcDbTrace
 10
104.6058974359
 20
75.8692132088
 30
0.0
 11
101.3038974359
 21
76.3772132088
 31
0.0
 12
101.3038974359
 22
75.3612132088
 32
0.0
 13
101.3038974359
 23
75.3612132088
 33
0.0
  0
SOLID
  5
2BA
330
2B6
100
AcDbEntity
  8
0
  6
Continuous
 62
     7
370
     0
100
AcDbTrace
 10
108.9392307692
 20
75.8692132088
 30
0.0
 11
112.2412307692
 21
75.3612132088
 31
0.0
 12
112.2412307692
 22
76.3772132088
 32
0.0
 13
112.2412307692
 23
76.3772132088
 33
0.0
  0
LINE
  5
2BB
330
2B6
100
AcDbEntity
  8
0
  6
Continuous
 62
     7
370
     0
100
AcDbLine
 10
104.6058974359
 20
58.2388383046
 30
0.0
 11
104.6058974359
 21
76.8692132088
 31
0.0
  0
LINE
  5
2BC
330
2B6
100
AcDbEntity
  8
0
  6
Continuous
 62
     7
370
     0
100
AcDbLine
 10
108.9392307692
 20
58.2388383046
 30
0.0
 11
108.9392307692
 21
76.8692132088
 31
0.0
  0
LINE
  5
2BD
330
2B6
100
AcDbEntity
  8
0
  6
Continuous
 62
     7
370
     0
100
AcDbLine
 10
104.6058974359
 20
75.8692132088
 30
0.0
 11
77.8210180736
 21
75.8692132088
 31
0.0
  0
LINE
  5
2BE
330
2B6
100
AcDbEntity
  8
0
  6
Continuous
 62
     7
370
     0
100
AcDbLine
 10
104.6058974359
 20
75.8692132088
 30
0.0
 11
108.9392307692
 21
75.8692132088
 31
0.0
  0
LINE
  5
2BF
330
2B6
100
AcDbEntity
  8
0
  6
Continuous
 62
     7
370
     0
100
AcDbLine
 10
108.9392307692
 20
75.8692132088
 30
0.0
 11
115.2892307692
 21
75.8692132088
 31
0.0
  0
MTEXT
  5
2C0
330
2B6
100
AcDbEntity
  8
0
  6
Continuous
 62
     7
370
     0
100
AcDbMText
 10
77.8210180736
 20
80.380950298
 30
34.2
 40
3.5
 41
0.0
 71
     1
 72
     1
  1
%%c
  7
SLDTEXTSTYLE0
 73
     1
 44
1.0
  0
MTEXT
  5
2C1
330
2B6
100
AcDbEntity
  8
0
  6
Continuous
 62
     7
370
     0
100
AcDbMText
 10
83.099455472
 20
80.4344224747
 30
34.2
 40
3.5
 41
0.0
 71
     1
 72
     1
  1
13
  7
SLDTEXTSTYLE0
 73
     1
 44
1.0
  0
MTEXT
  5
2C2
330
2B6
100
AcDbEntity
  8
0
  6
Continuous
 62
     7
370
     0
100
AcDbMText
 10
92.4279280341
 20
80.4344224747
 30
34.2
 40
3.5
 41
0.0
 71
     1
 72
     1
  1
(x6)
  7
SLDTEXTSTYLE0
 73
     1
 44
1.0
  0
ENDBLK
  5
2B8
330
2B6
100
AcDbEntity
  8
0
100
AcDbBlockEnd
  0
BLOCK
  5
2C6
330
2C5
100
AcDbEntity
  8
0
100
AcDbBlockBegin
  2
*D38
 70
     1
 10
0.0
 20
0.0
 30
0.0
  3
*D38
  1

  0
SOLID
  5
2C8
330
2C5
100
AcDbEntity
  8
0
  6
Continuous
 62
     7
370
     0
100
AcDbTrace
 10
76.654908277
 20
57.2388383046
 30
0.0
 11
77.162908277
 21
60.5408383046
 31
0.0
 12
76.146908277
 22
60.5408383046
 32
0.0
 13
76.146908277
 23
60.5408383046
 33
0.0
  0
SOLID
  5
2C9
330
2C5
100
AcDbEntity
  8
0
  6
Continuous
 62
     7
370
     0
100
AcDbTrace
 10
76.654908277
 20
55.7055049712
 30
0.0
 11
76.146908277
 21
52.4035049712
 31
0.0
 12
77.162908277
 22
52.4035049712
 32
0.0
 13
77.162908277
 23
52.4035049712
 33
0.0
  0
LINE
  5
2CA
330
2C5
100
AcDbEntity
  8
0
  6
Continuous
 62
     7
370
     0
100
AcDbLine
 10
103.6058974359
 20
55.7055049712
 30
0.0
 11
75.654908277
 21
55.7055049712
 31
0.0
  0
LINE
  5
2CB
330
2C5
100
AcDbEntity
  8
0
  6
Continuous
 62
     7
370
     0
100
AcDbLine
 10
76.654908277
 20
57.2388383046
 30
0.0
 11
76.654908277
 21
94.869741027
 31
0.0
  0
LINE
  5
2CC
330
2C5
100
AcDbEntity
  8
0
  6
Continuous
 62
     7
370
     0
100
AcDbLine
 10
76.654908277
 20
57.2388383046
 30
0.0
 11
76.654908277
 21
55.7055049712
 31
0.0
  0
LINE
  5
2CD
330
2C5
100
AcDbEntity
  8
0
  6
Continuous
 62
     7
370
     0
100
AcDbLine
 10
76.654908277
 20
55.7055049712
 30
0.0
 11
76.654908277
 21
49.3555049712
 31
0.0
  0
MTEXT
  5
2CE
330
2C5
100
AcDbEntity
  8
0
  6
Continuous
 62
     7
370
     0
100
AcDbMText
 10
72.1431713624
 20
63.6079355821
 30
34.2
 40
3.5
 41
0.0
 71
     1
 72
     1
  1
4,6
  7
SLDTEXTSTYLE0
 11
-7.044195017643634E-15
 21
1.0
 31
0.0
 73
     1
 44
1.0
  0
MTEXT
  5
2CF
330
2C5
100
AcDbEntity
  8
0
  6
Continuous
 62
     7
370
     0
100
AcDbMText
 10
72.1431713624
 20
74.2294638574
 30
34.2
 40
3.5
 41
0.0
 71
     1
 72
     1
  1
max. (x6)
  7
SLDTEXTSTYLE0
 11
-7.044195017643634E-15
 21
1.0
 31
0.0
 73
     1
 44
1.0
  0
ENDBLK
  5
2C7
330
2C5
100
AcDbEntity
  8
0
100
AcDbBlockEnd
  0
BLOCK
  5
2D1
330
2D0
100
AcDbEntity
  8
0
100
AcDbBlockBegin
  2
SW_NOTE_4
 70
     0
 10
0.0
 20
0.0
 30
0.0
  3
SW_NOTE_4
  1

  0
MTEXT
  5
2D3
330
2D0
100
AcDbEntity
  8
0
  6
Continuous
 62
     0
370
     0
100
AcDbMText
 10
12.0859375
 20
4.5117370892
 30
0.0
 40
3.5
 41
0.0
 71
     2
 72
     1
  1
COUPE B-B
  7
SLDTEXTSTYLE0
 73
     1
 44
1.0
  0
MTEXT
  5
2D4
330
2D0
100
AcDbEntity
  8
0
  6
Continuous
 62
     0
370
     0
100
AcDbMText
 10
12.6425347552
 20
-0.0139574413
 30
0.0
 40
3.5
 41
0.0
 71
     2
 72
     1
  1
ECHELLE 1 : 3
  7
SLDTEXTSTYLE3
 73
     1
 44
1.0
  0
ENDBLK
  5
2D2
330
2D0
100
AcDbEntity
  8
0
100
AcDbBlockEnd
  0
ENDSEC
  0
SECTION
  2
ENTITIES
  0
IMAGE
  5
47
330
1F
100
AcDbEntity
  8
0
 92
      140
310
8C00000001000000840000000600000005000000BA17D10AAD1D3640AD7677050F456A400000000000000000B617D10AAD1D3640982609824E936B40000000000000000040D7454FFC4B2640972609824E936B40000000000000000049D7454FFC4B2640AD7677050F456A400000000000000000BA17D10AAD1D3640AD7677
310
050F456A400000000000000000
100
AcDbRasterImage
 90
        0
 10
22.1159216652
 20
210.1580836614
 30
0.0
 11
-3.898898128171208E-17
 21
0.02611312457214654
 31
0.0
 12
-0.02611312457214653
 22
-3.898898128171207E-17
 32
0.0
 13
400.0
 23
420.0
340
46
 70
     7
280
     0
281
    50
282
    50
283
     0
360
48
 71
     1
 91
        2
 14
-0.5
 24
-0.5
 14
399.5
 24
419.5
  0
LINE
  5
49
330
1F
100
AcDbEntity
  8
0
  6
Continuous
 62
     7
370
    40
100
AcDbLine
 10
25.0788435654
 20
10.2147801566
 30
0.0
 11
25.0788435654
 21
287.2147801566
 31
0.0
  0
LINE
  5
4A
330
1F
100
AcDbEntity
  8
0
  6
Continuous
 62
     7
370
    40
100
AcDbLine
 10
0.0788435654
 20
0.2147801566
 30
0.0
 11
420.0788435654
 21
0.2147801566
 31
0.0
  0
LINE
  5
4B
330
1F
100
AcDbEntity
  8
0
  6
Continuous
 62
     7
370
    40
100
AcDbLine
 10
0.0788435654
 20
0.2147801566
 30
0.0
 11
0.0788435654
 21
297.2147801566
 31
0.0
  0
LINE
  5
4C
330
1F
100
AcDbEntity
  8
0
  6
Continuous
 62
     7
370
    40
100
AcDbLine
 10
0.0788435654
 20
297.2147801566
 30
0.0
 11
420.0788435654
 21
297.2147801566
 31
0.0
  0
LINE
  5
4D
330
1F
100
AcDbEntity
  8
0
  6
Continuous
 62
     7
370
    40
100
AcDbLine
 10
420.0788435654
 20
0.2147801566
 30
0.0
 11
420.0788435654
 21
297.2147801566
 31
0.0
  0
LINE
  5
4E
330
1F
100
AcDbEntity
  8
0
  6
Continuous
 62
     7
370
    40
100
AcDbLine
 10
25.0788435654
 20
287.2147801566
 30
0.0
 11
410.0788435654
 21
287.2147801566
 31
0.0
  0
LINE
  5
4F
330
1F
100
AcDbEntity
  8
0
  6
Continuous
 62
     7
370
    40
100
AcDbLine
 10
25.0788435654
 20
10.2147801566
 30
0.0
 11
410.0788435654
 21
10.2147801566
 31
0.0
  0
LINE
  5
50
330
1F
100
AcDbEntity
  8
0
  6
Continuous
 62
     7
370
    40
100
AcDbLine
 10
410.0788435654
 20
287.2147801566
 30
0.0
 11
410.0788435654
 21
10.2147801566
 31
0.0
  0
LINE
  5
51
330
1F
100
AcDbEntity
  8
0
  6
Continuous
 62
     7
370
    40
100
AcDbLine
 10
222.8788435654
 20
14.4647801566
 30
0.0
 11
410.0788435654
 21
14.4647801566
 31
0.0
  0
LINE
  5
52
330
1F
100
AcDbEntity
  8
0
  6
Continuous
 62
     7
370
    40
100
AcDbLine
 10
410.0788435654
 20
48.4647801566
 30
0.0
 11
222.8788435654
 21
48.4647801566
 31
0.0
  0
LINE
  5
53
330
1F
100
AcDbEntity
  8
0
  6
Continuous
 62
     7
370
    40
100
AcDbLine
 10
222.8788435654
 20
65.4647801566
 30
0.0
 11
410.0788435654
 21
65.4647801566
 31
0.0
  0
LINE
  5
54
330
1F
100
AcDbEntity
  8
0
  6
Continuous
 62
     7
370
    40
100
AcDbLine
 10
249.8697959991
 20
48.4647801566
 30
0.0
 11
249.8697959991
 21
10.2147801566
 31
0.0
  0
LINE
  5
55
330
1F
100
AcDbEntity
  8
0
  6
Continuous
 62
     7
370
    40
100
AcDbLine
 10
321.6788435654
 20
31.4647801566
 30
0.0
 11
222.8788435654
 21
31.4647801566
 31
0.0
  0
LINE
  5
56
330
1F
100
AcDbEntity
  8
0
  6
Continuous
 62
     7
370
    40
100
AcDbLine
 10
321.6788435654
 20
35.7147801566
 30
0.0
 11
222.8788435654
 21
35.7147801566
 31
0.0
  0
LINE
  5
57
330
1F
100
AcDbEntity
  8
0
  6
Continuous
 62
     7
370
    40
100
AcDbLine
 10
321.6788435654
 20
39.9647801566
 30
0.0
 11
222.8788435654
 21
39.9647801566
 31
0.0
  0
LINE
  5
58
330
1F
100
AcDbEntity
  8
0
  6
Continuous
 62
     7
370
    40
100
AcDbLine
 10
321.6788435654
 20
44.2147801566
 30
0.0
 11
222.8788435654
 21
44.2147801566
 31
0.0
  0
LINE
  5
59
330
1F
100
AcDbEntity
  8
0
  6
Continuous
 62
     7
370
    40
100
AcDbLine
 10
277.4788435654
 20
10.2147801566
 30
0.0
 11
277.4788435654
 21
48.4647801566
 31
0.0
  0
LINE
  5
5A
330
1F
100
AcDbEntity
  8
0
  6
Continuous
 62
     7
370
    40
100
AcDbLine
 10
222.8788435654
 20
65.4647801566
 30
0.0
 11
222.8788435654
 21
10.2147801566
 31
0.0
  0
LINE
  5
5B
330
1F
100
AcDbEntity
  8
0
  6
Continuous
 62
     7
370
    40
100
AcDbLine
 10
230.6788435654
 20
48.4647801566
 30
0.0
 11
230.6788435654
 21
10.2147801566
 31
0.0
  0
LINE
  5
5C
330
1F
100
AcDbEntity
  8
0
  6
Continuous
 62
     7
370
    40
100
AcDbLine
 10
256.6788435654
 20
48.4647801566
 30
0.0
 11
256.6788435654
 21
65.4647801566
 31
0.0
  0
LINE
  5
5D
330
1F
100
AcDbEntity
  8
0
  6
Continuous
 62
     7
370
    40
100
AcDbLine
 10
267.2777697289
 20
48.4647801566
 30
0.0
 11
267.2777697289
 21
10.2147801566
 31
0.0
  0
LINE
  5
5E
330
1F
100
AcDbEntity
  8
0
  6
Continuous
 62
     7
370
    40
100
AcDbLine
 10
287.8788435654
 20
31.4647801566
 30
0.0
 11
287.8788435654
 21
48.4647801566
 31
0.0
  0
LINE
  5
5F
330
1F
100
AcDbEntity
  8
0
  6
Continuous
 62
     7
370
    40
100
AcDbLine
 10
277.4788435654
 20
18.7147801566
 30
0.0
 11
222.8788435654
 21
18.7147801566
 31
0.0
  0
LINE
  5
60
330
1F
100
AcDbEntity
  8
0
  6
Continuous
 62
     7
370
    40
100
AcDbLine
 10
303.4788435654
 20
65.4647801566
 30
0.0
 11
303.4788435654
 21
27.2147801566
 31
0.0
  0
LINE
  5
61
330
1F
100
AcDbEntity
  8
0
  6
Continuous
 62
     7
370
    40
100
AcDbLine
 10
277.4788435654
 20
22.9647081566
 30
0.0
 11
222.8788435654
 21
22.9647081566
 31
0.0
  0
LINE
  5
62
330
1F
100
AcDbEntity
  8
0
  6
Continuous
 62
     7
370
    40
100
AcDbLine
 10
277.4788435654
 20
27.2147801566
 30
0.0
 11
222.8788435654
 21
27.2147801566
 31
0.0
  0
LINE
  5
63
330
1F
100
AcDbEntity
  8
0
  6
Continuous
 62
     7
370
    40
100
AcDbLine
 10
277.4788435654
 20
27.2147801566
 30
0.0
 11
410.0788435654
 21
27.2147801566
 31
0.0
  0
LINE
  5
64
330
1F
100
AcDbEntity
  8
0
  6
Continuous
 62
     7
370
    40
100
AcDbLine
 10
321.6788435654
 20
65.4647801566
 30
0.0
 11
321.6788435654
 21
10.2147801566
 31
0.0
  0
LINE
  5
65
330
1F
100
AcDbEntity
  8
0
  6
Continuous
 62
     7
370
    40
100
AcDbLine
 10
365.8788435654
 20
10.2147801566
 30
0.0
 11
365.8788435654
 21
14.4647801566
 31
0.0
  0
LINE
  5
66
330
1F
100
AcDbEntity
  8
0
  6
Continuous
 62
     7
370
    40
100
AcDbLine
 10
373.6788435654
 20
59.0897801566
 30
0.0
 11
373.6788435654
 21
65.4647801566
 31
0.0
  0
LINE
  5
67
330
1F
100
AcDbEntity
  8
0
  6
Continuous
 62
     7
370
    40
100
AcDbLine
 10
397.0788435654
 20
14.4647801566
 30
0.0
 11
397.0788435654
 21
27.2147801566
 31
0.0
  0
LINE
  5
68
330
1F
100
AcDbEntity
  8
0
  6
Continuous
 62
     7
370
    40
100
AcDbLine
 10
410.0788435654
 20
59.0897801566
 30
0.0
 11
321.6788435654
 21
59.0897801566
 31
0.0
  0
LINE
  5
69
330
1F
100
AcDbEntity
  8
0
  6
Continuous
 62
     7
370
    40
100
AcDbLine
 10
410.0788435654
 20
18.7147801566
 30
0.0
 11
397.0788435654
 21
18.7147801566
 31
0.0
  0
INSERT
  5
70
330
1F
100
AcDbEntity
  8
0
  6
Continuous
 62
     7
370
     0
100
AcDbBlockReference
  2
SW_NOTE_0
 10
16.2073339037
 20
11.1294376932
 30
0.0
  0
MTEXT
  5
71
330
1F
100
AcDbEntity
  8
0
  6
Continuous
 62
     7
370
     0
100
AcDbMText
 10
396.78903285
 20
62.9900954614
 30
0.0
 40
1.905
 41
0.0
 71
     2
 72
     1
  1
1
  7
SLDTEXTSTYLE0
 73
     1
 44
1.0
  0
MTEXT
  5
72
330
1F
100
AcDbEntity
  8
0
  6
Continuous
 62
     7
370
     0
100
AcDbMText
 10
365.9387941881
 20
40.9905976457
 30
0.0
 40
4.2333333333
 41
0.0
 71
     2
 72
     1
  1
Plateau axe fixe
  7
SLDTEXTSTYLE0
 73
     1
 44
1.0
  0
MTEXT
  5
73
330
1F
100
AcDbEntity
  8
0
  6
Continuous
 62
     7
370
     0
100
AcDbMText
 10
362.5416789728
 20
24.8465186829
 30
0.0
 40
6.35
 41
0.0
 71
     2
 72
     1
  1
ASD-US000036
  7
SLDTEXTSTYLE0
 73
     1
 44
1.0
  0
MTEXT
  5
74
330
1F
100
AcDbEntity
  8
0
  6
Continuous
 62
     7
370
     0
100
AcDbMText
 10
272.5762722308
 20
42.773880237
 30
0.0
 40
1.4986
 41
0.0
 71
     2
 72
     1
  1
22-11/2013
  7
SLDTEXTSTYLE0
 73
     1
 44
1.0
  0
MTEXT
  5
75
330
1F
100
AcDbEntity
  8
0
  6
Continuous
 62
     7
370
     0
100
AcDbMText
 10
240.1135264709
 20
42.5981456645
 30
0.0
 40
1.4986
 41
0.0
 71
     2
 72
     1
  1
BRESSON-T
  7
SLDTEXTSTYLE0
 73
     1
 44
1.0
  0
MTEXT
  5
76
330
1F
100
AcDbEntity
  8
0
  6
Continuous
 62
     7
370
     0
100
AcDbMText
 10
278.4966546935
 20
13.1640920602
 30
0.0
 40
1.4986
 41
0.0
 71
     1
 72
     1
  1
MASSE:
  7
SLDTEXTSTYLE0
 73
     1
 44
1.0
  0
MTEXT
  5
77
330
1F
100
AcDbEntity
  8
0
  6
Continuous
 62
     7
370
     0
100
AcDbMText
 10
299.8177807388
 20
21.700345848
 30
0.0
 40
2.38125
 41
0.0
 71
     2
 72
     1
  1
Acier
  7
SLDTEXTSTYLE0
 73
     1
 44
1.0
  0
MTEXT
  5
78
330
1F
100
AcDbEntity
  8
0
  6
Continuous
 62
     7
370
     0
100
AcDbMText
 10
400.9998284117
 20
24.5152246096
 30
0.0
 40
2.9104166667
 41
0.0
 71
     1
 72
     1
  1
A3
  7
SLDTEXTSTYLE0
 73
     1
 44
1.0
  0
MTEXT
  5
7A
330
1F
100
AcDbEntity
  8
0
  6
Continuous
 62
     7
370
     0
100
AcDbMText
 10
367.3571379932
 20
13.114867664
 30
0.0
 40
1.5
 41
0.0
 71
     1
 72
     1
  1
FEUILLE 1 SUR 1
  7
SLDTEXTSTYLE1
 73
     1
 44
1.0
  0
MTEXT
  5
7B
330
1F
100
AcDbEntity
  8
0
  6
Continuous
 62
     7
370
     0
100
AcDbMText
 10
322.9528096828
 20
13.114867664
 30
0.0
 40
1.5
 41
0.0
 71
     1
 72
     1
  1
ECHELLE: 1:3
  7
SLDTEXTSTYLE0
 73
     1
 44
1.0
  0
MTEXT
  5
7C
330
1F
100
AcDbEntity
  8
0
  6
Continuous
 62
     7
370
     0
100
AcDbMText
 10
322.9528096828
 20
25.0834182165
 30
0.0
 40
1.5
 41
0.0
 71
     1
 72
     1
  1
No. DE PLAN
  7
SLDTEXTSTYLE0
 73
     1
 44
1.0
  0
MTEXT
  5
7D
330
1F
100
AcDbEntity
  8
0
  6
Continuous
 62
     7
370
     0
100
AcDbMText
 10
322.835030502
 20
46.4931146755
 30
0.0
 40
1.5
 41
0.0
 71
     1
 72
     1
  1
TITRE:
  7
SLDTEXTSTYLE0
 73
     1
 44
1.0
  0
MTEXT
  5
7E
330
1F
100
AcDbEntity
  8
0
  6
Continuous
 62
     7
370
     0
100
AcDbMText
 10
376.2064252647
 20
62.5496890699
 30
0.0
 40
1.5
 41
0.0
 71
     1
 72
     1
  1
REVISION
  7
SLDTEXTSTYLE0
 73
     1
 44
1.0
  0
MTEXT
  5
7F
330
1F
100
AcDbEntity
  8
0
  6
Continuous
 62
     7
370
     0
100
AcDbMText
 10
335.4934840882
 20
62.7477739645
 30
0.0
 40
1.5
 41
0.0
 71
     1
 72
     1
  1
NE PAS CHANGER L'ECHELLE
  7
SLDTEXTSTYLE0
 73
     1
 44
1.0
  0
MTEXT
  5
80
330
1F
100
AcDbEntity
  8
0
  6
Continuous
 62
     7
370
     0
100
AcDbMText
 10
278.5247058741
 20
26.2008366787
 30
0.0
 40
1.5
 41
0.0
 71
     1
 72
     1
  1
MATERIAU:
  7
SLDTEXTSTYLE0
 73
     1
 44
1.0
  0
MTEXT
  5
81
330
1F
100
AcDbEntity
  8
0
  6
Continuous
 62
     7
370
     0
100
AcDbMText
 10
270.0935455311
 20
46.7909596107
 30
0.0
 40
1.5
 41
0.0
 71
     1
 72
     1
  1
DATE
  7
SLDTEXTSTYLE0
 73
     1
 44
1.0
  0
MTEXT
  5
82
330
1F
100
AcDbEntity
  8
0
  6
Continuous
 62
     7
370
     0
100
AcDbMText
 10
252.9124311285
 20
46.776536769
 30
0.0
 40
1.5
 41
0.0
 71
     1
 72
     1
  1
SIGNATURE
  7
SLDTEXTSTYLE0
 73
     1
 44
1.0
  0
MTEXT
  5
83
330
1F
100
AcDbEntity
  8
0
  6
Continuous
 62
     7
370
     0
100
AcDbMText
 10
237.201082783
 20
46.7162630229
 30
0.0
 40
1.5
 41
0.0
 71
     1
 72
     1
  1
NOM
  7
SLDTEXTSTYLE0
 73
     1
 44
1.0
  0
INSERT
  5
89
330
1F
100
AcDbEntity
  8
0
  6
Continuous
 62
     7
370
     0
100
AcDbBlockReference
  2
SW_NOTE_1
 10
304.1880592516
 20
62.2842700325
 30
0.0
  0
MTEXT
  5
8A
330
1F
100
AcDbEntity
  8
0
  6
Continuous
 62
     7
370
     0
100
AcDbMText
 10
257.2501357322
 20
64.1340523846
 30
0.0
 40
1.5
 41
0.0
 71
     1
 72
     1
  1
FINITION:
  7
SLDTEXTSTYLE0
 73
     1
 44
1.0
  0
MTEXT
  5
8B
330
1F
100
AcDbEntity
  8
0
  6
Continuous
 62
     7
370
     0
100
AcDbMText
 10
223.5478864275
 20
25.5644295968
 30
0.0
 40
1.5
 41
0.0
 71
     1
 72
     1
  1
QUAL.
  7
SLDTEXTSTYLE0
 73
     1
 44
1.0
  0
MTEXT
  5
8C
330
1F
100
AcDbEntity
  8
0
  6
Continuous
 62
     7
370
     0
100
AcDbMText
 10
223.3340300644
 20
29.9484850401
 30
0.0
 40
1.5
 41
0.0
 71
     1
 72
     1
  1
FAB.
  7
SLDTEXTSTYLE0
 73
     1
 44
1.0
  0
MTEXT
  5
8D
330
1F
100
AcDbEntity
  8
0
  6
Continuous
 62
     7
370
     0
100
AcDbMText
 10
223.2805659737
 20
34.2790763926
 30
0.0
 40
1.5
 41
0.0
 71
     1
 72
     1
  1
APPR.
  7
SLDTEXTSTYLE0
 73
     1
 44
1.0
  0
MTEXT
  5
8E
330
1F
100
AcDbEntity
  8
0
  6
Continuous
 62
     7
370
     0
100
AcDbMText
 10
223.289312433
 20
38.3691875495
 30
0.0
 40
1.5
 41
0.0
 71
     1
 72
     1
  1
VERIF.
  7
SLDTEXTSTYLE0
 73
     1
 44
1.0
  0
MTEXT
  5
8F
330
1F
100
AcDbEntity
  8
0
  6
Continuous
 62
     7
370
     0
100
AcDbMText
 10
223.0909928094
 20
42.6444952754
 30
0.0
 40
1.5
 41
0.0
 71
     1
 72
     1
  1
AUTEUR
  7
SLDTEXTSTYLE0
 73
     1
 44
1.0
  0
INSERT
  5
9A
330
1F
100
AcDbEntity
  8
0
  6
Continuous
 62
     7
370
     0
100
AcDbBlockReference
  2
SW_NOTE_2
 10
224.8035244616
 20
60.9657407215
 30
0.0
  0
CIRCLE
  5
9B
330
1F
100
AcDbEntity
  8
0
  6
Continuous
 62
     7
370
    15
100
AcDbCircle
 10
128.4392307692
 20
188.6859183673
 30
0.0
 40
6.666666666666657
  0
CIRCLE
  5
9C
330
1F
100
AcDbEntity
  8
0
  6
Continuous
 62
     7
370
    15
100
AcDbCircle
 10
128.4392307692
 20
188.6859183673
 30
0.0
 40
65.0
  0
CIRCLE
  5
9D
330
1F
100
AcDbEntity
  8
0
  6
Continuous
 62
     7
370
    15
100
AcDbCircle
 10
180.4007549963
 20
218.6859183673
 30
0.0
 40
1.100000000000023
  0
CIRCLE
  5
9E
330
1F
100
AcDbEntity
  8
0
  6
Continuous
 62
     7
370
    15
100
AcDbCircle
 10
158.4392307692
 20
240.6474425944
 30
0.0
 40
1.100000000000023
  0
CIRCLE
  5
9F
330
1F
100
AcDbEntity
  8
0
  6
Continuous
 62
     7
370
    15
100
AcDbCircle
 10
128.4392307692
 20
248.6859183673
 30
0.0
 40
1.100000000000023
  0
CIRCLE
  5
A0
330
1F
100
AcDbEntity
  8
0
  6
Continuous
 62
     7
370
    15
100
AcDbCircle
 10
98.4392307692
 20
240.6474425944
 30
0.0
 40
1.100000000000023
  0
CIRCLE
  5
A1
330
1F
100
AcDbEntity
  8
0
  6
Continuous
 62
     7
370
    15
100
AcDbCircle
 10
76.4777065422
 20
218.6859183673
 30
0.0
 40
1.099999999999994
  0
CIRCLE
  5
A2
330
1F
100
AcDbEntity
  8
0
  6
Continuous
 62
     7
370
    15
100
AcDbCircle
 10
68.4392307692
 20
188.6859183673
 30
0.0
 40
1.099999999999994
  0
CIRCLE
  5
A3
330
1F
100
AcDbEntity
  8
0
  6
Continuous
 62
     7
370
    15
100
AcDbCircle
 10
76.4777065422
 20
158.6859183673
 30
0.0
 40
1.099999999999994
  0
CIRCLE
  5
A4
330
1F
100
AcDbEntity
  8
0
  6
Continuous
 62
     7
370
    15
100
AcDbCircle
 10
98.4392307692
 20
136.7243941403
 30
0.0
 40
1.099999999999994
  0
CIRCLE
  5
A5
330
1F
100
AcDbEntity
  8
0
  6
Continuous
 62
     7
370
    15
100
AcDbCircle
 10
128.4392307692
 20
128.6859183673
 30
0.0
 40
1.099999999999994
  0
CIRCLE
  5
A6
330
1F
100
AcDbEntity
  8
0
  6
Continuous
 62
     7
370
    15
100
AcDbCircle
 10
158.4392307692
 20
136.7243941403
 30
0.0
 40
1.099999999999994
  0
CIRCLE
  5
A7
330
1F
100
AcDbEntity
  8
0
  6
Continuous
 62
     7
370
    15
100
AcDbCircle
 10
180.4007549963
 20
158.6859183673
 30
0.0
 40
1.099999999999994
  0
CIRCLE
  5
A8
330
1F
100
AcDbEntity
  8
0
  6
Continuous
 62
     7
370
    15
100
AcDbCircle
 10
188.4392307692
 20
188.6859183673
 30
0.0
 40
1.100000000000023
  0
CIRCLE
  5
A9
330
1F
100
AcDbEntity
  8
0
  6
Continuous
 62
     7
370
    15
100
AcDbCircle
 10
139.2725641026
 20
169.9220346187
 30
0.0
 40
1.099999999999994
  0
CIRCLE
  5
AA
330
1F
100
AcDbEntity
  8
0
  6
Continuous
 62
     7
370
    15
100
AcDbCircle
 10
117.6058974359
 20
169.9220346187
 30
0.0
 40
1.099999999999994
  0
CIRCLE
  5
AB
330
1F
100
AcDbEntity
  8
0
  6
Continuous
 62
     7
370
    15
100
AcDbCircle
 10
106.7725641026
 20
188.6859183673
 30
0.0
 40
1.099999999999994
  0
CIRCLE
  5
AC
330
1F
100
AcDbEntity
  8
0
  6
Continuous
 62
     7
370
    15
100
AcDbCircle
 10
117.6058974359
 20
207.449802116
 30
0.0
 40
1.099999999999994
  0
CIRCLE
  5
AD
330
1F
100
AcDbEntity
  8
0
  6
Continuous
 62
     7
370
    15
100
AcDbCircle
 10
139.2725641026
 20
207.449802116
 30
0.0
 40
1.099999999999994
  0
CIRCLE
  5
AE
330
1F
100
AcDbEntity
  8
0
  6
Continuous
 62
     7
370
    15
100
AcDbCircle
 10
150.1058974359
 20
188.6859183673
 30
0.0
 40
1.099999999999994
  0
CIRCLE
  5
AF
330
1F
100
AcDbEntity
  8
0
  6
Continuous
 62
     7
370
    15
100
AcDbCircle
 10
175.1058974359
 20
188.6859183673
 30
0.0
 40
4.833333333333343
  0
CIRCLE
  5
B0
330
1F
100
AcDbEntity
  8
0
  6
Continuous
 62
     7
370
    15
100
AcDbCircle
 10
139.986236153
 20
195.352585034
 30
0.0
 40
2.499999999999972
  0
CIRCLE
  5
B1
330
1F
100
AcDbEntity
  8
0
  6
Continuous
 62
     7
370
    15
100
AcDbCircle
 10
139.986236153
 20
182.0192517007
 30
0.0
 40
2.500000000000008
  0
CIRCLE
  5
B2
330
1F
100
AcDbEntity
  8
0
  6
Continuous
 62
     7
370
    15
100
AcDbCircle
 10
128.4392307692
 20
175.352585034
 30
0.0
 40
2.50000000000002
  0
CIRCLE
  5
B3
330
1F
100
AcDbEntity
  8
0
  6
Continuous
 62
     7
370
    15
100
AcDbCircle
 10
116.8922253854
 20
182.0192517007
 30
0.0
 40
2.499999999999972
  0
CIRCLE
  5
B4
330
1F
100
AcDbEntity
  8
0
  6
Continuous
 62
     7
370
    15
100
AcDbCircle
 10
116.8922253854
 20
195.352585034
 30
0.0
 40
2.500000000000008
  0
CIRCLE
  5
B5
330
1F
100
AcDbEntity
  8
0
  6
Continuous
 62
     7
370
    15
100
AcDbCircle
 10
128.4392307692
 20
202.0192517007
 30
0.0
 40
2.499999999999998
  0
CIRCLE
  5
B6
330
1F
100
AcDbEntity
  8
0
  6
DOT2
 62
     7
370
     0
100
AcDbCircle
 10
128.4392307692
 20
188.6859183673
 30
0.0
 40
21.66666666666668
  0
CIRCLE
  5
B7
330
1F
100
AcDbEntity
  8
0
  6
DOT2
 62
     7
370
     0
100
AcDbCircle
 10
128.4392307692
 20
188.6859183673
 30
0.0
 40
59.99999999999997
  0
DIMENSION
  5
B8
330
1F
100
AcDbEntity
  8
0
  6
Continuous
 62
     7
370
     0
100
AcDbDimension
  2
*D4
 10
128.4392307692
 20
110.352585034
 30
0.0
 11
151.7725641026
 21
110.352585034
 31
0.0
 70
   160
 71
     2
 42
-1.0
  3
SLDDIMSTYLE0
100
AcDbAlignedDimension
 13
175.1058974359
 23
188.6859183673
 33
0.0
 14
128.4392307692
 24
104.7472841444
 34
0.0
100
AcDbRotatedDimension
  0
DIMENSION
  5
C2
330
1F
100
AcDbEntity
  8
0
  6
Continuous
 62
     7
370
     0
100
AcDbDimension
  2
*D6
 10
170.8656376404
 20
146.2595114962
 30
0.0
 11
60.827530838
 21
256.2976382986
 31
0.0
 70
   163
  1
<>
 71
     1
 42
-1.0
  3
SLDDIMSTYLE1
100
AcDbDiametricDimension
 15
86.012823898
 25
231.1123252385
 35
0.0
 40
0.0
  0
DIMENSION
  5
CF
330
1F
100
AcDbEntity
  8
0
  6
Continuous
 62
     7
370
     0
100
AcDbDimension
  2
*D7
 10
148.5722438327
 20
196.6925549541
 30
0.0
 11
49.6271752897
 21
157.3433983171
 31
0.0
 70
   163
  1
<>
 71
     1
 42
-1.0
  3
SLDDIMSTYLE1
100
AcDbDiametricDimension
 15
108.3062177058
 25
180.6792817806
 35
0.0
 40
0.0
  0
DIMENSION
  5
D8
330
1F
100
AcDbEntity
  8
0
  6
Continuous
 62
     7
370
     0
100
AcDbDimension
  2
*D8
 10
123.213725581
 20
184.546046392
 30
0.0
 11
194.3688399308
 21
240.9182178947
 31
0.0
 70
   163
  1
<>
 71
     1
 42
-1.0
  3
SLDDIMSTYLE1
100
AcDbDiametricDimension
 15
133.6647359574
 25
192.8257903427
 35
0.0
 40
0.0
  0
DIMENSION
  5
E1
330
1F
100
AcDbEntity
  8
0
  6
Continuous
 62
     7
370
     0
100
AcDbDimension
  2
*D9
 10
85.988335361
 20
139.4627380654
 30
0.0
 11
181.0937929923
 21
249.7405773416
 31
0.0
 70
   163
  1
<>
 71
     1
 42
-1.0
  3
SLDDIMSTYLE1
100
AcDbDiametricDimension
 15
170.8901261775
 25
237.9090986693
 35
0.0
 40
0.0
  0
DIMENSION
  5
EA
330
1F
100
AcDbEntity
  8
0
  6
Continuous
 62
     7
370
     0
100
AcDbDimension
  2
*D10
 10
171.6882146602
 20
192.1036011431
 30
0.0
 11
206.7725741026
 21
157.0192617007
 31
0.0
 70
   163
  1
<>
 71
     1
 42
-1.0
  3
SLDDIMSTYLE1
100
AcDbDiametricDimension
 15
178.5235802116
 25
185.2682355916
 35
0.0
 40
0.0
  0
DIMENSION
  5
F3
330
1F
100
AcDbEntity
  8
0
  6
Continuous
 62
     7
370
     0
100
AcDbDimension
  2
*D11
 10
99.2170482285
 20
239.8696251351
 30
0.0
 11
72.067431663
 21
267.0192617007
 31
0.0
 70
   163
  1
<>
 71
     1
 42
-1.0
  3
SLDDIMSTYLE1
100
AcDbDiametricDimension
 15
97.6614133099
 25
241.4252600537
 35
0.0
 40
0.0
  0
DIMENSION
  5
FC
330
1F
100
AcDbEntity
  8
0
  6
Continuous
 62
     7
370
     0
100
AcDbDimension
  2
*D12
 10
107.796027679
 20
189.0890589232
 30
0.0
 11
46.6082105503
 21
164.9872882536
 31
0.0
 70
   163
  1
<>
 71
     1
 42
-1.0
  3
SLDDIMSTYLE1
100
AcDbDiametricDimension
 15
105.7491005262
 25
188.2827778115
 35
0.0
 40
0.0
  0
DIMENSION
  5
105
330
1F
100
AcDbEntity
  8
0
  6
Continuous
 62
     7
370
     0
100
AcDbDimension
  2
*D13
 10
129.2608353094
 20
177.7137216204
 30
0.0
 11
102.6345612266
 21
101.1948098804
 31
0.0
 70
   163
  1
<>
 71
     1
 42
-1.0
  3
SLDDIMSTYLE1
100
AcDbDiametricDimension
 15
127.6176262291
 25
172.9914484476
 35
0.0
 40
0.0
  0
DIMENSION
  5
10E
330
1F
100
AcDbEntity
  8
0
  6
Continuous
 62
     7
370
     0
100
AcDbDimension
  2
*D14
 10
133.4128956521
 20
201.0568696408
 30
0.0
 11
93.6533447578
 21
102.1632866739
 31
0.0
 70
   163
  1
<>
 71
     1
 42
-1.0
  3
SLDDIMSTYLE2
100
AcDbDiametricDimension
 15
123.4655658864
 25
176.3149670939
 35
0.0
 40
0.0
  0
INSERT
  5
123
330
1F
100
AcDbEntity
  8
0
  6
Continuous
 62
     7
370
     0
100
AcDbBlockReference
  2
SW_CENTERMARKSYMBOL_0
 10
180.4007549963
 20
218.6859183673
 30
0.0
  0
INSERT
  5
12F
330
1F
100
AcDbEntity
  8
0
  6
Continuous
 62
     7
370
     0
100
AcDbBlockReference
  2
SW_CENTERMARKSYMBOL_1
 10
158.4392307692
 20
240.6474425944
 30
0.0
  0
INSERT
  5
13B
330
1F
100
AcDbEntity
  8
0
  6
Continuous
 62
     7
370
     0
100
AcDbBlockReference
  2
SW_CENTERMARKSYMBOL_2
 10
128.4392307692
 20
248.6859183673
 30
0.0
  0
INSERT
  5
147
330
1F
100
AcDbEntity
  8
0
  6
Continuous
 62
     7
370
     0
100
AcDbBlockReference
  2
SW_CENTERMARKSYMBOL_3
 10
98.4392307692
 20
240.6474425944
 30
0.0
  0
INSERT
  5
153
330
1F
100
AcDbEntity
  8
0
  6
Continuous
 62
     7
370
     0
100
AcDbBlockReference
  2
SW_CENTERMARKSYMBOL_4
 10
76.4777065422
 20
218.6859183673
 30
0.0
  0
INSERT
  5
15F
330
1F
100
AcDbEntity
  8
0
  6
Continuous
 62
     7
370
     0
100
AcDbBlockReference
  2
SW_CENTERMARKSYMBOL_5
 10
68.4392307692
 20
188.6859183673
 30
0.0
  0
INSERT
  5
16B
330
1F
100
AcDbEntity
  8
0
  6
Continuous
 62
     7
370
     0
100
AcDbBlockReference
  2
SW_CENTERMARKSYMBOL_6
 10
76.4777065422
 20
158.6859183673
 30
0.0
  0
INSERT
  5
177
330
1F
100
AcDbEntity
  8
0
  6
Continuous
 62
     7
370
     0
100
AcDbBlockReference
  2
SW_CENTERMARKSYMBOL_7
 10
98.4392307692
 20
136.7243941403
 30
0.0
  0
INSERT
  5
183
330
1F
100
AcDbEntity
  8
0
  6
Continuous
 62
     7
370
     0
100
AcDbBlockReference
  2
SW_CENTERMARKSYMBOL_8
 10
128.4392307692
 20
128.6859183673
 30
0.0
  0
INSERT
  5
18F
330
1F
100
AcDbEntity
  8
0
  6
Continuous
 62
     7
370
     0
100
AcDbBlockReference
  2
SW_CENTERMARKSYMBOL_9
 10
158.4392307692
 20
136.7243941403
 30
0.0
  0
INSERT
  5
19B
330
1F
100
AcDbEntity
  8
0
  6
Continuous
 62
     7
370
     0
100
AcDbBlockReference
  2
SW_CENTERMARKSYMBOL_10
 10
180.4007549963
 20
158.6859183673
 30
0.0
  0
INSERT
  5
1A7
330
1F
100
AcDbEntity
  8
0
  6
Continuous
 62
     7
370
     0
100
AcDbBlockReference
  2
SW_CENTERMARKSYMBOL_11
 10
188.4392307692
 20
188.6859183673
 30
0.0
  0
INSERT
  5
1B3
330
1F
100
AcDbEntity
  8
0
  6
Continuous
 62
     7
370
     0
100
AcDbBlockReference
  2
SW_CENTERMARKSYMBOL_12
 10
139.2725641026
 20
169.9220346187
 30
0.0
  0
INSERT
  5
1BF
330
1F
100
AcDbEntity
  8
0
  6
Continuous
 62
     7
370
     0
100
AcDbBlockReference
  2
SW_CENTERMARKSYMBOL_13
 10
117.6058974359
 20
169.9220346187
 30
0.0
  0
INSERT
  5
1CB
330
1F
100
AcDbEntity
  8
0
  6
Continuous
 62
     7
370
     0
100
AcDbBlockReference
  2
SW_CENTERMARKSYMBOL_14
 10
106.7725641026
 20
188.6859183673
 30
0.0
  0
INSERT
  5
1D7
330
1F
100
AcDbEntity
  8
0
  6
Continuous
 62
     7
370
     0
100
AcDbBlockReference
  2
SW_CENTERMARKSYMBOL_15
 10
117.6058974359
 20
207.449802116
 30
0.0
  0
INSERT
  5
1E3
330
1F
100
AcDbEntity
  8
0
  6
Continuous
 62
     7
370
     0
100
AcDbBlockReference
  2
SW_CENTERMARKSYMBOL_16
 10
139.2725641026
 20
207.449802116
 30
0.0
  0
INSERT
  5
1EF
330
1F
100
AcDbEntity
  8
0
  6
Continuous
 62
     7
370
     0
100
AcDbBlockReference
  2
SW_CENTERMARKSYMBOL_17
 10
150.1058974359
 20
188.6859183673
 30
0.0
  0
INSERT
  5
1FB
330
1F
100
AcDbEntity
  8
0
  6
Continuous
 62
     7
370
     0
100
AcDbBlockReference
  2
SW_CENTERMARKSYMBOL_18
 10
175.1058974359
 20
188.6859183673
 30
0.0
  0
INSERT
  5
231
330
1F
100
AcDbEntity
  8
0
  6
Continuous
 62
     7
370
     0
100
AcDbBlockReference
  2
SW_CENTERMARKSYMBOL_19
 10
139.986236153
 20
182.0192517007
 30
0.0
  0
LINE
  5
232
330
1F
100
AcDbEntity
  8
0
  6
CENTER
 62
     7
370
     0
100
AcDbLine
 10
128.4392307692
 20
272.3867660911
 30
0.0
 11
128.4392307692
 21
104.7472841444
 31
0.0
  0
LINE
  5
233
330
1F
100
AcDbEntity
  8
0
  6
Continuous
 62
     7
370
     0
100
AcDbLine
 10
115.7392307692
 20
270.3867660911
 30
0.0
 11
128.4392307692
 21
270.3867660911
 31
0.0
  0
SOLID
  5
234
330
1F
100
AcDbEntity
  8
0
  6
Continuous
 62
     7
370
     0
100
AcDbTrace
 10
128.4392307692
 20
270.3867660911
 30
0.0
 11
122.0892307692
 21
271.4027660911
 31
0.0
 12
122.0892307692
 22
269.3707660911
 32
0.0
 13
122.0892307692
 23
269.3707660911
 33
0.0
  0
LINE
  5
235
330
1F
100
AcDbEntity
  8
0
  6
Continuous
 62
     7
370
     0
100
AcDbLine
 10
115.7392307692
 20
106.7472841444
 30
0.0
 11
128.4392307692
 21
106.7472841444
 31
0.0
  0
SOLID
  5
236
330
1F
100
AcDbEntity
  8
0
  6
Continuous
 62
     7
370
     0
100
AcDbTrace
 10
128.4392307692
 20
106.7472841444
 30
0.0
 11
122.0892307692
 21
107.7632841444
 31
0.0
 12
122.0892307692
 22
105.7312841444
 32
0.0
 13
122.0892307692
 23
105.7312841444
 33
0.0
  0
MTEXT
  5
237
330
1F
100
AcDbEntity
  8
0
  6
Continuous
 62
     7
100
AcDbMText
 10
115.7392307692
 20
275.9438365777
 30
0.0
 40
3.5
 41
0.0
 71
     1
 72
     1
  1
A
  7
SLDTEXTSTYLE0
 73
     1
 44
1.0
  0
MTEXT
  5
238
330
1F
100
AcDbEntity
  8
0
  6
Continuous
 62
     7
100
AcDbMText
 10
115.7392307692
 20
112.3043546311
 30
0.0
 40
3.5
 41
0.0
 71
     1
 72
     1
  1
A
  7
SLDTEXTSTYLE0
 73
     1
 44
1.0
  0
LINE
  5
239
330
1F
100
AcDbEntity
  8
0
  6
CENTER
 62
     7
370
     0
100
AcDbLine
 10
46.1651020408
 20
188.6859183673
 30
0.0
 11
209.5244270016
 21
188.6859183673
 31
0.0
  0
LINE
  5
23A
330
1F
100
AcDbEntity
  8
0
  6
Continuous
 62
     7
370
     0
100
AcDbLine
 10
48.1651020408
 20
201.3859183673
 30
0.0
 11
48.1651020408
 21
188.6859183673
 31
0.0
  0
SOLID
  5
23B
330
1F
100
AcDbEntity
  8
0
  6
Continuous
 62
     7
370
     0
100
AcDbTrace
 10
48.1651020408
 20
188.6859183673
 30
0.0
 11
49.1811020408
 21
195.0359183673
 31
0.0
 12
47.1491020408
 22
195.0359183673
 32
0.0
 13
47.1491020408
 23
195.0359183673
 33
0.0
  0
LINE
  5
23C
330
1F
100
AcDbEntity
  8
0
  6
Continuous
 62
     7
370
     0
100
AcDbLine
 10
207.5244270016
 20
201.3859183673
 30
0.0
 11
207.5244270016
 21
188.6859183673
 31
0.0
  0
SOLID
  5
23D
330
1F
100
AcDbEntity
  8
0
  6
Continuous
 62
     7
370
     0
100
AcDbTrace
 10
207.5244270016
 20
188.6859183673
 30
0.0
 11
208.5404270016
 21
195.0359183673
 31
0.0
 12
206.5084270016
 22
195.0359183673
 32
0.0
 13
206.5084270016
 23
195.0359183673
 33
0.0
  0
MTEXT
  5
23E
330
1F
100
AcDbEntity
  8
0
  6
Continuous
 62
     7
100
AcDbMText
 10
49.2360924333
 20
201.3859183673
 30
0.0
 40
3.5
 41
0.0
 71
     1
 72
     1
  1
B
  7
SLDTEXTSTYLE0
 73
     1
 44
1.0
  0
MTEXT
  5
23F
330
1F
100
AcDbEntity
  8
0
  6
Continuous
 62
     7
100
AcDbMText
 10
208.595417394
 20
201.3859183673
 30
0.0
 40
3.5
 41
0.0
 71
     1
 72
     1
  1
B
  7
SLDTEXTSTYLE0
 73
     1
 44
1.0
  0
LINE
  5
240
330
1F
100
AcDbEntity
  8
0
  6
Continuous
 62
     7
370
    15
100
AcDbLine
 10
321.9485871272
 20
247.5859183673
 30
0.0
 11
323.9485871272
 21
247.5859183673
 31
0.0
  0
LINE
  5
241
330
1F
100
AcDbEntity
  8
0
  6
Continuous
 62
     7
370
    15
100
AcDbLine
 10
321.9485871272
 20
247.5859183673
 30
0.0
 11
321.9485871272
 21
249.7859183673
 31
0.0
  0
LINE
  5
242
330
1F
100
AcDbEntity
  8
0
  6
Continuous
 62
     7
370
    15
100
AcDbLine
 10
323.9485871272
 20
249.7859183673
 30
0.0
 11
321.9485871272
 21
249.7859183673
 31
0.0
  0
LINE
  5
243
330
1F
100
AcDbEntity
  8
0
  6
Continuous
 62
     7
370
    15
100
AcDbLine
 10
323.9485871272
 20
247.5859183673
 30
0.0
 11
323.9485871272
 21
249.7859183673
 31
0.0
  0
LINE
  5
244
330
1F
100
AcDbEntity
  8
0
  6
Continuous
 62
     7
370
    15
100
AcDbLine
 10
321.9485871272
 20
127.5859183673
 30
0.0
 11
323.9485871272
 21
127.5859183673
 31
0.0
  0
LINE
  5
245
330
1F
100
AcDbEntity
  8
0
  6
Continuous
 62
     7
370
    15
100
AcDbLine
 10
323.9485871272
 20
129.7859183673
 30
0.0
 11
321.9485871272
 21
129.7859183673
 31
0.0
  0
LINE
  5
246
330
1F
100
AcDbEntity
  8
0
  6
Continuous
 62
     7
370
    15
100
AcDbLine
 10
323.9485871272
 20
127.5859183673
 30
0.0
 11
323.9485871272
 21
129.7859183673
 31
0.0
  0
LINE
  5
247
330
1F
100
AcDbEntity
  8
0
  6
Continuous
 62
     7
370
    15
100
AcDbLine
 10
321.9485871272
 20
127.5859183673
 30
0.0
 11
321.9485871272
 21
129.7859183673
 31
0.0
  0
LINE
  5
248
330
1F
100
AcDbEntity
  8
0
  6
Continuous
 62
     7
370
    15
100
AcDbLine
 10
321.9485871272
 20
253.6859183673
 30
0.0
 11
323.9485871272
 21
253.6859183673
 31
0.0
  0
LINE
  5
249
330
1F
100
AcDbEntity
  8
0
  6
Continuous
 62
     7
370
    15
100
AcDbLine
 10
323.9485871272
 20
123.6859183673
 30
0.0
 11
321.9485871272
 21
123.6859183673
 31
0.0
  0
LINE
  5
24A
330
1F
100
AcDbEntity
  8
0
  6
Continuous
 62
     7
370
    15
100
AcDbLine
 10
321.9485871272
 20
195.352585034
 30
0.0
 11
323.9485871272
 21
195.352585034
 31
0.0
  0
LINE
  5
24B
330
1F
100
AcDbEntity
  8
0
  6
Continuous
 62
     7
370
    15
100
AcDbLine
 10
323.9485871272
 20
182.0192517007
 30
0.0
 11
321.9485871272
 21
182.0192517007
 31
0.0
  0
LINE
  5
24C
330
1F
100
AcDbEntity
  8
0
  6
Continuous
 62
     7
370
    15
100
AcDbLine
 10
323.9485871272
 20
182.0192517007
 30
0.0
 11
323.9485871272
 21
195.352585034
 31
0.0
  0
LINE
  5
24D
330
1F
100
AcDbEntity
  8
0
  6
Continuous
 62
     7
370
    15
100
AcDbLine
 10
321.9485871272
 20
182.0192517007
 30
0.0
 11
321.9485871272
 21
195.352585034
 31
0.0
  0
LINE
  5
24E
330
1F
100
AcDbEntity
  8
0
  6
Continuous
 62
     7
370
    15
100
AcDbLine
 10
321.9485871272
 20
172.852585034
 30
0.0
 11
323.9485871272
 21
172.852585034
 31
0.0
  0
LINE
  5
24F
330
1F
100
AcDbEntity
  8
0
  6
Continuous
 62
     7
370
    15
100
AcDbLine
 10
323.9485871272
 20
177.852585034
 30
0.0
 11
321.9485871272
 21
177.852585034
 31
0.0
  0
LINE
  5
250
330
1F
100
AcDbEntity
  8
0
  6
Continuous
 62
     7
370
    15
100
AcDbLine
 10
323.9485871272
 20
172.852585034
 30
0.0
 11
323.9485871272
 21
177.852585034
 31
0.0
  0
LINE
  5
251
330
1F
100
AcDbEntity
  8
0
  6
Continuous
 62
     7
370
    15
100
AcDbLine
 10
321.9485871272
 20
172.852585034
 30
0.0
 11
321.9485871272
 21
177.852585034
 31
0.0
  0
LINE
  5
252
330
1F
100
AcDbEntity
  8
0
  6
Continuous
 62
     7
370
    15
100
AcDbLine
 10
321.9485871272
 20
199.5192517007
 30
0.0
 11
323.9485871272
 21
199.5192517007
 31
0.0
  0
LINE
  5
253
330
1F
100
AcDbEntity
  8
0
  6
Continuous
 62
     7
370
    15
100
AcDbLine
 10
323.9485871272
 20
204.5192517007
 30
0.0
 11
321.9485871272
 21
204.5192517007
 31
0.0
  0
LINE
  5
254
330
1F
100
AcDbEntity
  8
0
  6
Continuous
 62
     7
370
    15
100
AcDbLine
 10
323.9485871272
 20
199.5192517007
 30
0.0
 11
323.9485871272
 21
204.5192517007
 31
0.0
  0
LINE
  5
255
330
1F
100
AcDbEntity
  8
0
  6
Continuous
 62
     7
370
    15
100
AcDbLine
 10
321.9485871272
 20
199.5192517007
 30
0.0
 11
321.9485871272
 21
204.5192517007
 31
0.0
  0
LINE
  5
256
330
1F
100
AcDbEntity
  8
0
  6
Continuous
 62
     7
370
    15
100
AcDbLine
 10
323.9485871272
 20
123.6859183673
 30
0.0
 11
323.9485871272
 21
127.5859183673
 31
0.0
  0
LINE
  5
257
330
1F
100
AcDbEntity
  8
0
  6
Continuous
 62
     7
370
    15
100
AcDbLine
 10
321.9485871272
 20
123.6859183673
 30
0.0
 11
321.9485871272
 21
127.5859183673
 31
0.0
  0
LINE
  5
258
330
1F
100
AcDbEntity
  8
0
  6
Continuous
 62
     7
370
    15
100
AcDbLine
 10
323.9485871272
 20
204.5192517007
 30
0.0
 11
323.9485871272
 21
247.5859183673
 31
0.0
  0
LINE
  5
259
330
1F
100
AcDbEntity
  8
0
  6
Continuous
 62
     7
370
    15
100
AcDbLine
 10
321.9485871272
 20
204.5192517007
 30
0.0
 11
321.9485871272
 21
247.5859183673
 31
0.0
  0
LINE
  5
25A
330
1F
100
AcDbEntity
  8
0
  6
Continuous
 62
     7
370
    15
100
AcDbLine
 10
323.9485871272
 20
249.7859183673
 30
0.0
 11
323.9485871272
 21
253.6859183673
 31
0.0
  0
LINE
  5
25B
330
1F
100
AcDbEntity
  8
0
  6
Continuous
 62
     7
370
    15
100
AcDbLine
 10
321.9485871272
 20
249.7859183673
 30
0.0
 11
321.9485871272
 21
253.6859183673
 31
0.0
  0
LINE
  5
25C
330
1F
100
AcDbEntity
  8
0
  6
Continuous
 62
     7
370
    15
100
AcDbLine
 10
323.9485871272
 20
195.352585034
 30
0.0
 11
323.9485871272
 21
199.5192517007
 31
0.0
  0
LINE
  5
25D
330
1F
100
AcDbEntity
  8
0
  6
Continuous
 62
     7
370
    15
100
AcDbLine
 10
321.9485871272
 20
195.352585034
 30
0.0
 11
321.9485871272
 21
199.5192517007
 31
0.0
  0
LINE
  5
25E
330
1F
100
AcDbEntity
  8
0
  6
Continuous
 62
     7
370
    15
100
AcDbLine
 10
323.9485871272
 20
129.7859183673
 30
0.0
 11
323.9485871272
 21
172.852585034
 31
0.0
  0
LINE
  5
25F
330
1F
100
AcDbEntity
  8
0
  6
Continuous
 62
     7
370
    15
100
AcDbLine
 10
321.9485871272
 20
129.7859183673
 30
0.0
 11
321.9485871272
 21
172.852585034
 31
0.0
  0
LINE
  5
260
330
1F
100
AcDbEntity
  8
0
  6
Continuous
 62
     7
370
    15
100
AcDbLine
 10
323.9485871272
 20
177.852585034
 30
0.0
 11
323.9485871272
 21
182.0192517007
 31
0.0
  0
LINE
  5
261
330
1F
100
AcDbEntity
  8
0
  6
Continuous
 62
     7
370
    15
100
AcDbLine
 10
321.9485871272
 20
177.852585034
 30
0.0
 11
321.9485871272
 21
182.0192517007
 31
0.0
  0
HATCH
  5
262
330
1F
100
AcDbEntity
  8
0
  6
Continuous
 62
     7
370
     0
100
AcDbHatch
 10
0.0
 20
0.0
 30
0.0
210
0.0
220
0.0
230
1.0
  2
ANSI32
 70
     0
 71
     0
 91
        1
 92
        0
 93
        4
 72
     1
 10
323.9485871271585
 20
253.6859183673469
 11
321.9485871271585
 21
253.6859183673469
 72
     1
 10
321.9485871271585
 20
253.6859183673469
 11
321.9485871271585
 21
249.785918367347
 72
     1
 10
321.9485871271585
 20
249.785918367347
 11
323.9485871271585
 21
249.785918367347
 72
     1
 10
323.9485871271585
 20
249.785918367347
 11
323.9485871271585
 21
253.6859183673469
 97
        0
 75
     0
 76
     1
 52
0.0
 41
1.0
 77
     0
 78
     2
 53
45.0
 43
0.0
 44
0.0
 45
-6.735192090801865
 46
6.735192090801866
 79
     0
 53
45.0
 43
4.49013
 44
0.0
 45
-6.735192090801865
 46
6.735192090801866
 79
     0
 98
        1
 10
0.0
 20
0.0
  0
HATCH
  5
263
330
1F
100
AcDbEntity
  8
0
  6
Continuous
 62
     7
370
     0
100
AcDbHatch
 10
0.0
 20
0.0
 30
0.0
210
0.0
220
0.0
230
1.0
  2
ANSI32
 70
     0
 71
     0
 91
        1
 92
        0
 93
        4
 72
     1
 10
321.9485871271585
 20
199.5192517006803
 11
321.9485871271585
 21
195.3525850340136
 72
     1
 10
321.9485871271585
 20
195.3525850340136
 11
323.9485871271585
 21
195.3525850340136
 72
     1
 10
323.9485871271585
 20
195.3525850340136
 11
323.9485871271585
 21
199.5192517006803
 72
     1
 10
323.9485871271585
 20
199.5192517006803
 11
321.9485871271585
 21
199.5192517006803
 97
        0
 75
     0
 76
     1
 52
0.0
 41
1.0
 77
     0
 78
     2
 53
45.0
 43
0.0
 44
0.0
 45
-6.735192090801865
 46
6.735192090801866
 79
     0
 53
45.0
 43
4.49013
 44
0.0
 45
-6.735192090801865
 46
6.735192090801866
 79
     0
 98
        1
 10
0.0
 20
0.0
  0
HATCH
  5
264
330
1F
100
AcDbEntity
  8
0
  6
Continuous
 62
     7
370
     0
100
AcDbHatch
 10
0.0
 20
0.0
 30
0.0
210
0.0
220
0.0
230
1.0
  2
ANSI32
 70
     0
 71
     0
 91
        1
 92
        0
 93
        4
 72
     1
 10
323.9485871271585
 20
247.585918367347
 11
321.9485871271585
 21
247.585918367347
 72
     1
 10
321.9485871271585
 20
247.585918367347
 11
321.9485871271585
 21
204.5192517006803
 72
     1
 10
321.9485871271585
 20
204.5192517006803
 11
323.9485871271585
 21
204.5192517006803
 72
     1
 10
323.9485871271585
 20
204.5192517006803
 11
323.9485871271585
 21
247.585918367347
 97
        0
 75
     0
 76
     1
 52
0.0
 41
1.0
 77
     0
 78
     2
 53
45.0
 43
0.0
 44
0.0
 45
-6.735192090801865
 46
6.735192090801866
 79
     0
 53
45.0
 43
4.49013
 44
0.0
 45
-6.735192090801865
 46
6.735192090801866
 79
     0
 98
        1
 10
0.0
 20
0.0
  0
HATCH
  5
265
330
1F
100
AcDbEntity
  8
0
  6
Continuous
 62
     7
370
     0
100
AcDbHatch
 10
0.0
 20
0.0
 30
0.0
210
0.0
220
0.0
230
1.0
  2
ANSI32
 70
     0
 71
     0
 91
        1
 92
        0
 93
        4
 72
     1
 10
321.9485871271585
 20
129.785918367347
 11
323.9485871271585
 21
129.785918367347
 72
     1
 10
323.9485871271585
 20
129.785918367347
 11
323.9485871271585
 21
172.8525850340136
 72
     1
 10
323.9485871271585
 20
172.8525850340136
 11
321.9485871271585
 21
172.8525850340136
 72
     1
 10
321.9485871271585
 20
172.8525850340136
 11
321.9485871271585
 21
129.785918367347
 97
        0
 75
     0
 76
     1
 52
0.0
 41
1.0
 77
     0
 78
     2
 53
45.0
 43
0.0
 44
0.0
 45
-6.735192090801865
 46
6.735192090801866
 79
     0
 53
45.0
 43
4.49013
 44
0.0
 45
-6.735192090801865
 46
6.735192090801866
 79
     0
 98
        1
 10
0.0
 20
0.0
  0
HATCH
  5
266
330
1F
100
AcDbEntity
  8
0
  6
Continuous
 62
     7
370
     0
100
AcDbHatch
 10
0.0
 20
0.0
 30
0.0
210
0.0
220
0.0
230
1.0
  2
ANSI32
 70
     0
 71
     0
 91
        1
 92
        0
 93
        4
 72
     1
 10
323.9485871271585
 20
177.8525850340136
 11
323.9485871271585
 21
182.0192517006803
 72
     1
 10
323.9485871271585
 20
182.0192517006803
 11
321.9485871271585
 21
182.0192517006803
 72
     1
 10
321.9485871271585
 20
182.0192517006803
 11
321.9485871271585
 21
177.8525850340136
 72
     1
 10
321.9485871271585
 20
177.8525850340136
 11
323.9485871271585
 21
177.8525850340136
 97
        0
 75
     0
 76
     1
 52
0.0
 41
1.0
 77
     0
 78
     2
 53
45.0
 43
0.0
 44
0.0
 45
-6.735192090801865
 46
6.735192090801866
 79
     0
 53
45.0
 43
4.49013
 44
0.0
 45
-6.735192090801865
 46
6.735192090801866
 79
     0
 98
        1
 10
0.0
 20
0.0
  0
HATCH
  5
267
330
1F
100
AcDbEntity
  8
0
  6
Continuous
 62
     7
370
     0
100
AcDbHatch
 10
0.0
 20
0.0
 30
0.0
210
0.0
220
0.0
230
1.0
  2
ANSI32
 70
     0
 71
     0
 91
        1
 92
        0
 93
        4
 72
     1
 10
321.9485871271585
 20
123.685918367347
 11
323.9485871271585
 21
123.685918367347
 72
     1
 10
323.9485871271585
 20
123.685918367347
 11
323.9485871271585
 21
127.585918367347
 72
     1
 10
323.9485871271585
 20
127.585918367347
 11
321.9485871271585
 21
127.585918367347
 72
     1
 10
321.9485871271585
 20
127.585918367347
 11
321.9485871271585
 21
123.685918367347
 97
        0
 75
     0
 76
     1
 52
0.0
 41
1.0
 77
     0
 78
     2
 53
45.0
 43
0.0
 44
0.0
 45
-6.735192090801865
 46
6.735192090801866
 79
     0
 53
45.0
 43
4.49013
 44
0.0
 45
-6.735192090801865
 46
6.735192090801866
 79
     0
 98
        1
 10
0.0
 20
0.0
  0
DIMENSION
  5
268
330
1F
100
AcDbEntity
  8
0
  6
Continuous
 62
     7
370
     0
100
AcDbDimension
  2
*D35
 10
323.9485871272
 20
263.6859183673
 30
0.0
 11
332.8846983207
 21
263.6859183673
 31
0.0
 70
   160
 71
     2
 42
-1.0
  3
SLDDIMSTYLE3
100
AcDbAlignedDimension
 13
321.9485871272
 23
253.6859183673
 33
0.0
 14
323.9485871272
 24
253.6859183673
 34
0.0
100
AcDbRotatedDimension
  0
INSERT
  5
27B
330
1F
100
AcDbEntity
  8
0
  6
Continuous
 62
     7
370
     0
100
AcDbBlockReference
  2
SW_NOTE_3
 10
309.3447666617
 20
103.7435571702
 30
0.0
  0
LINE
  5
27C
330
1F
100
AcDbEntity
  8
0
  6
Continuous
 62
     7
370
    15
100
AcDbLine
 10
104.6058974359
 20
55.7055049712
 30
0.0
 11
104.6058974359
 21
57.2388383046
 31
0.0
  0
LINE
  5
27D
330
1F
100
AcDbEntity
  8
0
  6
Continuous
 62
     7
370
    15
100
AcDbLine
 10
108.9392307692
 20
57.2388383046
 30
0.0
 11
104.6058974359
 21
57.2388383046
 31
0.0
  0
LINE
  5
27E
330
1F
100
AcDbEntity
  8
0
  6
Continuous
 62
     7
370
    15
100
AcDbLine
 10
108.9392307692
 20
57.2388383046
 30
0.0
 11
108.9392307692
 21
55.7055049712
 31
0.0
  0
LINE
  5
27F
330
1F
100
AcDbEntity
  8
0
  6
Continuous
 62
     7
370
    15
100
AcDbLine
 10
63.4392307692
 20
57.2388383046
 30
0.0
 11
63.4392307692
 21
55.2388383046
 31
0.0
  0
LINE
  5
280
330
1F
100
AcDbEntity
  8
0
  6
Continuous
 62
     7
370
    15
100
AcDbLine
 10
193.4392307692
 20
55.2388383046
 30
0.0
 11
193.4392307692
 21
57.2388383046
 31
0.0
  0
LINE
  5
281
330
1F
100
AcDbEntity
  8
0
  6
Continuous
 62
     7
370
    15
100
AcDbLine
 10
121.7725641026
 20
57.2388383046
 30
0.0
 11
121.7725641026
 21
55.2388383046
 31
0.0
  0
LINE
  5
282
330
1F
100
AcDbEntity
  8
0
  6
Continuous
 62
     7
370
    15
100
AcDbLine
 10
135.1058974359
 20
55.2388383046
 30
0.0
 11
135.1058974359
 21
57.2388383046
 31
0.0
  0
LINE
  5
283
330
1F
100
AcDbEntity
  8
0
  6
Continuous
 62
     7
370
    15
100
AcDbLine
 10
121.7725641026
 20
55.2388383046
 30
0.0
 11
135.1058974359
 21
55.2388383046
 31
0.0
  0
LINE
  5
284
330
1F
100
AcDbEntity
  8
0
  6
Continuous
 62
     7
370
    15
100
AcDbLine
 10
121.7725641026
 20
57.2388383046
 30
0.0
 11
135.1058974359
 21
57.2388383046
 31
0.0
  0
LINE
  5
285
330
1F
100
AcDbEntity
  8
0
  6
Continuous
 62
     7
370
    15
100
AcDbLine
 10
69.5392307692
 20
57.2388383046
 30
0.0
 11
69.5392307692
 21
55.2388383046
 31
0.0
  0
LINE
  5
286
330
1F
100
AcDbEntity
  8
0
  6
Continuous
 62
     7
370
    15
100
AcDbLine
 10
67.3392307692
 20
55.2388383046
 30
0.0
 11
69.5392307692
 21
55.2388383046
 31
0.0
  0
LINE
  5
287
330
1F
100
AcDbEntity
  8
0
  6
Continuous
 62
     7
370
    15
100
AcDbLine
 10
67.3392307692
 20
55.2388383046
 30
0.0
 11
67.3392307692
 21
57.2388383046
 31
0.0
  0
LINE
  5
288
330
1F
100
AcDbEntity
  8
0
  6
Continuous
 62
     7
370
    15
100
AcDbLine
 10
67.3392307692
 20
57.2388383046
 30
0.0
 11
69.5392307692
 21
57.2388383046
 31
0.0
  0
LINE
  5
289
330
1F
100
AcDbEntity
  8
0
  6
Continuous
 62
     7
370
    15
100
AcDbLine
 10
189.5392307692
 20
57.2388383046
 30
0.0
 11
189.5392307692
 21
55.2388383046
 31
0.0
  0
LINE
  5
28A
330
1F
100
AcDbEntity
  8
0
  6
Continuous
 62
     7
370
    15
100
AcDbLine
 10
187.3392307692
 20
55.2388383046
 30
0.0
 11
189.5392307692
 21
55.2388383046
 31
0.0
  0
LINE
  5
28B
330
1F
100
AcDbEntity
  8
0
  6
Continuous
 62
     7
370
    15
100
AcDbLine
 10
187.3392307692
 20
55.2388383046
 30
0.0
 11
187.3392307692
 21
57.2388383046
 31
0.0
  0
LINE
  5
28C
330
1F
100
AcDbEntity
  8
0
  6
Continuous
 62
     7
370
    15
100
AcDbLine
 10
187.3392307692
 20
57.2388383046
 30
0.0
 11
189.5392307692
 21
57.2388383046
 31
0.0
  0
LINE
  5
28D
330
1F
100
AcDbEntity
  8
0
  6
Continuous
 62
     7
370
    15
100
AcDbLine
 10
121.7725641026
 20
55.2388383046
 30
0.0
 11
107.8725641026
 21
55.2388383046
 31
0.0
  0
LINE
  5
28E
330
1F
100
AcDbEntity
  8
0
  6
Continuous
 62
     7
370
    15
100
AcDbLine
 10
107.8725641026
 20
55.7055049712
 30
0.0
 11
107.8725641026
 21
55.2388383046
 31
0.0
  0
LINE
  5
28F
330
1F
100
AcDbEntity
  8
0
  6
Continuous
 62
     7
370
    15
100
AcDbLine
 10
108.9392307692
 20
55.7055049712
 30
0.0
 11
107.8725641026
 21
55.7055049712
 31
0.0
  0
LINE
  5
290
330
1F
100
AcDbEntity
  8
0
  6
Continuous
 62
     7
370
    15
100
AcDbLine
 10
121.7725641026
 20
57.2388383046
 30
0.0
 11
108.9392307692
 21
57.2388383046
 31
0.0
  0
LINE
  5
291
330
1F
100
AcDbEntity
  8
0
  6
Continuous
 62
     7
370
    15
100
AcDbLine
 10
193.4392307692
 20
55.2388383046
 30
0.0
 11
189.5392307692
 21
55.2388383046
 31
0.0
  0
LINE
  5
292
330
1F
100
AcDbEntity
  8
0
  6
Continuous
 62
     7
370
    15
100
AcDbLine
 10
193.4392307692
 20
57.2388383046
 30
0.0
 11
189.5392307692
 21
57.2388383046
 31
0.0
  0
LINE
  5
293
330
1F
100
AcDbEntity
  8
0
  6
Continuous
 62
     7
370
    15
100
AcDbLine
 10
67.3392307692
 20
55.2388383046
 30
0.0
 11
63.4392307692
 21
55.2388383046
 31
0.0
  0
LINE
  5
294
330
1F
100
AcDbEntity
  8
0
  6
Continuous
 62
     7
370
    15
100
AcDbLine
 10
67.3392307692
 20
57.2388383046
 30
0.0
 11
63.4392307692
 21
57.2388383046
 31
0.0
  0
LINE
  5
295
330
1F
100
AcDbEntity
  8
0
  6
Continuous
 62
     7
370
    15
100
AcDbLine
 10
105.6725641026
 20
55.7055049712
 30
0.0
 11
104.6058974359
 21
55.7055049712
 31
0.0
  0
LINE
  5
296
330
1F
100
AcDbEntity
  8
0
  6
Continuous
 62
     7
370
    15
100
AcDbLine
 10
105.6725641026
 20
55.2388383046
 30
0.0
 11
105.6725641026
 21
55.7055049712
 31
0.0
  0
LINE
  5
297
330
1F
100
AcDbEntity
  8
0
  6
Continuous
 62
     7
370
    15
100
AcDbLine
 10
105.6725641026
 20
55.2388383046
 30
0.0
 11
69.5392307692
 21
55.2388383046
 31
0.0
  0
LINE
  5
298
330
1F
100
AcDbEntity
  8
0
  6
Continuous
 62
     7
370
    15
100
AcDbLine
 10
104.6058974359
 20
57.2388383046
 30
0.0
 11
69.5392307692
 21
57.2388383046
 31
0.0
  0
LINE
  5
299
330
1F
100
AcDbEntity
  8
0
  6
Continuous
 62
     7
370
    15
100
AcDbLine
 10
179.9392307692
 20
57.2388383046
 30
0.0
 11
179.9392307692
 21
55.2388383046
 31
0.0
  0
LINE
  5
29A
330
1F
100
AcDbEntity
  8
0
  6
Continuous
 62
     7
370
    15
100
AcDbLine
 10
187.3392307692
 20
55.2388383046
 30
0.0
 11
179.9392307692
 21
55.2388383046
 31
0.0
  0
LINE
  5
29B
330
1F
100
AcDbEntity
  8
0
  6
Continuous
 62
     7
370
    15
100
AcDbLine
 10
187.3392307692
 20
57.2388383046
 30
0.0
 11
179.9392307692
 21
57.2388383046
 31
0.0
  0
LINE
  5
29C
330
1F
100
AcDbEntity
  8
0
  6
Continuous
 62
     7
370
    15
100
AcDbLine
 10
147.9392307692
 20
55.7055049712
 30
0.0
 11
147.9392307692
 21
57.2388383046
 31
0.0
  0
LINE
  5
29D
330
1F
100
AcDbEntity
  8
0
  6
Continuous
 62
     7
370
    15
100
AcDbLine
 10
152.2725641026
 20
57.2388383046
 30
0.0
 11
152.2725641026
 21
55.7055049712
 31
0.0
  0
LINE
  5
29E
330
1F
100
AcDbEntity
  8
0
  6
Continuous
 62
     7
370
    15
100
AcDbLine
 10
152.2725641026
 20
57.2388383046
 30
0.0
 11
147.9392307692
 21
57.2388383046
 31
0.0
  0
LINE
  5
29F
330
1F
100
AcDbEntity
  8
0
  6
Continuous
 62
     7
370
    15
100
AcDbLine
 10
170.2725641026
 20
55.2388383046
 30
0.0
 11
179.9392307692
 21
55.2388383046
 31
0.0
  0
LINE
  5
2A0
330
1F
100
AcDbEntity
  8
0
  6
Continuous
 62
     7
370
    15
100
AcDbLine
 10
170.2725641026
 20
55.2388383046
 30
0.0
 11
170.2725641026
 21
57.2388383046
 31
0.0
  0
LINE
  5
2A1
330
1F
100
AcDbEntity
  8
0
  6
Continuous
 62
     7
370
    15
100
AcDbLine
 10
170.2725641026
 20
57.2388383046
 30
0.0
 11
179.9392307692
 21
57.2388383046
 31
0.0
  0
LINE
  5
2A2
330
1F
100
AcDbEntity
  8
0
  6
Continuous
 62
     7
370
    15
100
AcDbLine
 10
149.0058974359
 20
55.7055049712
 30
0.0
 11
147.9392307692
 21
55.7055049712
 31
0.0
  0
LINE
  5
2A3
330
1F
100
AcDbEntity
  8
0
  6
Continuous
 62
     7
370
    15
100
AcDbLine
 10
149.0058974359
 20
55.2388383046
 30
0.0
 11
149.0058974359
 21
55.7055049712
 31
0.0
  0
LINE
  5
2A4
330
1F
100
AcDbEntity
  8
0
  6
Continuous
 62
     7
370
    15
100
AcDbLine
 10
149.0058974359
 20
55.2388383046
 30
0.0
 11
135.1058974359
 21
55.2388383046
 31
0.0
  0
LINE
  5
2A5
330
1F
100
AcDbEntity
  8
0
  6
Continuous
 62
     7
370
    15
100
AcDbLine
 10
147.9392307692
 20
57.2388383046
 30
0.0
 11
135.1058974359
 21
57.2388383046
 31
0.0
  0
LINE
  5
2A6
330
1F
100
AcDbEntity
  8
0
  6
Continuous
 62
     7
370
    15
100
AcDbLine
 10
170.2725641026
 20
55.2388383046
 30
0.0
 11
151.2058974359
 21
55.2388383046
 31
0.0
  0
LINE
  5
2A7
330
1F
100
AcDbEntity
  8
0
  6
Continuous
 62
     7
370
    15
100
AcDbLine
 10
151.2058974359
 20
55.7055049712
 30
0.0
 11
151.2058974359
 21
55.2388383046
 31
0.0
  0
LINE
  5
2A8
330
1F
100
AcDbEntity
  8
0
  6
Continuous
 62
     7
370
    15
100
AcDbLine
 10
152.2725641026
 20
55.7055049712
 30
0.0
 11
151.2058974359
 21
55.7055049712
 31
0.0
  0
LINE
  5
2A9
330
1F
100
AcDbEntity
  8
0
  6
Continuous
 62
     7
370
    15
100
AcDbLine
 10
170.2725641026
 20
57.2388383046
 30
0.0
 11
152.2725641026
 21
57.2388383046
 31
0.0
  0
LINE
  5
2AA
330
1F
100
AcDbEntity
  8
0
  6
Continuous
 62
     7
370
    15
100
AcDbLine
 10
107.8725641026
 20
55.2388383046
 30
0.0
 11
105.6725641026
 21
55.2388383046
 31
0.0
  0
LINE
  5
2AB
330
1F
100
AcDbEntity
  8
0
  6
Continuous
 62
     7
370
    15
100
AcDbLine
 10
107.8725641026
 20
55.7055049712
 30
0.0
 11
105.6725641026
 21
55.7055049712
 31
0.0
  0
LINE
  5
2AC
330
1F
100
AcDbEntity
  8
0
  6
Continuous
 62
     7
370
    15
100
AcDbLine
 10
151.2058974359
 20
55.2388383046
 30
0.0
 11
149.0058974359
 21
55.2388383046
 31
0.0
  0
LINE
  5
2AD
330
1F
100
AcDbEntity
  8
0
  6
Continuous
 62
     7
370
    15
100
AcDbLine
 10
151.2058974359
 20
55.7055049712
 30
0.0
 11
149.0058974359
 21
55.7055049712
 31
0.0
  0
HATCH
  5
2AE
330
1F
100
AcDbEntity
  8
0
  6
Continuous
 62
     7
370
     0
100
AcDbHatch
 10
0.0
 20
0.0
 30
0.0
210
0.0
220
0.0
230
1.0
  2
ANSI32
 70
     0
 71
     0
 91
        1
 92
        0
 93
        4
 72
     1
 10
179.9392307692306
 20
55.23883830455247
 11
187.3392307692307
 21
55.23883830455247
 72
     1
 10
187.3392307692307
 20
55.23883830455247
 11
187.3392307692307
 21
57.23883830455247
 72
     1
 10
187.3392307692307
 20
57.23883830455247
 11
179.9392307692306
 21
57.23883830455247
 72
     1
 10
179.9392307692306
 20
57.23883830455247
 11
179.9392307692306
 21
55.23883830455247
 97
        0
 75
     0
 76
     1
 52
0.0
 41
1.0
 77
     0
 78
     2
 53
45.0
 43
0.0
 44
0.0
 45
-6.735192090801865
 46
6.735192090801866
 79
     0
 53
45.0
 43
4.49013
 44
0.0
 45
-6.735192090801865
 46
6.735192090801866
 79
     0
 98
        1
 10
0.0
 20
0.0
  0
HATCH
  5
2AF
330
1F
100
AcDbEntity
  8
0
  6
Continuous
 62
     7
370
     0
100
AcDbHatch
 10
0.0
 20
0.0
 30
0.0
210
0.0
220
0.0
230
1.0
  2
ANSI32
 70
     0
 71
     0
 91
        1
 92
        0
 93
        6
 72
     1
 10
152.272564102564
 20
55.70550497121914
 11
151.2058974358973
 21
55.70550497121914
 72
     1
 10
151.2058974358973
 20
55.70550497121914
 11
151.2058974358973
 21
55.23883830455247
 72
     1
 10
151.2058974358973
 20
55.23883830455247
 11
170.272564102564
 21
55.23883830455247
 72
     1
 10
170.272564102564
 20
55.23883830455247
 11
170.272564102564
 21
57.23883830455247
 72
     1
 10
170.272564102564
 20
57.23883830455247
 11
152.272564102564
 21
57.23883830455247
 72
     1
 10
152.272564102564
 20
57.23883830455247
 11
152.272564102564
 21
55.70550497121914
 97
        0
 75
     0
 76
     1
 52
0.0
 41
1.0
 77
     0
 78
     2
 53
45.0
 43
0.0
 44
0.0
 45
-6.735192090801865
 46
6.735192090801866
 79
     0
 53
45.0
 43
4.49013
 44
0.0
 45
-6.735192090801865
 46
6.735192090801866
 79
     0
 98
        1
 10
0.0
 20
0.0
  0
HATCH
  5
2B0
330
1F
100
AcDbEntity
  8
0
  6
Continuous
 62
     7
370
     0
100
AcDbHatch
 10
0.0
 20
0.0
 30
0.0
210
0.0
220
0.0
230
1.0
  2
ANSI32
 70
     0
 71
     0
 91
        1
 92
        0
 93
        6
 72
     1
 10
135.1058974358973
 20
57.23883830455247
 11
135.1058974358973
 21
55.23883830455247
 72
     1
 10
135.1058974358973
 20
55.23883830455247
 11
149.0058974358973
 21
55.23883830455247
 72
     1
 10
149.0058974358973
 20
55.23883830455247
 11
149.0058974358973
 21
55.70550497121914
 72
     1
 10
149.0058974358973
 20
55.70550497121914
 11
147.9392307692306
 21
55.70550497121914
 72
     1
 10
147.9392307692306
 20
55.70550497121914
 11
147.9392307692306
 21
57.23883830455247
 72
     1
 10
147.9392307692306
 20
57.23883830455247
 11
135.1058974358973
 21
57.23883830455247
 97
        0
 75
     0
 76
     1
 52
0.0
 41
1.0
 77
     0
 78
     2
 53
45.0
 43
0.0
 44
0.0
 45
-6.735192090801865
 46
6.735192090801866
 79
     0
 53
45.0
 43
4.49013
 44
0.0
 45
-6.735192090801865
 46
6.735192090801866
 79
     0
 98
        1
 10
0.0
 20
0.0
  0
HATCH
  5
2B1
330
1F
100
AcDbEntity
  8
0
  6
Continuous
 62
     7
370
     0
100
AcDbHatch
 10
0.0
 20
0.0
 30
0.0
210
0.0
220
0.0
230
1.0
  2
ANSI32
 70
     0
 71
     0
 91
        1
 92
        0
 93
        6
 72
     1
 10
104.6058974358973
 20
57.23883830455247
 11
69.53923076923064
 21
57.23883830455247
 72
     1
 10
69.53923076923064
 20
57.23883830455247
 11
69.53923076923064
 21
55.23883830455247
 72
     1
 10
69.53923076923064
 20
55.23883830455247
 11
105.672564102564
 21
55.23883830455247
 72
     1
 10
105.672564102564
 20
55.23883830455247
 11
105.672564102564
 21
55.70550497121914
 72
     1
 10
105.672564102564
 20
55.70550497121914
 11
104.6058974358973
 21
55.70550497121914
 72
     1
 10
104.6058974358973
 20
55.70550497121914
 11
104.6058974358973
 21
57.23883830455247
 97
        0
 75
     0
 76
     1
 52
0.0
 41
1.0
 77
     0
 78
     2
 53
45.0
 43
0.0
 44
0.0
 45
-6.735192090801865
 46
6.735192090801866
 79
     0
 53
45.0
 43
4.49013
 44
0.0
 45
-6.735192090801865
 46
6.735192090801866
 79
     0
 98
        1
 10
0.0
 20
0.0
  0
HATCH
  5
2B2
330
1F
100
AcDbEntity
  8
0
  6
Continuous
 62
     7
370
     0
100
AcDbHatch
 10
0.0
 20
0.0
 30
0.0
210
0.0
220
0.0
230
1.0
  2
ANSI32
 70
     0
 71
     0
 91
        1
 92
        0
 93
        6
 72
     1
 10
121.772564102564
 20
55.23883830455247
 11
121.772564102564
 21
57.23883830455247
 72
     1
 10
121.772564102564
 20
57.23883830455247
 11
108.9392307692306
 21
57.23883830455247
 72
     1
 10
108.9392307692306
 20
57.23883830455247
 11
108.9392307692306
 21
55.70550497121914
 72
     1
 10
108.9392307692306
 20
55.70550497121914
 11
107.872564102564
 21
55.70550497121914
 72
     1
 10
107.872564102564
 20
55.70550497121914
 11
107.872564102564
 21
55.23883830455247
 72
     1
 10
107.872564102564
 20
55.23883830455247
 11
121.772564102564
 21
55.23883830455247
 97
        0
 75
     0
 76
     1
 52
0.0
 41
1.0
 77
     0
 78
     2
 53
45.0
 43
0.0
 44
0.0
 45
-6.735192090801865
 46
6.735192090801866
 79
     0
 53
45.0
 43
4.49013
 44
0.0
 45
-6.735192090801865
 46
6.735192090801866
 79
     0
 98
        1
 10
0.0
 20
0.0
  0
HATCH
  5
2B3
330
1F
100
AcDbEntity
  8
0
  6
Continuous
 62
     7
370
     0
100
AcDbHatch
 10
0.0
 20
0.0
 30
0.0
210
0.0
220
0.0
230
1.0
  2
ANSI32
 70
     0
 71
     0
 91
        1
 92
        0
 93
        4
 72
     1
 10
189.5392307692306
 20
55.23883830455247
 11
193.4392307692306
 21
55.23883830455247
 72
     1
 10
193.4392307692306
 20
55.23883830455247
 11
193.4392307692306
 21
57.23883830455247
 72
     1
 10
193.4392307692306
 20
57.23883830455247
 11
189.5392307692306
 21
57.23883830455247
 72
     1
 10
189.5392307692306
 20
57.23883830455247
 11
189.5392307692306
 21
55.23883830455247
 97
        0
 75
     0
 76
     1
 52
0.0
 41
1.0
 77
     0
 78
     2
 53
45.0
 43
0.0
 44
0.0
 45
-6.735192090801865
 46
6.735192090801866
 79
     0
 53
45.0
 43
4.49013
 44
0.0
 45
-6.735192090801865
 46
6.735192090801866
 79
     0
 98
        1
 10
0.0
 20
0.0
  0
HATCH
  5
2B4
330
1F
100
AcDbEntity
  8
0
  6
Continuous
 62
     7
370
     0
100
AcDbHatch
 10
0.0
 20
0.0
 30
0.0
210
0.0
220
0.0
230
1.0
  2
ANSI32
 70
     0
 71
     0
 91
        1
 92
        0
 93
        4
 72
     1
 10
67.33923076923065
 20
57.23883830455247
 11
63.43923076923065
 21
57.23883830455247
 72
     1
 10
63.43923076923065
 20
57.23883830455247
 11
63.43923076923065
 21
55.23883830455247
 72
     1
 10
63.43923076923065
 20
55.23883830455247
 11
67.33923076923065
 21
55.23883830455247
 72
     1
 10
67.33923076923065
 20
55.23883830455247
 11
67.33923076923065
 21
57.23883830455247
 97
        0
 75
     0
 76
     1
 52
0.0
 41
1.0
 77
     0
 78
     2
 53
45.0
 43
0.0
 44
0.0
 45
-6.735192090801865
 46
6.735192090801866
 79
     0
 53
45.0
 43
4.49013
 44
0.0
 45
-6.735192090801865
 46
6.735192090801866
 79
     0
 98
        1
 10
0.0
 20
0.0
  0
DIMENSION
  5
2B5
330
1F
100
AcDbEntity
  8
0
  6
Continuous
 62
     7
370
     0
100
AcDbDimension
  2
*D37
 10
108.9392307692
 20
75.8692132088
 30
0.0
 11
89.2491255811
 21
75.8692132088
 31
0.0
 70
   160
  1
%%c<> (x6)
 71
     2
 42
-1.0
  3
SLDDIMSTYLE3
100
AcDbAlignedDimension
 13
104.6058974359
 23
57.2388383046
 33
0.0
 14
108.9392307692
 24
57.2388383046
 34
0.0
100
AcDbRotatedDimension
  0
DIMENSION
  5
2C3
330
1F
100
AcDbEntity
  8
0
  6
Continuous
 62
     7
370
     0
100
AcDbDimension
  2
*D38
 10
76.654908277
 20
55.7055049712
 30
0.0
 11
76.654908277
 21
79.2388383046
 31
0.0
 70
   160
  1
<> max.  (x6)
 71
     2
 42
-1.0
  3
SLDDIMSTYLE4
100
AcDbAlignedDimension
 13
63.4392307692
 23
57.2388383046
 33
0.0
 14
104.6058974359
 24
55.7055049712
 34
0.0
 50
90.0
100
AcDbRotatedDimension
  0
INSERT
  5
2D5
330
1F
100
AcDbEntity
  8
0
  6
Continuous
 62
     7
370
     0
100
AcDbBlockReference
  2
SW_NOTE_4
 10
115.6083260843
 20
48.7631437741
 30
0.0
  0
ENDSEC
  0
SECTION
  2
OBJECTS
  0
DICTIONARY
  5
C
330
0
100
AcDbDictionary
281
     1
  3
ACAD_GROUP
350
D
  3
ACAD_IMAGE_DICT
350
45
  3
ACAD_LAYOUT
350
1A
  3
ACAD_MLINESTYLE
350
17
  3
ACAD_PLOTSETTINGS
350
19
  3
ACAD_PLOTSTYLENAME
350
E
  0
IMAGEDEF_REACTOR
  5
48
330
47
100
AcDbRasterImageDefReactor
 90
        2
330
47
  0
DICTIONARY
  5
D
102
{ACAD_REACTORS
330
C
102
}
330
C
100
AcDbDictionary
281
     1
  0
DICTIONARY
  5
45
102
{ACAD_REACTORS
330
C
102
}
330
C
100
AcDbDictionary
281
     1
  3
J:\Ingenierie\Projets INNOVANTS\HOWIT\Prototype-2013\Plans\dxf7385.bmp
350
46
  0
DICTIONARY
  5
1A
102
{ACAD_REACTORS
330
C
102
}
330
C
100
AcDbDictionary
281
     1
  3
Layout1
350
1E
  3
Layout2
350
26
  3
Model
350
22
  0
DICTIONARY
  5
17
102
{ACAD_REACTORS
330
C
102
}
330
C
100
AcDbDictionary
281
     1
  3
Standard
350
18
  0
DICTIONARY
  5
19
102
{ACAD_REACTORS
330
C
102
}
330
C
100
AcDbDictionary
281
     1
  0
ACDBDICTIONARYWDFLT
  5
E
102
{ACAD_REACTORS
330
C
102
}
330
C
100
AcDbDictionary
281
     1
  3
Normal
350
F
100
AcDbDictionaryWithDefault
340
F
  0
IMAGEDEF
  5
46
102
{ACAD_REACTORS
330
45
330
48
102
}
330
45
100
AcDbRasterImageDef
 90
        0
  1
J:\Ingenierie\Projets INNOVANTS\HOWIT\Prototype-2013\Plans\dxf7385.bmp
 10
400.0
 20
420.0
 11
0.2645502645502645
 21
0.2645502645502645
280
     1
281
     3
  0
LAYOUT
  5
1E
102
{ACAD_REACTORS
330
1A
102
}
330
1A
100
AcDbPlotSettings
  1

  2
none_device
  4

  6

 40
0.0
 41
0.0
 42
0.0
 43
0.0
 44
0.0
 45
0.0
 46
0.0
 47
0.0
 48
0.0
 49
0.0
140
0.0
141
0.0
142
1.0
143
1.0
 70
   688
 72
     0
 73
     0
 74
     5
  7

 75
    16
147
1.0
148
0.0
149
0.0
100
AcDbLayout
  1
Layout1
 70
     1
 71
     1
 10
0.0
 20
0.0
 11
420.0
 21
297.0
 12
0.0
 22
0.0
 32
0.0
 14
1.0000000000E+20
 24
1.0000000000E+20
 34
1.0000000000E+20
 15
-1.0000000000E+20
 25
-1.0000000000E+20
 35
-1.0000000000E+20
146
0.0
 13
0.0
 23
0.0
 33
0.0
 16
1.0
 26
0.0
 36
0.0
 17
0.0
 27
1.0
 37
0.0
 76
     0
330
1B
  0
LAYOUT
  5
26
102
{ACAD_REACTORS
330
1A
102
}
330
1A
100
AcDbPlotSettings
  1

  2
none_device
  4

  6

 40
0.0
 41
0.0
 42
0.0
 43
0.0
 44
0.0
 45
0.0
 46
0.0
 47
0.0
 48
0.0
 49
0.0
140
0.0
141
0.0
142
1.0
143
1.0
 70
   688
 72
     0
 73
     0
 74
     5
  7

 75
    16
147
1.0
148
0.0
149
0.0
100
AcDbLayout
  1
Layout2
 70
     1
 71
     2
 10
0.0
 20
0.0
 11
0.0
 21
0.0
 12
0.0
 22
0.0
 32
0.0
 14
0.0
 24
0.0
 34
0.0
 15
0.0
 25
0.0
 35
0.0
146
0.0
 13
0.0
 23
0.0
 33
0.0
 16
1.0
 26
0.0
 36
0.0
 17
0.0
 27
1.0
 37
0.0
 76
     0
330
23
  0
LAYOUT
  5
22
102
{ACAD_REACTORS
330
1A
102
}
330
1A
100
AcDbPlotSettings
  1

  2
none_device
  4

  6

 40
0.0
 41
0.0
 42
0.0
 43
0.0
 44
0.0
 45
0.0
 46
0.0
 47
0.0
 48
0.0
 49
0.0
140
0.0
141
0.0
142
1.0
143
1.0
 70
  1712
 72
     0
 73
     0
 74
     0
  7

 75
     0
147
1.0
148
0.0
149
0.0
100
AcDbLayout
  1
Model
 70
     1
 71
     0
 10
0.0
 20
0.0
 11
420.0
 21
297.0
 12
0.0
 22
0.0
 32
0.0
 14
0.0
 24
0.0
 34
0.0
 15
420.0
 25
297.0
 35
0.0
146
0.0
 13
0.0
 23
0.0
 33
0.0
 16
1.0
 26
0.0
 36
0.0
 17
0.0
 27
1.0
 37
0.0
 76
     0
330
1F
331
29
  0
MLINESTYLE
  5
18
102
{ACAD_REACTORS
330
17
102
}
330
17
100
AcDbMlineStyle
  2
Standard
 70
     0
  3

 62
   256
 51
90.0
 52
90.0
 71
     2
 49
0.5
 62
   256
  6
BYLAYER
 49
-0.5
 62
   256
  6
BYLAYER
  0
ACDBPLACEHOLDER
  5
F
102
{ACAD_REACTORS
330
E
102
}
330
E
  0
ENDSEC
  0
EOF
