  0
SECTION
  2
HEADER
  9
$ACADVER
  1
AC1015
  9
$ACADMAINTVER
 70
     6
  9
$DWGCODEPAGE
  3
ANSI_1252
  9
$INSBASE
 10
0.0
 20
0.0
 30
0.0
  9
$EXTMIN
 10
0.0
 20
0.0
 30
0.0
  9
$EXTMAX
 10
420.0
 20
297.0
 30
0.0
  9
$LIMMIN
 10
0.0
 20
0.0
  9
$LIMMAX
 10
420.0
 20
297.0
  9
$ORTHOMODE
 70
     0
  9
$REGENMODE
 70
     1
  9
$FILLMODE
 70
     1
  9
$QTEXTMODE
 70
     0
  9
$MIRRTEXT
 70
     1
  9
$LTSCALE
 40
1.0
  9
$ATTMODE
 70
     1
  9
$TEXTSIZE
 40
3.5
  9
$TRACEWID
 40
1.0
  9
$TEXTSTYLE
  7
Standard
  9
$CLAYER
  8
0
  9
$CELTYPE
  6
ByLayer
  9
$CECOLOR
 62
   256
  9
$CELTSCALE
 40
1.0
  9
$DISPSILH
 70
     0
  9
$DIMSCALE
 40
1.0
  9
$DIMASZ
 40
3.302
  9
$DIMEXO
 40
1.0
  9
$DIMDLI
 40
3.75
  9
$DIMRND
 40
0.0
  9
$DIMDLE
 40
0.0
  9
$DIMEXE
 40
1.0
  9
$DIMTP
 40
0.0
  9
$DIMTM
 40
0.0
  9
$DIMTXT
 40
3.5
  9
$DIMCEN
 40
2.5
  9
$DIMTSZ
 40
0.0
  9
$DIMTOL
 70
     0
  9
$DIMLIM
 70
     0
  9
$DIMTIH
 70
     1
  9
$DIMTOH
 70
     1
  9
$DIMSE1
 70
     0
  9
$DIMSE2
 70
     0
  9
$DIMTAD
 70
     1
  9
$DIMZIN
 70
     0
  9
$DIMBLK
  1

  9
$DIMASO
 70
     1
  9
$DIMSHO
 70
     1
  9
$DIMPOST
  1

  9
$DIMAPOST
  1

  9
$DIMALT
 70
     0
  9
$DIMALTD
 70
     3
  9
$DIMALTF
 40
0.0393700787
  9
$DIMLFAC
 40
1.0
  9
$DIMTOFL
 70
     1
  9
$DIMTVP
 40
0.0
  9
$DIMTIX
 70
     0
  9
$DIMSOXD
 70
     0
  9
$DIMSAH
 70
     0
  9
$DIMBLK1
  1

  9
$DIMBLK2
  1

  9
$DIMSTYLE
  2
ISO-25
  9
$DIMCLRD
 70
     0
  9
$DIMCLRE
 70
     0
  9
$DIMCLRT
 70
     0
  9
$DIMTFAC
 40
1.0
  9
$DIMGAP
 40
1.524
  9
$DIMJUST
 70
     0
  9
$DIMSD1
 70
     0
  9
$DIMSD2
 70
     0
  9
$DIMTOLJ
 70
     0
  9
$DIMTZIN
 70
     0
  9
$DIMALTZ
 70
     0
  9
$DIMALTTZ
 70
     0
  9
$DIMUPT
 70
     0
  9
$DIMDEC
 70
     3
  9
$DIMTDEC
 70
     3
  9
$DIMALTU
 70
     2
  9
$DIMALTTD
 70
     3
  9
$DIMTXSTY
  7
Standard
  9
$DIMAUNIT
 70
     0
  9
$DIMADEC
 70
     2
  9
$DIMALTRND
 40
0.0
  9
$DIMAZIN
 70
     0
  9
$DIMDSEP
 70
    44
  9
$DIMATFIT
 70
     3
  9
$DIMFRAC
 70
     0
  9
$DIMLDRBLK
  1

  9
$DIMLUNIT
 70
     2
  9
$DIMLWD
 70
    -2
  9
$DIMLWE
 70
    -2
  9
$DIMTMOVE
 70
     0
  9
$LUNITS
 70
     2
  9
$LUPREC
 70
     2
  9
$SKETCHINC
 40
1.0
  9
$FILLETRAD
 40
10.0
  9
$AUNITS
 70
     0
  9
$AUPREC
 70
     2
  9
$MENU
  1
.
  9
$ELEVATION
 40
0.0
  9
$PELEVATION
 40
0.0
  9
$THICKNESS
 40
0.0
  9
$LIMCHECK
 70
     0
  9
$CHAMFERA
 40
10.0
  9
$CHAMFERB
 40
10.0
  9
$CHAMFERC
 40
20.0
  9
$CHAMFERD
 40
0.0
  9
$SKPOLY
 70
     0
  9
$TDCREATE
 40
2456790.290191238
  9
$TDUCREATE
 40
2456790.248524572
  9
$TDUPDATE
 40
2456790.29019125
  9
$TDUUPDATE
 40
2456790.248524583
  9
$TDINDWG
 40
0.0000000116
  9
$TDUSRTIMER
 40
0.0000000116
  9
$USRTIMER
 70
     1
  9
$ANGBASE
 50
0.0
  9
$ANGDIR
 70
     0
  9
$PDMODE
 70
     0
  9
$PDSIZE
 40
-1.0
  9
$PLINEWID
 40
0.0
  9
$SPLFRAME
 70
     0
  9
$SPLINETYPE
 70
     6
  9
$SPLINESEGS
 70
     8
  9
$HANDSEED
  5
2CD
  9
$SURFTAB1
 70
     6
  9
$SURFTAB2
 70
     6
  9
$SURFTYPE
 70
     6
  9
$SURFU
 70
     6
  9
$SURFV
 70
     6
  9
$UCSBASE
  2

  9
$UCSNAME
  2

  9
$UCSORG
 10
0.0
 20
0.0
 30
0.0
  9
$UCSXDIR
 10
1.0
 20
0.0
 30
0.0
  9
$UCSYDIR
 10
0.0
 20
1.0
 30
0.0
  9
$UCSORTHOREF
  2

  9
$UCSORTHOVIEW
 70
     0
  9
$UCSORGTOP
 10
0.0
 20
0.0
 30
0.0
  9
$UCSORGBOTTOM
 10
0.0
 20
0.0
 30
0.0
  9
$UCSORGLEFT
 10
0.0
 20
0.0
 30
0.0
  9
$UCSORGRIGHT
 10
0.0
 20
0.0
 30
0.0
  9
$UCSORGFRONT
 10
0.0
 20
0.0
 30
0.0
  9
$UCSORGBACK
 10
0.0
 20
0.0
 30
0.0
  9
$PUCSBASE
  2

  9
$PUCSNAME
  2

  9
$PUCSORG
 10
0.0
 20
0.0
 30
0.0
  9
$PUCSXDIR
 10
1.0
 20
0.0
 30
0.0
  9
$PUCSYDIR
 10
0.0
 20
1.0
 30
0.0
  9
$PUCSORTHOREF
  2

  9
$PUCSORTHOVIEW
 70
     0
  9
$PUCSORGTOP
 10
0.0
 20
0.0
 30
0.0
  9
$PUCSORGBOTTOM
 10
0.0
 20
0.0
 30
0.0
  9
$PUCSORGLEFT
 10
0.0
 20
0.0
 30
0.0
  9
$PUCSORGRIGHT
 10
0.0
 20
0.0
 30
0.0
  9
$PUCSORGFRONT
 10
0.0
 20
0.0
 30
0.0
  9
$PUCSORGBACK
 10
0.0
 20
0.0
 30
0.0
  9
$USERI1
 70
     0
  9
$USERI2
 70
     0
  9
$USERI3
 70
     0
  9
$USERI4
 70
     0
  9
$USERI5
 70
     0
  9
$USERR1
 40
0.0
  9
$USERR2
 40
0.0
  9
$USERR3
 40
0.0
  9
$USERR4
 40
0.0
  9
$USERR5
 40
0.0
  9
$WORLDVIEW
 70
     1
  9
$SHADEDGE
 70
     3
  9
$SHADEDIF
 70
    70
  9
$TILEMODE
 70
     1
  9
$MAXACTVP
 70
    64
  9
$PINSBASE
 10
0.0
 20
0.0
 30
0.0
  9
$PLIMCHECK
 70
     0
  9
$PEXTMIN
 10
1.0000000000E+20
 20
1.0000000000E+20
 30
1.0000000000E+20
  9
$PEXTMAX
 10
-1.0000000000E+20
 20
-1.0000000000E+20
 30
-1.0000000000E+20
  9
$PLIMMIN
 10
0.0
 20
0.0
  9
$PLIMMAX
 10
420.0
 20
297.0
  9
$UNITMODE
 70
     0
  9
$VISRETAIN
 70
     1
  9
$PLINEGEN
 70
     0
  9
$PSLTSCALE
 70
     1
  9
$TREEDEPTH
 70
  3020
  9
$CMLSTYLE
  2
Standard
  9
$CMLJUST
 70
     0
  9
$CMLSCALE
 40
20.0
  9
$PROXYGRAPHICS
 70
     1
  9
$MEASUREMENT
 70
     1
  9
$CELWEIGHT
370
    -1
  9
$ENDCAPS
280
     0
  9
$JOINSTYLE
280
     0
  9
$LWDISPLAY
290
     1
  9
$INSUNITS
 70
     4
  9
$HYPERLINKBASE
  1

  9
$STYLESHEET
  1

  9
$XEDIT
290
     1
  9
$CEPSNTYPE
380
     0
  9
$PSTYLEMODE
290
     1
  9
$FINGERPRINTGUID
  2
{1AE7011A-3CD2-42F7-844E-4B62B31E1609}
  9
$VERSIONGUID
  2
{FAEB1C32-E019-11D5-929B-00C0DF256EC4}
  9
$EXTNAMES
290
     1
  9
$PSVPSCALE
 40
0.0
  9
$OLESTARTUP
290
     0
  0
ENDSEC
  0
SECTION
  2
CLASSES
  0
CLASS
  1
ACDBDICTIONARYWDFLT
  2
AcDbDictionaryWithDefault
  3
ObjectDBX Classes
 90
        0
280
     0
281
     0
  0
CLASS
  1
VISUALSTYLE
  2
AcDbVisualStyle
  3
ObjectDBX Classes
 90
     4095
280
     0
281
     0
  0
CLASS
  1
MATERIAL
  2
AcDbMaterial
  3
ObjectDBX Classes
 90
     1153
280
     0
281
     0
  0
CLASS
  1
IMAGEDEF
  2
AcDbRasterImageDef
  3
ISM
 90
        0
280
     0
281
     0
  0
CLASS
  1
IMAGE
  2
AcDbRasterImage
  3
ISM
 90
      127
280
     0
281
     1
  0
CLASS
  1
IMAGEDEF_REACTOR
  2
AcDbRasterImageDefReactor
  3
ISM
 90
        1
280
     0
281
     0
  0
CLASS
  1
ACDBPLACEHOLDER
  2
AcDbPlaceHolder
  3
ObjectDBX Classes
 90
        0
280
     0
281
     0
  0
CLASS
  1
LAYOUT
  2
AcDbLayout
  3
ObjectDBX Classes
 90
        0
280
     0
281
     0
  0
ENDSEC
  0
SECTION
  2
TABLES
  0
TABLE
  2
VPORT
  5
8
330
0
100
AcDbSymbolTable
 70
     1
  0
VPORT
  5
29
330
8
100
AcDbSymbolTableRecord
100
AcDbViewportTableRecord
  2
*Active
 70
     0
 10
0.0
 20
0.0
 11
1.0
 21
1.0
 12
210.0
 22
148.5
 13
0.0
 23
0.0
 14
10.0
 24
10.0
 15
10.0
 25
10.0
 16
0.0
 26
0.0
 36
1.0
 17
0.0
 27
0.0
 37
0.0
 40
297.0
 41
1.4141414141
 42
50.0
 43
0.0
 44
0.0
 50
0.0
 51
0.0
 71
     0
 72
  2000
 73
     1
 74
     3
 75
     0
 76
     0
 77
     0
 78
     0
281
     0
 65
     1
110
0.0
120
0.0
130
0.0
111
1.0
121
0.0
131
0.0
112
0.0
122
1.0
132
0.0
 79
     0
146
0.0
  0
ENDTAB
  0
TABLE
  2
LTYPE
  5
5
330
0
100
AcDbSymbolTable
 70
     6
  0
LTYPE
  5
14
330
5
100
AcDbSymbolTableRecord
100
AcDbLinetypeTableRecord
  2
ByBlock
 70
     0
  3

 72
    65
 73
     0
 40
0.0
  0
LTYPE
  5
15
330
5
100
AcDbSymbolTableRecord
100
AcDbLinetypeTableRecord
  2
ByLayer
 70
     0
  3

 72
    65
 73
     0
 40
0.0
  0
LTYPE
  5
16
330
5
100
AcDbSymbolTableRecord
100
AcDbLinetypeTableRecord
  2
Continuous
 70
     0
  3
Solid line
 72
    65
 73
     0
 40
0.0
  0
LTYPE
  5
3F
330
5
100
AcDbSymbolTableRecord
100
AcDbLinetypeTableRecord
  2
HIDDEN
 70
     0
  3
Hidden __ __ __ __ __ __ __ __ __ __ __ __ __ __
 72
    65
 73
     2
 40
1.905
 49
1.27
 74
     0
 49
-0.635
 74
     0
  0
LTYPE
  5
40
330
5
100
AcDbSymbolTableRecord
100
AcDbLinetypeTableRecord
  2
PHANTOM
 70
     0
  3
Phantom ______  __  __  ______  __  __  ______
 72
    65
 73
     6
 40
12.7
 49
6.35
 74
     0
 49
-1.27
 74
     0
 49
1.27
 74
     0
 49
-1.27
 74
     0
 49
1.27
 74
     0
 49
-1.27
 74
     0
  0
LTYPE
  5
41
330
5
100
AcDbSymbolTableRecord
100
AcDbLinetypeTableRecord
  2
CENTER
 70
     0
  3
Center ____ _ ____ _ ____ _ ____ _ ____ _ ____
 72
    65
 73
     4
 40
10.16
 49
6.35
 74
     0
 49
-1.27
 74
     0
 49
1.27
 74
     0
 49
-1.27
 74
     0
  0
LTYPE
  5
42
330
5
100
AcDbSymbolTableRecord
100
AcDbLinetypeTableRecord
  2
CENTERX2
 70
     0
  3
Center (2x) ________  __  ________  __  _____
 72
    65
 73
     4
 40
20.32
 49
12.7
 74
     0
 49
-2.54
 74
     0
 49
2.54
 74
     0
 49
-2.54
 74
     0
  0
LTYPE
  5
43
330
5
100
AcDbSymbolTableRecord
100
AcDbLinetypeTableRecord
  2
DOT2
 70
     0
  3
Dot (.5x) ........................................
 72
    65
 73
     2
 40
0.635
 49
0.0
 74
     0
 49
-0.635
 74
     0
  0
ENDTAB
  0
TABLE
  2
LAYER
  5
2
330
0
100
AcDbSymbolTable
 70
     2
  0
LAYER
  5
10
330
2
100
AcDbSymbolTableRecord
100
AcDbLayerTableRecord
  2
0
 70
     0
 62
     7
  6
Continuous
370
    -3
390
F
  0
LAYER
  5
44
330
2
100
AcDbSymbolTableRecord
100
AcDbLayerTableRecord
  2
FORMAT
 70
     0
 62
     7
  6
Continuous
370
    -3
390
F
  0
ENDTAB
  0
TABLE
  2
STYLE
  5
3
330
0
100
AcDbSymbolTable
 70
     5
  0
STYLE
  5
11
330
3
100
AcDbSymbolTableRecord
100
AcDbTextStyleTableRecord
  2
Standard
 70
     0
 40
0.0
 41
1.0
 50
0.0
 71
     0
 42
2.5
  3
txt
  4

  0
STYLE
  5
6D
330
3
100
AcDbSymbolTableRecord
100
AcDbTextStyleTableRecord
  2
SLDTEXTSTYLE0
 70
     0
 40
0.0
 41
0.75
 50
0.0
 71
     0
 42
0.2
  3
TXT
  4

  0
STYLE
  5
79
330
3
100
AcDbSymbolTableRecord
100
AcDbTextStyleTableRecord
  2
SLDTEXTSTYLE1
 70
     0
 40
0.0
 41
0.7
 50
0.0
 71
     0
 42
0.2
  3
TXT
  4

  0
STYLE
  5
96
330
3
100
AcDbSymbolTableRecord
100
AcDbTextStyleTableRecord
  2
SLDTEXTSTYLE2
 70
     0
 40
0.0
 41
0.6875
 50
0.0
 71
     0
 42
0.2
  3
TXT
  4

  0
STYLE
  5
26C
330
3
100
AcDbSymbolTableRecord
100
AcDbTextStyleTableRecord
  2
SLDTEXTSTYLE3
 70
     0
 40
0.0
 41
1.0
 50
0.0
 71
     0
 42
0.2
  3
TXT
  4

  0
ENDTAB
  0
TABLE
  2
VIEW
  5
6
330
0
100
AcDbSymbolTable
 70
     0
  0
ENDTAB
  0
TABLE
  2
UCS
  5
7
330
0
100
AcDbSymbolTable
 70
     0
  0
ENDTAB
  0
TABLE
  2
APPID
  5
9
330
0
100
AcDbSymbolTable
 70
     1
  0
APPID
  5
12
330
9
100
AcDbSymbolTableRecord
100
AcDbRegAppTableRecord
  2
ACAD
 70
     0
  0
ENDTAB
  0
TABLE
  2
DIMSTYLE
  5
A
330
0
100
AcDbSymbolTable
 70
     7
100
AcDbDimStyleTable
  0
DIMSTYLE
105
27
330
A
100
AcDbSymbolTableRecord
100
AcDbDimStyleTableRecord
  2
ISO-25
 70
     0
 41
2.5
 42
0.625
 43
3.75
 44
1.25
 73
     0
 74
     0
 77
     1
 78
     8
140
2.5
141
2.5
143
0.0393700787
147
0.625
171
     3
172
     1
178
     0
271
     2
272
     2
274
     3
278
    44
283
     0
284
     8
340
11
  0
DIMSTYLE
105
C0
102
{ACAD_REACTORS
330
BF
330
CC
330
F2
330
FE
330
10A
330
256
102
}
330
A
100
AcDbSymbolTableRecord
100
AcDbDimStyleTableRecord
  2
SLDDIMSTYLE0
 70
     0
 41
3.302
 44
0.0
 45
0.000000001
 73
     0
 74
     0
 77
     1
 78
    12
 79
     3
140
3.5
147
0.875
172
     1
173
     1
178
     0
271
     2
272
     2
276
     2
284
    12
289
     0
340
6D
  0
DIMSTYLE
105
DA
102
{ACAD_REACTORS
330
D9
102
}
330
A
100
AcDbSymbolTableRecord
100
AcDbDimStyleTableRecord
  2
SLDDIMSTYLE1
 70
     0
 41
3.302
 44
0.0
 45
0.000000001
 73
     0
 74
     0
 77
     1
 78
    12
 79
     3
140
3.5
141
0.0
147
0.875
172
     1
173
     1
178
     0
271
     2
272
     2
276
     2
284
    12
340
6D
341
DB
343
DB
  0
DIMSTYLE
105
E8
102
{ACAD_REACTORS
330
E7
330
116
330
262
102
}
330
A
100
AcDbSymbolTableRecord
100
AcDbDimStyleTableRecord
  2
SLDDIMSTYLE2
 70
     0
 41
3.302
 44
0.0
 45
0.000000001
 73
     0
 74
     0
 77
     1
 78
    12
 79
     3
140
3.5
147
0.875
173
     1
178
     0
271
     2
272
     2
276
     2
284
    12
340
6D
  0
DIMSTYLE
105
23A
102
{ACAD_REACTORS
330
239
330
24D
102
}
330
A
100
AcDbSymbolTableRecord
100
AcDbDimStyleTableRecord
  2
SLDDIMSTYLE3
 70
     0
 41
3.302
 44
0.0
 45
0.000000001
 73
     0
 74
     0
 77
     1
 78
    12
 79
     3
140
3.5
141
0.0
147
0.875
172
     1
173
     1
178
     0
271
     2
272
     2
276
     2
284
    12
340
6D
341
DB
343
DB
  0
DIMSTYLE
105
244
102
{ACAD_REACTORS
330
243
102
}
330
A
100
AcDbSymbolTableRecord
100
AcDbDimStyleTableRecord
  2
SLDDIMSTYLE4
 70
     0
 41
3.302
 44
0.0
 45
0.000000001
 73
     0
 74
     0
 77
     1
 78
    12
 79
     3
140
3.5
141
0.0
147
0.875
172
     1
173
     1
178
     0
271
     2
272
     2
276
     2
284
    12
340
6D
341
DB
343
DB
  0
DIMSTYLE
105
26D
102
{ACAD_REACTORS
330
26E
102
}
330
A
100
AcDbSymbolTableRecord
100
AcDbDimStyleTableRecord
  2
SLDDIMSTYLE5
 70
     0
 41
0.0
 44
0.0
 45
0.000000001
140
3.5
147
0.875
173
     1
178
     0
271
     0
272
     0
276
     2
340
26C
341
DB
343
DB
344
DB
  0
ENDTAB
  0
TABLE
  2
BLOCK_RECORD
  5
1
330
0
100
AcDbSymbolTable
 70
    44
  0
BLOCK_RECORD
  5
1F
330
1
100
AcDbSymbolTableRecord
100
AcDbBlockTableRecord
  2
*Model_Space
340
22
  0
BLOCK_RECORD
  5
1B
330
1
100
AcDbSymbolTableRecord
100
AcDbBlockTableRecord
  2
*Paper_Space
340
1E
  0
BLOCK_RECORD
  5
23
330
1
100
AcDbSymbolTableRecord
100
AcDbBlockTableRecord
  2
*Paper_Space0
340
26
  0
BLOCK_RECORD
  5
6A
330
1
100
AcDbSymbolTableRecord
100
AcDbBlockTableRecord
  2
SW_NOTE_0
340
0
102
{BLKREFS
331
70
102
}
  0
BLOCK_RECORD
  5
84
330
1
100
AcDbSymbolTableRecord
100
AcDbBlockTableRecord
  2
SW_NOTE_1
340
0
102
{BLKREFS
331
89
102
}
  0
BLOCK_RECORD
  5
90
330
1
100
AcDbSymbolTableRecord
100
AcDbBlockTableRecord
  2
SW_NOTE_2
340
0
102
{BLKREFS
331
9A
102
}
  0
BLOCK_RECORD
  5
C1
330
1
100
AcDbSymbolTableRecord
100
AcDbBlockTableRecord
  2
*D4
340
0
  0
BLOCK_RECORD
  5
CD
330
1
100
AcDbSymbolTableRecord
100
AcDbBlockTableRecord
  2
*D5
340
0
  0
BLOCK_RECORD
  5
DB
330
1
100
AcDbSymbolTableRecord
100
AcDbBlockTableRecord
  2
_NONE
340
0
  0
BLOCK_RECORD
  5
DE
330
1
100
AcDbSymbolTableRecord
100
AcDbBlockTableRecord
  2
*D7
340
0
  0
BLOCK_RECORD
  5
E9
330
1
100
AcDbSymbolTableRecord
100
AcDbBlockTableRecord
  2
*D8
340
0
  0
BLOCK_RECORD
  5
F3
330
1
100
AcDbSymbolTableRecord
100
AcDbBlockTableRecord
  2
*D9
340
0
  0
BLOCK_RECORD
  5
FF
330
1
100
AcDbSymbolTableRecord
100
AcDbBlockTableRecord
  2
*D10
340
0
  0
BLOCK_RECORD
  5
10B
330
1
100
AcDbSymbolTableRecord
100
AcDbBlockTableRecord
  2
*D11
340
0
  0
BLOCK_RECORD
  5
117
330
1
100
AcDbSymbolTableRecord
100
AcDbBlockTableRecord
  2
*D12
340
0
  0
BLOCK_RECORD
  5
120
330
1
100
AcDbSymbolTableRecord
100
AcDbBlockTableRecord
  2
SW_CENTERMARKSYMBOL_0
340
0
102
{BLKREFS
331
12B
102
}
  0
BLOCK_RECORD
  5
12C
330
1
100
AcDbSymbolTableRecord
100
AcDbBlockTableRecord
  2
SW_CENTERMARKSYMBOL_1
340
0
102
{BLKREFS
331
137
102
}
  0
BLOCK_RECORD
  5
138
330
1
100
AcDbSymbolTableRecord
100
AcDbBlockTableRecord
  2
SW_CENTERMARKSYMBOL_2
340
0
102
{BLKREFS
331
143
102
}
  0
BLOCK_RECORD
  5
144
330
1
100
AcDbSymbolTableRecord
100
AcDbBlockTableRecord
  2
SW_CENTERMARKSYMBOL_3
340
0
102
{BLKREFS
331
14F
102
}
  0
BLOCK_RECORD
  5
150
330
1
100
AcDbSymbolTableRecord
100
AcDbBlockTableRecord
  2
SW_CENTERMARKSYMBOL_4
340
0
102
{BLKREFS
331
15B
102
}
  0
BLOCK_RECORD
  5
15C
330
1
100
AcDbSymbolTableRecord
100
AcDbBlockTableRecord
  2
SW_CENTERMARKSYMBOL_5
340
0
102
{BLKREFS
331
167
102
}
  0
BLOCK_RECORD
  5
168
330
1
100
AcDbSymbolTableRecord
100
AcDbBlockTableRecord
  2
SW_CENTERMARKSYMBOL_6
340
0
102
{BLKREFS
331
173
102
}
  0
BLOCK_RECORD
  5
174
330
1
100
AcDbSymbolTableRecord
100
AcDbBlockTableRecord
  2
SW_CENTERMARKSYMBOL_7
340
0
102
{BLKREFS
331
17F
102
}
  0
BLOCK_RECORD
  5
180
330
1
100
AcDbSymbolTableRecord
100
AcDbBlockTableRecord
  2
SW_CENTERMARKSYMBOL_8
340
0
102
{BLKREFS
331
18B
102
}
  0
BLOCK_RECORD
  5
18C
330
1
100
AcDbSymbolTableRecord
100
AcDbBlockTableRecord
  2
SW_CENTERMARKSYMBOL_9
340
0
102
{BLKREFS
331
197
102
}
  0
BLOCK_RECORD
  5
198
330
1
100
AcDbSymbolTableRecord
100
AcDbBlockTableRecord
  2
SW_CENTERMARKSYMBOL_10
340
0
102
{BLKREFS
331
1A3
102
}
  0
BLOCK_RECORD
  5
1A4
330
1
100
AcDbSymbolTableRecord
100
AcDbBlockTableRecord
  2
SW_CENTERMARKSYMBOL_11
340
0
102
{BLKREFS
331
1AF
102
}
  0
BLOCK_RECORD
  5
1B0
330
1
100
AcDbSymbolTableRecord
100
AcDbBlockTableRecord
  2
SW_CENTERMARKSYMBOL_12
340
0
102
{BLKREFS
331
1BB
102
}
  0
BLOCK_RECORD
  5
1BC
330
1
100
AcDbSymbolTableRecord
100
AcDbBlockTableRecord
  2
SW_CENTERMARKSYMBOL_13
340
0
102
{BLKREFS
331
1C7
102
}
  0
BLOCK_RECORD
  5
1C8
330
1
100
AcDbSymbolTableRecord
100
AcDbBlockTableRecord
  2
SW_CENTERMARKSYMBOL_14
340
0
102
{BLKREFS
331
1D3
102
}
  0
BLOCK_RECORD
  5
1D4
330
1
100
AcDbSymbolTableRecord
100
AcDbBlockTableRecord
  2
SW_CENTERMARKSYMBOL_15
340
0
102
{BLKREFS
331
1DF
102
}
  0
BLOCK_RECORD
  5
1E0
330
1
100
AcDbSymbolTableRecord
100
AcDbBlockTableRecord
  2
SW_CENTERMARKSYMBOL_16
340
0
102
{BLKREFS
331
1EB
102
}
  0
BLOCK_RECORD
  5
1EC
330
1
100
AcDbSymbolTableRecord
100
AcDbBlockTableRecord
  2
SW_CENTERMARKSYMBOL_17
340
0
102
{BLKREFS
331
1F7
102
}
  0
BLOCK_RECORD
  5
1F8
330
1
100
AcDbSymbolTableRecord
100
AcDbBlockTableRecord
  2
SW_CENTERMARKSYMBOL_18
340
0
102
{BLKREFS
331
203
102
}
  0
BLOCK_RECORD
  5
204
330
1
100
AcDbSymbolTableRecord
100
AcDbBlockTableRecord
  2
SW_CENTERMARKSYMBOL_19
340
0
102
{BLKREFS
331
20F
102
}
  0
BLOCK_RECORD
  5
210
330
1
100
AcDbSymbolTableRecord
100
AcDbBlockTableRecord
  2
SW_CENTERMARKSYMBOL_20
340
0
102
{BLKREFS
331
21B
102
}
  0
BLOCK_RECORD
  5
21C
330
1
100
AcDbSymbolTableRecord
100
AcDbBlockTableRecord
  2
SW_CENTERMARKSYMBOL_21
340
0
102
{BLKREFS
331
227
102
}
  0
BLOCK_RECORD
  5
228
330
1
100
AcDbSymbolTableRecord
100
AcDbBlockTableRecord
  2
SW_DATUMTAG_0
340
0
102
{BLKREFS
331
233
102
}
  0
BLOCK_RECORD
  5
23B
330
1
100
AcDbSymbolTableRecord
100
AcDbBlockTableRecord
  2
*D36
340
0
  0
BLOCK_RECORD
  5
245
330
1
100
AcDbSymbolTableRecord
100
AcDbBlockTableRecord
  2
*D37
340
0
  0
BLOCK_RECORD
  5
24E
330
1
100
AcDbSymbolTableRecord
100
AcDbBlockTableRecord
  2
*D38
340
0
  0
BLOCK_RECORD
  5
257
330
1
100
AcDbSymbolTableRecord
100
AcDbBlockTableRecord
  2
*D39
340
0
  0
BLOCK_RECORD
  5
263
330
1
100
AcDbSymbolTableRecord
100
AcDbBlockTableRecord
  2
*D40
340
0
  0
BLOCK_RECORD
  5
26F
330
1
100
AcDbSymbolTableRecord
100
AcDbBlockTableRecord
  2
SW_CENTERMARKSYMBOL_22
340
0
102
{BLKREFS
331
27A
102
}
  0
BLOCK_RECORD
  5
27B
330
1
100
AcDbSymbolTableRecord
100
AcDbBlockTableRecord
  2
SW_DATUMTAG_1
340
0
102
{BLKREFS
331
286
102
}
  0
BLOCK_RECORD
  5
287
330
1
100
AcDbSymbolTableRecord
100
AcDbBlockTableRecord
  2
SW_DATUMTAG_2
340
0
102
{BLKREFS
331
292
102
}
  0
ENDTAB
  0
ENDSEC
  0
SECTION
  2
BLOCKS
  0
BLOCK
  5
20
330
1F
100
AcDbEntity
  8
0
100
AcDbBlockBegin
  2
*Model_Space
 70
     0
 10
0.0
 20
0.0
 30
0.0
  3
*Model_Space
  1

  0
ENDBLK
  5
21
330
1F
100
AcDbEntity
  8
0
100
AcDbBlockEnd
  0
BLOCK
  5
1C
330
1B
100
AcDbEntity
 67
     1
  8
0
100
AcDbBlockBegin
  2
*Paper_Space
 70
     0
 10
0.0
 20
0.0
 30
0.0
  3
*Paper_Space
  1

  0
ENDBLK
  5
1D
330
1B
100
AcDbEntity
 67
     1
  8
0
100
AcDbBlockEnd
  0
BLOCK
  5
24
330
23
100
AcDbEntity
  8
0
100
AcDbBlockBegin
  2
*Paper_Space0
 70
     0
 10
0.0
 20
0.0
 30
0.0
  3
*Paper_Space0
  1

  0
ENDBLK
  5
25
330
23
100
AcDbEntity
  8
0
100
AcDbBlockEnd
  0
BLOCK
  5
6B
330
6A
100
AcDbEntity
  8
0
100
AcDbBlockBegin
  2
SW_NOTE_0
 70
     0
 10
0.0
 20
0.0
 30
0.0
  3
SW_NOTE_0
  1

  0
MTEXT
  5
6E
330
6A
100
AcDbEntity
  8
0
  6
Continuous
 62
     0
370
     0
100
AcDbMText
 10
-3.4106583948
 20
0.0
 30
0.0
 40
2.6458333333
 41
0.0
 71
     1
 72
     1
  1
Copyright © 2014 Théophile BRESSON, AeroSeeD SAS, Vincent MAUVADY, David VANTYGHEM, Pascal CORRADINI
  7
SLDTEXTSTYLE0
 11
-3.491481338843133E-15
 21
1.0
 31
0.0
 73
     1
 44
1.0
  0
MTEXT
  5
6F
330
6A
100
AcDbEntity
  8
0
  6
Continuous
 62
     0
370
     0
100
AcDbMText
 10
0.1171193403
 20
0.0
 30
0.0
 40
2.6458333333
 41
0.0
 71
     1
 72
     1
  1
Licensed under TAPR Open Hardware Licence (www.tapr.org/OHL)
  7
SLDTEXTSTYLE0
 11
-3.491481338843133E-15
 21
1.0
 31
0.0
 73
     1
 44
1.0
  0
ENDBLK
  5
6C
330
6A
100
AcDbEntity
  8
0
100
AcDbBlockEnd
  0
BLOCK
  5
85
330
84
100
AcDbEntity
  8
0
100
AcDbBlockBegin
  2
SW_NOTE_1
 70
     0
 10
0.0
 20
0.0
 30
0.0
  3
SW_NOTE_1
  1

  0
MTEXT
  5
87
330
84
100
AcDbEntity
  8
0
  6
Continuous
 62
     0
370
     0
100
AcDbMText
 10
0.0
 20
1.9336016097
 30
0.0
 40
1.5
 41
0.0
 71
     1
 72
     1
  1
CASSER LES
  7
SLDTEXTSTYLE0
 73
     1
 44
1.0
  0
MTEXT
  5
88
330
84
100
AcDbEntity
  8
0
  6
Continuous
 62
     0
370
     0
100
AcDbMText
 10
0.0
 20
-0.5663983345
 30
0.0
 40
1.5
 41
0.0
 71
     1
 72
     1
  1
ANGLES VIFS
  7
SLDTEXTSTYLE0
 73
     1
 44
1.0
  0
ENDBLK
  5
86
330
84
100
AcDbEntity
  8
0
100
AcDbBlockEnd
  0
BLOCK
  5
91
330
90
100
AcDbEntity
  8
0
100
AcDbBlockBegin
  2
SW_NOTE_2
 70
     0
 10
0.0
 20
0.0
 30
0.0
  3
SW_NOTE_2
  1

  0
MTEXT
  5
93
330
90
100
AcDbEntity
  8
0
  6
Continuous
 62
     0
370
     0
100
AcDbMText
 10
0.0
 20
1.9336016097
 30
0.0
 40
1.5
 41
0.0
 71
     1
 72
     1
  1
SAUF INDICATION CONTRAIRE:
  7
SLDTEXTSTYLE0
 73
     1
 44
1.0
  0
MTEXT
  5
94
330
90
100
AcDbEntity
  8
0
  6
Continuous
 62
     0
370
     0
100
AcDbMText
 10
0.0
 20
-0.5663983345
 30
0.0
 40
1.5
 41
0.0
 71
     1
 72
     1
  1
LES COTES SONT EN MILLIMETRES
  7
SLDTEXTSTYLE0
 73
     1
 44
1.0
  0
MTEXT
  5
95
330
90
100
AcDbEntity
  8
0
  6
Continuous
 62
     0
370
     0
100
AcDbMText
 10
0.0
 20
-3.0663982786
 30
0.0
 40
1.5
 41
0.0
 71
     1
 72
     1
  1
ETAT DE SURFACE:
  7
SLDTEXTSTYLE0
 73
     1
 44
1.0
  0
MTEXT
  5
97
330
90
100
AcDbEntity
  8
0
  6
Continuous
 62
     0
370
     0
100
AcDbMText
 10
17.3330735415
 20
-3.0663982786
 30
0.0
 40
1.5
 41
0.0
 71
     1
 72
     1
  1
Ra = 3.2
  7
SLDTEXTSTYLE2
 73
     1
 44
1.0
  0
MTEXT
  5
98
330
90
100
AcDbEntity
  8
0
  6
Continuous
 62
     0
370
     0
100
AcDbMText
 10
0.0
 20
-5.5663982227
 30
0.0
 40
1.5
 41
0.0
 71
     1
 72
     1
  1
TOLERANCES:
  7
SLDTEXTSTYLE0
 73
     1
 44
1.0
  0
MTEXT
  5
99
330
90
100
AcDbEntity
  8
0
  6
Continuous
 62
     0
370
     0
100
AcDbMText
 10
1.6624999698
 20
-8.0663981668
 30
0.0
 40
1.5
 41
0.0
 71
     1
 72
     1
  1
Iso 2768 mK
  7
SLDTEXTSTYLE0
 73
     1
 44
1.0
  0
ENDBLK
  5
92
330
90
100
AcDbEntity
  8
0
100
AcDbBlockEnd
  0
BLOCK
  5
C2
330
C1
100
AcDbEntity
  8
0
100
AcDbBlockBegin
  2
*D4
 70
     1
 10
0.0
 20
0.0
 30
0.0
  3
*D4
  1

  0
SOLID
  5
C4
330
C1
100
AcDbEntity
  8
0
  6
Continuous
 62
     7
370
     0
100
AcDbTrace
 10
88.0688536872
 20
251.3043035091
 30
0.0
 11
84.7668536872
 21
251.8123035091
 31
0.0
 12
84.7668536872
 22
250.7963035091
 32
0.0
 13
84.7668536872
 23
250.7963035091
 33
0.0
  0
SOLID
  5
C5
330
C1
100
AcDbEntity
  8
0
  6
Continuous
 62
     7
370
     0
100
AcDbTrace
 10
93.0688536872
 20
251.3043035091
 30
0.0
 11
96.3708536872
 21
250.7963035091
 31
0.0
 12
96.3708536872
 22
251.8123035091
 32
0.0
 13
96.3708536872
 23
251.8123035091
 33
0.0
  0
LINE
  5
C6
330
C1
100
AcDbEntity
  8
0
  6
Continuous
 62
     7
370
     0
100
AcDbLine
 10
88.0688536872
 20
240.0378492936
 30
0.0
 11
88.0688536872
 21
252.3043035091
 31
0.0
  0
LINE
  5
C7
330
C1
100
AcDbEntity
  8
0
  6
Continuous
 62
     7
370
     0
100
AcDbLine
 10
93.0688536872
 20
208.7878492936
 30
0.0
 11
93.0688536872
 21
252.3043035091
 31
0.0
  0
LINE
  5
C8
330
C1
100
AcDbEntity
  8
0
  6
Continuous
 62
     7
370
     0
100
AcDbLine
 10
88.0688536872
 20
251.3043035091
 30
0.0
 11
79.2072940372
 21
251.3043035091
 31
0.0
  0
LINE
  5
C9
330
C1
100
AcDbEntity
  8
0
  6
Continuous
 62
     7
370
     0
100
AcDbLine
 10
88.0688536872
 20
251.3043035091
 30
0.0
 11
93.0688536872
 21
251.3043035091
 31
0.0
  0
LINE
  5
CA
330
C1
100
AcDbEntity
  8
0
  6
Continuous
 62
     7
370
     0
100
AcDbLine
 10
93.0688536872
 20
251.3043035091
 30
0.0
 11
99.4188536872
 21
251.3043035091
 31
0.0
  0
MTEXT
  5
CB
330
C1
100
AcDbEntity
  8
0
  6
Continuous
 62
     7
370
     0
100
AcDbMText
 10
79.2072940372
 20
255.8160404237
 30
0.1
 40
3.5
 41
0.0
 71
     1
 72
     1
  1
5
  7
SLDTEXTSTYLE0
 73
     1
 44
1.0
  0
ENDBLK
  5
C3
330
C1
100
AcDbEntity
  8
0
100
AcDbBlockEnd
  0
BLOCK
  5
CE
330
CD
100
AcDbEntity
  8
0
100
AcDbBlockBegin
  2
*D5
 70
     1
 10
0.0
 20
0.0
 30
0.0
  3
*D5
  1

  0
SOLID
  5
D0
330
CD
100
AcDbEntity
  8
0
  6
Continuous
 62
     7
370
     0
100
AcDbTrace
 10
93.0688536872
 20
258.8437455912
 30
0.0
 11
89.7668536872
 21
259.3517455912
 31
0.0
 12
89.7668536872
 22
258.3357455912
 32
0.0
 13
89.7668536872
 23
258.3357455912
 33
0.0
  0
SOLID
  5
D1
330
CD
100
AcDbEntity
  8
0
  6
Continuous
 62
     7
370
     0
100
AcDbTrace
 10
103.0688536872
 20
258.8437455912
 30
0.0
 11
106.3708536872
 21
258.3357455912
 31
0.0
 12
106.3708536872
 22
259.3517455912
 32
0.0
 13
106.3708536872
 23
259.3517455912
 33
0.0
  0
LINE
  5
D2
330
CD
100
AcDbEntity
  8
0
  6
Continuous
 62
     7
370
     0
100
AcDbLine
 10
93.0688536872
 20
240.7878492936
 30
0.0
 11
93.0688536872
 21
259.8437455912
 31
0.0
  0
LINE
  5
D3
330
CD
100
AcDbEntity
  8
0
  6
Continuous
 62
     7
370
     0
100
AcDbLine
 10
103.0688536872
 20
204.0378492936
 30
0.0
 11
103.0688536872
 21
259.8437455912
 31
0.0
  0
LINE
  5
D4
330
CD
100
AcDbEntity
  8
0
  6
Continuous
 62
     7
370
     0
100
AcDbLine
 10
93.0688536872
 20
258.8437455912
 30
0.0
 11
86.7188536872
 21
258.8437455912
 31
0.0
  0
LINE
  5
D5
330
CD
100
AcDbEntity
  8
0
  6
Continuous
 62
     7
370
     0
100
AcDbLine
 10
93.0688536872
 20
258.8437455912
 30
0.0
 11
103.0688536872
 21
258.8437455912
 31
0.0
  0
LINE
  5
D6
330
CD
100
AcDbEntity
  8
0
  6
Continuous
 62
     7
370
     0
100
AcDbLine
 10
103.0688536872
 20
258.8437455912
 30
0.0
 11
109.4188536872
 21
258.8437455912
 31
0.0
  0
MTEXT
  5
D7
330
CD
100
AcDbEntity
  8
0
  6
Continuous
 62
     7
370
     0
100
AcDbMText
 10
88.1824594678
 20
263.3554825058
 30
0.1
 40
3.5
 41
0.0
 71
     1
 72
     1
  1
10
  7
SLDTEXTSTYLE0
 73
     1
 44
1.0
  0
MTEXT
  5
D8
330
CD
100
AcDbEntity
  8
0
  6
Continuous
 62
     7
370
     0
100
AcDbMText
 10
97.5109320299
 20
263.3554825058
 30
0.1
 40
3.5
 41
0.0
 71
     1
 72
     1
  1
(x10)
  7
SLDTEXTSTYLE0
 73
     1
 44
1.0
  0
ENDBLK
  5
CF
330
CD
100
AcDbEntity
  8
0
100
AcDbBlockEnd
  0
BLOCK
  5
DC
330
DB
100
AcDbEntity
  8
0
100
AcDbBlockBegin
  2
_NONE
 70
     0
 10
0.0
 20
0.0
 30
0.0
  3
_NONE
  1

  0
ENDBLK
  5
DD
330
DB
100
AcDbEntity
  8
0
100
AcDbBlockEnd
  0
BLOCK
  5
DF
330
DE
100
AcDbEntity
  8
0
100
AcDbBlockBegin
  2
*D7
 70
     1
 10
0.0
 20
0.0
 30
0.0
  3
*D7
  1

  0
SOLID
  5
E1
330
DE
100
AcDbEntity
  8
0
  6
Continuous
 62
     7
370
     0
100
AcDbTrace
 10
91.4778634295
 20
236.6288395512
 30
0.0
 11
89.5022070829
 21
239.3229163876
 31
0.0
 12
88.7837865932
 22
238.6044958979
 32
0.0
 13
88.7837865932
 23
238.6044958979
 33
0.0
  0
LINE
  5
E2
330
DE
100
AcDbEntity
  8
0
  6
Continuous
 62
     7
370
     0
100
AcDbLine
 10
91.4778634295
 20
236.6288395512
 30
0.0
 11
51.6777550246
 21
276.4289479562
 31
0.0
  0
LINE
  5
E3
330
DE
100
AcDbEntity
  8
0
  6
Continuous
 62
     7
370
     0
100
AcDbLine
 10
91.4778634295
 20
236.6288395512
 30
0.0
 11
94.6598439449
 21
233.4468590359
 31
0.0
  0
MTEXT
  5
E4
330
DE
100
AcDbEntity
  8
0
  6
Continuous
 62
     7
370
     0
100
AcDbMText
 10
54.8642364328
 20
279.6154293644
 30
0.1
 40
3.5
 41
0.0
 71
     1
 72
     1
  1
%%c
  7
SLDTEXTSTYLE0
 11
0.7071067811865419
 21
-0.7071067811865531
 31
0.0
 73
     1
 44
1.0
  0
MTEXT
  5
E5
330
DE
100
AcDbEntity
  8
0
  6
Continuous
 62
     7
370
     0
100
AcDbMText
 10
58.63446585
 20
275.9208210247
 30
0.1
 40
3.5
 41
0.0
 71
     1
 72
     1
  1
4,5
  7
SLDTEXTSTYLE0
 11
0.7071067811865419
 21
-0.7071067811865531
 31
0.0
 73
     1
 44
1.0
  0
MTEXT
  5
E6
330
DE
100
AcDbEntity
  8
0
  6
Continuous
 62
     7
370
     0
100
AcDbMText
 10
66.14502052
 20
268.4102663546
 30
0.1
 40
3.5
 41
0.0
 71
     1
 72
     1
  1
(x22)
  7
SLDTEXTSTYLE0
 11
0.7071067811865419
 21
-0.7071067811865531
 31
0.0
 73
     1
 44
1.0
  0
ENDBLK
  5
E0
330
DE
100
AcDbEntity
  8
0
100
AcDbBlockEnd
  0
BLOCK
  5
EA
330
E9
100
AcDbEntity
  8
0
100
AcDbBlockBegin
  2
*D8
 70
     1
 10
0.0
 20
0.0
 30
0.0
  3
*D8
  1

  0
SOLID
  5
EC
330
E9
100
AcDbEntity
  8
0
  6
Continuous
 62
     7
370
     0
100
AcDbTrace
 10
52.1819937206
 20
189.0378492936
 30
0.0
 11
52.6899937206
 21
192.3398492936
 31
0.0
 12
51.6739937206
 22
192.3398492936
 32
0.0
 13
51.6739937206
 23
192.3398492936
 33
0.0
  0
SOLID
  5
ED
330
E9
100
AcDbEntity
  8
0
  6
Continuous
 62
     7
370
     0
100
AcDbTrace
 10
52.1819937206
 20
239.0378492936
 30
0.0
 11
51.6739937206
 21
235.7358492936
 31
0.0
 12
52.6899937206
 22
235.7358492936
 32
0.0
 13
52.6899937206
 23
235.7358492936
 33
0.0
  0
LINE
  5
EE
330
E9
100
AcDbEntity
  8
0
  6
Continuous
 62
     7
370
     0
100
AcDbLine
 10
67.1819937206
 20
189.0378492936
 30
0.0
 11
51.1819937206
 21
189.0378492936
 31
0.0
  0
LINE
  5
EF
330
E9
100
AcDbEntity
  8
0
  6
Continuous
 62
     7
370
     0
100
AcDbLine
 10
72.1819937206
 20
239.0378492936
 30
0.0
 11
51.1819937206
 21
239.0378492936
 31
0.0
  0
LINE
  5
F0
330
E9
100
AcDbEntity
  8
0
  6
Continuous
 62
     7
370
     0
100
AcDbLine
 10
52.1819937206
 20
189.0378492936
 30
0.0
 11
52.1819937206
 21
239.0378492936
 31
0.0
  0
MTEXT
  5
F1
330
E9
100
AcDbEntity
  8
0
  6
Continuous
 62
     7
370
     0
100
AcDbMText
 10
47.670256806
 20
210.0298630125
 30
0.1
 40
3.5
 41
0.0
 71
     1
 72
     1
  1
50
  7
SLDTEXTSTYLE0
 11
6.123233995736766E-17
 21
1.0
 31
0.0
 73
     1
 44
1.0
  0
ENDBLK
  5
EB
330
E9
100
AcDbEntity
  8
0
100
AcDbBlockEnd
  0
BLOCK
  5
F4
330
F3
100
AcDbEntity
  8
0
100
AcDbBlockBegin
  2
*D9
 70
     1
 10
0.0
 20
0.0
 30
0.0
  3
*D9
  1

  0
SOLID
  5
F6
330
F3
100
AcDbEntity
  8
0
  6
Continuous
 62
     7
370
     0
100
AcDbTrace
 10
58.1819937206
 20
189.0378492936
 30
0.0
 11
57.6739937206
 21
185.7358492936
 31
0.0
 12
58.6899937206
 22
185.7358492936
 32
0.0
 13
58.6899937206
 23
185.7358492936
 33
0.0
  0
SOLID
  5
F7
330
F3
100
AcDbEntity
  8
0
  6
Continuous
 62
     7
370
     0
100
AcDbTrace
 10
58.1819937206
 20
199.0378492936
 30
0.0
 11
58.6899937206
 21
202.3398492936
 31
0.0
 12
57.6739937206
 22
202.3398492936
 32
0.0
 13
57.6739937206
 23
202.3398492936
 33
0.0
  0
LINE
  5
F8
330
F3
100
AcDbEntity
  8
0
  6
Continuous
 62
     7
370
     0
100
AcDbLine
 10
67.1819937206
 20
189.0378492936
 30
0.0
 11
57.1819937206
 21
189.0378492936
 31
0.0
  0
LINE
  5
F9
330
F3
100
AcDbEntity
  8
0
  6
Continuous
 62
     7
370
     0
100
AcDbLine
 10
87.0688536872
 20
199.0378492936
 30
0.0
 11
57.1819937206
 21
199.0378492936
 31
0.0
  0
LINE
  5
FA
330
F3
100
AcDbEntity
  8
0
  6
Continuous
 62
     7
370
     0
100
AcDbLine
 10
58.1819937206
 20
189.0378492936
 30
0.0
 11
58.1819937206
 21
182.6878492936
 31
0.0
  0
LINE
  5
FB
330
F3
100
AcDbEntity
  8
0
  6
Continuous
 62
     7
370
     0
100
AcDbLine
 10
58.1819937206
 20
189.0378492936
 30
0.0
 11
58.1819937206
 21
199.0378492936
 31
0.0
  0
LINE
  5
FC
330
F3
100
AcDbEntity
  8
0
  6
Continuous
 62
     7
370
     0
100
AcDbLine
 10
58.1819937206
 20
199.0378492936
 30
0.0
 11
58.1819937206
 21
205.3878492936
 31
0.0
  0
MTEXT
  5
FD
330
F3
100
AcDbEntity
  8
0
  6
Continuous
 62
     7
370
     0
100
AcDbMText
 10
53.670256806
 20
190.0298630125
 30
0.1
 40
3.5
 41
0.0
 71
     1
 72
     1
  1
10
  7
SLDTEXTSTYLE0
 11
6.123233995736766E-17
 21
1.0
 31
0.0
 73
     1
 44
1.0
  0
ENDBLK
  5
F5
330
F3
100
AcDbEntity
  8
0
100
AcDbBlockEnd
  0
BLOCK
  5
100
330
FF
100
AcDbEntity
  8
0
100
AcDbBlockBegin
  2
*D10
 70
     1
 10
0.0
 20
0.0
 30
0.0
  3
*D10
  1

  0
SOLID
  5
102
330
FF
100
AcDbEntity
  8
0
  6
Continuous
 62
     7
370
     0
100
AcDbTrace
 10
227.1819937206
 20
189.0378492936
 30
0.0
 11
227.6899937206
 21
192.3398492936
 31
0.0
 12
226.6739937206
 22
192.3398492936
 32
0.0
 13
226.6739937206
 23
192.3398492936
 33
0.0
  0
SOLID
  5
103
330
FF
100
AcDbEntity
  8
0
  6
Continuous
 62
     7
370
     0
100
AcDbTrace
 10
227.1819937206
 20
183.0378492936
 30
0.0
 11
226.6739937206
 21
179.7358492936
 31
0.0
 12
227.6899937206
 22
179.7358492936
 32
0.0
 13
227.6899937206
 23
179.7358492936
 33
0.0
  0
LINE
  5
104
330
FF
100
AcDbEntity
  8
0
  6
Continuous
 62
     7
370
     0
100
AcDbLine
 10
84.1819937206
 20
189.0378492936
 30
0.0
 11
228.1819937206
 21
189.0378492936
 31
0.0
  0
LINE
  5
105
330
FF
100
AcDbEntity
  8
0
  6
Continuous
 62
     7
370
     0
100
AcDbLine
 10
219.1819937206
 20
183.0378492936
 30
0.0
 11
228.1819937206
 21
183.0378492936
 31
0.0
  0
LINE
  5
106
330
FF
100
AcDbEntity
  8
0
  6
Continuous
 62
     7
370
     0
100
AcDbLine
 10
227.1819937206
 20
189.0378492936
 30
0.0
 11
227.1819937206
 21
195.3878492936
 31
0.0
  0
LINE
  5
107
330
FF
100
AcDbEntity
  8
0
  6
Continuous
 62
     7
370
     0
100
AcDbLine
 10
227.1819937206
 20
189.0378492936
 30
0.0
 11
227.1819937206
 21
183.0378492936
 31
0.0
  0
LINE
  5
108
330
FF
100
AcDbEntity
  8
0
  6
Continuous
 62
     7
370
     0
100
AcDbLine
 10
227.1819937206
 20
183.0378492936
 30
0.0
 11
227.1819937206
 21
176.6878492936
 31
0.0
  0
MTEXT
  5
109
330
FF
100
AcDbEntity
  8
0
  6
Continuous
 62
     7
370
     0
100
AcDbMText
 10
222.670256806
 20
183.3229187257
 30
0.1
 40
3.5
 41
0.0
 71
     1
 72
     1
  1
6
  7
SLDTEXTSTYLE0
 11
-7.044195017643634E-15
 21
1.0
 31
0.0
 73
     1
 44
1.0
  0
ENDBLK
  5
101
330
FF
100
AcDbEntity
  8
0
100
AcDbBlockEnd
  0
BLOCK
  5
10C
330
10B
100
AcDbEntity
  8
0
100
AcDbBlockBegin
  2
*D11
 70
     1
 10
0.0
 20
0.0
 30
0.0
  3
*D11
  1

  0
SOLID
  5
10E
330
10B
100
AcDbEntity
  8
0
  6
Continuous
 62
     7
370
     0
100
AcDbTrace
 10
234.1819937206
 20
189.0378492936
 30
0.0
 11
233.6739937206
 21
185.7358492936
 31
0.0
 12
234.6899937206
 22
185.7358492936
 32
0.0
 13
234.6899937206
 23
185.7358492936
 33
0.0
  0
SOLID
  5
10F
330
10B
100
AcDbEntity
  8
0
  6
Continuous
 62
     7
370
     0
100
AcDbTrace
 10
234.1819937206
 20
203.0378492936
 30
0.0
 11
234.6899937206
 21
206.3398492936
 31
0.0
 12
233.6739937206
 22
206.3398492936
 32
0.0
 13
233.6739937206
 23
206.3398492936
 33
0.0
  0
LINE
  5
110
330
10B
100
AcDbEntity
  8
0
  6
Continuous
 62
     7
370
     0
100
AcDbLine
 10
89.1819937206
 20
189.0378492936
 30
0.0
 11
235.1819937206
 21
189.0378492936
 31
0.0
  0
LINE
  5
111
330
10B
100
AcDbEntity
  8
0
  6
Continuous
 62
     7
370
     0
100
AcDbLine
 10
198.8188536872
 20
203.0378492936
 30
0.0
 11
235.1819937206
 21
203.0378492936
 31
0.0
  0
LINE
  5
112
330
10B
100
AcDbEntity
  8
0
  6
Continuous
 62
     7
370
     0
100
AcDbLine
 10
234.1819937206
 20
189.0378492936
 30
0.0
 11
234.1819937206
 21
182.6878492936
 31
0.0
  0
LINE
  5
113
330
10B
100
AcDbEntity
  8
0
  6
Continuous
 62
     7
370
     0
100
AcDbLine
 10
234.1819937206
 20
189.0378492936
 30
0.0
 11
234.1819937206
 21
203.0378492936
 31
0.0
  0
LINE
  5
114
330
10B
100
AcDbEntity
  8
0
  6
Continuous
 62
     7
370
     0
100
AcDbLine
 10
234.1819937206
 20
203.0378492936
 30
0.0
 11
234.1819937206
 21
209.3878492936
 31
0.0
  0
MTEXT
  5
115
330
10B
100
AcDbEntity
  8
0
  6
Continuous
 62
     7
370
     0
100
AcDbMText
 10
229.670256806
 20
192.0298630125
 30
0.1
 40
3.5
 41
0.0
 71
     1
 72
     1
  1
14
  7
SLDTEXTSTYLE0
 11
6.123233995736766E-17
 21
1.0
 31
0.0
 73
     1
 44
1.0
  0
ENDBLK
  5
10D
330
10B
100
AcDbEntity
  8
0
100
AcDbBlockEnd
  0
BLOCK
  5
118
330
117
100
AcDbEntity
  8
0
100
AcDbBlockBegin
  2
*D12
 70
     1
 10
0.0
 20
0.0
 30
0.0
  3
*D12
  1

  0
SOLID
  5
11A
330
117
100
AcDbEntity
  8
0
  6
Continuous
 62
     7
370
     0
100
AcDbTrace
 10
240.1819937206
 20
189.0378492936
 30
0.0
 11
240.6899937206
 21
192.3398492936
 31
0.0
 12
239.6739937206
 22
192.3398492936
 32
0.0
 13
239.6739937206
 23
192.3398492936
 33
0.0
  0
SOLID
  5
11B
330
117
100
AcDbEntity
  8
0
  6
Continuous
 62
     7
370
     0
100
AcDbTrace
 10
240.1819937206
 20
235.0378492936
 30
0.0
 11
239.6739937206
 21
231.7358492936
 31
0.0
 12
240.6899937206
 22
231.7358492936
 32
0.0
 13
240.6899937206
 23
231.7358492936
 33
0.0
  0
LINE
  5
11C
330
117
100
AcDbEntity
  8
0
  6
Continuous
 62
     7
370
     0
100
AcDbLine
 10
89.1819937206
 20
189.0378492936
 30
0.0
 11
241.1819937206
 21
189.0378492936
 31
0.0
  0
LINE
  5
11D
330
117
100
AcDbEntity
  8
0
  6
Continuous
 62
     7
370
     0
100
AcDbLine
 10
198.8188536872
 20
235.0378492936
 30
0.0
 11
241.1819937206
 21
235.0378492936
 31
0.0
  0
LINE
  5
11E
330
117
100
AcDbEntity
  8
0
  6
Continuous
 62
     7
370
     0
100
AcDbLine
 10
240.1819937206
 20
189.0378492936
 30
0.0
 11
240.1819937206
 21
235.0378492936
 31
0.0
  0
MTEXT
  5
11F
330
117
100
AcDbEntity
  8
0
  6
Continuous
 62
     7
370
     0
100
AcDbMText
 10
235.670256806
 20
208.0298630125
 30
0.1
 40
3.5
 41
0.0
 71
     1
 72
     1
  1
46
  7
SLDTEXTSTYLE0
 11
6.123233995736766E-17
 21
1.0
 31
0.0
 73
     1
 44
1.0
  0
ENDBLK
  5
119
330
117
100
AcDbEntity
  8
0
100
AcDbBlockEnd
  0
BLOCK
  5
121
330
120
100
AcDbEntity
  8
0
100
AcDbBlockBegin
  2
SW_CENTERMARKSYMBOL_0
 70
     0
 10
0.0
 20
0.0
 30
0.0
  3
SW_CENTERMARKSYMBOL_0
  1

  0
LINE
  5
123
330
120
100
AcDbEntity
  8
0
  6
Continuous
 62
     0
370
     0
100
AcDbLine
 10
0.0
 20
0.0
 30
0.0
 11
0.0
 21
2.5
 31
0.0
  0
LINE
  5
124
330
120
100
AcDbEntity
  8
0
  6
Continuous
 62
     0
370
     0
100
AcDbLine
 10
0.0
 20
0.0
 30
0.0
 11
-2.5
 21
0.0
 31
0.0
  0
LINE
  5
125
330
120
100
AcDbEntity
  8
0
  6
Continuous
 62
     0
370
     0
100
AcDbLine
 10
0.0
 20
0.0
 30
0.0
 11
0.0
 21
-2.5
 31
0.0
  0
LINE
  5
126
330
120
100
AcDbEntity
  8
0
  6
Continuous
 62
     0
370
     0
100
AcDbLine
 10
0.0
 20
0.0
 30
0.0
 11
2.5
 21
0.0
 31
0.0
  0
LINE
  5
127
330
120
100
AcDbEntity
  8
0
  6
Continuous
 62
     0
370
     0
100
AcDbLine
 10
0.0
 20
2.5
 30
0.0
 11
0.0
 21
4.75
 31
0.0
  0
LINE
  5
128
330
120
100
AcDbEntity
  8
0
  6
Continuous
 62
     0
370
     0
100
AcDbLine
 10
-2.5
 20
0.0
 30
0.0
 11
-4.75
 21
0.0
 31
0.0
  0
LINE
  5
129
330
120
100
AcDbEntity
  8
0
  6
Continuous
 62
     0
370
     0
100
AcDbLine
 10
0.0
 20
-2.5
 30
0.0
 11
0.0
 21
-4.75
 31
0.0
  0
LINE
  5
12A
330
120
100
AcDbEntity
  8
0
  6
Continuous
 62
     0
370
     0
100
AcDbLine
 10
2.5
 20
0.0
 30
0.0
 11
4.75
 21
0.0
 31
0.0
  0
ENDBLK
  5
122
330
120
100
AcDbEntity
  8
0
100
AcDbBlockEnd
  0
BLOCK
  5
12D
330
12C
100
AcDbEntity
  8
0
100
AcDbBlockBegin
  2
SW_CENTERMARKSYMBOL_1
 70
     0
 10
0.0
 20
0.0
 30
0.0
  3
SW_CENTERMARKSYMBOL_1
  1

  0
LINE
  5
12F
330
12C
100
AcDbEntity
  8
0
  6
Continuous
 62
     0
370
     0
100
AcDbLine
 10
0.0
 20
0.0
 30
0.0
 11
0.0
 21
2.5
 31
0.0
  0
LINE
  5
130
330
12C
100
AcDbEntity
  8
0
  6
Continuous
 62
     0
370
     0
100
AcDbLine
 10
0.0
 20
0.0
 30
0.0
 11
-2.5
 21
0.0
 31
0.0
  0
LINE
  5
131
330
12C
100
AcDbEntity
  8
0
  6
Continuous
 62
     0
370
     0
100
AcDbLine
 10
0.0
 20
0.0
 30
0.0
 11
0.0
 21
-2.5
 31
0.0
  0
LINE
  5
132
330
12C
100
AcDbEntity
  8
0
  6
Continuous
 62
     0
370
     0
100
AcDbLine
 10
0.0
 20
0.0
 30
0.0
 11
2.5
 21
0.0
 31
0.0
  0
LINE
  5
133
330
12C
100
AcDbEntity
  8
0
  6
Continuous
 62
     0
370
     0
100
AcDbLine
 10
0.0
 20
2.5
 30
0.0
 11
0.0
 21
4.75
 31
0.0
  0
LINE
  5
134
330
12C
100
AcDbEntity
  8
0
  6
Continuous
 62
     0
370
     0
100
AcDbLine
 10
-2.5
 20
0.0
 30
0.0
 11
-4.75
 21
0.0
 31
0.0
  0
LINE
  5
135
330
12C
100
AcDbEntity
  8
0
  6
Continuous
 62
     0
370
     0
100
AcDbLine
 10
0.0
 20
-2.5
 30
0.0
 11
0.0
 21
-4.75
 31
0.0
  0
LINE
  5
136
330
12C
100
AcDbEntity
  8
0
  6
Continuous
 62
     0
370
     0
100
AcDbLine
 10
2.5
 20
0.0
 30
0.0
 11
4.75
 21
0.0
 31
0.0
  0
ENDBLK
  5
12E
330
12C
100
AcDbEntity
  8
0
100
AcDbBlockEnd
  0
BLOCK
  5
139
330
138
100
AcDbEntity
  8
0
100
AcDbBlockBegin
  2
SW_CENTERMARKSYMBOL_2
 70
     0
 10
0.0
 20
0.0
 30
0.0
  3
SW_CENTERMARKSYMBOL_2
  1

  0
LINE
  5
13B
330
138
100
AcDbEntity
  8
0
  6
Continuous
 62
     0
370
     0
100
AcDbLine
 10
0.0
 20
0.0
 30
0.0
 11
0.0
 21
2.5
 31
0.0
  0
LINE
  5
13C
330
138
100
AcDbEntity
  8
0
  6
Continuous
 62
     0
370
     0
100
AcDbLine
 10
0.0
 20
0.0
 30
0.0
 11
-2.5
 21
0.0
 31
0.0
  0
LINE
  5
13D
330
138
100
AcDbEntity
  8
0
  6
Continuous
 62
     0
370
     0
100
AcDbLine
 10
0.0
 20
0.0
 30
0.0
 11
0.0
 21
-2.5
 31
0.0
  0
LINE
  5
13E
330
138
100
AcDbEntity
  8
0
  6
Continuous
 62
     0
370
     0
100
AcDbLine
 10
0.0
 20
0.0
 30
0.0
 11
2.5
 21
0.0
 31
0.0
  0
LINE
  5
13F
330
138
100
AcDbEntity
  8
0
  6
Continuous
 62
     0
370
     0
100
AcDbLine
 10
0.0
 20
2.5
 30
0.0
 11
0.0
 21
4.75
 31
0.0
  0
LINE
  5
140
330
138
100
AcDbEntity
  8
0
  6
Continuous
 62
     0
370
     0
100
AcDbLine
 10
-2.5
 20
0.0
 30
0.0
 11
-4.75
 21
0.0
 31
0.0
  0
LINE
  5
141
330
138
100
AcDbEntity
  8
0
  6
Continuous
 62
     0
370
     0
100
AcDbLine
 10
0.0
 20
-2.5
 30
0.0
 11
0.0
 21
-4.75
 31
0.0
  0
LINE
  5
142
330
138
100
AcDbEntity
  8
0
  6
Continuous
 62
     0
370
     0
100
AcDbLine
 10
2.5
 20
0.0
 30
0.0
 11
4.75
 21
0.0
 31
0.0
  0
ENDBLK
  5
13A
330
138
100
AcDbEntity
  8
0
100
AcDbBlockEnd
  0
BLOCK
  5
145
330
144
100
AcDbEntity
  8
0
100
AcDbBlockBegin
  2
SW_CENTERMARKSYMBOL_3
 70
     0
 10
0.0
 20
0.0
 30
0.0
  3
SW_CENTERMARKSYMBOL_3
  1

  0
LINE
  5
147
330
144
100
AcDbEntity
  8
0
  6
Continuous
 62
     0
370
     0
100
AcDbLine
 10
0.0
 20
0.0
 30
0.0
 11
0.0
 21
2.5
 31
0.0
  0
LINE
  5
148
330
144
100
AcDbEntity
  8
0
  6
Continuous
 62
     0
370
     0
100
AcDbLine
 10
0.0
 20
0.0
 30
0.0
 11
-2.5
 21
0.0
 31
0.0
  0
LINE
  5
149
330
144
100
AcDbEntity
  8
0
  6
Continuous
 62
     0
370
     0
100
AcDbLine
 10
0.0
 20
0.0
 30
0.0
 11
0.0
 21
-2.5
 31
0.0
  0
LINE
  5
14A
330
144
100
AcDbEntity
  8
0
  6
Continuous
 62
     0
370
     0
100
AcDbLine
 10
0.0
 20
0.0
 30
0.0
 11
2.5
 21
0.0
 31
0.0
  0
LINE
  5
14B
330
144
100
AcDbEntity
  8
0
  6
Continuous
 62
     0
370
     0
100
AcDbLine
 10
0.0
 20
2.5
 30
0.0
 11
0.0
 21
4.75
 31
0.0
  0
LINE
  5
14C
330
144
100
AcDbEntity
  8
0
  6
Continuous
 62
     0
370
     0
100
AcDbLine
 10
-2.5
 20
0.0
 30
0.0
 11
-4.75
 21
0.0
 31
0.0
  0
LINE
  5
14D
330
144
100
AcDbEntity
  8
0
  6
Continuous
 62
     0
370
     0
100
AcDbLine
 10
0.0
 20
-2.5
 30
0.0
 11
0.0
 21
-4.75
 31
0.0
  0
LINE
  5
14E
330
144
100
AcDbEntity
  8
0
  6
Continuous
 62
     0
370
     0
100
AcDbLine
 10
2.5
 20
0.0
 30
0.0
 11
4.75
 21
0.0
 31
0.0
  0
ENDBLK
  5
146
330
144
100
AcDbEntity
  8
0
100
AcDbBlockEnd
  0
BLOCK
  5
151
330
150
100
AcDbEntity
  8
0
100
AcDbBlockBegin
  2
SW_CENTERMARKSYMBOL_4
 70
     0
 10
0.0
 20
0.0
 30
0.0
  3
SW_CENTERMARKSYMBOL_4
  1

  0
LINE
  5
153
330
150
100
AcDbEntity
  8
0
  6
Continuous
 62
     0
370
     0
100
AcDbLine
 10
0.0
 20
0.0
 30
0.0
 11
0.0
 21
2.5
 31
0.0
  0
LINE
  5
154
330
150
100
AcDbEntity
  8
0
  6
Continuous
 62
     0
370
     0
100
AcDbLine
 10
0.0
 20
0.0
 30
0.0
 11
-2.5
 21
0.0
 31
0.0
  0
LINE
  5
155
330
150
100
AcDbEntity
  8
0
  6
Continuous
 62
     0
370
     0
100
AcDbLine
 10
0.0
 20
0.0
 30
0.0
 11
0.0
 21
-2.5
 31
0.0
  0
LINE
  5
156
330
150
100
AcDbEntity
  8
0
  6
Continuous
 62
     0
370
     0
100
AcDbLine
 10
0.0
 20
0.0
 30
0.0
 11
2.5
 21
0.0
 31
0.0
  0
LINE
  5
157
330
150
100
AcDbEntity
  8
0
  6
Continuous
 62
     0
370
     0
100
AcDbLine
 10
0.0
 20
2.5
 30
0.0
 11
0.0
 21
4.75
 31
0.0
  0
LINE
  5
158
330
150
100
AcDbEntity
  8
0
  6
Continuous
 62
     0
370
     0
100
AcDbLine
 10
-2.5
 20
0.0
 30
0.0
 11
-4.75
 21
0.0
 31
0.0
  0
LINE
  5
159
330
150
100
AcDbEntity
  8
0
  6
Continuous
 62
     0
370
     0
100
AcDbLine
 10
0.0
 20
-2.5
 30
0.0
 11
0.0
 21
-4.75
 31
0.0
  0
LINE
  5
15A
330
150
100
AcDbEntity
  8
0
  6
Continuous
 62
     0
370
     0
100
AcDbLine
 10
2.5
 20
0.0
 30
0.0
 11
4.75
 21
0.0
 31
0.0
  0
ENDBLK
  5
152
330
150
100
AcDbEntity
  8
0
100
AcDbBlockEnd
  0
BLOCK
  5
15D
330
15C
100
AcDbEntity
  8
0
100
AcDbBlockBegin
  2
SW_CENTERMARKSYMBOL_5
 70
     0
 10
0.0
 20
0.0
 30
0.0
  3
SW_CENTERMARKSYMBOL_5
  1

  0
LINE
  5
15F
330
15C
100
AcDbEntity
  8
0
  6
Continuous
 62
     0
370
     0
100
AcDbLine
 10
0.0
 20
0.0
 30
0.0
 11
0.0
 21
2.5
 31
0.0
  0
LINE
  5
160
330
15C
100
AcDbEntity
  8
0
  6
Continuous
 62
     0
370
     0
100
AcDbLine
 10
0.0
 20
0.0
 30
0.0
 11
-2.5
 21
0.0
 31
0.0
  0
LINE
  5
161
330
15C
100
AcDbEntity
  8
0
  6
Continuous
 62
     0
370
     0
100
AcDbLine
 10
0.0
 20
0.0
 30
0.0
 11
0.0
 21
-2.5
 31
0.0
  0
LINE
  5
162
330
15C
100
AcDbEntity
  8
0
  6
Continuous
 62
     0
370
     0
100
AcDbLine
 10
0.0
 20
0.0
 30
0.0
 11
2.5
 21
0.0
 31
0.0
  0
LINE
  5
163
330
15C
100
AcDbEntity
  8
0
  6
Continuous
 62
     0
370
     0
100
AcDbLine
 10
0.0
 20
2.5
 30
0.0
 11
0.0
 21
4.75
 31
0.0
  0
LINE
  5
164
330
15C
100
AcDbEntity
  8
0
  6
Continuous
 62
     0
370
     0
100
AcDbLine
 10
-2.5
 20
0.0
 30
0.0
 11
-4.75
 21
0.0
 31
0.0
  0
LINE
  5
165
330
15C
100
AcDbEntity
  8
0
  6
Continuous
 62
     0
370
     0
100
AcDbLine
 10
0.0
 20
-2.5
 30
0.0
 11
0.0
 21
-4.75
 31
0.0
  0
LINE
  5
166
330
15C
100
AcDbEntity
  8
0
  6
Continuous
 62
     0
370
     0
100
AcDbLine
 10
2.5
 20
0.0
 30
0.0
 11
4.75
 21
0.0
 31
0.0
  0
ENDBLK
  5
15E
330
15C
100
AcDbEntity
  8
0
100
AcDbBlockEnd
  0
BLOCK
  5
169
330
168
100
AcDbEntity
  8
0
100
AcDbBlockBegin
  2
SW_CENTERMARKSYMBOL_6
 70
     0
 10
0.0
 20
0.0
 30
0.0
  3
SW_CENTERMARKSYMBOL_6
  1

  0
LINE
  5
16B
330
168
100
AcDbEntity
  8
0
  6
Continuous
 62
     0
370
     0
100
AcDbLine
 10
0.0
 20
0.0
 30
0.0
 11
0.0
 21
2.5
 31
0.0
  0
LINE
  5
16C
330
168
100
AcDbEntity
  8
0
  6
Continuous
 62
     0
370
     0
100
AcDbLine
 10
0.0
 20
0.0
 30
0.0
 11
-2.5
 21
0.0
 31
0.0
  0
LINE
  5
16D
330
168
100
AcDbEntity
  8
0
  6
Continuous
 62
     0
370
     0
100
AcDbLine
 10
0.0
 20
0.0
 30
0.0
 11
0.0
 21
-2.5
 31
0.0
  0
LINE
  5
16E
330
168
100
AcDbEntity
  8
0
  6
Continuous
 62
     0
370
     0
100
AcDbLine
 10
0.0
 20
0.0
 30
0.0
 11
2.5
 21
0.0
 31
0.0
  0
LINE
  5
16F
330
168
100
AcDbEntity
  8
0
  6
Continuous
 62
     0
370
     0
100
AcDbLine
 10
0.0
 20
2.5
 30
0.0
 11
0.0
 21
4.75
 31
0.0
  0
LINE
  5
170
330
168
100
AcDbEntity
  8
0
  6
Continuous
 62
     0
370
     0
100
AcDbLine
 10
-2.5
 20
0.0
 30
0.0
 11
-4.75
 21
0.0
 31
0.0
  0
LINE
  5
171
330
168
100
AcDbEntity
  8
0
  6
Continuous
 62
     0
370
     0
100
AcDbLine
 10
0.0
 20
-2.5
 30
0.0
 11
0.0
 21
-4.75
 31
0.0
  0
LINE
  5
172
330
168
100
AcDbEntity
  8
0
  6
Continuous
 62
     0
370
     0
100
AcDbLine
 10
2.5
 20
0.0
 30
0.0
 11
4.75
 21
0.0
 31
0.0
  0
ENDBLK
  5
16A
330
168
100
AcDbEntity
  8
0
100
AcDbBlockEnd
  0
BLOCK
  5
175
330
174
100
AcDbEntity
  8
0
100
AcDbBlockBegin
  2
SW_CENTERMARKSYMBOL_7
 70
     0
 10
0.0
 20
0.0
 30
0.0
  3
SW_CENTERMARKSYMBOL_7
  1

  0
LINE
  5
177
330
174
100
AcDbEntity
  8
0
  6
Continuous
 62
     0
370
     0
100
AcDbLine
 10
0.0
 20
0.0
 30
0.0
 11
0.0
 21
2.5
 31
0.0
  0
LINE
  5
178
330
174
100
AcDbEntity
  8
0
  6
Continuous
 62
     0
370
     0
100
AcDbLine
 10
0.0
 20
0.0
 30
0.0
 11
-2.5
 21
0.0
 31
0.0
  0
LINE
  5
179
330
174
100
AcDbEntity
  8
0
  6
Continuous
 62
     0
370
     0
100
AcDbLine
 10
0.0
 20
0.0
 30
0.0
 11
0.0
 21
-2.5
 31
0.0
  0
LINE
  5
17A
330
174
100
AcDbEntity
  8
0
  6
Continuous
 62
     0
370
     0
100
AcDbLine
 10
0.0
 20
0.0
 30
0.0
 11
2.5
 21
0.0
 31
0.0
  0
LINE
  5
17B
330
174
100
AcDbEntity
  8
0
  6
Continuous
 62
     0
370
     0
100
AcDbLine
 10
0.0
 20
2.5
 30
0.0
 11
0.0
 21
4.75
 31
0.0
  0
LINE
  5
17C
330
174
100
AcDbEntity
  8
0
  6
Continuous
 62
     0
370
     0
100
AcDbLine
 10
-2.5
 20
0.0
 30
0.0
 11
-4.75
 21
0.0
 31
0.0
  0
LINE
  5
17D
330
174
100
AcDbEntity
  8
0
  6
Continuous
 62
     0
370
     0
100
AcDbLine
 10
0.0
 20
-2.5
 30
0.0
 11
0.0
 21
-4.75
 31
0.0
  0
LINE
  5
17E
330
174
100
AcDbEntity
  8
0
  6
Continuous
 62
     0
370
     0
100
AcDbLine
 10
2.5
 20
0.0
 30
0.0
 11
4.75
 21
0.0
 31
0.0
  0
ENDBLK
  5
176
330
174
100
AcDbEntity
  8
0
100
AcDbBlockEnd
  0
BLOCK
  5
181
330
180
100
AcDbEntity
  8
0
100
AcDbBlockBegin
  2
SW_CENTERMARKSYMBOL_8
 70
     0
 10
0.0
 20
0.0
 30
0.0
  3
SW_CENTERMARKSYMBOL_8
  1

  0
LINE
  5
183
330
180
100
AcDbEntity
  8
0
  6
Continuous
 62
     0
370
     0
100
AcDbLine
 10
0.0
 20
0.0
 30
0.0
 11
0.0
 21
2.5
 31
0.0
  0
LINE
  5
184
330
180
100
AcDbEntity
  8
0
  6
Continuous
 62
     0
370
     0
100
AcDbLine
 10
0.0
 20
0.0
 30
0.0
 11
-2.5
 21
0.0
 31
0.0
  0
LINE
  5
185
330
180
100
AcDbEntity
  8
0
  6
Continuous
 62
     0
370
     0
100
AcDbLine
 10
0.0
 20
0.0
 30
0.0
 11
0.0
 21
-2.5
 31
0.0
  0
LINE
  5
186
330
180
100
AcDbEntity
  8
0
  6
Continuous
 62
     0
370
     0
100
AcDbLine
 10
0.0
 20
0.0
 30
0.0
 11
2.5
 21
0.0
 31
0.0
  0
LINE
  5
187
330
180
100
AcDbEntity
  8
0
  6
Continuous
 62
     0
370
     0
100
AcDbLine
 10
0.0
 20
2.5
 30
0.0
 11
0.0
 21
4.75
 31
0.0
  0
LINE
  5
188
330
180
100
AcDbEntity
  8
0
  6
Continuous
 62
     0
370
     0
100
AcDbLine
 10
-2.5
 20
0.0
 30
0.0
 11
-4.75
 21
0.0
 31
0.0
  0
LINE
  5
189
330
180
100
AcDbEntity
  8
0
  6
Continuous
 62
     0
370
     0
100
AcDbLine
 10
0.0
 20
-2.5
 30
0.0
 11
0.0
 21
-4.75
 31
0.0
  0
LINE
  5
18A
330
180
100
AcDbEntity
  8
0
  6
Continuous
 62
     0
370
     0
100
AcDbLine
 10
2.5
 20
0.0
 30
0.0
 11
4.75
 21
0.0
 31
0.0
  0
ENDBLK
  5
182
330
180
100
AcDbEntity
  8
0
100
AcDbBlockEnd
  0
BLOCK
  5
18D
330
18C
100
AcDbEntity
  8
0
100
AcDbBlockBegin
  2
SW_CENTERMARKSYMBOL_9
 70
     0
 10
0.0
 20
0.0
 30
0.0
  3
SW_CENTERMARKSYMBOL_9
  1

  0
LINE
  5
18F
330
18C
100
AcDbEntity
  8
0
  6
Continuous
 62
     0
370
     0
100
AcDbLine
 10
0.0
 20
0.0
 30
0.0
 11
0.0
 21
2.5
 31
0.0
  0
LINE
  5
190
330
18C
100
AcDbEntity
  8
0
  6
Continuous
 62
     0
370
     0
100
AcDbLine
 10
0.0
 20
0.0
 30
0.0
 11
-2.5
 21
0.0
 31
0.0
  0
LINE
  5
191
330
18C
100
AcDbEntity
  8
0
  6
Continuous
 62
     0
370
     0
100
AcDbLine
 10
0.0
 20
0.0
 30
0.0
 11
0.0
 21
-2.5
 31
0.0
  0
LINE
  5
192
330
18C
100
AcDbEntity
  8
0
  6
Continuous
 62
     0
370
     0
100
AcDbLine
 10
0.0
 20
0.0
 30
0.0
 11
2.5
 21
0.0
 31
0.0
  0
LINE
  5
193
330
18C
100
AcDbEntity
  8
0
  6
Continuous
 62
     0
370
     0
100
AcDbLine
 10
0.0
 20
2.5
 30
0.0
 11
0.0
 21
4.75
 31
0.0
  0
LINE
  5
194
330
18C
100
AcDbEntity
  8
0
  6
Continuous
 62
     0
370
     0
100
AcDbLine
 10
-2.5
 20
0.0
 30
0.0
 11
-4.75
 21
0.0
 31
0.0
  0
LINE
  5
195
330
18C
100
AcDbEntity
  8
0
  6
Continuous
 62
     0
370
     0
100
AcDbLine
 10
0.0
 20
-2.5
 30
0.0
 11
0.0
 21
-4.75
 31
0.0
  0
LINE
  5
196
330
18C
100
AcDbEntity
  8
0
  6
Continuous
 62
     0
370
     0
100
AcDbLine
 10
2.5
 20
0.0
 30
0.0
 11
4.75
 21
0.0
 31
0.0
  0
ENDBLK
  5
18E
330
18C
100
AcDbEntity
  8
0
100
AcDbBlockEnd
  0
BLOCK
  5
199
330
198
100
AcDbEntity
  8
0
100
AcDbBlockBegin
  2
SW_CENTERMARKSYMBOL_10
 70
     0
 10
0.0
 20
0.0
 30
0.0
  3
SW_CENTERMARKSYMBOL_10
  1

  0
LINE
  5
19B
330
198
100
AcDbEntity
  8
0
  6
Continuous
 62
     0
370
     0
100
AcDbLine
 10
0.0
 20
0.0
 30
0.0
 11
0.0
 21
2.5
 31
0.0
  0
LINE
  5
19C
330
198
100
AcDbEntity
  8
0
  6
Continuous
 62
     0
370
     0
100
AcDbLine
 10
0.0
 20
0.0
 30
0.0
 11
-2.5
 21
0.0
 31
0.0
  0
LINE
  5
19D
330
198
100
AcDbEntity
  8
0
  6
Continuous
 62
     0
370
     0
100
AcDbLine
 10
0.0
 20
0.0
 30
0.0
 11
0.0
 21
-2.5
 31
0.0
  0
LINE
  5
19E
330
198
100
AcDbEntity
  8
0
  6
Continuous
 62
     0
370
     0
100
AcDbLine
 10
0.0
 20
0.0
 30
0.0
 11
2.5
 21
0.0
 31
0.0
  0
LINE
  5
19F
330
198
100
AcDbEntity
  8
0
  6
Continuous
 62
     0
370
     0
100
AcDbLine
 10
0.0
 20
2.5
 30
0.0
 11
0.0
 21
4.75
 31
0.0
  0
LINE
  5
1A0
330
198
100
AcDbEntity
  8
0
  6
Continuous
 62
     0
370
     0
100
AcDbLine
 10
-2.5
 20
0.0
 30
0.0
 11
-4.75
 21
0.0
 31
0.0
  0
LINE
  5
1A1
330
198
100
AcDbEntity
  8
0
  6
Continuous
 62
     0
370
     0
100
AcDbLine
 10
0.0
 20
-2.5
 30
0.0
 11
0.0
 21
-4.75
 31
0.0
  0
LINE
  5
1A2
330
198
100
AcDbEntity
  8
0
  6
Continuous
 62
     0
370
     0
100
AcDbLine
 10
2.5
 20
0.0
 30
0.0
 11
4.75
 21
0.0
 31
0.0
  0
ENDBLK
  5
19A
330
198
100
AcDbEntity
  8
0
100
AcDbBlockEnd
  0
BLOCK
  5
1A5
330
1A4
100
AcDbEntity
  8
0
100
AcDbBlockBegin
  2
SW_CENTERMARKSYMBOL_11
 70
     0
 10
0.0
 20
0.0
 30
0.0
  3
SW_CENTERMARKSYMBOL_11
  1

  0
LINE
  5
1A7
330
1A4
100
AcDbEntity
  8
0
  6
Continuous
 62
     0
370
     0
100
AcDbLine
 10
0.0
 20
0.0
 30
0.0
 11
0.0
 21
2.5
 31
0.0
  0
LINE
  5
1A8
330
1A4
100
AcDbEntity
  8
0
  6
Continuous
 62
     0
370
     0
100
AcDbLine
 10
0.0
 20
0.0
 30
0.0
 11
-2.5
 21
0.0
 31
0.0
  0
LINE
  5
1A9
330
1A4
100
AcDbEntity
  8
0
  6
Continuous
 62
     0
370
     0
100
AcDbLine
 10
0.0
 20
0.0
 30
0.0
 11
0.0
 21
-2.5
 31
0.0
  0
LINE
  5
1AA
330
1A4
100
AcDbEntity
  8
0
  6
Continuous
 62
     0
370
     0
100
AcDbLine
 10
0.0
 20
0.0
 30
0.0
 11
2.5
 21
0.0
 31
0.0
  0
LINE
  5
1AB
330
1A4
100
AcDbEntity
  8
0
  6
Continuous
 62
     0
370
     0
100
AcDbLine
 10
0.0
 20
2.5
 30
0.0
 11
0.0
 21
4.75
 31
0.0
  0
LINE
  5
1AC
330
1A4
100
AcDbEntity
  8
0
  6
Continuous
 62
     0
370
     0
100
AcDbLine
 10
-2.5
 20
0.0
 30
0.0
 11
-4.75
 21
0.0
 31
0.0
  0
LINE
  5
1AD
330
1A4
100
AcDbEntity
  8
0
  6
Continuous
 62
     0
370
     0
100
AcDbLine
 10
0.0
 20
-2.5
 30
0.0
 11
0.0
 21
-4.75
 31
0.0
  0
LINE
  5
1AE
330
1A4
100
AcDbEntity
  8
0
  6
Continuous
 62
     0
370
     0
100
AcDbLine
 10
2.5
 20
0.0
 30
0.0
 11
4.75
 21
0.0
 31
0.0
  0
ENDBLK
  5
1A6
330
1A4
100
AcDbEntity
  8
0
100
AcDbBlockEnd
  0
BLOCK
  5
1B1
330
1B0
100
AcDbEntity
  8
0
100
AcDbBlockBegin
  2
SW_CENTERMARKSYMBOL_12
 70
     0
 10
0.0
 20
0.0
 30
0.0
  3
SW_CENTERMARKSYMBOL_12
  1

  0
LINE
  5
1B3
330
1B0
100
AcDbEntity
  8
0
  6
Continuous
 62
     0
370
     0
100
AcDbLine
 10
0.0
 20
0.0
 30
0.0
 11
0.0
 21
2.5
 31
0.0
  0
LINE
  5
1B4
330
1B0
100
AcDbEntity
  8
0
  6
Continuous
 62
     0
370
     0
100
AcDbLine
 10
0.0
 20
0.0
 30
0.0
 11
-2.5
 21
0.0
 31
0.0
  0
LINE
  5
1B5
330
1B0
100
AcDbEntity
  8
0
  6
Continuous
 62
     0
370
     0
100
AcDbLine
 10
0.0
 20
0.0
 30
0.0
 11
0.0
 21
-2.5
 31
0.0
  0
LINE
  5
1B6
330
1B0
100
AcDbEntity
  8
0
  6
Continuous
 62
     0
370
     0
100
AcDbLine
 10
0.0
 20
0.0
 30
0.0
 11
2.5
 21
0.0
 31
0.0
  0
LINE
  5
1B7
330
1B0
100
AcDbEntity
  8
0
  6
Continuous
 62
     0
370
     0
100
AcDbLine
 10
0.0
 20
2.5
 30
0.0
 11
0.0
 21
4.75
 31
0.0
  0
LINE
  5
1B8
330
1B0
100
AcDbEntity
  8
0
  6
Continuous
 62
     0
370
     0
100
AcDbLine
 10
-2.5
 20
0.0
 30
0.0
 11
-4.75
 21
0.0
 31
0.0
  0
LINE
  5
1B9
330
1B0
100
AcDbEntity
  8
0
  6
Continuous
 62
     0
370
     0
100
AcDbLine
 10
0.0
 20
-2.5
 30
0.0
 11
0.0
 21
-4.75
 31
0.0
  0
LINE
  5
1BA
330
1B0
100
AcDbEntity
  8
0
  6
Continuous
 62
     0
370
     0
100
AcDbLine
 10
2.5
 20
0.0
 30
0.0
 11
4.75
 21
0.0
 31
0.0
  0
ENDBLK
  5
1B2
330
1B0
100
AcDbEntity
  8
0
100
AcDbBlockEnd
  0
BLOCK
  5
1BD
330
1BC
100
AcDbEntity
  8
0
100
AcDbBlockBegin
  2
SW_CENTERMARKSYMBOL_13
 70
     0
 10
0.0
 20
0.0
 30
0.0
  3
SW_CENTERMARKSYMBOL_13
  1

  0
LINE
  5
1BF
330
1BC
100
AcDbEntity
  8
0
  6
Continuous
 62
     0
370
     0
100
AcDbLine
 10
0.0
 20
0.0
 30
0.0
 11
0.0
 21
2.5
 31
0.0
  0
LINE
  5
1C0
330
1BC
100
AcDbEntity
  8
0
  6
Continuous
 62
     0
370
     0
100
AcDbLine
 10
0.0
 20
0.0
 30
0.0
 11
-2.5
 21
0.0
 31
0.0
  0
LINE
  5
1C1
330
1BC
100
AcDbEntity
  8
0
  6
Continuous
 62
     0
370
     0
100
AcDbLine
 10
0.0
 20
0.0
 30
0.0
 11
0.0
 21
-2.5
 31
0.0
  0
LINE
  5
1C2
330
1BC
100
AcDbEntity
  8
0
  6
Continuous
 62
     0
370
     0
100
AcDbLine
 10
0.0
 20
0.0
 30
0.0
 11
2.5
 21
0.0
 31
0.0
  0
LINE
  5
1C3
330
1BC
100
AcDbEntity
  8
0
  6
Continuous
 62
     0
370
     0
100
AcDbLine
 10
0.0
 20
2.5
 30
0.0
 11
0.0
 21
4.75
 31
0.0
  0
LINE
  5
1C4
330
1BC
100
AcDbEntity
  8
0
  6
Continuous
 62
     0
370
     0
100
AcDbLine
 10
-2.5
 20
0.0
 30
0.0
 11
-4.75
 21
0.0
 31
0.0
  0
LINE
  5
1C5
330
1BC
100
AcDbEntity
  8
0
  6
Continuous
 62
     0
370
     0
100
AcDbLine
 10
0.0
 20
-2.5
 30
0.0
 11
0.0
 21
-4.75
 31
0.0
  0
LINE
  5
1C6
330
1BC
100
AcDbEntity
  8
0
  6
Continuous
 62
     0
370
     0
100
AcDbLine
 10
2.5
 20
0.0
 30
0.0
 11
4.75
 21
0.0
 31
0.0
  0
ENDBLK
  5
1BE
330
1BC
100
AcDbEntity
  8
0
100
AcDbBlockEnd
  0
BLOCK
  5
1C9
330
1C8
100
AcDbEntity
  8
0
100
AcDbBlockBegin
  2
SW_CENTERMARKSYMBOL_14
 70
     0
 10
0.0
 20
0.0
 30
0.0
  3
SW_CENTERMARKSYMBOL_14
  1

  0
LINE
  5
1CB
330
1C8
100
AcDbEntity
  8
0
  6
Continuous
 62
     0
370
     0
100
AcDbLine
 10
0.0
 20
0.0
 30
0.0
 11
0.0
 21
2.5
 31
0.0
  0
LINE
  5
1CC
330
1C8
100
AcDbEntity
  8
0
  6
Continuous
 62
     0
370
     0
100
AcDbLine
 10
0.0
 20
0.0
 30
0.0
 11
-2.5
 21
0.0
 31
0.0
  0
LINE
  5
1CD
330
1C8
100
AcDbEntity
  8
0
  6
Continuous
 62
     0
370
     0
100
AcDbLine
 10
0.0
 20
0.0
 30
0.0
 11
0.0
 21
-2.5
 31
0.0
  0
LINE
  5
1CE
330
1C8
100
AcDbEntity
  8
0
  6
Continuous
 62
     0
370
     0
100
AcDbLine
 10
0.0
 20
0.0
 30
0.0
 11
2.5
 21
0.0
 31
0.0
  0
LINE
  5
1CF
330
1C8
100
AcDbEntity
  8
0
  6
Continuous
 62
     0
370
     0
100
AcDbLine
 10
0.0
 20
2.5
 30
0.0
 11
0.0
 21
4.75
 31
0.0
  0
LINE
  5
1D0
330
1C8
100
AcDbEntity
  8
0
  6
Continuous
 62
     0
370
     0
100
AcDbLine
 10
-2.5
 20
0.0
 30
0.0
 11
-4.75
 21
0.0
 31
0.0
  0
LINE
  5
1D1
330
1C8
100
AcDbEntity
  8
0
  6
Continuous
 62
     0
370
     0
100
AcDbLine
 10
0.0
 20
-2.5
 30
0.0
 11
0.0
 21
-4.75
 31
0.0
  0
LINE
  5
1D2
330
1C8
100
AcDbEntity
  8
0
  6
Continuous
 62
     0
370
     0
100
AcDbLine
 10
2.5
 20
0.0
 30
0.0
 11
4.75
 21
0.0
 31
0.0
  0
ENDBLK
  5
1CA
330
1C8
100
AcDbEntity
  8
0
100
AcDbBlockEnd
  0
BLOCK
  5
1D5
330
1D4
100
AcDbEntity
  8
0
100
AcDbBlockBegin
  2
SW_CENTERMARKSYMBOL_15
 70
     0
 10
0.0
 20
0.0
 30
0.0
  3
SW_CENTERMARKSYMBOL_15
  1

  0
LINE
  5
1D7
330
1D4
100
AcDbEntity
  8
0
  6
Continuous
 62
     0
370
     0
100
AcDbLine
 10
0.0
 20
0.0
 30
0.0
 11
0.0
 21
2.5
 31
0.0
  0
LINE
  5
1D8
330
1D4
100
AcDbEntity
  8
0
  6
Continuous
 62
     0
370
     0
100
AcDbLine
 10
0.0
 20
0.0
 30
0.0
 11
-2.5
 21
0.0
 31
0.0
  0
LINE
  5
1D9
330
1D4
100
AcDbEntity
  8
0
  6
Continuous
 62
     0
370
     0
100
AcDbLine
 10
0.0
 20
0.0
 30
0.0
 11
0.0
 21
-2.5
 31
0.0
  0
LINE
  5
1DA
330
1D4
100
AcDbEntity
  8
0
  6
Continuous
 62
     0
370
     0
100
AcDbLine
 10
0.0
 20
0.0
 30
0.0
 11
2.5
 21
0.0
 31
0.0
  0
LINE
  5
1DB
330
1D4
100
AcDbEntity
  8
0
  6
Continuous
 62
     0
370
     0
100
AcDbLine
 10
0.0
 20
2.5
 30
0.0
 11
0.0
 21
4.75
 31
0.0
  0
LINE
  5
1DC
330
1D4
100
AcDbEntity
  8
0
  6
Continuous
 62
     0
370
     0
100
AcDbLine
 10
-2.5
 20
0.0
 30
0.0
 11
-4.75
 21
0.0
 31
0.0
  0
LINE
  5
1DD
330
1D4
100
AcDbEntity
  8
0
  6
Continuous
 62
     0
370
     0
100
AcDbLine
 10
0.0
 20
-2.5
 30
0.0
 11
0.0
 21
-4.75
 31
0.0
  0
LINE
  5
1DE
330
1D4
100
AcDbEntity
  8
0
  6
Continuous
 62
     0
370
     0
100
AcDbLine
 10
2.5
 20
0.0
 30
0.0
 11
4.75
 21
0.0
 31
0.0
  0
ENDBLK
  5
1D6
330
1D4
100
AcDbEntity
  8
0
100
AcDbBlockEnd
  0
BLOCK
  5
1E1
330
1E0
100
AcDbEntity
  8
0
100
AcDbBlockBegin
  2
SW_CENTERMARKSYMBOL_16
 70
     0
 10
0.0
 20
0.0
 30
0.0
  3
SW_CENTERMARKSYMBOL_16
  1

  0
LINE
  5
1E3
330
1E0
100
AcDbEntity
  8
0
  6
Continuous
 62
     0
370
     0
100
AcDbLine
 10
0.0
 20
0.0
 30
0.0
 11
0.0
 21
2.5
 31
0.0
  0
LINE
  5
1E4
330
1E0
100
AcDbEntity
  8
0
  6
Continuous
 62
     0
370
     0
100
AcDbLine
 10
0.0
 20
0.0
 30
0.0
 11
-2.5
 21
0.0
 31
0.0
  0
LINE
  5
1E5
330
1E0
100
AcDbEntity
  8
0
  6
Continuous
 62
     0
370
     0
100
AcDbLine
 10
0.0
 20
0.0
 30
0.0
 11
0.0
 21
-2.5
 31
0.0
  0
LINE
  5
1E6
330
1E0
100
AcDbEntity
  8
0
  6
Continuous
 62
     0
370
     0
100
AcDbLine
 10
0.0
 20
0.0
 30
0.0
 11
2.5
 21
0.0
 31
0.0
  0
LINE
  5
1E7
330
1E0
100
AcDbEntity
  8
0
  6
Continuous
 62
     0
370
     0
100
AcDbLine
 10
0.0
 20
2.5
 30
0.0
 11
0.0
 21
4.75
 31
0.0
  0
LINE
  5
1E8
330
1E0
100
AcDbEntity
  8
0
  6
Continuous
 62
     0
370
     0
100
AcDbLine
 10
-2.5
 20
0.0
 30
0.0
 11
-4.75
 21
0.0
 31
0.0
  0
LINE
  5
1E9
330
1E0
100
AcDbEntity
  8
0
  6
Continuous
 62
     0
370
     0
100
AcDbLine
 10
0.0
 20
-2.5
 30
0.0
 11
0.0
 21
-4.75
 31
0.0
  0
LINE
  5
1EA
330
1E0
100
AcDbEntity
  8
0
  6
Continuous
 62
     0
370
     0
100
AcDbLine
 10
2.5
 20
0.0
 30
0.0
 11
4.75
 21
0.0
 31
0.0
  0
ENDBLK
  5
1E2
330
1E0
100
AcDbEntity
  8
0
100
AcDbBlockEnd
  0
BLOCK
  5
1ED
330
1EC
100
AcDbEntity
  8
0
100
AcDbBlockBegin
  2
SW_CENTERMARKSYMBOL_17
 70
     0
 10
0.0
 20
0.0
 30
0.0
  3
SW_CENTERMARKSYMBOL_17
  1

  0
LINE
  5
1EF
330
1EC
100
AcDbEntity
  8
0
  6
Continuous
 62
     0
370
     0
100
AcDbLine
 10
0.0
 20
0.0
 30
0.0
 11
0.0
 21
2.5
 31
0.0
  0
LINE
  5
1F0
330
1EC
100
AcDbEntity
  8
0
  6
Continuous
 62
     0
370
     0
100
AcDbLine
 10
0.0
 20
0.0
 30
0.0
 11
-2.5
 21
0.0
 31
0.0
  0
LINE
  5
1F1
330
1EC
100
AcDbEntity
  8
0
  6
Continuous
 62
     0
370
     0
100
AcDbLine
 10
0.0
 20
0.0
 30
0.0
 11
0.0
 21
-2.5
 31
0.0
  0
LINE
  5
1F2
330
1EC
100
AcDbEntity
  8
0
  6
Continuous
 62
     0
370
     0
100
AcDbLine
 10
0.0
 20
0.0
 30
0.0
 11
2.5
 21
0.0
 31
0.0
  0
LINE
  5
1F3
330
1EC
100
AcDbEntity
  8
0
  6
Continuous
 62
     0
370
     0
100
AcDbLine
 10
0.0
 20
2.5
 30
0.0
 11
0.0
 21
4.75
 31
0.0
  0
LINE
  5
1F4
330
1EC
100
AcDbEntity
  8
0
  6
Continuous
 62
     0
370
     0
100
AcDbLine
 10
-2.5
 20
0.0
 30
0.0
 11
-4.75
 21
0.0
 31
0.0
  0
LINE
  5
1F5
330
1EC
100
AcDbEntity
  8
0
  6
Continuous
 62
     0
370
     0
100
AcDbLine
 10
0.0
 20
-2.5
 30
0.0
 11
0.0
 21
-4.75
 31
0.0
  0
LINE
  5
1F6
330
1EC
100
AcDbEntity
  8
0
  6
Continuous
 62
     0
370
     0
100
AcDbLine
 10
2.5
 20
0.0
 30
0.0
 11
4.75
 21
0.0
 31
0.0
  0
ENDBLK
  5
1EE
330
1EC
100
AcDbEntity
  8
0
100
AcDbBlockEnd
  0
BLOCK
  5
1F9
330
1F8
100
AcDbEntity
  8
0
100
AcDbBlockBegin
  2
SW_CENTERMARKSYMBOL_18
 70
     0
 10
0.0
 20
0.0
 30
0.0
  3
SW_CENTERMARKSYMBOL_18
  1

  0
LINE
  5
1FB
330
1F8
100
AcDbEntity
  8
0
  6
Continuous
 62
     0
370
     0
100
AcDbLine
 10
0.0
 20
0.0
 30
0.0
 11
0.0
 21
2.5
 31
0.0
  0
LINE
  5
1FC
330
1F8
100
AcDbEntity
  8
0
  6
Continuous
 62
     0
370
     0
100
AcDbLine
 10
0.0
 20
0.0
 30
0.0
 11
-2.5
 21
0.0
 31
0.0
  0
LINE
  5
1FD
330
1F8
100
AcDbEntity
  8
0
  6
Continuous
 62
     0
370
     0
100
AcDbLine
 10
0.0
 20
0.0
 30
0.0
 11
0.0
 21
-2.5
 31
0.0
  0
LINE
  5
1FE
330
1F8
100
AcDbEntity
  8
0
  6
Continuous
 62
     0
370
     0
100
AcDbLine
 10
0.0
 20
0.0
 30
0.0
 11
2.5
 21
0.0
 31
0.0
  0
LINE
  5
1FF
330
1F8
100
AcDbEntity
  8
0
  6
Continuous
 62
     0
370
     0
100
AcDbLine
 10
0.0
 20
2.5
 30
0.0
 11
0.0
 21
4.75
 31
0.0
  0
LINE
  5
200
330
1F8
100
AcDbEntity
  8
0
  6
Continuous
 62
     0
370
     0
100
AcDbLine
 10
-2.5
 20
0.0
 30
0.0
 11
-4.75
 21
0.0
 31
0.0
  0
LINE
  5
201
330
1F8
100
AcDbEntity
  8
0
  6
Continuous
 62
     0
370
     0
100
AcDbLine
 10
0.0
 20
-2.5
 30
0.0
 11
0.0
 21
-4.75
 31
0.0
  0
LINE
  5
202
330
1F8
100
AcDbEntity
  8
0
  6
Continuous
 62
     0
370
     0
100
AcDbLine
 10
2.5
 20
0.0
 30
0.0
 11
4.75
 21
0.0
 31
0.0
  0
ENDBLK
  5
1FA
330
1F8
100
AcDbEntity
  8
0
100
AcDbBlockEnd
  0
BLOCK
  5
205
330
204
100
AcDbEntity
  8
0
100
AcDbBlockBegin
  2
SW_CENTERMARKSYMBOL_19
 70
     0
 10
0.0
 20
0.0
 30
0.0
  3
SW_CENTERMARKSYMBOL_19
  1

  0
LINE
  5
207
330
204
100
AcDbEntity
  8
0
  6
Continuous
 62
     0
370
     0
100
AcDbLine
 10
0.0
 20
0.0
 30
0.0
 11
0.0
 21
2.5
 31
0.0
  0
LINE
  5
208
330
204
100
AcDbEntity
  8
0
  6
Continuous
 62
     0
370
     0
100
AcDbLine
 10
0.0
 20
0.0
 30
0.0
 11
-2.5
 21
0.0
 31
0.0
  0
LINE
  5
209
330
204
100
AcDbEntity
  8
0
  6
Continuous
 62
     0
370
     0
100
AcDbLine
 10
0.0
 20
0.0
 30
0.0
 11
0.0
 21
-2.5
 31
0.0
  0
LINE
  5
20A
330
204
100
AcDbEntity
  8
0
  6
Continuous
 62
     0
370
     0
100
AcDbLine
 10
0.0
 20
0.0
 30
0.0
 11
2.5
 21
0.0
 31
0.0
  0
LINE
  5
20B
330
204
100
AcDbEntity
  8
0
  6
Continuous
 62
     0
370
     0
100
AcDbLine
 10
0.0
 20
2.5
 30
0.0
 11
0.0
 21
4.75
 31
0.0
  0
LINE
  5
20C
330
204
100
AcDbEntity
  8
0
  6
Continuous
 62
     0
370
     0
100
AcDbLine
 10
-2.5
 20
0.0
 30
0.0
 11
-4.75
 21
0.0
 31
0.0
  0
LINE
  5
20D
330
204
100
AcDbEntity
  8
0
  6
Continuous
 62
     0
370
     0
100
AcDbLine
 10
0.0
 20
-2.5
 30
0.0
 11
0.0
 21
-4.75
 31
0.0
  0
LINE
  5
20E
330
204
100
AcDbEntity
  8
0
  6
Continuous
 62
     0
370
     0
100
AcDbLine
 10
2.5
 20
0.0
 30
0.0
 11
4.75
 21
0.0
 31
0.0
  0
ENDBLK
  5
206
330
204
100
AcDbEntity
  8
0
100
AcDbBlockEnd
  0
BLOCK
  5
211
330
210
100
AcDbEntity
  8
0
100
AcDbBlockBegin
  2
SW_CENTERMARKSYMBOL_20
 70
     0
 10
0.0
 20
0.0
 30
0.0
  3
SW_CENTERMARKSYMBOL_20
  1

  0
LINE
  5
213
330
210
100
AcDbEntity
  8
0
  6
Continuous
 62
     0
370
     0
100
AcDbLine
 10
0.0
 20
0.0
 30
0.0
 11
0.0
 21
2.5
 31
0.0
  0
LINE
  5
214
330
210
100
AcDbEntity
  8
0
  6
Continuous
 62
     0
370
     0
100
AcDbLine
 10
0.0
 20
0.0
 30
0.0
 11
-2.5
 21
0.0
 31
0.0
  0
LINE
  5
215
330
210
100
AcDbEntity
  8
0
  6
Continuous
 62
     0
370
     0
100
AcDbLine
 10
0.0
 20
0.0
 30
0.0
 11
0.0
 21
-2.5
 31
0.0
  0
LINE
  5
216
330
210
100
AcDbEntity
  8
0
  6
Continuous
 62
     0
370
     0
100
AcDbLine
 10
0.0
 20
0.0
 30
0.0
 11
2.5
 21
0.0
 31
0.0
  0
LINE
  5
217
330
210
100
AcDbEntity
  8
0
  6
Continuous
 62
     0
370
     0
100
AcDbLine
 10
0.0
 20
2.5
 30
0.0
 11
0.0
 21
4.75
 31
0.0
  0
LINE
  5
218
330
210
100
AcDbEntity
  8
0
  6
Continuous
 62
     0
370
     0
100
AcDbLine
 10
-2.5
 20
0.0
 30
0.0
 11
-4.75
 21
0.0
 31
0.0
  0
LINE
  5
219
330
210
100
AcDbEntity
  8
0
  6
Continuous
 62
     0
370
     0
100
AcDbLine
 10
0.0
 20
-2.5
 30
0.0
 11
0.0
 21
-4.75
 31
0.0
  0
LINE
  5
21A
330
210
100
AcDbEntity
  8
0
  6
Continuous
 62
     0
370
     0
100
AcDbLine
 10
2.5
 20
0.0
 30
0.0
 11
4.75
 21
0.0
 31
0.0
  0
ENDBLK
  5
212
330
210
100
AcDbEntity
  8
0
100
AcDbBlockEnd
  0
BLOCK
  5
21D
330
21C
100
AcDbEntity
  8
0
100
AcDbBlockBegin
  2
SW_CENTERMARKSYMBOL_21
 70
     0
 10
0.0
 20
0.0
 30
0.0
  3
SW_CENTERMARKSYMBOL_21
  1

  0
LINE
  5
21F
330
21C
100
AcDbEntity
  8
0
  6
Continuous
 62
     0
370
     0
100
AcDbLine
 10
0.0
 20
0.0
 30
0.0
 11
0.0
 21
2.5
 31
0.0
  0
LINE
  5
220
330
21C
100
AcDbEntity
  8
0
  6
Continuous
 62
     0
370
     0
100
AcDbLine
 10
0.0
 20
0.0
 30
0.0
 11
-2.5
 21
0.0
 31
0.0
  0
LINE
  5
221
330
21C
100
AcDbEntity
  8
0
  6
Continuous
 62
     0
370
     0
100
AcDbLine
 10
0.0
 20
0.0
 30
0.0
 11
0.0
 21
-2.5
 31
0.0
  0
LINE
  5
222
330
21C
100
AcDbEntity
  8
0
  6
Continuous
 62
     0
370
     0
100
AcDbLine
 10
0.0
 20
0.0
 30
0.0
 11
2.5
 21
0.0
 31
0.0
  0
LINE
  5
223
330
21C
100
AcDbEntity
  8
0
  6
Continuous
 62
     0
370
     0
100
AcDbLine
 10
0.0
 20
2.5
 30
0.0
 11
0.0
 21
4.75
 31
0.0
  0
LINE
  5
224
330
21C
100
AcDbEntity
  8
0
  6
Continuous
 62
     0
370
     0
100
AcDbLine
 10
-2.5
 20
0.0
 30
0.0
 11
-4.75
 21
0.0
 31
0.0
  0
LINE
  5
225
330
21C
100
AcDbEntity
  8
0
  6
Continuous
 62
     0
370
     0
100
AcDbLine
 10
0.0
 20
-2.5
 30
0.0
 11
0.0
 21
-4.75
 31
0.0
  0
LINE
  5
226
330
21C
100
AcDbEntity
  8
0
  6
Continuous
 62
     0
370
     0
100
AcDbLine
 10
2.5
 20
0.0
 30
0.0
 11
4.75
 21
0.0
 31
0.0
  0
ENDBLK
  5
21E
330
21C
100
AcDbEntity
  8
0
100
AcDbBlockEnd
  0
BLOCK
  5
229
330
228
100
AcDbEntity
  8
0
100
AcDbBlockBegin
  2
SW_DATUMTAG_0
 70
     0
 10
0.0
 20
0.0
 30
0.0
  3
SW_DATUMTAG_0
  1

  0
LINE
  5
22B
330
228
100
AcDbEntity
  8
0
  6
Continuous
 62
     0
370
     0
100
AcDbLine
 10
1.8958334113
 20
32.5487845108
 30
0.0
 11
1.8958334113
 21
6.2781251702
 31
0.0
  0
LINE
  5
22C
330
228
100
AcDbEntity
  8
0
  6
Continuous
 62
     0
370
     0
100
AcDbLine
 10
17.7302761114
 20
32.5487845108
 30
0.0
 11
-0.5041665887
 21
32.5487845108
 31
0.0
  0
LINE
  5
22D
330
228
100
AcDbEntity
  8
0
  6
Continuous
 62
     0
370
     0
100
AcDbLine
 10
5.3958334113
 20
-0.7218748298
 30
0.0
 11
-1.6041665887
 21
-0.7218748298
 31
0.0
  0
LINE
  5
22E
330
228
100
AcDbEntity
  8
0
  6
Continuous
 62
     0
370
     0
100
AcDbLine
 10
-1.6041665887
 20
-0.7218748298
 30
0.0
 11
-1.6041665887
 21
6.2781251702
 31
0.0
  0
LINE
  5
22F
330
228
100
AcDbEntity
  8
0
  6
Continuous
 62
     0
370
     0
100
AcDbLine
 10
-1.6041665887
 20
6.2781251702
 30
0.0
 11
5.3958334113
 21
6.2781251702
 31
0.0
  0
LINE
  5
230
330
228
100
AcDbEntity
  8
0
  6
Continuous
 62
     0
370
     0
100
AcDbLine
 10
5.3958334113
 20
6.2781251702
 30
0.0
 11
5.3958334113
 21
-0.7218748298
 31
0.0
  0
MTEXT
  5
231
330
228
100
AcDbEntity
  8
0
  6
Continuous
 62
     0
370
     0
100
AcDbMText
 10
0.0
 20
4.5117370892
 30
0.0
 40
3.5
 41
0.0
 71
     1
 72
     1
  1
C
  7
SLDTEXTSTYLE0
 73
     1
 44
1.0
  0
SOLID
  5
232
330
228
100
AcDbEntity
  8
0
  6
Continuous
 62
     0
370
     0
100
AcDbTrace
 10
3.2958334113
 20
32.5487845108
 30
0.0
 11
0.4958334113
 21
32.5487845108
 31
0.0
 12
1.8958334113
 22
30.0987845108
 32
0.0
 13
1.8958334113
 23
30.0987845108
 33
0.0
  0
ENDBLK
  5
22A
330
228
100
AcDbEntity
  8
0
100
AcDbBlockEnd
  0
BLOCK
  5
23C
330
23B
100
AcDbEntity
  8
0
100
AcDbBlockBegin
  2
*D36
 70
     1
 10
0.0
 20
0.0
 30
0.0
  3
*D36
  1

  0
SOLID
  5
23E
330
23B
100
AcDbEntity
  8
0
  6
Continuous
 62
     7
370
     0
100
AcDbTrace
 10
71.1109259087
 20
99.5785083263
 30
0.0
 11
68.4168490724
 21
97.6028519796
 31
0.0
 12
69.1352695621
 22
96.88443149
 32
0.0
 13
69.1352695621
 23
96.88443149
 33
0.0
  0
LINE
  5
23F
330
23B
100
AcDbEntity
  8
0
  6
Continuous
 62
     7
370
     0
100
AcDbLine
 10
71.1109259087
 20
99.5785083263
 30
0.0
 11
55.1120468062
 21
83.5796292237
 31
0.0
  0
LINE
  5
240
330
23B
100
AcDbEntity
  8
0
  6
Continuous
 62
     7
370
     0
100
AcDbLine
 10
71.1109259087
 20
99.5785083263
 30
0.0
 11
85.2530615324
 21
113.72064395
 31
0.0
  0
MTEXT
  5
241
330
23B
100
AcDbEntity
  8
0
  6
Continuous
 62
     7
370
     0
100
AcDbMText
 10
51.9330973457
 20
86.7585786842
 30
3.1
 40
3.5
 41
0.0
 71
     1
 72
     1
  1
%%c
  7
SLDTEXTSTYLE0
 11
0.7071067811865476
 21
0.7071067811865475
 31
0.0
 73
     1
 44
1.0
  0
MTEXT
  5
242
330
23B
100
AcDbEntity
  8
0
  6
Continuous
 62
     7
370
     0
100
AcDbMText
 10
55.6277056855
 20
90.5288081014
 30
3.1
 40
3.5
 41
0.0
 71
     1
 72
     1
  1
20
  7
SLDTEXTSTYLE0
 11
0.7071067811865476
 21
0.7071067811865475
 31
0.0
 73
     1
 44
1.0
  0
ENDBLK
  5
23D
330
23B
100
AcDbEntity
  8
0
100
AcDbBlockEnd
  0
BLOCK
  5
246
330
245
100
AcDbEntity
  8
0
100
AcDbBlockBegin
  2
*D37
 70
     1
 10
0.0
 20
0.0
 30
0.0
  3
*D37
  1

  0
SOLID
  5
248
330
245
100
AcDbEntity
  8
0
  6
Continuous
 62
     7
370
     0
100
AcDbTrace
 10
75.6819937206
 20
102.3194491192
 30
0.0
 11
73.5910528154
 21
99.7138332359
 31
0.0
 12
74.4709346257
 22
99.2058332359
 32
0.0
 13
74.4709346257
 23
99.2058332359
 33
0.0
  0
LINE
  5
249
330
245
100
AcDbEntity
  8
0
  6
Continuous
 62
     7
370
     0
100
AcDbLine
 10
75.6819937206
 20
102.3194491192
 30
0.0
 11
56.9376431145
 21
69.8532815146
 31
0.0
  0
LINE
  5
24A
330
245
100
AcDbEntity
  8
0
  6
Continuous
 62
     7
370
     0
100
AcDbLine
 10
75.6819937206
 20
102.3194491192
 30
0.0
 11
80.6819937206
 21
110.9797031571
 31
0.0
  0
MTEXT
  5
24B
330
245
100
AcDbEntity
  8
0
  6
Continuous
 62
     7
370
     0
100
AcDbMText
 10
53.0377237031
 20
72.1049010365
 30
3.1
 40
3.5
 41
0.0
 71
     1
 72
     1
  1
%%c
  7
SLDTEXTSTYLE0
 11
0.4999999999999933
 21
0.8660254037844425
 31
0.0
 73
     1
 44
1.0
  0
MTEXT
  5
24C
330
245
100
AcDbEntity
  8
0
  6
Continuous
 62
     7
370
     0
100
AcDbMText
 10
55.6306341389
 20
76.7028980041
 30
3.1
 40
3.5
 41
0.0
 71
     1
 72
     1
  1
10
  7
SLDTEXTSTYLE0
 11
0.4999999999999933
 21
0.8660254037844425
 31
0.0
 73
     1
 44
1.0
  0
ENDBLK
  5
247
330
245
100
AcDbEntity
  8
0
100
AcDbBlockEnd
  0
BLOCK
  5
24F
330
24E
100
AcDbEntity
  8
0
100
AcDbBlockBegin
  2
*D38
 70
     1
 10
0.0
 20
0.0
 30
0.0
  3
*D38
  1

  0
SOLID
  5
251
330
24E
100
AcDbEntity
  8
0
  6
Continuous
 62
     7
370
     0
100
AcDbTrace
 10
215.2530615324
 20
99.5785083263
 30
0.0
 11
217.2287178791
 21
96.88443149
 31
0.0
 12
217.9471383688
 22
97.6028519796
 32
0.0
 13
217.9471383688
 23
97.6028519796
 33
0.0
  0
LINE
  5
252
330
24E
100
AcDbEntity
  8
0
  6
Continuous
 62
     7
370
     0
100
AcDbLine
 10
215.2530615324
 20
99.5785083263
 30
0.0
 11
232.7846562826
 21
82.0469135761
 31
0.0
  0
LINE
  5
253
330
24E
100
AcDbEntity
  8
0
  6
Continuous
 62
     7
370
     0
100
AcDbLine
 10
215.2530615324
 20
99.5785083263
 30
0.0
 11
201.1109259087
 21
113.72064395
 31
0.0
  0
MTEXT
  5
254
330
24E
100
AcDbEntity
  8
0
  6
Continuous
 62
     7
370
     0
100
AcDbMText
 10
226.564687959
 20
94.6280801225
 30
3.1
 40
3.5
 41
0.0
 71
     1
 72
     1
  1
%%c
  7
SLDTEXTSTYLE0
 11
0.7071067811865561
 21
-0.7071067811865389
 31
0.0
 73
     1
 44
1.0
  0
MTEXT
  5
255
330
24E
100
AcDbEntity
  8
0
  6
Continuous
 62
     7
370
     0
100
AcDbMText
 10
230.3349173762
 20
90.9334717827
 30
3.1
 40
3.5
 41
0.0
 71
     1
 72
     1
  1
20
  7
SLDTEXTSTYLE0
 11
0.7071067811865561
 21
-0.7071067811865389
 31
0.0
 73
     1
 44
1.0
  0
ENDBLK
  5
250
330
24E
100
AcDbEntity
  8
0
100
AcDbBlockEnd
  0
BLOCK
  5
258
330
257
100
AcDbEntity
  8
0
100
AcDbBlockBegin
  2
*D39
 70
     1
 10
0.0
 20
0.0
 30
0.0
  3
*D39
  1

  0
SOLID
  5
25A
330
257
100
AcDbEntity
  8
0
  6
Continuous
 62
     7
370
     0
100
AcDbTrace
 10
246.1819937206
 20
108.1495761381
 30
0.0
 11
246.6899937206
 21
111.4515761381
 31
0.0
 12
245.6739937206
 22
111.4515761381
 32
0.0
 13
245.6739937206
 23
111.4515761381
 33
0.0
  0
SOLID
  5
25B
330
257
100
AcDbEntity
  8
0
  6
Continuous
 62
     7
370
     0
100
AcDbTrace
 10
246.1819937206
 20
105.1495761381
 30
0.0
 11
245.6739937206
 21
101.8475761381
 31
0.0
 12
246.6899937206
 22
101.8475761381
 32
0.0
 13
246.6899937206
 23
101.8475761381
 33
0.0
  0
LINE
  5
25C
330
257
100
AcDbEntity
  8
0
  6
Continuous
 62
     7
370
     0
100
AcDbLine
 10
199.2951337539
 20
108.1495761381
 30
0.0
 11
247.1819937206
 21
108.1495761381
 31
0.0
  0
LINE
  5
25D
330
257
100
AcDbEntity
  8
0
  6
Continuous
 62
     7
370
     0
100
AcDbLine
 10
199.2951337539
 20
105.1495761381
 30
0.0
 11
247.1819937206
 21
105.1495761381
 31
0.0
  0
LINE
  5
25E
330
257
100
AcDbEntity
  8
0
  6
Continuous
 62
     7
370
     0
100
AcDbLine
 10
246.1819937206
 20
108.1495761381
 30
0.0
 11
246.1819937206
 21
124.3392468825
 31
0.0
  0
LINE
  5
25F
330
257
100
AcDbEntity
  8
0
  6
Continuous
 62
     7
370
     0
100
AcDbLine
 10
246.1819937206
 20
108.1495761381
 30
0.0
 11
246.1819937206
 21
105.1495761381
 31
0.0
  0
LINE
  5
260
330
257
100
AcDbEntity
  8
0
  6
Continuous
 62
     7
370
     0
100
AcDbLine
 10
246.1819937206
 20
105.1495761381
 30
0.0
 11
246.1819937206
 21
98.7995761381
 31
0.0
  0
MTEXT
  5
261
330
257
100
AcDbEntity
  8
0
  6
Continuous
 62
     7
370
     0
100
AcDbMText
 10
241.670256806
 20
118.9093857468
 30
3.1
 40
3.5
 41
0.0
 71
     1
 72
     1
  1
3
  7
SLDTEXTSTYLE0
 11
-7.044195017643634E-15
 21
1.0
 31
0.0
 73
     1
 44
1.0
  0
ENDBLK
  5
259
330
257
100
AcDbEntity
  8
0
100
AcDbBlockEnd
  0
BLOCK
  5
264
330
263
100
AcDbEntity
  8
0
100
AcDbBlockBegin
  2
*D40
 70
     1
 10
0.0
 20
0.0
 30
0.0
  3
*D40
  1

  0
SOLID
  5
266
330
263
100
AcDbEntity
  8
0
  6
Continuous
 62
     7
370
     0
100
AcDbTrace
 10
208.1819937206
 20
86.6495761381
 30
0.0
 11
204.8799937206
 21
87.1575761381
 31
0.0
 12
204.8799937206
 22
86.1415761381
 32
0.0
 13
204.8799937206
 23
86.1415761381
 33
0.0
  0
SOLID
  5
267
330
263
100
AcDbEntity
  8
0
  6
Continuous
 62
     7
370
     0
100
AcDbTrace
 10
78.1819937206
 20
86.6495761381
 30
0.0
 11
81.4839937206
 21
86.1415761381
 31
0.0
 12
81.4839937206
 22
87.1575761381
 32
0.0
 13
81.4839937206
 23
87.1575761381
 33
0.0
  0
LINE
  5
268
330
263
100
AcDbEntity
  8
0
  6
Continuous
 62
     7
370
     0
100
AcDbLine
 10
208.1819937206
 20
105.6495761381
 30
0.0
 11
208.1819937206
 21
85.6495761381
 31
0.0
  0
LINE
  5
269
330
263
100
AcDbEntity
  8
0
  6
Continuous
 62
     7
370
     0
100
AcDbLine
 10
78.1819937206
 20
105.6495761381
 30
0.0
 11
78.1819937206
 21
85.6495761381
 31
0.0
  0
LINE
  5
26A
330
263
100
AcDbEntity
  8
0
  6
Continuous
 62
     7
370
     0
100
AcDbLine
 10
208.1819937206
 20
86.6495761381
 30
0.0
 11
78.1819937206
 21
86.6495761381
 31
0.0
  0
MTEXT
  5
26B
330
263
100
AcDbEntity
  8
0
  6
Continuous
 62
     7
370
     0
100
AcDbMText
 10
137.880952192
 20
91.1613130527
 30
3.1
 40
3.5
 41
0.0
 71
     1
 72
     1
  1
130
  7
SLDTEXTSTYLE0
 73
     1
 44
1.0
  0
ENDBLK
  5
265
330
263
100
AcDbEntity
  8
0
100
AcDbBlockEnd
  0
BLOCK
  5
270
330
26F
100
AcDbEntity
  8
0
100
AcDbBlockBegin
  2
SW_CENTERMARKSYMBOL_22
 70
     0
 10
0.0
 20
0.0
 30
0.0
  3
SW_CENTERMARKSYMBOL_22
  1

  0
LINE
  5
272
330
26F
100
AcDbEntity
  8
0
  6
Continuous
 62
     0
370
     0
100
AcDbLine
 10
0.0
 20
0.0
 30
0.0
 11
0.0
 21
2.5
 31
0.0
  0
LINE
  5
273
330
26F
100
AcDbEntity
  8
0
  6
Continuous
 62
     0
370
     0
100
AcDbLine
 10
0.0
 20
0.0
 30
0.0
 11
-2.5
 21
0.0
 31
0.0
  0
LINE
  5
274
330
26F
100
AcDbEntity
  8
0
  6
Continuous
 62
     0
370
     0
100
AcDbLine
 10
0.0
 20
0.0
 30
0.0
 11
0.0
 21
-2.5
 31
0.0
  0
LINE
  5
275
330
26F
100
AcDbEntity
  8
0
  6
Continuous
 62
     0
370
     0
100
AcDbLine
 10
0.0
 20
0.0
 30
0.0
 11
2.5
 21
0.0
 31
0.0
  0
LINE
  5
276
330
26F
100
AcDbEntity
  8
0
  6
Continuous
 62
     0
370
     0
100
AcDbLine
 10
0.0
 20
5.0
 30
0.0
 11
0.0
 21
7.5
 31
0.0
  0
LINE
  5
277
330
26F
100
AcDbEntity
  8
0
  6
Continuous
 62
     0
370
     0
100
AcDbLine
 10
-5.0
 20
0.0
 30
0.0
 11
-7.5
 21
0.0
 31
0.0
  0
LINE
  5
278
330
26F
100
AcDbEntity
  8
0
  6
Continuous
 62
     0
370
     0
100
AcDbLine
 10
0.0
 20
-5.0
 30
0.0
 11
0.0
 21
-7.5
 31
0.0
  0
LINE
  5
279
330
26F
100
AcDbEntity
  8
0
  6
Continuous
 62
     0
370
     0
100
AcDbLine
 10
5.0
 20
0.0
 30
0.0
 11
7.5
 21
0.0
 31
0.0
  0
ENDBLK
  5
271
330
26F
100
AcDbEntity
  8
0
100
AcDbBlockEnd
  0
BLOCK
  5
27C
330
27B
100
AcDbEntity
  8
0
100
AcDbBlockBegin
  2
SW_DATUMTAG_1
 70
     0
 10
0.0
 20
0.0
 30
0.0
  3
SW_DATUMTAG_1
  1

  0
LINE
  5
27E
330
27B
100
AcDbEntity
  8
0
  6
Continuous
 62
     0
370
     0
100
AcDbLine
 10
1.7256945139
 20
-26.4028167451
 30
0.0
 11
1.7256945139
 21
-0.7218748298
 31
0.0
  0
LINE
  5
27F
330
27B
100
AcDbEntity
  8
0
  6
Continuous
 62
     0
370
     0
100
AcDbLine
 10
19.8742290046
 20
-26.4028167451
 30
0.0
 11
-0.6743054861
 21
-26.4028167451
 31
0.0
  0
LINE
  5
280
330
27B
100
AcDbEntity
  8
0
  6
Continuous
 62
     0
370
     0
100
AcDbLine
 10
5.2256945139
 20
-0.7218748298
 30
0.0
 11
-1.7743054861
 21
-0.7218748298
 31
0.0
  0
LINE
  5
281
330
27B
100
AcDbEntity
  8
0
  6
Continuous
 62
     0
370
     0
100
AcDbLine
 10
-1.7743054861
 20
-0.7218748298
 30
0.0
 11
-1.7743054861
 21
6.2781251702
 31
0.0
  0
LINE
  5
282
330
27B
100
AcDbEntity
  8
0
  6
Continuous
 62
     0
370
     0
100
AcDbLine
 10
-1.7743054861
 20
6.2781251702
 30
0.0
 11
5.2256945139
 21
6.2781251702
 31
0.0
  0
LINE
  5
283
330
27B
100
AcDbEntity
  8
0
  6
Continuous
 62
     0
370
     0
100
AcDbLine
 10
5.2256945139
 20
6.2781251702
 30
0.0
 11
5.2256945139
 21
-0.7218748298
 31
0.0
  0
MTEXT
  5
284
330
27B
100
AcDbEntity
  8
0
  6
Continuous
 62
     0
370
     0
100
AcDbMText
 10
0.0
 20
4.5117370892
 30
3.0
 40
3.5
 41
0.0
 71
     1
 72
     1
  1
A
  7
SLDTEXTSTYLE0
 73
     1
 44
1.0
  0
SOLID
  5
285
330
27B
100
AcDbEntity
  8
0
  6
Continuous
 62
     0
370
     0
100
AcDbTrace
 10
3.1256945139
 20
-26.4028167451
 30
0.0
 11
0.3256945139
 21
-26.4028167451
 31
0.0
 12
1.7256945139
 22
-23.9528167451
 32
0.0
 13
1.7256945139
 23
-23.9528167451
 33
0.0
  0
ENDBLK
  5
27D
330
27B
100
AcDbEntity
  8
0
100
AcDbBlockEnd
  0
BLOCK
  5
288
330
287
100
AcDbEntity
  8
0
100
AcDbBlockBegin
  2
SW_DATUMTAG_2
 70
     0
 10
0.0
 20
0.0
 30
0.0
  3
SW_DATUMTAG_2
  1

  0
LINE
  5
28A
330
287
100
AcDbEntity
  8
0
  6
Continuous
 62
     0
370
     0
100
AcDbLine
 10
27.1068813699
 20
2.7781251702
 30
0.0
 11
4.8392361579
 21
2.7781251702
 31
0.0
  0
LINE
  5
28B
330
287
100
AcDbEntity
  8
0
  6
Continuous
 62
     0
370
     0
100
AcDbLine
 10
27.1068813699
 20
-30.7750145473
 30
0.0
 11
27.1068813699
 21
5.1781251702
 31
0.0
  0
LINE
  5
28C
330
287
100
AcDbEntity
  8
0
  6
Continuous
 62
     0
370
     0
100
AcDbLine
 10
4.8392361579
 20
-0.7218748298
 30
0.0
 11
-2.1607638421
 21
-0.7218748298
 31
0.0
  0
LINE
  5
28D
330
287
100
AcDbEntity
  8
0
  6
Continuous
 62
     0
370
     0
100
AcDbLine
 10
-2.1607638421
 20
-0.7218748298
 30
0.0
 11
-2.1607638421
 21
6.2781251702
 31
0.0
  0
LINE
  5
28E
330
287
100
AcDbEntity
  8
0
  6
Continuous
 62
     0
370
     0
100
AcDbLine
 10
-2.1607638421
 20
6.2781251702
 30
0.0
 11
4.8392361579
 21
6.2781251702
 31
0.0
  0
LINE
  5
28F
330
287
100
AcDbEntity
  8
0
  6
Continuous
 62
     0
370
     0
100
AcDbLine
 10
4.8392361579
 20
6.2781251702
 30
0.0
 11
4.8392361579
 21
-0.7218748298
 31
0.0
  0
MTEXT
  5
290
330
287
100
AcDbEntity
  8
0
  6
Continuous
 62
     0
370
     0
100
AcDbMText
 10
0.0
 20
4.5117370892
 30
3.0
 40
3.5
 41
0.0
 71
     1
 72
     1
  1
B
  7
SLDTEXTSTYLE0
 73
     1
 44
1.0
  0
SOLID
  5
291
330
287
100
AcDbEntity
  8
0
  6
Continuous
 62
     0
370
     0
100
AcDbTrace
 10
27.1068813699
 20
1.3781251702
 30
0.0
 11
27.1068813699
 21
4.1781251702
 31
0.0
 12
24.6568813699
 22
2.7781251702
 32
0.0
 13
24.6568813699
 23
2.7781251702
 33
0.0
  0
ENDBLK
  5
289
330
287
100
AcDbEntity
  8
0
100
AcDbBlockEnd
  0
ENDSEC
  0
SECTION
  2
ENTITIES
  0
IMAGE
  5
47
330
1F
100
AcDbEntity
  8
0
 92
      140
310
8C00000001000000840000000600000005000000798D7B47C40037401484C14000F469400000000000000000748D7B47C4003740D1BF2A4B7C406B4000000000000000009B624213CB2F2840D0BF2A4B7C406B400000000000000000A7624213CB2F28401384C14000F469400000000000000000798D7B47C40037401484C1
310
4000F469400000000000000000
100
AcDbRasterImage
 90
        0
 10
23.0029949834
 20
207.625030878
 30
0.0
 11
-5.031865364643098E-17
 21
0.02597535420783496
 31
0.0
 12
-0.02597535420783482
 22
-5.031865364643071E-17
 32
0.0
 13
400.0
 23
420.0
340
46
 70
     7
280
     0
281
    50
282
    50
283
     0
360
48
 71
     1
 91
        2
 14
-0.5
 24
-0.5
 14
399.5
 24
419.5
  0
LINE
  5
49
330
1F
100
AcDbEntity
  8
0
  6
Continuous
 62
     7
370
    40
100
AcDbLine
 10
25.0788435654
 20
10.2147801566
 30
0.0
 11
25.0788435654
 21
287.2147801566
 31
0.0
  0
LINE
  5
4A
330
1F
100
AcDbEntity
  8
0
  6
Continuous
 62
     7
370
    40
100
AcDbLine
 10
0.0788435654
 20
0.2147801566
 30
0.0
 11
420.0788435654
 21
0.2147801566
 31
0.0
  0
LINE
  5
4B
330
1F
100
AcDbEntity
  8
0
  6
Continuous
 62
     7
370
    40
100
AcDbLine
 10
0.0788435654
 20
0.2147801566
 30
0.0
 11
0.0788435654
 21
297.2147801566
 31
0.0
  0
LINE
  5
4C
330
1F
100
AcDbEntity
  8
0
  6
Continuous
 62
     7
370
    40
100
AcDbLine
 10
0.0788435654
 20
297.2147801566
 30
0.0
 11
420.0788435654
 21
297.2147801566
 31
0.0
  0
LINE
  5
4D
330
1F
100
AcDbEntity
  8
0
  6
Continuous
 62
     7
370
    40
100
AcDbLine
 10
420.0788435654
 20
0.2147801566
 30
0.0
 11
420.0788435654
 21
297.2147801566
 31
0.0
  0
LINE
  5
4E
330
1F
100
AcDbEntity
  8
0
  6
Continuous
 62
     7
370
    40
100
AcDbLine
 10
25.0788435654
 20
287.2147801566
 30
0.0
 11
410.0788435654
 21
287.2147801566
 31
0.0
  0
LINE
  5
4F
330
1F
100
AcDbEntity
  8
0
  6
Continuous
 62
     7
370
    40
100
AcDbLine
 10
25.0788435654
 20
10.2147801566
 30
0.0
 11
410.0788435654
 21
10.2147801566
 31
0.0
  0
LINE
  5
50
330
1F
100
AcDbEntity
  8
0
  6
Continuous
 62
     7
370
    40
100
AcDbLine
 10
410.0788435654
 20
287.2147801566
 30
0.0
 11
410.0788435654
 21
10.2147801566
 31
0.0
  0
LINE
  5
51
330
1F
100
AcDbEntity
  8
0
  6
Continuous
 62
     7
370
    40
100
AcDbLine
 10
222.8788435654
 20
14.4647801566
 30
0.0
 11
410.0788435654
 21
14.4647801566
 31
0.0
  0
LINE
  5
52
330
1F
100
AcDbEntity
  8
0
  6
Continuous
 62
     7
370
    40
100
AcDbLine
 10
410.0788435654
 20
48.4647801566
 30
0.0
 11
222.8788435654
 21
48.4647801566
 31
0.0
  0
LINE
  5
53
330
1F
100
AcDbEntity
  8
0
  6
Continuous
 62
     7
370
    40
100
AcDbLine
 10
222.8788435654
 20
65.4647801566
 30
0.0
 11
410.0788435654
 21
65.4647801566
 31
0.0
  0
LINE
  5
54
330
1F
100
AcDbEntity
  8
0
  6
Continuous
 62
     7
370
    40
100
AcDbLine
 10
249.8697959991
 20
48.4647801566
 30
0.0
 11
249.8697959991
 21
10.2147801566
 31
0.0
  0
LINE
  5
55
330
1F
100
AcDbEntity
  8
0
  6
Continuous
 62
     7
370
    40
100
AcDbLine
 10
321.6788435654
 20
31.4647801566
 30
0.0
 11
222.8788435654
 21
31.4647801566
 31
0.0
  0
LINE
  5
56
330
1F
100
AcDbEntity
  8
0
  6
Continuous
 62
     7
370
    40
100
AcDbLine
 10
321.6788435654
 20
35.7147801566
 30
0.0
 11
222.8788435654
 21
35.7147801566
 31
0.0
  0
LINE
  5
57
330
1F
100
AcDbEntity
  8
0
  6
Continuous
 62
     7
370
    40
100
AcDbLine
 10
321.6788435654
 20
39.9647801566
 30
0.0
 11
222.8788435654
 21
39.9647801566
 31
0.0
  0
LINE
  5
58
330
1F
100
AcDbEntity
  8
0
  6
Continuous
 62
     7
370
    40
100
AcDbLine
 10
321.6788435654
 20
44.2147801566
 30
0.0
 11
222.8788435654
 21
44.2147801566
 31
0.0
  0
LINE
  5
59
330
1F
100
AcDbEntity
  8
0
  6
Continuous
 62
     7
370
    40
100
AcDbLine
 10
277.4788435654
 20
10.2147801566
 30
0.0
 11
277.4788435654
 21
48.4647801566
 31
0.0
  0
LINE
  5
5A
330
1F
100
AcDbEntity
  8
0
  6
Continuous
 62
     7
370
    40
100
AcDbLine
 10
222.8788435654
 20
65.4647801566
 30
0.0
 11
222.8788435654
 21
10.2147801566
 31
0.0
  0
LINE
  5
5B
330
1F
100
AcDbEntity
  8
0
  6
Continuous
 62
     7
370
    40
100
AcDbLine
 10
230.6788435654
 20
48.4647801566
 30
0.0
 11
230.6788435654
 21
10.2147801566
 31
0.0
  0
LINE
  5
5C
330
1F
100
AcDbEntity
  8
0
  6
Continuous
 62
     7
370
    40
100
AcDbLine
 10
256.6788435654
 20
48.4647801566
 30
0.0
 11
256.6788435654
 21
65.4647801566
 31
0.0
  0
LINE
  5
5D
330
1F
100
AcDbEntity
  8
0
  6
Continuous
 62
     7
370
    40
100
AcDbLine
 10
267.2777697289
 20
48.4647801566
 30
0.0
 11
267.2777697289
 21
10.2147801566
 31
0.0
  0
LINE
  5
5E
330
1F
100
AcDbEntity
  8
0
  6
Continuous
 62
     7
370
    40
100
AcDbLine
 10
287.8788435654
 20
31.4647801566
 30
0.0
 11
287.8788435654
 21
48.4647801566
 31
0.0
  0
LINE
  5
5F
330
1F
100
AcDbEntity
  8
0
  6
Continuous
 62
     7
370
    40
100
AcDbLine
 10
277.4788435654
 20
18.7147801566
 30
0.0
 11
222.8788435654
 21
18.7147801566
 31
0.0
  0
LINE
  5
60
330
1F
100
AcDbEntity
  8
0
  6
Continuous
 62
     7
370
    40
100
AcDbLine
 10
303.4788435654
 20
65.4647801566
 30
0.0
 11
303.4788435654
 21
27.2147801566
 31
0.0
  0
LINE
  5
61
330
1F
100
AcDbEntity
  8
0
  6
Continuous
 62
     7
370
    40
100
AcDbLine
 10
277.4788435654
 20
22.9647081566
 30
0.0
 11
222.8788435654
 21
22.9647081566
 31
0.0
  0
LINE
  5
62
330
1F
100
AcDbEntity
  8
0
  6
Continuous
 62
     7
370
    40
100
AcDbLine
 10
277.4788435654
 20
27.2147801566
 30
0.0
 11
222.8788435654
 21
27.2147801566
 31
0.0
  0
LINE
  5
63
330
1F
100
AcDbEntity
  8
0
  6
Continuous
 62
     7
370
    40
100
AcDbLine
 10
277.4788435654
 20
27.2147801566
 30
0.0
 11
410.0788435654
 21
27.2147801566
 31
0.0
  0
LINE
  5
64
330
1F
100
AcDbEntity
  8
0
  6
Continuous
 62
     7
370
    40
100
AcDbLine
 10
321.6788435654
 20
65.4647801566
 30
0.0
 11
321.6788435654
 21
10.2147801566
 31
0.0
  0
LINE
  5
65
330
1F
100
AcDbEntity
  8
0
  6
Continuous
 62
     7
370
    40
100
AcDbLine
 10
365.8788435654
 20
10.2147801566
 30
0.0
 11
365.8788435654
 21
14.4647801566
 31
0.0
  0
LINE
  5
66
330
1F
100
AcDbEntity
  8
0
  6
Continuous
 62
     7
370
    40
100
AcDbLine
 10
373.6788435654
 20
59.0897801566
 30
0.0
 11
373.6788435654
 21
65.4647801566
 31
0.0
  0
LINE
  5
67
330
1F
100
AcDbEntity
  8
0
  6
Continuous
 62
     7
370
    40
100
AcDbLine
 10
397.0788435654
 20
14.4647801566
 30
0.0
 11
397.0788435654
 21
27.2147801566
 31
0.0
  0
LINE
  5
68
330
1F
100
AcDbEntity
  8
0
  6
Continuous
 62
     7
370
    40
100
AcDbLine
 10
410.0788435654
 20
59.0897801566
 30
0.0
 11
321.6788435654
 21
59.0897801566
 31
0.0
  0
LINE
  5
69
330
1F
100
AcDbEntity
  8
0
  6
Continuous
 62
     7
370
    40
100
AcDbLine
 10
410.0788435654
 20
18.7147801566
 30
0.0
 11
397.0788435654
 21
18.7147801566
 31
0.0
  0
INSERT
  5
70
330
1F
100
AcDbEntity
  8
0
  6
Continuous
 62
     7
370
     0
100
AcDbBlockReference
  2
SW_NOTE_0
 10
16.8146881013
 20
10.5838304553
 30
0.0
  0
MTEXT
  5
71
330
1F
100
AcDbEntity
  8
0
  6
Continuous
 62
     7
370
     0
100
AcDbMText
 10
396.7409117618
 20
62.9900954614
 30
0.0
 40
1.905
 41
0.0
 71
     2
 72
     1
  1
2
  7
SLDTEXTSTYLE0
 73
     1
 44
1.0
  0
MTEXT
  5
72
330
1F
100
AcDbEntity
  8
0
  6
Continuous
 62
     7
370
     0
100
AcDbMText
 10
366.0304169619
 20
40.9905976457
 30
0.0
 40
4.2333333333
 41
0.0
 71
     2
 72
     1
  1
Régulateur de Watt - Masselotte
  7
SLDTEXTSTYLE0
 73
     1
 44
1.0
  0
MTEXT
  5
73
330
1F
100
AcDbEntity
  8
0
  6
Continuous
 62
     7
370
     0
100
AcDbMText
 10
362.527347781
 20
24.8465186829
 30
0.0
 40
6.35
 41
0.0
 71
     2
 72
     1
  1
ASD-US000035
  7
SLDTEXTSTYLE0
 73
     1
 44
1.0
  0
MTEXT
  5
74
330
1F
100
AcDbEntity
  8
0
  6
Continuous
 62
     7
370
     0
100
AcDbMText
 10
272.5762722308
 20
42.773880237
 30
0.0
 40
1.4986
 41
0.0
 71
     2
 72
     1
  1
22-11/2013
  7
SLDTEXTSTYLE0
 73
     1
 44
1.0
  0
MTEXT
  5
75
330
1F
100
AcDbEntity
  8
0
  6
Continuous
 62
     7
370
     0
100
AcDbMText
 10
240.1135264709
 20
42.5981456645
 30
0.0
 40
1.4986
 41
0.0
 71
     2
 72
     1
  1
BRESSON-T
  7
SLDTEXTSTYLE0
 73
     1
 44
1.0
  0
MTEXT
  5
76
330
1F
100
AcDbEntity
  8
0
  6
Continuous
 62
     7
370
     0
100
AcDbMText
 10
278.4966546935
 20
13.1640920602
 30
0.0
 40
1.4986
 41
0.0
 71
     1
 72
     1
  1
MASSE:
  7
SLDTEXTSTYLE0
 73
     1
 44
1.0
  0
MTEXT
  5
77
330
1F
100
AcDbEntity
  8
0
  6
Continuous
 62
     7
370
     0
100
AcDbMText
 10
299.8177807388
 20
21.700345848
 30
0.0
 40
2.38125
 41
0.0
 71
     2
 72
     1
  1
Acier
  7
SLDTEXTSTYLE0
 73
     1
 44
1.0
  0
MTEXT
  5
78
330
1F
100
AcDbEntity
  8
0
  6
Continuous
 62
     7
370
     0
100
AcDbMText
 10
400.9998284117
 20
24.5152246096
 30
0.0
 40
2.9104166667
 41
0.0
 71
     1
 72
     1
  1
A3
  7
SLDTEXTSTYLE0
 73
     1
 44
1.0
  0
MTEXT
  5
7A
330
1F
100
AcDbEntity
  8
0
  6
Continuous
 62
     7
370
     0
100
AcDbMText
 10
367.3571379932
 20
13.114867664
 30
0.0
 40
1.5
 41
0.0
 71
     1
 72
     1
  1
FEUILLE 1 SUR 1
  7
SLDTEXTSTYLE1
 73
     1
 44
1.0
  0
MTEXT
  5
7B
330
1F
100
AcDbEntity
  8
0
  6
Continuous
 62
     7
370
     0
100
AcDbMText
 10
322.9528096828
 20
13.114867664
 30
0.0
 40
1.5
 41
0.0
 71
     1
 72
     1
  1
ECHELLE:1:1
  7
SLDTEXTSTYLE0
 73
     1
 44
1.0
  0
MTEXT
  5
7C
330
1F
100
AcDbEntity
  8
0
  6
Continuous
 62
     7
370
     0
100
AcDbMText
 10
322.9528096828
 20
25.0834182165
 30
0.0
 40
1.5
 41
0.0
 71
     1
 72
     1
  1
No. DE PLAN
  7
SLDTEXTSTYLE0
 73
     1
 44
1.0
  0
MTEXT
  5
7D
330
1F
100
AcDbEntity
  8
0
  6
Continuous
 62
     7
370
     0
100
AcDbMText
 10
322.835030502
 20
46.4931146755
 30
0.0
 40
1.5
 41
0.0
 71
     1
 72
     1
  1
TITRE:
  7
SLDTEXTSTYLE0
 73
     1
 44
1.0
  0
MTEXT
  5
7E
330
1F
100
AcDbEntity
  8
0
  6
Continuous
 62
     7
370
     0
100
AcDbMText
 10
376.2064252647
 20
62.5496890699
 30
0.0
 40
1.5
 41
0.0
 71
     1
 72
     1
  1
REVISION
  7
SLDTEXTSTYLE0
 73
     1
 44
1.0
  0
MTEXT
  5
7F
330
1F
100
AcDbEntity
  8
0
  6
Continuous
 62
     7
370
     0
100
AcDbMText
 10
335.4934840882
 20
62.7477739645
 30
0.0
 40
1.5
 41
0.0
 71
     1
 72
     1
  1
NE PAS CHANGER L'ECHELLE
  7
SLDTEXTSTYLE0
 73
     1
 44
1.0
  0
MTEXT
  5
80
330
1F
100
AcDbEntity
  8
0
  6
Continuous
 62
     7
370
     0
100
AcDbMText
 10
278.5247058741
 20
26.2008366787
 30
0.0
 40
1.5
 41
0.0
 71
     1
 72
     1
  1
MATERIAU:
  7
SLDTEXTSTYLE0
 73
     1
 44
1.0
  0
MTEXT
  5
81
330
1F
100
AcDbEntity
  8
0
  6
Continuous
 62
     7
370
     0
100
AcDbMText
 10
270.0935455311
 20
46.7909596107
 30
0.0
 40
1.5
 41
0.0
 71
     1
 72
     1
  1
DATE
  7
SLDTEXTSTYLE0
 73
     1
 44
1.0
  0
MTEXT
  5
82
330
1F
100
AcDbEntity
  8
0
  6
Continuous
 62
     7
370
     0
100
AcDbMText
 10
252.9124311285
 20
46.776536769
 30
0.0
 40
1.5
 41
0.0
 71
     1
 72
     1
  1
SIGNATURE
  7
SLDTEXTSTYLE0
 73
     1
 44
1.0
  0
MTEXT
  5
83
330
1F
100
AcDbEntity
  8
0
  6
Continuous
 62
     7
370
     0
100
AcDbMText
 10
237.201082783
 20
46.7162630229
 30
0.0
 40
1.5
 41
0.0
 71
     1
 72
     1
  1
NOM
  7
SLDTEXTSTYLE0
 73
     1
 44
1.0
  0
INSERT
  5
89
330
1F
100
AcDbEntity
  8
0
  6
Continuous
 62
     7
370
     0
100
AcDbBlockReference
  2
SW_NOTE_1
 10
304.1880592516
 20
62.2842700325
 30
0.0
  0
MTEXT
  5
8A
330
1F
100
AcDbEntity
  8
0
  6
Continuous
 62
     7
370
     0
100
AcDbMText
 10
257.2501357322
 20
64.1340523846
 30
0.0
 40
1.5
 41
0.0
 71
     1
 72
     1
  1
FINITION:
  7
SLDTEXTSTYLE0
 73
     1
 44
1.0
  0
MTEXT
  5
8B
330
1F
100
AcDbEntity
  8
0
  6
Continuous
 62
     7
370
     0
100
AcDbMText
 10
223.5478864275
 20
25.5644295968
 30
0.0
 40
1.5
 41
0.0
 71
     1
 72
     1
  1
QUAL.
  7
SLDTEXTSTYLE0
 73
     1
 44
1.0
  0
MTEXT
  5
8C
330
1F
100
AcDbEntity
  8
0
  6
Continuous
 62
     7
370
     0
100
AcDbMText
 10
223.3340300644
 20
29.9484850401
 30
0.0
 40
1.5
 41
0.0
 71
     1
 72
     1
  1
FAB.
  7
SLDTEXTSTYLE0
 73
     1
 44
1.0
  0
MTEXT
  5
8D
330
1F
100
AcDbEntity
  8
0
  6
Continuous
 62
     7
370
     0
100
AcDbMText
 10
223.2805659737
 20
34.2790763926
 30
0.0
 40
1.5
 41
0.0
 71
     1
 72
     1
  1
APPR.
  7
SLDTEXTSTYLE0
 73
     1
 44
1.0
  0
MTEXT
  5
8E
330
1F
100
AcDbEntity
  8
0
  6
Continuous
 62
     7
370
     0
100
AcDbMText
 10
223.289312433
 20
38.3691875495
 30
0.0
 40
1.5
 41
0.0
 71
     1
 72
     1
  1
VERIF.
  7
SLDTEXTSTYLE0
 73
     1
 44
1.0
  0
MTEXT
  5
8F
330
1F
100
AcDbEntity
  8
0
  6
Continuous
 62
     7
370
     0
100
AcDbMText
 10
223.0909928094
 20
42.6444952754
 30
0.0
 40
1.5
 41
0.0
 71
     1
 72
     1
  1
AUTEUR
  7
SLDTEXTSTYLE0
 73
     1
 44
1.0
  0
INSERT
  5
9A
330
1F
100
AcDbEntity
  8
0
  6
Continuous
 62
     7
370
     0
100
AcDbBlockReference
  2
SW_NOTE_2
 10
224.8035244616
 20
60.9657407215
 30
0.0
  0
LINE
  5
9B
330
1F
100
AcDbEntity
  8
0
  6
Continuous
 62
     7
370
    15
100
AcDbLine
 10
198.1819910384
 20
199.0378496288
 30
0.0
 11
198.1819910384
 21
183.0378498002
 31
0.0
  0
LINE
  5
9C
330
1F
100
AcDbEntity
  8
0
  6
Continuous
 62
     7
370
    15
100
AcDbLine
 10
218.1819943166
 20
183.0378498002
 30
0.0
 11
218.1819943166
 21
239.0378496661
 31
0.0
  0
LINE
  5
9D
330
1F
100
AcDbEntity
  8
0
  6
Continuous
 62
     7
370
    15
100
AcDbLine
 10
88.181993497
 20
189.037848921
 30
0.0
 11
88.181993497
 21
199.0378496288
 31
0.0
  0
LINE
  5
9E
330
1F
100
AcDbEntity
  8
0
  6
Continuous
 62
     7
370
    15
100
AcDbLine
 10
68.1819939441
 20
239.0378496661
 30
0.0
 11
68.1819939441
 21
189.037848921
 31
0.0
  0
LINE
  5
9F
330
1F
100
AcDbEntity
  8
0
  6
Continuous
 62
     7
370
    15
100
AcDbLine
 10
198.2951355553
 20
239.0378496661
 30
0.0
 11
218.1819943166
 21
239.0378496661
 31
0.0
  0
LINE
  5
A0
330
1F
100
AcDbEntity
  8
0
  6
Continuous
 62
     7
370
    15
100
AcDbLine
 10
198.2951355553
 20
199.0378496288
 30
0.0
 11
198.2951355553
 21
239.0378496661
 31
0.0
  0
LINE
  5
A1
330
1F
100
AcDbEntity
  8
0
  6
Continuous
 62
     7
370
    15
100
AcDbLine
 10
208.1819889522
 20
183.0378498002
 30
0.0
 11
198.1819910384
 21
183.0378498002
 31
0.0
  0
LINE
  5
A2
330
1F
100
AcDbEntity
  8
0
  6
Continuous
 62
     7
370
    15
100
AcDbLine
 10
218.1819943166
 20
183.0378498002
 30
0.0
 11
208.1819889522
 21
183.0378498002
 31
0.0
  0
LINE
  5
A3
330
1F
100
AcDbEntity
  8
0
  6
Continuous
 62
     7
370
    15
100
AcDbLine
 10
88.0688536367
 20
239.0378496661
 30
0.0
 11
88.0688536367
 21
199.0378496288
 31
0.0
  0
LINE
  5
A4
330
1F
100
AcDbEntity
  8
0
  6
Continuous
 62
     7
370
    15
100
AcDbLine
 10
78.1819937206
 20
189.037848921
 30
0.0
 11
88.181993497
 21
189.037848921
 31
0.0
  0
LINE
  5
A5
330
1F
100
AcDbEntity
  8
0
  6
Continuous
 62
     7
370
    15
100
AcDbLine
 10
68.1819939441
 20
189.037848921
 30
0.0
 11
78.1819937206
 21
189.037848921
 31
0.0
  0
LINE
  5
A6
330
1F
100
AcDbEntity
  8
0
  6
Continuous
 62
     7
370
    15
100
AcDbLine
 10
68.1819939441
 20
239.0378496661
 30
0.0
 11
88.0688536367
 21
239.0378496661
 31
0.0
  0
CIRCLE
  5
A7
330
1F
100
AcDbEntity
  8
0
  6
Continuous
 62
     7
370
    15
100
AcDbCircle
 10
103.0688536872
 20
235.0378492936
 30
0.0
 40
2.25
  0
CIRCLE
  5
A8
330
1F
100
AcDbEntity
  8
0
  6
Continuous
 62
     7
370
    15
100
AcDbCircle
 10
113.0688536872
 20
235.0378492936
 30
0.0
 40
2.25
  0
CIRCLE
  5
A9
330
1F
100
AcDbEntity
  8
0
  6
Continuous
 62
     7
370
    15
100
AcDbCircle
 10
143.0688536872
 20
235.0378492936
 30
0.0
 40
2.250000000000028
  0
CIRCLE
  5
AA
330
1F
100
AcDbEntity
  8
0
  6
Continuous
 62
     7
370
    15
100
AcDbCircle
 10
153.0688536872
 20
235.0378492936
 30
0.0
 40
2.25
  0
CIRCLE
  5
AB
330
1F
100
AcDbEntity
  8
0
  6
Continuous
 62
     7
370
    15
100
AcDbCircle
 10
163.0688536872
 20
235.0378492936
 30
0.0
 40
2.250000000000028
  0
CIRCLE
  5
AC
330
1F
100
AcDbEntity
  8
0
  6
Continuous
 62
     7
370
    15
100
AcDbCircle
 10
173.0688536872
 20
235.0378492936
 30
0.0
 40
2.25
  0
CIRCLE
  5
AD
330
1F
100
AcDbEntity
  8
0
  6
Continuous
 62
     7
370
    15
100
AcDbCircle
 10
183.0688536872
 20
235.0378492936
 30
0.0
 40
2.25
  0
CIRCLE
  5
AE
330
1F
100
AcDbEntity
  8
0
  6
Continuous
 62
     7
370
    15
100
AcDbCircle
 10
193.0688536872
 20
235.0378492936
 30
0.0
 40
2.25
  0
CIRCLE
  5
AF
330
1F
100
AcDbEntity
  8
0
  6
Continuous
 62
     7
370
    15
100
AcDbCircle
 10
93.0688536872
 20
203.0378492936
 30
0.0
 40
2.250000000000014
  0
CIRCLE
  5
B0
330
1F
100
AcDbEntity
  8
0
  6
Continuous
 62
     7
370
    15
100
AcDbCircle
 10
103.0688536872
 20
203.0378492936
 30
0.0
 40
2.249999999999986
  0
CIRCLE
  5
B1
330
1F
100
AcDbEntity
  8
0
  6
Continuous
 62
     7
370
    15
100
AcDbCircle
 10
113.0688536872
 20
203.0378492936
 30
0.0
 40
2.25
  0
CIRCLE
  5
B2
330
1F
100
AcDbEntity
  8
0
  6
Continuous
 62
     7
370
    15
100
AcDbCircle
 10
123.0688536872
 20
203.0378492936
 30
0.0
 40
2.25
  0
CIRCLE
  5
B3
330
1F
100
AcDbEntity
  8
0
  6
Continuous
 62
     7
370
    15
100
AcDbCircle
 10
153.0688536872
 20
203.0378492936
 30
0.0
 40
2.25
  0
CIRCLE
  5
B4
330
1F
100
AcDbEntity
  8
0
  6
Continuous
 62
     7
370
    15
100
AcDbCircle
 10
173.0688536872
 20
203.0378492936
 30
0.0
 40
2.25
  0
CIRCLE
  5
B5
330
1F
100
AcDbEntity
  8
0
  6
Continuous
 62
     7
370
    15
100
AcDbCircle
 10
193.0688536872
 20
203.0378492936
 30
0.0
 40
2.249999999999972
  0
CIRCLE
  5
B6
330
1F
100
AcDbEntity
  8
0
  6
Continuous
 62
     7
370
    15
100
AcDbCircle
 10
183.0688536872
 20
203.0378492936
 30
0.0
 40
2.25
  0
CIRCLE
  5
B7
330
1F
100
AcDbEntity
  8
0
  6
Continuous
 62
     7
370
    15
100
AcDbCircle
 10
163.0688536872
 20
203.0378492936
 30
0.0
 40
2.25
  0
CIRCLE
  5
B8
330
1F
100
AcDbEntity
  8
0
  6
Continuous
 62
     7
370
    15
100
AcDbCircle
 10
143.0688536872
 20
203.0378492936
 30
0.0
 40
2.25
  0
CIRCLE
  5
B9
330
1F
100
AcDbEntity
  8
0
  6
Continuous
 62
     7
370
    15
100
AcDbCircle
 10
133.0688536872
 20
203.0378492936
 30
0.0
 40
2.250000000000028
  0
CIRCLE
  5
BA
330
1F
100
AcDbEntity
  8
0
  6
Continuous
 62
     7
370
    15
100
AcDbCircle
 10
133.0688536872
 20
235.0378492936
 30
0.0
 40
2.250000000000028
  0
CIRCLE
  5
BB
330
1F
100
AcDbEntity
  8
0
  6
Continuous
 62
     7
370
    15
100
AcDbCircle
 10
123.0688536872
 20
235.0378492936
 30
0.0
 40
2.25
  0
CIRCLE
  5
BC
330
1F
100
AcDbEntity
  8
0
  6
Continuous
 62
     7
370
    15
100
AcDbCircle
 10
93.0688536872
 20
235.0378492936
 30
0.0
 40
2.25
  0
LINE
  5
BD
330
1F
100
AcDbEntity
  8
0
  6
Continuous
 62
     7
370
    15
100
AcDbLine
 10
198.2951355553
 20
199.0378496288
 30
0.0
 11
88.0688536367
 21
199.0378496288
 31
0.0
  0
LINE
  5
BE
330
1F
100
AcDbEntity
  8
0
  6
Continuous
 62
     7
370
    15
100
AcDbLine
 10
88.0688536367
 20
239.0378496661
 30
0.0
 11
198.2951355553
 21
239.0378496661
 31
0.0
  0
DIMENSION
  5
BF
330
1F
100
AcDbEntity
  8
0
  6
Continuous
 62
     7
370
     0
100
AcDbDimension
  2
*D4
 10
93.0688536872
 20
251.3043035091
 30
0.0
 11
81.9222246051
 21
251.3043035091
 31
0.0
 70
   160
 71
     2
 42
-1.0
  3
SLDDIMSTYLE0
100
AcDbAlignedDimension
 13
88.0688536872
 23
239.0378492936
 33
0.0
 14
93.0688536872
 24
207.7878492936
 34
0.0
100
AcDbRotatedDimension
  0
DIMENSION
  5
CC
330
1F
100
AcDbEntity
  8
0
  6
Continuous
 62
     7
370
     0
100
AcDbDimension
  2
*D5
 10
103.0688536872
 20
258.8437455912
 30
0.0
 11
98.264404455
 21
258.8437455912
 31
0.0
 70
   160
  1
<> (x10)
 71
     2
 42
-1.0
  3
SLDDIMSTYLE0
100
AcDbAlignedDimension
 13
93.0688536872
 23
239.7878492936
 33
0.0
 14
103.0688536872
 24
203.0378492936
 34
0.0
100
AcDbRotatedDimension
  0
DIMENSION
  5
D9
330
1F
100
AcDbEntity
  8
0
  6
Continuous
 62
     7
370
     0
100
AcDbDimension
  2
*D7
 10
94.6598439449
 20
233.4468590359
 30
0.0
 11
61.0688636872
 21
267.0378592936
 31
0.0
 70
   163
  1
<> (x22)
 71
     1
 42
-1.0
  3
SLDDIMSTYLE1
100
AcDbDiametricDimension
 15
91.4778634295
 25
236.6288395512
 35
0.0
 40
0.0
  0
DIMENSION
  5
E7
330
1F
100
AcDbEntity
  8
0
  6
Continuous
 62
     7
370
     0
100
AcDbDimension
  2
*D8
 10
52.1819937206
 20
239.0378492936
 30
0.0
 11
52.1819937206
 21
214.0378492936
 31
0.0
 70
   160
 71
     2
 42
-1.0
  3
SLDDIMSTYLE2
100
AcDbAlignedDimension
 13
68.1819937206
 23
189.0378492936
 33
0.0
 14
73.1819937206
 24
239.0378492936
 34
0.0
 50
90.0
100
AcDbRotatedDimension
  0
DIMENSION
  5
F2
330
1F
100
AcDbEntity
  8
0
  6
Continuous
 62
     7
370
     0
100
AcDbDimension
  2
*D9
 10
58.1819937206
 20
199.0378492936
 30
0.0
 11
58.1819937206
 21
194.0378492936
 31
0.0
 70
   160
 71
     2
 42
-1.0
  3
SLDDIMSTYLE0
100
AcDbAlignedDimension
 13
68.1819937206
 23
189.0378492936
 33
0.0
 14
88.0688536872
 24
199.0378492936
 34
0.0
 50
90.0
100
AcDbRotatedDimension
  0
DIMENSION
  5
FE
330
1F
100
AcDbEntity
  8
0
  6
Continuous
 62
     7
370
     0
100
AcDbDimension
  2
*D10
 10
227.1819937206
 20
183.0378492936
 30
0.0
 11
227.1819937206
 21
186.0378492936
 31
0.0
 70
   160
 71
     2
 42
-1.0
  3
SLDDIMSTYLE0
100
AcDbAlignedDimension
 13
83.1819937206
 23
189.0378492936
 33
0.0
 14
218.1819937206
 24
183.0378492936
 34
0.0
 50
90.0
100
AcDbRotatedDimension
  0
DIMENSION
  5
10A
330
1F
100
AcDbEntity
  8
0
  6
Continuous
 62
     7
370
     0
100
AcDbDimension
  2
*D11
 10
234.1819937206
 20
203.0378492936
 30
0.0
 11
234.1819937206
 21
196.0378492936
 31
0.0
 70
   160
 71
     2
 42
-1.0
  3
SLDDIMSTYLE0
100
AcDbAlignedDimension
 13
88.1819937206
 23
189.0378492936
 33
0.0
 14
197.8188536872
 24
203.0378492936
 34
0.0
 50
90.0
100
AcDbRotatedDimension
  0
DIMENSION
  5
116
330
1F
100
AcDbEntity
  8
0
  6
Continuous
 62
     7
370
     0
100
AcDbDimension
  2
*D12
 10
240.1819937206
 20
235.0378492936
 30
0.0
 11
240.1819937206
 21
212.0378492936
 31
0.0
 70
   160
 71
     2
 42
-1.0
  3
SLDDIMSTYLE2
100
AcDbAlignedDimension
 13
88.1819937206
 23
189.0378492936
 33
0.0
 14
197.8188536872
 24
235.0378492936
 34
0.0
 50
90.0
100
AcDbRotatedDimension
  0
INSERT
  5
12B
330
1F
100
AcDbEntity
  8
0
  6
Continuous
 62
     7
370
     0
100
AcDbBlockReference
  2
SW_CENTERMARKSYMBOL_0
 10
133.0688536872
 20
203.0378492936
 30
0.0
  0
INSERT
  5
137
330
1F
100
AcDbEntity
  8
0
  6
Continuous
 62
     7
370
     0
100
AcDbBlockReference
  2
SW_CENTERMARKSYMBOL_1
 10
143.0688536872
 20
203.0378492936
 30
0.0
  0
INSERT
  5
143
330
1F
100
AcDbEntity
  8
0
  6
Continuous
 62
     7
370
     0
100
AcDbBlockReference
  2
SW_CENTERMARKSYMBOL_2
 10
163.0688536872
 20
203.0378492936
 30
0.0
  0
INSERT
  5
14F
330
1F
100
AcDbEntity
  8
0
  6
Continuous
 62
     7
370
     0
100
AcDbBlockReference
  2
SW_CENTERMARKSYMBOL_3
 10
183.0688536872
 20
203.0378492936
 30
0.0
  0
INSERT
  5
15B
330
1F
100
AcDbEntity
  8
0
  6
Continuous
 62
     7
370
     0
100
AcDbBlockReference
  2
SW_CENTERMARKSYMBOL_4
 10
193.0688536872
 20
203.0378492936
 30
0.0
  0
INSERT
  5
167
330
1F
100
AcDbEntity
  8
0
  6
Continuous
 62
     7
370
     0
100
AcDbBlockReference
  2
SW_CENTERMARKSYMBOL_5
 10
173.0688536872
 20
203.0378492936
 30
0.0
  0
INSERT
  5
173
330
1F
100
AcDbEntity
  8
0
  6
Continuous
 62
     7
370
     0
100
AcDbBlockReference
  2
SW_CENTERMARKSYMBOL_6
 10
153.0688536872
 20
203.0378492936
 30
0.0
  0
INSERT
  5
17F
330
1F
100
AcDbEntity
  8
0
  6
Continuous
 62
     7
370
     0
100
AcDbBlockReference
  2
SW_CENTERMARKSYMBOL_7
 10
123.0688536872
 20
203.0378492936
 30
0.0
  0
INSERT
  5
18B
330
1F
100
AcDbEntity
  8
0
  6
Continuous
 62
     7
370
     0
100
AcDbBlockReference
  2
SW_CENTERMARKSYMBOL_8
 10
113.0688536872
 20
203.0378492936
 30
0.0
  0
INSERT
  5
197
330
1F
100
AcDbEntity
  8
0
  6
Continuous
 62
     7
370
     0
100
AcDbBlockReference
  2
SW_CENTERMARKSYMBOL_9
 10
103.0688536872
 20
203.0378492936
 30
0.0
  0
INSERT
  5
1A3
330
1F
100
AcDbEntity
  8
0
  6
Continuous
 62
     7
370
     0
100
AcDbBlockReference
  2
SW_CENTERMARKSYMBOL_10
 10
93.0688536872
 20
203.0378492936
 30
0.0
  0
INSERT
  5
1AF
330
1F
100
AcDbEntity
  8
0
  6
Continuous
 62
     7
370
     0
100
AcDbBlockReference
  2
SW_CENTERMARKSYMBOL_11
 10
193.0688536872
 20
235.0378492936
 30
0.0
  0
INSERT
  5
1BB
330
1F
100
AcDbEntity
  8
0
  6
Continuous
 62
     7
370
     0
100
AcDbBlockReference
  2
SW_CENTERMARKSYMBOL_12
 10
183.0688536872
 20
235.0378492936
 30
0.0
  0
INSERT
  5
1C7
330
1F
100
AcDbEntity
  8
0
  6
Continuous
 62
     7
370
     0
100
AcDbBlockReference
  2
SW_CENTERMARKSYMBOL_13
 10
173.0688536872
 20
235.0378492936
 30
0.0
  0
INSERT
  5
1D3
330
1F
100
AcDbEntity
  8
0
  6
Continuous
 62
     7
370
     0
100
AcDbBlockReference
  2
SW_CENTERMARKSYMBOL_14
 10
163.0688536872
 20
235.0378492936
 30
0.0
  0
INSERT
  5
1DF
330
1F
100
AcDbEntity
  8
0
  6
Continuous
 62
     7
370
     0
100
AcDbBlockReference
  2
SW_CENTERMARKSYMBOL_15
 10
153.0688536872
 20
235.0378492936
 30
0.0
  0
INSERT
  5
1EB
330
1F
100
AcDbEntity
  8
0
  6
Continuous
 62
     7
370
     0
100
AcDbBlockReference
  2
SW_CENTERMARKSYMBOL_16
 10
143.0688536872
 20
235.0378492936
 30
0.0
  0
INSERT
  5
1F7
330
1F
100
AcDbEntity
  8
0
  6
Continuous
 62
     7
370
     0
100
AcDbBlockReference
  2
SW_CENTERMARKSYMBOL_17
 10
133.0688536872
 20
235.0378492936
 30
0.0
  0
INSERT
  5
203
330
1F
100
AcDbEntity
  8
0
  6
Continuous
 62
     7
370
     0
100
AcDbBlockReference
  2
SW_CENTERMARKSYMBOL_18
 10
123.0688536872
 20
235.0378492936
 30
0.0
  0
INSERT
  5
20F
330
1F
100
AcDbEntity
  8
0
  6
Continuous
 62
     7
370
     0
100
AcDbBlockReference
  2
SW_CENTERMARKSYMBOL_19
 10
113.0688536872
 20
235.0378492936
 30
0.0
  0
INSERT
  5
21B
330
1F
100
AcDbEntity
  8
0
  6
Continuous
 62
     7
370
     0
100
AcDbBlockReference
  2
SW_CENTERMARKSYMBOL_20
 10
103.0688536872
 20
235.0378492936
 30
0.0
  0
INSERT
  5
227
330
1F
100
AcDbEntity
  8
0
  6
Continuous
 62
     7
370
     0
100
AcDbBlockReference
  2
SW_CENTERMARKSYMBOL_21
 10
93.0688536872
 20
235.0378492936
 30
0.0
  0
INSERT
  5
233
330
1F
100
AcDbEntity
  8
0
  6
Continuous
 62
     7
370
     0
100
AcDbBlockReference
  2
SW_DATUMTAG_0
 10
50.4517176092
 20
156.4890647828
 30
0.0
  0
CIRCLE
  5
234
330
1F
100
AcDbEntity
  8
0
  6
Continuous
 62
     7
370
    15
100
AcDbCircle
 10
78.1819937206
 20
106.6495761381
 30
0.0
 40
5.0
  0
LINE
  5
235
330
1F
100
AcDbEntity
  8
0
  6
Continuous
 62
     7
370
    15
100
AcDbLine
 10
198.2951355553
 20
108.1495761512
 30
0.0
 11
88.0688536367
 21
108.1495761512
 31
0.0
  0
LINE
  5
236
330
1F
100
AcDbEntity
  8
0
  6
Continuous
 62
     7
370
    15
100
AcDbLine
 10
88.0688536367
 20
105.1495761251
 30
0.0
 11
198.2951355553
 21
105.1495761251
 31
0.0
  0
ARC
  5
237
330
1F
100
AcDbEntity
  8
0
  6
Continuous
 62
     7
370
    15
100
AcDbCircle
 10
78.1819937206
 20
106.6495761381
 30
0.0
 40
9.999999999999996
100
AcDbArc
 50
8.6269265587
 51
351.3730734413
  0
ARC
  5
238
330
1F
100
AcDbEntity
  8
0
  6
Continuous
 62
     7
370
    15
100
AcDbCircle
 10
208.1819937206
 20
106.6495761381
 30
0.0
 40
9.999999999999996
100
AcDbArc
 50
188.6269265587
 51
171.3730734413
  0
DIMENSION
  5
239
330
1F
100
AcDbEntity
  8
0
  6
Continuous
 62
     7
370
     0
100
AcDbDimension
  2
*D36
 10
85.2530615324
 20
113.72064395
 30
0.0
 11
59.7067951065
 21
88.1743775241
 31
0.0
 70
   163
  1
<>
 71
     1
 42
-1.0
  3
SLDDIMSTYLE3
100
AcDbDiametricDimension
 15
71.1109259087
 25
99.5785083263
 35
0.0
 40
0.0
  0
DIMENSION
  5
243
330
1F
100
AcDbEntity
  8
0
  6
Continuous
 62
     7
370
     0
100
AcDbDimension
  2
*D37
 10
80.6819937206
 20
110.9797031571
 30
0.0
 11
60.2067951065
 21
75.5156115419
 31
0.0
 70
   163
  1
<>
 71
     1
 42
-1.0
  3
SLDDIMSTYLE4
100
AcDbDiametricDimension
 15
75.6819937206
 25
102.3194491192
 35
0.0
 40
0.0
  0
DIMENSION
  5
24D
330
1F
100
AcDbEntity
  8
0
  6
Continuous
 62
     7
370
     0
100
AcDbDimension
  2
*D38
 10
201.1109259087
 20
113.72064395
 30
0.0
 11
228.1820037206
 21
86.6495861381
 31
0.0
 70
   163
  1
<>
 71
     1
 42
-1.0
  3
SLDDIMSTYLE3
100
AcDbDiametricDimension
 15
215.2530615324
 25
99.5785083263
 35
0.0
 40
0.0
  0
DIMENSION
  5
256
330
1F
100
AcDbEntity
  8
0
  6
Continuous
 62
     7
370
     0
100
AcDbDimension
  2
*D39
 10
246.1819937206
 20
105.1495761381
 30
0.0
 11
246.1819937206
 21
121.6243163147
 31
0.0
 70
   160
 71
     2
 42
-1.0
  3
SLDDIMSTYLE0
100
AcDbAlignedDimension
 13
198.2951337539
 23
108.1495761381
 33
0.0
 14
198.2951337539
 24
105.1495761381
 34
0.0
 50
90.0
100
AcDbRotatedDimension
  0
DIMENSION
  5
262
330
1F
100
AcDbEntity
  8
0
  6
Continuous
 62
     7
370
     0
100
AcDbDimension
  2
*D40
 10
78.1819937206
 20
86.6495761381
 30
0.0
 11
143.1819937206
 21
86.6495761381
 31
0.0
 70
   160
 71
     2
 42
-1.0
  3
SLDDIMSTYLE2
100
AcDbAlignedDimension
 13
208.1819937206
 23
106.6495761381
 33
0.0
 14
78.1819937206
 24
106.6495761381
 34
0.0
100
AcDbRotatedDimension
  0
TOLERANCE
  5
26E
330
1F
100
AcDbEntity
  8
0
  6
Continuous
 62
     7
370
     0
100
AcDbFcf
  3
SLDDIMSTYLE5
 10
246.1819937206
 20
115.5382051211
 30
0.0
  1
{\Fgdt;i}%%v%%v%%vA%%v%%v%%v^J
 11
-3.491481338843133E-15
 21
1.0
 31
0.0
  0
INSERT
  5
27A
330
1F
100
AcDbEntity
  8
0
  6
Continuous
 62
     7
370
     0
100
AcDbBlockReference
  2
SW_CENTERMARKSYMBOL_22
 10
78.1819937206
 20
106.6495761381
 30
0.0
  0
INSERT
  5
286
330
1F
100
AcDbEntity
  8
0
  6
Continuous
 62
     7
370
     0
100
AcDbBlockReference
  2
SW_DATUMTAG_1
 10
50.807764716
 20
133.0523928832
 30
0.0
  0
INSERT
  5
292
330
1F
100
AcDbEntity
  8
0
  6
Continuous
 62
     7
370
     0
100
AcDbBlockReference
  2
SW_DATUMTAG_2
 10
51.0751123507
 20
144.9245906854
 30
0.0
  0
LINE
  5
293
330
1F
100
AcDbEntity
  8
0
  6
Continuous
 62
     7
370
    15
100
AcDbLine
 10
361.3636187696
 20
179.038253701
 30
0.0
 11
400.9615984212
 21
201.8976807773
 31
0.0
  0
LINE
  5
294
330
1F
100
AcDbEntity
  8
0
  6
Continuous
 62
     7
370
    15
100
AcDbLine
 10
390.9624113943
 20
219.2186575138
 30
0.0
 11
351.3644317427
 21
196.3592304375
 31
0.0
  0
LINE
  5
295
330
1F
100
AcDbEntity
  8
0
  6
Continuous
 62
     7
370
    15
100
AcDbLine
 10
294.7958905122
 20
269.8359603799
 30
0.0
 11
259.440550926
 21
249.4257572802
 31
0.0
  0
LINE
  5
296
330
1F
100
AcDbEntity
  8
0
  6
Continuous
 62
     7
370
    15
100
AcDbLine
 10
269.4397379529
 20
232.1047805437
 30
0.0
 11
273.3801245284
 21
234.3795172946
 31
0.0
  0
LINE
  5
297
330
1F
100
AcDbEntity
  8
0
  6
Continuous
 62
     7
370
    15
100
AcDbLine
 10
303.7860609123
 20
251.9324907435
 30
0.0
 11
304.7950775391
 21
252.5149836434
 31
0.0
  0
LWPOLYLINE
  5
298
330
1F
100
AcDbEntity
  8
0
  6
Continuous
 62
     7
370
    15
100
AcDbPolyline
 90
       57
 70
   128
 43
0.0
 10
349.3729615404
 20
190.5097860183
 10
349.5258966486
 20
189.5677400797
 10
349.7567876214
 20
188.6043872021
 10
350.0630055493
 20
187.6307080328
 10
350.4410522437
 20
186.6578065226
 10
350.8866234578
 20
185.6967707672
 10
351.3946404964
 20
184.758556279
 10
351.9593028993
 20
183.8538641277
 10
352.5741832722
 20
182.9930025452
 10
353.2322694332
 20
182.1857857878
 10
353.9260592433
 20
181.4414177943
 10
354.6476448999
 20
180.7683823073
 10
355.3887866943
 20
180.1743599892
 10
356.1410552566
 20
179.6661120852
 10
356.8958631666
 20
179.2494393607
 10
357.6446124671
 20
178.9290862976
 10
358.3787578846
 20
178.7087122019
 10
359.0899332697
 20
178.5908273369
 10
359.7700358907
 20
178.5767716386
 10
360.4113107275
 20
178.6667071182
 10
361.0064453019
 20
178.859610267
 10
361.5486539712
 20
179.1532811897
 10
362.0317516856
 20
179.5443751703
 10
362.4502488179
 20
180.0284228334
 10
362.7993511641
 20
180.5999194989
 10
363.0750969205
 20
181.2523398333
 10
363.2743356101
 20
181.9782502064
 10
363.3947913031
 20
182.7693775187
 10
363.435094227
 20
183.616700841
 10
363.3947913031
 20
184.5105569288
 10
363.2743356101
 20
185.4407594241
 10
363.0750969205
 20
186.3967058917
 10
362.7993511641
 20
187.3674954997
 10
362.4502488179
 20
188.3420571547
 10
362.0317516856
 20
189.3092913219
 10
361.5486539712
 20
190.2581580509
 10
361.0064453019
 20
191.177849778
 10
360.4113107275
 20
192.0578806805
 10
359.7700358907
 20
192.8882163268
 10
359.0899332697
 20
193.6593904006
 10
358.3787578846
 20
194.3626111575
 10
357.6446124671
 20
194.9898633186
 10
356.8958631666
 20
195.5339977967
 10
356.1410552566
 20
195.9888077351
 10
355.3887866943
 20
196.3491106255
 10
354.6476448999
 20
196.610792409
 10
353.9260592433
 20
196.7708819876
 10
353.2322694332
 20
196.8275466584
 10
352.5741832722
 20
196.7801400094
 10
351.9593028993
 20
196.6292041943
 10
351.3946404964
 20
196.3764573764
 10
350.8866234578
 20
196.0247868759
 10
350.4410522437
 20
195.5781966941
 10
350.0630055493
 20
195.0417786065
 10
349.7567876214
 20
194.4216511311
 10
349.5258966486
 20
193.7248792964
 10
349.3729615404
 20
192.9594084752
  0
LWPOLYLINE
  5
299
330
1F
100
AcDbEntity
  8
0
  6
Continuous
 62
     7
370
    15
100
AcDbPolyline
 90
       31
 70
   128
 43
0.0
 10
390.9624113943
 20
219.2186575138
 10
391.4489388084
 20
219.4495154409
 10
392.0531191502
 20
219.6190690452
 10
392.701585293
 20
219.6859608926
 10
393.3869984169
 20
219.6494286908
 10
394.1015876967
 20
219.5098884445
 10
394.8372609375
 20
219.2689188756
 10
395.5856730632
 20
218.9292561071
 10
396.3383420206
 20
218.4947495667
 10
397.0867541464
 20
217.9703140877
 10
397.8224168504
 20
217.3618994953
 10
398.5370061302
 20
216.6763925208
 10
399.2224192541
 20
215.9215635743
 10
399.8708906653
 20
215.1059656136
 10
400.4750762754
 20
214.2388371936
 10
401.0281166849
 20
213.3300112162
 10
401.5237636233
 20
212.3897746371
 10
401.9563904866
 20
211.4287870973
 10
402.3210977035
 20
210.4579356841
 10
402.6137654195
 20
209.4882132625
 10
402.831053497
 20
208.5306211358
 10
402.9705174188
 20
207.5959990929
 10
403.0305661412
 20
206.6949430367
 10
403.0105358514
 20
205.8376527086
 10
402.910626747
 20
205.0338571093
 10
402.7319978663
 20
204.2926477766
 10
402.4766617213
 20
203.6224297728
 10
402.1475159079
 20
203.03079393
 10
401.7482798854
 20
202.5244497813
 10
401.28348444
 20
202.1091303111
 10
400.9615984212
 20
201.8976807773
  0
LWPOLYLINE
  5
29A
330
1F
100
AcDbEntity
  8
0
  6
Continuous
 62
     7
370
    15
100
AcDbPolyline
 90
       43
 70
   128
 43
0.0
 10
264.4401444395
 20
236.6825649438
 10
264.9670884176
 20
236.4239670571
 10
265.4822613242
 20
236.2623466188
 10
265.9741550529
 20
236.2013140113
 10
266.4317815828
 20
236.2422329729
 10
266.8449181628
 20
236.3841887532
 10
267.2043362794
 20
236.6240104967
 10
267.5020066288
 20
236.9563415098
 10
267.7312802164
 20
237.3737573398
 10
267.8870352121
 20
237.8669341359
 10
267.9657921962
 20
238.424854936
 10
267.9657921962
 20
239.0350566337
 10
267.8870352121
 20
239.683908312
 10
267.7312802164
 20
240.3569159984
 10
267.5020066288
 20
241.039045478
 10
267.2043362794
 20
241.715059361
 10
266.8449181628
 20
242.369856429
 10
266.4317815828
 20
242.9888095514
 10
265.9741550529
 20
243.5580928579
 10
265.4822613242
 20
244.0649886608
 10
264.9670884176
 20
244.4981741998
 10
264.4401444395
 20
244.8479728801
 10
263.9132004613
 20
245.1065707668
 10
263.3980275547
 20
245.268191205
 10
262.906133826
 20
245.3292238126
 10
262.4485072961
 20
245.2883048509
 10
262.0353707161
 20
245.1463490706
 10
261.6759525995
 20
244.9065273272
 10
261.3782822501
 20
244.5741963141
 10
261.1490086625
 20
244.1567804841
 10
260.9932536668
 20
243.6636036879
 10
260.9144966827
 20
243.1056828879
 10
260.9144966827
 20
242.4954811902
 10
260.9932536668
 20
241.8466295119
 10
261.1490086625
 20
241.1736218254
 10
261.3782822501
 20
240.4914923459
 10
261.6759525995
 20
239.8154784628
 10
262.0353707161
 20
239.1606813949
 10
262.4485072961
 20
238.5417282725
 10
262.906133826
 20
237.972444966
 10
263.3980275547
 20
237.4655491631
 10
263.9132004613
 20
237.0323636241
 10
264.4401444395
 20
236.6825649438
  0
LWPOLYLINE
  5
29B
330
1F
100
AcDbEntity
  8
0
  6
Continuous
 62
     7
370
    15
100
AcDbPolyline
 90
       57
 70
   128
 43
0.0
 10
271.4312101308
 20
237.9542238224
 10
271.2782737055
 20
238.8962705213
 10
271.0473814156
 20
239.8596241593
 10
270.7411661219
 20
240.8333018079
 10
270.3631174519
 20
241.8062044586
 10
269.9175462377
 20
242.767240214
 10
269.4095318334
 20
243.7054531815
 10
268.8448658085
 20
244.6101474237
 10
268.2299851063
 20
245.4710091963
 10
267.5718996038
 20
246.2782255736
 10
266.8781116048
 20
247.0225925216
 10
266.1565303933
 20
247.6956254425
 10
265.4153820958
 20
248.2896515147
 10
264.6631159618
 20
248.7978980169
 10
263.9083079284
 20
249.2145708126
 10
263.1595629084
 20
249.5349214046
 10
262.4254167501
 20
249.755295928
 10
261.7142387308
 20
249.8731823137
 10
261.0341364391
 20
249.8872378219
 10
260.3928632487
 20
249.7973013919
 10
259.7977296621
 20
249.6043976728
 10
259.2555203341
 20
249.3107271303
 10
258.7724166929
 20
248.9196365713
 10
258.3539261461
 20
248.4355851064
 10
258.00481919
 20
247.8640911021
 10
257.7290754093
 20
247.2116696272
 10
257.5298400124
 20
246.4857573533
 10
257.4093823437
 20
245.6946311814
 10
257.3690767856
 20
244.8473093798
 10
257.4093823437
 20
243.9534517714
 10
257.5298400124
 20
243.0232481356
 10
257.7290754093
 20
242.0673035689
 10
258.00481919
 20
241.0965151013
 10
258.3539261461
 20
240.1219507852
 10
258.7724166929
 20
239.1547204197
 10
259.2555203341
 20
238.2058502691
 10
259.7977296621
 20
237.2861581618
 10
260.3928632487
 20
236.4061278296
 10
261.0341364391
 20
235.5757931337
 10
261.7142387308
 20
234.80461925
 10
262.4254167501
 20
234.1013969724
 10
263.1595629084
 20
233.4741443837
 10
263.9083079284
 20
232.9300123766
 10
264.6631159618
 20
232.4752023669
 10
265.4153820958
 20
232.1149008784
 10
266.1565303933
 20
231.8532153407
 10
266.8781116048
 20
231.6931283283
 10
267.5718996038
 20
231.636464703
 10
268.2299851063
 20
231.6838717321
 10
268.8448658085
 20
231.8348073572
 10
269.4095318334
 20
232.0875520842
 10
269.9175462377
 20
232.4392241053
 10
270.3631174519
 20
232.8858142871
 10
270.7411661219
 20
233.4222312342
 10
271.0473814156
 20
234.0423602303
 10
271.2782737055
 20
234.7391313047
 10
271.4312101308
 20
235.5046013655
  0
LINE
  5
29C
330
1F
100
AcDbEntity
  8
0
  6
Continuous
 62
     7
370
    15
100
AcDbLine
 10
349.3729615404
 20
192.9594084752
 30
0.0
 11
271.4312101308
 21
237.9542238224
 31
0.0
  0
LINE
  5
29D
330
1F
100
AcDbEntity
  8
0
  6
Continuous
 62
     7
370
    15
100
AcDbLine
 10
271.4312101308
 20
235.5046013655
 30
0.0
 11
349.3729615404
 21
190.5097860183
 31
0.0
  0
LINE
  5
29E
330
1F
100
AcDbEntity
  8
0
  6
Continuous
 62
     7
370
    15
100
AcDbLine
 10
271.4312101308
 20
237.9542238224
 30
0.0
 11
299.7154814046
 21
254.2823860741
 31
0.0
  0
LINE
  5
29F
330
1F
100
AcDbEntity
  8
0
  6
Continuous
 62
     7
370
    15
100
AcDbLine
 10
299.7154814046
 20
254.2823860741
 30
0.0
 11
375.7083151239
 21
210.4126569614
 31
0.0
  0
LWPOLYLINE
  5
2A0
330
1F
100
AcDbEntity
  8
0
  6
Continuous
 62
     7
370
    15
100
AcDbPolyline
 90
       29
 70
   128
 43
0.0
 10
330.2978497647
 20
233.3619283911
 10
329.9039314891
 20
233.1805794834
 10
329.4499868815
 20
233.0543802664
 10
328.9587805087
 20
232.9896567633
 10
328.454940618
 20
232.9896563831
 10
327.9637309524
 20
233.0543802664
 10
327.5097863448
 20
233.1805802437
 10
327.1158687278
 20
233.3619287713
 10
326.8017298266
 20
233.5893325712
 10
326.5831213673
 20
233.8513892151
 10
326.471006799
 20
234.1349569984
 10
326.4710074576
 20
234.4258175762
 10
326.5831213673
 20
234.7093865
 10
326.8017311437
 20
234.9714416232
 10
327.1158707034
 20
235.1988458033
 10
327.509788979
 20
235.380194711
 10
327.9637309524
 20
235.5063954486
 10
328.4549399594
 20
235.5711174311
 10
328.9587798501
 20
235.5711178113
 10
329.4499868815
 20
235.5063954486
 10
329.9039314891
 20
235.3801954713
 10
330.2978491061
 20
235.1988469438
 10
330.6119880073
 20
234.9714431439
 10
330.8305964666
 20
234.7093865
 10
330.9427136691
 20
234.425817196
 10
330.9427130105
 20
234.1349566182
 10
330.8305964666
 20
233.8513892151
 10
330.6119893244
 20
233.5893325712
 10
330.2978497647
 20
233.3619283911
  0
LWPOLYLINE
  5
2A1
330
1F
100
AcDbEntity
  8
0
  6
Continuous
 62
     7
370
    15
100
AcDbPolyline
 90
       29
 70
   128
 43
0.0
 10
337.3689187356
 20
229.2798871629
 10
336.9749978258
 20
229.0985397759
 10
336.5210532183
 20
228.9723405589
 10
336.0298468454
 20
228.9076170558
 10
335.5260095889
 20
228.9076151549
 10
335.0347972891
 20
228.9723405589
 10
334.5808553158
 20
229.0985390155
 10
334.1869376987
 20
229.2798875431
 10
333.8727987975
 20
229.507291343
 10
333.6541877041
 20
229.7693495075
 10
333.5420731358
 20
230.0529172909
 10
333.5420764285
 20
230.343776348
 10
333.6541877041
 20
230.6273467925
 10
333.8728001146
 20
230.889400395
 10
334.1869370401
 20
231.1168060958
 10
334.5808579499
 20
231.2981534828
 10
335.0347972891
 20
231.4243557411
 10
335.5260089303
 20
231.4890762029
 10
336.0298461869
 20
231.4890781037
 10
336.5210532183
 20
231.4243557411
 10
336.97500046
 20
231.2981542431
 10
337.368918077
 20
231.1168057156
 10
337.6830569782
 20
230.8894019157
 10
337.9016628033
 20
230.6273467925
 10
338.01378264
 20
230.3437759678
 10
338.0137793472
 20
230.0529169107
 10
337.9016628033
 20
229.7693495075
 10
337.6830556611
 20
229.5072928636
 10
337.3689187356
 20
229.2798871629
  0
LWPOLYLINE
  5
2A2
330
1F
100
AcDbEntity
  8
0
  6
Continuous
 62
     7
370
    15
100
AcDbPolyline
 90
       29
 70
   128
 43
0.0
 10
351.511051409
 20
221.1158077478
 10
351.1171357676
 20
220.9344573194
 10
350.6631911601
 20
220.8082581025
 10
350.1719847872
 20
220.7435345994
 10
349.6681422623
 20
220.7435357399
 10
349.1769352309
 20
220.8082581025
 10
348.7229932576
 20
220.9344565591
 10
348.3290703721
 20
221.115808128
 10
348.0149314709
 20
221.3432119279
 10
347.7963256459
 20
221.6052670511
 10
347.6842110776
 20
221.8888348344
 10
347.6842091019
 20
222.1796969329
 10
347.7963256459
 20
222.463264336
 10
348.014932788
 20
222.7253209799
 10
348.3290749819
 20
222.9527236393
 10
348.7229906234
 20
223.1340740677
 10
349.1769352309
 20
223.2602732847
 10
349.6681416038
 20
223.3249967878
 10
350.1719841287
 20
223.3249956473
 10
350.6631911601
 20
223.2602732847
 10
351.1171331334
 20
223.1340748281
 10
351.5110507505
 20
222.9527263005
 10
351.82519492
 20
222.7253194593
 10
352.0438007451
 20
222.463264336
 10
352.1559153134
 20
222.1796965527
 10
352.155917289
 20
221.8888344543
 10
352.0438007451
 20
221.6052670511
 10
351.825193603
 20
221.3432104072
 10
351.511051409
 20
221.1158077478
  0
LWPOLYLINE
  5
2A3
330
1F
100
AcDbEntity
  8
0
  6
Continuous
 62
     7
370
    15
100
AcDbPolyline
 90
       29
 70
   128
 43
0.0
 10
365.6531893508
 20
212.9517252914
 10
365.259268441
 20
212.7703779044
 10
364.8053291019
 20
212.6441756461
 10
364.3141174607
 20
212.5794551843
 10
363.8102802041
 20
212.5794532834
 10
363.3190731727
 20
212.6441756461
 10
362.865125931
 20
212.770377144
 10
362.4712083139
 20
212.9517256716
 10
362.1570694127
 20
213.1791294715
 10
361.9384635877
 20
213.4411845947
 10
361.826343751
 20
213.7247554194
 10
361.8263470437
 20
214.0156144765
 10
361.9384635877
 20
214.2991818796
 10
362.1570707298
 20
214.5612385235
 10
362.4712076554
 20
214.7886442243
 10
362.8651285652
 20
214.9699916113
 10
363.3190731727
 20
215.0961908282
 10
363.8102795456
 20
215.1609143314
 10
364.3141168021
 20
215.1609162322
 10
364.8053291019
 20
215.0961908282
 10
365.2592710752
 20
214.9699923716
 10
365.6531886923
 20
214.7886438441
 10
365.9673275935
 20
214.5612400442
 10
366.1859386869
 20
214.2991818796
 10
366.2980532552
 20
214.0156140963
 10
366.2980499625
 20
213.7247550392
 10
366.1859386869
 20
213.4411845947
 10
365.9673262764
 20
213.1791309922
 10
365.6531893508
 20
212.9517252914
  0
LWPOLYLINE
  5
2A4
330
1F
100
AcDbEntity
  8
0
  6
Continuous
 62
     7
370
    15
100
AcDbPolyline
 90
       29
 70
   128
 43
0.0
 10
372.7242556876
 20
208.8696855839
 10
372.3303400461
 20
208.6883351555
 10
371.8763954386
 20
208.5621359385
 10
371.3851890657
 20
208.4974124354
 10
370.8813465409
 20
208.4974135759
 10
370.3901395094
 20
208.5621359385
 10
369.9361922677
 20
208.6883374365
 10
369.5422746507
 20
208.869685964
 10
369.2281357495
 20
209.0970897639
 10
369.0095299244
 20
209.3591448872
 10
368.8974153561
 20
209.6427126705
 10
368.8974133805
 20
209.9335747689
 10
369.0095299244
 20
210.2171421721
 10
369.2281370666
 20
210.479198816
 10
369.5422739921
 20
210.7066045167
 10
369.9361949019
 20
210.8879519038
 10
370.3901395094
 20
211.0141511207
 10
370.8813458823
 20
211.0788746238
 10
371.3851884072
 20
211.0788734833
 10
371.8763954386
 20
211.0141511207
 10
372.330337412
 20
210.8879526641
 10
372.724255029
 20
210.7066041366
 10
373.0383939302
 20
210.4792003367
 10
373.2570050236
 20
210.2171421721
 10
373.3691195919
 20
209.9335743888
 10
373.3691215676
 20
209.6427122903
 10
373.2570050236
 20
209.3591448872
 10
373.0383978815
 20
209.0970882433
 10
372.7242556876
 20
208.8696855839
  0
LWPOLYLINE
  5
2A5
330
1F
100
AcDbEntity
  8
0
  6
Continuous
 62
     7
370
    15
100
AcDbPolyline
 90
       29
 70
   128
 43
0.0
 10
358.5821230141
 20
217.0337649989
 10
358.1882021043
 20
216.8524176119
 10
357.7342574968
 20
216.726218395
 10
357.2430511239
 20
216.6614948918
 10
356.739208599
 20
216.6614960323
 10
356.2480015676
 20
216.726218395
 10
355.7940595943
 20
216.8524168516
 10
355.4001419772
 20
217.0337653791
 10
355.086003076
 20
217.261169179
 10
354.8673919826
 20
217.5232273436
 10
354.7552774143
 20
217.8067951269
 10
354.755280707
 20
218.097654184
 10
354.8673919826
 20
218.3812246285
 10
355.0859991247
 20
218.6432812724
 10
355.4001413187
 20
218.8706839318
 10
355.7940569601
 20
219.0520343602
 10
356.2480015676
 20
219.1782335771
 10
356.7392132089
 20
219.2429540389
 10
357.2430504654
 20
219.2429559398
 10
357.7342574968
 20
219.1782335771
 10
358.1882047385
 20
219.0520320792
 10
358.5821223556
 20
218.8706835516
 10
358.8962612568
 20
218.6432797517
 10
359.1148670818
 20
218.3812246285
 10
359.2269816501
 20
218.0976568452
 10
359.2269836258
 20
217.8067947467
 10
359.1148670818
 20
217.5232273436
 10
358.8962599397
 20
217.2611706997
 10
358.5821230141
 20
217.0337649989
  0
LWPOLYLINE
  5
2A6
330
1F
100
AcDbEntity
  8
0
  6
Continuous
 62
     7
370
    15
100
AcDbPolyline
 90
       29
 70
   128
 43
0.0
 10
344.4399850723
 20
225.1978474554
 10
344.0460694309
 20
225.016497027
 10
343.5921248234
 20
224.89029781
 10
343.1009131821
 20
224.8255773482
 10
342.5970759256
 20
224.8255754474
 10
342.1058688942
 20
224.89029781
 10
341.6519216525
 20
225.016499308
 10
341.2580040354
 20
225.1978478355
 10
340.9438651342
 20
225.4252516354
 10
340.7252593091
 20
225.6873067586
 10
340.6131447408
 20
225.970874542
 10
340.6131427652
 20
226.2617366404
 10
340.7252593091
 20
226.5453040436
 10
340.9438664513
 20
226.8073606875
 10
341.2580033769
 20
227.0347663882
 10
341.6519242867
 20
227.2161137753
 10
342.1058688942
 20
227.3423129922
 10
342.597075267
 20
227.4070364953
 10
343.1009177919
 20
227.4070353548
 10
343.5921248234
 20
227.3423129922
 10
344.0460667967
 20
227.2161145356
 10
344.4399844138
 20
227.0347660081
 10
344.754123315
 20
226.8073622081
 10
344.9727344084
 20
226.5453040436
 10
345.0848489767
 20
226.2617362602
 10
345.084845684
 20
225.9708772032
 10
344.9727344084
 20
225.6873067586
 10
344.7541272662
 20
225.4252501148
 10
344.4399850723
 20
225.1978474554
  0
LWPOLYLINE
  5
2A7
330
1F
100
AcDbEntity
  8
0
  6
Continuous
 62
     7
370
    15
100
AcDbPolyline
 90
       29
 70
   128
 43
0.0
 10
323.2267807938
 20
237.4439696193
 10
322.8328625182
 20
237.2626207116
 10
322.3789205448
 20
237.136419974
 10
321.8877115378
 20
237.0716979915
 10
321.3838716471
 20
237.0716976114
 10
320.8926646156
 20
237.136419974
 10
320.4387200081
 20
237.2626199513
 10
320.044802391
 20
237.4439684788
 10
319.7306634899
 20
237.6713722787
 10
319.5120550306
 20
237.9334289226
 10
319.3999378281
 20
238.2169982266
 10
319.3999384867
 20
238.5078588044
 10
319.5120550306
 20
238.7914262075
 10
319.7306621728
 20
239.0534828514
 10
320.0448017325
 20
239.2808870315
 10
320.4387200081
 20
239.4622359392
 10
320.8926646156
 20
239.5884351562
 10
321.3838709885
 20
239.6531586593
 10
321.8877108792
 20
239.6531590395
 10
322.3789205448
 20
239.5884351562
 10
322.8328651523
 20
239.4622351789
 10
323.2267827694
 20
239.2808866513
 10
323.5409216706
 20
239.0534828514
 10
323.7595301298
 20
238.7914262075
 10
323.8716446982
 20
238.5078584242
 10
323.8716440396
 20
238.2169978464
 10
323.7595301298
 20
237.9334289226
 10
323.5409203535
 20
237.6713737994
 10
323.2267807938
 20
237.4439696193
  0
LWPOLYLINE
  5
2A8
330
1F
100
AcDbEntity
  8
0
  6
Continuous
 62
     7
370
    15
100
AcDbPolyline
 90
       29
 70
   128
 43
0.0
 10
316.1557144571
 20
241.5260093268
 10
315.7617961814
 20
241.3446604191
 10
315.3078515739
 20
241.2184612022
 10
314.816645201
 20
241.1537376991
 10
314.3128026762
 20
241.1537388396
 10
313.8215956447
 20
241.2184612022
 10
313.3676510372
 20
241.3446611795
 10
312.9737334201
 20
241.526009707
 10
312.6595945189
 20
241.7534135069
 10
312.4409860597
 20
242.0154701508
 10
312.3288714914
 20
242.2990379341
 10
312.3288721499
 20
242.5898985119
 10
312.4409860597
 20
242.8734674357
 10
312.6595932019
 20
243.1355240796
 10
312.9737327616
 20
243.3629282597
 10
313.3676510372
 20
243.5442771674
 10
313.8215956447
 20
243.6704763844
 10
314.3128046518
 20
243.7351983668
 10
314.8166445425
 20
243.735198747
 10
315.3078515739
 20
243.6704763844
 10
315.7617961814
 20
243.5442764071
 10
316.1557137985
 20
243.3629278795
 10
316.4698526997
 20
243.1355240796
 10
316.6884611589
 20
242.8734674357
 10
316.8005757272
 20
242.5898996524
 10
316.8005777029
 20
242.299037554
 10
316.6884611589
 20
242.0154701508
 10
316.4698540168
 20
241.7534135069
 10
316.1557144571
 20
241.5260093268
  0
LWPOLYLINE
  5
2A9
330
1F
100
AcDbEntity
  8
0
  6
Continuous
 62
     7
370
    15
100
AcDbPolyline
 90
       29
 70
   128
 43
0.0
 10
309.0846468032
 20
245.6080497947
 10
308.6907285276
 20
245.426700887
 10
308.2367839201
 20
245.3005016701
 10
307.7455762301
 20
245.2357789273
 10
307.2417363394
 20
245.2357785471
 10
306.7505279909
 20
245.3005016701
 10
306.2965833834
 20
245.4267016473
 10
305.9026657663
 20
245.6080501749
 10
305.5885268651
 20
245.8354539748
 10
305.3699184059
 20
246.0975106187
 10
305.2578038376
 20
246.381078402
 10
305.257803179
 20
246.6719397401
 10
305.3699184059
 20
246.9555079036
 10
305.5885268651
 20
247.2175637872
 10
305.9026664249
 20
247.4449679672
 10
306.2965847005
 20
247.626316875
 10
306.7505279909
 20
247.7525168522
 10
307.2417356809
 20
247.817239595
 10
307.7455768887
 20
247.8172392149
 10
308.2367839201
 20
247.7525168522
 10
308.6907285276
 20
247.626316875
 10
309.0846461447
 20
247.4449683474
 10
309.3987850459
 20
247.2175645475
 10
309.6173935051
 20
246.9555079036
 10
309.7295093905
 20
246.67193936
 10
309.729508732
 20
246.3810787822
 10
309.6173935051
 20
246.0975106187
 10
309.398786363
 20
245.8354539748
 10
309.0846468032
 20
245.6080497947
  0
LWPOLYLINE
  5
2AA
330
1F
100
AcDbEntity
  8
0
  6
Continuous
 62
     7
370
    15
100
AcDbPolyline
 90
       29
 70
   128
 43
0.0
 10
302.0135791494
 20
249.6900902626
 10
301.6196608738
 20
249.5087413549
 10
301.1657162663
 20
249.3825421379
 10
300.6745085763
 20
249.3178193951
 10
300.1706686856
 20
249.317819015
 10
299.6794603371
 20
249.3825421379
 10
299.2255163881
 20
249.508741735
 10
298.8315981125
 20
249.6900906428
 10
298.5174592113
 20
249.9174944427
 10
298.2988507521
 20
250.1795510866
 10
298.1867355252
 20
250.4631192501
 10
298.1867361838
 20
250.7539798278
 10
298.2988507521
 20
251.0375483715
 10
298.5174585528
 20
251.2996046352
 10
298.8315981125
 20
251.5270088153
 10
299.2255163881
 20
251.708357723
 10
299.6794603371
 20
251.8345573201
 10
300.1706686856
 20
251.8992796827
 10
300.6745085763
 20
251.8992800629
 10
301.1657162663
 20
251.8345573201
 10
301.6196608738
 20
251.7083573428
 10
302.0135784909
 20
251.5270088153
 10
302.3277180506
 20
251.2996046352
 10
302.5463258513
 20
251.0375483715
 10
302.6584417367
 20
250.7539798278
 10
302.6584410782
 20
250.4631192501
 10
302.5463258513
 20
250.1795510866
 10
302.3277187092
 20
249.9174944427
 10
302.0135791494
 20
249.6900902626
  0
LWPOLYLINE
  5
2AB
330
1F
100
AcDbEntity
  8
0
  6
Continuous
 62
     7
370
    15
100
AcDbPolyline
 90
       29
 70
   128
 43
0.0
 10
350.0968389319
 20
195.8071559346
 10
349.7029239491
 20
195.6258058864
 10
349.248978683
 20
195.4996062893
 10
348.7577716516
 20
195.434882406
 10
348.2539297852
 20
195.4348839266
 10
347.7627227538
 20
195.4996062893
 10
347.3087748536
 20
195.6258074071
 10
346.9148572365
 20
195.8071559346
 10
346.6007183353
 20
196.0345597345
 10
346.3821131688
 20
196.2966152379
 10
346.2699986005
 20
196.5801830212
 10
346.2699959663
 20
196.8710447395
 10
346.3821131688
 20
197.1546125228
 10
346.6007209695
 20
197.4166695469
 10
346.9148572365
 20
197.6440748675
 10
347.3087774877
 20
197.8254218743
 10
347.7627227538
 20
197.9516214714
 10
348.2539284681
 20
198.0163445944
 10
348.7577716516
 20
198.0163438341
 10
349.248978683
 20
197.9516214714
 10
349.7029199978
 20
197.8254226347
 10
350.0968376149
 20
197.6440741071
 10
350.4109765161
 20
197.4166703072
 10
350.629588268
 20
197.1546125228
 10
350.7417028363
 20
196.8710447395
 10
350.7417041534
 20
196.5801822609
 10
350.629588268
 20
196.2966152379
 10
350.4109804673
 20
196.0345582138
 10
350.0968389319
 20
195.8071559346
  0
LWPOLYLINE
  5
2AC
330
1F
100
AcDbEntity
  8
0
  6
Continuous
 62
     7
370
    15
100
AcDbPolyline
 90
       29
 70
   128
 43
0.0
 10
343.0257725952
 20
199.8891956421
 10
342.631852344
 20
199.7078486353
 10
342.1779123463
 20
199.5816459968
 10
341.6867000465
 20
199.5169251549
 10
341.1828634485
 20
199.5169236342
 10
340.6916564171
 20
199.5816459968
 10
340.2377085168
 20
199.7078471146
 10
339.8437908998
 20
199.8891956421
 10
339.5296519986
 20
200.116599442
 10
339.3110468321
 20
200.3786549454
 10
339.1989269954
 20
200.6622257701
 10
339.1989296296
 20
200.953084447
 10
339.3110468321
 20
201.2366522304
 10
339.5296546327
 20
201.4987092544
 10
339.8437908998
 20
201.726114575
 10
340.237711151
 20
201.9074615819
 10
340.6916564171
 20
202.033661179
 10
341.1828621314
 20
202.0983843019
 10
341.6867000465
 20
202.098386583
 10
342.1779123463
 20
202.033661179
 10
342.6318536611
 20
201.9074623422
 10
343.0257712781
 20
201.7261138147
 10
343.3399101793
 20
201.4987100148
 10
343.5585219313
 20
201.2366522304
 10
343.6706364996
 20
200.953084447
 10
343.6706325483
 20
200.6622250098
 10
343.5585219313
 20
200.3786549454
 10
343.3399088622
 20
200.1166009627
 10
343.0257725952
 20
199.8891956421
  0
LWPOLYLINE
  5
2AD
330
1F
100
AcDbEntity
  8
0
  6
Continuous
 62
     7
370
    15
100
AcDbPolyline
 90
       29
 70
   128
 43
0.0
 10
335.9547062585
 20
203.9712353497
 10
335.5607860072
 20
203.7898883428
 10
335.1068407412
 20
203.6636887457
 10
334.6156337098
 20
203.5989648624
 10
334.1117918434
 20
203.5989663831
 10
333.620584812
 20
203.6636887457
 10
333.1666421801
 20
203.7898868221
 10
332.772724563
 20
203.9712353497
 10
332.4585856618
 20
204.1986391496
 10
332.239975227
 20
204.4606976943
 10
332.1278606587
 20
204.7442654776
 10
332.1278632928
 20
205.0351241546
 10
332.239975227
 20
205.3186949792
 10
332.4585830277
 20
205.5807520033
 10
332.772724563
 20
205.8081542825
 10
333.1666395459
 20
205.9895043308
 10
333.620584812
 20
206.1157039279
 10
334.1117957947
 20
206.1804240095
 10
334.6156337098
 20
206.1804262905
 10
335.1068407412
 20
206.1157039279
 10
335.5607873243
 20
205.9895020497
 10
335.9547049414
 20
205.8081535222
 10
336.2688438426
 20
205.5807497223
 10
336.4874503262
 20
205.3186949792
 10
336.5995648945
 20
205.0351271959
 10
336.5995662116
 20
204.7442647173
 10
336.4874503262
 20
204.4606976943
 10
336.2688425255
 20
204.1986406703
 10
335.9547062585
 20
203.9712353497
  0
LWPOLYLINE
  5
2AE
330
1F
100
AcDbEntity
  8
0
  6
Continuous
 62
     7
370
    15
100
AcDbPolyline
 90
       29
 70
   128
 43
0.0
 10
328.8836346534
 20
208.0532780986
 10
328.4897196705
 20
207.8719280503
 10
328.0357744045
 20
207.7457284532
 10
327.544567373
 20
207.6810045699
 10
327.0407255067
 20
207.6810060906
 10
326.5495184753
 20
207.7457284532
 10
326.0955758434
 20
207.8719265297
 10
325.701652958
 20
208.0532780986
 10
325.3875140568
 20
208.2806818985
 10
325.1689088902
 20
208.5427374019
 10
325.0567943219
 20
208.8263051852
 10
325.0567916878
 20
209.1171669035
 10
325.1689088902
 20
209.4007346868
 10
325.3875166909
 20
209.6627917108
 10
325.7016582263
 20
209.8901939901
 10
326.0955732092
 20
210.0715440383
 10
326.5495184753
 20
210.1977436354
 10
327.0407241896
 20
210.2624667584
 10
327.544567373
 20
210.262465998
 10
328.0357744045
 20
210.1977436354
 10
328.4897157192
 20
210.0715447986
 10
328.8836333363
 20
209.8901962711
 10
329.1977775059
 20
209.6627894298
 10
329.4163839895
 20
209.4007346868
 10
329.5284985578
 20
209.1171669035
 10
329.5284998749
 20
208.8263044248
 10
329.4163839895
 20
208.5427374019
 10
329.1977761888
 20
208.2806803778
 10
328.8836346534
 20
208.0532780986
  0
LWPOLYLINE
  5
2AF
330
1F
100
AcDbEntity
  8
0
  6
Continuous
 62
     7
370
    15
100
AcDbPolyline
 90
       29
 70
   128
 43
0.0
 10
321.8125683167
 20
212.1353178061
 10
321.4186533338
 20
211.9539677579
 10
320.9647080677
 20
211.8277681608
 10
320.473495768
 20
211.7630473188
 10
319.96965917
 20
211.7630457981
 10
319.4784521386
 20
211.8277681608
 10
319.0245042383
 20
211.9539692785
 10
318.6305866212
 20
212.1353178061
 10
318.31644772
 20
212.362721606
 10
318.0978425535
 20
212.6247771094
 10
317.9857279852
 20
212.9083448927
 10
317.985725351
 20
213.199206611
 10
318.0978425535
 20
213.4827743943
 10
318.3164503542
 20
213.7448314184
 10
318.6305866212
 20
213.972236739
 10
319.0245068725
 20
214.1535837458
 10
319.4784521386
 20
214.2797833429
 10
319.9696578529
 20
214.3445064659
 10
320.4735010363
 20
214.3445057056
 10
320.9647080677
 20
214.2797833429
 10
321.4186493825
 20
214.1535845062
 10
321.8125669996
 20
213.9722359786
 10
322.1267059008
 20
213.7448321787
 10
322.3453176528
 20
213.4827743943
 10
322.4574322211
 20
213.199206611
 10
322.4574282698
 20
212.9083471737
 10
322.3453176528
 20
212.6247771094
 10
322.1267098521
 20
212.3627200853
 10
321.8125683167
 20
212.1353178061
  0
LWPOLYLINE
  5
2B0
330
1F
100
AcDbEntity
  8
0
  6
Continuous
 62
     7
370
    15
100
AcDbPolyline
 90
       29
 70
   128
 43
0.0
 10
314.74150198
 20
216.2173575136
 10
314.3475817287
 20
216.0360105068
 10
313.8936364626
 20
215.9098109097
 10
313.4024294312
 20
215.8450870263
 10
312.8985928332
 20
215.8450855057
 10
312.4073805335
 20
215.9098109097
 10
311.9534379016
 20
216.0360089861
 10
311.5595202845
 20
216.2173575136
 10
311.2453813833
 20
216.4447613135
 10
311.0267709484
 20
216.7068198583
 10
310.9146563801
 20
216.9903876416
 10
310.9146590143
 20
217.2812463185
 10
311.0267709484
 20
217.5648171432
 10
311.2453840175
 20
217.8268711259
 10
311.5595202845
 20
218.0542764465
 10
311.9534405358
 20
218.2356234534
 10
312.4073805335
 20
218.3618260918
 10
312.8985915162
 20
218.4265461734
 10
313.4024294312
 20
218.4265484545
 10
313.8936364626
 20
218.3618260918
 10
314.3475830458
 20
218.2356242137
 10
314.7415006629
 20
218.0542756862
 10
315.0556395641
 20
217.8268718862
 10
315.2742460477
 20
217.5648171432
 10
315.3863658843
 20
217.2812463185
 10
315.3863619331
 20
216.9903868813
 10
315.2742460477
 20
216.7068198583
 10
315.055638247
 20
216.4447628342
 10
314.74150198
 20
216.2173575136
  0
LWPOLYLINE
  5
2B1
330
1F
100
AcDbEntity
  8
0
  6
Continuous
 62
     7
370
    15
100
AcDbPolyline
 90
       29
 70
   128
 43
0.0
 10
307.6704330091
 20
220.2993987418
 10
307.276515392
 20
220.1180502143
 10
306.8225701259
 20
219.9918506172
 10
306.3313630945
 20
219.9271267339
 10
305.8275238623
 20
219.9271267339
 10
305.3363141967
 20
219.9918506172
 10
304.8823689307
 20
220.1180502143
 10
304.4884513136
 20
220.2993987418
 10
304.1743124124
 20
220.5268025418
 10
303.9557046117
 20
220.7888595658
 10
303.8435900434
 20
221.0724273491
 10
303.8435900434
 20
221.3632875467
 10
303.9557046117
 20
221.6468568507
 10
304.1743150466
 20
221.9089123541
 10
304.4884539478
 20
222.136316154
 10
304.8823715649
 20
222.3176646816
 10
305.3363141967
 20
222.4438657994
 10
305.8275225452
 20
222.5085874017
 10
306.3313630945
 20
222.508588162
 10
306.8225701259
 20
222.4438657994
 10
307.2765140749
 20
222.3176654419
 10
307.670431692
 20
222.1363169144
 10
307.9845705932
 20
221.9089131145
 10
308.2031797109
 20
221.6468568507
 10
308.3152969134
 20
221.3632875467
 10
308.3152955963
 20
221.0724265888
 10
308.2031797109
 20
220.7888595658
 10
307.9845719103
 20
220.5268025418
 10
307.6704330091
 20
220.2993987418
  0
LWPOLYLINE
  5
2B2
330
1F
100
AcDbEntity
  8
0
  6
Continuous
 62
     7
370
    15
100
AcDbPolyline
 90
       29
 70
   128
 43
0.0
 10
300.5993640382
 20
224.3814399701
 10
300.2054464211
 20
224.2000914425
 10
299.7515037892
 20
224.0738903247
 10
299.2602941236
 20
224.0091679621
 10
298.7564548914
 20
224.0091679621
 10
298.26524786
 20
224.0738903247
 10
297.811302594
 20
224.2000899218
 10
297.4173849769
 20
224.3814384494
 10
297.1032460757
 20
224.6088422493
 10
296.884638275
 20
224.8708992733
 10
296.7725210725
 20
225.1544685773
 10
296.7725210725
 20
225.4453287749
 10
296.884638275
 20
225.7288965583
 10
297.1032460757
 20
225.9909535823
 10
297.4173849769
 20
226.2183573822
 10
297.811302594
 20
226.3997059098
 10
298.26524786
 20
226.5259055069
 10
298.7564535743
 20
226.5906286299
 10
299.2602941236
 20
226.5906293902
 10
299.7515037892
 20
226.5259055069
 10
300.2054477382
 20
226.3997051495
 10
300.5993653552
 20
226.2183566219
 10
300.9135042564
 20
225.990952822
 10
301.1321133742
 20
225.7288965583
 10
301.2442279425
 20
225.4453287749
 10
301.2442266254
 20
225.154467817
 10
301.1321133742
 20
224.8708992733
 10
300.9135029394
 20
224.60884377
 10
300.5993640382
 20
224.3814399701
  0
LWPOLYLINE
  5
2B3
330
1F
100
AcDbEntity
  8
0
  6
Continuous
 62
     7
370
    15
100
AcDbPolyline
 90
       29
 70
   128
 43
0.0
 10
293.5282977014
 20
228.4634796776
 10
293.1343800844
 20
228.28213115
 10
292.6804348183
 20
228.1559315529
 10
292.1892277869
 20
228.0912076696
 10
291.6853859205
 20
228.0912091903
 10
291.1941788891
 20
228.1559315529
 10
290.740233623
 20
228.28213115
 10
290.346316006
 20
228.4634796776
 10
290.0321771048
 20
228.6908834775
 10
289.8135693041
 20
228.9529405016
 10
289.7014547358
 20
229.2365082849
 10
289.7014547358
 20
229.5273684825
 10
289.8135693041
 20
229.8109377865
 10
290.0321771048
 20
230.0729948105
 10
290.346316006
 20
230.3003986105
 10
290.740233623
 20
230.481747138
 10
291.1941788891
 20
230.6079467351
 10
291.6853872376
 20
230.6726683374
 10
292.1892277869
 20
230.6726690977
 10
292.6804348183
 20
230.6079467351
 10
293.1343787673
 20
230.4817463777
 10
293.5282963843
 20
230.3003978501
 10
293.8424352855
 20
230.0729940502
 10
294.0610444033
 20
229.8109377865
 10
294.1731589716
 20
229.5273700032
 10
294.1731602887
 20
229.2365075245
 10
294.0610444033
 20
228.9529405016
 10
293.8424366026
 20
228.6908834775
 10
293.5282977014
 20
228.4634796776
  0
LWPOLYLINE
  5
2B4
330
1F
100
AcDbEntity
  8
0
  6
Continuous
 62
     7
370
    15
100
AcDbPolyline
 90
       29
 70
   128
 43
0.0
 10
286.4572300476
 20
232.5455201455
 10
286.0633124305
 20
232.3641716179
 10
285.6093671645
 20
232.2379720208
 10
285.118158816
 20
232.1732488978
 10
284.6143195838
 20
232.1732488978
 10
284.1231112353
 20
232.2379720208
 10
283.6691659692
 20
232.3641716179
 10
283.2752483522
 20
232.5455201455
 10
282.961109451
 20
232.7729239454
 10
282.7425016503
 20
233.0349809694
 10
282.630387082
 20
233.3185487528
 10
282.6303857649
 20
233.6094097107
 10
282.7425016503
 20
233.8929782544
 10
282.9611107681
 20
234.1550345181
 10
283.2752496693
 20
234.382438318
 10
283.6691672863
 20
234.5637868455
 10
284.1231112353
 20
234.689987203
 10
284.6143182667
 20
234.7547095656
 10
285.1181601331
 20
234.7547095656
 10
285.6093671645
 20
234.689987203
 10
286.0633111135
 20
234.5637868455
 10
286.4572287305
 20
234.382438318
 10
286.7713676317
 20
234.1550345181
 10
286.9899767495
 20
233.8929782544
 10
287.1020926349
 20
233.6094097107
 10
287.1020913178
 20
233.3185487528
 10
286.9899767495
 20
233.0349809694
 10
286.7713689488
 20
232.7729239454
 10
286.4572300476
 20
232.5455201455
  0
LWPOLYLINE
  5
2B5
330
1F
100
AcDbEntity
  8
0
  6
Continuous
 62
     7
370
    15
100
AcDbPolyline
 90
       29
 70
   128
 43
0.0
 10
279.3861623938
 20
236.6275606133
 10
278.9922447767
 20
236.4462120858
 10
278.5382995107
 20
236.3200124887
 10
278.0470911622
 20
236.2552893657
 10
277.54325193
 20
236.2552893657
 10
277.0520435815
 20
236.3200124887
 10
276.598098974
 20
236.4462117056
 10
276.2041806983
 20
236.6275606133
 10
275.8900417971
 20
236.8549644132
 10
275.6714339965
 20
237.1170214373
 10
275.5593187696
 20
237.4005896008
 10
275.5593187696
 20
237.6914497984
 10
275.6714339965
 20
237.9750187222
 10
275.8900424557
 20
238.2370753661
 10
276.2041813569
 20
238.464479166
 10
276.598098974
 20
238.6458276936
 10
277.0520435815
 20
238.7720276709
 10
277.5432512714
 20
238.8367496533
 10
278.0470918207
 20
238.8367504137
 10
278.5382995107
 20
238.7720276709
 10
278.9922434596
 20
238.6458273134
 10
279.3861610767
 20
238.4644787859
 10
279.7003006365
 20
238.2370746058
 10
279.9189090957
 20
237.9750187222
 10
280.0310249811
 20
237.6914501786
 10
280.031023664
 20
237.4005892206
 10
279.9189090957
 20
237.1170214373
 10
279.700301295
 20
236.8549644132
 10
279.3861623938
 20
236.6275606133
  0
ARC
  5
2B6
330
1F
100
AcDbEntity
  8
0
  6
Continuous
 62
     7
370
    15
100
AcDbCircle
 10
348.5058494013
 20
191.8024775796
 30
0.0
 40
3.773413144303787
100
AcDbArc
 50
78.5507316348
 51
101.4492683652
  0
ARC
  5
2B7
330
1F
100
AcDbEntity
  8
0
  6
Continuous
 62
     7
370
    15
100
AcDbCircle
 10
341.4347830646
 20
195.8845691243
 30
0.0
 40
3.773362338655825
100
AcDbArc
 50
78.5505753933
 51
101.4494246067
  0
ARC
  5
2B8
330
1F
100
AcDbEntity
  8
0
  6
Continuous
 62
     7
370
    15
100
AcDbCircle
 10
334.3637065894
 20
199.9685962507
 30
0.0
 40
3.771416502993579
100
AcDbArc
 50
78.5444310196
 51
101.4553363356
  0
ARC
  5
2B9
330
1F
100
AcDbEntity
  8
0
  6
Continuous
 62
     7
370
    15
100
AcDbCircle
 10
327.2926451228
 20
204.0485997434
 30
0.0
 40
3.77341314442954
100
AcDbArc
 50
78.5507316352
 51
101.4492683648
  0
ARC
  5
2BA
330
1F
100
AcDbEntity
  8
0
  6
Continuous
 62
     7
370
    15
100
AcDbCircle
 10
371.1332674249
 20
204.8644736166
 30
0.0
 40
3.773936391253176
100
AcDbArc
 50
78.5523499549
 51
101.4476791258
  0
ARC
  5
2BB
330
1F
100
AcDbEntity
  8
0
  6
Continuous
 62
     7
370
    15
100
AcDbCircle
 10
320.221578786
 20
208.1306394509
 30
0.0
 40
3.773413144429485
100
AcDbArc
 50
78.5507316352
 51
101.4492683648
  0
ARC
  5
2BC
330
1F
100
AcDbEntity
  8
0
  6
Continuous
 62
     7
370
    15
100
AcDbCircle
 10
364.0622010882
 20
208.946565162
 30
0.0
 40
3.773885584658722
100
AcDbArc
 50
78.5521937546
 51
101.4478353261
  0
ARC
  5
2BD
330
1F
100
AcDbEntity
  8
0
  6
Continuous
 62
     7
370
    15
100
AcDbCircle
 10
313.1505124493
 20
212.2189505605
 30
0.0
 40
3.767266743692107
100
AcDbArc
 50
78.5317985298
 51
101.4682014702
  0
ARC
  5
2BE
330
1F
100
AcDbEntity
  8
0
  6
Continuous
 62
     7
370
    15
100
AcDbCircle
 10
356.9911246114
 20
213.0305942483
 30
0.0
 40
3.771937816994015
100
AcDbArc
 50
78.5460451326
 51
101.4537513034
  0
ARC
  5
2BF
330
1F
100
AcDbEntity
  8
0
  6
Continuous
 62
     7
370
    15
100
AcDbCircle
 10
306.0794434784
 20
216.2978600346
 30
0.0
 40
3.770336024339397
100
AcDbArc
 50
78.5412608831
 51
101.4587391169
  0
ARC
  5
2C0
330
1F
100
AcDbEntity
  8
0
  6
Continuous
 62
     7
370
    15
100
AcDbCircle
 10
349.9200631464
 20
217.1105957806
 30
0.0
 40
3.773936391253176
100
AcDbArc
 50
78.5523499549
 51
101.4476791258
  0
ARC
  5
2C1
330
1F
100
AcDbEntity
  8
0
  6
Continuous
 62
     7
370
    15
100
AcDbCircle
 10
299.0083745075
 20
220.376787534
 30
0.0
 40
3.773387741068387
100
AcDbArc
 50
78.5506535133
 51
101.4493464867
  0
ARC
  5
2C2
330
1F
100
AcDbEntity
  8
0
  6
Continuous
 62
     7
370
    15
100
AcDbCircle
 10
342.8489968096
 20
221.1926354881
 30
0.0
 40
3.773936391253577
100
AcDbArc
 50
78.5523499549
 51
101.4476791258
  0
ARC
  5
2C3
330
1F
100
AcDbEntity
  8
0
  6
Continuous
 62
     7
370
    15
100
AcDbCircle
 10
291.9373031005
 20
224.4598222207
 30
0.0
 40
3.772413573338388
100
AcDbArc
 50
78.5475783152
 51
101.4523053622
  0
ARC
  5
2C4
330
1F
100
AcDbEntity
  8
0
  6
Continuous
 62
     7
370
    15
100
AcDbCircle
 10
335.7779304713
 20
225.2809485829
 30
0.0
 40
3.767788009973423
100
AcDbArc
 50
78.5334160935
 51
101.4666129872
  0
ARC
  5
2C5
330
1F
100
AcDbEntity
  8
0
  6
Continuous
 62
     7
370
    15
100
AcDbCircle
 10
284.8662391999
 20
228.5424133632
 30
0.0
 40
3.771873602618111
100
AcDbArc
 50
78.5459952087
 51
101.4540047913
  0
ARC
  5
2C6
330
1F
100
AcDbEntity
  8
0
  6
Continuous
 62
     7
370
    15
100
AcDbCircle
 10
328.7068615012
 20
229.359857066
 30
0.0
 40
3.770858279237026
100
AcDbArc
 50
78.5428788248
 51
101.4571502559
  0
LWPOLYLINE
  5
2C7
330
1F
100
AcDbEntity
  8
0
  6
Continuous
 62
     7
370
    15
100
AcDbPolyline
 90
       31
 70
   128
 43
0.0
 10
304.7950775391
 20
252.5149836434
 10
305.1169628993
 20
252.7264335574
 10
305.5817583447
 20
253.1417530276
 10
305.9809930501
 20
253.6480979367
 10
306.3101434734
 20
254.2397311182
 10
306.5654802769
 20
254.9099487419
 10
306.7441098161
 20
255.6511576944
 10
306.8440090424
 20
256.4549589962
 10
306.8640459176
 20
257.3122455226
 10
306.8039925853
 20
258.21330424
 10
306.6645306393
 20
259.1479251424
 10
306.447239269
 20
260.1055191699
 10
306.1545807726
 20
261.0752362691
 10
305.7898715801
 20
262.0460888228
 10
305.3572433998
 20
263.0070771231
 10
304.8615981076
 20
263.9473127517
 10
304.3085517713
 20
264.8561421506
 10
303.704370771
 20
265.7232679095
 10
303.0559003476
 20
266.5388652999
 10
302.3704882115
 20
267.2936936762
 10
301.6559000842
 20
267.9791999854
 10
300.9202327703
 20
268.587617239
 10
300.1718216324
 20
269.1120521477
 10
299.4191464188
 20
269.5465622997
 10
298.6707352809
 20
269.8862244979
 10
297.9350679671
 20
270.1271906453
 10
297.2204798397
 20
270.2667302264
 10
296.5350677036
 20
270.3032618578
 10
295.8865972803
 20
270.2363724815
 10
295.28241628
 20
270.0668192574
 10
294.7958905122
 20
269.8359603799
  0
ARC
  5
2C8
330
1F
100
AcDbEntity
  8
0
  6
Continuous
 62
     7
370
    15
100
AcDbCircle
 10
277.7951702785
 20
232.6239304542
 30
0.0
 40
3.772386809232535
100
AcDbArc
 50
78.5475548929
 51
101.4524160264
  0
ARC
  5
2C9
330
1F
100
AcDbEntity
  8
0
  6
Continuous
 62
     7
370
    15
100
AcDbCircle
 10
321.6357925311
 20
233.4387835715
 30
0.0
 40
3.773910987395827
100
AcDbArc
 50
78.5522718536
 51
101.4477572271
  0
ARC
  5
2CA
330
1F
100
AcDbEntity
  8
0
  6
Continuous
 62
     7
370
    15
100
AcDbCircle
 10
314.5647211233
 20
237.5218192397
 30
0.0
 40
3.772935852119023
100
AcDbArc
 50
78.5491945289
 51
101.4507182292
  0
ARC
  5
2CB
330
1F
100
AcDbEntity
  8
0
  6
Continuous
 62
     7
370
    15
100
AcDbCircle
 10
307.4936572231
 20
241.604409898
 30
0.0
 40
3.77239635298675
100
AcDbArc
 50
78.5476133391
 51
101.4524157415
  0
ARC
  5
2CC
330
1F
100
AcDbEntity
  8
0
  6
Continuous
 62
     7
370
    15
100
AcDbCircle
 10
300.4225883017
 20
245.6859269859
 30
0.0
 40
3.772909565534901
100
AcDbArc
 50
78.5491725965
 51
101.4508274035
  0
ENDSEC
  0
SECTION
  2
OBJECTS
  0
DICTIONARY
  5
C
330
0
100
AcDbDictionary
281
     1
  3
ACAD_GROUP
350
D
  3
ACAD_IMAGE_DICT
350
45
  3
ACAD_LAYOUT
350
1A
  3
ACAD_MLINESTYLE
350
17
  3
ACAD_PLOTSETTINGS
350
19
  3
ACAD_PLOTSTYLENAME
350
E
  0
IMAGEDEF_REACTOR
  5
48
330
47
100
AcDbRasterImageDefReactor
 90
        2
330
47
  0
DICTIONARY
  5
D
102
{ACAD_REACTORS
330
C
102
}
330
C
100
AcDbDictionary
281
     1
  0
DICTIONARY
  5
45
102
{ACAD_REACTORS
330
C
102
}
330
C
100
AcDbDictionary
281
     1
  3
J:\Ingenierie\Projets INNOVANTS\HOWIT\Prototype-2013\Plans\dxfE2B0.bmp
350
46
  0
DICTIONARY
  5
1A
102
{ACAD_REACTORS
330
C
102
}
330
C
100
AcDbDictionary
281
     1
  3
Layout1
350
1E
  3
Layout2
350
26
  3
Model
350
22
  0
DICTIONARY
  5
17
102
{ACAD_REACTORS
330
C
102
}
330
C
100
AcDbDictionary
281
     1
  3
Standard
350
18
  0
DICTIONARY
  5
19
102
{ACAD_REACTORS
330
C
102
}
330
C
100
AcDbDictionary
281
     1
  0
ACDBDICTIONARYWDFLT
  5
E
102
{ACAD_REACTORS
330
C
102
}
330
C
100
AcDbDictionary
281
     1
  3
Normal
350
F
100
AcDbDictionaryWithDefault
340
F
  0
IMAGEDEF
  5
46
102
{ACAD_REACTORS
330
45
330
48
102
}
330
45
100
AcDbRasterImageDef
 90
        0
  1
J:\Ingenierie\Projets INNOVANTS\HOWIT\Prototype-2013\Plans\dxfE2B0.bmp
 10
400.0
 20
420.0
 11
0.2645502645502645
 21
0.2645502645502645
280
     1
281
     3
  0
LAYOUT
  5
1E
102
{ACAD_REACTORS
330
1A
102
}
330
1A
100
AcDbPlotSettings
  1

  2
none_device
  4

  6

 40
0.0
 41
0.0
 42
0.0
 43
0.0
 44
0.0
 45
0.0
 46
0.0
 47
0.0
 48
0.0
 49
0.0
140
0.0
141
0.0
142
1.0
143
1.0
 70
   688
 72
     0
 73
     0
 74
     5
  7

 75
    16
147
1.0
148
0.0
149
0.0
100
AcDbLayout
  1
Layout1
 70
     1
 71
     1
 10
0.0
 20
0.0
 11
420.0
 21
297.0
 12
0.0
 22
0.0
 32
0.0
 14
1.0000000000E+20
 24
1.0000000000E+20
 34
1.0000000000E+20
 15
-1.0000000000E+20
 25
-1.0000000000E+20
 35
-1.0000000000E+20
146
0.0
 13
0.0
 23
0.0
 33
0.0
 16
1.0
 26
0.0
 36
0.0
 17
0.0
 27
1.0
 37
0.0
 76
     0
330
1B
  0
LAYOUT
  5
26
102
{ACAD_REACTORS
330
1A
102
}
330
1A
100
AcDbPlotSettings
  1

  2
none_device
  4

  6

 40
0.0
 41
0.0
 42
0.0
 43
0.0
 44
0.0
 45
0.0
 46
0.0
 47
0.0
 48
0.0
 49
0.0
140
0.0
141
0.0
142
1.0
143
1.0
 70
   688
 72
     0
 73
     0
 74
     5
  7

 75
    16
147
1.0
148
0.0
149
0.0
100
AcDbLayout
  1
Layout2
 70
     1
 71
     2
 10
0.0
 20
0.0
 11
0.0
 21
0.0
 12
0.0
 22
0.0
 32
0.0
 14
0.0
 24
0.0
 34
0.0
 15
0.0
 25
0.0
 35
0.0
146
0.0
 13
0.0
 23
0.0
 33
0.0
 16
1.0
 26
0.0
 36
0.0
 17
0.0
 27
1.0
 37
0.0
 76
     0
330
23
  0
LAYOUT
  5
22
102
{ACAD_REACTORS
330
1A
102
}
330
1A
100
AcDbPlotSettings
  1

  2
none_device
  4

  6

 40
0.0
 41
0.0
 42
0.0
 43
0.0
 44
0.0
 45
0.0
 46
0.0
 47
0.0
 48
0.0
 49
0.0
140
0.0
141
0.0
142
1.0
143
1.0
 70
  1712
 72
     0
 73
     0
 74
     0
  7

 75
     0
147
1.0
148
0.0
149
0.0
100
AcDbLayout
  1
Model
 70
     1
 71
     0
 10
0.0
 20
0.0
 11
420.0
 21
297.0
 12
0.0
 22
0.0
 32
0.0
 14
0.0
 24
0.0
 34
0.0
 15
420.0
 25
297.0
 35
0.0
146
0.0
 13
0.0
 23
0.0
 33
0.0
 16
1.0
 26
0.0
 36
0.0
 17
0.0
 27
1.0
 37
0.0
 76
     0
330
1F
331
29
  0
MLINESTYLE
  5
18
102
{ACAD_REACTORS
330
17
102
}
330
17
100
AcDbMlineStyle
  2
Standard
 70
     0
  3

 62
   256
 51
90.0
 52
90.0
 71
     2
 49
0.5
 62
   256
  6
BYLAYER
 49
-0.5
 62
   256
  6
BYLAYER
  0
ACDBPLACEHOLDER
  5
F
102
{ACAD_REACTORS
330
E
102
}
330
E
  0
ENDSEC
  0
EOF
