  0
SECTION
  2
HEADER
  9
$ACADVER
  1
AC1015
  9
$ACADMAINTVER
 70
     6
  9
$DWGCODEPAGE
  3
ANSI_1252
  9
$INSBASE
 10
0.0
 20
0.0
 30
0.0
  9
$EXTMIN
 10
0.0
 20
0.0
 30
0.0
  9
$EXTMAX
 10
210.0
 20
297.0
 30
0.0
  9
$LIMMIN
 10
0.0
 20
0.0
  9
$LIMMAX
 10
210.0
 20
297.0
  9
$ORTHOMODE
 70
     0
  9
$REGENMODE
 70
     1
  9
$FILLMODE
 70
     1
  9
$QTEXTMODE
 70
     0
  9
$MIRRTEXT
 70
     1
  9
$LTSCALE
 40
1.0
  9
$ATTMODE
 70
     1
  9
$TEXTSIZE
 40
3.5
  9
$TRACEWID
 40
1.0
  9
$TEXTSTYLE
  7
Standard
  9
$CLAYER
  8
0
  9
$CELTYPE
  6
ByLayer
  9
$CECOLOR
 62
   256
  9
$CELTSCALE
 40
1.0
  9
$DISPSILH
 70
     0
  9
$DIMSCALE
 40
1.0
  9
$DIMASZ
 40
3.302
  9
$DIMEXO
 40
1.0
  9
$DIMDLI
 40
3.75
  9
$DIMRND
 40
0.0
  9
$DIMDLE
 40
0.0
  9
$DIMEXE
 40
1.0
  9
$DIMTP
 40
0.0
  9
$DIMTM
 40
0.0
  9
$DIMTXT
 40
3.5
  9
$DIMCEN
 40
2.5
  9
$DIMTSZ
 40
0.0
  9
$DIMTOL
 70
     0
  9
$DIMLIM
 70
     0
  9
$DIMTIH
 70
     1
  9
$DIMTOH
 70
     1
  9
$DIMSE1
 70
     0
  9
$DIMSE2
 70
     0
  9
$DIMTAD
 70
     1
  9
$DIMZIN
 70
     0
  9
$DIMBLK
  1

  9
$DIMASO
 70
     1
  9
$DIMSHO
 70
     1
  9
$DIMPOST
  1

  9
$DIMAPOST
  1

  9
$DIMALT
 70
     0
  9
$DIMALTD
 70
     3
  9
$DIMALTF
 40
0.0393700787
  9
$DIMLFAC
 40
1.0
  9
$DIMTOFL
 70
     1
  9
$DIMTVP
 40
0.0
  9
$DIMTIX
 70
     0
  9
$DIMSOXD
 70
     0
  9
$DIMSAH
 70
     0
  9
$DIMBLK1
  1

  9
$DIMBLK2
  1

  9
$DIMSTYLE
  2
ISO-25
  9
$DIMCLRD
 70
     0
  9
$DIMCLRE
 70
     0
  9
$DIMCLRT
 70
     0
  9
$DIMTFAC
 40
1.0
  9
$DIMGAP
 40
1.524
  9
$DIMJUST
 70
     0
  9
$DIMSD1
 70
     0
  9
$DIMSD2
 70
     0
  9
$DIMTOLJ
 70
     0
  9
$DIMTZIN
 70
     0
  9
$DIMALTZ
 70
     0
  9
$DIMALTTZ
 70
     0
  9
$DIMUPT
 70
     0
  9
$DIMDEC
 70
     3
  9
$DIMTDEC
 70
     3
  9
$DIMALTU
 70
     2
  9
$DIMALTTD
 70
     3
  9
$DIMTXSTY
  7
Standard
  9
$DIMAUNIT
 70
     0
  9
$DIMADEC
 70
     2
  9
$DIMALTRND
 40
0.0
  9
$DIMAZIN
 70
     0
  9
$DIMDSEP
 70
    44
  9
$DIMATFIT
 70
     3
  9
$DIMFRAC
 70
     0
  9
$DIMLDRBLK
  1

  9
$DIMLUNIT
 70
     2
  9
$DIMLWD
 70
    -2
  9
$DIMLWE
 70
    -2
  9
$DIMTMOVE
 70
     0
  9
$LUNITS
 70
     2
  9
$LUPREC
 70
     2
  9
$SKETCHINC
 40
1.0
  9
$FILLETRAD
 40
10.0
  9
$AUNITS
 70
     0
  9
$AUPREC
 70
     2
  9
$MENU
  1
.
  9
$ELEVATION
 40
0.0
  9
$PELEVATION
 40
0.0
  9
$THICKNESS
 40
0.0
  9
$LIMCHECK
 70
     0
  9
$CHAMFERA
 40
10.0
  9
$CHAMFERB
 40
10.0
  9
$CHAMFERC
 40
20.0
  9
$CHAMFERD
 40
0.0
  9
$SKPOLY
 70
     0
  9
$TDCREATE
 40
2456750.657626979
  9
$TDUCREATE
 40
2456750.615960313
  9
$TDUPDATE
 40
2456750.657626991
  9
$TDUUPDATE
 40
2456750.615960324
  9
$TDINDWG
 40
0.0000000116
  9
$TDUSRTIMER
 40
0.0000000116
  9
$USRTIMER
 70
     1
  9
$ANGBASE
 50
0.0
  9
$ANGDIR
 70
     0
  9
$PDMODE
 70
     0
  9
$PDSIZE
 40
-1.0
  9
$PLINEWID
 40
0.0
  9
$SPLFRAME
 70
     0
  9
$SPLINETYPE
 70
     6
  9
$SPLINESEGS
 70
     8
  9
$HANDSEED
  5
119
  9
$SURFTAB1
 70
     6
  9
$SURFTAB2
 70
     6
  9
$SURFTYPE
 70
     6
  9
$SURFU
 70
     6
  9
$SURFV
 70
     6
  9
$UCSBASE
  2

  9
$UCSNAME
  2

  9
$UCSORG
 10
0.0
 20
0.0
 30
0.0
  9
$UCSXDIR
 10
1.0
 20
0.0
 30
0.0
  9
$UCSYDIR
 10
0.0
 20
1.0
 30
0.0
  9
$UCSORTHOREF
  2

  9
$UCSORTHOVIEW
 70
     0
  9
$UCSORGTOP
 10
0.0
 20
0.0
 30
0.0
  9
$UCSORGBOTTOM
 10
0.0
 20
0.0
 30
0.0
  9
$UCSORGLEFT
 10
0.0
 20
0.0
 30
0.0
  9
$UCSORGRIGHT
 10
0.0
 20
0.0
 30
0.0
  9
$UCSORGFRONT
 10
0.0
 20
0.0
 30
0.0
  9
$UCSORGBACK
 10
0.0
 20
0.0
 30
0.0
  9
$PUCSBASE
  2

  9
$PUCSNAME
  2

  9
$PUCSORG
 10
0.0
 20
0.0
 30
0.0
  9
$PUCSXDIR
 10
1.0
 20
0.0
 30
0.0
  9
$PUCSYDIR
 10
0.0
 20
1.0
 30
0.0
  9
$PUCSORTHOREF
  2

  9
$PUCSORTHOVIEW
 70
     0
  9
$PUCSORGTOP
 10
0.0
 20
0.0
 30
0.0
  9
$PUCSORGBOTTOM
 10
0.0
 20
0.0
 30
0.0
  9
$PUCSORGLEFT
 10
0.0
 20
0.0
 30
0.0
  9
$PUCSORGRIGHT
 10
0.0
 20
0.0
 30
0.0
  9
$PUCSORGFRONT
 10
0.0
 20
0.0
 30
0.0
  9
$PUCSORGBACK
 10
0.0
 20
0.0
 30
0.0
  9
$USERI1
 70
     0
  9
$USERI2
 70
     0
  9
$USERI3
 70
     0
  9
$USERI4
 70
     0
  9
$USERI5
 70
     0
  9
$USERR1
 40
0.0
  9
$USERR2
 40
0.0
  9
$USERR3
 40
0.0
  9
$USERR4
 40
0.0
  9
$USERR5
 40
0.0
  9
$WORLDVIEW
 70
     1
  9
$SHADEDGE
 70
     3
  9
$SHADEDIF
 70
    70
  9
$TILEMODE
 70
     1
  9
$MAXACTVP
 70
    64
  9
$PINSBASE
 10
0.0
 20
0.0
 30
0.0
  9
$PLIMCHECK
 70
     0
  9
$PEXTMIN
 10
1.0000000000E+20
 20
1.0000000000E+20
 30
1.0000000000E+20
  9
$PEXTMAX
 10
-1.0000000000E+20
 20
-1.0000000000E+20
 30
-1.0000000000E+20
  9
$PLIMMIN
 10
0.0
 20
0.0
  9
$PLIMMAX
 10
420.0
 20
297.0
  9
$UNITMODE
 70
     0
  9
$VISRETAIN
 70
     1
  9
$PLINEGEN
 70
     0
  9
$PSLTSCALE
 70
     1
  9
$TREEDEPTH
 70
  3020
  9
$CMLSTYLE
  2
Standard
  9
$CMLJUST
 70
     0
  9
$CMLSCALE
 40
20.0
  9
$PROXYGRAPHICS
 70
     1
  9
$MEASUREMENT
 70
     1
  9
$CELWEIGHT
370
    -1
  9
$ENDCAPS
280
     0
  9
$JOINSTYLE
280
     0
  9
$LWDISPLAY
290
     1
  9
$INSUNITS
 70
     4
  9
$HYPERLINKBASE
  1

  9
$STYLESHEET
  1

  9
$XEDIT
290
     1
  9
$CEPSNTYPE
380
     0
  9
$PSTYLEMODE
290
     1
  9
$FINGERPRINTGUID
  2
{0CBF6816-66D6-48EA-A136-B4CFCCCEC213}
  9
$VERSIONGUID
  2
{FAEB1C32-E019-11D5-929B-00C0DF256EC4}
  9
$EXTNAMES
290
     1
  9
$PSVPSCALE
 40
0.0
  9
$OLESTARTUP
290
     0
  0
ENDSEC
  0
SECTION
  2
CLASSES
  0
CLASS
  1
ACDBDICTIONARYWDFLT
  2
AcDbDictionaryWithDefault
  3
ObjectDBX Classes
 90
        0
280
     0
281
     0
  0
CLASS
  1
VISUALSTYLE
  2
AcDbVisualStyle
  3
ObjectDBX Classes
 90
     4095
280
     0
281
     0
  0
CLASS
  1
MATERIAL
  2
AcDbMaterial
  3
ObjectDBX Classes
 90
     1153
280
     0
281
     0
  0
CLASS
  1
IMAGEDEF
  2
AcDbRasterImageDef
  3
ISM
 90
        0
280
     0
281
     0
  0
CLASS
  1
IMAGE
  2
AcDbRasterImage
  3
ISM
 90
      127
280
     0
281
     1
  0
CLASS
  1
IMAGEDEF_REACTOR
  2
AcDbRasterImageDefReactor
  3
ISM
 90
        1
280
     0
281
     0
  0
CLASS
  1
ACDBPLACEHOLDER
  2
AcDbPlaceHolder
  3
ObjectDBX Classes
 90
        0
280
     0
281
     0
  0
CLASS
  1
LAYOUT
  2
AcDbLayout
  3
ObjectDBX Classes
 90
        0
280
     0
281
     0
  0
ENDSEC
  0
SECTION
  2
TABLES
  0
TABLE
  2
VPORT
  5
8
330
0
100
AcDbSymbolTable
 70
     1
  0
VPORT
  5
29
330
8
100
AcDbSymbolTableRecord
100
AcDbViewportTableRecord
  2
*Active
 70
     0
 10
0.0
 20
0.0
 11
1.0
 21
1.0
 12
105.0
 22
148.5
 13
0.0
 23
0.0
 14
10.0
 24
10.0
 15
10.0
 25
10.0
 16
0.0
 26
0.0
 36
1.0
 17
0.0
 27
0.0
 37
0.0
 40
297.0
 41
0.7070707071
 42
50.0
 43
0.0
 44
0.0
 50
0.0
 51
0.0
 71
     0
 72
  2000
 73
     1
 74
     3
 75
     0
 76
     0
 77
     0
 78
     0
281
     0
 65
     1
110
0.0
120
0.0
130
0.0
111
1.0
121
0.0
131
0.0
112
0.0
122
1.0
132
0.0
 79
     0
146
0.0
  0
ENDTAB
  0
TABLE
  2
LTYPE
  5
5
330
0
100
AcDbSymbolTable
 70
     6
  0
LTYPE
  5
14
330
5
100
AcDbSymbolTableRecord
100
AcDbLinetypeTableRecord
  2
ByBlock
 70
     0
  3

 72
    65
 73
     0
 40
0.0
  0
LTYPE
  5
15
330
5
100
AcDbSymbolTableRecord
100
AcDbLinetypeTableRecord
  2
ByLayer
 70
     0
  3

 72
    65
 73
     0
 40
0.0
  0
LTYPE
  5
16
330
5
100
AcDbSymbolTableRecord
100
AcDbLinetypeTableRecord
  2
Continuous
 70
     0
  3
Solid line
 72
    65
 73
     0
 40
0.0
  0
LTYPE
  5
3F
330
5
100
AcDbSymbolTableRecord
100
AcDbLinetypeTableRecord
  2
HIDDEN
 70
     0
  3
Hidden __ __ __ __ __ __ __ __ __ __ __ __ __ __
 72
    65
 73
     2
 40
1.905
 49
1.27
 74
     0
 49
-0.635
 74
     0
  0
LTYPE
  5
40
330
5
100
AcDbSymbolTableRecord
100
AcDbLinetypeTableRecord
  2
PHANTOM
 70
     0
  3
Phantom ______  __  __  ______  __  __  ______
 72
    65
 73
     6
 40
12.7
 49
6.35
 74
     0
 49
-1.27
 74
     0
 49
1.27
 74
     0
 49
-1.27
 74
     0
 49
1.27
 74
     0
 49
-1.27
 74
     0
  0
LTYPE
  5
41
330
5
100
AcDbSymbolTableRecord
100
AcDbLinetypeTableRecord
  2
CENTER
 70
     0
  3
Center ____ _ ____ _ ____ _ ____ _ ____ _ ____
 72
    65
 73
     4
 40
10.16
 49
6.35
 74
     0
 49
-1.27
 74
     0
 49
1.27
 74
     0
 49
-1.27
 74
     0
  0
LTYPE
  5
42
330
5
100
AcDbSymbolTableRecord
100
AcDbLinetypeTableRecord
  2
CENTERX2
 70
     0
  3
Center (2x) ________  __  ________  __  _____
 72
    65
 73
     4
 40
20.32
 49
12.7
 74
     0
 49
-2.54
 74
     0
 49
2.54
 74
     0
 49
-2.54
 74
     0
  0
LTYPE
  5
43
330
5
100
AcDbSymbolTableRecord
100
AcDbLinetypeTableRecord
  2
DOT2
 70
     0
  3
Dot (.5x) ........................................
 72
    65
 73
     2
 40
0.635
 49
0.0
 74
     0
 49
-0.635
 74
     0
  0
ENDTAB
  0
TABLE
  2
LAYER
  5
2
330
0
100
AcDbSymbolTable
 70
     2
  0
LAYER
  5
10
330
2
100
AcDbSymbolTableRecord
100
AcDbLayerTableRecord
  2
0
 70
     0
 62
     7
  6
Continuous
370
    -3
390
F
  0
LAYER
  5
44
330
2
100
AcDbSymbolTableRecord
100
AcDbLayerTableRecord
  2
FORMAT
 70
     0
 62
     7
  6
Continuous
370
    -3
390
F
  0
ENDTAB
  0
TABLE
  2
STYLE
  5
3
330
0
100
AcDbSymbolTable
 70
     4
  0
STYLE
  5
11
330
3
100
AcDbSymbolTableRecord
100
AcDbTextStyleTableRecord
  2
Standard
 70
     0
 40
0.0
 41
1.0
 50
0.0
 71
     0
 42
2.5
  3
txt
  4

  0
STYLE
  5
6F
330
3
100
AcDbSymbolTableRecord
100
AcDbTextStyleTableRecord
  2
SLDTEXTSTYLE0
 70
     0
 40
0.0
 41
0.75
 50
0.0
 71
     0
 42
0.2
  3
TXT
  4

  0
STYLE
  5
81
330
3
100
AcDbSymbolTableRecord
100
AcDbTextStyleTableRecord
  2
SLDTEXTSTYLE1
 70
     0
 40
0.0
 41
0.7
 50
0.0
 71
     0
 42
0.2
  3
TXT
  4

  0
STYLE
  5
9E
330
3
100
AcDbSymbolTableRecord
100
AcDbTextStyleTableRecord
  2
SLDTEXTSTYLE2
 70
     0
 40
0.0
 41
0.6875
 50
0.0
 71
     0
 42
0.2
  3
TXT
  4

  0
ENDTAB
  0
TABLE
  2
VIEW
  5
6
330
0
100
AcDbSymbolTable
 70
     0
  0
ENDTAB
  0
TABLE
  2
UCS
  5
7
330
0
100
AcDbSymbolTable
 70
     0
  0
ENDTAB
  0
TABLE
  2
APPID
  5
9
330
0
100
AcDbSymbolTable
 70
     1
  0
APPID
  5
12
330
9
100
AcDbSymbolTableRecord
100
AcDbRegAppTableRecord
  2
ACAD
 70
     0
  0
ENDTAB
  0
TABLE
  2
DIMSTYLE
  5
A
330
0
100
AcDbSymbolTable
 70
     4
100
AcDbDimStyleTable
  0
DIMSTYLE
105
27
330
A
100
AcDbSymbolTableRecord
100
AcDbDimStyleTableRecord
  2
ISO-25
 70
     0
 41
2.5
 42
0.625
 43
3.75
 44
1.25
 73
     0
 74
     0
 77
     1
 78
     8
140
2.5
141
2.5
143
0.0393700787
147
0.625
171
     3
172
     1
178
     0
271
     2
272
     2
274
     3
278
    44
283
     0
284
     8
340
11
  0
DIMSTYLE
105
AA
102
{ACAD_REACTORS
330
A9
330
B5
330
F1
102
}
330
A
100
AcDbSymbolTableRecord
100
AcDbDimStyleTableRecord
  2
SLDDIMSTYLE0
 70
     0
 41
3.302
 44
0.0
 45
0.000000001
 73
     0
 74
     0
 77
     1
 78
    12
 79
     3
140
3.5
147
0.875
173
     1
178
     0
271
     2
272
     2
276
     2
284
    12
340
6F
  0
DIMSTYLE
105
C0
102
{ACAD_REACTORS
330
BF
102
}
330
A
100
AcDbSymbolTableRecord
100
AcDbDimStyleTableRecord
  2
SLDDIMSTYLE1
 70
     0
 41
3.302
 44
0.0
 45
0.000000001
 73
     0
 74
     0
 77
     1
 78
    12
 79
     3
140
3.5
141
0.0
147
0.875
172
     1
173
     1
178
     0
271
     2
272
     2
276
     2
284
    12
340
6F
341
C1
343
C1
  0
DIMSTYLE
105
FD
102
{ACAD_REACTORS
330
FC
102
}
330
A
100
AcDbSymbolTableRecord
100
AcDbDimStyleTableRecord
  2
SLDDIMSTYLE2
 70
     0
 41
3.302
 44
0.0
 45
0.000000001
 73
     0
 74
     0
 77
     1
 78
    12
 79
     3
140
3.5
141
0.0
147
0.875
172
     1
173
     1
178
     0
271
     2
272
     2
276
     2
284
    12
340
6F
341
C1
343
C1
  0
ENDTAB
  0
TABLE
  2
BLOCK_RECORD
  5
1
330
0
100
AcDbSymbolTable
 70
    14
  0
BLOCK_RECORD
  5
1F
330
1
100
AcDbSymbolTableRecord
100
AcDbBlockTableRecord
  2
*Model_Space
340
22
  0
BLOCK_RECORD
  5
1B
330
1
100
AcDbSymbolTableRecord
100
AcDbBlockTableRecord
  2
*Paper_Space
340
1E
  0
BLOCK_RECORD
  5
23
330
1
100
AcDbSymbolTableRecord
100
AcDbBlockTableRecord
  2
*Paper_Space0
340
26
  0
BLOCK_RECORD
  5
6C
330
1
100
AcDbSymbolTableRecord
100
AcDbBlockTableRecord
  2
SW_NOTE_0
340
0
102
{BLKREFS
331
72
102
}
  0
BLOCK_RECORD
  5
73
330
1
100
AcDbSymbolTableRecord
100
AcDbBlockTableRecord
  2
SW_NOTE_1
340
0
102
{BLKREFS
331
78
102
}
  0
BLOCK_RECORD
  5
8C
330
1
100
AcDbSymbolTableRecord
100
AcDbBlockTableRecord
  2
SW_NOTE_2
340
0
102
{BLKREFS
331
91
102
}
  0
BLOCK_RECORD
  5
98
330
1
100
AcDbSymbolTableRecord
100
AcDbBlockTableRecord
  2
SW_NOTE_3
340
0
102
{BLKREFS
331
A2
102
}
  0
BLOCK_RECORD
  5
AB
330
1
100
AcDbSymbolTableRecord
100
AcDbBlockTableRecord
  2
*D5
340
0
  0
BLOCK_RECORD
  5
B6
330
1
100
AcDbSymbolTableRecord
100
AcDbBlockTableRecord
  2
*D6
340
0
  0
BLOCK_RECORD
  5
C1
330
1
100
AcDbSymbolTableRecord
100
AcDbBlockTableRecord
  2
_NONE
340
0
  0
BLOCK_RECORD
  5
C4
330
1
100
AcDbSymbolTableRecord
100
AcDbBlockTableRecord
  2
*D8
340
0
  0
BLOCK_RECORD
  5
CD
330
1
100
AcDbSymbolTableRecord
100
AcDbBlockTableRecord
  2
SW_CENTERMARKSYMBOL_0
340
0
102
{BLKREFS
331
D8
102
}
  0
BLOCK_RECORD
  5
D9
330
1
100
AcDbSymbolTableRecord
100
AcDbBlockTableRecord
  2
SW_CENTERMARKSYMBOL_1
340
0
102
{BLKREFS
331
E4
102
}
  0
BLOCK_RECORD
  5
F2
330
1
100
AcDbSymbolTableRecord
100
AcDbBlockTableRecord
  2
*D11
340
0
  0
BLOCK_RECORD
  5
FE
330
1
100
AcDbSymbolTableRecord
100
AcDbBlockTableRecord
  2
*D12
340
0
  0
BLOCK_RECORD
  5
107
330
1
100
AcDbSymbolTableRecord
100
AcDbBlockTableRecord
  2
SW_CENTERMARKSYMBOL_2
340
0
102
{BLKREFS
331
112
102
}
  0
ENDTAB
  0
ENDSEC
  0
SECTION
  2
BLOCKS
  0
BLOCK
  5
20
330
1F
100
AcDbEntity
  8
0
100
AcDbBlockBegin
  2
*Model_Space
 70
     0
 10
0.0
 20
0.0
 30
0.0
  3
*Model_Space
  1

  0
ENDBLK
  5
21
330
1F
100
AcDbEntity
  8
0
100
AcDbBlockEnd
  0
BLOCK
  5
1C
330
1B
100
AcDbEntity
 67
     1
  8
0
100
AcDbBlockBegin
  2
*Paper_Space
 70
     0
 10
0.0
 20
0.0
 30
0.0
  3
*Paper_Space
  1

  0
ENDBLK
  5
1D
330
1B
100
AcDbEntity
 67
     1
  8
0
100
AcDbBlockEnd
  0
BLOCK
  5
24
330
23
100
AcDbEntity
  8
0
100
AcDbBlockBegin
  2
*Paper_Space0
 70
     0
 10
0.0
 20
0.0
 30
0.0
  3
*Paper_Space0
  1

  0
ENDBLK
  5
25
330
23
100
AcDbEntity
  8
0
100
AcDbBlockEnd
  0
BLOCK
  5
6D
330
6C
100
AcDbEntity
  8
0
100
AcDbBlockBegin
  2
SW_NOTE_0
 70
     0
 10
0.0
 20
0.0
 30
0.0
  3
SW_NOTE_0
  1

  0
MTEXT
  5
70
330
6C
100
AcDbEntity
  8
0
  6
Continuous
 62
     0
370
     0
100
AcDbMText
 10
0.0
 20
4.5117370892
 30
0.0
 40
3.5
 41
0.0
 71
     1
 72
     1
  1
Modification :
  7
SLDTEXTSTYLE0
 73
     1
 44
1.0
  0
MTEXT
  5
71
330
6C
100
AcDbEntity
  8
0
  6
Continuous
 62
     0
370
     0
100
AcDbMText
 10
0.0
 20
-0.0139574413
 30
0.0
 40
3.5
 41
0.0
 71
     1
 72
     1
  1
A - 20131204 - Suppression d'un trou diam 4 cote 50 + cote trou 42->43.38mm
  7
SLDTEXTSTYLE0
 73
     1
 44
1.0
  0
ENDBLK
  5
6E
330
6C
100
AcDbEntity
  8
0
100
AcDbBlockEnd
  0
BLOCK
  5
74
330
73
100
AcDbEntity
  8
0
100
AcDbBlockBegin
  2
SW_NOTE_1
 70
     0
 10
0.0
 20
0.0
 30
0.0
  3
SW_NOTE_1
  1

  0
MTEXT
  5
76
330
73
100
AcDbEntity
  8
0
  6
Continuous
 62
     0
370
     0
100
AcDbMText
 10
-3.4106583948
 20
0.0
 30
0.0
 40
2.6458333333
 41
0.0
 71
     1
 72
     1
  1
Copyright © 2014 Théophile Bresson, AeroSeeD SAS, Vincent Mauvady, David Vantyghem, Pascal Corradini
  7
SLDTEXTSTYLE0
 11
-3.491481338843133E-15
 21
1.0
 31
0.0
 73
     1
 44
1.0
  0
MTEXT
  5
77
330
73
100
AcDbEntity
  8
0
  6
Continuous
 62
     0
370
     0
100
AcDbMText
 10
0.1171193403
 20
0.0
 30
0.0
 40
2.6458333333
 41
0.0
 71
     1
 72
     1
  1
Licensed under TAPR Open Hardware Licence (www.tapr.org/OHL)
  7
SLDTEXTSTYLE0
 11
-3.491481338843133E-15
 21
1.0
 31
0.0
 73
     1
 44
1.0
  0
ENDBLK
  5
75
330
73
100
AcDbEntity
  8
0
100
AcDbBlockEnd
  0
BLOCK
  5
8D
330
8C
100
AcDbEntity
  8
0
100
AcDbBlockBegin
  2
SW_NOTE_2
 70
     0
 10
0.0
 20
0.0
 30
0.0
  3
SW_NOTE_2
  1

  0
MTEXT
  5
8F
330
8C
100
AcDbEntity
  8
0
  6
Continuous
 62
     0
370
     0
100
AcDbMText
 10
0.0
 20
1.9336016097
 30
0.0
 40
1.5
 41
0.0
 71
     1
 72
     1
  1
CASSER LES
  7
SLDTEXTSTYLE0
 73
     1
 44
1.0
  0
MTEXT
  5
90
330
8C
100
AcDbEntity
  8
0
  6
Continuous
 62
     0
370
     0
100
AcDbMText
 10
0.0
 20
-0.5663983345
 30
0.0
 40
1.5
 41
0.0
 71
     1
 72
     1
  1
ANGLES VIFS
  7
SLDTEXTSTYLE0
 73
     1
 44
1.0
  0
ENDBLK
  5
8E
330
8C
100
AcDbEntity
  8
0
100
AcDbBlockEnd
  0
BLOCK
  5
99
330
98
100
AcDbEntity
  8
0
100
AcDbBlockBegin
  2
SW_NOTE_3
 70
     0
 10
0.0
 20
0.0
 30
0.0
  3
SW_NOTE_3
  1

  0
MTEXT
  5
9B
330
98
100
AcDbEntity
  8
0
  6
Continuous
 62
     0
370
     0
100
AcDbMText
 10
0.0
 20
1.9336016097
 30
0.0
 40
1.5
 41
0.0
 71
     1
 72
     1
  1
SAUF INDICATION CONTRAIRE:
  7
SLDTEXTSTYLE0
 73
     1
 44
1.0
  0
MTEXT
  5
9C
330
98
100
AcDbEntity
  8
0
  6
Continuous
 62
     0
370
     0
100
AcDbMText
 10
0.0
 20
-0.5663983345
 30
0.0
 40
1.5
 41
0.0
 71
     1
 72
     1
  1
LES COTES SONT EN MILLIMETRES
  7
SLDTEXTSTYLE0
 73
     1
 44
1.0
  0
MTEXT
  5
9D
330
98
100
AcDbEntity
  8
0
  6
Continuous
 62
     0
370
     0
100
AcDbMText
 10
0.0
 20
-3.0663982786
 30
0.0
 40
1.5
 41
0.0
 71
     1
 72
     1
  1
ETAT DE SURFACE:
  7
SLDTEXTSTYLE0
 73
     1
 44
1.0
  0
MTEXT
  5
9F
330
98
100
AcDbEntity
  8
0
  6
Continuous
 62
     0
370
     0
100
AcDbMText
 10
17.3330735415
 20
-3.0663982786
 30
0.0
 40
1.5
 41
0.0
 71
     1
 72
     1
  1
Ra = 3.2
  7
SLDTEXTSTYLE2
 73
     1
 44
1.0
  0
MTEXT
  5
A0
330
98
100
AcDbEntity
  8
0
  6
Continuous
 62
     0
370
     0
100
AcDbMText
 10
0.0
 20
-5.5663982227
 30
0.0
 40
1.5
 41
0.0
 71
     1
 72
     1
  1
TOLERANCES:
  7
SLDTEXTSTYLE0
 73
     1
 44
1.0
  0
MTEXT
  5
A1
330
98
100
AcDbEntity
  8
0
  6
Continuous
 62
     0
370
     0
100
AcDbMText
 10
1.6624999698
 20
-8.0663981668
 30
0.0
 40
1.5
 41
0.0
 71
     1
 72
     1
  1
Iso 2768 mK
  7
SLDTEXTSTYLE0
 73
     1
 44
1.0
  0
ENDBLK
  5
9A
330
98
100
AcDbEntity
  8
0
100
AcDbBlockEnd
  0
BLOCK
  5
AC
330
AB
100
AcDbEntity
  8
0
100
AcDbBlockBegin
  2
*D5
 70
     1
 10
0.0
 20
0.0
 30
0.0
  3
*D5
  1

  0
SOLID
  5
AE
330
AB
100
AcDbEntity
  8
0
  6
Continuous
 62
     7
370
     0
100
AcDbTrace
 10
50.9807736997
 20
230.297677182
 30
0.0
 11
50.4727736997
 21
226.995677182
 31
0.0
 12
51.4887736997
 22
226.995677182
 32
0.0
 13
51.4887736997
 23
226.995677182
 33
0.0
  0
SOLID
  5
AF
330
AB
100
AcDbEntity
  8
0
  6
Continuous
 62
     7
370
     0
100
AcDbTrace
 10
50.9807736997
 20
186.917677182
 30
0.0
 11
51.4887736997
 21
190.219677182
 31
0.0
 12
50.4727736997
 22
190.219677182
 32
0.0
 13
50.4727736997
 23
190.219677182
 33
0.0
  0
LINE
  5
B0
330
AB
100
AcDbEntity
  8
0
  6
Continuous
 62
     7
370
     0
100
AcDbLine
 10
61.4807736997
 20
230.297677182
 30
0.0
 11
49.9807736997
 21
230.297677182
 31
0.0
  0
LINE
  5
B1
330
AB
100
AcDbEntity
  8
0
  6
Continuous
 62
     7
370
     0
100
AcDbLine
 10
59.9807736997
 20
186.917677182
 30
0.0
 11
49.9807736997
 21
186.917677182
 31
0.0
  0
LINE
  5
B2
330
AB
100
AcDbEntity
  8
0
  6
Continuous
 62
     7
370
     0
100
AcDbLine
 10
50.9807736997
 20
230.297677182
 30
0.0
 11
50.9807736997
 21
186.917677182
 31
0.0
  0
MTEXT
  5
B3
330
AB
100
AcDbEntity
  8
0
  6
Continuous
 62
     7
370
     0
100
AcDbMText
 10
46.4690367851
 20
197.3566355164
 30
0.1
 40
3.5
 41
0.0
 71
     1
 72
     1
  1
43,38
  7
SLDTEXTSTYLE0
 11
-7.044195017643634E-15
 21
1.0
 31
0.0
 73
     1
 44
1.0
  0
MTEXT
  5
B4
330
AB
100
AcDbEntity
  8
0
  6
Continuous
 62
     7
370
     0
100
AcDbMText
 10
46.4690367851
 20
213.1503857131
 30
0.1
 40
3.5
 41
0.0
 71
     1
 72
     1
  1
[A]
  7
SLDTEXTSTYLE0
 11
-7.044195017643634E-15
 21
1.0
 31
0.0
 73
     1
 44
1.0
  0
ENDBLK
  5
AD
330
AB
100
AcDbEntity
  8
0
100
AcDbBlockEnd
  0
BLOCK
  5
B7
330
B6
100
AcDbEntity
  8
0
100
AcDbBlockBegin
  2
*D6
 70
     1
 10
0.0
 20
0.0
 30
0.0
  3
*D6
  1

  0
SOLID
  5
B9
330
B6
100
AcDbEntity
  8
0
  6
Continuous
 62
     7
370
     0
100
AcDbTrace
 10
41.4139762115
 20
186.917677182
 30
0.0
 11
41.9219762115
 21
190.219677182
 31
0.0
 12
40.9059762115
 22
190.219677182
 32
0.0
 13
40.9059762115
 23
190.219677182
 33
0.0
  0
SOLID
  5
BA
330
B6
100
AcDbEntity
  8
0
  6
Continuous
 62
     7
370
     0
100
AcDbTrace
 10
41.4139762115
 20
257.417677182
 30
0.0
 11
40.9059762115
 21
254.115677182
 31
0.0
 12
41.9219762115
 22
254.115677182
 32
0.0
 13
41.9219762115
 23
254.115677182
 33
0.0
  0
LINE
  5
BB
330
B6
100
AcDbEntity
  8
0
  6
Continuous
 62
     7
370
     0
100
AcDbLine
 10
59.9807736997
 20
186.917677182
 30
0.0
 11
40.4139762115
 21
186.917677182
 31
0.0
  0
LINE
  5
BC
330
B6
100
AcDbEntity
  8
0
  6
Continuous
 62
     7
370
     0
100
AcDbLine
 10
61.4807736997
 20
257.417677182
 30
0.0
 11
40.4139762115
 21
257.417677182
 31
0.0
  0
LINE
  5
BD
330
B6
100
AcDbEntity
  8
0
  6
Continuous
 62
     7
370
     0
100
AcDbLine
 10
41.4139762115
 20
186.917677182
 30
0.0
 11
41.4139762115
 21
257.417677182
 31
0.0
  0
MTEXT
  5
BE
330
B6
100
AcDbEntity
  8
0
  6
Continuous
 62
     7
370
     0
100
AcDbMText
 10
36.9022392969
 20
216.4578942961
 30
0.1
 40
3.5
 41
0.0
 71
     1
 72
     1
  1
70,5
  7
SLDTEXTSTYLE0
 11
6.123233995736766E-17
 21
1.0
 31
0.0
 73
     1
 44
1.0
  0
ENDBLK
  5
B8
330
B6
100
AcDbEntity
  8
0
100
AcDbBlockEnd
  0
BLOCK
  5
C2
330
C1
100
AcDbEntity
  8
0
100
AcDbBlockBegin
  2
_NONE
 70
     0
 10
0.0
 20
0.0
 30
0.0
  3
_NONE
  1

  0
ENDBLK
  5
C3
330
C1
100
AcDbEntity
  8
0
100
AcDbBlockEnd
  0
BLOCK
  5
C5
330
C4
100
AcDbEntity
  8
0
100
AcDbBlockBegin
  2
*D8
 70
     1
 10
0.0
 20
0.0
 30
0.0
  3
*D8
  1

  0
SOLID
  5
C7
330
C4
100
AcDbEntity
  8
0
  6
Continuous
 62
     7
370
     0
100
AcDbTrace
 10
68.7128245073
 20
231.297677182
 30
0.0
 11
71.8264403906
 21
232.5087362769
 31
0.0
 12
71.3184403906
 22
233.3886180872
 32
0.0
 13
71.3184403906
 23
233.3886180872
 33
0.0
  0
LINE
  5
C8
330
C4
100
AcDbEntity
  8
0
  6
Continuous
 62
     7
370
     0
100
AcDbLine
 10
68.7128245073
 20
231.297677182
 30
0.0
 11
99.0280071803
 21
248.8001560589
 31
0.0
  0
LINE
  5
C9
330
C4
100
AcDbEntity
  8
0
  6
Continuous
 62
     7
370
     0
100
AcDbLine
 10
68.7128245073
 20
231.297677182
 30
0.0
 11
65.2487228921
 21
229.297677182
 31
0.0
  0
MTEXT
  5
CA
330
C4
100
AcDbEntity
  8
0
  6
Continuous
 62
     7
370
     0
100
AcDbMText
 10
79.225212775
 20
242.5593949234
 30
0.1
 40
3.5
 41
0.0
 71
     1
 72
     1
  1
%%c
  7
SLDTEXTSTYLE0
 11
0.8660254037844384
 21
0.5000000000000006
 31
0.0
 73
     1
 44
1.0
  0
MTEXT
  5
CB
330
C4
100
AcDbEntity
  8
0
  6
Continuous
 62
     7
370
     0
100
AcDbMText
 10
83.769737566
 20
245.2449218859
 30
0.1
 40
3.5
 41
0.0
 71
     1
 72
     1
  1
4
  7
SLDTEXTSTYLE0
 11
0.8660254037844384
 21
0.5000000000000006
 31
0.0
 73
     1
 44
1.0
  0
MTEXT
  5
CC
330
C4
100
AcDbEntity
  8
0
  6
Continuous
 62
     7
370
     0
100
AcDbMText
 10
89.608793591
 20
248.6161024538
 30
0.1
 40
3.5
 41
0.0
 71
     1
 72
     1
  1
(x3)
  7
SLDTEXTSTYLE0
 11
0.8660254037844384
 21
0.5000000000000006
 31
0.0
 73
     1
 44
1.0
  0
ENDBLK
  5
C6
330
C4
100
AcDbEntity
  8
0
100
AcDbBlockEnd
  0
BLOCK
  5
CE
330
CD
100
AcDbEntity
  8
0
100
AcDbBlockBegin
  2
SW_CENTERMARKSYMBOL_0
 70
     0
 10
0.0
 20
0.0
 30
0.0
  3
SW_CENTERMARKSYMBOL_0
  1

  0
LINE
  5
D0
330
CD
100
AcDbEntity
  8
0
  6
Continuous
 62
     0
370
     0
100
AcDbLine
 10
0.0
 20
0.0
 30
0.0
 11
0.0
 21
2.5
 31
0.0
  0
LINE
  5
D1
330
CD
100
AcDbEntity
  8
0
  6
Continuous
 62
     0
370
     0
100
AcDbLine
 10
0.0
 20
0.0
 30
0.0
 11
-2.5
 21
0.0
 31
0.0
  0
LINE
  5
D2
330
CD
100
AcDbEntity
  8
0
  6
Continuous
 62
     0
370
     0
100
AcDbLine
 10
0.0
 20
0.0
 30
0.0
 11
0.0
 21
-2.5
 31
0.0
  0
LINE
  5
D3
330
CD
100
AcDbEntity
  8
0
  6
Continuous
 62
     0
370
     0
100
AcDbLine
 10
0.0
 20
0.0
 30
0.0
 11
2.5
 21
0.0
 31
0.0
  0
LINE
  5
D4
330
CD
100
AcDbEntity
  8
0
  6
Continuous
 62
     0
370
     0
100
AcDbLine
 10
0.0
 20
2.5
 30
0.0
 11
0.0
 21
4.5
 31
0.0
  0
LINE
  5
D5
330
CD
100
AcDbEntity
  8
0
  6
Continuous
 62
     0
370
     0
100
AcDbLine
 10
-2.5
 20
0.0
 30
0.0
 11
-4.5
 21
0.0
 31
0.0
  0
LINE
  5
D6
330
CD
100
AcDbEntity
  8
0
  6
Continuous
 62
     0
370
     0
100
AcDbLine
 10
0.0
 20
-2.5
 30
0.0
 11
0.0
 21
-4.5
 31
0.0
  0
LINE
  5
D7
330
CD
100
AcDbEntity
  8
0
  6
Continuous
 62
     0
370
     0
100
AcDbLine
 10
2.5
 20
0.0
 30
0.0
 11
4.5
 21
0.0
 31
0.0
  0
ENDBLK
  5
CF
330
CD
100
AcDbEntity
  8
0
100
AcDbBlockEnd
  0
BLOCK
  5
DA
330
D9
100
AcDbEntity
  8
0
100
AcDbBlockBegin
  2
SW_CENTERMARKSYMBOL_1
 70
     0
 10
0.0
 20
0.0
 30
0.0
  3
SW_CENTERMARKSYMBOL_1
  1

  0
LINE
  5
DC
330
D9
100
AcDbEntity
  8
0
  6
Continuous
 62
     0
370
     0
100
AcDbLine
 10
0.0
 20
0.0
 30
0.0
 11
0.0
 21
2.5
 31
0.0
  0
LINE
  5
DD
330
D9
100
AcDbEntity
  8
0
  6
Continuous
 62
     0
370
     0
100
AcDbLine
 10
0.0
 20
0.0
 30
0.0
 11
-2.5
 21
0.0
 31
0.0
  0
LINE
  5
DE
330
D9
100
AcDbEntity
  8
0
  6
Continuous
 62
     0
370
     0
100
AcDbLine
 10
0.0
 20
0.0
 30
0.0
 11
0.0
 21
-2.5
 31
0.0
  0
LINE
  5
DF
330
D9
100
AcDbEntity
  8
0
  6
Continuous
 62
     0
370
     0
100
AcDbLine
 10
0.0
 20
0.0
 30
0.0
 11
2.5
 21
0.0
 31
0.0
  0
LINE
  5
E0
330
D9
100
AcDbEntity
  8
0
  6
Continuous
 62
     0
370
     0
100
AcDbLine
 10
0.0
 20
2.5
 30
0.0
 11
0.0
 21
4.5
 31
0.0
  0
LINE
  5
E1
330
D9
100
AcDbEntity
  8
0
  6
Continuous
 62
     0
370
     0
100
AcDbLine
 10
-2.5
 20
0.0
 30
0.0
 11
-4.5
 21
0.0
 31
0.0
  0
LINE
  5
E2
330
D9
100
AcDbEntity
  8
0
  6
Continuous
 62
     0
370
     0
100
AcDbLine
 10
0.0
 20
-2.5
 30
0.0
 11
0.0
 21
-4.5
 31
0.0
  0
LINE
  5
E3
330
D9
100
AcDbEntity
  8
0
  6
Continuous
 62
     0
370
     0
100
AcDbLine
 10
2.5
 20
0.0
 30
0.0
 11
4.5
 21
0.0
 31
0.0
  0
ENDBLK
  5
DB
330
D9
100
AcDbEntity
  8
0
100
AcDbBlockEnd
  0
BLOCK
  5
F3
330
F2
100
AcDbEntity
  8
0
100
AcDbBlockBegin
  2
*D11
 70
     1
 10
0.0
 20
0.0
 30
0.0
  3
*D11
  1

  0
SOLID
  5
F5
330
F2
100
AcDbEntity
  8
0
  6
Continuous
 62
     7
370
     0
100
AcDbTrace
 10
136.6645255474
 20
277.417677182
 30
0.0
 11
136.1565255474
 21
274.115677182
 31
0.0
 12
137.1725255474
 22
274.115677182
 32
0.0
 13
137.1725255474
 23
274.115677182
 33
0.0
  0
SOLID
  5
F6
330
F2
100
AcDbEntity
  8
0
  6
Continuous
 62
     7
370
     0
100
AcDbTrace
 10
136.6645255474
 20
186.917677182
 30
0.0
 11
137.1725255474
 21
190.219677182
 31
0.0
 12
136.1565255474
 22
190.219677182
 32
0.0
 13
136.1565255474
 23
190.219677182
 33
0.0
  0
LINE
  5
F7
330
F2
100
AcDbEntity
  8
0
  6
Continuous
 62
     7
370
     0
100
AcDbLine
 10
145.6645255474
 20
277.417677182
 30
0.0
 11
135.6645255474
 21
277.417677182
 31
0.0
  0
LINE
  5
F8
330
F2
100
AcDbEntity
  8
0
  6
Continuous
 62
     7
370
     0
100
AcDbLine
 10
145.6645255474
 20
186.917677182
 30
0.0
 11
135.6645255474
 21
186.917677182
 31
0.0
  0
LINE
  5
F9
330
F2
100
AcDbEntity
  8
0
  6
Continuous
 62
     7
370
     0
100
AcDbLine
 10
136.6645255474
 20
277.417677182
 30
0.0
 11
136.6645255474
 21
186.917677182
 31
0.0
  0
MTEXT
  5
FA
330
F2
100
AcDbEntity
  8
0
  6
Continuous
 62
     7
370
     0
100
AcDbMText
 10
132.1527886329
 20
226.2201077969
 30
0.1
 40
3.5
 41
0.0
 71
     1
 72
     1
  1
90,5
  7
SLDTEXTSTYLE0
 11
-7.044195017643634E-15
 21
1.0
 31
0.0
 73
     1
 44
1.0
  0
ENDBLK
  5
F4
330
F2
100
AcDbEntity
  8
0
100
AcDbBlockEnd
  0
BLOCK
  5
FF
330
FE
100
AcDbEntity
  8
0
100
AcDbBlockBegin
  2
*D12
 70
     1
 10
0.0
 20
0.0
 30
0.0
  3
*D12
  1

  0
SOLID
  5
101
330
FE
100
AcDbEntity
  8
0
  6
Continuous
 62
     7
370
     0
100
AcDbTrace
 10
62.7381330126
 20
136.7390114488
 30
0.0
 11
60.762476666
 21
139.4330882851
 31
0.0
 12
60.0440561763
 22
138.7146677954
 32
0.0
 13
60.0440561763
 23
138.7146677954
 33
0.0
  0
LINE
  5
102
330
FE
100
AcDbEntity
  8
0
  6
Continuous
 62
     7
370
     0
100
AcDbLine
 10
62.7381330126
 20
136.7390114488
 30
0.0
 11
43.9202682859
 21
155.5568761755
 31
0.0
  0
LINE
  5
103
330
FE
100
AcDbEntity
  8
0
  6
Continuous
 62
     7
370
     0
100
AcDbLine
 10
62.7381330126
 20
136.7390114488
 30
0.0
 11
71.2234143868
 21
128.2537300745
 31
0.0
  0
MTEXT
  5
104
330
FE
100
AcDbEntity
  8
0
  6
Continuous
 62
     7
370
     0
100
AcDbMText
 10
47.0954838705
 20
158.7320917602
 30
-45.15
 40
3.5
 41
0.0
 71
     1
 72
     1
  1
%%c
  7
SLDTEXTSTYLE0
 11
0.7071067811865441
 21
-0.707106781186551
 31
0.0
 73
     1
 44
1.0
  0
MTEXT
  5
105
330
FE
100
AcDbEntity
  8
0
  6
Continuous
 62
     7
370
     0
100
AcDbMText
 10
50.8657132877
 20
155.0374834205
 30
-45.15
 40
3.5
 41
0.0
 71
     1
 72
     1
  1
12
  7
SLDTEXTSTYLE0
 11
0.7071067811865441
 21
-0.707106781186551
 31
0.0
 73
     1
 44
1.0
  0
MTEXT
  5
106
330
FE
100
AcDbEntity
  8
0
  6
Continuous
 62
     7
370
     0
100
AcDbMText
 10
57.4619394945
 20
148.4412572137
 30
-45.15
 40
3.5
 41
0.0
 71
     1
 72
     1
  1
g6
  7
SLDTEXTSTYLE0
 11
0.7071067811865441
 21
-0.707106781186551
 31
0.0
 73
     1
 44
1.0
  0
ENDBLK
  5
100
330
FE
100
AcDbEntity
  8
0
100
AcDbBlockEnd
  0
BLOCK
  5
108
330
107
100
AcDbEntity
  8
0
100
AcDbBlockBegin
  2
SW_CENTERMARKSYMBOL_2
 70
     0
 10
0.0
 20
0.0
 30
0.0
  3
SW_CENTERMARKSYMBOL_2
  1

  0
LINE
  5
10A
330
107
100
AcDbEntity
  8
0
  6
Continuous
 62
     0
370
     0
100
AcDbLine
 10
0.0
 20
0.0
 30
0.0
 11
0.0
 21
2.5
 31
0.0
  0
LINE
  5
10B
330
107
100
AcDbEntity
  8
0
  6
Continuous
 62
     0
370
     0
100
AcDbLine
 10
0.0
 20
0.0
 30
0.0
 11
-2.5
 21
0.0
 31
0.0
  0
LINE
  5
10C
330
107
100
AcDbEntity
  8
0
  6
Continuous
 62
     0
370
     0
100
AcDbLine
 10
0.0
 20
0.0
 30
0.0
 11
0.0
 21
-2.5
 31
0.0
  0
LINE
  5
10D
330
107
100
AcDbEntity
  8
0
  6
Continuous
 62
     0
370
     0
100
AcDbLine
 10
0.0
 20
0.0
 30
0.0
 11
2.5
 21
0.0
 31
0.0
  0
LINE
  5
10E
330
107
100
AcDbEntity
  8
0
  6
Continuous
 62
     0
370
     0
100
AcDbLine
 10
0.0
 20
5.0
 30
0.0
 11
0.0
 21
8.5
 31
0.0
  0
LINE
  5
10F
330
107
100
AcDbEntity
  8
0
  6
Continuous
 62
     0
370
     0
100
AcDbLine
 10
-5.0
 20
0.0
 30
0.0
 11
-8.5
 21
0.0
 31
0.0
  0
LINE
  5
110
330
107
100
AcDbEntity
  8
0
  6
Continuous
 62
     0
370
     0
100
AcDbLine
 10
0.0
 20
-5.0
 30
0.0
 11
0.0
 21
-8.5
 31
0.0
  0
LINE
  5
111
330
107
100
AcDbEntity
  8
0
  6
Continuous
 62
     0
370
     0
100
AcDbLine
 10
5.0
 20
0.0
 30
0.0
 11
8.5
 21
0.0
 31
0.0
  0
ENDBLK
  5
109
330
107
100
AcDbEntity
  8
0
100
AcDbBlockEnd
  0
ENDSEC
  0
SECTION
  2
ENTITIES
  0
IMAGE
  5
47
330
1F
100
AcDbEntity
  8
0
 92
      140
310
8C00000001000000840000000600000005000000118A2291ABE7364083A5C718E0AB6F4000000000000000000B8A2291ABE7364083CE0F6DEF6470400000000000000000CAA2E53E9F0A2B4083CE0F6DEF6470400000000000000000D6A2E53E9F0A2B4082A5C718E0AB6F400000000000000000118A2291ABE7364083A5C7
310
18E0AB6F400000000000000000
100
AcDbRasterImage
 90
        0
 10
22.9049616536
 20
253.371105566
 30
0.0
 11
-5.320533589446006E-17
 21
0.02234337013199389
 31
0.0
 12
-0.02234337013199376
 22
-5.320533589445975E-17
 32
0.0
 13
400.0
 23
420.0
340
46
 70
     7
280
     0
281
    50
282
    50
283
     0
360
48
 71
     1
 91
        2
 14
-0.5
 24
-0.5
 14
399.5
 24
419.5
  0
LINE
  5
49
330
1F
100
AcDbEntity
  8
0
  6
Continuous
 62
     7
370
    40
100
AcDbLine
 10
10.0788435654
 20
5.2147801566
 30
0.0
 11
205.0788435654
 21
5.2147801566
 31
0.0
  0
LINE
  5
4A
330
1F
100
AcDbEntity
  8
0
  6
Continuous
 62
     7
370
    40
100
AcDbLine
 10
0.0788435654
 20
0.2147801566
 30
0.0
 11
210.0788435654
 21
0.2147801566
 31
0.0
  0
LINE
  5
4B
330
1F
100
AcDbEntity
  8
0
  6
Continuous
 62
     7
370
    40
100
AcDbLine
 10
0.0788435654
 20
0.2147801566
 30
0.0
 11
0.0788435654
 21
297.2147801566
 31
0.0
  0
LINE
  5
4C
330
1F
100
AcDbEntity
  8
0
  6
Continuous
 62
     7
370
    40
100
AcDbLine
 10
0.0788435654
 20
297.2147801566
 30
0.0
 11
210.0788435654
 21
297.2147801566
 31
0.0
  0
LINE
  5
4D
330
1F
100
AcDbEntity
  8
0
  6
Continuous
 62
     7
370
    40
100
AcDbLine
 10
210.0788435654
 20
0.2147801566
 30
0.0
 11
210.0788435654
 21
297.2147801566
 31
0.0
  0
LINE
  5
4E
330
1F
100
AcDbEntity
  8
0
  6
Continuous
 62
     7
370
    40
100
AcDbLine
 10
10.0788435654
 20
292.2147801566
 30
0.0
 11
205.0788435654
 21
292.2147801566
 31
0.0
  0
LINE
  5
4F
330
1F
100
AcDbEntity
  8
0
  6
Continuous
 62
     7
370
    40
100
AcDbLine
 10
205.0788435654
 20
5.2147801566
 30
0.0
 11
180.9883118484
 21
5.2147801566
 31
0.0
  0
LINE
  5
50
330
1F
100
AcDbEntity
  8
0
  6
Continuous
 62
     7
370
    40
100
AcDbLine
 10
10.0788435654
 20
5.2147801566
 30
0.0
 11
10.0788435654
 21
292.2147801566
 31
0.0
  0
LINE
  5
51
330
1F
100
AcDbEntity
  8
0
  6
Continuous
 62
     7
370
    40
100
AcDbLine
 10
10.1108209117
 20
9.3709272577
 30
0.0
 11
205.0788435654
 21
9.3709272577
 31
0.0
  0
LINE
  5
52
330
1F
100
AcDbEntity
  8
0
  6
Continuous
 62
     7
370
    40
100
AcDbLine
 10
205.0788435654
 20
43.3709272577
 30
0.0
 11
10.1108209117
 21
43.3709272577
 31
0.0
  0
LINE
  5
53
330
1F
100
AcDbEntity
  8
0
  6
Continuous
 62
     7
370
    40
100
AcDbLine
 10
10.1108209117
 20
60.3709272577
 30
0.0
 11
205.0788435654
 21
60.3709272577
 31
0.0
  0
LINE
  5
54
330
1F
100
AcDbEntity
  8
0
  6
Continuous
 62
     7
370
    40
100
AcDbLine
 10
210.0788435654
 20
292.2147801566
 30
0.0
 11
210.0788435654
 21
297.2147801566
 31
0.0
  0
LINE
  5
55
330
1F
100
AcDbEntity
  8
0
  6
Continuous
 62
     7
370
    40
100
AcDbLine
 10
37.1017733454
 20
43.3709272577
 30
0.0
 11
37.1017733454
 21
5.1209272577
 31
0.0
  0
LINE
  5
56
330
1F
100
AcDbEntity
  8
0
  6
Continuous
 62
     7
370
    40
100
AcDbLine
 10
108.9108209117
 20
26.3709272577
 30
0.0
 11
10.1108209117
 21
26.3709272577
 31
0.0
  0
LINE
  5
57
330
1F
100
AcDbEntity
  8
0
  6
Continuous
 62
     7
370
    40
100
AcDbLine
 10
108.9108209117
 20
30.6209272577
 30
0.0
 11
10.1108209117
 21
30.6209272577
 31
0.0
  0
LINE
  5
58
330
1F
100
AcDbEntity
  8
0
  6
Continuous
 62
     7
370
    40
100
AcDbLine
 10
108.9108209117
 20
34.8709272577
 30
0.0
 11
10.1108209117
 21
34.8709272577
 31
0.0
  0
LINE
  5
59
330
1F
100
AcDbEntity
  8
0
  6
Continuous
 62
     7
370
    40
100
AcDbLine
 10
108.9108209117
 20
39.1209272577
 30
0.0
 11
10.1108209117
 21
39.1209272577
 31
0.0
  0
LINE
  5
5A
330
1F
100
AcDbEntity
  8
0
  6
Continuous
 62
     7
370
    40
100
AcDbLine
 10
64.7108209117
 20
5.1209272577
 30
0.0
 11
64.7108209117
 21
43.3709272577
 31
0.0
  0
LINE
  5
5B
330
1F
100
AcDbEntity
  8
0
  6
Continuous
 62
     7
370
    40
100
AcDbLine
 10
10.1108209117
 20
60.3709272577
 30
0.0
 11
10.1108209117
 21
5.1209272577
 31
0.0
  0
LINE
  5
5C
330
1F
100
AcDbEntity
  8
0
  6
Continuous
 62
     7
370
    40
100
AcDbLine
 10
17.9108209117
 20
43.3709272577
 30
0.0
 11
17.9108209117
 21
5.1209272577
 31
0.0
  0
LINE
  5
5D
330
1F
100
AcDbEntity
  8
0
  6
Continuous
 62
     7
370
    40
100
AcDbLine
 10
43.9108209117
 20
43.3709272577
 30
0.0
 11
43.9108209117
 21
60.3709272577
 31
0.0
  0
LINE
  5
5E
330
1F
100
AcDbEntity
  8
0
  6
Continuous
 62
     7
370
    40
100
AcDbLine
 10
54.5097470752
 20
43.3709272577
 30
0.0
 11
54.5097470752
 21
5.1209272577
 31
0.0
  0
LINE
  5
5F
330
1F
100
AcDbEntity
  8
0
  6
Continuous
 62
     7
370
    40
100
AcDbLine
 10
75.1108209117
 20
26.3709272577
 30
0.0
 11
75.1108209117
 21
43.3709272577
 31
0.0
  0
LINE
  5
60
330
1F
100
AcDbEntity
  8
0
  6
Continuous
 62
     7
370
    40
100
AcDbLine
 10
64.7108209117
 20
13.6209272577
 30
0.0
 11
10.1108209117
 21
13.6209272577
 31
0.0
  0
LINE
  5
61
330
1F
100
AcDbEntity
  8
0
  6
Continuous
 62
     7
370
    40
100
AcDbLine
 10
90.7108209117
 20
60.3709272577
 30
0.0
 11
90.7108209117
 21
22.1209272577
 31
0.0
  0
LINE
  5
62
330
1F
100
AcDbEntity
  8
0
  6
Continuous
 62
     7
370
    40
100
AcDbLine
 10
64.7108209117
 20
17.8708552577
 30
0.0
 11
10.1108209117
 21
17.8708552577
 31
0.0
  0
LINE
  5
63
330
1F
100
AcDbEntity
  8
0
  6
Continuous
 62
     7
370
    40
100
AcDbLine
 10
64.7108209117
 20
22.1209272577
 30
0.0
 11
10.1108209117
 21
22.1209272577
 31
0.0
  0
LINE
  5
64
330
1F
100
AcDbEntity
  8
0
  6
Continuous
 62
     7
370
    40
100
AcDbLine
 10
64.7108209117
 20
22.1209272577
 30
0.0
 11
205.0788435654
 21
22.1209272577
 31
0.0
  0
LINE
  5
65
330
1F
100
AcDbEntity
  8
0
  6
Continuous
 62
     7
370
    40
100
AcDbLine
 10
108.9108209117
 20
60.3709272577
 30
0.0
 11
108.9108209117
 21
5.1209272577
 31
0.0
  0
LINE
  5
66
330
1F
100
AcDbEntity
  8
0
  6
Continuous
 62
     7
370
    40
100
AcDbLine
 10
160.8788435654
 20
5.2147801566
 30
0.0
 11
160.8788435654
 21
9.4647801566
 31
0.0
  0
LINE
  5
67
330
1F
100
AcDbEntity
  8
0
  6
Continuous
 62
     7
370
    40
100
AcDbLine
 10
168.6788435654
 20
54.0897801566
 30
0.0
 11
168.6788435654
 21
60.4647801566
 31
0.0
  0
LINE
  5
68
330
1F
100
AcDbEntity
  8
0
  6
Continuous
 62
     7
370
    40
100
AcDbLine
 10
192.0788435654
 20
9.4647801566
 30
0.0
 11
192.0788435654
 21
22.2147801566
 31
0.0
  0
LINE
  5
69
330
1F
100
AcDbEntity
  8
0
  6
Continuous
 62
     7
370
    40
100
AcDbLine
 10
205.0788435654
 20
53.9959272577
 30
0.0
 11
108.9108209117
 21
53.9959272577
 31
0.0
  0
LINE
  5
6A
330
1F
100
AcDbEntity
  8
0
  6
Continuous
 62
     7
370
    40
100
AcDbLine
 10
205.0788435654
 20
13.7147801566
 30
0.0
 11
192.0788435654
 21
13.7147801566
 31
0.0
  0
LINE
  5
6B
330
1F
100
AcDbEntity
  8
0
  6
Continuous
 62
     7
370
    40
100
AcDbLine
 10
205.0788435654
 20
5.2147801566
 30
0.0
 11
205.0788435654
 21
292.2147801566
 31
0.0
  0
INSERT
  5
72
330
1F
100
AcDbEntity
  8
0
  6
Continuous
 62
     7
370
     0
100
AcDbBlockReference
  2
SW_NOTE_0
 10
28.4327472527
 20
70.0227042137
 30
0.0
  0
INSERT
  5
78
330
1F
100
AcDbEntity
  8
0
  6
Continuous
 62
     7
370
     0
100
AcDbBlockReference
  2
SW_NOTE_1
 10
16.5044025971
 20
63.1346467818
 30
0.0
  0
MTEXT
  5
79
330
1F
100
AcDbEntity
  8
0
  6
Continuous
 62
     7
370
     0
100
AcDbMText
 10
191.7420693376
 20
57.9900954614
 30
0.0
 40
1.905
 41
0.0
 71
     2
 72
     1
  1
3
  7
SLDTEXTSTYLE0
 73
     1
 44
1.0
  0
MTEXT
  5
7A
330
1F
100
AcDbEntity
  8
0
  6
Continuous
 62
     7
370
     0
100
AcDbMText
 10
152.9877729616
 20
36.1558268151
 30
0.0
 40
6.35
 41
0.0
 71
     2
 72
     1
  1
Axe Satellite
  7
SLDTEXTSTYLE0
 73
     1
 44
1.0
  0
MTEXT
  5
7B
330
1F
100
AcDbEntity
  8
0
  6
Continuous
 62
     7
370
     0
100
AcDbMText
 10
157.6728669333
 20
19.8465186829
 30
0.0
 40
6.35
 41
0.0
 71
     2
 72
     1
  1
ASD-US000010
  7
SLDTEXTSTYLE0
 73
     1
 44
1.0
  0
MTEXT
  5
7C
330
1F
100
AcDbEntity
  8
0
  6
Continuous
 62
     7
370
     0
100
AcDbMText
 10
59.8082495771
 20
37.6800273381
 30
0.0
 40
1.4986
 41
0.0
 71
     2
 72
     1
  1
22-11/2013
  7
SLDTEXTSTYLE0
 73
     1
 44
1.0
  0
MTEXT
  5
7D
330
1F
100
AcDbEntity
  8
0
  6
Continuous
 62
     7
370
     0
100
AcDbMText
 10
27.3455038172
 20
37.5042927656
 30
0.0
 40
1.4986
 41
0.0
 71
     2
 72
     1
  1
BRESSON-T
  7
SLDTEXTSTYLE0
 73
     1
 44
1.0
  0
MTEXT
  5
7E
330
1F
100
AcDbEntity
  8
0
  6
Continuous
 62
     7
370
     0
100
AcDbMText
 10
65.7286320398
 20
8.0702391613
 30
0.0
 40
1.4986
 41
0.0
 71
     1
 72
     1
  1
MASSE:
  7
SLDTEXTSTYLE0
 73
     1
 44
1.0
  0
MTEXT
  5
7F
330
1F
100
AcDbEntity
  8
0
  6
Continuous
 62
     7
370
     0
100
AcDbMText
 10
87.2771341408
 20
16.6064929491
 30
0.0
 40
2.38125
 41
0.0
 71
     2
 72
     1
  1
Acier Inoxydable
  7
SLDTEXTSTYLE0
 73
     1
 44
1.0
  0
MTEXT
  5
80
330
1F
100
AcDbEntity
  8
0
  6
Continuous
 62
     7
370
     0
100
AcDbMText
 10
195.9998284117
 20
19.5152246096
 30
0.0
 40
2.9104166667
 41
0.0
 71
     1
 72
     1
  1
A4
  7
SLDTEXTSTYLE0
 73
     1
 44
1.0
  0
MTEXT
  5
82
330
1F
100
AcDbEntity
  8
0
  6
Continuous
 62
     7
370
     0
100
AcDbMText
 10
162.3571379932
 20
8.114867664
 30
0.0
 40
1.5
 41
0.0
 71
     1
 72
     1
  1
FEUILLE 1 SUR 1
  7
SLDTEXTSTYLE1
 73
     1
 44
1.0
  0
MTEXT
  5
83
330
1F
100
AcDbEntity
  8
0
  6
Continuous
 62
     7
370
     0
100
AcDbMText
 10
110.1847870291
 20
8.021014765
 30
0.0
 40
1.5
 41
0.0
 71
     1
 72
     1
  1
ECHELLE:1:1
  7
SLDTEXTSTYLE0
 73
     1
 44
1.0
  0
MTEXT
  5
84
330
1F
100
AcDbEntity
  8
0
  6
Continuous
 62
     7
370
     0
100
AcDbMText
 10
110.1847870291
 20
19.9895653175
 30
0.0
 40
1.5
 41
0.0
 71
     1
 72
     1
  1
No. DE PLAN
  7
SLDTEXTSTYLE0
 73
     1
 44
1.0
  0
MTEXT
  5
85
330
1F
100
AcDbEntity
  8
0
  6
Continuous
 62
     7
370
     0
100
AcDbMText
 10
110.0670078483
 20
41.3992617765
 30
0.0
 40
1.5
 41
0.0
 71
     1
 72
     1
  1
TITRE:
  7
SLDTEXTSTYLE0
 73
     1
 44
1.0
  0
MTEXT
  5
86
330
1F
100
AcDbEntity
  8
0
  6
Continuous
 62
     7
370
     0
100
AcDbMText
 10
171.2064252647
 20
57.5496890699
 30
0.0
 40
1.5
 41
0.0
 71
     1
 72
     1
  1
REVISION
  7
SLDTEXTSTYLE0
 73
     1
 44
1.0
  0
MTEXT
  5
87
330
1F
100
AcDbEntity
  8
0
  6
Continuous
 62
     7
370
     0
100
AcDbMText
 10
130.4934840882
 20
57.7477739645
 30
0.0
 40
1.5
 41
0.0
 71
     1
 72
     1
  1
NE PAS CHANGER L'ECHELLE
  7
SLDTEXTSTYLE0
 73
     1
 44
1.0
  0
MTEXT
  5
88
330
1F
100
AcDbEntity
  8
0
  6
Continuous
 62
     7
370
     0
100
AcDbMText
 10
65.7566832204
 20
21.1069837797
 30
0.0
 40
1.5
 41
0.0
 71
     1
 72
     1
  1
MATERIAU:
  7
SLDTEXTSTYLE0
 73
     1
 44
1.0
  0
MTEXT
  5
89
330
1F
100
AcDbEntity
  8
0
  6
Continuous
 62
     7
370
     0
100
AcDbMText
 10
57.3255228774
 20
41.6971067117
 30
0.0
 40
1.5
 41
0.0
 71
     1
 72
     1
  1
DATE
  7
SLDTEXTSTYLE0
 73
     1
 44
1.0
  0
MTEXT
  5
8A
330
1F
100
AcDbEntity
  8
0
  6
Continuous
 62
     7
370
     0
100
AcDbMText
 10
40.1444084748
 20
41.68268387
 30
0.0
 40
1.5
 41
0.0
 71
     1
 72
     1
  1
SIGNATURE
  7
SLDTEXTSTYLE0
 73
     1
 44
1.0
  0
MTEXT
  5
8B
330
1F
100
AcDbEntity
  8
0
  6
Continuous
 62
     7
370
     0
100
AcDbMText
 10
24.4330601293
 20
41.622410124
 30
0.0
 40
1.5
 41
0.0
 71
     1
 72
     1
  1
NOM
  7
SLDTEXTSTYLE0
 73
     1
 44
1.0
  0
INSERT
  5
91
330
1F
100
AcDbEntity
  8
0
  6
Continuous
 62
     7
370
     0
100
AcDbBlockReference
  2
SW_NOTE_2
 10
91.4200365979
 20
57.1904171335
 30
0.0
  0
MTEXT
  5
92
330
1F
100
AcDbEntity
  8
0
  6
Continuous
 62
     7
370
     0
100
AcDbMText
 10
44.4821130785
 20
59.0401994856
 30
0.0
 40
1.5
 41
0.0
 71
     1
 72
     1
  1
FINITION:
  7
SLDTEXTSTYLE0
 73
     1
 44
1.0
  0
MTEXT
  5
93
330
1F
100
AcDbEntity
  8
0
  6
Continuous
 62
     7
370
     0
100
AcDbMText
 10
10.7798637738
 20
20.4705766978
 30
0.0
 40
1.5
 41
0.0
 71
     1
 72
     1
  1
QUAL.
  7
SLDTEXTSTYLE0
 73
     1
 44
1.0
  0
MTEXT
  5
94
330
1F
100
AcDbEntity
  8
0
  6
Continuous
 62
     7
370
     0
100
AcDbMText
 10
10.5660074108
 20
24.8546321411
 30
0.0
 40
1.5
 41
0.0
 71
     1
 72
     1
  1
FAB.
  7
SLDTEXTSTYLE0
 73
     1
 44
1.0
  0
MTEXT
  5
95
330
1F
100
AcDbEntity
  8
0
  6
Continuous
 62
     7
370
     0
100
AcDbMText
 10
10.51254332
 20
29.1852234936
 30
0.0
 40
1.5
 41
0.0
 71
     1
 72
     1
  1
APPR.
  7
SLDTEXTSTYLE0
 73
     1
 44
1.0
  0
MTEXT
  5
96
330
1F
100
AcDbEntity
  8
0
  6
Continuous
 62
     7
370
     0
100
AcDbMText
 10
10.5212897793
 20
33.2753346505
 30
0.0
 40
1.5
 41
0.0
 71
     1
 72
     1
  1
VERIF.
  7
SLDTEXTSTYLE0
 73
     1
 44
1.0
  0
MTEXT
  5
97
330
1F
100
AcDbEntity
  8
0
  6
Continuous
 62
     7
370
     0
100
AcDbMText
 10
10.3229701557
 20
37.5506423764
 30
0.0
 40
1.5
 41
0.0
 71
     1
 72
     1
  1
AUTEUR
  7
SLDTEXTSTYLE0
 73
     1
 44
1.0
  0
INSERT
  5
A2
330
1F
100
AcDbEntity
  8
0
  6
Continuous
 62
     7
370
     0
100
AcDbBlockReference
  2
SW_NOTE_3
 10
12.533189813
 20
56.4986553933
 30
0.0
  0
LINE
  5
A3
330
1F
100
AcDbEntity
  8
0
  6
Continuous
 62
     7
370
    15
100
AcDbLine
 10
72.9807736997
 20
186.917677182
 30
0.0
 11
72.9807736997
 21
277.417677182
 31
0.0
  0
LINE
  5
A4
330
1F
100
AcDbEntity
  8
0
  6
Continuous
 62
     7
370
    15
100
AcDbLine
 10
60.9807736997
 20
277.417677182
 30
0.0
 11
60.9807736997
 21
186.917677182
 31
0.0
  0
LINE
  5
A5
330
1F
100
AcDbEntity
  8
0
  6
Continuous
 62
     7
370
    15
100
AcDbLine
 10
72.9807736997
 20
277.417677182
 30
0.0
 11
60.9807736997
 21
277.417677182
 31
0.0
  0
SPLINE
  5
A6
330
1F
100
AcDbEntity
  8
0
  6
Continuous
 62
     7
370
    15
100
AcDbSpline
210
0.0
220
0.0
230
1.0
 70
     8
 71
     3
 72
    62
 73
    58
 74
     0
 42
0.00000001
 43
0.00000001
 40
-0.0312500000000007
 40
-0.0312500000000007
 40
0.0
 40
0.0
 40
0.0312499999999998
 40
0.0312499999999998
 40
0.0624999999999995
 40
0.0624999999999995
 40
0.0937499999999993
 40
0.0937499999999993
 40
0.1249999999999991
 40
0.1249999999999991
 40
0.1874999999999998
 40
0.1874999999999998
 40
0.2187499999999993
 40
0.2187499999999993
 40
0.2499999999999989
 40
0.2499999999999989
 40
0.2812499999999986
 40
0.2812499999999986
 40
0.3124999999999982
 40
0.3124999999999982
 40
0.3437499999999978
 40
0.3437499999999978
 40
0.3749999999999973
 40
0.3749999999999973
 40
0.4062499999999969
 40
0.4062499999999969
 40
0.4374999999999966
 40
0.4374999999999966
 40
0.4687499999999962
 40
0.4687499999999962
 40
0.4999999999999958
 40
0.4999999999999958
 40
0.562499999999995
 40
0.562499999999995
 40
0.5937499999999947
 40
0.5937499999999947
 40
0.6249999999999943
 40
0.6249999999999943
 40
0.6874999999999937
 40
0.6874999999999937
 40
0.7187499999999941
 40
0.7187499999999941
 40
0.7499999999999944
 40
0.7499999999999944
 40
0.7812499999999949
 40
0.7812499999999949
 40
0.8124999999999953
 40
0.8124999999999953
 40
0.8749999999999977
 40
0.8749999999999977
 40
0.9062499999999982
 40
0.9062499999999982
 40
0.9374999999999988
 40
0.9374999999999988
 40
0.9687499999999993
 40
0.9687499999999993
 40
1.0
 40
1.0
 40
1.03125
 40
1.03125
 10
67.11392917449442
 20
228.2976771820464
 30
0.0
 10
66.84761822492575
 20
228.2976771820464
 30
0.0
 10
66.71687035069824
 20
228.3108406954389
 30
0.0
 10
66.45993784477429
 20
228.3622459085707
 30
0.0
 10
66.33238592530942
 20
228.4011673735488
 30
0.0
 10
66.09057722892007
 20
228.5019304284331
 30
0.0
 10
65.97605087656542
 20
228.5634514527847
 30
0.0
 10
65.759354981905
 20
228.7086072820179
 30
0.0
 10
65.65756910085447
 20
228.7923912201591
 30
0.0
 10
65.38306833546268
 20
229.0670828057366
 30
0.0
 10
65.23456449599409
 20
229.2884907844902
 30
0.0
 10
65.08449656072206
 20
229.6487866256426
 30
0.0
 10
65.0455685869594
 20
229.7757880046022
 30
0.0
 10
64.993800982725
 20
230.0343778012901
 30
0.0
 10
64.98086583301118
 20
230.1647783234629
 30
0.0
 10
64.98068253778509
 20
230.4277883878915
 30
0.0
 10
64.99389782116245
 20
230.5613844027938
 30
0.0
 10
65.04538270958875
 20
230.8187136206818
 30
0.0
 10
65.08346070504973
 20
230.9438711603183
 30
0.0
 10
65.18464205745703
 20
231.1872132301969
 30
0.0
 10
65.24667447853786
 20
231.3025334799643
 30
0.0
 10
65.39104954207814
 20
231.5181743721197
 30
0.0
 10
65.47462632124689
 20
231.6199711897028
 30
0.0
 10
65.65871323022593
 20
231.8040295589366
 30
0.0
 10
65.7586743965133
 20
231.8861944993255
 30
0.0
 10
65.97468887006863
 20
232.0310863344784
 30
0.0
 10
66.09170511395543
 20
232.0939417610398
 30
0.0
 10
66.33251128453442
 20
232.1941911495649
 30
0.0
 10
66.45732230352141
 20
232.232472243773
 30
0.0
 10
66.71621775500729
 20
232.2844945987145
 30
0.0
 10
66.84880146394396
 20
232.2976244464261
 30
0.0
 10
67.24231328961517
 20
232.2977821713321
 30
0.0
 10
67.50716650016196
 20
232.2447913841229
 30
0.0
 10
67.86925758217477
 20
232.0942523028455
 30
0.0
 10
67.98627495650283
 20
232.0314226338833
 30
0.0
 10
68.20228980501295
 20
231.8866405150603
 30
0.0
 10
68.30245479710872
 20
231.8044012496272
 30
0.0
 10
68.57954821399838
 20
231.5273736521781
 30
0.0
 10
68.7260456795929
 20
231.3092729395917
 30
0.0
 10
68.87778781332797
 20
230.944718539184
 30
0.0
 10
68.91585432621001
 20
230.8197889088337
 30
0.0
 10
68.96740223192842
 20
230.5630915020825
 30
0.0
 10
68.9807628502245
 20
230.4296512081061
 30
0.0
 10
68.98078453566208
 20
230.1660321980771
 30
0.0
 10
68.96789164566611
 20
230.0355124492974
 30
0.0
 10
68.91630924041546
 20
229.777033110819
 30
0.0
 10
68.87739917529892
 20
229.649740017763
 30
0.0
 10
68.72708003475105
 20
229.2884907581163
 30
0.0
 10
68.5786591477558
 20
229.067236806899
 30
0.0
 10
68.30373669069662
 20
228.7921625590861
 30
0.0
 10
68.20160799346493
 20
228.7081857614858
 30
0.0
 10
67.9854423397341
 20
228.5634452850396
 30
0.0
 10
67.87107276189732
 20
228.5019806248598
 30
0.0
 10
67.62925253762369
 20
228.4011978801817
 30
0.0
 10
67.50167698460221
 20
228.3622641661126
 30
0.0
 10
67.2447495132687
 20
228.3108504295807
 30
0.0
 10
67.11392917449442
 20
228.2976771820464
 30
0.0
 10
66.84761822492575
 20
228.2976771820464
 30
0.0
  0
SPLINE
  5
A7
330
1F
100
AcDbEntity
  8
0
  6
Continuous
 62
     7
370
    15
100
AcDbSpline
210
0.0
220
0.0
230
1.0
 70
     8
 71
     3
 72
    62
 73
    58
 74
     0
 42
0.00000001
 43
0.00000001
 40
-0.031249999999999
 40
-0.031249999999999
 40
0.0
 40
0.0
 40
0.0312500000000003
 40
0.0312500000000003
 40
0.0625000000000007
 40
0.0625000000000007
 40
0.093750000000001
 40
0.093750000000001
 40
0.1250000000000014
 40
0.1250000000000014
 40
0.187500000000002
 40
0.187500000000002
 40
0.2187500000000023
 40
0.2187500000000023
 40
0.2500000000000027
 40
0.2500000000000027
 40
0.281250000000003
 40
0.281250000000003
 40
0.3125000000000033
 40
0.3125000000000033
 40
0.3437500000000037
 40
0.3437500000000037
 40
0.3750000000000041
 40
0.3750000000000041
 40
0.4062500000000044
 40
0.4062500000000044
 40
0.4375000000000047
 40
0.4375000000000047
 40
0.4687500000000051
 40
0.4687500000000051
 40
0.5000000000000054
 40
0.5000000000000054
 40
0.5625000000000061
 40
0.5625000000000061
 40
0.593750000000007
 40
0.593750000000007
 40
0.625000000000008
 40
0.625000000000008
 40
0.6875000000000099
 40
0.6875000000000099
 40
0.7187500000000093
 40
0.7187500000000093
 40
0.7500000000000088
 40
0.7500000000000088
 40
0.7812500000000082
 40
0.7812500000000082
 40
0.8125000000000077
 40
0.8125000000000077
 40
0.8750000000000036
 40
0.8750000000000036
 40
0.9062500000000028
 40
0.9062500000000028
 40
0.9375000000000019
 40
0.9375000000000019
 40
0.968750000000001
 40
0.968750000000001
 40
1.0
 40
1.0
 40
1.03125
 40
1.03125
 10
67.1139291744944
 20
255.4176771820464
 30
0.0
 10
66.84761822492575
 20
255.4176771820464
 30
0.0
 10
66.71687035069826
 20
255.430840695439
 30
0.0
 10
66.45993784477429
 20
255.4822459085707
 30
0.0
 10
66.33238592530942
 20
255.5211673735489
 30
0.0
 10
66.09057722892007
 20
255.6219304284331
 30
0.0
 10
65.97605087656542
 20
255.6834514527847
 30
0.0
 10
65.759354981905
 20
255.8286072820179
 30
0.0
 10
65.65756910085447
 20
255.9123912201591
 30
0.0
 10
65.38306833546268
 20
256.1870828057367
 30
0.0
 10
65.23456449599409
 20
256.4084907844903
 30
0.0
 10
65.08449656072204
 20
256.7687866256426
 30
0.0
 10
65.0455685869594
 20
256.8957880046021
 30
0.0
 10
64.99380098272499
 20
257.1543778012901
 30
0.0
 10
64.98086583301118
 20
257.2847783234629
 30
0.0
 10
64.98068253778509
 20
257.5477883878915
 30
0.0
 10
64.99389782116245
 20
257.6813844027938
 30
0.0
 10
65.04538270958875
 20
257.9387136206818
 30
0.0
 10
65.08346070504973
 20
258.0638711603183
 30
0.0
 10
65.18464205745703
 20
258.3072132301969
 30
0.0
 10
65.24667447853787
 20
258.4225334799643
 30
0.0
 10
65.39104954207814
 20
258.6381743721197
 30
0.0
 10
65.4746263212469
 20
258.7399711897028
 30
0.0
 10
65.65871323022593
 20
258.9240295589367
 30
0.0
 10
65.7586743965133
 20
259.0061944993255
 30
0.0
 10
65.97468887006863
 20
259.1510863344784
 30
0.0
 10
66.09170511395541
 20
259.2139417610398
 30
0.0
 10
66.3325112845344
 20
259.3141911495649
 30
0.0
 10
66.45732230352141
 20
259.352472243773
 30
0.0
 10
66.71621775500729
 20
259.4044945987146
 30
0.0
 10
66.84880146394396
 20
259.4176244464262
 30
0.0
 10
67.24231328961517
 20
259.4177821713321
 30
0.0
 10
67.50716650016196
 20
259.364791384123
 30
0.0
 10
67.86925758217477
 20
259.2142523028456
 30
0.0
 10
67.98627495650283
 20
259.1514226338833
 30
0.0
 10
68.20228980501295
 20
259.0066405150603
 30
0.0
 10
68.30245479710872
 20
258.9244012496272
 30
0.0
 10
68.57954821399838
 20
258.647373652178
 30
0.0
 10
68.7260456795929
 20
258.4292729395917
 30
0.0
 10
68.87778781332797
 20
258.0647185391841
 30
0.0
 10
68.91585432621001
 20
257.9397889088337
 30
0.0
 10
68.96740223192842
 20
257.6830915020824
 30
0.0
 10
68.9807628502245
 20
257.5496512081061
 30
0.0
 10
68.98078453566208
 20
257.2860321980771
 30
0.0
 10
68.96789164566611
 20
257.1555124492974
 30
0.0
 10
68.91630924041546
 20
256.897033110819
 30
0.0
 10
68.87739917529892
 20
256.7697400177629
 30
0.0
 10
68.72708003475105
 20
256.4084907581163
 30
0.0
 10
68.57865914775579
 20
256.187236806899
 30
0.0
 10
68.30373669069662
 20
255.9121625590862
 30
0.0
 10
68.20160799346495
 20
255.8281857614858
 30
0.0
 10
67.98544233973412
 20
255.6834452850396
 30
0.0
 10
67.87107276189732
 20
255.6219806248598
 30
0.0
 10
67.6292525376237
 20
255.5211978801816
 30
0.0
 10
67.50167698460221
 20
255.4822641661126
 30
0.0
 10
67.2447495132687
 20
255.4308504295807
 30
0.0
 10
67.1139291744944
 20
255.4176771820464
 30
0.0
 10
66.84761822492575
 20
255.4176771820464
 30
0.0
  0
LINE
  5
A8
330
1F
100
AcDbEntity
  8
0
  6
Continuous
 62
     7
370
    15
100
AcDbLine
 10
72.9807736997
 20
186.917677182
 30
0.0
 11
60.9807736997
 21
186.917677182
 31
0.0
  0
DIMENSION
  5
A9
330
1F
100
AcDbEntity
  8
0
  6
Continuous
 62
     7
370
     0
100
AcDbDimension
  2
*D5
 10
50.9807736997
 20
186.917677182
 30
0.0
 11
50.9807736997
 21
208.607677182
 31
0.0
 70
   160
  1
<> [A]
 71
     2
 42
-1.0
  3
SLDDIMSTYLE0
100
AcDbAlignedDimension
 13
62.4807736997
 23
230.297677182
 33
0.0
 14
60.9807736997
 24
186.917677182
 34
0.0
 50
90.0
100
AcDbRotatedDimension
  0
DIMENSION
  5
B5
330
1F
100
AcDbEntity
  8
0
  6
Continuous
 62
     7
370
     0
100
AcDbDimension
  2
*D6
 10
41.4139762115
 20
257.417677182
 30
0.0
 11
41.4139762115
 21
222.4054636813
 31
0.0
 70
   160
 71
     2
 42
-1.0
  3
SLDDIMSTYLE0
100
AcDbAlignedDimension
 13
60.9807736997
 23
186.917677182
 33
0.0
 14
62.4807736997
 24
257.417677182
 34
0.0
 50
90.0
100
AcDbRotatedDimension
  0
DIMENSION
  5
BF
330
1F
100
AcDbEntity
  8
0
  6
Continuous
 62
     7
370
     0
100
AcDbDimension
  2
*D8
 10
65.2487228921
 20
229.297677182
 30
0.0
 11
90.3758983369
 21
243.8048629155
 31
0.0
 70
   163
  1
<> (x3)
 71
     1
 42
-1.0
  3
SLDDIMSTYLE1
100
AcDbDiametricDimension
 15
68.7128245073
 25
231.297677182
 35
0.0
 40
0.0
  0
INSERT
  5
D8
330
1F
100
AcDbEntity
  8
0
  6
Continuous
 62
     7
370
     0
100
AcDbBlockReference
  2
SW_CENTERMARKSYMBOL_0
 10
66.9807736997
 20
230.297677182
 30
0.0
  0
INSERT
  5
E4
330
1F
100
AcDbEntity
  8
0
  6
Continuous
 62
     7
370
     0
100
AcDbBlockReference
  2
SW_CENTERMARKSYMBOL_1
 10
66.9807736997
 20
257.417677182
 30
0.0
  0
LINE
  5
E5
330
1F
100
AcDbEntity
  8
0
  6
Continuous
 62
     7
370
    15
100
AcDbLine
 10
158.6645255474
 20
259.3905295339
 30
0.0
 11
158.6645255474
 21
277.417677182
 31
0.0
  0
LINE
  5
E6
330
1F
100
AcDbEntity
  8
0
  6
Continuous
 62
     7
370
    15
100
AcDbLine
 10
158.6645255474
 20
232.2705295339
 30
0.0
 11
158.6645255474
 21
255.417677182
 31
0.0
  0
LINE
  5
E7
330
1F
100
AcDbEntity
  8
0
  6
Continuous
 62
     7
370
    15
100
AcDbLine
 10
158.6645255474
 20
186.917677182
 30
0.0
 11
158.6645255474
 21
228.297677182
 31
0.0
  0
LINE
  5
E8
330
1F
100
AcDbEntity
  8
0
  6
Continuous
 62
     7
370
    15
100
AcDbLine
 10
146.6645255474
 20
228.3248248301
 30
0.0
 11
146.6645255474
 21
186.917677182
 31
0.0
  0
LINE
  5
E9
330
1F
100
AcDbEntity
  8
0
  6
Continuous
 62
     7
370
    15
100
AcDbLine
 10
146.6645255474
 20
255.4448248301
 30
0.0
 11
146.6645255474
 21
232.297677182
 31
0.0
  0
LINE
  5
EA
330
1F
100
AcDbEntity
  8
0
  6
Continuous
 62
     7
370
    15
100
AcDbLine
 10
146.6645255474
 20
277.417677182
 30
0.0
 11
146.6645255474
 21
259.417677182
 31
0.0
  0
LINE
  5
EB
330
1F
100
AcDbEntity
  8
0
  6
Continuous
 62
     7
370
    15
100
AcDbLine
 10
158.6645255474
 20
277.417677182
 30
0.0
 11
146.6645255474
 21
277.417677182
 31
0.0
  0
SPLINE
  5
EC
330
1F
100
AcDbEntity
  8
0
  6
Continuous
 62
     7
370
    15
100
AcDbSpline
210
0.0
220
0.0
230
1.0
 70
     8
 71
     3
 72
    19
 73
    15
 74
     0
 42
0.00000001
 43
0.00000001
 40
0.0
 40
0.0
 40
0.0
 40
0.0
 40
0.10335515030249
 40
0.2065869998044536
 40
0.3130609422674731
 40
0.3671742387314393
 40
0.4229604033093687
 40
0.528707353338674
 40
0.6296610082444677
 40
0.7322855904297947
 40
0.840257304295018
 40
0.8941121589528037
 40
0.9496679460942063
 40
1.0
 40
1.0
 40
1.0
 40
1.0
 10
158.6645255474452
 20
228.2976771820464
 30
0.0
 10
158.6573896748926
 20
228.3186009435426
 30
0.0
 10
158.6431264427528
 20
228.360423504871
 30
0.0
 10
158.542564145194
 20
228.6845945432727
 30
0.0
 10
158.4442598571907
 20
229.0872412464592
 30
0.0
 10
158.3768792336878
 20
229.4833057944545
 30
0.0
 10
158.3271607510847
 20
229.9110008188204
 30
0.0
 10
158.3110154887092
 20
230.4734296757167
 30
0.0
 10
158.3696344935254
 20
231.112086291987
 30
0.0
 10
158.4774233711508
 20
231.6640988510575
 30
0.0
 10
158.5746713970582
 20
232.014026382202
 30
0.0
 10
158.6306057627903
 20
232.1945992143413
 30
0.0
 10
158.6620561572826
 20
232.2903977108201
 30
0.0
 10
158.6576335039066
 20
232.2769308066487
 30
0.0
 10
158.6555312679376
 20
232.2705295339435
 30
0.0
  0
SPLINE
  5
ED
330
1F
100
AcDbEntity
  8
0
  6
Continuous
 62
     7
370
    15
100
AcDbSpline
210
0.0
220
0.0
230
1.0
 70
     8
 71
     3
 72
    19
 73
    15
 74
     0
 42
0.00000001
 43
0.00000001
 40
0.0
 40
0.0
 40
0.0
 40
0.0
 40
0.1033551503024893
 40
0.2065869998044522
 40
0.3130609422674709
 40
0.3671742387314368
 40
0.4229604033093658
 40
0.5287073533386704
 40
0.6296610082444635
 40
0.7322855904297897
 40
0.8402573042950122
 40
0.8941121589527976
 40
0.9496679460941999
 40
1.0
 40
1.0
 40
1.0
 40
1.0
 10
146.6645255474452
 20
232.2976771820464
 30
0.0
 10
146.6716614199977
 20
232.2767534205502
 30
0.0
 10
146.6859246521377
 20
232.2349308592217
 30
0.0
 10
146.7864869496964
 20
231.9107598208201
 30
0.0
 10
146.8847912376997
 20
231.5081131176336
 30
0.0
 10
146.9521718612026
 20
231.1120485696383
 30
0.0
 10
147.0018903438057
 20
230.6843535452723
 30
0.0
 10
147.0180356061812
 20
230.1219246883761
 30
0.0
 10
146.9594166013651
 20
229.4832680721058
 30
0.0
 10
146.8516277237396
 20
228.9312555130353
 30
0.0
 10
146.7543796978322
 20
228.5813279818907
 30
0.0
 10
146.6984453321001
 20
228.4007551497515
 30
0.0
 10
146.6669949376078
 20
228.3049566532728
 30
0.0
 10
146.6714175909838
 20
228.3184235574441
 30
0.0
 10
146.6735198269528
 20
228.3248248301492
 30
0.0
  0
SPLINE
  5
EE
330
1F
100
AcDbEntity
  8
0
  6
Continuous
 62
     7
370
    15
100
AcDbSpline
210
0.0
220
0.0
230
1.0
 70
     8
 71
     3
 72
    19
 73
    15
 74
     0
 42
0.00000001
 43
0.00000001
 40
0.0
 40
0.0
 40
0.0
 40
0.0
 40
0.1033551503024898
 40
0.2065869998044531
 40
0.3130609422674739
 40
0.3671742387314413
 40
0.422960403309367
 40
0.5287073533386756
 40
0.6296610082444648
 40
0.7322855904297961
 40
0.8402573042950178
 40
0.8941121589528044
 40
0.9496679460942071
 40
0.9999999999999999
 40
0.9999999999999999
 40
0.9999999999999999
 40
0.9999999999999999
 10
158.6645255474452
 20
255.4176771820464
 30
0.0
 10
158.6573896748926
 20
255.4386009435426
 30
0.0
 10
158.6431264427528
 20
255.4804235048711
 30
0.0
 10
158.542564145194
 20
255.8045945432727
 30
0.0
 10
158.4442598571907
 20
256.2072412464592
 30
0.0
 10
158.3768792336878
 20
256.6033057944545
 30
0.0
 10
158.3271607510847
 20
257.0310008188205
 30
0.0
 10
158.3110154887092
 20
257.5934296757166
 30
0.0
 10
158.3696344935254
 20
258.232086291987
 30
0.0
 10
158.4774233711508
 20
258.7840988510576
 30
0.0
 10
158.5746713970582
 20
259.1340263822021
 30
0.0
 10
158.6306057627903
 20
259.3145992143413
 30
0.0
 10
158.6620561572826
 20
259.4103977108201
 30
0.0
 10
158.6576335039066
 20
259.3969308066486
 30
0.0
 10
158.6555312679376
 20
259.3905295339435
 30
0.0
  0
SPLINE
  5
EF
330
1F
100
AcDbEntity
  8
0
  6
Continuous
 62
     7
370
    15
100
AcDbSpline
210
0.0
220
0.0
230
1.0
 70
     8
 71
     3
 72
    19
 73
    15
 74
     0
 42
0.00000001
 43
0.00000001
 40
0.0
 40
0.0
 40
0.0
 40
0.0
 40
0.1033551503024891
 40
0.2065869998044517
 40
0.3130609422674718
 40
0.3671742387314388
 40
0.4229604033093642
 40
0.5287073533386721
 40
0.6296610082444606
 40
0.7322855904297912
 40
0.8402573042950122
 40
0.8941121589527984
 40
0.9496679460942008
 40
1.0
 40
1.0
 40
1.0
 40
1.0
 10
146.6645255474452
 20
259.4176771820464
 30
0.0
 10
146.6716614199977
 20
259.3967534205501
 30
0.0
 10
146.6859246521377
 20
259.3549308592218
 30
0.0
 10
146.7864869496964
 20
259.0307598208201
 30
0.0
 10
146.8847912376997
 20
258.6281131176336
 30
0.0
 10
146.9521718612025
 20
258.2320485696383
 30
0.0
 10
147.0018903438057
 20
257.8043535452723
 30
0.0
 10
147.0180356061812
 20
257.2419246883762
 30
0.0
 10
146.9594166013651
 20
256.6032680721058
 30
0.0
 10
146.8516277237396
 20
256.0512555130352
 30
0.0
 10
146.7543796978322
 20
255.7013279818908
 30
0.0
 10
146.6984453321001
 20
255.5207551497515
 30
0.0
 10
146.6669949376078
 20
255.4249566532727
 30
0.0
 10
146.6714175909838
 20
255.4384235574442
 30
0.0
 10
146.6735198269528
 20
255.4448248301492
 30
0.0
  0
LINE
  5
F0
330
1F
100
AcDbEntity
  8
0
  6
Continuous
 62
     7
370
    15
100
AcDbLine
 10
158.6645255474
 20
186.917677182
 30
0.0
 11
146.6645255474
 21
186.917677182
 31
0.0
  0
DIMENSION
  5
F1
330
1F
100
AcDbEntity
  8
0
  6
Continuous
 62
     7
370
     0
100
AcDbDimension
  2
*D11
 10
136.6645255474
 20
186.917677182
 30
0.0
 11
136.6645255474
 21
232.167677182
 31
0.0
 70
   160
 71
     2
 42
-1.0
  3
SLDDIMSTYLE0
100
AcDbAlignedDimension
 13
146.6645255474
 23
277.417677182
 33
0.0
 14
146.6645255474
 24
186.917677182
 34
0.0
 50
90.0
100
AcDbRotatedDimension
  0
CIRCLE
  5
FB
330
1F
100
AcDbEntity
  8
0
  6
Continuous
 62
     7
370
    15
100
AcDbCircle
 10
66.9807736997
 20
132.4963707617
 30
0.0
 40
6.0
  0
DIMENSION
  5
FC
330
1F
100
AcDbEntity
  8
0
  6
Continuous
 62
     7
370
     0
100
AcDbDimension
  2
*D12
 10
71.2234143868
 20
128.2537300745
 30
0.0
 11
50.9807836997
 21
148.4963807617
 31
0.0
 70
   163
  1
<>g6
 71
     1
 42
-1.0
  3
SLDDIMSTYLE2
100
AcDbDiametricDimension
 15
62.7381330126
 25
136.7390114488
 35
0.0
 40
0.0
  0
INSERT
  5
112
330
1F
100
AcDbEntity
  8
0
  6
Continuous
 62
     7
370
     0
100
AcDbBlockReference
  2
SW_CENTERMARKSYMBOL_2
 10
66.9807736997
 20
132.4963707617
 30
0.0
  0
LINE
  5
113
330
1F
100
AcDbEntity
  8
0
  6
Continuous
 62
     7
370
    15
100
AcDbLine
 10
158.4504598426
 20
91.4733222555
 30
0.0
 11
158.4504598426
 21
165.3702657311
 31
0.0
  0
LINE
  5
114
330
1F
100
AcDbEntity
  8
0
  6
Continuous
 62
     7
370
    15
100
AcDbLine
 10
146.4504598426
 20
165.3702657311
 30
0.0
 11
146.4504598426
 21
91.4733222555
 31
0.0
  0
LWPOLYLINE
  5
115
330
1F
100
AcDbEntity
  8
0
  6
Continuous
 62
     7
370
    15
100
AcDbPolyline
 90
       62
 70
   128
 43
0.0
 10
156.6931005297
 20
89.02409792
 10
157.1068465523
 20
89.288910802
 10
157.4712337173
 20
89.5768789888
 10
157.7823994303
 20
89.8849499461
 10
158.0370452573
 20
90.2098580449
 10
158.232471889
 20
90.5481591787
 10
158.3666077547
 20
90.8962672713
 10
158.4380309807
 20
91.2504922903
 10
158.4459844631
 20
91.6070793623
 10
158.3903838931
 20
91.9622485757
 10
158.2718186504
 20
92.3122350485
 10
158.0915455562
 20
92.653328837
 10
157.8514755501
 20
92.9819142622
 10
157.5541534338
 20
93.2945082368
 10
157.2027308959
 20
93.5877971869
 10
156.8009331025
 20
93.8586721768
 10
156.3530192104
 20
94.1042618641
 10
155.8637372181
 20
94.321962937
 10
155.3382736364
 20
94.50946771
 10
154.7821985102
 20
94.664788586
 10
154.201406374
 20
94.7862791248
 10
153.602053769
 20
94.8726514967
 10
152.9904939819
 20
94.922990133
 10
152.3732096986
 20
94.9367614316
 10
151.756744286
 20
94.9138194134
 10
151.1476324309
 20
94.8544072693
 10
150.5523308705
 20
94.759154783
 10
149.9771499493
 20
94.6290716545
 10
149.4281867284
 20
94.4655367973
 10
148.9112603542
 20
94.2702837216
 10
148.4318503751
 20
94.0453821585
 10
147.9950386561
 20
93.7932161207
 10
147.6054555101
 20
93.5164586307
 10
147.2672306152
 20
93.2180433869
 10
146.9839492396
 20
92.901133665
 10
146.7586142363
 20
92.569088787
 10
146.5936142124
 20
92.2254285112
 10
146.4906982092
 20
91.8737957219
 10
146.4509571619
 20
91.5179178143
 10
146.4748123355
 20
91.1615671827
 10
146.5620108593
 20
90.8085212324
 10
146.7116284072
 20
90.4625223383
 10
146.9220789959
 20
90.1272381748
 10
147.1911317969
 20
89.8062228375
 10
147.5159347836
 20
89.5028791686
 10
147.8930449634
 20
89.2204226867
 10
148.3184648747
 20
88.9618475007
 10
148.7876849606
 20
88.7298945719
 10
149.2957313715
 20
88.527022659
 10
149.8372186889
 20
88.3553822547
 10
150.4064070127
 20
88.2167927901
 10
150.9972628049
 20
88.112723348
 10
151.6035228473
 20
88.0442770904
 10
152.2187606325
 20
88.0121795645
 10
152.836454487
 20
88.0167710122
 10
153.4500567022
 20
88.0580027629
 10
154.0530629421
 20
88.1354377499
 10
154.6390811904
 20
88.248255143
 10
155.201899508
 20
88.3952590498
 10
155.7355518806
 20
88.5748911924
 10
156.2343814604
 20
88.7852474252
 10
156.6931005297
 20
89.02409792
  0
LWPOLYLINE
  5
116
330
1F
100
AcDbEntity
  8
0
  6
Continuous
 62
     7
370
    15
100
AcDbPolyline
 90
       33
 70
   128
 43
0.0
 10
158.4504598426
 20
165.3702657311
 10
158.4459844631
 20
165.504022838
 10
158.3903838931
 20
165.8591920514
 10
158.2718186504
 20
166.2091785242
 10
158.0915455562
 20
166.5502723127
 10
157.8514755501
 20
166.8788577378
 10
157.5541534338
 20
167.1914517124
 10
157.2027308959
 20
167.4847406626
 10
156.8009331025
 20
167.7556156524
 10
156.3530192104
 20
168.0012053397
 10
155.8637372181
 20
168.2189064127
 10
155.3382736364
 20
168.4064111857
 10
154.7821985102
 20
168.5617320616
 10
154.201406374
 20
168.6832226005
 10
153.602053769
 20
168.7695949724
 10
152.9904939819
 20
168.8199336087
 10
152.3732096986
 20
168.8337049073
 10
151.756744286
 20
168.810762889
 10
151.1476324309
 20
168.751350745
 10
150.5523308705
 20
168.6560982587
 10
149.9771499493
 20
168.5260151302
 10
149.4281867284
 20
168.362480273
 10
148.9112603542
 20
168.1672271973
 10
148.4318503751
 20
167.9423256342
 10
147.9950386561
 20
167.6901595963
 10
147.6054555101
 20
167.4134021063
 10
147.2672306152
 20
167.1149868625
 10
146.9839492396
 20
166.7980771407
 10
146.7586142363
 20
166.4660322627
 10
146.5936142124
 20
166.1223719868
 10
146.4906982092
 20
165.7707391976
 10
146.4509571619
 20
165.41486129
 10
146.4504598426
 20
165.3702657311
  0
SPLINE
  5
117
330
1F
100
AcDbEntity
  8
0
  6
Continuous
 62
     7
370
    15
100
AcDbSpline
210
0.0
220
0.0
230
1.0
 70
     8
 71
     3
 72
    62
 73
    58
 74
     0
 42
0.00000001
 43
0.00000001
 40
-0.0312500000000007
 40
-0.0312500000000007
 40
0.0
 40
0.0
 40
0.0312499999999998
 40
0.0312499999999998
 40
0.0624999999999995
 40
0.0624999999999995
 40
0.0937499999999993
 40
0.0937499999999993
 40
0.1249999999999991
 40
0.1249999999999991
 40
0.1874999999999998
 40
0.1874999999999998
 40
0.2187499999999993
 40
0.2187499999999993
 40
0.2499999999999989
 40
0.2499999999999989
 40
0.2812499999999986
 40
0.2812499999999986
 40
0.3124999999999982
 40
0.3124999999999982
 40
0.3437499999999978
 40
0.3437499999999978
 40
0.3749999999999973
 40
0.3749999999999973
 40
0.4062499999999969
 40
0.4062499999999969
 40
0.4374999999999966
 40
0.4374999999999966
 40
0.4687499999999962
 40
0.4687499999999962
 40
0.4999999999999958
 40
0.4999999999999958
 40
0.562499999999995
 40
0.562499999999995
 40
0.5937499999999947
 40
0.5937499999999947
 40
0.6249999999999943
 40
0.6249999999999943
 40
0.6874999999999937
 40
0.6874999999999937
 40
0.7187499999999941
 40
0.7187499999999941
 40
0.7499999999999944
 40
0.7499999999999944
 40
0.7812499999999949
 40
0.7812499999999949
 40
0.8124999999999953
 40
0.8124999999999953
 40
0.8749999999999977
 40
0.8749999999999977
 40
0.9062499999999982
 40
0.9062499999999982
 40
0.9374999999999988
 40
0.9374999999999988
 40
0.9687499999999993
 40
0.9687499999999993
 40
1.0
 40
1.0
 40
1.03125
 40
1.03125
 10
148.3019742946087
 20
127.7653599916291
 30
0.0
 10
148.1136640162644
 20
127.6566507818815
 30
0.0
 10
148.0243396714541
 20
127.6122215493206
 30
0.0
 10
147.854567307892
 20
127.5424417210952
 30
0.0
 10
147.7733043857542
 20
127.5170003503769
 30
0.0
 10
147.6244251131618
 20
127.4878090904304
 30
0.0
 10
147.5565526495017
 20
127.4837252137827
 30
0.0
 10
147.4322530776756
 20
127.497095201668
 30
0.0
 10
147.3760936069716
 20
127.5148295599367
 30
0.0
 10
147.2290860639161
 20
127.5998874468648
 30
0.0
 10
147.156035426334
 20
127.7016075938515
 30
0.0
 10
147.0842386895347
 20
127.9147345467465
 30
0.0
 10
147.0661117854672
 20
127.9971196812525
 30
0.0
 10
147.042166219373
 20
128.1798287928239
 30
0.0
 10
147.0362883949457
 20
128.2791389757309
 30
0.0
 10
147.0362046094424
 20
128.4937961519056
 30
0.0
 10
147.0422111729976
 20
128.6102042995957
 30
0.0
 10
147.0660256463682
 20
128.8486089857927
 30
0.0
 10
147.0837463601188
 20
128.9716624588999
 30
0.0
 10
147.1321478991416
 20
129.2250248533512
 30
0.0
 10
147.1623369365115
 20
129.3524045551761
 30
0.0
 10
147.2349970743747
 20
129.6044073126048
 30
0.0
 10
147.2781124165668
 20
129.730871371905
 30
0.0
 10
147.3767134653036
 20
129.9745314140899
 30
0.0
 10
147.4318764515292
 20
130.0913866341379
 30
0.0
 10
147.5557577480434
 20
130.3145375490961
 30
0.0
 10
147.6251104495707
 20
130.4213581184645
 30
0.0
 10
147.7733907071386
 20
130.6142115759606
 30
0.0
 10
147.8528642945835
 20
130.7014872545837
 30
0.0
 10
148.0238835264419
 20
130.8566026761488
 30
0.0
 10
148.114513122502
 20
130.9232467959739
 30
0.0
 10
148.392730826797
 20
131.0840301693986
 30
0.0
 10
148.5928913827925
 20
131.1414391091007
 30
0.0
 10
148.8819636813016
 20
131.1472540161942
 30
0.0
 10
148.9780937812897
 20
131.1359902354302
 30
0.0
 10
149.1596877444697
 20
131.089294037645
 30
0.0
 10
149.2460566907874
 20
131.054058101732
 30
0.0
 10
149.4895064768702
 20
130.913534505662
 30
0.0
 10
149.6246686506394
 20
130.777020629951
 30
0.0
 10
149.7666704278498
 20
130.5212547116744
 30
0.0
 10
149.8027874810278
 20
130.4294724487888
 30
0.0
 10
149.8518415993716
 20
130.2336343285001
 30
0.0
 10
149.8646630208127
 20
130.1281809506249
 30
0.0
 10
149.8646837760921
 20
129.9129309925466
 30
0.0
 10
149.8523090519755
 20
129.8029742071063
 30
0.0
 10
149.8032187027439
 20
129.578142239529
 30
0.0
 10
149.7663073245469
 20
129.4637442262541
 30
0.0
 10
149.625635435896
 20
129.1272558495376
 30
0.0
 10
149.4887385152607
 20
128.904449862576
 30
0.0
 10
149.2471763929401
 20
128.5948424337936
 30
0.0
 10
149.1591044463627
 20
128.4937361069702
 30
0.0
 10
148.9774040388736
 20
128.3039636201412
 30
0.0
 10
148.8834363719839
 20
128.2146493449528
 30
0.0
 10
148.6903344724146
 20
128.0464074818912
 30
0.0
 10
148.5911923087167
 20
127.9676963518909
 30
0.0
 10
148.3976088994766
 20
127.8277105893922
 30
0.0
 10
148.3019742946087
 20
127.7653599916291
 30
0.0
 10
148.1136640162644
 20
127.6566507818815
 30
0.0
  0
SPLINE
  5
118
330
1F
100
AcDbEntity
  8
0
  6
Continuous
 62
     7
370
    15
100
AcDbSpline
210
0.0
220
0.0
230
1.0
 70
     8
 71
     3
 72
    62
 73
    58
 74
     0
 42
0.00000001
 43
0.00000001
 40
-0.031249999999999
 40
-0.031249999999999
 40
0.0
 40
0.0
 40
0.0312500000000003
 40
0.0312500000000003
 40
0.0625000000000007
 40
0.0625000000000007
 40
0.093750000000001
 40
0.093750000000001
 40
0.1250000000000014
 40
0.1250000000000014
 40
0.187500000000002
 40
0.187500000000002
 40
0.2187500000000023
 40
0.2187500000000023
 40
0.2500000000000027
 40
0.2500000000000027
 40
0.281250000000003
 40
0.281250000000003
 40
0.3125000000000033
 40
0.3125000000000033
 40
0.3437500000000037
 40
0.3437500000000037
 40
0.3750000000000041
 40
0.3750000000000041
 40
0.4062500000000044
 40
0.4062500000000044
 40
0.4375000000000047
 40
0.4375000000000047
 40
0.4687500000000051
 40
0.4687500000000051
 40
0.5000000000000054
 40
0.5000000000000054
 40
0.5625000000000061
 40
0.5625000000000061
 40
0.593750000000007
 40
0.593750000000007
 40
0.625000000000008
 40
0.625000000000008
 40
0.6875000000000099
 40
0.6875000000000099
 40
0.7187500000000093
 40
0.7187500000000093
 40
0.7500000000000088
 40
0.7500000000000088
 40
0.7812500000000082
 40
0.7812500000000082
 40
0.8125000000000077
 40
0.8125000000000077
 40
0.8750000000000036
 40
0.8750000000000036
 40
0.9062500000000028
 40
0.9062500000000028
 40
0.9375000000000019
 40
0.9375000000000019
 40
0.968750000000001
 40
0.968750000000001
 40
1.0
 40
1.0
 40
1.03125
 40
1.03125
 10
148.3019742946086
 20
149.9099468099706
 30
0.0
 10
148.1136640162644
 20
149.8012376002231
 30
0.0
 10
148.0243396714541
 20
149.7568083676621
 30
0.0
 10
147.854567307892
 20
149.6870285394367
 30
0.0
 10
147.7733043857542
 20
149.6615871687185
 30
0.0
 10
147.6244251131618
 20
149.6323959087719
 30
0.0
 10
147.5565526495017
 20
149.6283120321242
 30
0.0
 10
147.4322530776756
 20
149.6416820200095
 30
0.0
 10
147.3760936069716
 20
149.6594163782783
 30
0.0
 10
147.2290860639161
 20
149.7444742652063
 30
0.0
 10
147.156035426334
 20
149.8461944121931
 30
0.0
 10
147.0842386895347
 20
150.0593213650881
 30
0.0
 10
147.0661117854672
 20
150.1417064995941
 30
0.0
 10
147.042166219373
 20
150.3244156111655
 30
0.0
 10
147.0362883949457
 20
150.4237257940725
 30
0.0
 10
147.0362046094424
 20
150.6383829702472
 30
0.0
 10
147.0422111729976
 20
150.7547911179372
 30
0.0
 10
147.0660256463682
 20
150.9931958041343
 30
0.0
 10
147.0837463601188
 20
151.1162492772414
 30
0.0
 10
147.1321478991416
 20
151.3696116716927
 30
0.0
 10
147.1623369365115
 20
151.4969913735177
 30
0.0
 10
147.2349970743747
 20
151.7489941309464
 30
0.0
 10
147.2781124165668
 20
151.8754581902465
 30
0.0
 10
147.3767134653036
 20
152.1191182324314
 30
0.0
 10
147.4318764515292
 20
152.2359734524794
 30
0.0
 10
147.5557577480434
 20
152.4591243674376
 30
0.0
 10
147.6251104495707
 20
152.565944936806
 30
0.0
 10
147.7733907071386
 20
152.7587983943021
 30
0.0
 10
147.8528642945835
 20
152.8460740729253
 30
0.0
 10
148.0238835264419
 20
153.0011894944904
 30
0.0
 10
148.114513122502
 20
153.0678336143154
 30
0.0
 10
148.392730826797
 20
153.2286169877402
 30
0.0
 10
148.5928913827925
 20
153.2860259274422
 30
0.0
 10
148.8819636813016
 20
153.2918408345357
 30
0.0
 10
148.9780937812897
 20
153.2805770537717
 30
0.0
 10
149.1596877444697
 20
153.2338808559865
 30
0.0
 10
149.2460566907874
 20
153.1986449200735
 30
0.0
 10
149.4895064768702
 20
153.0581213240036
 30
0.0
 10
149.6246686506394
 20
152.9216074482925
 30
0.0
 10
149.7666704278498
 20
152.6658415300159
 30
0.0
 10
149.8027874810278
 20
152.5740592671304
 30
0.0
 10
149.8518415993716
 20
152.3782211468417
 30
0.0
 10
149.8646630208127
 20
152.2727677689664
 30
0.0
 10
149.8646837760921
 20
152.0575178108882
 30
0.0
 10
149.8523090519755
 20
151.9475610254479
 30
0.0
 10
149.8032187027439
 20
151.7227290578705
 30
0.0
 10
149.7663073245469
 20
151.6083310445956
 30
0.0
 10
149.625635435896
 20
151.2718426678792
 30
0.0
 10
149.4887385152607
 20
151.0490366809175
 30
0.0
 10
149.2471763929401
 20
150.7394292521352
 30
0.0
 10
149.1591044463627
 20
150.6383229253118
 30
0.0
 10
148.9774040388736
 20
150.4485504384827
 30
0.0
 10
148.8834363719839
 20
150.3592361632944
 30
0.0
 10
148.6903344724146
 20
150.1909943002327
 30
0.0
 10
148.5911923087167
 20
150.1122831702324
 30
0.0
 10
148.3976088994766
 20
149.9722974077337
 30
0.0
 10
148.3019742946086
 20
149.9099468099706
 30
0.0
 10
148.1136640162644
 20
149.8012376002231
 30
0.0
  0
ENDSEC
  0
SECTION
  2
OBJECTS
  0
DICTIONARY
  5
C
330
0
100
AcDbDictionary
281
     1
  3
ACAD_GROUP
350
D
  3
ACAD_IMAGE_DICT
350
45
  3
ACAD_LAYOUT
350
1A
  3
ACAD_MLINESTYLE
350
17
  3
ACAD_PLOTSETTINGS
350
19
  3
ACAD_PLOTSTYLENAME
350
E
  0
IMAGEDEF_REACTOR
  5
48
330
47
100
AcDbRasterImageDefReactor
 90
        2
330
47
  0
DICTIONARY
  5
D
102
{ACAD_REACTORS
330
C
102
}
330
C
100
AcDbDictionary
281
     1
  0
DICTIONARY
  5
45
102
{ACAD_REACTORS
330
C
102
}
330
C
100
AcDbDictionary
281
     1
  3
J:\Ingenierie\HOWIT\Prototype-2013\Plans\dxf11CD.bmp
350
46
  0
DICTIONARY
  5
1A
102
{ACAD_REACTORS
330
C
102
}
330
C
100
AcDbDictionary
281
     1
  3
Layout1
350
1E
  3
Layout2
350
26
  3
Model
350
22
  0
DICTIONARY
  5
17
102
{ACAD_REACTORS
330
C
102
}
330
C
100
AcDbDictionary
281
     1
  3
Standard
350
18
  0
DICTIONARY
  5
19
102
{ACAD_REACTORS
330
C
102
}
330
C
100
AcDbDictionary
281
     1
  0
ACDBDICTIONARYWDFLT
  5
E
102
{ACAD_REACTORS
330
C
102
}
330
C
100
AcDbDictionary
281
     1
  3
Normal
350
F
100
AcDbDictionaryWithDefault
340
F
  0
IMAGEDEF
  5
46
102
{ACAD_REACTORS
330
45
330
48
102
}
330
45
100
AcDbRasterImageDef
 90
        0
  1
J:\Ingenierie\HOWIT\Prototype-2013\Plans\dxf11CD.bmp
 10
400.0
 20
420.0
 11
0.2645502645502645
 21
0.2645502645502645
280
     1
281
     3
  0
LAYOUT
  5
1E
102
{ACAD_REACTORS
330
1A
102
}
330
1A
100
AcDbPlotSettings
  1

  2
none_device
  4

  6

 40
0.0
 41
0.0
 42
0.0
 43
0.0
 44
0.0
 45
0.0
 46
0.0
 47
0.0
 48
0.0
 49
0.0
140
0.0
141
0.0
142
1.0
143
1.0
 70
   688
 72
     0
 73
     0
 74
     5
  7

 75
    16
147
1.0
148
0.0
149
0.0
100
AcDbLayout
  1
Layout1
 70
     1
 71
     1
 10
0.0
 20
0.0
 11
420.0
 21
297.0
 12
0.0
 22
0.0
 32
0.0
 14
1.0000000000E+20
 24
1.0000000000E+20
 34
1.0000000000E+20
 15
-1.0000000000E+20
 25
-1.0000000000E+20
 35
-1.0000000000E+20
146
0.0
 13
0.0
 23
0.0
 33
0.0
 16
1.0
 26
0.0
 36
0.0
 17
0.0
 27
1.0
 37
0.0
 76
     0
330
1B
  0
LAYOUT
  5
26
102
{ACAD_REACTORS
330
1A
102
}
330
1A
100
AcDbPlotSettings
  1

  2
none_device
  4

  6

 40
0.0
 41
0.0
 42
0.0
 43
0.0
 44
0.0
 45
0.0
 46
0.0
 47
0.0
 48
0.0
 49
0.0
140
0.0
141
0.0
142
1.0
143
1.0
 70
   688
 72
     0
 73
     0
 74
     5
  7

 75
    16
147
1.0
148
0.0
149
0.0
100
AcDbLayout
  1
Layout2
 70
     1
 71
     2
 10
0.0
 20
0.0
 11
0.0
 21
0.0
 12
0.0
 22
0.0
 32
0.0
 14
0.0
 24
0.0
 34
0.0
 15
0.0
 25
0.0
 35
0.0
146
0.0
 13
0.0
 23
0.0
 33
0.0
 16
1.0
 26
0.0
 36
0.0
 17
0.0
 27
1.0
 37
0.0
 76
     0
330
23
  0
LAYOUT
  5
22
102
{ACAD_REACTORS
330
1A
102
}
330
1A
100
AcDbPlotSettings
  1

  2
none_device
  4

  6

 40
0.0
 41
0.0
 42
0.0
 43
0.0
 44
0.0
 45
0.0
 46
0.0
 47
0.0
 48
0.0
 49
0.0
140
0.0
141
0.0
142
1.0
143
1.0
 70
  1712
 72
     0
 73
     0
 74
     0
  7

 75
     0
147
1.0
148
0.0
149
0.0
100
AcDbLayout
  1
Model
 70
     1
 71
     0
 10
0.0
 20
0.0
 11
210.0
 21
297.0
 12
0.0
 22
0.0
 32
0.0
 14
0.0
 24
0.0
 34
0.0
 15
210.0
 25
297.0
 35
0.0
146
0.0
 13
0.0
 23
0.0
 33
0.0
 16
1.0
 26
0.0
 36
0.0
 17
0.0
 27
1.0
 37
0.0
 76
     0
330
1F
331
29
  0
MLINESTYLE
  5
18
102
{ACAD_REACTORS
330
17
102
}
330
17
100
AcDbMlineStyle
  2
Standard
 70
     0
  3

 62
   256
 51
90.0
 52
90.0
 71
     2
 49
0.5
 62
   256
  6
BYLAYER
 49
-0.5
 62
   256
  6
BYLAYER
  0
ACDBPLACEHOLDER
  5
F
102
{ACAD_REACTORS
330
E
102
}
330
E
  0
ENDSEC
  0
EOF
