  0
SECTION
  2
HEADER
  9
$ACADVER
  1
AC1015
  9
$ACADMAINTVER
 70
     6
  9
$DWGCODEPAGE
  3
ANSI_1252
  9
$INSBASE
 10
0.0
 20
0.0
 30
0.0
  9
$EXTMIN
 10
0.0
 20
0.0
 30
0.0
  9
$EXTMAX
 10
420.0
 20
297.0
 30
0.0
  9
$LIMMIN
 10
0.0
 20
0.0
  9
$LIMMAX
 10
420.0
 20
297.0
  9
$ORTHOMODE
 70
     0
  9
$REGENMODE
 70
     1
  9
$FILLMODE
 70
     1
  9
$QTEXTMODE
 70
     0
  9
$MIRRTEXT
 70
     1
  9
$LTSCALE
 40
1.0
  9
$ATTMODE
 70
     1
  9
$TEXTSIZE
 40
3.5
  9
$TRACEWID
 40
1.0
  9
$TEXTSTYLE
  7
Standard
  9
$CLAYER
  8
0
  9
$CELTYPE
  6
ByLayer
  9
$CECOLOR
 62
   256
  9
$CELTSCALE
 40
1.0
  9
$DISPSILH
 70
     0
  9
$DIMSCALE
 40
1.0
  9
$DIMASZ
 40
3.302
  9
$DIMEXO
 40
1.0
  9
$DIMDLI
 40
3.75
  9
$DIMRND
 40
0.0
  9
$DIMDLE
 40
0.0
  9
$DIMEXE
 40
1.0
  9
$DIMTP
 40
0.0
  9
$DIMTM
 40
0.0
  9
$DIMTXT
 40
3.5
  9
$DIMCEN
 40
2.5
  9
$DIMTSZ
 40
0.0
  9
$DIMTOL
 70
     0
  9
$DIMLIM
 70
     0
  9
$DIMTIH
 70
     1
  9
$DIMTOH
 70
     1
  9
$DIMSE1
 70
     0
  9
$DIMSE2
 70
     0
  9
$DIMTAD
 70
     1
  9
$DIMZIN
 70
     0
  9
$DIMBLK
  1

  9
$DIMASO
 70
     1
  9
$DIMSHO
 70
     1
  9
$DIMPOST
  1

  9
$DIMAPOST
  1

  9
$DIMALT
 70
     0
  9
$DIMALTD
 70
     3
  9
$DIMALTF
 40
0.0393700787
  9
$DIMLFAC
 40
10.0
  9
$DIMTOFL
 70
     1
  9
$DIMTVP
 40
0.0
  9
$DIMTIX
 70
     0
  9
$DIMSOXD
 70
     0
  9
$DIMSAH
 70
     0
  9
$DIMBLK1
  1

  9
$DIMBLK2
  1

  9
$DIMSTYLE
  2
ISO-25
  9
$DIMCLRD
 70
     0
  9
$DIMCLRE
 70
     0
  9
$DIMCLRT
 70
     0
  9
$DIMTFAC
 40
1.0
  9
$DIMGAP
 40
1.524
  9
$DIMJUST
 70
     0
  9
$DIMSD1
 70
     0
  9
$DIMSD2
 70
     0
  9
$DIMTOLJ
 70
     0
  9
$DIMTZIN
 70
     0
  9
$DIMALTZ
 70
     0
  9
$DIMALTTZ
 70
     0
  9
$DIMUPT
 70
     0
  9
$DIMDEC
 70
     3
  9
$DIMTDEC
 70
     3
  9
$DIMALTU
 70
     2
  9
$DIMALTTD
 70
     3
  9
$DIMTXSTY
  7
Standard
  9
$DIMAUNIT
 70
     0
  9
$DIMADEC
 70
     2
  9
$DIMALTRND
 40
0.0
  9
$DIMAZIN
 70
     0
  9
$DIMDSEP
 70
    44
  9
$DIMATFIT
 70
     3
  9
$DIMFRAC
 70
     0
  9
$DIMLDRBLK
  1

  9
$DIMLUNIT
 70
     2
  9
$DIMLWD
 70
    -2
  9
$DIMLWE
 70
    -2
  9
$DIMTMOVE
 70
     0
  9
$LUNITS
 70
     2
  9
$LUPREC
 70
     2
  9
$SKETCHINC
 40
1.0
  9
$FILLETRAD
 40
10.0
  9
$AUNITS
 70
     0
  9
$AUPREC
 70
     2
  9
$MENU
  1
.
  9
$ELEVATION
 40
0.0
  9
$PELEVATION
 40
0.0
  9
$THICKNESS
 40
0.0
  9
$LIMCHECK
 70
     0
  9
$CHAMFERA
 40
10.0
  9
$CHAMFERB
 40
10.0
  9
$CHAMFERC
 40
20.0
  9
$CHAMFERD
 40
0.0
  9
$SKPOLY
 70
     0
  9
$TDCREATE
 40
2456833.429903599
  9
$TDUCREATE
 40
2456833.388236933
  9
$TDUPDATE
 40
2456833.429903611
  9
$TDUUPDATE
 40
2456833.388236945
  9
$TDINDWG
 40
0.0000000116
  9
$TDUSRTIMER
 40
0.0000000116
  9
$USRTIMER
 70
     1
  9
$ANGBASE
 50
0.0
  9
$ANGDIR
 70
     0
  9
$PDMODE
 70
     0
  9
$PDSIZE
 40
-1.0
  9
$PLINEWID
 40
0.0
  9
$SPLFRAME
 70
     0
  9
$SPLINETYPE
 70
     6
  9
$SPLINESEGS
 70
     8
  9
$HANDSEED
  5
282
  9
$SURFTAB1
 70
     6
  9
$SURFTAB2
 70
     6
  9
$SURFTYPE
 70
     6
  9
$SURFU
 70
     6
  9
$SURFV
 70
     6
  9
$UCSBASE
  2

  9
$UCSNAME
  2

  9
$UCSORG
 10
0.0
 20
0.0
 30
0.0
  9
$UCSXDIR
 10
1.0
 20
0.0
 30
0.0
  9
$UCSYDIR
 10
0.0
 20
1.0
 30
0.0
  9
$UCSORTHOREF
  2

  9
$UCSORTHOVIEW
 70
     0
  9
$UCSORGTOP
 10
0.0
 20
0.0
 30
0.0
  9
$UCSORGBOTTOM
 10
0.0
 20
0.0
 30
0.0
  9
$UCSORGLEFT
 10
0.0
 20
0.0
 30
0.0
  9
$UCSORGRIGHT
 10
0.0
 20
0.0
 30
0.0
  9
$UCSORGFRONT
 10
0.0
 20
0.0
 30
0.0
  9
$UCSORGBACK
 10
0.0
 20
0.0
 30
0.0
  9
$PUCSBASE
  2

  9
$PUCSNAME
  2

  9
$PUCSORG
 10
0.0
 20
0.0
 30
0.0
  9
$PUCSXDIR
 10
1.0
 20
0.0
 30
0.0
  9
$PUCSYDIR
 10
0.0
 20
1.0
 30
0.0
  9
$PUCSORTHOREF
  2

  9
$PUCSORTHOVIEW
 70
     0
  9
$PUCSORGTOP
 10
0.0
 20
0.0
 30
0.0
  9
$PUCSORGBOTTOM
 10
0.0
 20
0.0
 30
0.0
  9
$PUCSORGLEFT
 10
0.0
 20
0.0
 30
0.0
  9
$PUCSORGRIGHT
 10
0.0
 20
0.0
 30
0.0
  9
$PUCSORGFRONT
 10
0.0
 20
0.0
 30
0.0
  9
$PUCSORGBACK
 10
0.0
 20
0.0
 30
0.0
  9
$USERI1
 70
     0
  9
$USERI2
 70
     0
  9
$USERI3
 70
     0
  9
$USERI4
 70
     0
  9
$USERI5
 70
     0
  9
$USERR1
 40
0.0
  9
$USERR2
 40
0.0
  9
$USERR3
 40
0.0
  9
$USERR4
 40
0.0
  9
$USERR5
 40
0.0
  9
$WORLDVIEW
 70
     1
  9
$SHADEDGE
 70
     3
  9
$SHADEDIF
 70
    70
  9
$TILEMODE
 70
     1
  9
$MAXACTVP
 70
    64
  9
$PINSBASE
 10
0.0
 20
0.0
 30
0.0
  9
$PLIMCHECK
 70
     0
  9
$PEXTMIN
 10
1.0000000000E+20
 20
1.0000000000E+20
 30
1.0000000000E+20
  9
$PEXTMAX
 10
-1.0000000000E+20
 20
-1.0000000000E+20
 30
-1.0000000000E+20
  9
$PLIMMIN
 10
0.0
 20
0.0
  9
$PLIMMAX
 10
420.0
 20
297.0
  9
$UNITMODE
 70
     0
  9
$VISRETAIN
 70
     1
  9
$PLINEGEN
 70
     0
  9
$PSLTSCALE
 70
     1
  9
$TREEDEPTH
 70
  3020
  9
$CMLSTYLE
  2
Standard
  9
$CMLJUST
 70
     0
  9
$CMLSCALE
 40
20.0
  9
$PROXYGRAPHICS
 70
     1
  9
$MEASUREMENT
 70
     1
  9
$CELWEIGHT
370
    -1
  9
$ENDCAPS
280
     0
  9
$JOINSTYLE
280
     0
  9
$LWDISPLAY
290
     1
  9
$INSUNITS
 70
     4
  9
$HYPERLINKBASE
  1

  9
$STYLESHEET
  1

  9
$XEDIT
290
     1
  9
$CEPSNTYPE
380
     0
  9
$PSTYLEMODE
290
     1
  9
$FINGERPRINTGUID
  2
{B77194F8-DD00-4813-966E-FE6456FFC3EA}
  9
$VERSIONGUID
  2
{FAEB1C32-E019-11D5-929B-00C0DF256EC4}
  9
$EXTNAMES
290
     1
  9
$PSVPSCALE
 40
0.0
  9
$OLESTARTUP
290
     0
  0
ENDSEC
  0
SECTION
  2
CLASSES
  0
CLASS
  1
ACDBDICTIONARYWDFLT
  2
AcDbDictionaryWithDefault
  3
ObjectDBX Classes
 90
        0
280
     0
281
     0
  0
CLASS
  1
VISUALSTYLE
  2
AcDbVisualStyle
  3
ObjectDBX Classes
 90
     4095
280
     0
281
     0
  0
CLASS
  1
MATERIAL
  2
AcDbMaterial
  3
ObjectDBX Classes
 90
     1153
280
     0
281
     0
  0
CLASS
  1
IMAGEDEF
  2
AcDbRasterImageDef
  3
ISM
 90
        0
280
     0
281
     0
  0
CLASS
  1
IMAGE
  2
AcDbRasterImage
  3
ISM
 90
      127
280
     0
281
     1
  0
CLASS
  1
IMAGEDEF_REACTOR
  2
AcDbRasterImageDefReactor
  3
ISM
 90
        1
280
     0
281
     0
  0
CLASS
  1
ACDBPLACEHOLDER
  2
AcDbPlaceHolder
  3
ObjectDBX Classes
 90
        0
280
     0
281
     0
  0
CLASS
  1
LAYOUT
  2
AcDbLayout
  3
ObjectDBX Classes
 90
        0
280
     0
281
     0
  0
ENDSEC
  0
SECTION
  2
TABLES
  0
TABLE
  2
VPORT
  5
8
330
0
100
AcDbSymbolTable
 70
     1
  0
VPORT
  5
29
330
8
100
AcDbSymbolTableRecord
100
AcDbViewportTableRecord
  2
*Active
 70
     0
 10
0.0
 20
0.0
 11
1.0
 21
1.0
 12
210.0
 22
148.5
 13
0.0
 23
0.0
 14
10.0
 24
10.0
 15
10.0
 25
10.0
 16
0.0
 26
0.0
 36
1.0
 17
0.0
 27
0.0
 37
0.0
 40
297.0
 41
1.4141414141
 42
50.0
 43
0.0
 44
0.0
 50
0.0
 51
0.0
 71
     0
 72
  2000
 73
     1
 74
     3
 75
     0
 76
     0
 77
     0
 78
     0
281
     0
 65
     1
110
0.0
120
0.0
130
0.0
111
1.0
121
0.0
131
0.0
112
0.0
122
1.0
132
0.0
 79
     0
146
0.0
  0
ENDTAB
  0
TABLE
  2
LTYPE
  5
5
330
0
100
AcDbSymbolTable
 70
     6
  0
LTYPE
  5
14
330
5
100
AcDbSymbolTableRecord
100
AcDbLinetypeTableRecord
  2
ByBlock
 70
     0
  3

 72
    65
 73
     0
 40
0.0
  0
LTYPE
  5
15
330
5
100
AcDbSymbolTableRecord
100
AcDbLinetypeTableRecord
  2
ByLayer
 70
     0
  3

 72
    65
 73
     0
 40
0.0
  0
LTYPE
  5
16
330
5
100
AcDbSymbolTableRecord
100
AcDbLinetypeTableRecord
  2
Continuous
 70
     0
  3
Solid line
 72
    65
 73
     0
 40
0.0
  0
LTYPE
  5
3F
330
5
100
AcDbSymbolTableRecord
100
AcDbLinetypeTableRecord
  2
HIDDEN
 70
     0
  3
Hidden __ __ __ __ __ __ __ __ __ __ __ __ __ __
 72
    65
 73
     2
 40
1.905
 49
1.27
 74
     0
 49
-0.635
 74
     0
  0
LTYPE
  5
40
330
5
100
AcDbSymbolTableRecord
100
AcDbLinetypeTableRecord
  2
PHANTOM
 70
     0
  3
Phantom ______  __  __  ______  __  __  ______
 72
    65
 73
     6
 40
12.7
 49
6.35
 74
     0
 49
-1.27
 74
     0
 49
1.27
 74
     0
 49
-1.27
 74
     0
 49
1.27
 74
     0
 49
-1.27
 74
     0
  0
LTYPE
  5
41
330
5
100
AcDbSymbolTableRecord
100
AcDbLinetypeTableRecord
  2
CENTER
 70
     0
  3
Center ____ _ ____ _ ____ _ ____ _ ____ _ ____
 72
    65
 73
     4
 40
10.16
 49
6.35
 74
     0
 49
-1.27
 74
     0
 49
1.27
 74
     0
 49
-1.27
 74
     0
  0
LTYPE
  5
42
330
5
100
AcDbSymbolTableRecord
100
AcDbLinetypeTableRecord
  2
CENTERX2
 70
     0
  3
Center (2x) ________  __  ________  __  _____
 72
    65
 73
     4
 40
20.32
 49
12.7
 74
     0
 49
-2.54
 74
     0
 49
2.54
 74
     0
 49
-2.54
 74
     0
  0
LTYPE
  5
43
330
5
100
AcDbSymbolTableRecord
100
AcDbLinetypeTableRecord
  2
DOT2
 70
     0
  3
Dot (.5x) ........................................
 72
    65
 73
     2
 40
0.635
 49
0.0
 74
     0
 49
-0.635
 74
     0
  0
ENDTAB
  0
TABLE
  2
LAYER
  5
2
330
0
100
AcDbSymbolTable
 70
     2
  0
LAYER
  5
10
330
2
100
AcDbSymbolTableRecord
100
AcDbLayerTableRecord
  2
0
 70
     0
 62
     7
  6
Continuous
370
    -3
390
F
  0
LAYER
  5
44
330
2
100
AcDbSymbolTableRecord
100
AcDbLayerTableRecord
  2
FORMAT
 70
     0
 62
     7
  6
Continuous
370
    -3
390
F
  0
ENDTAB
  0
TABLE
  2
STYLE
  5
3
330
0
100
AcDbSymbolTable
 70
     6
  0
STYLE
  5
11
330
3
100
AcDbSymbolTableRecord
100
AcDbTextStyleTableRecord
  2
Standard
 70
     0
 40
0.0
 41
1.0
 50
0.0
 71
     0
 42
2.5
  3
txt
  4

  0
STYLE
  5
6D
330
3
100
AcDbSymbolTableRecord
100
AcDbTextStyleTableRecord
  2
SLDTEXTSTYLE0
 70
     0
 40
0.0
 41
0.75
 50
0.0
 71
     0
 42
0.2
  3
TXT
  4

  0
STYLE
  5
6F
330
3
100
AcDbSymbolTableRecord
100
AcDbTextStyleTableRecord
  2
SLDTEXTSTYLE1
 70
     0
 40
0.0
 41
0.6923076923
 50
0.0
 71
     0
 42
0.2
  3
TXT
  4

  0
STYLE
  5
84
330
3
100
AcDbSymbolTableRecord
100
AcDbTextStyleTableRecord
  2
SLDTEXTSTYLE2
 70
     0
 40
0.0
 41
0.6730769231
 50
0.0
 71
     0
 42
0.2
  3
TXT
  4

  0
STYLE
  5
88
330
3
100
AcDbSymbolTableRecord
100
AcDbTextStyleTableRecord
  2
SLDTEXTSTYLE3
 70
     0
 40
0.0
 41
0.7
 50
0.0
 71
     0
 42
0.2
  3
TXT
  4

  0
STYLE
  5
A5
330
3
100
AcDbSymbolTableRecord
100
AcDbTextStyleTableRecord
  2
SLDTEXTSTYLE4
 70
     0
 40
0.0
 41
0.6875
 50
0.0
 71
     0
 42
0.2
  3
TXT
  4

  0
ENDTAB
  0
TABLE
  2
VIEW
  5
6
330
0
100
AcDbSymbolTable
 70
     0
  0
ENDTAB
  0
TABLE
  2
UCS
  5
7
330
0
100
AcDbSymbolTable
 70
     0
  0
ENDTAB
  0
TABLE
  2
APPID
  5
9
330
0
100
AcDbSymbolTable
 70
     1
  0
APPID
  5
12
330
9
100
AcDbSymbolTableRecord
100
AcDbRegAppTableRecord
  2
ACAD
 70
     0
  0
ENDTAB
  0
TABLE
  2
DIMSTYLE
  5
A
330
0
100
AcDbSymbolTable
 70
     6
100
AcDbDimStyleTable
  0
DIMSTYLE
105
27
330
A
100
AcDbSymbolTableRecord
100
AcDbDimStyleTableRecord
  2
ISO-25
 70
     0
 41
2.5
 42
0.625
 43
3.75
 44
1.25
 73
     0
 74
     0
 77
     1
 78
     8
140
2.5
141
2.5
143
0.0393700787
147
0.625
171
     3
172
     1
178
     0
271
     2
272
     2
274
     3
278
    44
283
     0
284
     8
340
11
  0
DIMSTYLE
105
E2
102
{ACAD_REACTORS
330
E1
330
EE
102
}
330
A
100
AcDbSymbolTableRecord
100
AcDbDimStyleTableRecord
  2
SLDDIMSTYLE0
 70
     0
 41
3.302
 44
0.0
 45
0.000000001
 73
     0
 74
     0
 77
     1
 78
    12
 79
     3
140
3.5
144
10.0
147
0.875
172
     1
173
     1
178
     0
271
     2
272
     2
276
     2
284
    12
289
     0
340
6D
  0
DIMSTYLE
105
102
330
A
100
AcDbSymbolTableRecord
100
AcDbDimStyleTableRecord
  2
SLDDIMSTYLE1
 70
     0
 41
1.016
 44
0.0
 45
0.000000001
140
0.0
146
1.016
147
0.0
173
     1
178
     0
271
     0
272
     0
276
     2
340
11
341
103
343
103
344
103
  0
DIMSTYLE
105
1F1
102
{ACAD_REACTORS
330
1F0
330
1FB
102
}
330
A
100
AcDbSymbolTableRecord
100
AcDbDimStyleTableRecord
  2
SLDDIMSTYLE2
 70
     0
 41
3.302
 44
0.0
 45
0.000000001
 73
     0
 74
     0
 77
     1
 78
    12
 79
     3
140
3.5
144
10.0
147
0.875
173
     1
178
     0
271
     2
272
     2
276
     2
284
    12
340
6D
  0
DIMSTYLE
105
243
102
{ACAD_REACTORS
330
242
102
}
330
A
100
AcDbSymbolTableRecord
100
AcDbDimStyleTableRecord
  2
SLDDIMSTYLE3
 70
     0
 41
3.302
 44
0.0
 45
0.000000001
 73
     0
 74
     0
 77
     1
 78
    12
 79
     3
140
3.5
144
4.0
147
0.875
172
     1
173
     1
178
     0
271
     2
272
     2
276
     2
284
    12
289
     0
340
6D
  0
DIMSTYLE
105
264
102
{ACAD_REACTORS
330
263
102
}
330
A
100
AcDbSymbolTableRecord
100
AcDbDimStyleTableRecord
  2
SLDDIMSTYLE4
 70
     0
 41
3.302
 44
0.0
 45
0.000000001
 78
    12
 79
     3
140
3.5
144
4.0
147
0.875
172
     1
173
     1
178
     0
271
     2
272
     2
276
     2
284
    12
289
     0
340
6D
  0
ENDTAB
  0
TABLE
  2
BLOCK_RECORD
  5
1
330
0
100
AcDbSymbolTable
 70
    25
  0
BLOCK_RECORD
  5
1F
330
1
100
AcDbSymbolTableRecord
100
AcDbBlockTableRecord
  2
*Model_Space
340
22
  0
BLOCK_RECORD
  5
1B
330
1
100
AcDbSymbolTableRecord
100
AcDbBlockTableRecord
  2
*Paper_Space
340
1E
  0
BLOCK_RECORD
  5
23
330
1
100
AcDbSymbolTableRecord
100
AcDbBlockTableRecord
  2
*Paper_Space0
340
26
  0
BLOCK_RECORD
  5
6A
330
1
100
AcDbSymbolTableRecord
100
AcDbBlockTableRecord
  2
SW_NOTE_0
340
0
102
{BLKREFS
331
78
102
}
  0
BLOCK_RECORD
  5
79
330
1
100
AcDbSymbolTableRecord
100
AcDbBlockTableRecord
  2
SW_NOTE_1
340
0
102
{BLKREFS
331
7E
102
}
  0
BLOCK_RECORD
  5
93
330
1
100
AcDbSymbolTableRecord
100
AcDbBlockTableRecord
  2
SW_NOTE_2
340
0
102
{BLKREFS
331
98
102
}
  0
BLOCK_RECORD
  5
9F
330
1
100
AcDbSymbolTableRecord
100
AcDbBlockTableRecord
  2
SW_NOTE_3
340
0
102
{BLKREFS
331
A9
102
}
  0
BLOCK_RECORD
  5
AA
330
1
100
AcDbSymbolTableRecord
100
AcDbBlockTableRecord
  2
SW_TABLEANNOTATION_0
340
0
102
{BLKREFS
331
CF
102
}
  0
BLOCK_RECORD
  5
E3
330
1
100
AcDbSymbolTableRecord
100
AcDbBlockTableRecord
  2
*D6
340
0
  0
BLOCK_RECORD
  5
EF
330
1
100
AcDbSymbolTableRecord
100
AcDbBlockTableRecord
  2
*D7
340
0
  0
BLOCK_RECORD
  5
FC
330
1
100
AcDbSymbolTableRecord
100
AcDbBlockTableRecord
  2
SW_NOTE_4
340
0
102
{BLKREFS
331
101
102
}
  0
BLOCK_RECORD
  5
103
330
1
100
AcDbSymbolTableRecord
100
AcDbBlockTableRecord
  2
_DOT
340
0
  0
BLOCK_RECORD
  5
126
330
1
100
AcDbSymbolTableRecord
100
AcDbBlockTableRecord
  2
SW_DATUMTAG_0
340
0
102
{BLKREFS
331
131
102
}
  0
BLOCK_RECORD
  5
132
330
1
100
AcDbSymbolTableRecord
100
AcDbBlockTableRecord
  2
SW_DATUMTAG_1
340
0
102
{BLKREFS
331
13D
102
}
  0
BLOCK_RECORD
  5
1F2
330
1
100
AcDbSymbolTableRecord
100
AcDbBlockTableRecord
  2
*D12
340
0
  0
BLOCK_RECORD
  5
1FC
330
1
100
AcDbSymbolTableRecord
100
AcDbBlockTableRecord
  2
*D13
340
0
  0
BLOCK_RECORD
  5
206
330
1
100
AcDbSymbolTableRecord
100
AcDbBlockTableRecord
  2
SW_NOTE_5
340
0
102
{BLKREFS
331
20B
102
}
  0
BLOCK_RECORD
  5
20D
330
1
100
AcDbSymbolTableRecord
100
AcDbBlockTableRecord
  2
SW_NOTE_6
340
0
102
{BLKREFS
331
212
102
}
  0
BLOCK_RECORD
  5
214
330
1
100
AcDbSymbolTableRecord
100
AcDbBlockTableRecord
  2
SW_NOTE_7
340
0
102
{BLKREFS
331
219
102
}
  0
BLOCK_RECORD
  5
21B
330
1
100
AcDbSymbolTableRecord
100
AcDbBlockTableRecord
  2
SW_NOTE_8
340
0
102
{BLKREFS
331
220
102
}
  0
BLOCK_RECORD
  5
222
330
1
100
AcDbSymbolTableRecord
100
AcDbBlockTableRecord
  2
SW_NOTE_9
340
0
102
{BLKREFS
331
227
102
}
  0
BLOCK_RECORD
  5
229
330
1
100
AcDbSymbolTableRecord
100
AcDbBlockTableRecord
  2
SW_DATUMTAG_2
340
0
102
{BLKREFS
331
234
102
}
  0
BLOCK_RECORD
  5
244
330
1
100
AcDbSymbolTableRecord
100
AcDbBlockTableRecord
  2
*D20
340
0
  0
BLOCK_RECORD
  5
24E
330
1
100
AcDbSymbolTableRecord
100
AcDbBlockTableRecord
  2
SW_NOTE_10
340
0
102
{BLKREFS
331
253
102
}
  0
BLOCK_RECORD
  5
265
330
1
100
AcDbSymbolTableRecord
100
AcDbBlockTableRecord
  2
*D22
340
0
  0
BLOCK_RECORD
  5
271
330
1
100
AcDbSymbolTableRecord
100
AcDbBlockTableRecord
  2
SW_NOTE_11
340
0
102
{BLKREFS
331
276
102
}
  0
BLOCK_RECORD
  5
277
330
1
100
AcDbSymbolTableRecord
100
AcDbBlockTableRecord
  2
SW_DATUMTAG_3
340
0
102
{BLKREFS
331
281
102
}
  0
ENDTAB
  0
ENDSEC
  0
SECTION
  2
BLOCKS
  0
BLOCK
  5
20
330
1F
100
AcDbEntity
  8
0
100
AcDbBlockBegin
  2
*Model_Space
 70
     0
 10
0.0
 20
0.0
 30
0.0
  3
*Model_Space
  1

  0
ENDBLK
  5
21
330
1F
100
AcDbEntity
  8
0
100
AcDbBlockEnd
  0
BLOCK
  5
1C
330
1B
100
AcDbEntity
 67
     1
  8
0
100
AcDbBlockBegin
  2
*Paper_Space
 70
     0
 10
0.0
 20
0.0
 30
0.0
  3
*Paper_Space
  1

  0
ENDBLK
  5
1D
330
1B
100
AcDbEntity
 67
     1
  8
0
100
AcDbBlockEnd
  0
BLOCK
  5
24
330
23
100
AcDbEntity
  8
0
100
AcDbBlockBegin
  2
*Paper_Space0
 70
     0
 10
0.0
 20
0.0
 30
0.0
  3
*Paper_Space0
  1

  0
ENDBLK
  5
25
330
23
100
AcDbEntity
  8
0
100
AcDbBlockEnd
  0
BLOCK
  5
6B
330
6A
100
AcDbEntity
  8
0
100
AcDbBlockBegin
  2
SW_NOTE_0
 70
     0
 10
0.0
 20
0.0
 30
0.0
  3
SW_NOTE_0
  1

  0
MTEXT
  5
6E
330
6A
100
AcDbEntity
  8
0
  6
Continuous
 62
     0
370
     0
100
AcDbMText
 10
0.0
 20
4.5117370892
 30
0.0
 40
3.5
 41
0.0
 71
     1
 72
     1
  1
Note :
  7
SLDTEXTSTYLE0
 73
     1
 44
1.0
  0
MTEXT
  5
70
330
6A
100
AcDbEntity
  8
0
  6
Continuous
 62
     0
370
     0
100
AcDbMText
 10
0.0
 20
-0.0139574413
 30
0.0
 40
3.5
 41
0.0
 71
     1
 72
     1
  1
- Le trou diam 4 (réf. D) de l'axe pale
  7
SLDTEXTSTYLE1
 73
     1
 44
1.0
  0
MTEXT
  5
71
330
6A
100
AcDbEntity
  8
0
  6
Continuous
 62
     0
370
     0
100
AcDbMText
 10
1.3125
 20
-4.5396519717
 30
0.0
 40
3.5
 41
0.0
 71
     1
 72
     1
  1
doit être
  7
SLDTEXTSTYLE0
 73
     1
 44
1.0
  0
MTEXT
  5
72
330
6A
100
AcDbEntity
  8
0
  6
Continuous
 62
     0
370
     0
100
AcDbMText
 10
21.7048618942
 20
-4.5396519717
 30
0.0
 40
3.5
 41
0.0
 71
     1
 72
     1
  1
impérativement soudé
  7
SLDTEXTSTYLE0
 73
     1
 44
1.0
  0
MTEXT
  5
73
330
6A
100
AcDbEntity
  8
0
  6
Continuous
 62
     0
370
     0
100
AcDbMText
 10
74.3215307593
 20
-4.5396519717
 30
0.0
 40
3.5
 41
0.0
 71
     1
 72
     1
  1
dans l'axe de pale (réf. A)
  7
SLDTEXTSTYLE0
 73
     1
 44
1.0
  0
MTEXT
  5
74
330
6A
100
AcDbEntity
  8
0
  6
Continuous
 62
     0
370
     0
100
AcDbMText
 10
0.0
 20
-13.5910410326
 30
0.0
 40
3.5
 41
0.0
 71
     1
 72
     1
  1
- La pièce 3 est une tole d'aluminium de 1mm d'épaisseur
  7
SLDTEXTSTYLE0
 73
     1
 44
1.0
  0
MTEXT
  5
75
330
6A
100
AcDbEntity
  8
0
  6
Continuous
 62
     0
370
     0
100
AcDbMText
 10
1.3125
 20
-18.1167355631
 30
0.0
 40
3.5
 41
0.0
 71
     1
 72
     1
  1
si possible enroulée autour et soudée sur les pièces 1
  7
SLDTEXTSTYLE0
 73
     1
 44
1.0
  0
MTEXT
  5
76
330
6A
100
AcDbEntity
  8
0
  6
Continuous
 62
     0
370
     0
100
AcDbMText
 10
1.3125
 20
-22.6424300935
 30
0.0
 40
3.5
 41
0.0
 71
     1
 72
     1
  1
et 2 pour la jonction (soudure lisse)
  7
SLDTEXTSTYLE0
 73
     1
 44
1.0
  0
MTEXT
  5
77
330
6A
100
AcDbEntity
  8
0
  6
Continuous
 62
     0
370
     0
100
AcDbMText
 10
1.3125
 20
-27.168124624
 30
0.0
 40
3.5
 41
0.0
 71
     1
 72
     1
  1
(si nécessité d'épaissir, nous contacter)
  7
SLDTEXTSTYLE0
 73
     1
 44
1.0
  0
ENDBLK
  5
6C
330
6A
100
AcDbEntity
  8
0
100
AcDbBlockEnd
  0
BLOCK
  5
7A
330
79
100
AcDbEntity
  8
0
100
AcDbBlockBegin
  2
SW_NOTE_1
 70
     0
 10
0.0
 20
0.0
 30
0.0
  3
SW_NOTE_1
  1

  0
MTEXT
  5
7C
330
79
100
AcDbEntity
  8
0
  6
Continuous
 62
     0
370
     0
100
AcDbMText
 10
-3.4106583948
 20
0.0
 30
0.0
 40
2.6458333333
 41
0.0
 71
     1
 72
     1
  1
Copyright © 2014 Théophile BRESSON, AeroSeeD SAS, Vincent MAUVADY, David VANTYGHEM, Pascal CORRADINI
  7
SLDTEXTSTYLE0
 11
-3.491481338843133E-15
 21
1.0
 31
0.0
 73
     1
 44
1.0
  0
MTEXT
  5
7D
330
79
100
AcDbEntity
  8
0
  6
Continuous
 62
     0
370
     0
100
AcDbMText
 10
0.1171193403
 20
0.0
 30
0.0
 40
2.6458333333
 41
0.0
 71
     1
 72
     1
  1
Licensed under TAPR Open Hardware Licence (www.tapr.org/OHL)
  7
SLDTEXTSTYLE0
 11
-3.491481338843133E-15
 21
1.0
 31
0.0
 73
     1
 44
1.0
  0
ENDBLK
  5
7B
330
79
100
AcDbEntity
  8
0
100
AcDbBlockEnd
  0
BLOCK
  5
94
330
93
100
AcDbEntity
  8
0
100
AcDbBlockBegin
  2
SW_NOTE_2
 70
     0
 10
0.0
 20
0.0
 30
0.0
  3
SW_NOTE_2
  1

  0
MTEXT
  5
96
330
93
100
AcDbEntity
  8
0
  6
Continuous
 62
     0
370
     0
100
AcDbMText
 10
0.0
 20
1.9336016097
 30
0.0
 40
1.5
 41
0.0
 71
     1
 72
     1
  1
CASSER LES
  7
SLDTEXTSTYLE0
 73
     1
 44
1.0
  0
MTEXT
  5
97
330
93
100
AcDbEntity
  8
0
  6
Continuous
 62
     0
370
     0
100
AcDbMText
 10
0.0
 20
-0.5663983345
 30
0.0
 40
1.5
 41
0.0
 71
     1
 72
     1
  1
ANGLES VIFS
  7
SLDTEXTSTYLE0
 73
     1
 44
1.0
  0
ENDBLK
  5
95
330
93
100
AcDbEntity
  8
0
100
AcDbBlockEnd
  0
BLOCK
  5
A0
330
9F
100
AcDbEntity
  8
0
100
AcDbBlockBegin
  2
SW_NOTE_3
 70
     0
 10
0.0
 20
0.0
 30
0.0
  3
SW_NOTE_3
  1

  0
MTEXT
  5
A2
330
9F
100
AcDbEntity
  8
0
  6
Continuous
 62
     0
370
     0
100
AcDbMText
 10
0.0
 20
1.9336016097
 30
0.0
 40
1.5
 41
0.0
 71
     1
 72
     1
  1
SAUF INDICATION CONTRAIRE:
  7
SLDTEXTSTYLE0
 73
     1
 44
1.0
  0
MTEXT
  5
A3
330
9F
100
AcDbEntity
  8
0
  6
Continuous
 62
     0
370
     0
100
AcDbMText
 10
0.0
 20
-0.5663983345
 30
0.0
 40
1.5
 41
0.0
 71
     1
 72
     1
  1
LES COTES SONT EN MILLIMETRES
  7
SLDTEXTSTYLE0
 73
     1
 44
1.0
  0
MTEXT
  5
A4
330
9F
100
AcDbEntity
  8
0
  6
Continuous
 62
     0
370
     0
100
AcDbMText
 10
0.0
 20
-3.0663982786
 30
0.0
 40
1.5
 41
0.0
 71
     1
 72
     1
  1
ETAT DE SURFACE:
  7
SLDTEXTSTYLE0
 73
     1
 44
1.0
  0
MTEXT
  5
A6
330
9F
100
AcDbEntity
  8
0
  6
Continuous
 62
     0
370
     0
100
AcDbMText
 10
17.3330735415
 20
-3.0663982786
 30
0.0
 40
1.5
 41
0.0
 71
     1
 72
     1
  1
Ra = 3.2
  7
SLDTEXTSTYLE4
 73
     1
 44
1.0
  0
MTEXT
  5
A7
330
9F
100
AcDbEntity
  8
0
  6
Continuous
 62
     0
370
     0
100
AcDbMText
 10
0.0
 20
-5.5663982227
 30
0.0
 40
1.5
 41
0.0
 71
     1
 72
     1
  1
TOLERANCES:
  7
SLDTEXTSTYLE0
 73
     1
 44
1.0
  0
MTEXT
  5
A8
330
9F
100
AcDbEntity
  8
0
  6
Continuous
 62
     0
370
     0
100
AcDbMText
 10
1.6624999698
 20
-8.0663981668
 30
0.0
 40
1.5
 41
0.0
 71
     1
 72
     1
  1
Iso 2768 mK
  7
SLDTEXTSTYLE0
 73
     1
 44
1.0
  0
ENDBLK
  5
A1
330
9F
100
AcDbEntity
  8
0
100
AcDbBlockEnd
  0
BLOCK
  5
AB
330
AA
100
AcDbEntity
  8
0
100
AcDbBlockBegin
  2
SW_TABLEANNOTATION_0
 70
     0
 10
0.0
 20
0.0
 30
0.0
  3
SW_TABLEANNOTATION_0
  1

  0
LINE
  5
AD
330
AA
100
AcDbEntity
  8
0
  6
Continuous
 62
     0
370
     0
100
AcDbLine
 10
0.0
 20
0.0
 30
0.0
 11
0.0
 21
-32.359473593
 31
0.0
  0
LINE
  5
AE
330
AA
100
AcDbEntity
  8
0
  6
Continuous
 62
     0
370
     0
100
AcDbLine
 10
0.0
 20
-32.359473593
 30
0.0
 11
186.899546053
 21
-32.359473593
 31
0.0
  0
LINE
  5
AF
330
AA
100
AcDbEntity
  8
0
  6
Continuous
 62
     0
370
     0
100
AcDbLine
 10
186.899546053
 20
-32.359473593
 30
0.0
 11
186.899546053
 21
0.0
 31
0.0
  0
LINE
  5
B0
330
AA
100
AcDbEntity
  8
0
  6
Continuous
 62
     0
370
     0
100
AcDbLine
 10
186.899546053
 20
0.0
 30
0.0
 11
0.0
 21
0.0
 31
0.0
  0
LINE
  5
B1
330
AA
100
AcDbEntity
  8
0
  6
Continuous
 62
     0
370
     0
100
AcDbLine
 10
36.9192750829
 20
0.0
 30
0.0
 11
36.9192750829
 21
-6.4908392902
 31
0.0
  0
LINE
  5
B2
330
AA
100
AcDbEntity
  8
0
  6
Continuous
 62
     0
370
     0
100
AcDbLine
 10
108.3944952577
 20
0.0
 30
0.0
 11
108.3944952577
 21
-6.4908392902
 31
0.0
  0
LINE
  5
B3
330
AA
100
AcDbEntity
  8
0
  6
Continuous
 62
     0
370
     0
100
AcDbLine
 10
167.8746906758
 20
0.0
 30
0.0
 11
167.8746906758
 21
-6.4908392902
 31
0.0
  0
LINE
  5
B4
330
AA
100
AcDbEntity
  8
0
  6
Continuous
 62
     0
370
     0
100
AcDbLine
 10
36.9192750829
 20
-6.4908392902
 30
0.0
 11
36.9192750829
 21
-32.359473593
 31
0.0
  0
LINE
  5
B5
330
AA
100
AcDbEntity
  8
0
  6
Continuous
 62
     0
370
     0
100
AcDbLine
 10
108.3944952577
 20
-6.4908392902
 30
0.0
 11
108.3944952577
 21
-32.359473593
 31
0.0
  0
LINE
  5
B6
330
AA
100
AcDbEntity
  8
0
  6
Continuous
 62
     0
370
     0
100
AcDbLine
 10
167.8746906758
 20
-6.4908392902
 30
0.0
 11
167.8746906758
 21
-32.359473593
 31
0.0
  0
LINE
  5
B7
330
AA
100
AcDbEntity
  8
0
  6
Continuous
 62
     0
370
     0
100
AcDbLine
 10
0.0
 20
-13.6766554165
 30
0.0
 11
186.899546053
 21
-13.6766554165
 31
0.0
  0
LINE
  5
B8
330
AA
100
AcDbEntity
  8
0
  6
Continuous
 62
     0
370
     0
100
AcDbLine
 10
0.0
 20
-20.8624715428
 30
0.0
 11
186.899546053
 21
-20.8624715428
 31
0.0
  0
LINE
  5
B9
330
AA
100
AcDbEntity
  8
0
  6
Continuous
 62
     0
370
     0
100
AcDbLine
 10
0.0
 20
-25.8686343029
 30
0.0
 11
186.899546053
 21
-25.8686343029
 31
0.0
  0
LINE
  5
BA
330
AA
100
AcDbEntity
  8
0
  6
Continuous
 62
     0
370
     0
100
AcDbLine
 10
0.0
 20
-6.4908392902
 30
0.0
 11
186.899546053
 21
-6.4908392902
 31
0.0
  0
MTEXT
  5
BB
330
AA
100
AcDbEntity
  8
0
  6
Continuous
 62
     0
370
     0
100
AcDbMText
 10
5.0235249886
 20
-1.4371342167
 30
0.0
 40
3.5
 41
0.0
 71
     1
 72
     1
  1
No. ARTICLE
  7
SLDTEXTSTYLE0
 73
     1
 44
1.0
  0
MTEXT
  5
BC
330
AA
100
AcDbEntity
  8
0
  6
Continuous
 62
     0
370
     0
100
AcDbMText
 10
51.9752860152
 20
-1.4371342167
 30
0.0
 40
3.5
 41
0.0
 71
     1
 72
     1
  1
NUMERO DE PIECE
  7
SLDTEXTSTYLE0
 73
     1
 44
1.0
  0
MTEXT
  5
BD
330
AA
100
AcDbEntity
  8
0
  6
Continuous
 62
     0
370
     0
100
AcDbMText
 10
129.9654951409
 20
-1.4371342167
 30
0.0
 40
3.5
 41
0.0
 71
     1
 72
     1
  1
N° Plan
  7
SLDTEXTSTYLE0
 73
     1
 44
1.0
  0
MTEXT
  5
BE
330
AA
100
AcDbEntity
  8
0
  6
Continuous
 62
     0
370
     0
100
AcDbMText
 10
173.1093405063
 20
-1.4371342167
 30
0.0
 40
3.5
 41
0.0
 71
     1
 72
     1
  1
QTE
  7
SLDTEXTSTYLE0
 73
     1
 44
1.0
  0
MTEXT
  5
BF
330
AA
100
AcDbEntity
  8
0
  6
Continuous
 62
     0
370
     0
100
AcDbMText
 10
17.1665819447
 20
-7.8348575293
 30
0.0
 40
3.5
 41
0.0
 71
     1
 72
     1
  1
1
  7
SLDTEXTSTYLE0
 73
     1
 44
1.0
  0
MTEXT
  5
C0
330
AA
100
AcDbEntity
  8
0
  6
Continuous
 62
     0
370
     0
100
AcDbMText
 10
37.4192750829
 20
-7.8348575293
 30
0.0
 40
3.5
 41
0.0
 71
     1
 72
     1
  1
Pale supérieure - Traverse
  7
SLDTEXTSTYLE0
 73
     1
 44
1.0
  0
MTEXT
  5
C1
330
AA
100
AcDbEntity
  8
0
  6
Continuous
 62
     0
370
     0
100
AcDbMText
 10
122.2873700872
 20
-7.8348575293
 30
0.0
 40
3.5
 41
0.0
 71
     1
 72
     1
  1
ASD-US000016
  7
SLDTEXTSTYLE0
 73
     1
 44
1.0
  0
MTEXT
  5
C2
330
AA
100
AcDbEntity
  8
0
  6
Continuous
 62
     0
370
     0
100
AcDbMText
 10
176.0940627676
 20
-7.8348575293
 30
0.0
 40
3.5
 41
0.0
 71
     1
 72
     1
  1
2
  7
SLDTEXTSTYLE0
 73
     1
 44
1.0
  0
MTEXT
  5
C3
330
AA
100
AcDbEntity
  8
0
  6
Continuous
 62
     0
370
     0
100
AcDbMText
 10
17.1665819447
 20
-15.0206736557
 30
0.0
 40
3.5
 41
0.0
 71
     1
 72
     1
  1
2
  7
SLDTEXTSTYLE0
 73
     1
 44
1.0
  0
MTEXT
  5
C4
330
AA
100
AcDbEntity
  8
0
  6
Continuous
 62
     0
370
     0
100
AcDbMText
 10
37.4192750829
 20
-15.0206736557
 30
0.0
 40
3.5
 41
0.0
 71
     1
 72
     1
  1
Montant pale
  7
SLDTEXTSTYLE0
 73
     1
 44
1.0
  0
MTEXT
  5
C5
330
AA
100
AcDbEntity
  8
0
  6
Continuous
 62
     0
370
     0
100
AcDbMText
 10
122.8220917374
 20
-15.0206736557
 30
0.0
 40
3.5
 41
0.0
 71
     1
 72
     1
  1
ASD-ST000003
  7
SLDTEXTSTYLE0
 73
     1
 44
1.0
  0
MTEXT
  5
C6
330
AA
100
AcDbEntity
  8
0
  6
Continuous
 62
     0
370
     0
100
AcDbMText
 10
176.0940627676
 20
-15.0206736557
 30
0.0
 40
3.5
 41
0.0
 71
     1
 72
     1
  1
2
  7
SLDTEXTSTYLE0
 73
     1
 44
1.0
  0
MTEXT
  5
C7
330
AA
100
AcDbEntity
  8
0
  6
Continuous
 62
     0
370
     0
100
AcDbMText
 10
17.1665819447
 20
-21.1166630989
 30
0.0
 40
3.5
 41
0.0
 71
     1
 72
     1
  1
3
  7
SLDTEXTSTYLE0
 73
     1
 44
1.0
  0
MTEXT
  5
C8
330
AA
100
AcDbEntity
  8
0
  6
Continuous
 62
     0
370
     0
100
AcDbMText
 10
37.4192750829
 20
-21.1166630989
 30
0.0
 40
3.5
 41
0.0
 71
     1
 72
     1
  1
Tole aluminium épaisseur 0.5
  7
SLDTEXTSTYLE0
 73
     1
 44
1.0
  0
MTEXT
  5
C9
330
AA
100
AcDbEntity
  8
0
  6
Continuous
 62
     0
370
     0
100
AcDbMText
 10
135.1182733752
 20
-21.1166630989
 30
0.0
 40
3.5
 41
0.0
 71
     1
 72
     1
  1
na
  7
SLDTEXTSTYLE0
 73
     1
 44
1.0
  0
MTEXT
  5
CA
330
AA
100
AcDbEntity
  8
0
  6
Continuous
 62
     0
370
     0
100
AcDbMText
 10
176.0940627676
 20
-21.1166630989
 30
0.0
 40
3.5
 41
0.0
 71
     1
 72
     1
  1
1
  7
SLDTEXTSTYLE0
 73
     1
 44
1.0
  0
MTEXT
  5
CB
330
AA
100
AcDbEntity
  8
0
  6
Continuous
 62
     0
370
     0
100
AcDbMText
 10
17.1665819447
 20
-27.3057685196
 30
0.0
 40
3.5
 41
0.0
 71
     1
 72
     1
  1
4
  7
SLDTEXTSTYLE0
 73
     1
 44
1.0
  0
MTEXT
  5
CC
330
AA
100
AcDbEntity
  8
0
  6
Continuous
 62
     0
370
     0
100
AcDbMText
 10
37.4192750829
 20
-27.3057685196
 30
0.0
 40
3.5
 41
0.0
 71
     1
 72
     1
  1
Pale - Axe
  7
SLDTEXTSTYLE3
 73
     1
 44
1.0
  0
MTEXT
  5
CD
330
AA
100
AcDbEntity
  8
0
  6
Continuous
 62
     0
370
     0
100
AcDbMText
 10
122.2873700872
 20
-27.3057685196
 30
0.0
 40
3.5
 41
0.0
 71
     1
 72
     1
  1
ASD-US000037
  7
SLDTEXTSTYLE0
 73
     1
 44
1.0
  0
MTEXT
  5
CE
330
AA
100
AcDbEntity
  8
0
  6
Continuous
 62
     0
370
     0
100
AcDbMText
 10
176.0940627676
 20
-27.3057685196
 30
0.0
 40
3.5
 41
0.0
 71
     1
 72
     1
  1
1
  7
SLDTEXTSTYLE0
 73
     1
 44
1.0
  0
ENDBLK
  5
AC
330
AA
100
AcDbEntity
  8
0
100
AcDbBlockEnd
  0
BLOCK
  5
E4
330
E3
100
AcDbEntity
  8
0
100
AcDbBlockBegin
  2
*D6
 70
     1
 10
0.0
 20
0.0
 30
0.0
  3
*D6
  1

  0
SOLID
  5
E6
330
E3
100
AcDbEntity
  8
0
  6
Continuous
 62
     7
370
     0
100
AcDbTrace
 10
56.9576609833
 20
167.8197646667
 30
0.0
 11
57.4656609833
 21
171.1217646667
 31
0.0
 12
56.4496609833
 22
171.1217646667
 32
0.0
 13
56.4496609833
 23
171.1217646667
 33
0.0
  0
SOLID
  5
E7
330
E3
100
AcDbEntity
  8
0
  6
Continuous
 62
     7
370
     0
100
AcDbTrace
 10
56.9576609833
 20
155.3197646667
 30
0.0
 11
56.4496609833
 21
152.0177646667
 31
0.0
 12
57.4656609833
 22
152.0177646667
 32
0.0
 13
57.4656609833
 23
152.0177646667
 33
0.0
  0
LINE
  5
E8
330
E3
100
AcDbEntity
  8
0
  6
Continuous
 62
     7
370
     0
100
AcDbLine
 10
67.9076609833
 20
167.8197646667
 30
0.0
 11
55.9576609833
 21
167.8197646667
 31
0.0
  0
LINE
  5
E9
330
E3
100
AcDbEntity
  8
0
  6
Continuous
 62
     7
370
     0
100
AcDbLine
 10
66.0076609833
 20
155.3197646667
 30
0.0
 11
55.9576609833
 21
155.3197646667
 31
0.0
  0
LINE
  5
EA
330
E3
100
AcDbEntity
  8
0
  6
Continuous
 62
     7
370
     0
100
AcDbLine
 10
56.9576609833
 20
167.8197646667
 30
0.0
 11
56.9576609833
 21
174.1697646667
 31
0.0
  0
LINE
  5
EB
330
E3
100
AcDbEntity
  8
0
  6
Continuous
 62
     7
370
     0
100
AcDbLine
 10
56.9576609833
 20
167.8197646667
 30
0.0
 11
56.9576609833
 21
155.3197646667
 31
0.0
  0
LINE
  5
EC
330
E3
100
AcDbEntity
  8
0
  6
Continuous
 62
     7
370
     0
100
AcDbLine
 10
56.9576609833
 20
155.3197646667
 30
0.0
 11
56.9576609833
 21
148.9697646667
 31
0.0
  0
MTEXT
  5
ED
330
E3
100
AcDbEntity
  8
0
  6
Continuous
 62
     7
370
     0
100
AcDbMText
 10
52.4459240687
 20
156.2687231381
 30
-0.1671955776
 40
3.5
 41
0.0
 71
     1
 72
     1
  1
125
  7
SLDTEXTSTYLE0
 11
-7.044195017643634E-15
 21
1.0
 31
0.0
 73
     1
 44
1.0
  0
ENDBLK
  5
E5
330
E3
100
AcDbEntity
  8
0
100
AcDbBlockEnd
  0
BLOCK
  5
F0
330
EF
100
AcDbEntity
  8
0
100
AcDbBlockBegin
  2
*D7
 70
     1
 10
0.0
 20
0.0
 30
0.0
  3
*D7
  1

  0
ARC
  5
F2
330
EF
100
AcDbEntity
  8
0
  6
Continuous
 62
     7
370
     0
100
AcDbCircle
 10
54.1301553959
 20
47.6988319719
 30
0.0
 40
6.2120763399956
100
AcDbArc
 50
243.4349488229
 51
296.5650511771
  0
ARC
  5
F3
330
EF
100
AcDbEntity
  8
0
  6
Continuous
 62
     7
370
     0
100
AcDbCircle
 10
54.1301553959
 20
41.7585543768
 30
0.0
 40
6.2120763399956
100
AcDbArc
 50
63.4349488229
 51
116.5650511771
  0
SOLID
  5
F4
330
EF
100
AcDbEntity
  8
0
  6
Continuous
 62
     7
370
     0
100
AcDbTrace
 10
56.9082803914
 20
55.3197646667
 30
0.0
 11
57.4162803914
 21
58.6217646667
 31
0.0
 12
56.4002803914
 22
58.6217646667
 32
0.0
 13
56.4002803914
 23
58.6217646667
 33
0.0
  0
SOLID
  5
F5
330
EF
100
AcDbEntity
  8
0
  6
Continuous
 62
     7
370
     0
100
AcDbTrace
 10
56.9082803914
 20
52.6197646667
 30
0.0
 11
56.4002803914
 21
49.3177646667
 31
0.0
 12
57.4162803914
 22
49.3177646667
 32
0.0
 13
57.4162803914
 23
49.3177646667
 33
0.0
  0
LINE
  5
F6
330
EF
100
AcDbEntity
  8
0
  6
Continuous
 62
     7
370
     0
100
AcDbLine
 10
67.4212879619
 20
55.3197646667
 30
0.0
 11
55.9082803914
 21
55.3197646667
 31
0.0
  0
LINE
  5
F7
330
EF
100
AcDbEntity
  8
0
  6
Continuous
 62
     7
370
     0
100
AcDbLine
 10
67.9076609833
 20
52.6197646667
 30
0.0
 11
55.9082803914
 21
52.6197646667
 31
0.0
  0
LINE
  5
F8
330
EF
100
AcDbEntity
  8
0
  6
Continuous
 62
     7
370
     0
100
AcDbLine
 10
56.9082803914
 20
55.3197646667
 30
0.0
 11
56.9082803914
 21
61.6697646667
 31
0.0
  0
LINE
  5
F9
330
EF
100
AcDbEntity
  8
0
  6
Continuous
 62
     7
370
     0
100
AcDbLine
 10
56.9082803914
 20
55.3197646667
 30
0.0
 11
56.9082803914
 21
52.6197646667
 31
0.0
  0
LINE
  5
FA
330
EF
100
AcDbEntity
  8
0
  6
Continuous
 62
     7
370
     0
100
AcDbLine
 10
56.9082803914
 20
52.6197646667
 30
0.0
 11
56.9082803914
 21
41.4867556251
 31
0.0
  0
MTEXT
  5
FB
330
EF
100
AcDbEntity
  8
0
  6
Continuous
 62
     7
370
     0
100
AcDbMText
 10
52.3965434768
 20
42.1425819809
 30
-0.1671955776
 40
3.5
 41
0.0
 71
     1
 72
     1
  1
27
  7
SLDTEXTSTYLE0
 11
-7.044195017643634E-15
 21
1.0
 31
0.0
 73
     1
 44
1.0
  0
ENDBLK
  5
F1
330
EF
100
AcDbEntity
  8
0
100
AcDbBlockEnd
  0
BLOCK
  5
FD
330
FC
100
AcDbEntity
  8
0
100
AcDbBlockBegin
  2
SW_NOTE_4
 70
     0
 10
0.0
 20
0.0
 30
0.0
  3
SW_NOTE_4
  1

  0
CIRCLE
  5
FF
330
FC
100
AcDbEntity
  8
0
  6
Continuous
 62
     0
370
     0
100
AcDbCircle
 10
-4.3029237533
 20
-2.5635549336
 30
0.0
 40
5.008689122346056
  0
MTEXT
  5
100
330
FC
100
AcDbEntity
  8
0
  6
Continuous
 62
     0
370
     0
100
AcDbMText
 10
-4.33816685
 20
-0.7060712771
 30
0.0
 40
3.5
 41
0.0
 71
     2
 72
     1
  1
3
  7
SLDTEXTSTYLE0
 73
     1
 44
1.0
  0
ENDBLK
  5
FE
330
FC
100
AcDbEntity
  8
0
100
AcDbBlockEnd
  0
BLOCK
  5
104
330
103
100
AcDbEntity
  8
0
100
AcDbBlockBegin
  2
_DOT
 70
     0
 10
0.0
 20
0.0
 30
0.0
  3
_DOT
  1

  0
POLYLINE
  5
106
330
103
100
AcDbEntity
  8
0
  6
ByBlock
 62
     0
100
AcDb2dPolyline
 66
     1
 10
0.0
 20
0.0
 30
0.0
 70
     1
 40
0.5
 41
0.5
  0
VERTEX
  5
108
330
106
100
AcDbEntity
  8
0
  6
ByBlock
 62
     0
100
AcDbVertex
100
AcDb2dVertex
 10
-0.25
 20
0.0
 30
0.0
 42
1.0
  0
VERTEX
  5
109
330
106
100
AcDbEntity
  8
0
  6
ByBlock
 62
     0
100
AcDbVertex
100
AcDb2dVertex
 10
0.25
 20
0.0
 30
0.0
 42
1.0
  0
SEQEND
  5
10A
330
106
100
AcDbEntity
  8
0
  6
ByBlock
 62
     0
  0
LINE
  5
107
330
103
100
AcDbEntity
  8
0
  6
ByBlock
 62
     0
370
    -2
100
AcDbLine
 10
-0.5
 20
0.0
 30
0.0
 11
-1.0
 21
0.0
 31
0.0
  0
ENDBLK
  5
105
330
103
100
AcDbEntity
  8
0
100
AcDbBlockEnd
  0
BLOCK
  5
127
330
126
100
AcDbEntity
  8
0
100
AcDbBlockBegin
  2
SW_DATUMTAG_0
 70
     0
 10
0.0
 20
0.0
 30
0.0
  3
SW_DATUMTAG_0
  1

  0
LINE
  5
129
330
126
100
AcDbEntity
  8
0
  6
Continuous
 62
     0
370
     0
100
AcDbLine
 10
-46.0901046639
 20
2.7781251702
 30
0.0
 11
-1.7743054861
 21
2.7781251702
 31
0.0
  0
LINE
  5
12A
330
126
100
AcDbEntity
  8
0
  6
Continuous
 62
     0
370
     0
100
AcDbLine
 10
-46.0901046639
 20
-25.1119713106
 30
0.0
 11
-46.0901046639
 21
5.1781251702
 31
0.0
  0
LINE
  5
12B
330
126
100
AcDbEntity
  8
0
  6
Continuous
 62
     0
370
     0
100
AcDbLine
 10
5.2256945139
 20
-0.7218748298
 30
0.0
 11
-1.7743054861
 21
-0.7218748298
 31
0.0
  0
LINE
  5
12C
330
126
100
AcDbEntity
  8
0
  6
Continuous
 62
     0
370
     0
100
AcDbLine
 10
-1.7743054861
 20
-0.7218748298
 30
0.0
 11
-1.7743054861
 21
6.2781251702
 31
0.0
  0
LINE
  5
12D
330
126
100
AcDbEntity
  8
0
  6
Continuous
 62
     0
370
     0
100
AcDbLine
 10
-1.7743054861
 20
6.2781251702
 30
0.0
 11
5.2256945139
 21
6.2781251702
 31
0.0
  0
LINE
  5
12E
330
126
100
AcDbEntity
  8
0
  6
Continuous
 62
     0
370
     0
100
AcDbLine
 10
5.2256945139
 20
6.2781251702
 30
0.0
 11
5.2256945139
 21
-0.7218748298
 31
0.0
  0
MTEXT
  5
12F
330
126
100
AcDbEntity
  8
0
  6
Continuous
 62
     0
370
     0
100
AcDbMText
 10
0.0
 20
4.5117370892
 30
0.0
 40
3.5
 41
0.0
 71
     1
 72
     1
  1
A
  7
SLDTEXTSTYLE0
 73
     1
 44
1.0
  0
SOLID
  5
130
330
126
100
AcDbEntity
  8
0
  6
Continuous
 62
     0
370
     0
100
AcDbTrace
 10
-46.0901046639
 20
1.3781251702
 30
0.0
 11
-46.0901046639
 21
4.1781251702
 31
0.0
 12
-43.6401046639
 22
2.7781251702
 32
0.0
 13
-43.6401046639
 23
2.7781251702
 33
0.0
  0
ENDBLK
  5
128
330
126
100
AcDbEntity
  8
0
100
AcDbBlockEnd
  0
BLOCK
  5
133
330
132
100
AcDbEntity
  8
0
100
AcDbBlockBegin
  2
SW_DATUMTAG_1
 70
     0
 10
0.0
 20
0.0
 30
0.0
  3
SW_DATUMTAG_1
  1

  0
LINE
  5
135
330
132
100
AcDbEntity
  8
0
  6
Continuous
 62
     0
370
     0
100
AcDbLine
 10
1.3392361579
 20
-14.2922443807
 30
0.0
 11
1.3392361579
 21
-0.7218748298
 31
0.0
  0
LINE
  5
136
330
132
100
AcDbEntity
  8
0
  6
Continuous
 62
     0
370
     0
100
AcDbLine
 10
-46.8890866433
 20
-14.2922443807
 30
0.0
 11
3.7392361579
 21
-14.2922443807
 31
0.0
  0
LINE
  5
137
330
132
100
AcDbEntity
  8
0
  6
Continuous
 62
     0
370
     0
100
AcDbLine
 10
4.8392361579
 20
-0.7218748298
 30
0.0
 11
-2.1607638421
 21
-0.7218748298
 31
0.0
  0
LINE
  5
138
330
132
100
AcDbEntity
  8
0
  6
Continuous
 62
     0
370
     0
100
AcDbLine
 10
-2.1607638421
 20
-0.7218748298
 30
0.0
 11
-2.1607638421
 21
6.2781251702
 31
0.0
  0
LINE
  5
139
330
132
100
AcDbEntity
  8
0
  6
Continuous
 62
     0
370
     0
100
AcDbLine
 10
-2.1607638421
 20
6.2781251702
 30
0.0
 11
4.8392361579
 21
6.2781251702
 31
0.0
  0
LINE
  5
13A
330
132
100
AcDbEntity
  8
0
  6
Continuous
 62
     0
370
     0
100
AcDbLine
 10
4.8392361579
 20
6.2781251702
 30
0.0
 11
4.8392361579
 21
-0.7218748298
 31
0.0
  0
MTEXT
  5
13B
330
132
100
AcDbEntity
  8
0
  6
Continuous
 62
     0
370
     0
100
AcDbMText
 10
0.0
 20
4.5117370892
 30
0.0
 40
3.5
 41
0.0
 71
     1
 72
     1
  1
B
  7
SLDTEXTSTYLE0
 73
     1
 44
1.0
  0
SOLID
  5
13C
330
132
100
AcDbEntity
  8
0
  6
Continuous
 62
     0
370
     0
100
AcDbTrace
 10
2.7392361579
 20
-14.2922443807
 30
0.0
 11
-0.0607638421
 21
-14.2922443807
 31
0.0
 12
1.3392361579
 22
-11.8422443807
 32
0.0
 13
1.3392361579
 23
-11.8422443807
 33
0.0
  0
ENDBLK
  5
134
330
132
100
AcDbEntity
  8
0
100
AcDbBlockEnd
  0
BLOCK
  5
1F3
330
1F2
100
AcDbEntity
  8
0
100
AcDbBlockBegin
  2
*D12
 70
     1
 10
0.0
 20
0.0
 30
0.0
  3
*D12
  1

  0
SOLID
  5
1F5
330
1F2
100
AcDbEntity
  8
0
  6
Continuous
 62
     7
370
     0
100
AcDbTrace
 10
161.1419217065
 20
259.5940843784
 30
0.0
 11
164.4439217065
 21
259.0860843784
 31
0.0
 12
164.4439217065
 22
260.1020843784
 32
0.0
 13
164.4439217065
 23
260.1020843784
 33
0.0
  0
SOLID
  5
1F6
330
1F2
100
AcDbEntity
  8
0
  6
Continuous
 62
     7
370
     0
100
AcDbTrace
 10
261.1419217065
 20
259.5940843784
 30
0.0
 11
257.8399217065
 21
260.1020843784
 31
0.0
 12
257.8399217065
 22
259.0860843784
 32
0.0
 13
257.8399217065
 23
259.0860843784
 33
0.0
  0
LINE
  5
1F7
330
1F2
100
AcDbEntity
  8
0
  6
Continuous
 62
     7
370
     0
100
AcDbLine
 10
161.1419217065
 20
246.8784951602
 30
0.0
 11
161.1419217065
 21
260.5940843784
 31
0.0
  0
LINE
  5
1F8
330
1F2
100
AcDbEntity
  8
0
  6
Continuous
 62
     7
370
     0
100
AcDbLine
 10
261.1419217065
 20
246.8784951602
 30
0.0
 11
261.1419217065
 21
260.5940843784
 31
0.0
  0
LINE
  5
1F9
330
1F2
100
AcDbEntity
  8
0
  6
Continuous
 62
     7
370
     0
100
AcDbLine
 10
161.1419217065
 20
259.5940843784
 30
0.0
 11
261.1419217065
 21
259.5940843784
 31
0.0
  0
MTEXT
  5
1FA
330
1F2
100
AcDbEntity
  8
0
  6
Continuous
 62
     7
370
     0
100
AcDbMText
 10
205.5829240785
 20
264.105821293
 30
0.7988427416
 40
3.5
 41
0.0
 71
     1
 72
     1
  1
1000
  7
SLDTEXTSTYLE0
 73
     1
 44
1.0
  0
ENDBLK
  5
1F4
330
1F2
100
AcDbEntity
  8
0
100
AcDbBlockEnd
  0
BLOCK
  5
1FD
330
1FC
100
AcDbEntity
  8
0
100
AcDbBlockBegin
  2
*D13
 70
     1
 10
0.0
 20
0.0
 30
0.0
  3
*D13
  1

  0
SOLID
  5
1FF
330
1FC
100
AcDbEntity
  8
0
  6
Continuous
 62
     7
370
     0
100
AcDbTrace
 10
280.6419217065
 20
247.8434951602
 30
0.0
 11
280.1339217065
 21
244.5414951602
 31
0.0
 12
281.1499217065
 22
244.5414951602
 32
0.0
 13
281.1499217065
 23
244.5414951602
 33
0.0
  0
SOLID
  5
200
330
1FC
100
AcDbEntity
  8
0
  6
Continuous
 62
     7
370
     0
100
AcDbTrace
 10
280.6419217065
 20
207.7434951602
 30
0.0
 11
281.1499217065
 21
211.0454951602
 31
0.0
 12
280.1339217065
 22
211.0454951602
 32
0.0
 13
280.1339217065
 23
211.0454951602
 33
0.0
  0
LINE
  5
201
330
1FC
100
AcDbEntity
  8
0
  6
Continuous
 62
     7
370
     0
100
AcDbLine
 10
262.1419217065
 20
247.8434951602
 30
0.0
 11
281.6419217065
 21
247.8434951602
 31
0.0
  0
LINE
  5
202
330
1FC
100
AcDbEntity
  8
0
  6
Continuous
 62
     7
370
     0
100
AcDbLine
 10
261.1419217065
 20
207.7434951602
 30
0.0
 11
281.6419217065
 21
207.7434951602
 31
0.0
  0
LINE
  5
203
330
1FC
100
AcDbEntity
  8
0
  6
Continuous
 62
     7
370
     0
100
AcDbLine
 10
280.6419217065
 20
247.8434951602
 30
0.0
 11
280.6419217065
 21
207.7434951602
 31
0.0
  0
MTEXT
  5
204
330
1FC
100
AcDbEntity
  8
0
  6
Continuous
 62
     7
370
     0
100
AcDbMText
 10
276.1301847919
 20
222.0996953633
 30
0.7988427416
 40
3.5
 41
0.0
 71
     1
 72
     1
  1
401
  7
SLDTEXTSTYLE0
 11
-1.059690869644414E-14
 21
1.0
 31
0.0
 73
     1
 44
1.0
  0
ENDBLK
  5
1FE
330
1FC
100
AcDbEntity
  8
0
100
AcDbBlockEnd
  0
BLOCK
  5
207
330
206
100
AcDbEntity
  8
0
100
AcDbBlockBegin
  2
SW_NOTE_5
 70
     0
 10
0.0
 20
0.0
 30
0.0
  3
SW_NOTE_5
  1

  0
CIRCLE
  5
209
330
206
100
AcDbEntity
  8
0
  6
Continuous
 62
     0
370
     0
100
AcDbCircle
 10
-4.9057125578
 20
-1.0104212113
 30
0.0
 40
5.008689122346048
  0
MTEXT
  5
20A
330
206
100
AcDbEntity
  8
0
  6
Continuous
 62
     0
370
     0
100
AcDbMText
 10
-4.9409556546
 20
0.8470624452
 30
0.0
 40
3.5
 41
0.0
 71
     2
 72
     1
  1
1
  7
SLDTEXTSTYLE0
 73
     1
 44
1.0
  0
ENDBLK
  5
208
330
206
100
AcDbEntity
  8
0
100
AcDbBlockEnd
  0
BLOCK
  5
20E
330
20D
100
AcDbEntity
  8
0
100
AcDbBlockBegin
  2
SW_NOTE_6
 70
     0
 10
0.0
 20
0.0
 30
0.0
  3
SW_NOTE_6
  1

  0
CIRCLE
  5
210
330
20D
100
AcDbEntity
  8
0
  6
Continuous
 62
     0
370
     0
100
AcDbCircle
 10
3.4125111508
 20
-3.6662970924
 30
0.0
 40
5.008689122346048
  0
MTEXT
  5
211
330
20D
100
AcDbEntity
  8
0
  6
Continuous
 62
     0
370
     0
100
AcDbMText
 10
3.3772680541
 20
-1.8088134359
 30
0.0
 40
3.5
 41
0.0
 71
     2
 72
     1
  1
1
  7
SLDTEXTSTYLE0
 73
     1
 44
1.0
  0
ENDBLK
  5
20F
330
20D
100
AcDbEntity
  8
0
100
AcDbBlockEnd
  0
BLOCK
  5
215
330
214
100
AcDbEntity
  8
0
100
AcDbBlockBegin
  2
SW_NOTE_7
 70
     0
 10
0.0
 20
0.0
 30
0.0
  3
SW_NOTE_7
  1

  0
CIRCLE
  5
217
330
214
100
AcDbEntity
  8
0
  6
Continuous
 62
     0
370
     0
100
AcDbCircle
 10
-3.6602629355
 20
3.4189825925
 30
0.0
 40
5.008689122346036
  0
MTEXT
  5
218
330
214
100
AcDbEntity
  8
0
  6
Continuous
 62
     0
370
     0
100
AcDbMText
 10
-3.6955060322
 20
5.2764662489
 30
0.0
 40
3.5
 41
0.0
 71
     2
 72
     1
  1
4
  7
SLDTEXTSTYLE0
 73
     1
 44
1.0
  0
ENDBLK
  5
216
330
214
100
AcDbEntity
  8
0
100
AcDbBlockEnd
  0
BLOCK
  5
21C
330
21B
100
AcDbEntity
  8
0
100
AcDbBlockBegin
  2
SW_NOTE_8
 70
     0
 10
0.0
 20
0.0
 30
0.0
  3
SW_NOTE_8
  1

  0
CIRCLE
  5
21E
330
21B
100
AcDbEntity
  8
0
  6
Continuous
 62
     0
370
     0
100
AcDbCircle
 10
2.6155525397
 20
-4.2715163158
 30
0.0
 40
5.008689122346048
  0
MTEXT
  5
21F
330
21B
100
AcDbEntity
  8
0
  6
Continuous
 62
     0
370
     0
100
AcDbMText
 10
2.5803094429
 20
-2.4140326594
 30
0.0
 40
3.5
 41
0.0
 71
     2
 72
     1
  1
2
  7
SLDTEXTSTYLE0
 73
     1
 44
1.0
  0
ENDBLK
  5
21D
330
21B
100
AcDbEntity
  8
0
100
AcDbBlockEnd
  0
BLOCK
  5
223
330
222
100
AcDbEntity
  8
0
100
AcDbBlockBegin
  2
SW_NOTE_9
 70
     0
 10
0.0
 20
0.0
 30
0.0
  3
SW_NOTE_9
  1

  0
CIRCLE
  5
225
330
222
100
AcDbEntity
  8
0
  6
Continuous
 62
     0
370
     0
100
AcDbCircle
 10
-0.6899350138
 20
-4.9609430959
 30
0.0
 40
5.008689122346048
  0
MTEXT
  5
226
330
222
100
AcDbEntity
  8
0
  6
Continuous
 62
     0
370
     0
100
AcDbMText
 10
-0.7251781105
 20
-3.1034594394
 30
0.0
 40
3.5
 41
0.0
 71
     2
 72
     1
  1
2
  7
SLDTEXTSTYLE0
 73
     1
 44
1.0
  0
ENDBLK
  5
224
330
222
100
AcDbEntity
  8
0
100
AcDbBlockEnd
  0
BLOCK
  5
22A
330
229
100
AcDbEntity
  8
0
100
AcDbBlockBegin
  2
SW_DATUMTAG_2
 70
     0
 10
0.0
 20
0.0
 30
0.0
  3
SW_DATUMTAG_2
  1

  0
LINE
  5
22C
330
229
100
AcDbEntity
  8
0
  6
Continuous
 62
     0
370
     0
100
AcDbLine
 10
45.6936716704
 20
2.7781251702
 30
0.0
 11
5.3958334113
 21
2.7781251702
 31
0.0
  0
LINE
  5
22D
330
229
100
AcDbEntity
  8
0
  6
Continuous
 62
     0
370
     0
100
AcDbLine
 10
45.6936716704
 20
-24.8440309154
 30
0.0
 11
45.6936716704
 21
5.1781251702
 31
0.0
  0
LINE
  5
22E
330
229
100
AcDbEntity
  8
0
  6
Continuous
 62
     0
370
     0
100
AcDbLine
 10
5.3958334113
 20
-0.7218748298
 30
0.0
 11
-1.6041665887
 21
-0.7218748298
 31
0.0
  0
LINE
  5
22F
330
229
100
AcDbEntity
  8
0
  6
Continuous
 62
     0
370
     0
100
AcDbLine
 10
-1.6041665887
 20
-0.7218748298
 30
0.0
 11
-1.6041665887
 21
6.2781251702
 31
0.0
  0
LINE
  5
230
330
229
100
AcDbEntity
  8
0
  6
Continuous
 62
     0
370
     0
100
AcDbLine
 10
-1.6041665887
 20
6.2781251702
 30
0.0
 11
5.3958334113
 21
6.2781251702
 31
0.0
  0
LINE
  5
231
330
229
100
AcDbEntity
  8
0
  6
Continuous
 62
     0
370
     0
100
AcDbLine
 10
5.3958334113
 20
6.2781251702
 30
0.0
 11
5.3958334113
 21
-0.7218748298
 31
0.0
  0
MTEXT
  5
232
330
229
100
AcDbEntity
  8
0
  6
Continuous
 62
     0
370
     0
100
AcDbMText
 10
0.0
 20
4.5117370892
 30
0.7888427416
 40
3.5
 41
0.0
 71
     1
 72
     1
  1
C
  7
SLDTEXTSTYLE0
 73
     1
 44
1.0
  0
SOLID
  5
233
330
229
100
AcDbEntity
  8
0
  6
Continuous
 62
     0
370
     0
100
AcDbTrace
 10
45.6936716704
 20
1.3781251702
 30
0.0
 11
45.6936716704
 21
4.1781251702
 31
0.0
 12
43.2436716704
 22
2.7781251702
 32
0.0
 13
43.2436716704
 23
2.7781251702
 33
0.0
  0
ENDBLK
  5
22B
330
229
100
AcDbEntity
  8
0
100
AcDbBlockEnd
  0
BLOCK
  5
245
330
244
100
AcDbEntity
  8
0
100
AcDbBlockBegin
  2
*D20
 70
     1
 10
0.0
 20
0.0
 30
0.0
  3
*D20
  1

  0
SOLID
  5
247
330
244
100
AcDbEntity
  8
0
  6
Continuous
 62
     7
370
     0
100
AcDbTrace
 10
172.4065623914
 20
63.7402155273
 30
0.0
 11
171.8985623914
 21
60.4382155273
 31
0.0
 12
172.9145623914
 22
60.4382155273
 32
0.0
 13
172.9145623914
 23
60.4382155273
 33
0.0
  0
SOLID
  5
248
330
244
100
AcDbEntity
  8
0
  6
Continuous
 62
     7
370
     0
100
AcDbTrace
 10
172.4065623914
 20
88.8402155273
 30
0.0
 11
172.9145623914
 21
92.1422155273
 31
0.0
 12
171.8985623914
 22
92.1422155273
 32
0.0
 13
171.8985623914
 23
92.1422155273
 33
0.0
  0
LINE
  5
249
330
244
100
AcDbEntity
  8
0
  6
Continuous
 62
     7
370
     0
100
AcDbLine
 10
154.9371595537
 20
63.7402155273
 30
0.0
 11
173.4065623914
 21
63.7402155273
 31
0.0
  0
LINE
  5
24A
330
244
100
AcDbEntity
  8
0
  6
Continuous
 62
     7
370
     0
100
AcDbLine
 10
172.4065623914
 20
63.7402155273
 30
0.0
 11
172.4065623914
 21
57.3902155273
 31
0.0
  0
LINE
  5
24B
330
244
100
AcDbEntity
  8
0
  6
Continuous
 62
     7
370
     0
100
AcDbLine
 10
172.4065623914
 20
63.7402155273
 30
0.0
 11
172.4065623914
 21
88.8402155273
 31
0.0
  0
LINE
  5
24C
330
244
100
AcDbEntity
  8
0
  6
Continuous
 62
     7
370
     0
100
AcDbLine
 10
172.4065623914
 20
88.8402155273
 30
0.0
 11
172.4065623914
 21
107.3102031769
 31
0.0
  0
MTEXT
  5
24D
330
244
100
AcDbEntity
  8
0
  6
Continuous
 62
     7
370
     0
100
AcDbMText
 10
167.8948254768
 20
92.8289529802
 30
0.025
 40
3.5
 41
0.0
 71
     1
 72
     1
  1
100,4
  7
SLDTEXTSTYLE0
 11
6.123233995736766E-17
 21
1.0
 31
0.0
 73
     1
 44
1.0
  0
ENDBLK
  5
246
330
244
100
AcDbEntity
  8
0
100
AcDbBlockEnd
  0
BLOCK
  5
24F
330
24E
100
AcDbEntity
  8
0
100
AcDbBlockBegin
  2
SW_NOTE_10
 70
     0
 10
0.0
 20
0.0
 30
0.0
  3
SW_NOTE_10
  1

  0
MTEXT
  5
251
330
24E
100
AcDbEntity
  8
0
  6
Continuous
 62
     0
370
     0
100
AcDbMText
 10
9.1328125
 20
4.5117370892
 30
0.0
 40
3.5
 41
0.0
 71
     2
 72
     1
  1
DÉTAIL B
  7
SLDTEXTSTYLE0
 73
     1
 44
1.0
  0
MTEXT
  5
252
330
24E
100
AcDbEntity
  8
0
  6
Continuous
 62
     0
370
     0
100
AcDbMText
 10
9.7550333738
 20
-0.0139574413
 30
0.0
 40
3.5
 41
0.0
 71
     2
 72
     1
  1
ECHELLE 1 : 4
  7
SLDTEXTSTYLE1
 73
     1
 44
1.0
  0
ENDBLK
  5
250
330
24E
100
AcDbEntity
  8
0
100
AcDbBlockEnd
  0
BLOCK
  5
266
330
265
100
AcDbEntity
  8
0
100
AcDbBlockBegin
  2
*D22
 70
     1
 10
0.0
 20
0.0
 30
0.0
  3
*D22
  1

  0
ARC
  5
268
330
265
100
AcDbEntity
  8
0
  6
Continuous
 62
     7
370
     0
100
AcDbCircle
 10
137.8646076583
 20
156.004287423
 30
0.0
 40
6.271860246188184
100
AcDbArc
 50
153.4349488229
 51
206.5650511771
  0
ARC
  5
269
330
265
100
AcDbEntity
  8
0
  6
Continuous
 62
     7
370
     0
100
AcDbCircle
 10
134.5097117983
 20
156.004287423
 30
0.0
 40
6.271860246188184
100
AcDbArc
 50
333.4349488229
 51
26.5650511771
  0
SOLID
  5
26A
330
265
100
AcDbEntity
  8
0
  6
Continuous
 62
     7
370
     0
100
AcDbTrace
 10
147.1871595537
 20
153.1994262518
 30
0.0
 11
143.8851595537
 21
153.7074262518
 31
0.0
 12
143.8851595537
 22
152.6914262518
 32
0.0
 13
143.8851595537
 23
152.6914262518
 33
0.0
  0
LINE
  5
26B
330
265
100
AcDbEntity
  8
0
  6
Continuous
 62
     7
370
     0
100
AcDbLine
 10
147.1871595537
 20
138.1136398142
 30
0.0
 11
147.1871595537
 21
154.1994262518
 31
0.0
  0
LINE
  5
26C
330
265
100
AcDbEntity
  8
0
  6
Continuous
 62
     7
370
     0
100
AcDbLine
 10
148.1871595537
 20
138.1136398142
 30
0.0
 11
148.1871595537
 21
154.1994262518
 31
0.0
  0
LINE
  5
26D
330
265
100
AcDbEntity
  8
0
  6
Continuous
 62
     7
370
     0
100
AcDbLine
 10
147.1871595537
 20
153.1994262518
 30
0.0
 11
131.592747387
 21
153.1994262518
 31
0.0
  0
LINE
  5
26E
330
265
100
AcDbEntity
  8
0
  6
Continuous
 62
     7
370
     0
100
AcDbLine
 10
147.1871595537
 20
153.1994262518
 30
0.0
 11
148.1871595537
 21
153.1994262518
 31
0.0
  0
MTEXT
  5
26F
330
265
100
AcDbEntity
  8
0
  6
Continuous
 62
     7
370
     0
100
AcDbMText
 10
132.2548853159
 20
157.711163341
 30
24.1348346355
 40
3.5
 41
0.0
 71
     1
 72
     1
  1
%%c
  7
SLDTEXTSTYLE0
 73
     1
 44
1.0
  0
MTEXT
  5
270
330
265
100
AcDbEntity
  8
0
  6
Continuous
 62
     7
370
     0
100
AcDbMText
 10
137.5333227143
 20
157.7646355177
 30
24.1348346355
 40
3.5
 41
0.0
 71
     1
 72
     1
  1
4
  7
SLDTEXTSTYLE0
 73
     1
 44
1.0
  0
ENDBLK
  5
267
330
265
100
AcDbEntity
  8
0
100
AcDbBlockEnd
  0
BLOCK
  5
272
330
271
100
AcDbEntity
  8
0
100
AcDbBlockBegin
  2
SW_NOTE_11
 70
     0
 10
0.0
 20
0.0
 30
0.0
  3
SW_NOTE_11
  1

  0
MTEXT
  5
274
330
271
100
AcDbEntity
  8
0
  6
Continuous
 62
     0
370
     0
100
AcDbMText
 10
13.1796875
 20
4.5117370892
 30
0.0
 40
3.5
 41
0.0
 71
     2
 72
     1
  1
COUPE C-C
  7
SLDTEXTSTYLE0
 73
     1
 44
1.0
  0
MTEXT
  5
275
330
271
100
AcDbEntity
  8
0
  6
Continuous
 62
     0
370
     0
100
AcDbMText
 10
13.7557297274
 20
-0.0139574413
 30
0.0
 40
3.5
 41
0.0
 71
     2
 72
     1
  1
ECHELLE 1 : 4
  7
SLDTEXTSTYLE1
 73
     1
 44
1.0
  0
ENDBLK
  5
273
330
271
100
AcDbEntity
  8
0
100
AcDbBlockEnd
  0
BLOCK
  5
278
330
277
100
AcDbEntity
  8
0
100
AcDbBlockBegin
  2
SW_DATUMTAG_3
 70
     0
 10
0.0
 20
0.0
 30
0.0
  3
SW_DATUMTAG_3
  1

  0
LINE
  5
27A
330
277
100
AcDbEntity
  8
0
  6
Continuous
 62
     0
370
     0
100
AcDbLine
 10
-16.7320177582
 20
2.7781251702
 30
0.0
 11
-1.7645832933
 21
2.7781251702
 31
0.0
  0
LINE
  5
27B
330
277
100
AcDbEntity
  8
0
  6
Continuous
 62
     0
370
     0
100
AcDbLine
 10
-1.7645832933
 20
-0.7218748298
 30
0.0
 11
5.2354167067
 21
-0.7218748298
 31
0.0
  0
LINE
  5
27C
330
277
100
AcDbEntity
  8
0
  6
Continuous
 62
     0
370
     0
100
AcDbLine
 10
5.2354167067
 20
-0.7218748298
 30
0.0
 11
5.2354167067
 21
6.2781251702
 31
0.0
  0
LINE
  5
27D
330
277
100
AcDbEntity
  8
0
  6
Continuous
 62
     0
370
     0
100
AcDbLine
 10
5.2354167067
 20
6.2781251702
 30
0.0
 11
-1.7645832933
 21
6.2781251702
 31
0.0
  0
LINE
  5
27E
330
277
100
AcDbEntity
  8
0
  6
Continuous
 62
     0
370
     0
100
AcDbLine
 10
-1.7645832933
 20
6.2781251702
 30
0.0
 11
-1.7645832933
 21
-0.7218748298
 31
0.0
  0
MTEXT
  5
27F
330
277
100
AcDbEntity
  8
0
  6
Continuous
 62
     0
370
     0
100
AcDbMText
 10
0.0
 20
4.5117370892
 30
24.1348346355
 40
3.5
 41
0.0
 71
     1
 72
     1
  1
D
  7
SLDTEXTSTYLE0
 73
     1
 44
1.0
  0
SOLID
  5
280
330
277
100
AcDbEntity
  8
0
  6
Continuous
 62
     0
370
     0
100
AcDbTrace
 10
-16.7320177582
 20
4.1781251702
 30
0.0
 11
-16.7320177582
 21
1.3781251702
 31
0.0
 12
-14.2820177582
 22
2.7781251702
 32
0.0
 13
-14.2820177582
 23
2.7781251702
 33
0.0
  0
ENDBLK
  5
279
330
277
100
AcDbEntity
  8
0
100
AcDbBlockEnd
  0
ENDSEC
  0
SECTION
  2
ENTITIES
  0
IMAGE
  5
47
330
1F
100
AcDbEntity
  8
0
 92
      140
310
8C00000001000000840000000600000005000000AA587F607F9037406858049986C16A400000000000000000A2587F607F903740AAA5930E374C6C400000000000000000699FFD09373A2540A9A5930E374C6C400000000000000000789FFD09373A25406758049986C16A400000000000000000AA587F607F903740685804
310
9986C16A400000000000000000
100
AcDbRasterImage
 90
        0
 10
23.5644436179
 20
214.0476803861
 30
0.0
 11
-6.657957297865651E-17
 21
0.03083510107966969
 31
0.0
 12
-0.03083510107966965
 22
-6.657957297865641E-17
 32
0.0
 13
400.0
 23
420.0
340
46
 70
     7
280
     0
281
    50
282
    50
283
     0
360
48
 71
     1
 91
        2
 14
-0.5
 24
-0.5
 14
399.5
 24
419.5
  0
LINE
  5
49
330
1F
100
AcDbEntity
  8
0
  6
Continuous
 62
     7
370
    40
100
AcDbLine
 10
25.0788435654
 20
10.2147801566
 30
0.0
 11
25.0788435654
 21
287.2147801566
 31
0.0
  0
LINE
  5
4A
330
1F
100
AcDbEntity
  8
0
  6
Continuous
 62
     7
370
    40
100
AcDbLine
 10
0.0788435654
 20
0.2147801566
 30
0.0
 11
420.0788435654
 21
0.2147801566
 31
0.0
  0
LINE
  5
4B
330
1F
100
AcDbEntity
  8
0
  6
Continuous
 62
     7
370
    40
100
AcDbLine
 10
0.0788435654
 20
0.2147801566
 30
0.0
 11
0.0788435654
 21
297.2147801566
 31
0.0
  0
LINE
  5
4C
330
1F
100
AcDbEntity
  8
0
  6
Continuous
 62
     7
370
    40
100
AcDbLine
 10
0.0788435654
 20
297.2147801566
 30
0.0
 11
420.0788435654
 21
297.2147801566
 31
0.0
  0
LINE
  5
4D
330
1F
100
AcDbEntity
  8
0
  6
Continuous
 62
     7
370
    40
100
AcDbLine
 10
420.0788435654
 20
0.2147801566
 30
0.0
 11
420.0788435654
 21
297.2147801566
 31
0.0
  0
LINE
  5
4E
330
1F
100
AcDbEntity
  8
0
  6
Continuous
 62
     7
370
    40
100
AcDbLine
 10
25.0788435654
 20
287.2147801566
 30
0.0
 11
410.0788435654
 21
287.2147801566
 31
0.0
  0
LINE
  5
4F
330
1F
100
AcDbEntity
  8
0
  6
Continuous
 62
     7
370
    40
100
AcDbLine
 10
25.0788435654
 20
10.2147801566
 30
0.0
 11
410.0788435654
 21
10.2147801566
 31
0.0
  0
LINE
  5
50
330
1F
100
AcDbEntity
  8
0
  6
Continuous
 62
     7
370
    40
100
AcDbLine
 10
410.0788435654
 20
287.2147801566
 30
0.0
 11
410.0788435654
 21
10.2147801566
 31
0.0
  0
LINE
  5
51
330
1F
100
AcDbEntity
  8
0
  6
Continuous
 62
     7
370
    40
100
AcDbLine
 10
222.8788435654
 20
14.4647801566
 30
0.0
 11
410.0788435654
 21
14.4647801566
 31
0.0
  0
LINE
  5
52
330
1F
100
AcDbEntity
  8
0
  6
Continuous
 62
     7
370
    40
100
AcDbLine
 10
410.0788435654
 20
48.4647801566
 30
0.0
 11
222.8788435654
 21
48.4647801566
 31
0.0
  0
LINE
  5
53
330
1F
100
AcDbEntity
  8
0
  6
Continuous
 62
     7
370
    40
100
AcDbLine
 10
222.8788435654
 20
65.4647801566
 30
0.0
 11
410.0788435654
 21
65.4647801566
 31
0.0
  0
LINE
  5
54
330
1F
100
AcDbEntity
  8
0
  6
Continuous
 62
     7
370
    40
100
AcDbLine
 10
249.8697959991
 20
48.4647801566
 30
0.0
 11
249.8697959991
 21
10.2147801566
 31
0.0
  0
LINE
  5
55
330
1F
100
AcDbEntity
  8
0
  6
Continuous
 62
     7
370
    40
100
AcDbLine
 10
321.6788435654
 20
31.4647801566
 30
0.0
 11
222.8788435654
 21
31.4647801566
 31
0.0
  0
LINE
  5
56
330
1F
100
AcDbEntity
  8
0
  6
Continuous
 62
     7
370
    40
100
AcDbLine
 10
321.6788435654
 20
35.7147801566
 30
0.0
 11
222.8788435654
 21
35.7147801566
 31
0.0
  0
LINE
  5
57
330
1F
100
AcDbEntity
  8
0
  6
Continuous
 62
     7
370
    40
100
AcDbLine
 10
321.6788435654
 20
39.9647801566
 30
0.0
 11
222.8788435654
 21
39.9647801566
 31
0.0
  0
LINE
  5
58
330
1F
100
AcDbEntity
  8
0
  6
Continuous
 62
     7
370
    40
100
AcDbLine
 10
321.6788435654
 20
44.2147801566
 30
0.0
 11
222.8788435654
 21
44.2147801566
 31
0.0
  0
LINE
  5
59
330
1F
100
AcDbEntity
  8
0
  6
Continuous
 62
     7
370
    40
100
AcDbLine
 10
277.4788435654
 20
10.2147801566
 30
0.0
 11
277.4788435654
 21
48.4647801566
 31
0.0
  0
LINE
  5
5A
330
1F
100
AcDbEntity
  8
0
  6
Continuous
 62
     7
370
    40
100
AcDbLine
 10
222.8788435654
 20
65.4647801566
 30
0.0
 11
222.8788435654
 21
10.2147801566
 31
0.0
  0
LINE
  5
5B
330
1F
100
AcDbEntity
  8
0
  6
Continuous
 62
     7
370
    40
100
AcDbLine
 10
230.6788435654
 20
48.4647801566
 30
0.0
 11
230.6788435654
 21
10.2147801566
 31
0.0
  0
LINE
  5
5C
330
1F
100
AcDbEntity
  8
0
  6
Continuous
 62
     7
370
    40
100
AcDbLine
 10
256.6788435654
 20
48.4647801566
 30
0.0
 11
256.6788435654
 21
65.4647801566
 31
0.0
  0
LINE
  5
5D
330
1F
100
AcDbEntity
  8
0
  6
Continuous
 62
     7
370
    40
100
AcDbLine
 10
267.2777697289
 20
48.4647801566
 30
0.0
 11
267.2777697289
 21
10.2147801566
 31
0.0
  0
LINE
  5
5E
330
1F
100
AcDbEntity
  8
0
  6
Continuous
 62
     7
370
    40
100
AcDbLine
 10
287.8788435654
 20
31.4647801566
 30
0.0
 11
287.8788435654
 21
48.4647801566
 31
0.0
  0
LINE
  5
5F
330
1F
100
AcDbEntity
  8
0
  6
Continuous
 62
     7
370
    40
100
AcDbLine
 10
277.4788435654
 20
18.7147801566
 30
0.0
 11
222.8788435654
 21
18.7147801566
 31
0.0
  0
LINE
  5
60
330
1F
100
AcDbEntity
  8
0
  6
Continuous
 62
     7
370
    40
100
AcDbLine
 10
303.4788435654
 20
65.4647801566
 30
0.0
 11
303.4788435654
 21
27.2147801566
 31
0.0
  0
LINE
  5
61
330
1F
100
AcDbEntity
  8
0
  6
Continuous
 62
     7
370
    40
100
AcDbLine
 10
277.4788435654
 20
22.9647081566
 30
0.0
 11
222.8788435654
 21
22.9647081566
 31
0.0
  0
LINE
  5
62
330
1F
100
AcDbEntity
  8
0
  6
Continuous
 62
     7
370
    40
100
AcDbLine
 10
277.4788435654
 20
27.2147801566
 30
0.0
 11
222.8788435654
 21
27.2147801566
 31
0.0
  0
LINE
  5
63
330
1F
100
AcDbEntity
  8
0
  6
Continuous
 62
     7
370
    40
100
AcDbLine
 10
277.4788435654
 20
27.2147801566
 30
0.0
 11
410.0788435654
 21
27.2147801566
 31
0.0
  0
LINE
  5
64
330
1F
100
AcDbEntity
  8
0
  6
Continuous
 62
     7
370
    40
100
AcDbLine
 10
321.6788435654
 20
65.4647801566
 30
0.0
 11
321.6788435654
 21
10.2147801566
 31
0.0
  0
LINE
  5
65
330
1F
100
AcDbEntity
  8
0
  6
Continuous
 62
     7
370
    40
100
AcDbLine
 10
365.8788435654
 20
10.2147801566
 30
0.0
 11
365.8788435654
 21
14.4647801566
 31
0.0
  0
LINE
  5
66
330
1F
100
AcDbEntity
  8
0
  6
Continuous
 62
     7
370
    40
100
AcDbLine
 10
373.6788435654
 20
59.0897801566
 30
0.0
 11
373.6788435654
 21
65.4647801566
 31
0.0
  0
LINE
  5
67
330
1F
100
AcDbEntity
  8
0
  6
Continuous
 62
     7
370
    40
100
AcDbLine
 10
397.0788435654
 20
14.4647801566
 30
0.0
 11
397.0788435654
 21
27.2147801566
 31
0.0
  0
LINE
  5
68
330
1F
100
AcDbEntity
  8
0
  6
Continuous
 62
     7
370
    40
100
AcDbLine
 10
410.0788435654
 20
59.0897801566
 30
0.0
 11
321.6788435654
 21
59.0897801566
 31
0.0
  0
LINE
  5
69
330
1F
100
AcDbEntity
  8
0
  6
Continuous
 62
     7
370
    40
100
AcDbLine
 10
410.0788435654
 20
18.7147801566
 30
0.0
 11
397.0788435654
 21
18.7147801566
 31
0.0
  0
INSERT
  5
78
330
1F
100
AcDbEntity
  8
0
  6
Continuous
 62
     7
370
     0
100
AcDbBlockReference
  2
SW_NOTE_0
 10
224.700995485
 20
137.179674021
 30
0.0
  0
INSERT
  5
7E
330
1F
100
AcDbEntity
  8
0
  6
Continuous
 62
     7
370
     0
100
AcDbBlockReference
  2
SW_NOTE_1
 10
15.4516239472
 20
10.346043956
 30
0.0
  0
MTEXT
  5
7F
330
1F
100
AcDbEntity
  8
0
  6
Continuous
 62
     7
370
     0
100
AcDbMText
 10
396.7385966686
 20
62.9900954614
 30
0.0
 40
1.905
 41
0.0
 71
     2
 72
     1
  1
4
  7
SLDTEXTSTYLE0
 73
     1
 44
1.0
  0
MTEXT
  5
80
330
1F
100
AcDbEntity
  8
0
  6
Continuous
 62
     7
370
     0
100
AcDbMText
 10
365.834921583
 20
40.9905976457
 30
0.0
 40
4.2333333333
 41
0.0
 71
     2
 72
     1
  1
Pale
  7
SLDTEXTSTYLE0
 73
     1
 44
1.0
  0
MTEXT
  5
81
330
1F
100
AcDbEntity
  8
0
  6
Continuous
 62
     7
370
     0
100
AcDbMText
 10
362.4363955485
 20
24.8465186829
 30
0.0
 40
6.35
 41
0.0
 71
     2
 72
     1
  1
ASD-ST000006
  7
SLDTEXTSTYLE0
 73
     1
 44
1.0
  0
MTEXT
  5
82
330
1F
100
AcDbEntity
  8
0
  6
Continuous
 62
     7
370
     0
100
AcDbMText
 10
272.5013426731
 20
42.773880237
 30
0.0
 40
1.4986
 41
0.0
 71
     2
 72
     1
  1
27-02/2014
  7
SLDTEXTSTYLE0
 73
     1
 44
1.0
  0
MTEXT
  5
83
330
1F
100
AcDbEntity
  8
0
  6
Continuous
 62
     7
370
     0
100
AcDbMText
 10
240.1135264709
 20
42.5981456645
 30
0.0
 40
1.4986
 41
0.0
 71
     2
 72
     1
  1
BRESSON-T
  7
SLDTEXTSTYLE0
 73
     1
 44
1.0
  0
MTEXT
  5
85
330
1F
100
AcDbEntity
  8
0
  6
Continuous
 62
     7
370
     0
100
AcDbMText
 10
278.4966546935
 20
13.1640920602
 30
0.0
 40
1.4986
 41
0.0
 71
     1
 72
     1
  1
MASSE:   3 kg
  7
SLDTEXTSTYLE2
 73
     1
 44
1.0
  0
MTEXT
  5
86
330
1F
100
AcDbEntity
  8
0
  6
Continuous
 62
     7
370
     0
100
AcDbMText
 10
299.9649546456
 20
21.700345848
 30
0.0
 40
2.38125
 41
0.0
 71
     2
 72
     1
  1
Aluminium
  7
SLDTEXTSTYLE0
 73
     1
 44
1.0
  0
MTEXT
  5
87
330
1F
100
AcDbEntity
  8
0
  6
Continuous
 62
     7
370
     0
100
AcDbMText
 10
400.9998284117
 20
24.5152246096
 30
0.0
 40
2.9104166667
 41
0.0
 71
     1
 72
     1
  1
A3
  7
SLDTEXTSTYLE0
 73
     1
 44
1.0
  0
MTEXT
  5
89
330
1F
100
AcDbEntity
  8
0
  6
Continuous
 62
     7
370
     0
100
AcDbMText
 10
367.3571379932
 20
13.114867664
 30
0.0
 40
1.5
 41
0.0
 71
     1
 72
     1
  1
FEUILLE 1 SUR 1
  7
SLDTEXTSTYLE3
 73
     1
 44
1.0
  0
MTEXT
  5
8A
330
1F
100
AcDbEntity
  8
0
  6
Continuous
 62
     7
370
     0
100
AcDbMText
 10
322.9528096828
 20
13.114867664
 30
0.0
 40
1.5
 41
0.0
 71
     1
 72
     1
  1
ECHELLE: 1:10
  7
SLDTEXTSTYLE0
 73
     1
 44
1.0
  0
MTEXT
  5
8B
330
1F
100
AcDbEntity
  8
0
  6
Continuous
 62
     7
370
     0
100
AcDbMText
 10
322.9528096828
 20
25.0834182165
 30
0.0
 40
1.5
 41
0.0
 71
     1
 72
     1
  1
No. DE PLAN
  7
SLDTEXTSTYLE0
 73
     1
 44
1.0
  0
MTEXT
  5
8C
330
1F
100
AcDbEntity
  8
0
  6
Continuous
 62
     7
370
     0
100
AcDbMText
 10
322.835030502
 20
46.4931146755
 30
0.0
 40
1.5
 41
0.0
 71
     1
 72
     1
  1
TITRE:
  7
SLDTEXTSTYLE0
 73
     1
 44
1.0
  0
MTEXT
  5
8D
330
1F
100
AcDbEntity
  8
0
  6
Continuous
 62
     7
370
     0
100
AcDbMText
 10
376.2064252647
 20
62.5496890699
 30
0.0
 40
1.5
 41
0.0
 71
     1
 72
     1
  1
REVISION
  7
SLDTEXTSTYLE0
 73
     1
 44
1.0
  0
MTEXT
  5
8E
330
1F
100
AcDbEntity
  8
0
  6
Continuous
 62
     7
370
     0
100
AcDbMText
 10
335.4934840882
 20
62.7477739645
 30
0.0
 40
1.5
 41
0.0
 71
     1
 72
     1
  1
NE PAS CHANGER L'ECHELLE
  7
SLDTEXTSTYLE0
 73
     1
 44
1.0
  0
MTEXT
  5
8F
330
1F
100
AcDbEntity
  8
0
  6
Continuous
 62
     7
370
     0
100
AcDbMText
 10
278.5247058741
 20
26.2008366787
 30
0.0
 40
1.5
 41
0.0
 71
     1
 72
     1
  1
MATERIAU:
  7
SLDTEXTSTYLE0
 73
     1
 44
1.0
  0
MTEXT
  5
90
330
1F
100
AcDbEntity
  8
0
  6
Continuous
 62
     7
370
     0
100
AcDbMText
 10
270.0935455311
 20
46.7909596107
 30
0.0
 40
1.5
 41
0.0
 71
     1
 72
     1
  1
DATE
  7
SLDTEXTSTYLE0
 73
     1
 44
1.0
  0
MTEXT
  5
91
330
1F
100
AcDbEntity
  8
0
  6
Continuous
 62
     7
370
     0
100
AcDbMText
 10
252.9124311285
 20
46.776536769
 30
0.0
 40
1.5
 41
0.0
 71
     1
 72
     1
  1
SIGNATURE
  7
SLDTEXTSTYLE0
 73
     1
 44
1.0
  0
MTEXT
  5
92
330
1F
100
AcDbEntity
  8
0
  6
Continuous
 62
     7
370
     0
100
AcDbMText
 10
237.201082783
 20
46.7162630229
 30
0.0
 40
1.5
 41
0.0
 71
     1
 72
     1
  1
NOM
  7
SLDTEXTSTYLE0
 73
     1
 44
1.0
  0
INSERT
  5
98
330
1F
100
AcDbEntity
  8
0
  6
Continuous
 62
     7
370
     0
100
AcDbBlockReference
  2
SW_NOTE_2
 10
304.1880592516
 20
62.2842700325
 30
0.0
  0
MTEXT
  5
99
330
1F
100
AcDbEntity
  8
0
  6
Continuous
 62
     7
370
     0
100
AcDbMText
 10
257.2501357322
 20
64.1340523846
 30
0.0
 40
1.5
 41
0.0
 71
     1
 72
     1
  1
FINITION:
  7
SLDTEXTSTYLE0
 73
     1
 44
1.0
  0
MTEXT
  5
9A
330
1F
100
AcDbEntity
  8
0
  6
Continuous
 62
     7
370
     0
100
AcDbMText
 10
223.5478864275
 20
25.5644295968
 30
0.0
 40
1.5
 41
0.0
 71
     1
 72
     1
  1
QUAL.
  7
SLDTEXTSTYLE0
 73
     1
 44
1.0
  0
MTEXT
  5
9B
330
1F
100
AcDbEntity
  8
0
  6
Continuous
 62
     7
370
     0
100
AcDbMText
 10
223.3340300644
 20
29.9484850401
 30
0.0
 40
1.5
 41
0.0
 71
     1
 72
     1
  1
FAB.
  7
SLDTEXTSTYLE0
 73
     1
 44
1.0
  0
MTEXT
  5
9C
330
1F
100
AcDbEntity
  8
0
  6
Continuous
 62
     7
370
     0
100
AcDbMText
 10
223.2805659737
 20
34.2790763926
 30
0.0
 40
1.5
 41
0.0
 71
     1
 72
     1
  1
APPR.
  7
SLDTEXTSTYLE0
 73
     1
 44
1.0
  0
MTEXT
  5
9D
330
1F
100
AcDbEntity
  8
0
  6
Continuous
 62
     7
370
     0
100
AcDbMText
 10
223.289312433
 20
38.3691875495
 30
0.0
 40
1.5
 41
0.0
 71
     1
 72
     1
  1
VERIF.
  7
SLDTEXTSTYLE0
 73
     1
 44
1.0
  0
MTEXT
  5
9E
330
1F
100
AcDbEntity
  8
0
  6
Continuous
 62
     7
370
     0
100
AcDbMText
 10
223.0909928094
 20
42.6444952754
 30
0.0
 40
1.5
 41
0.0
 71
     1
 72
     1
  1
AUTEUR
  7
SLDTEXTSTYLE0
 73
     1
 44
1.0
  0
INSERT
  5
A9
330
1F
100
AcDbEntity
  8
0
  6
Continuous
 62
     7
370
     0
100
AcDbBlockReference
  2
SW_NOTE_3
 10
224.8035244616
 20
60.9657407215
 30
0.0
  0
INSERT
  5
CF
330
1F
100
AcDbEntity
  8
0
  6
Continuous
 62
     7
370
     0
100
AcDbBlockReference
  2
SW_TABLEANNOTATION_0
 10
223.2418831857
 20
97.8242537497
 30
0.0
  0
LINE
  5
D0
330
1F
100
AcDbEntity
  8
0
  6
Continuous
 62
     7
370
    15
100
AcDbLine
 10
70.1076609833
 20
52.6197646667
 30
0.0
 11
70.1076609833
 21
55.3197646667
 31
0.0
  0
LINE
  5
D1
330
1F
100
AcDbEntity
  8
0
  6
Continuous
 62
     7
370
    15
100
AcDbLine
 10
70.1076609833
 20
155.3197646667
 30
0.0
 11
70.1076609833
 21
167.8197646667
 31
0.0
  0
LINE
  5
D2
330
1F
100
AcDbEntity
  8
0
  6
Continuous
 62
     7
370
    15
100
AcDbLine
 10
68.9076609833
 20
167.8197646667
 30
0.0
 11
68.9076609833
 21
155.3197646667
 31
0.0
  0
LINE
  5
D3
330
1F
100
AcDbEntity
  8
0
  6
Continuous
 62
     7
370
    15
100
AcDbLine
 10
68.9076609833
 20
55.3197646667
 30
0.0
 11
68.9076609833
 21
52.6197646667
 31
0.0
  0
LINE
  5
D4
330
1F
100
AcDbEntity
  8
0
  6
Continuous
 62
     7
370
    15
100
AcDbLine
 10
72.1076609833
 20
55.3197646667
 30
0.0
 11
72.1076609833
 21
155.3197646667
 31
0.0
  0
LINE
  5
D5
330
1F
100
AcDbEntity
  8
0
  6
Continuous
 62
     7
370
    15
100
AcDbLine
 10
66.9076609833
 20
155.3197646667
 30
0.0
 11
66.9076609833
 21
55.3197646667
 31
0.0
  0
LINE
  5
D6
330
1F
100
AcDbEntity
  8
0
  6
Continuous
 62
     7
370
    15
100
AcDbLine
 10
68.9076609833
 20
52.6197646667
 30
0.0
 11
70.1076609833
 21
52.6197646667
 31
0.0
  0
SPLINE
  5
D7
330
1F
100
AcDbEntity
  8
0
  6
Continuous
 62
     7
370
    15
100
AcDbSpline
210
0.0
220
0.0
230
1.0
 70
    11
 71
     3
 72
    26
 73
    22
 74
     0
 42
0.00000001
 43
0.00000001
 40
0.0
 40
0.0
 40
0.0
 40
0.0
 40
0.0517212690440689
 40
0.1033808355618568
 40
0.1566628191707645
 40
0.2114488580279377
 40
0.2643670380803664
 40
0.314886544182229
 40
0.3662422203164947
 40
0.4202737228166339
 40
0.4748118360090316
 40
0.5269790362733483
 40
0.5776549534004799
 40
0.6296814424786107
 40
0.6840621699453604
 40
0.7382989202434758
 40
0.7897502921522616
 40
0.8402510267224499
 40
0.8929667184305254
 40
0.9477133835255249
 40
0.9999999999999999
 40
0.9999999999999999
 40
0.9999999999999999
 40
0.9999999999999999
 10
69.50766098327654
 20
165.5597646667104
 30
0.0
 10
69.5294821297026
 20
165.5576737360201
 30
0.0
 10
69.57309839032686
 20
165.5534943690816
 30
0.0
 10
69.6315539339172
 20
165.5210553895554
 30
0.0
 10
69.67756887855211
 20
165.4724270492472
 30
0.0
 10
69.70531232400386
 20
165.4098361803113
 30
0.0
 10
69.71051964909206
 20
165.3422107467282
 30
0.0
 10
69.69408336175947
 20
165.2783321722144
 30
0.0
 10
69.6585665378003
 20
165.2230650987624
 30
0.0
 10
69.60584174623236
 20
165.1810696092226
 30
0.0
 10
69.54106261227722
 20
165.1586742765289
 30
0.0
 10
69.47360668141977
 20
165.1590714975274
 30
0.0
 10
69.41135972777033
 20
165.1805223644054
 30
0.0
 10
69.35882648594126
 20
165.2207095303243
 30
0.0
 10
69.32123692783266
 20
165.2771392135307
 30
0.0
 10
69.30452848120561
 20
165.3434973847534
 30
0.0
 10
69.31050580944394
 20
165.4100870261554
 30
0.0
 10
69.33670776203557
 20
165.470200577298
 30
0.0
 10
69.381155154027
 20
165.5192400744376
 30
0.0
 10
69.44044473365466
 20
165.5532361839076
 30
0.0
 10
69.48560152737693
 20
165.5576221077416
 30
0.0
 10
69.50766098327654
 20
165.5597646667104
 30
0.0
  0
LINE
  5
D8
330
1F
100
AcDbEntity
  8
0
  6
Continuous
 62
     7
370
    15
100
AcDbLine
 10
68.9076609833
 20
167.8197646667
 30
0.0
 11
70.1076609833
 21
167.8197646667
 31
0.0
  0
LINE
  5
D9
330
1F
100
AcDbEntity
  8
0
  6
Continuous
 62
     7
370
    15
100
AcDbLine
 10
70.5940340046
 20
55.3197646667
 30
0.0
 11
70.5940340046
 21
155.3197646667
 31
0.0
  0
LINE
  5
DA
330
1F
100
AcDbEntity
  8
0
  6
Continuous
 62
     7
370
    15
100
AcDbLine
 10
68.4212879619
 20
55.3197646667
 30
0.0
 11
70.5940340046
 21
55.3197646667
 31
0.0
  0
LINE
  5
DB
330
1F
100
AcDbEntity
  8
0
  6
Continuous
 62
     7
370
    15
100
AcDbLine
 10
68.4212879619
 20
55.3197646667
 30
0.0
 11
68.4212879619
 21
155.3197646667
 31
0.0
  0
LINE
  5
DC
330
1F
100
AcDbEntity
  8
0
  6
Continuous
 62
     7
370
    15
100
AcDbLine
 10
68.4212879619
 20
155.3197646667
 30
0.0
 11
70.5940340046
 21
155.3197646667
 31
0.0
  0
LINE
  5
DD
330
1F
100
AcDbEntity
  8
0
  6
Continuous
 62
     7
370
    15
100
AcDbLine
 10
70.5940340046
 20
55.3197646667
 30
0.0
 11
72.1076609833
 21
55.3197646667
 31
0.0
  0
LINE
  5
DE
330
1F
100
AcDbEntity
  8
0
  6
Continuous
 62
     7
370
    15
100
AcDbLine
 10
70.5940340046
 20
155.3197646667
 30
0.0
 11
72.1076609833
 21
155.3197646667
 31
0.0
  0
LINE
  5
DF
330
1F
100
AcDbEntity
  8
0
  6
Continuous
 62
     7
370
    15
100
AcDbLine
 10
66.9076609833
 20
55.3197646667
 30
0.0
 11
68.4212879619
 21
55.3197646667
 31
0.0
  0
LINE
  5
E0
330
1F
100
AcDbEntity
  8
0
  6
Continuous
 62
     7
370
    15
100
AcDbLine
 10
66.9076609833
 20
155.3197646667
 30
0.0
 11
68.4212879619
 21
155.3197646667
 31
0.0
  0
DIMENSION
  5
E1
330
1F
100
AcDbEntity
  8
0
  6
Continuous
 62
     7
370
     0
100
AcDbDimension
  2
*D6
 10
56.9576609833
 20
155.3197646667
 30
0.0
 11
56.9576609833
 21
161.5697646667
 31
0.0
 70
   160
 71
     2
 42
-1.0
  3
SLDDIMSTYLE0
100
AcDbAlignedDimension
 13
68.9076609833
 23
167.8197646667
 33
0.0
 14
67.0076609833
 24
155.3197646667
 34
0.0
 50
90.0
100
AcDbRotatedDimension
  0
DIMENSION
  5
EE
330
1F
100
AcDbEntity
  8
0
  6
Continuous
 62
     7
370
     0
100
AcDbDimension
  2
*D7
 10
56.9082803914
 20
52.6197646667
 30
0.0
 11
56.9082803914
 21
44.7286932326
 31
0.0
 70
   160
  1
(<>)
 71
     2
 42
-1.0
  3
SLDDIMSTYLE0
100
AcDbAlignedDimension
 13
68.4212879619
 23
55.3197646667
 33
0.0
 14
68.9076609833
 24
52.6197646667
 34
0.0
 50
90.0
100
AcDbRotatedDimension
  0
INSERT
  5
101
330
1F
100
AcDbEntity
  8
0
  6
Continuous
 62
     7
370
     0
100
AcDbBlockReference
  2
SW_NOTE_4
 10
51.2170532666
 20
119.7945689379
 30
0.0
  0
LEADER
  5
10B
330
1F
100
AcDbEntity
  8
0
  6
Continuous
 62
     7
370
     0
100
AcDbLeader
  3
SLDDIMSTYLE1
 76
     2
 10
67.770710793
 20
129.6567493656
 30
0.0
 10
51.2170532666
 20
119.7945689379
 30
0.0
  0
CIRCLE
  5
10C
330
1F
100
AcDbEntity
  8
0
  6
Continuous
 62
     7
370
     0
100
AcDbCircle
 10
69.43557888
 20
159.1197646667
 30
0.0
 40
10.61541552775648
  0
MTEXT
  5
10D
330
1F
100
AcDbEntity
  8
0
  6
Continuous
 62
     7
370
     0
100
AcDbMText
 10
81.4692635793
 20
161.3690053375
 30
0.0
 40
3.5
 41
0.0
 71
     1
 72
     1
  1
B
  7
SLDTEXTSTYLE0
 73
     1
 44
1.0
  0
CIRCLE
  5
10E
330
1F
100
AcDbEntity
  8
0
  6
Continuous
 62
     7
370
    15
100
AcDbCircle
 10
69.5076609833
 20
227.7434951602
 30
0.0
 40
0.5999999999999943
  0
ARC
  5
10F
330
1F
100
AcDbEntity
  8
0
  6
Continuous
 62
     7
370
    15
100
AcDbCircle
 10
69.5076609833
 20
246.7434951602
 30
0.0
 40
1.099999999999966
100
AcDbArc
 50
9.027976916
 51
170.972023084
  0
ARC
  5
110
330
1F
100
AcDbEntity
  8
0
  6
Continuous
 62
     7
370
    15
100
AcDbCircle
 10
69.5076609833
 20
208.7434951602
 30
0.0
 40
0.9999999999999988
100
AcDbArc
 50
189.027976916
 51
350.972023084
  0
ARC
  5
111
330
1F
100
AcDbEntity
  8
0
  6
Continuous
 62
     7
370
    15
100
AcDbCircle
 10
69.5076609833
 20
246.7434951602
 30
0.0
 40
0.9999999999999898
100
AcDbArc
 50
9.027976916
 51
170.972023084
  0
ARC
  5
112
330
1F
100
AcDbEntity
  8
0
  6
Continuous
 62
     7
370
    15
100
AcDbCircle
 10
69.5076609833
 20
208.7434951602
 30
0.0
 40
1.099999999999985
100
AcDbArc
 50
189.027976916
 51
350.972023084
  0
ARC
  5
113
330
1F
100
AcDbEntity
  8
0
  6
Continuous
 62
     7
370
    15
100
AcDbCircle
 10
189.0909943166
 20
227.7434951602
 30
0.0
 40
122.1833333333319
100
AcDbArc
 50
170.972023084
 51
189.027976916
  0
ARC
  5
114
330
1F
100
AcDbEntity
  8
0
  6
Continuous
 62
     7
370
    15
100
AcDbCircle
 10
189.0909943166
 20
227.7434951602
 30
0.0
 40
122.0833333333319
100
AcDbArc
 50
170.972023084
 51
189.027976916
  0
ARC
  5
115
330
1F
100
AcDbEntity
  8
0
  6
Continuous
 62
     7
370
    15
100
AcDbCircle
 10
-50.0756723501
 20
227.7434951602
 30
0.0
 40
122.1833333333319
100
AcDbArc
 50
350.972023084
 51
9.027976916
  0
ARC
  5
116
330
1F
100
AcDbEntity
  8
0
  6
Continuous
 62
     7
370
    15
100
AcDbCircle
 10
-50.0756723501
 20
227.7434951602
 30
0.0
 40
122.0833333333319
100
AcDbArc
 50
350.972023084
 51
9.027976916
  0
CIRCLE
  5
117
330
1F
100
AcDbEntity
  8
0
  6
Continuous
 62
     7
370
    15
100
AcDbCircle
 10
69.5076609833
 20
246.7434951602
 30
0.0
 40
0.3400000000000029
  0
CIRCLE
  5
118
330
1F
100
AcDbEntity
  8
0
  6
Continuous
 62
     7
370
    15
100
AcDbCircle
 10
69.5076609833
 20
208.7434951602
 30
0.0
 40
0.3399999999999966
  0
CIRCLE
  5
119
330
1F
100
AcDbEntity
  8
0
  6
Continuous
 62
     7
370
    15
100
AcDbCircle
 10
69.5076609833
 20
208.7434951602
 30
0.0
 40
0.8649999999999949
  0
CIRCLE
  5
11A
330
1F
100
AcDbEntity
  8
0
  6
Continuous
 62
     7
370
    15
100
AcDbCircle
 10
69.5076609833
 20
208.7434951602
 30
0.0
 40
0.4500000000000028
  0
CIRCLE
  5
11B
330
1F
100
AcDbEntity
  8
0
  6
Continuous
 62
     7
370
    15
100
AcDbCircle
 10
69.5076609833
 20
246.7434951602
 30
0.0
 40
0.8649999999999949
  0
CIRCLE
  5
11C
330
1F
100
AcDbEntity
  8
0
  6
Continuous
 62
     7
370
    15
100
AcDbCircle
 10
69.5076609833
 20
246.7434951602
 30
0.0
 40
0.4500000000000028
  0
LINE
  5
11D
330
1F
100
AcDbEntity
  8
0
  6
CENTERX2
 62
     7
370
     0
100
AcDbLine
 10
69.5076609833
 20
227.7434951602
 30
0.0
 11
64.1763655922
 21
227.7434951602
 31
0.0
  0
LINE
  5
11E
330
1F
100
AcDbEntity
  8
0
  6
CENTERX2
 62
     7
370
     0
100
AcDbLine
 10
69.5076609833
 20
227.7434951602
 30
0.0
 11
69.5076609833
 21
231.583096895
 31
0.0
  0
LINE
  5
11F
330
1F
100
AcDbEntity
  8
0
  6
CENTER
 62
     7
370
     0
100
AcDbLine
 10
69.5076609833
 20
201.0055451235
 30
0.0
 11
69.5076609833
 21
253.7406853081
 31
0.0
  0
LINE
  5
120
330
1F
100
AcDbEntity
  8
0
  6
Continuous
 62
     7
370
     0
100
AcDbLine
 10
56.8076609833
 20
203.0055451235
 30
0.0
 11
69.5076609833
 21
203.0055451235
 31
0.0
  0
SOLID
  5
121
330
1F
100
AcDbEntity
  8
0
  6
Continuous
 62
     7
370
     0
100
AcDbTrace
 10
69.5076609833
 20
203.0055451235
 30
0.0
 11
63.1576609833
 21
204.0215451235
 31
0.0
 12
63.1576609833
 22
201.9895451235
 32
0.0
 13
63.1576609833
 23
201.9895451235
 33
0.0
  0
LINE
  5
122
330
1F
100
AcDbEntity
  8
0
  6
Continuous
 62
     7
370
     0
100
AcDbLine
 10
56.8076609833
 20
251.7406853081
 30
0.0
 11
69.5076609833
 21
251.7406853081
 31
0.0
  0
SOLID
  5
123
330
1F
100
AcDbEntity
  8
0
  6
Continuous
 62
     7
370
     0
100
AcDbTrace
 10
69.5076609833
 20
251.7406853081
 30
0.0
 11
63.1576609833
 21
252.7566853081
 31
0.0
 12
63.1576609833
 22
250.7246853081
 32
0.0
 13
63.1576609833
 23
250.7246853081
 33
0.0
  0
MTEXT
  5
124
330
1F
100
AcDbEntity
  8
0
  6
Continuous
 62
     7
100
AcDbMText
 10
56.8076609833
 20
208.5626156101
 30
0.0
 40
3.5
 41
0.0
 71
     1
 72
     1
  1
A
  7
SLDTEXTSTYLE0
 73
     1
 44
1.0
  0
MTEXT
  5
125
330
1F
100
AcDbEntity
  8
0
  6
Continuous
 62
     7
100
AcDbMText
 10
56.8076609833
 20
257.2977557948
 30
0.0
 40
3.5
 41
0.0
 71
     1
 72
     1
  1
A
  7
SLDTEXTSTYLE0
 73
     1
 44
1.0
  0
INSERT
  5
131
330
1F
100
AcDbEntity
  8
0
  6
Continuous
 62
     7
370
     0
100
AcDbBlockReference
  2
SW_DATUMTAG_0
 10
115.5977656471
 20
256.6950682056
 30
0.0
  0
INSERT
  5
13D
330
1F
100
AcDbEntity
  8
0
  6
Continuous
 62
     7
370
     0
100
AcDbBlockReference
  2
SW_DATUMTAG_1
 10
116.3967476266
 20
242.035739541
 30
0.0
  0
LINE
  5
13E
330
1F
100
AcDbEntity
  8
0
  6
Continuous
 62
     7
370
    15
100
AcDbLine
 10
367.6189485269
 20
162.5572074925
 30
0.0
 11
367.6189485269
 21
162.9956841609
 31
0.0
  0
LINE
  5
13F
330
1F
100
AcDbEntity
  8
0
  6
Continuous
 62
     7
370
    15
100
AcDbLine
 10
367.6189485269
 20
246.4159488731
 30
0.0
 11
367.6189485269
 21
256.6227090217
 31
0.0
  0
LINE
  5
140
330
1F
100
AcDbEntity
  8
0
  6
Continuous
 62
     7
370
    15
100
AcDbLine
 10
366.4189485269
 20
256.6227090217
 30
0.0
 11
366.4189485269
 21
246.4159488731
 31
0.0
  0
LINE
  5
141
330
1F
100
AcDbEntity
  8
0
  6
Continuous
 62
     7
370
    15
100
AcDbLine
 10
352.4839196843
 20
238.6600718108
 30
0.0
 11
352.4839196843
 21
157.0059906223
 31
0.0
  0
LINE
  5
142
330
1F
100
AcDbEntity
  8
0
  6
Continuous
 62
     7
370
    15
100
AcDbLine
 10
381.5539773694
 20
172.5177447469
 30
0.0
 11
381.5539773694
 21
254.1718259355
 31
0.0
  0
LWPOLYLINE
  5
143
330
1F
100
AcDbEntity
  8
0
  6
Continuous
 62
     7
370
    15
100
AcDbPolyline
 90
       26
 70
   128
 43
0.0
 10
367.4432125956
 20
256.8676314553
 10
367.3243733763
 20
256.920846499
 10
367.1863431905
 20
256.9553284686
 10
367.0377949823
 20
256.968910735
 10
366.888062582
 20
256.9607398745
 10
366.746554227
 20
256.9313292924
 10
366.6221614077
 20
256.8825269636
 10
366.5227001823
 20
256.817399318
 10
366.4544200655
 20
256.7400385651
 10
366.4216113481
 20
256.6553055654
 10
366.4263355225
 20
256.5685244051
 10
366.4682957515
 20
256.4851478634
 10
366.5448555195
 20
256.4104147953
 10
366.6512042947
 20
256.3490209541
 10
366.7806597925
 20
256.3048239408
 10
366.9250878479
 20
256.2806008163
 10
367.0754135149
 20
256.2778736084
 10
367.222191279
 20
256.2968136778
 10
367.3561985536
 20
256.3362309503
 10
367.4690151687
 20
256.3936486935
 10
367.5535524414
 20
256.4654591396
 10
367.604498584
 20
256.5471501741
 10
367.6186524631
 20
256.6335888489
 10
367.5951247383
 20
256.7193439041
 10
367.5353937431
 20
256.7990270343
 10
367.4432125956
 20
256.8676314553
  0
LWPOLYLINE
  5
144
330
1F
100
AcDbEntity
  8
0
  6
Continuous
 62
     7
370
    15
100
AcDbPolyline
 90
       12
 70
   128
 43
0.0
 10
366.5049702399
 20
162.3785033089
 10
366.5448555195
 20
162.344913266
 10
366.6512042947
 20
162.2835194249
 10
366.7806597925
 20
162.2393224116
 10
366.9250878479
 20
162.215099287
 10
367.0754135149
 20
162.2123720792
 10
367.222191279
 20
162.2313121486
 10
367.3561985536
 20
162.270729421
 10
367.4690151687
 20
162.3281471643
 10
367.5535524414
 20
162.3999576103
 10
367.604498584
 20
162.4816486448
 10
367.6189485269
 20
162.5572074925
  0
SPLINE
  5
145
330
1F
100
AcDbEntity
  8
0
  6
Continuous
 62
     7
370
    15
100
AcDbSpline
210
0.0
220
0.0
230
1.0
 70
    11
 71
     3
 72
    26
 73
    22
 74
     0
 42
0.00000001
 43
0.00000001
 40
0.0
 40
0.0
 40
0.0
 40
0.0
 40
0.0517212690440689
 40
0.1033808355618568
 40
0.1566628191707645
 40
0.2114488580279377
 40
0.2643670380803664
 40
0.314886544182229
 40
0.3662422203164947
 40
0.4202737228166339
 40
0.4748118360090316
 40
0.5269790362733483
 40
0.5776549534004799
 40
0.6296814424786107
 40
0.6840621699453604
 40
0.7382989202434758
 40
0.7897502921522616
 40
0.8402510267224499
 40
0.8929667184305254
 40
0.9477133835255249
 40
0.9999999999999999
 40
0.9999999999999999
 40
0.9999999999999999
 40
0.9999999999999999
 10
366.5946844581658
 20
254.5324043533068
 30
0.0
 10
366.6106189135002
 20
254.5220808273752
 30
0.0
 10
366.6424688146557
 20
254.5014460912892
 30
0.0
 10
366.6909140701662
 20
254.4552016113571
 30
0.0
 10
366.7318610551798
 20
254.4015658041115
 30
0.0
 10
366.7580841425267
 20
254.3429460973556
 30
0.0
 10
366.7631189602554
 20
254.2863824068778
 30
0.0
 10
366.7473612801462
 20
254.2385449469909
 30
0.0
 10
366.7146081206062
 20
254.2035053526158
 30
0.0
 10
366.6690784022649
 20
254.1859755220885
 30
0.0
 10
366.6180507167506
 20
254.1911173735626
 30
0.0
 10
366.5704507875947
 20
254.2190344356639
 30
0.0
 10
366.5314132173868
 20
254.2648329522252
 30
0.0
 10
366.5022448129442
 20
254.3236974166157
 30
0.0
 10
366.4836955789695
 20
254.389754731273
 30
0.0
 10
366.4761145838452
 20
254.45320338231
 30
0.0
 10
366.4787893878442
 20
254.5042407343837
 30
0.0
 10
366.4911038934248
 20
254.5390434283498
 30
0.0
 10
366.5142443383539
 20
254.5561576622971
 30
0.0
 10
366.5487310318695
 20
254.5554211237672
 30
0.0
 10
366.5796031707313
 20
254.5399581432874
 30
0.0
 10
366.5946844581658
 20
254.5324043533068
 30
0.0
  0
LWPOLYLINE
  5
146
330
1F
100
AcDbEntity
  8
0
  6
Continuous
 62
     7
370
    15
100
AcDbPolyline
 90
       16
 70
   128
 43
0.0
 10
352.6936853864
 20
239.0330742369
 10
352.5884118144
 20
238.9302055019
 10
352.5183803198
 20
238.8177737361
 10
352.4860700946
 20
238.6997591481
 10
352.4926249566
 20
238.5803395845
 10
352.5378128565
 20
238.4637426298
 10
352.6200340926
 20
238.3540959448
 10
352.7363779425
 20
238.2552811431
 10
352.8827257055
 20
238.1707963778
 10
353.0538965093
 20
238.1036325029
 10
353.2438307184
 20
238.0561671936
 10
353.4458044523
 20
238.0300807743
 10
353.6526676178
 20
238.026296733
 10
353.8570970307
 20
238.0449490289
 10
354.0518556639
 20
238.0853773503
 10
354.230048847
 20
238.1461504898
  0
ARC
  5
147
330
1F
100
AcDbEntity
  8
0
  6
Continuous
 62
     7
370
    15
100
AcDbCircle
 10
430.2809608871
 20
133.689866768
 30
0.0
 40
131.1012517058371
100
AcDbArc
 50
112.6433286532
 51
118.5526778933
  0
ARC
  5
148
330
1F
100
AcDbEntity
  8
0
  6
Continuous
 62
     7
370
    15
100
AcDbCircle
 10
416.5558670356
 20
158.0978371701
 30
0.0
 40
103.0965122787222
100
AcDbArc
 50
119.0983698506
 51
128.2753071068
  0
LWPOLYLINE
  5
149
330
1F
100
AcDbEntity
  8
0
  6
Continuous
 62
     7
370
    15
100
AcDbPolyline
 90
       16
 70
   128
 43
0.0
 10
381.3442116673
 20
253.7988235094
 10
381.4494852393
 20
253.9016922444
 10
381.519516734
 20
254.0141240102
 10
381.5518269591
 20
254.1321385982
 10
381.5452720971
 20
254.2515581618
 10
381.5000841973
 20
254.3681551165
 10
381.4178629611
 20
254.4778018015
 10
381.3015191112
 20
254.5766166032
 10
381.1551713482
 20
254.6611013685
 10
380.9840005445
 20
254.7282652434
 10
380.7940663353
 20
254.7757305527
 10
380.5920926014
 20
254.801816972
 10
380.3852294359
 20
254.8056010133
 10
380.1808000231
 20
254.7869487174
 10
379.9860413898
 20
254.746520396
 10
379.8078482067
 20
254.6857472565
  0
LWPOLYLINE
  5
14A
330
1F
100
AcDbEntity
  8
0
  6
Continuous
 62
     7
370
    15
100
AcDbPolyline
 90
       19
 70
   128
 43
0.0
 10
354.230048847
 20
238.1461504898
 10
355.9501681575
 20
238.8802261724
 10
357.6477624971
 20
239.6315735271
 10
359.3223115424
 20
240.399962261
 10
360.9733020334
 20
241.1851568582
 10
362.6002279311
 20
241.9869166514
 10
364.2025905723
 20
242.8049958962
 10
365.7798988226
 20
243.6391438461
 10
367.331669227
 20
244.4891048295
 10
368.857426158
 20
245.3546183278
 10
370.3567019613
 20
246.2354190557
 10
371.8290370995
 20
247.1312370421
 10
373.2739802924
 20
248.0417977132
 10
374.6910886556
 20
248.9668219762
 10
376.0799278366
 20
249.9060263054
 10
377.4400721471
 20
250.8591228287
 10
378.7711046944
 20
251.8258194158
 10
380.0726175085
 20
252.8058197682
 10
381.3442116673
 20
253.7988235094
  0
LWPOLYLINE
  5
14B
330
1F
100
AcDbEntity
  8
0
  6
Continuous
 62
     7
370
    15
100
AcDbPolyline
 90
       16
 70
   128
 43
0.0
 10
381.2632812766
 20
253.8327328209
 10
381.3589845239
 20
253.9262498527
 10
381.422649519
 20
254.0284605489
 10
381.452022451
 20
254.135746538
 10
381.4460634855
 20
254.2443097775
 10
381.4049835766
 20
254.3503070091
 10
381.3302369983
 20
254.4499858137
 10
381.224469862
 20
254.5398174516
 10
381.0914264411
 20
254.6166217837
 10
380.9358166195
 20
254.6776798518
 10
380.7631491566
 20
254.720830133
 10
380.5795366713
 20
254.7445450596
 10
380.391479248
 20
254.7479850972
 10
380.2056343273
 20
254.7310284645
 10
380.0285810244
 20
254.6942754451
 10
379.8665872215
 20
254.6390271364
  0
ARC
  5
14C
330
1F
100
AcDbEntity
  8
0
  6
Continuous
 62
     7
370
    15
100
AcDbCircle
 10
430.2792018831
 20
133.7847498758
 30
0.0
 40
130.9472720189458
100
AcDbArc
 50
112.642751751
 51
118.5884688743
  0
ARC
  5
14D
330
1F
100
AcDbEntity
  8
0
  6
Continuous
 62
     7
370
    15
100
AcDbCircle
 10
416.5592947712
 20
158.1649179283
 30
0.0
 40
102.9692224015107
100
AcDbArc
 50
119.1399811721
 51
128.2762610701
  0
LWPOLYLINE
  5
14E
330
1F
100
AcDbEntity
  8
0
  6
Continuous
 62
     7
370
    15
100
AcDbPolyline
 90
       16
 70
   128
 43
0.0
 10
352.7746157772
 20
238.9991649254
 10
352.6789125299
 20
238.9056478936
 10
352.6152475347
 20
238.8034371974
 10
352.5858746028
 20
238.6961512083
 10
352.5918335683
 20
238.5875879687
 10
352.6329134772
 20
238.4815907372
 10
352.7076600555
 20
238.3819119326
 10
352.8134271918
 20
238.2920802947
 10
352.9464706127
 20
238.2152759626
 10
353.1020804343
 20
238.1542178945
 10
353.2747478971
 20
238.1110676133
 10
353.4583603825
 20
238.0873526867
 10
353.6464178057
 20
238.0839126491
 10
353.8322627264
 20
238.1008692818
 10
354.0093160294
 20
238.1376223012
 10
354.1713098322
 20
238.1928706099
  0
LWPOLYLINE
  5
14F
330
1F
100
AcDbEntity
  8
0
  6
Continuous
 62
     7
370
    15
100
AcDbPolyline
 90
       19
 70
   128
 43
0.0
 10
354.1713098322
 20
238.1928706099
 10
355.8900213244
 20
238.926345494
 10
357.5862262811
 20
239.6770779143
 10
359.2594048048
 20
240.4448377664
 10
360.9090440555
 20
241.2293897271
 10
362.5346384083
 20
242.0304933263
 10
364.1356896082
 20
242.8479030205
 10
365.7117069228
 20
243.6813682685
 10
367.2622072928
 20
244.5306336079
 10
368.7867154798
 20
245.3954387334
 10
370.2847642126
 20
246.2755185767
 10
371.7558943295
 20
247.1706033879
 10
373.1996549198
 20
248.0804188177
 10
374.6156034618
 20
249.0046860018
 10
376.0033059581
 20
249.9431216465
 10
377.3623370691
 20
250.8954381153
 10
378.6922802431
 20
251.8613435171
 10
379.9927278441
 20
252.8405417958
 10
381.2632812766
 20
253.8327328209
  0
LINE
  5
150
330
1F
100
AcDbEntity
  8
0
  6
Continuous
 62
     7
370
    15
100
AcDbLine
 10
381.3442116673
 20
172.1447423208
 30
0.0
 11
381.3442116673
 21
253.7988235094
 31
0.0
  0
LWPOLYLINE
  5
151
330
1F
100
AcDbEntity
  8
0
  6
Continuous
 62
     7
370
    15
100
AcDbPolyline
 90
       19
 70
   128
 43
0.0
 10
354.230048847
 20
156.4920693012
 10
355.9501681575
 20
157.2261449839
 10
357.6477624971
 20
157.9774923385
 10
359.3223115424
 20
158.7458810725
 10
360.9733020334
 20
159.5310756696
 10
362.6002279311
 20
160.3328354628
 10
364.2025905723
 20
161.1509147076
 10
365.7798988226
 20
161.9850626576
 10
367.331669227
 20
162.8350236409
 10
368.857426158
 20
163.7005371392
 10
370.3567019613
 20
164.5813378671
 10
371.8290370995
 20
165.4771558535
 10
373.2739802924
 20
166.3877165246
 10
374.6910886556
 20
167.3127407876
 10
376.0799278366
 20
168.2519451168
 10
377.4400721471
 20
169.2050416401
 10
378.7711046944
 20
170.1717382272
 10
380.0726175085
 20
171.1517385796
 10
381.3442116673
 20
172.1447423208
  0
LINE
  5
152
330
1F
100
AcDbEntity
  8
0
  6
Continuous
 62
     7
370
    15
100
AcDbLine
 10
354.230048847
 20
156.4920693012
 30
0.0
 11
354.230048847
 21
238.1461504898
 31
0.0
  0
LWPOLYLINE
  5
153
330
1F
100
AcDbEntity
  8
0
  6
Continuous
 62
     7
370
    15
100
AcDbPolyline
 90
       13
 70
   128
 43
0.0
 10
352.4839196843
 20
157.0059906223
 10
352.4926249566
 20
156.926258396
 10
352.5378128565
 20
156.8096614412
 10
352.6200340926
 20
156.7000147562
 10
352.7363779425
 20
156.6011999545
 10
352.8827257055
 20
156.5167151892
 10
353.0538965093
 20
156.4495513143
 10
353.2438307184
 20
156.402086005
 10
353.4458044523
 20
156.3759995857
 10
353.6526676178
 20
156.3722155444
 10
353.8570970307
 20
156.3908678403
 10
354.0518556639
 20
156.4312961617
 10
354.230048847
 20
156.4920693012
  0
ARC
  5
154
330
1F
100
AcDbEntity
  8
0
  6
Continuous
 62
     7
370
    15
100
AcDbCircle
 10
381.0768449994
 20
172.540585823
 30
0.0
 40
0.4776787762437787
100
AcDbArc
 50
304.0364799843
 51
357.2592533954
  0
ARC
  5
155
330
1F
100
AcDbEntity
  8
0
  6
Continuous
 62
     7
370
    15
100
AcDbCircle
 10
367.330877429
 20
246.4371367431
 30
0.0
 40
0.2888492396907147
100
AcDbArc
 50
292.8864369298
 51
355.7934221125
  0
LWPOLYLINE
  5
156
330
1F
100
AcDbEntity
  8
0
  6
Continuous
 62
     7
370
    15
100
AcDbPolyline
 90
       11
 70
   128
 43
0.0
 10
366.4189485269
 20
246.4159488731
 10
366.4216113481
 20
246.3833523294
 10
366.4544200655
 20
246.2986193298
 10
366.5227001823
 20
246.2212585768
 10
366.6221614077
 20
246.1561309312
 10
366.746554227
 20
246.1073286025
 10
366.888062582
 20
246.0779180203
 10
367.0377949823
 20
246.0697471599
 10
367.1863431905
 20
246.0833294263
 10
367.3243733763
 20
246.1178113959
 10
367.4432125956
 20
246.1710264396
  0
LWPOLYLINE
  5
157
330
1F
100
AcDbEntity
  8
0
  6
Continuous
 62
     7
370
    15
100
AcDbPolyline
 90
       16
 70
   128
 43
0.0
 10
381.2632812766
 20
253.8327328209
 10
381.3589845239
 20
253.9262498527
 10
381.422649519
 20
254.0284605489
 10
381.452022451
 20
254.135746538
 10
381.4460634855
 20
254.2443097775
 10
381.4049835766
 20
254.3503070091
 10
381.3302369983
 20
254.4499858137
 10
381.224469862
 20
254.5398174516
 10
381.0914264411
 20
254.6166217837
 10
380.9358166195
 20
254.6776798518
 10
380.7631491566
 20
254.720830133
 10
380.5795366713
 20
254.7445450596
 10
380.391479248
 20
254.7479850972
 10
380.2056343273
 20
254.7310284645
 10
380.0285810244
 20
254.6942754451
 10
379.8665872215
 20
254.6390271364
  0
LWPOLYLINE
  5
158
330
1F
100
AcDbEntity
  8
0
  6
Continuous
 62
     7
370
    15
100
AcDbPolyline
 90
       19
 70
   128
 43
0.0
 10
354.1713098322
 20
238.1928706099
 10
355.8900213244
 20
238.926345494
 10
357.5862262811
 20
239.6770779143
 10
359.2594048048
 20
240.4448377664
 10
360.9090440555
 20
241.2293897271
 10
362.5346384083
 20
242.0304933263
 10
364.1356896082
 20
242.8479030205
 10
365.7117069228
 20
243.6813682685
 10
367.2622072928
 20
244.5306336079
 10
368.7867154798
 20
245.3954387334
 10
370.2847642126
 20
246.2755185767
 10
371.7558943295
 20
247.1706033879
 10
373.1996549198
 20
248.0804188177
 10
374.6156034618
 20
249.0046860018
 10
376.0033059581
 20
249.9431216465
 10
377.3623370691
 20
250.8954381153
 10
378.6922802431
 20
251.8613435171
 10
379.9927278441
 20
252.8405417958
 10
381.2632812766
 20
253.8327328209
  0
LWPOLYLINE
  5
159
330
1F
100
AcDbEntity
  8
0
  6
Continuous
 62
     7
370
    15
100
AcDbPolyline
 90
       16
 70
   128
 43
0.0
 10
352.7746157772
 20
238.9991649254
 10
352.6789125299
 20
238.9056478936
 10
352.6152475347
 20
238.8034371974
 10
352.5858746028
 20
238.6961512083
 10
352.5918335683
 20
238.5875879687
 10
352.6329134772
 20
238.4815907372
 10
352.7076600555
 20
238.3819119326
 10
352.8134271918
 20
238.2920802947
 10
352.9464706127
 20
238.2152759626
 10
353.1020804343
 20
238.1542178945
 10
353.2747478971
 20
238.1110676133
 10
353.4583603825
 20
238.0873526867
 10
353.6464178057
 20
238.0839126491
 10
353.8322627264
 20
238.1008692818
 10
354.0093160294
 20
238.1376223012
 10
354.1713098322
 20
238.1928706099
  0
LWPOLYLINE
  5
15A
330
1F
100
AcDbEntity
  8
0
  6
Continuous
 62
     7
370
    15
100
AcDbPolyline
 90
       32
 70
   128
 43
0.0
 10
381.0656247351
 20
253.8187294271
 10
381.1762279872
 20
253.8970351379
 10
381.2572622141
 20
253.9865908163
 10
381.305409865
 20
254.0837300423
 10
381.3186997696
 20
254.1844759244
 10
381.2965878374
 20
254.2847039145
 10
381.2399793338
 20
254.3803106669
 10
381.1511918173
 20
254.4673820299
 10
381.0338602594
 20
254.5423532917
 10
380.8927882279
 20
254.6021551199
 10
380.7337512283
 20
254.6443392208
 10
380.563260254
 20
254.6671785723
 10
380.3882952256
 20
254.6697381286
 10
380.2160192319
 20
254.6519131012
 10
380.0534852723
 20
254.6144332488
 10
379.9073475062
 20
254.5588330011
 10
379.7835888309
 20
254.4873886386
 10
379.6872759411
 20
254.4030251019
 10
379.622351898
 20
254.3091962442
 10
379.5914746993
 20
254.20974343
 10
379.5959084613
 20
254.108738269
 10
379.6354716652
 20
254.0103159246
 10
379.7085445888
 20
253.9185058189
 10
379.812135618
 20
253.8370666686
 10
379.942003724
 20
253.769332602
 10
380.0928320911
 20
253.7180766598
 10
380.2584457884
 20
253.6853972662
 10
380.4320645715
 20
253.6726323195
 10
380.6065804672
 20
253.6803044181
 10
380.7748487742
 20
253.7080994653
 10
380.9299805681
 20
253.7548795288
 10
381.0656247351
 20
253.8187294271
  0
LWPOLYLINE
  5
15B
330
1F
100
AcDbEntity
  8
0
  6
Continuous
 62
     7
370
    15
100
AcDbPolyline
 90
       32
 70
   128
 43
0.0
 10
354.1955670501
 20
238.3069753025
 10
354.3061703021
 20
238.3852810133
 10
354.387204529
 20
238.4748366917
 10
354.4353521799
 20
238.5719759176
 10
354.4486420845
 20
238.6727217998
 10
354.4265301523
 20
238.7729497899
 10
354.3699216487
 20
238.8685565423
 10
354.2811341322
 20
238.9556279053
 10
354.1638025744
 20
239.030599167
 10
354.0227305428
 20
239.0904009953
 10
353.8636935432
 20
239.1325850962
 10
353.6932025689
 20
239.1554244476
 10
353.5182375405
 20
239.1579840039
 10
353.3459615468
 20
239.1401589766
 10
353.1834275872
 20
239.1026791242
 10
353.0372898211
 20
239.0470788764
 10
352.9135311458
 20
238.9756345139
 10
352.8172182561
 20
238.8912709773
 10
352.7522942129
 20
238.7974421196
 10
352.7214170142
 20
238.6979893053
 10
352.7258507762
 20
238.5969841444
 10
352.7654139801
 20
238.4985617999
 10
352.8384869037
 20
238.4067516943
 10
352.9420779329
 20
238.325312544
 10
353.0719460389
 20
238.2575784774
 10
353.222774406
 20
238.2063225351
 10
353.3883881033
 20
238.1736431416
 10
353.5620068865
 20
238.1608781949
 10
353.7365227821
 20
238.1685502935
 10
353.9047910891
 20
238.1963453407
 10
354.059922883
 20
238.2431254042
 10
354.1955670501
 20
238.3069753025
  0
LWPOLYLINE
  5
15C
330
1F
100
AcDbEntity
  8
0
  6
Continuous
 62
     7
370
    15
100
AcDbPolyline
 90
       16
 70
   128
 43
0.0
 10
354.0000195877
 20
238.2222890437
 10
354.023635774
 20
238.2659872755
 10
354.0327731359
 20
238.3397398291
 10
354.0055470606
 20
238.4119909934
 10
353.9441632427
 20
238.4768874087
 10
353.8535946343
 20
238.5291715535
 10
353.7411785652
 20
238.5646076773
 10
353.6160223168
 20
238.580324956
 10
353.488265304
 20
238.5750500693
 10
353.3682576403
 20
238.549210357
 10
353.2657216328
 20
238.5048991991
 10
353.188964139
 20
238.4457064219
 10
353.1442035946
 20
238.3764274722
 10
353.1350662328
 20
238.3026749187
 10
353.1622923081
 20
238.2304237544
 10
353.167819781
 20
238.2222890437
  0
LWPOLYLINE
  5
15D
330
1F
100
AcDbEntity
  8
0
  6
Continuous
 62
     7
370
    15
100
AcDbPolyline
 90
       16
 70
   128
 43
0.0
 10
380.8700772727
 20
253.7340431683
 10
380.8936934591
 20
253.7777414002
 10
380.902830821
 20
253.8514939538
 10
380.8756047457
 20
253.923745118
 10
380.8142209278
 20
253.9886415334
 10
380.7236523194
 20
254.0409256782
 10
380.6112362502
 20
254.0763618019
 10
380.4860800019
 20
254.0920790806
 10
380.3583229891
 20
254.0868041939
 10
380.2383153254
 20
254.0609644817
 10
380.1357793179
 20
254.0166533237
 10
380.0590218241
 20
253.9574605465
 10
380.0142612797
 20
253.8881815969
 10
380.0051239178
 20
253.8144290433
 10
380.0323499932
 20
253.742177879
 10
380.0378774661
 20
253.7340431683
  0
SPLINE
  5
15E
330
1F
100
AcDbEntity
  8
0
  6
Continuous
 62
     7
370
    15
100
AcDbSpline
210
0.0
220
0.0
230
1.0
 70
     8
 71
     3
 72
    18
 73
    14
 74
     0
 42
0.00000001
 43
0.00000001
 40
0.0
 40
0.0
 40
0.0
 40
0.0
 40
0.0285302954113316
 40
0.1300747081758694
 40
0.2329947909115677
 40
0.3407592328005445
 40
0.4499952131763866
 40
0.5542818868498287
 40
0.6550355655923484
 40
0.7590200226641147
 40
0.8679794514836747
 40
0.9761588993223138
 40
0.9999999999999999
 40
0.9999999999999999
 40
0.9999999999999999
 40
0.9999999999999999
 10
151.3019217065242
 20
227.143495160222
 30
0.0
 10
151.3017544669634
 20
227.1435505577804
 30
0.0
 10
151.3009919919613
 20
227.1438031251351
 30
0.0
 10
151.2882355392238
 20
227.1480734064085
 30
0.0
 10
151.2527035065284
 20
227.1585685658552
 30
0.0
 10
151.1998969163147
 20
227.1704172107436
 30
0.0
 10
151.1351710348742
 20
227.1781962336349
 30
0.0
 10
151.0677770922046
 20
227.1780213199406
 30
0.0
 10
151.0057241214749
 20
227.1706178969712
 30
0.0
 10
150.9532025601821
 20
227.1591481493031
 30
0.0
 10
150.9156675155308
 20
227.1481161256313
 30
0.0
 10
150.9026919831089
 20
227.1437496621621
 30
0.0
 10
150.9020395305155
 20
227.1435340896598
 30
0.0
 10
150.9019217065241
 20
227.143495160222
 30
0.0
  0
LINE
  5
15F
330
1F
100
AcDbEntity
  8
0
  6
Continuous
 62
     7
370
    15
100
AcDbLine
 10
151.3019217065
 20
227.1434951602
 30
0.0
 11
263.8419217065
 21
227.1434951602
 31
0.0
  0
LINE
  5
160
330
1F
100
AcDbEntity
  8
0
  6
Continuous
 62
     7
370
    15
100
AcDbLine
 10
263.8419217065
 20
228.3434951602
 30
0.0
 11
151.3019217065
 21
228.3434951602
 31
0.0
  0
SPLINE
  5
161
330
1F
100
AcDbEntity
  8
0
  6
Continuous
 62
     7
370
    15
100
AcDbSpline
210
0.0
220
0.0
230
1.0
 70
     8
 71
     3
 72
    17
 73
    13
 74
     0
 42
0.00000001
 43
0.00000001
 40
0.0
 40
0.0
 40
0.0
 40
0.0
 40
0.103424135917018
 40
0.2067248887349273
 40
0.3132698984871179
 40
0.4228224836004387
 40
0.5286400156791734
 40
0.629661053293076
 40
0.7323541334666326
 40
0.8403979143261805
 40
0.9494547363206727
 40
1.0
 40
1.0
 40
1.0
 40
1.0
 10
150.9019217065242
 20
228.343495160222
 30
0.0
 10
150.9040126423566
 20
228.3427815854575
 30
0.0
 10
150.9081920195735
 20
228.34135528721
 30
0.0
 10
150.940630921277
 20
228.3312988684189
 30
0.0
 10
150.9892595691232
 20
228.3194061303269
 30
0.0
 10
151.051849263552
 20
228.3100641526149
 30
0.0
 10
151.1194788967473
 20
228.3081525195986
 30
0.0
 10
151.1833425175445
 20
228.3139961522878
 30
0.0
 10
151.238666735835
 20
228.3248176524333
 30
0.0
 10
151.2804365944366
 20
228.3364091067243
 30
0.0
 10
151.2997897753698
 20
228.3427849201875
 30
0.0
 10
151.3014089281205
 20
228.3433243311827
 30
0.0
 10
151.3019217065242
 20
228.343495160222
 30
0.0
  0
LINE
  5
162
330
1F
100
AcDbEntity
  8
0
  6
Continuous
 62
     7
370
    15
100
AcDbLine
 10
150.9019217065
 20
228.3434951602
 30
0.0
 11
148.6419217065
 21
228.3434951602
 31
0.0
  0
LINE
  5
163
330
1F
100
AcDbEntity
  8
0
  6
Continuous
 62
     7
370
    15
100
AcDbLine
 10
148.6419217065
 20
227.1434951602
 30
0.0
 11
150.9019217065
 21
227.1434951602
 31
0.0
  0
LINE
  5
164
330
1F
100
AcDbEntity
  8
0
  6
Continuous
 62
     7
370
    15
100
AcDbLine
 10
151.3019217065
 20
228.3434951602
 30
0.0
 11
151.3019217065
 21
227.1434951602
 31
0.0
  0
LINE
  5
165
330
1F
100
AcDbEntity
  8
0
  6
Continuous
 62
     7
370
    15
100
AcDbLine
 10
150.9019217065
 20
227.1434951602
 30
0.0
 11
150.9019217065
 21
228.3434951602
 31
0.0
  0
LINE
  5
166
330
1F
100
AcDbEntity
  8
0
  6
Continuous
 62
     7
370
    15
100
AcDbLine
 10
148.6419217065
 20
227.1434951602
 30
0.0
 11
148.6419217065
 21
228.3434951602
 31
0.0
  0
LINE
  5
167
330
1F
100
AcDbEntity
  8
0
  6
Continuous
 62
     7
370
    15
100
AcDbLine
 10
263.8419217065
 20
227.1434951602
 30
0.0
 11
263.8419217065
 21
228.3434951602
 31
0.0
  0
LINE
  5
168
330
1F
100
AcDbEntity
  8
0
  6
Continuous
 62
     7
370
    15
100
AcDbLine
 10
260.1419217065
 20
228.3434951602
 30
0.0
 11
260.1419217065
 21
246.2934951602
 31
0.0
  0
LINE
  5
169
330
1F
100
AcDbEntity
  8
0
  6
Continuous
 62
     7
370
    15
100
AcDbLine
 10
260.7269217065
 20
246.2934951602
 30
0.0
 11
260.1419217065
 21
246.2934951602
 31
0.0
  0
LINE
  5
16A
330
1F
100
AcDbEntity
  8
0
  6
Continuous
 62
     7
370
    15
100
AcDbLine
 10
261.1419217065
 20
245.8784951602
 30
0.0
 11
260.7269217065
 21
246.2934951602
 31
0.0
  0
LINE
  5
16B
330
1F
100
AcDbEntity
  8
0
  6
Continuous
 62
     7
370
    15
100
AcDbLine
 10
261.1419217065
 20
228.3434951602
 30
0.0
 11
261.1419217065
 21
245.8784951602
 31
0.0
  0
LINE
  5
16C
330
1F
100
AcDbEntity
  8
0
  6
Continuous
 62
     7
370
    15
100
AcDbLine
 10
261.1419217065
 20
228.3434951602
 30
0.0
 11
260.1419217065
 21
228.3434951602
 31
0.0
  0
LINE
  5
16D
330
1F
100
AcDbEntity
  8
0
  6
Continuous
 62
     7
370
    15
100
AcDbLine
 10
260.7269217065
 20
247.1934951602
 30
0.0
 11
261.1419217065
 21
247.6084951602
 31
0.0
  0
LINE
  5
16E
330
1F
100
AcDbEntity
  8
0
  6
Continuous
 62
     7
370
    15
100
AcDbLine
 10
260.1419217065
 20
247.1934951602
 30
0.0
 11
260.7269217065
 21
247.1934951602
 31
0.0
  0
LINE
  5
16F
330
1F
100
AcDbEntity
  8
0
  6
Continuous
 62
     7
370
    15
100
AcDbLine
 10
260.1419217065
 20
247.1934951602
 30
0.0
 11
260.1419217065
 21
247.7434951602
 31
0.0
  0
LINE
  5
170
330
1F
100
AcDbEntity
  8
0
  6
Continuous
 62
     7
370
    15
100
AcDbLine
 10
261.1419217065
 20
247.7434951602
 30
0.0
 11
260.1419217065
 21
247.7434951602
 31
0.0
  0
LINE
  5
171
330
1F
100
AcDbEntity
  8
0
  6
Continuous
 62
     7
370
    15
100
AcDbLine
 10
261.1419217065
 20
247.6084951602
 30
0.0
 11
261.1419217065
 21
247.7434951602
 31
0.0
  0
LINE
  5
172
330
1F
100
AcDbEntity
  8
0
  6
Continuous
 62
     7
370
    15
100
AcDbLine
 10
260.1419217065
 20
227.1434951602
 30
0.0
 11
261.1419217065
 21
227.1434951602
 31
0.0
  0
LINE
  5
173
330
1F
100
AcDbEntity
  8
0
  6
Continuous
 62
     7
370
    15
100
AcDbLine
 10
260.1419217065
 20
207.7434951602
 30
0.0
 11
261.1419217065
 21
207.7434951602
 31
0.0
  0
LINE
  5
174
330
1F
100
AcDbEntity
  8
0
  6
Continuous
 62
     7
370
    15
100
AcDbLine
 10
260.7269217065
 20
208.2934951602
 30
0.0
 11
260.1419217065
 21
208.2934951602
 31
0.0
  0
LINE
  5
175
330
1F
100
AcDbEntity
  8
0
  6
Continuous
 62
     7
370
    15
100
AcDbLine
 10
261.1419217065
 20
207.8784951602
 30
0.0
 11
260.7269217065
 21
208.2934951602
 31
0.0
  0
LINE
  5
176
330
1F
100
AcDbEntity
  8
0
  6
Continuous
 62
     7
370
    15
100
AcDbLine
 10
261.1419217065
 20
207.7434951602
 30
0.0
 11
261.1419217065
 21
207.8784951602
 31
0.0
  0
LINE
  5
177
330
1F
100
AcDbEntity
  8
0
  6
Continuous
 62
     7
370
    15
100
AcDbLine
 10
260.1419217065
 20
207.7434951602
 30
0.0
 11
260.1419217065
 21
208.2934951602
 31
0.0
  0
LINE
  5
178
330
1F
100
AcDbEntity
  8
0
  6
Continuous
 62
     7
370
    15
100
AcDbLine
 10
261.1419217065
 20
209.6084951602
 30
0.0
 11
261.1419217065
 21
227.1434951602
 31
0.0
  0
LINE
  5
179
330
1F
100
AcDbEntity
  8
0
  6
Continuous
 62
     7
370
    15
100
AcDbLine
 10
260.7269217065
 20
209.1934951602
 30
0.0
 11
261.1419217065
 21
209.6084951602
 31
0.0
  0
LINE
  5
17A
330
1F
100
AcDbEntity
  8
0
  6
Continuous
 62
     7
370
    15
100
AcDbLine
 10
260.1419217065
 20
209.1934951602
 30
0.0
 11
260.7269217065
 21
209.1934951602
 31
0.0
  0
LINE
  5
17B
330
1F
100
AcDbEntity
  8
0
  6
Continuous
 62
     7
370
    15
100
AcDbLine
 10
260.1419217065
 20
209.1934951602
 30
0.0
 11
260.1419217065
 21
227.1434951602
 31
0.0
  0
LINE
  5
17C
330
1F
100
AcDbEntity
  8
0
  6
Continuous
 62
     7
370
    15
100
AcDbLine
 10
260.7269217065
 20
246.2934951602
 30
0.0
 11
260.7269217065
 21
247.1934951602
 31
0.0
  0
LINE
  5
17D
330
1F
100
AcDbEntity
  8
0
  6
Continuous
 62
     7
370
    15
100
AcDbLine
 10
260.7269217065
 20
208.2934951602
 30
0.0
 11
260.7269217065
 21
209.1934951602
 31
0.0
  0
LINE
  5
17E
330
1F
100
AcDbEntity
  8
0
  6
Continuous
 62
     7
370
    15
100
AcDbLine
 10
261.1419217065
 20
207.8784951602
 30
0.0
 11
261.1419217065
 21
209.6084951602
 31
0.0
  0
LINE
  5
17F
330
1F
100
AcDbEntity
  8
0
  6
Continuous
 62
     7
370
    15
100
AcDbLine
 10
261.1419217065
 20
245.8784951602
 30
0.0
 11
261.1419217065
 21
247.6084951602
 31
0.0
  0
LINE
  5
180
330
1F
100
AcDbEntity
  8
0
  6
Continuous
 62
     7
370
    15
100
AcDbLine
 10
261.1419217065
 20
207.6434951602
 30
0.0
 11
161.1419217065
 21
207.6434951602
 31
0.0
  0
LINE
  5
181
330
1F
100
AcDbEntity
  8
0
  6
Continuous
 62
     7
370
    15
100
AcDbLine
 10
161.1419217065
 20
247.8434951602
 30
0.0
 11
261.1419217065
 21
247.8434951602
 31
0.0
  0
LINE
  5
182
330
1F
100
AcDbEntity
  8
0
  6
Continuous
 62
     7
370
    15
100
AcDbLine
 10
261.1419217065
 20
207.7434951602
 30
0.0
 11
161.1419217065
 21
207.7434951602
 31
0.0
  0
LINE
  5
183
330
1F
100
AcDbEntity
  8
0
  6
Continuous
 62
     7
370
    15
100
AcDbLine
 10
261.1419217065
 20
207.6434951602
 30
0.0
 11
261.1419217065
 21
207.7434951602
 31
0.0
  0
LINE
  5
184
330
1F
100
AcDbEntity
  8
0
  6
Continuous
 62
     7
370
    15
100
AcDbLine
 10
161.1419217065
 20
207.6434951602
 30
0.0
 11
161.1419217065
 21
207.7434951602
 31
0.0
  0
LINE
  5
185
330
1F
100
AcDbEntity
  8
0
  6
Continuous
 62
     7
370
    15
100
AcDbLine
 10
161.1419217065
 20
247.7434951602
 30
0.0
 11
261.1419217065
 21
247.7434951602
 31
0.0
  0
LINE
  5
186
330
1F
100
AcDbEntity
  8
0
  6
Continuous
 62
     7
370
    15
100
AcDbLine
 10
261.1419217065
 20
247.7434951602
 30
0.0
 11
261.1419217065
 21
247.8434951602
 31
0.0
  0
LINE
  5
187
330
1F
100
AcDbEntity
  8
0
  6
Continuous
 62
     7
370
    15
100
AcDbLine
 10
161.1419217065
 20
247.7434951602
 30
0.0
 11
161.1419217065
 21
247.8434951602
 31
0.0
  0
LINE
  5
188
330
1F
100
AcDbEntity
  8
0
  6
Continuous
 62
     7
370
    15
100
AcDbLine
 10
163.1419217065
 20
245.7434951602
 30
0.0
 11
259.1419217065
 21
245.7434951602
 31
0.0
  0
LINE
  5
189
330
1F
100
AcDbEntity
  8
0
  6
Continuous
 62
     7
370
    15
100
AcDbLine
 10
259.1419217065
 20
247.7434951602
 30
0.0
 11
163.1419217065
 21
247.7434951602
 31
0.0
  0
LINE
  5
18A
330
1F
100
AcDbEntity
  8
0
  6
Continuous
 62
     7
370
    15
100
AcDbLine
 10
163.1419217065
 20
245.9434951602
 30
0.0
 11
259.1419217065
 21
245.9434951602
 31
0.0
  0
LINE
  5
18B
330
1F
100
AcDbEntity
  8
0
  6
Continuous
 62
     7
370
    15
100
AcDbLine
 10
259.1419217065
 20
247.5434951602
 30
0.0
 11
163.1419217065
 21
247.5434951602
 31
0.0
  0
LINE
  5
18C
330
1F
100
AcDbEntity
  8
0
  6
Continuous
 62
     7
370
    15
100
AcDbLine
 10
259.1419217065
 20
245.9434951602
 30
0.0
 11
259.1419217065
 21
245.7434951602
 31
0.0
  0
LINE
  5
18D
330
1F
100
AcDbEntity
  8
0
  6
Continuous
 62
     7
370
    15
100
AcDbLine
 10
163.1419217065
 20
245.9434951602
 30
0.0
 11
163.1419217065
 21
245.7434951602
 31
0.0
  0
LINE
  5
18E
330
1F
100
AcDbEntity
  8
0
  6
Continuous
 62
     7
370
    15
100
AcDbLine
 10
259.1419217065
 20
247.7434951602
 30
0.0
 11
259.1419217065
 21
247.5434951602
 31
0.0
  0
LINE
  5
18F
330
1F
100
AcDbEntity
  8
0
  6
Continuous
 62
     7
370
    15
100
AcDbLine
 10
163.1419217065
 20
247.7434951602
 30
0.0
 11
163.1419217065
 21
247.5434951602
 31
0.0
  0
LINE
  5
190
330
1F
100
AcDbEntity
  8
0
  6
Continuous
 62
     7
370
    15
100
AcDbLine
 10
163.1419217065
 20
247.7434951602
 30
0.0
 11
162.1419217065
 21
247.7434951602
 31
0.0
  0
LINE
  5
191
330
1F
100
AcDbEntity
  8
0
  6
Continuous
 62
     7
370
    15
100
AcDbLine
 10
162.1419217065
 20
245.7434951602
 30
0.0
 11
163.1419217065
 21
245.7434951602
 31
0.0
  0
LINE
  5
192
330
1F
100
AcDbEntity
  8
0
  6
Continuous
 62
     7
370
    15
100
AcDbLine
 10
163.1419217065
 20
246.4034951602
 30
0.0
 11
162.1419217065
 21
246.4034951602
 31
0.0
  0
LINE
  5
193
330
1F
100
AcDbEntity
  8
0
  6
Continuous
 62
     7
370
    15
100
AcDbLine
 10
162.1419217065
 20
247.0834951602
 30
0.0
 11
163.1419217065
 21
247.0834951602
 31
0.0
  0
LINE
  5
194
330
1F
100
AcDbEntity
  8
0
  6
Continuous
 62
     7
370
    15
100
AcDbLine
 10
163.1419217065
 20
247.0834951602
 30
0.0
 11
163.1419217065
 21
246.4034951602
 31
0.0
  0
LINE
  5
195
330
1F
100
AcDbEntity
  8
0
  6
Continuous
 62
     7
370
    15
100
AcDbLine
 10
162.1419217065
 20
247.0834951602
 30
0.0
 11
162.1419217065
 21
246.4034951602
 31
0.0
  0
LINE
  5
196
330
1F
100
AcDbEntity
  8
0
  6
Continuous
 62
     7
370
    15
100
AcDbLine
 10
163.1419217065
 20
247.0834951602
 30
0.0
 11
163.1419217065
 21
247.7434951602
 31
0.0
  0
LINE
  5
197
330
1F
100
AcDbEntity
  8
0
  6
Continuous
 62
     7
370
    15
100
AcDbLine
 10
162.1419217065
 20
247.0834951602
 30
0.0
 11
162.1419217065
 21
247.7434951602
 31
0.0
  0
LINE
  5
198
330
1F
100
AcDbEntity
  8
0
  6
Continuous
 62
     7
370
    15
100
AcDbLine
 10
163.1419217065
 20
245.7434951602
 30
0.0
 11
163.1419217065
 21
246.4034951602
 31
0.0
  0
LINE
  5
199
330
1F
100
AcDbEntity
  8
0
  6
Continuous
 62
     7
370
    15
100
AcDbLine
 10
162.1419217065
 20
245.7434951602
 30
0.0
 11
162.1419217065
 21
246.4034951602
 31
0.0
  0
LINE
  5
19A
330
1F
100
AcDbEntity
  8
0
  6
Continuous
 62
     7
370
    15
100
AcDbLine
 10
259.1419217065
 20
245.7434951602
 30
0.0
 11
260.1419217065
 21
245.7434951602
 31
0.0
  0
LINE
  5
19B
330
1F
100
AcDbEntity
  8
0
  6
Continuous
 62
     7
370
    15
100
AcDbLine
 10
260.1419217065
 20
247.7434951602
 30
0.0
 11
259.1419217065
 21
247.7434951602
 31
0.0
  0
LINE
  5
19C
330
1F
100
AcDbEntity
  8
0
  6
Continuous
 62
     7
370
    15
100
AcDbLine
 10
259.1419217065
 20
247.0834951602
 30
0.0
 11
260.1419217065
 21
247.0834951602
 31
0.0
  0
LINE
  5
19D
330
1F
100
AcDbEntity
  8
0
  6
Continuous
 62
     7
370
    15
100
AcDbLine
 10
260.1419217065
 20
246.4034951602
 30
0.0
 11
259.1419217065
 21
246.4034951602
 31
0.0
  0
LINE
  5
19E
330
1F
100
AcDbEntity
  8
0
  6
Continuous
 62
     7
370
    15
100
AcDbLine
 10
260.1419217065
 20
247.0834951602
 30
0.0
 11
260.1419217065
 21
246.4034951602
 31
0.0
  0
LINE
  5
19F
330
1F
100
AcDbEntity
  8
0
  6
Continuous
 62
     7
370
    15
100
AcDbLine
 10
259.1419217065
 20
247.0834951602
 30
0.0
 11
259.1419217065
 21
246.4034951602
 31
0.0
  0
LINE
  5
1A0
330
1F
100
AcDbEntity
  8
0
  6
Continuous
 62
     7
370
    15
100
AcDbLine
 10
260.1419217065
 20
247.7434951602
 30
0.0
 11
260.1419217065
 21
247.0834951602
 31
0.0
  0
LINE
  5
1A1
330
1F
100
AcDbEntity
  8
0
  6
Continuous
 62
     7
370
    15
100
AcDbLine
 10
259.1419217065
 20
247.7434951602
 30
0.0
 11
259.1419217065
 21
247.0834951602
 31
0.0
  0
LINE
  5
1A2
330
1F
100
AcDbEntity
  8
0
  6
Continuous
 62
     7
370
    15
100
AcDbLine
 10
260.1419217065
 20
246.4034951602
 30
0.0
 11
260.1419217065
 21
245.7434951602
 31
0.0
  0
LINE
  5
1A3
330
1F
100
AcDbEntity
  8
0
  6
Continuous
 62
     7
370
    15
100
AcDbLine
 10
259.1419217065
 20
246.4034951602
 30
0.0
 11
259.1419217065
 21
245.7434951602
 31
0.0
  0
LINE
  5
1A4
330
1F
100
AcDbEntity
  8
0
  6
Continuous
 62
     7
370
    15
100
AcDbLine
 10
163.1419217065
 20
207.7434951602
 30
0.0
 11
259.1419217065
 21
207.7434951602
 31
0.0
  0
LINE
  5
1A5
330
1F
100
AcDbEntity
  8
0
  6
Continuous
 62
     7
370
    15
100
AcDbLine
 10
259.1419217065
 20
209.7434951602
 30
0.0
 11
163.1419217065
 21
209.7434951602
 31
0.0
  0
LINE
  5
1A6
330
1F
100
AcDbEntity
  8
0
  6
Continuous
 62
     7
370
    15
100
AcDbLine
 10
163.1419217065
 20
207.9434951602
 30
0.0
 11
259.1419217065
 21
207.9434951602
 31
0.0
  0
LINE
  5
1A7
330
1F
100
AcDbEntity
  8
0
  6
Continuous
 62
     7
370
    15
100
AcDbLine
 10
259.1419217065
 20
209.5434951602
 30
0.0
 11
163.1419217065
 21
209.5434951602
 31
0.0
  0
LINE
  5
1A8
330
1F
100
AcDbEntity
  8
0
  6
Continuous
 62
     7
370
    15
100
AcDbLine
 10
259.1419217065
 20
209.7434951602
 30
0.0
 11
259.1419217065
 21
209.5434951602
 31
0.0
  0
LINE
  5
1A9
330
1F
100
AcDbEntity
  8
0
  6
Continuous
 62
     7
370
    15
100
AcDbLine
 10
163.1419217065
 20
209.7434951602
 30
0.0
 11
163.1419217065
 21
209.5434951602
 31
0.0
  0
LINE
  5
1AA
330
1F
100
AcDbEntity
  8
0
  6
Continuous
 62
     7
370
    15
100
AcDbLine
 10
259.1419217065
 20
207.9434951602
 30
0.0
 11
259.1419217065
 21
207.7434951602
 31
0.0
  0
LINE
  5
1AB
330
1F
100
AcDbEntity
  8
0
  6
Continuous
 62
     7
370
    15
100
AcDbLine
 10
163.1419217065
 20
207.9434951602
 30
0.0
 11
163.1419217065
 21
207.7434951602
 31
0.0
  0
LINE
  5
1AC
330
1F
100
AcDbEntity
  8
0
  6
Continuous
 62
     7
370
    15
100
AcDbLine
 10
163.1419217065
 20
209.7434951602
 30
0.0
 11
162.1419217065
 21
209.7434951602
 31
0.0
  0
LINE
  5
1AD
330
1F
100
AcDbEntity
  8
0
  6
Continuous
 62
     7
370
    15
100
AcDbLine
 10
162.1419217065
 20
207.7434951602
 30
0.0
 11
163.1419217065
 21
207.7434951602
 31
0.0
  0
LINE
  5
1AE
330
1F
100
AcDbEntity
  8
0
  6
Continuous
 62
     7
370
    15
100
AcDbLine
 10
163.1419217065
 20
208.4034951602
 30
0.0
 11
162.1419217065
 21
208.4034951602
 31
0.0
  0
LINE
  5
1AF
330
1F
100
AcDbEntity
  8
0
  6
Continuous
 62
     7
370
    15
100
AcDbLine
 10
162.1419217065
 20
209.0834951602
 30
0.0
 11
163.1419217065
 21
209.0834951602
 31
0.0
  0
LINE
  5
1B0
330
1F
100
AcDbEntity
  8
0
  6
Continuous
 62
     7
370
    15
100
AcDbLine
 10
163.1419217065
 20
209.0834951602
 30
0.0
 11
163.1419217065
 21
208.4034951602
 31
0.0
  0
LINE
  5
1B1
330
1F
100
AcDbEntity
  8
0
  6
Continuous
 62
     7
370
    15
100
AcDbLine
 10
162.1419217065
 20
209.0834951602
 30
0.0
 11
162.1419217065
 21
208.4034951602
 31
0.0
  0
LINE
  5
1B2
330
1F
100
AcDbEntity
  8
0
  6
Continuous
 62
     7
370
    15
100
AcDbLine
 10
163.1419217065
 20
207.7434951602
 30
0.0
 11
163.1419217065
 21
208.4034951602
 31
0.0
  0
LINE
  5
1B3
330
1F
100
AcDbEntity
  8
0
  6
Continuous
 62
     7
370
    15
100
AcDbLine
 10
162.1419217065
 20
207.7434951602
 30
0.0
 11
162.1419217065
 21
208.4034951602
 31
0.0
  0
LINE
  5
1B4
330
1F
100
AcDbEntity
  8
0
  6
Continuous
 62
     7
370
    15
100
AcDbLine
 10
163.1419217065
 20
209.0834951602
 30
0.0
 11
163.1419217065
 21
209.7434951602
 31
0.0
  0
LINE
  5
1B5
330
1F
100
AcDbEntity
  8
0
  6
Continuous
 62
     7
370
    15
100
AcDbLine
 10
162.1419217065
 20
209.0834951602
 30
0.0
 11
162.1419217065
 21
209.7434951602
 31
0.0
  0
LINE
  5
1B6
330
1F
100
AcDbEntity
  8
0
  6
Continuous
 62
     7
370
    15
100
AcDbLine
 10
259.1419217065
 20
207.7434951602
 30
0.0
 11
260.1419217065
 21
207.7434951602
 31
0.0
  0
LINE
  5
1B7
330
1F
100
AcDbEntity
  8
0
  6
Continuous
 62
     7
370
    15
100
AcDbLine
 10
260.1419217065
 20
209.7434951602
 30
0.0
 11
259.1419217065
 21
209.7434951602
 31
0.0
  0
LINE
  5
1B8
330
1F
100
AcDbEntity
  8
0
  6
Continuous
 62
     7
370
    15
100
AcDbLine
 10
259.1419217065
 20
209.0834951602
 30
0.0
 11
260.1419217065
 21
209.0834951602
 31
0.0
  0
LINE
  5
1B9
330
1F
100
AcDbEntity
  8
0
  6
Continuous
 62
     7
370
    15
100
AcDbLine
 10
260.1419217065
 20
208.4034951602
 30
0.0
 11
259.1419217065
 21
208.4034951602
 31
0.0
  0
LINE
  5
1BA
330
1F
100
AcDbEntity
  8
0
  6
Continuous
 62
     7
370
    15
100
AcDbLine
 10
260.1419217065
 20
209.0834951602
 30
0.0
 11
260.1419217065
 21
208.4034951602
 31
0.0
  0
LINE
  5
1BB
330
1F
100
AcDbEntity
  8
0
  6
Continuous
 62
     7
370
    15
100
AcDbLine
 10
259.1419217065
 20
209.0834951602
 30
0.0
 11
259.1419217065
 21
208.4034951602
 31
0.0
  0
LINE
  5
1BC
330
1F
100
AcDbEntity
  8
0
  6
Continuous
 62
     7
370
    15
100
AcDbLine
 10
260.1419217065
 20
208.4034951602
 30
0.0
 11
260.1419217065
 21
207.7434951602
 31
0.0
  0
LINE
  5
1BD
330
1F
100
AcDbEntity
  8
0
  6
Continuous
 62
     7
370
    15
100
AcDbLine
 10
259.1419217065
 20
208.4034951602
 30
0.0
 11
259.1419217065
 21
207.7434951602
 31
0.0
  0
LINE
  5
1BE
330
1F
100
AcDbEntity
  8
0
  6
Continuous
 62
     7
370
    15
100
AcDbLine
 10
260.1419217065
 20
209.7434951602
 30
0.0
 11
260.1419217065
 21
209.0834951602
 31
0.0
  0
LINE
  5
1BF
330
1F
100
AcDbEntity
  8
0
  6
Continuous
 62
     7
370
    15
100
AcDbLine
 10
259.1419217065
 20
209.7434951602
 30
0.0
 11
259.1419217065
 21
209.0834951602
 31
0.0
  0
LINE
  5
1C0
330
1F
100
AcDbEntity
  8
0
  6
Continuous
 62
     7
370
    15
100
AcDbLine
 10
161.1419217065
 20
207.7434951602
 30
0.0
 11
162.1419217065
 21
207.7434951602
 31
0.0
  0
LINE
  5
1C1
330
1F
100
AcDbEntity
  8
0
  6
Continuous
 62
     7
370
    15
100
AcDbLine
 10
162.1419217065
 20
247.7434951602
 30
0.0
 11
161.1419217065
 21
247.7434951602
 31
0.0
  0
LINE
  5
1C2
330
1F
100
AcDbEntity
  8
0
  6
Continuous
 62
     7
370
    15
100
AcDbLine
 10
162.1419217065
 20
228.3434951602
 30
0.0
 11
161.1419217065
 21
228.3434951602
 31
0.0
  0
LINE
  5
1C3
330
1F
100
AcDbEntity
  8
0
  6
Continuous
 62
     7
370
    15
100
AcDbLine
 10
161.1419217065
 20
227.1434951602
 30
0.0
 11
162.1419217065
 21
227.1434951602
 31
0.0
  0
LINE
  5
1C4
330
1F
100
AcDbEntity
  8
0
  6
Continuous
 62
     7
370
    15
100
AcDbLine
 10
161.5569217065
 20
209.1934951602
 30
0.0
 11
161.5569217065
 21
208.2934951602
 31
0.0
  0
LINE
  5
1C5
330
1F
100
AcDbEntity
  8
0
  6
Continuous
 62
     7
370
    15
100
AcDbLine
 10
161.5569217065
 20
208.2934951602
 30
0.0
 11
161.1419217065
 21
207.8784951602
 31
0.0
  0
LINE
  5
1C6
330
1F
100
AcDbEntity
  8
0
  6
Continuous
 62
     7
370
    15
100
AcDbLine
 10
161.1419217065
 20
209.6084951602
 30
0.0
 11
161.5569217065
 21
209.1934951602
 31
0.0
  0
LINE
  5
1C7
330
1F
100
AcDbEntity
  8
0
  6
Continuous
 62
     7
370
    15
100
AcDbLine
 10
161.1419217065
 20
209.6084951602
 30
0.0
 11
161.1419217065
 21
207.8784951602
 31
0.0
  0
LINE
  5
1C8
330
1F
100
AcDbEntity
  8
0
  6
Continuous
 62
     7
370
    15
100
AcDbLine
 10
161.5569217065
 20
247.1934951602
 30
0.0
 11
162.1419217065
 21
247.1934951602
 31
0.0
  0
LINE
  5
1C9
330
1F
100
AcDbEntity
  8
0
  6
Continuous
 62
     7
370
    15
100
AcDbLine
 10
161.1419217065
 20
247.6084951602
 30
0.0
 11
161.5569217065
 21
247.1934951602
 31
0.0
  0
LINE
  5
1CA
330
1F
100
AcDbEntity
  8
0
  6
Continuous
 62
     7
370
    15
100
AcDbLine
 10
162.1419217065
 20
247.7434951602
 30
0.0
 11
162.1419217065
 21
247.1934951602
 31
0.0
  0
LINE
  5
1CB
330
1F
100
AcDbEntity
  8
0
  6
Continuous
 62
     7
370
    15
100
AcDbLine
 10
161.1419217065
 20
247.7434951602
 30
0.0
 11
161.1419217065
 21
247.6084951602
 31
0.0
  0
LINE
  5
1CC
330
1F
100
AcDbEntity
  8
0
  6
Continuous
 62
     7
370
    15
100
AcDbLine
 10
161.5569217065
 20
246.2934951602
 30
0.0
 11
161.1419217065
 21
245.8784951602
 31
0.0
  0
LINE
  5
1CD
330
1F
100
AcDbEntity
  8
0
  6
Continuous
 62
     7
370
    15
100
AcDbLine
 10
162.1419217065
 20
246.2934951602
 30
0.0
 11
161.5569217065
 21
246.2934951602
 31
0.0
  0
LINE
  5
1CE
330
1F
100
AcDbEntity
  8
0
  6
Continuous
 62
     7
370
    15
100
AcDbLine
 10
162.1419217065
 20
246.2934951602
 30
0.0
 11
162.1419217065
 21
228.3434951602
 31
0.0
  0
LINE
  5
1CF
330
1F
100
AcDbEntity
  8
0
  6
Continuous
 62
     7
370
    15
100
AcDbLine
 10
161.1419217065
 20
245.8784951602
 30
0.0
 11
161.1419217065
 21
228.3434951602
 31
0.0
  0
LINE
  5
1D0
330
1F
100
AcDbEntity
  8
0
  6
Continuous
 62
     7
370
    15
100
AcDbLine
 10
161.5569217065
 20
247.1934951602
 30
0.0
 11
161.5569217065
 21
246.2934951602
 31
0.0
  0
LINE
  5
1D1
330
1F
100
AcDbEntity
  8
0
  6
Continuous
 62
     7
370
    15
100
AcDbLine
 10
161.1419217065
 20
247.6084951602
 30
0.0
 11
161.1419217065
 21
245.8784951602
 31
0.0
  0
LINE
  5
1D2
330
1F
100
AcDbEntity
  8
0
  6
Continuous
 62
     7
370
    15
100
AcDbLine
 10
162.1419217065
 20
208.2934951602
 30
0.0
 11
161.5569217065
 21
208.2934951602
 31
0.0
  0
LINE
  5
1D3
330
1F
100
AcDbEntity
  8
0
  6
Continuous
 62
     7
370
    15
100
AcDbLine
 10
162.1419217065
 20
208.2934951602
 30
0.0
 11
162.1419217065
 21
207.7434951602
 31
0.0
  0
LINE
  5
1D4
330
1F
100
AcDbEntity
  8
0
  6
Continuous
 62
     7
370
    15
100
AcDbLine
 10
161.1419217065
 20
207.8784951602
 30
0.0
 11
161.1419217065
 21
207.7434951602
 31
0.0
  0
LINE
  5
1D5
330
1F
100
AcDbEntity
  8
0
  6
Continuous
 62
     7
370
    15
100
AcDbLine
 10
162.1419217065
 20
227.1434951602
 30
0.0
 11
162.1419217065
 21
209.1934951602
 31
0.0
  0
LINE
  5
1D6
330
1F
100
AcDbEntity
  8
0
  6
Continuous
 62
     7
370
    15
100
AcDbLine
 10
161.5569217065
 20
209.1934951602
 30
0.0
 11
162.1419217065
 21
209.1934951602
 31
0.0
  0
LINE
  5
1D7
330
1F
100
AcDbEntity
  8
0
  6
Continuous
 62
     7
370
    15
100
AcDbLine
 10
161.1419217065
 20
227.1434951602
 30
0.0
 11
161.1419217065
 21
209.6084951602
 31
0.0
  0
HATCH
  5
1D8
330
1F
100
AcDbEntity
  8
0
  6
Continuous
 62
     7
370
     0
100
AcDbHatch
 10
0.0
 20
0.0
 30
0.0
210
0.0
220
0.0
230
1.0
  2
ANSI38
 70
     0
 71
     0
 91
        1
 92
        0
 93
        5
 72
     1
 10
161.1419217065242
 20
228.343495160222
 11
162.1419217065242
 21
228.343495160222
 72
     1
 10
162.1419217065242
 20
228.343495160222
 11
162.1419217065241
 21
246.2934951602221
 72
     1
 10
162.1419217065241
 20
246.2934951602221
 11
161.5569217065242
 21
246.293495160222
 72
     1
 10
161.5569217065242
 20
246.293495160222
 11
161.1419217065241
 21
245.878495160222
 72
     1
 10
161.1419217065241
 20
245.878495160222
 11
161.1419217065242
 21
228.343495160222
 97
        0
 75
     0
 76
     1
 52
0.0
 41
1.0
 77
     0
 78
     2
 53
45.0
 43
0.0
 44
0.0
 45
-2.245064030267288
 46
2.245064030267288
 79
     0
 53
135.0
 43
0.0
 44
0.0
 45
-6.735192090801864
 46
2.245064030267289
 79
     2
 49
7.9375
 49
-4.7625
 98
        1
 10
0.0
 20
0.0
  0
HATCH
  5
1D9
330
1F
100
AcDbEntity
  8
0
  6
Continuous
 62
     7
370
     0
100
AcDbHatch
 10
0.0
 20
0.0
 30
0.0
210
0.0
220
0.0
230
1.0
  2
ANSI38
 70
     0
 71
     0
 91
        1
 92
        0
 93
        5
 72
     1
 10
162.1419217065241
 20
247.1934951602221
 11
162.1419217065241
 21
247.743495160222
 72
     1
 10
162.1419217065241
 20
247.743495160222
 11
161.1419217065241
 21
247.743495160222
 72
     1
 10
161.1419217065241
 20
247.743495160222
 11
161.1419217065241
 21
247.608495160222
 72
     1
 10
161.1419217065241
 20
247.608495160222
 11
161.5569217065242
 21
247.1934951602221
 72
     1
 10
161.5569217065242
 20
247.1934951602221
 11
162.1419217065241
 21
247.1934951602221
 97
        0
 75
     0
 76
     1
 52
0.0
 41
1.0
 77
     0
 78
     2
 53
45.0
 43
0.0
 44
0.0
 45
-2.245064030267288
 46
2.245064030267288
 79
     0
 53
135.0
 43
0.0
 44
0.0
 45
-6.735192090801864
 46
2.245064030267289
 79
     2
 49
7.9375
 49
-4.7625
 98
        1
 10
0.0
 20
0.0
  0
HATCH
  5
1DA
330
1F
100
AcDbEntity
  8
0
  6
Continuous
 62
     7
370
     0
100
AcDbHatch
 10
0.0
 20
0.0
 30
0.0
210
0.0
220
0.0
230
1.0
  2
ANSI38
 70
     0
 71
     0
 91
        1
 92
        0
 93
        5
 72
     1
 10
161.1419217065243
 20
207.8784951602221
 11
161.1419217065243
 21
207.7434951602221
 72
     1
 10
161.1419217065243
 20
207.7434951602221
 11
162.1419217065243
 21
207.7434951602221
 72
     1
 10
162.1419217065243
 20
207.7434951602221
 11
162.1419217065242
 21
208.2934951602221
 72
     1
 10
162.1419217065242
 20
208.2934951602221
 11
161.5569217065243
 21
208.2934951602221
 72
     1
 10
161.5569217065243
 20
208.2934951602221
 11
161.1419217065243
 21
207.8784951602221
 97
        0
 75
     0
 76
     1
 52
0.0
 41
1.0
 77
     0
 78
     2
 53
45.0
 43
0.0
 44
0.0
 45
-2.245064030267288
 46
2.245064030267288
 79
     0
 53
135.0
 43
0.0
 44
0.0
 45
-6.735192090801864
 46
2.245064030267289
 79
     2
 49
7.9375
 49
-4.7625
 98
        1
 10
0.0
 20
0.0
  0
HATCH
  5
1DB
330
1F
100
AcDbEntity
  8
0
  6
Continuous
 62
     7
370
     0
100
AcDbHatch
 10
0.0
 20
0.0
 30
0.0
210
0.0
220
0.0
230
1.0
  2
ANSI38
 70
     0
 71
     0
 91
        1
 92
        0
 93
        5
 72
     1
 10
162.1419217065242
 20
227.143495160222
 11
161.1419217065242
 21
227.143495160222
 72
     1
 10
161.1419217065242
 20
227.143495160222
 11
161.1419217065242
 21
209.608495160222
 72
     1
 10
161.1419217065242
 20
209.608495160222
 11
161.5569217065242
 21
209.193495160222
 72
     1
 10
161.5569217065242
 20
209.193495160222
 11
162.1419217065242
 21
209.1934951602221
 72
     1
 10
162.1419217065242
 20
209.1934951602221
 11
162.1419217065242
 21
227.143495160222
 97
        0
 75
     0
 76
     1
 52
0.0
 41
1.0
 77
     0
 78
     2
 53
45.0
 43
0.0
 44
0.0
 45
-2.245064030267288
 46
2.245064030267288
 79
     0
 53
135.0
 43
0.0
 44
0.0
 45
-6.735192090801864
 46
2.245064030267289
 79
     2
 49
7.9375
 49
-4.7625
 98
        1
 10
0.0
 20
0.0
  0
HATCH
  5
1DC
330
1F
100
AcDbEntity
  8
0
  6
Continuous
 62
     7
370
     0
100
AcDbHatch
 10
0.0
 20
0.0
 30
0.0
210
0.0
220
0.0
230
1.0
  2
ANSI38
 70
     0
 71
     0
 91
        1
 92
        0
 93
        4
 72
     1
 10
260.1419217065243
 20
209.0834951602224
 11
260.1419217065243
 21
209.7434951602224
 72
     1
 10
260.1419217065243
 20
209.7434951602224
 11
259.1419217065243
 21
209.7434951602224
 72
     1
 10
259.1419217065243
 20
209.7434951602224
 11
259.1419217065243
 21
209.0834951602224
 72
     1
 10
259.1419217065243
 20
209.0834951602224
 11
260.1419217065243
 21
209.0834951602224
 97
        0
 75
     0
 76
     1
 52
0.0
 41
1.0
 77
     0
 78
     2
 53
45.0
 43
0.0
 44
0.0
 45
-2.245064030267288
 46
2.245064030267288
 79
     0
 53
135.0
 43
0.0
 44
0.0
 45
-6.735192090801864
 46
2.245064030267289
 79
     2
 49
7.9375
 49
-4.7625
 98
        1
 10
0.0
 20
0.0
  0
HATCH
  5
1DD
330
1F
100
AcDbEntity
  8
0
  6
Continuous
 62
     7
370
     0
100
AcDbHatch
 10
0.0
 20
0.0
 30
0.0
210
0.0
220
0.0
230
1.0
  2
ANSI38
 70
     0
 71
     0
 91
        1
 92
        0
 93
        4
 72
     1
 10
259.1419217065243
 20
208.4034951602224
 11
259.1419217065243
 21
207.7434951602224
 72
     1
 10
259.1419217065243
 20
207.7434951602224
 11
260.1419217065243
 21
207.7434951602224
 72
     1
 10
260.1419217065243
 20
207.7434951602224
 11
260.1419217065243
 21
208.4034951602224
 72
     1
 10
260.1419217065243
 20
208.4034951602224
 11
259.1419217065243
 21
208.4034951602224
 97
        0
 75
     0
 76
     1
 52
0.0
 41
1.0
 77
     0
 78
     2
 53
45.0
 43
0.0
 44
0.0
 45
-2.245064030267288
 46
2.245064030267288
 79
     0
 53
135.0
 43
0.0
 44
0.0
 45
-6.735192090801864
 46
2.245064030267289
 79
     2
 49
7.9375
 49
-4.7625
 98
        1
 10
0.0
 20
0.0
  0
HATCH
  5
1DE
330
1F
100
AcDbEntity
  8
0
  6
Continuous
 62
     7
370
     0
100
AcDbHatch
 10
0.0
 20
0.0
 30
0.0
210
0.0
220
0.0
230
1.0
  2
ANSI38
 70
     0
 71
     0
 91
        1
 92
        0
 93
        4
 72
     1
 10
162.1419217065242
 20
208.4034951602221
 11
162.1419217065243
 21
207.743495160222
 72
     1
 10
162.1419217065243
 20
207.743495160222
 11
163.1419217065243
 21
207.743495160222
 72
     1
 10
163.1419217065243
 20
207.743495160222
 11
163.1419217065242
 21
208.4034951602221
 72
     1
 10
163.1419217065242
 20
208.4034951602221
 11
162.1419217065242
 21
208.4034951602221
 97
        0
 75
     0
 76
     1
 52
90.0
 41
1.0
 77
     0
 78
     2
 53
135.0000000000002
 43
0.0
 44
0.0
 45
-2.245064030267281
 46
-2.245064030267296
 79
     0
 53
225.0000000000002
 43
0.0
 44
0.0
 45
-2.245064030267266
 46
-6.735192090801872
 79
     2
 49
7.9375
 49
-4.7625
 98
        1
 10
0.0
 20
0.0
  0
HATCH
  5
1DF
330
1F
100
AcDbEntity
  8
0
  6
Continuous
 62
     7
370
     0
100
AcDbHatch
 10
0.0
 20
0.0
 30
0.0
210
0.0
220
0.0
230
1.0
  2
ANSI38
 70
     0
 71
     0
 91
        1
 92
        0
 93
        4
 72
     1
 10
163.1419217065242
 20
209.083495160222
 11
163.1419217065242
 21
209.743495160222
 72
     1
 10
163.1419217065242
 20
209.743495160222
 11
162.1419217065242
 21
209.743495160222
 72
     1
 10
162.1419217065242
 20
209.743495160222
 11
162.1419217065242
 21
209.083495160222
 72
     1
 10
162.1419217065242
 20
209.083495160222
 11
163.1419217065242
 21
209.083495160222
 97
        0
 75
     0
 76
     1
 52
90.0
 41
1.0
 77
     0
 78
     2
 53
135.0000000000002
 43
0.0
 44
0.0
 45
-2.245064030267281
 46
-2.245064030267296
 79
     0
 53
225.0000000000002
 43
0.0
 44
0.0
 45
-2.245064030267266
 46
-6.735192090801872
 79
     2
 49
7.9375
 49
-4.7625
 98
        1
 10
0.0
 20
0.0
  0
HATCH
  5
1E0
330
1F
100
AcDbEntity
  8
0
  6
Continuous
 62
     7
370
     0
100
AcDbHatch
 10
0.0
 20
0.0
 30
0.0
210
0.0
220
0.0
230
1.0
  2
ANSI38
 70
     0
 71
     0
 91
        1
 92
        0
 93
        4
 72
     1
 10
259.1419217065243
 20
209.5434951602224
 11
259.1419217065243
 21
209.7434951602224
 72
     1
 10
259.1419217065243
 20
209.7434951602224
 11
163.1419217065242
 21
209.743495160222
 72
     1
 10
163.1419217065242
 20
209.743495160222
 11
163.1419217065242
 21
209.543495160222
 72
     1
 10
163.1419217065242
 20
209.543495160222
 11
259.1419217065243
 21
209.5434951602224
 97
        0
 75
     0
 76
     1
 52
0.0
 41
1.0
 77
     0
 78
     2
 53
45.0
 43
0.0
 44
0.0
 45
-2.245064030267288
 46
2.245064030267288
 79
     0
 53
135.0
 43
0.0
 44
0.0
 45
-6.735192090801864
 46
2.245064030267289
 79
     2
 49
7.9375
 49
-4.7625
 98
        1
 10
0.0
 20
0.0
  0
HATCH
  5
1E1
330
1F
100
AcDbEntity
  8
0
  6
Continuous
 62
     7
370
     0
100
AcDbHatch
 10
0.0
 20
0.0
 30
0.0
210
0.0
220
0.0
230
1.0
  2
ANSI38
 70
     0
 71
     0
 91
        1
 92
        0
 93
        4
 72
     1
 10
259.1419217065243
 20
207.7434951602224
 11
259.1419217065243
 21
207.9434951602224
 72
     1
 10
259.1419217065243
 20
207.9434951602224
 11
163.1419217065242
 21
207.943495160222
 72
     1
 10
163.1419217065242
 20
207.943495160222
 11
163.1419217065243
 21
207.743495160222
 72
     1
 10
163.1419217065243
 20
207.743495160222
 11
259.1419217065243
 21
207.7434951602224
 97
        0
 75
     0
 76
     1
 52
0.0
 41
1.0
 77
     0
 78
     2
 53
45.0
 43
0.0
 44
0.0
 45
-2.245064030267288
 46
2.245064030267288
 79
     0
 53
135.0
 43
0.0
 44
0.0
 45
-6.735192090801864
 46
2.245064030267289
 79
     2
 49
7.9375
 49
-4.7625
 98
        1
 10
0.0
 20
0.0
  0
HATCH
  5
1E2
330
1F
100
AcDbEntity
  8
0
  6
Continuous
 62
     7
370
     0
100
AcDbHatch
 10
0.0
 20
0.0
 30
0.0
210
0.0
220
0.0
230
1.0
  2
ANSI38
 70
     0
 71
     0
 91
        1
 92
        0
 93
        4
 72
     1
 10
260.1419217065241
 20
247.0834951602224
 11
260.1419217065241
 21
247.7434951602224
 72
     1
 10
260.1419217065241
 20
247.7434951602224
 11
259.1419217065241
 21
247.7434951602224
 72
     1
 10
259.1419217065241
 20
247.7434951602224
 11
259.1419217065241
 21
247.0834951602224
 72
     1
 10
259.1419217065241
 20
247.0834951602224
 11
260.1419217065241
 21
247.0834951602224
 97
        0
 75
     0
 76
     1
 52
0.0
 41
1.0
 77
     0
 78
     2
 53
45.0
 43
0.0
 44
0.0
 45
-2.245064030267288
 46
2.245064030267288
 79
     0
 53
135.0
 43
0.0
 44
0.0
 45
-6.735192090801864
 46
2.245064030267289
 79
     2
 49
7.9375
 49
-4.7625
 98
        1
 10
0.0
 20
0.0
  0
HATCH
  5
1E3
330
1F
100
AcDbEntity
  8
0
  6
Continuous
 62
     7
370
     0
100
AcDbHatch
 10
0.0
 20
0.0
 30
0.0
210
0.0
220
0.0
230
1.0
  2
ANSI38
 70
     0
 71
     0
 91
        1
 92
        0
 93
        4
 72
     1
 10
259.1419217065241
 20
246.4034951602224
 11
259.1419217065241
 21
245.7434951602224
 72
     1
 10
259.1419217065241
 20
245.7434951602224
 11
260.1419217065241
 21
245.7434951602224
 72
     1
 10
260.1419217065241
 20
245.7434951602224
 11
260.1419217065241
 21
246.4034951602224
 72
     1
 10
260.1419217065241
 20
246.4034951602224
 11
259.1419217065241
 21
246.4034951602224
 97
        0
 75
     0
 76
     1
 52
0.0
 41
1.0
 77
     0
 78
     2
 53
45.0
 43
0.0
 44
0.0
 45
-2.245064030267288
 46
2.245064030267288
 79
     0
 53
135.0
 43
0.0
 44
0.0
 45
-6.735192090801864
 46
2.245064030267289
 79
     2
 49
7.9375
 49
-4.7625
 98
        1
 10
0.0
 20
0.0
  0
HATCH
  5
1E4
330
1F
100
AcDbEntity
  8
0
  6
Continuous
 62
     7
370
     0
100
AcDbHatch
 10
0.0
 20
0.0
 30
0.0
210
0.0
220
0.0
230
1.0
  2
ANSI38
 70
     0
 71
     0
 91
        1
 92
        0
 93
        4
 72
     1
 10
162.1419217065241
 20
246.4034951602221
 11
162.1419217065241
 21
245.7434951602221
 72
     1
 10
162.1419217065241
 20
245.7434951602221
 11
163.1419217065241
 21
245.7434951602221
 72
     1
 10
163.1419217065241
 20
245.7434951602221
 11
163.1419217065241
 21
246.4034951602221
 72
     1
 10
163.1419217065241
 20
246.4034951602221
 11
162.1419217065241
 21
246.4034951602221
 97
        0
 75
     0
 76
     1
 52
90.0
 41
1.0
 77
     0
 78
     2
 53
135.0000000000002
 43
0.0
 44
0.0
 45
-2.245064030267281
 46
-2.245064030267296
 79
     0
 53
225.0000000000002
 43
0.0
 44
0.0
 45
-2.245064030267266
 46
-6.735192090801872
 79
     2
 49
7.9375
 49
-4.7625
 98
        1
 10
0.0
 20
0.0
  0
HATCH
  5
1E5
330
1F
100
AcDbEntity
  8
0
  6
Continuous
 62
     7
370
     0
100
AcDbHatch
 10
0.0
 20
0.0
 30
0.0
210
0.0
220
0.0
230
1.0
  2
ANSI38
 70
     0
 71
     0
 91
        1
 92
        0
 93
        4
 72
     1
 10
163.1419217065241
 20
247.083495160222
 11
163.1419217065241
 21
247.7434951602221
 72
     1
 10
163.1419217065241
 20
247.7434951602221
 11
162.1419217065241
 21
247.7434951602221
 72
     1
 10
162.1419217065241
 20
247.7434951602221
 11
162.1419217065241
 21
247.083495160222
 72
     1
 10
162.1419217065241
 20
247.083495160222
 11
163.1419217065241
 21
247.083495160222
 97
        0
 75
     0
 76
     1
 52
90.0
 41
1.0
 77
     0
 78
     2
 53
135.0000000000002
 43
0.0
 44
0.0
 45
-2.245064030267281
 46
-2.245064030267296
 79
     0
 53
225.0000000000002
 43
0.0
 44
0.0
 45
-2.245064030267266
 46
-6.735192090801872
 79
     2
 49
7.9375
 49
-4.7625
 98
        1
 10
0.0
 20
0.0
  0
HATCH
  5
1E6
330
1F
100
AcDbEntity
  8
0
  6
Continuous
 62
     7
370
     0
100
AcDbHatch
 10
0.0
 20
0.0
 30
0.0
210
0.0
220
0.0
230
1.0
  2
ANSI38
 70
     0
 71
     0
 91
        1
 92
        0
 93
        4
 72
     1
 10
259.1419217065241
 20
247.5434951602224
 11
259.1419217065241
 21
247.7434951602224
 72
     1
 10
259.1419217065241
 20
247.7434951602224
 11
163.1419217065241
 21
247.7434951602221
 72
     1
 10
163.1419217065241
 20
247.7434951602221
 11
163.1419217065241
 21
247.5434951602221
 72
     1
 10
163.1419217065241
 20
247.5434951602221
 11
259.1419217065241
 21
247.5434951602224
 97
        0
 75
     0
 76
     1
 52
0.0
 41
1.0
 77
     0
 78
     2
 53
45.0
 43
0.0
 44
0.0
 45
-2.245064030267288
 46
2.245064030267288
 79
     0
 53
135.0
 43
0.0
 44
0.0
 45
-6.735192090801864
 46
2.245064030267289
 79
     2
 49
7.9375
 49
-4.7625
 98
        1
 10
0.0
 20
0.0
  0
HATCH
  5
1E7
330
1F
100
AcDbEntity
  8
0
  6
Continuous
 62
     7
370
     0
100
AcDbHatch
 10
0.0
 20
0.0
 30
0.0
210
0.0
220
0.0
230
1.0
  2
ANSI38
 70
     0
 71
     0
 91
        1
 92
        0
 93
        4
 72
     1
 10
259.1419217065241
 20
245.7434951602224
 11
259.1419217065241
 21
245.9434951602224
 72
     1
 10
259.1419217065241
 20
245.9434951602224
 11
163.1419217065241
 21
245.9434951602221
 72
     1
 10
163.1419217065241
 20
245.9434951602221
 11
163.1419217065241
 21
245.7434951602221
 72
     1
 10
163.1419217065241
 20
245.7434951602221
 11
259.1419217065241
 21
245.7434951602224
 97
        0
 75
     0
 76
     1
 52
0.0
 41
1.0
 77
     0
 78
     2
 53
45.0
 43
0.0
 44
0.0
 45
-2.245064030267288
 46
2.245064030267288
 79
     0
 53
135.0
 43
0.0
 44
0.0
 45
-6.735192090801864
 46
2.245064030267289
 79
     2
 49
7.9375
 49
-4.7625
 98
        1
 10
0.0
 20
0.0
  0
HATCH
  5
1E8
330
1F
100
AcDbEntity
  8
0
  6
Continuous
 62
     7
370
     0
100
AcDbHatch
 10
0.0
 20
0.0
 30
0.0
210
0.0
220
0.0
230
1.0
  2
ANSI38
 70
     0
 71
     0
 91
        1
 92
        0
 93
        4
 72
     1
 10
261.1419217065241
 20
247.8434951602223
 11
161.1419217065241
 21
247.843495160222
 72
     1
 10
161.1419217065241
 20
247.843495160222
 11
161.1419217065241
 21
247.743495160222
 72
     1
 10
161.1419217065241
 20
247.743495160222
 11
261.1419217065241
 21
247.7434951602224
 72
     1
 10
261.1419217065241
 20
247.7434951602224
 11
261.1419217065241
 21
247.8434951602223
 97
        0
 75
     0
 76
     1
 52
90.0
 41
1.0
 77
     0
 78
     2
 53
135.0000000000002
 43
0.0
 44
0.0
 45
-2.245064030267281
 46
-2.245064030267296
 79
     0
 53
225.0000000000002
 43
0.0
 44
0.0
 45
-2.245064030267266
 46
-6.735192090801872
 79
     2
 49
7.9375
 49
-4.7625
 98
        1
 10
0.0
 20
0.0
  0
HATCH
  5
1E9
330
1F
100
AcDbEntity
  8
0
  6
Continuous
 62
     7
370
     0
100
AcDbHatch
 10
0.0
 20
0.0
 30
0.0
210
0.0
220
0.0
230
1.0
  2
ANSI38
 70
     0
 71
     0
 91
        1
 92
        0
 93
        4
 72
     1
 10
161.1419217065243
 20
207.6434951602221
 11
261.1419217065243
 21
207.6434951602224
 72
     1
 10
261.1419217065243
 20
207.6434951602224
 11
261.1419217065243
 21
207.7434951602224
 72
     1
 10
261.1419217065243
 20
207.7434951602224
 11
161.1419217065243
 21
207.7434951602221
 72
     1
 10
161.1419217065243
 20
207.7434951602221
 11
161.1419217065243
 21
207.6434951602221
 97
        0
 75
     0
 76
     1
 52
90.0
 41
1.0
 77
     0
 78
     2
 53
135.0000000000002
 43
0.0
 44
0.0
 45
-2.245064030267281
 46
-2.245064030267296
 79
     0
 53
225.0000000000002
 43
0.0
 44
0.0
 45
-2.245064030267266
 46
-6.735192090801872
 79
     2
 49
7.9375
 49
-4.7625
 98
        1
 10
0.0
 20
0.0
  0
HATCH
  5
1EA
330
1F
100
AcDbEntity
  8
0
  6
Continuous
 62
     7
370
     0
100
AcDbHatch
 10
0.0
 20
0.0
 30
0.0
210
0.0
220
0.0
230
1.0
  2
ANSI38
 70
     0
 71
     0
 91
        1
 92
        0
 93
        5
 72
     1
 10
261.1419217065241
 20
247.6084951602224
 11
261.1419217065241
 21
247.7434951602224
 72
     1
 10
261.1419217065241
 20
247.7434951602224
 11
260.1419217065241
 21
247.7434951602224
 72
     1
 10
260.1419217065241
 20
247.7434951602224
 11
260.1419217065241
 21
247.1934951602224
 72
     1
 10
260.1419217065241
 20
247.1934951602224
 11
260.7269217065241
 21
247.1934951602224
 72
     1
 10
260.7269217065241
 20
247.1934951602224
 11
261.1419217065241
 21
247.6084951602224
 97
        0
 75
     0
 76
     1
 52
90.0
 41
1.0
 77
     0
 78
     2
 53
135.0000000000002
 43
0.0
 44
0.0
 45
-2.245064030267281
 46
-2.245064030267296
 79
     0
 53
225.0000000000002
 43
0.0
 44
0.0
 45
-2.245064030267266
 46
-6.735192090801872
 79
     2
 49
7.9375
 49
-4.7625
 98
        1
 10
0.0
 20
0.0
  0
HATCH
  5
1EB
330
1F
100
AcDbEntity
  8
0
  6
Continuous
 62
     7
370
     0
100
AcDbHatch
 10
0.0
 20
0.0
 30
0.0
210
0.0
220
0.0
230
1.0
  2
ANSI38
 70
     0
 71
     0
 91
        1
 92
        0
 93
        5
 72
     1
 10
260.1419217065242
 20
228.3434951602224
 11
261.1419217065242
 21
228.3434951602224
 72
     1
 10
261.1419217065242
 20
228.3434951602224
 11
261.1419217065241
 21
245.8784951602224
 72
     1
 10
261.1419217065241
 20
245.8784951602224
 11
260.7269217065241
 21
246.2934951602224
 72
     1
 10
260.7269217065241
 20
246.2934951602224
 11
260.1419217065241
 21
246.2934951602224
 72
     1
 10
260.1419217065241
 20
246.2934951602224
 11
260.1419217065242
 21
228.3434951602224
 97
        0
 75
     0
 76
     1
 52
90.0
 41
1.0
 77
     0
 78
     2
 53
135.0000000000002
 43
0.0
 44
0.0
 45
-2.245064030267281
 46
-2.245064030267296
 79
     0
 53
225.0000000000002
 43
0.0
 44
0.0
 45
-2.245064030267266
 46
-6.735192090801872
 79
     2
 49
7.9375
 49
-4.7625
 98
        1
 10
0.0
 20
0.0
  0
HATCH
  5
1EC
330
1F
100
AcDbEntity
  8
0
  6
Continuous
 62
     7
370
     0
100
AcDbHatch
 10
0.0
 20
0.0
 30
0.0
210
0.0
220
0.0
230
1.0
  2
ANSI38
 70
     0
 71
     0
 91
        1
 92
        0
 93
        5
 72
     1
 10
261.1419217065242
 20
227.1434951602224
 11
260.1419217065242
 21
227.1434951602224
 72
     1
 10
260.1419217065242
 20
227.1434951602224
 11
260.1419217065243
 21
209.1934951602224
 72
     1
 10
260.1419217065243
 20
209.1934951602224
 11
260.7269217065243
 21
209.1934951602224
 72
     1
 10
260.7269217065243
 20
209.1934951602224
 11
261.1419217065243
 21
209.6084951602224
 72
     1
 10
261.1419217065243
 20
209.6084951602224
 11
261.1419217065242
 21
227.1434951602224
 97
        0
 75
     0
 76
     1
 52
90.0
 41
1.0
 77
     0
 78
     2
 53
135.0000000000002
 43
0.0
 44
0.0
 45
-2.245064030267281
 46
-2.245064030267296
 79
     0
 53
225.0000000000002
 43
0.0
 44
0.0
 45
-2.245064030267266
 46
-6.735192090801872
 79
     2
 49
7.9375
 49
-4.7625
 98
        1
 10
0.0
 20
0.0
  0
HATCH
  5
1ED
330
1F
100
AcDbEntity
  8
0
  6
Continuous
 62
     7
370
     0
100
AcDbHatch
 10
0.0
 20
0.0
 30
0.0
210
0.0
220
0.0
230
1.0
  2
ANSI38
 70
     0
 71
     0
 91
        1
 92
        0
 93
        5
 72
     1
 10
260.1419217065243
 20
208.2934951602224
 11
260.1419217065243
 21
207.7434951602224
 72
     1
 10
260.1419217065243
 20
207.7434951602224
 11
261.1419217065243
 21
207.7434951602224
 72
     1
 10
261.1419217065243
 20
207.7434951602224
 11
261.1419217065243
 21
207.8784951602224
 72
     1
 10
261.1419217065243
 20
207.8784951602224
 11
260.7269217065243
 21
208.2934951602224
 72
     1
 10
260.7269217065243
 20
208.2934951602224
 11
260.1419217065243
 21
208.2934951602224
 97
        0
 75
     0
 76
     1
 52
90.0
 41
1.0
 77
     0
 78
     2
 53
135.0000000000002
 43
0.0
 44
0.0
 45
-2.245064030267281
 46
-2.245064030267296
 79
     0
 53
225.0000000000002
 43
0.0
 44
0.0
 45
-2.245064030267266
 46
-6.735192090801872
 79
     2
 49
7.9375
 49
-4.7625
 98
        1
 10
0.0
 20
0.0
  0
HATCH
  5
1EE
330
1F
100
AcDbEntity
  8
0
  6
Continuous
 62
     7
370
     0
100
AcDbHatch
 10
0.0
 20
0.0
 30
0.0
210
0.0
220
0.0
230
1.0
  2
ANSI38
 70
     0
 71
     0
 91
        1
 92
        0
 93
        4
 72
     1
 10
151.3019217065242
 20
227.143495160222
 11
263.8419217065242
 21
227.1434951602224
 72
     1
 10
263.8419217065242
 20
227.1434951602224
 11
263.8419217065242
 21
228.3434951602224
 72
     1
 10
263.8419217065242
 20
228.3434951602224
 11
151.3019217065242
 21
228.343495160222
 72
     1
 10
151.3019217065242
 20
228.343495160222
 11
151.3019217065242
 21
227.143495160222
 97
        0
 75
     0
 76
     1
 52
0.0
 41
1.0
 77
     0
 78
     2
 53
45.0
 43
0.0
 44
0.0
 45
-2.245064030267288
 46
2.245064030267288
 79
     0
 53
135.0
 43
0.0
 44
0.0
 45
-6.735192090801864
 46
2.245064030267289
 79
     2
 49
7.9375
 49
-4.7625
 98
        1
 10
0.0
 20
0.0
  0
HATCH
  5
1EF
330
1F
100
AcDbEntity
  8
0
  6
Continuous
 62
     7
370
     0
100
AcDbHatch
 10
0.0
 20
0.0
 30
0.0
210
0.0
220
0.0
230
1.0
  2
ANSI38
 70
     0
 71
     0
 91
        1
 92
        0
 93
        4
 72
     1
 10
148.6419217065242
 20
228.343495160222
 11
148.6419217065242
 21
227.143495160222
 72
     1
 10
148.6419217065242
 20
227.143495160222
 11
150.9019217065241
 21
227.143495160222
 72
     1
 10
150.9019217065241
 20
227.143495160222
 11
150.9019217065242
 21
228.343495160222
 72
     1
 10
150.9019217065242
 20
228.343495160222
 11
148.6419217065242
 21
228.343495160222
 97
        0
 75
     0
 76
     1
 52
0.0
 41
1.0
 77
     0
 78
     2
 53
45.0
 43
0.0
 44
0.0
 45
-2.245064030267288
 46
2.245064030267288
 79
     0
 53
135.0
 43
0.0
 44
0.0
 45
-6.735192090801864
 46
2.245064030267289
 79
     2
 49
7.9375
 49
-4.7625
 98
        1
 10
0.0
 20
0.0
  0
DIMENSION
  5
1F0
330
1F
100
AcDbEntity
  8
0
  6
Continuous
 62
     7
370
     0
100
AcDbDimension
  2
*D12
 10
261.1419217065
 20
259.5940843784
 30
0.0
 11
212.1770213202
 21
259.5940843784
 31
0.0
 70
   160
 71
     2
 42
-1.0
  3
SLDDIMSTYLE2
100
AcDbAlignedDimension
 13
161.1419217065
 23
245.8784951602
 33
0.0
 14
261.1419217065
 24
245.8784951602
 34
0.0
 50
0.0
100
AcDbRotatedDimension
  0
DIMENSION
  5
1FB
330
1F
100
AcDbEntity
  8
0
  6
Continuous
 62
     7
370
     0
100
AcDbDimension
  2
*D13
 10
280.6419217065
 20
207.7434951602
 30
0.0
 11
280.6419217065
 21
227.4007368919
 31
0.0
 70
   160
 71
     2
 42
-1.0
  3
SLDDIMSTYLE2
100
AcDbAlignedDimension
 13
261.1419217065
 23
247.8434951602
 33
0.0
 14
260.1419217065
 24
207.7434951602
 34
0.0
 50
90.0
100
AcDbRotatedDimension
  0
MTEXT
  5
205
330
1F
100
AcDbEntity
  8
0
  6
Continuous
 62
     7
370
     0
100
AcDbMText
 10
205.9174415976
 20
201.8576824844
 30
0.0
 40
3.5
 41
0.0
 71
     2
 72
     1
  1
COUPE A-A
  7
SLDTEXTSTYLE0
 73
     1
 44
1.0
  0
INSERT
  5
20B
102
{ACAD_REACTORS
330
20C
102
}
330
1F
100
AcDbEntity
  8
0
  6
Continuous
 62
     7
370
     0
100
AcDbBlockReference
  2
SW_NOTE_5
 10
141.6413142847
 20
211.6154377274
 30
0.0
  0
LEADER
  5
20C
330
1F
100
AcDbEntity
  8
0
  6
Continuous
 62
     7
370
     0
100
AcDbLeader
  3
SLDDIMSTYLE1
 73
     2
 76
     2
 10
161.5963823967
 20
215.7255489204
 30
0.0
 10
141.6413142847
 20
211.6154377274
 30
0.0
340
20B
  0
INSERT
  5
212
330
1F
100
AcDbEntity
  8
0
  6
Continuous
 62
     7
370
     0
100
AcDbBlockReference
  2
SW_NOTE_6
 10
280.248990576
 20
192.9870440637
 30
0.0
  0
LEADER
  5
213
330
1F
100
AcDbEntity
  8
0
  6
Continuous
 62
     7
370
     0
100
AcDbLeader
  3
SLDDIMSTYLE1
 76
     2
 10
260.5650831963
 20
214.1348291416
 30
0.0
 10
280.248990576
 20
192.9870440637
 30
0.0
  0
INSERT
  5
219
330
1F
100
AcDbEntity
  8
0
  6
Continuous
 62
     7
370
     0
100
AcDbBlockReference
  2
SW_NOTE_7
 10
137.5899839716
 20
239.3014785076
 30
0.0
  0
LEADER
  5
21A
330
1F
100
AcDbEntity
  8
0
  6
Continuous
 62
     7
370
     0
100
AcDbLeader
  3
SLDDIMSTYLE1
 76
     2
 10
149.8525762384
 20
227.8472222867
 30
0.0
 10
137.5899839716
 20
239.3014785076
 30
0.0
  0
INSERT
  5
220
330
1F
100
AcDbEntity
  8
0
  6
Continuous
 62
     7
370
     0
100
AcDbBlockReference
  2
SW_NOTE_8
 10
239.9849765027
 20
191.1026386404
 30
0.0
  0
LEADER
  5
221
330
1F
100
AcDbEntity
  8
0
  6
Continuous
 62
     7
370
     0
100
AcDbLeader
  3
SLDDIMSTYLE1
 76
     2
 10
229.129995357
 20
208.8301468317
 30
0.0
 10
239.9849765027
 20
191.1026386404
 30
0.0
  0
INSERT
  5
227
330
1F
100
AcDbEntity
  8
0
  6
Continuous
 62
     7
370
     0
100
AcDbBlockReference
  2
SW_NOTE_9
 10
177.8516194722
 20
194.2816900673
 30
0.0
  0
LEADER
  5
228
330
1F
100
AcDbEntity
  8
0
  6
Continuous
 62
     7
370
     0
100
AcDbLeader
  3
SLDDIMSTYLE1
 76
     2
 10
185.183909668
 20
247.0041547899
 30
0.0
 10
177.8516194722
 20
194.2816900673
 30
0.0
  0
INSERT
  5
234
330
1F
100
AcDbEntity
  8
0
  6
Continuous
 62
     7
370
     0
100
AcDbBlockReference
  2
SW_DATUMTAG_2
 10
115.4482500361
 20
270.7225260756
 30
0.0
  0
LINE
  5
235
330
1F
100
AcDbEntity
  8
0
  6
Continuous
 62
     7
370
    15
100
AcDbLine
 10
149.1871595667
 20
63.7402188056
 30
0.0
 11
149.1871595667
 21
94.990211355
 31
0.0
  0
LINE
  5
236
330
1F
100
AcDbEntity
  8
0
  6
Continuous
 62
     7
370
    15
100
AcDbLine
 10
146.1871595406
 20
94.990211355
 30
0.0
 11
146.1871595406
 21
63.7402188056
 31
0.0
  0
LINE
  5
237
330
1F
100
AcDbEntity
  8
0
  6
Continuous
 62
     7
370
    15
100
AcDbLine
 10
154.1871596878
 20
47.5561942928
 30
0.0
 11
154.1871596878
 21
63.7402188056
 31
0.0
  0
LINE
  5
238
330
1F
100
AcDbEntity
  8
0
  6
Continuous
 62
     7
370
    15
100
AcDbLine
 10
141.1871594196
 20
63.7402188056
 30
0.0
 11
141.1871594196
 21
47.4651481979
 31
0.0
  0
ARC
  5
239
330
1F
100
AcDbEntity
  8
0
  6
Continuous
 62
     7
370
     0
100
AcDbCircle
 10
147.5069614265
 20
73.2402283982
 30
0.0
 40
26.5385503887903
100
AcDbArc
 50
256.2234088469
 51
284.5791252428
  0
SPLINE
  5
23A
330
1F
100
AcDbEntity
  8
0
  6
Continuous
 62
     7
370
    15
100
AcDbSpline
210
0.0
220
0.0
230
1.0
 70
    11
 71
     3
 72
    26
 73
    22
 74
     0
 42
0.00000001
 43
0.00000001
 40
0.0
 40
0.0
 40
0.0
 40
0.0
 40
0.0525840421426836
 40
0.1046009808715902
 40
0.156137300095881
 40
0.209050004931717
 40
0.2637830083528232
 40
0.3170575464480415
 40
0.3677632985457919
 40
0.4188703362124893
 40
0.4725713348026187
 40
0.5272164454317294
 40
0.5797550952856342
 40
0.6305312949698417
 40
0.6822511597108363
 40
0.7363537056022745
 40
0.7907948940692373
 40
0.8425882289691521
 40
0.8930488728141546
 40
0.9454008379147538
 40
1.0
 40
1.0
 40
1.0
 40
1.0
 10
147.5249545059943
 20
89.31316696338317
 30
0.0
 10
147.5787566764774
 20
89.32602229276475
 30
0.0
 10
147.6857807768741
 20
89.3515943105851
 30
0.0
 10
147.8502516546355
 20
89.32171972041648
 30
0.0
 10
147.9965373756297
 20
89.24459755452555
 30
0.0
 10
148.1123165266357
 20
89.12118346785898
 30
0.0
 10
148.1814197843624
 20
88.96471446452979
 30
0.0
 10
148.1942575420634
 20
88.79661366802267
 30
0.0
 10
148.1535304337213
 20
88.63733923179036
 30
0.0
 10
148.0645589487022
 20
88.49849182897903
 30
0.0
 10
147.93194023906
 20
88.39307254002122
 30
0.0
 10
147.7701688118417
 20
88.33747093507756
 30
0.0
 10
147.6024934855744
 20
88.33844826494773
 30
0.0
 10
147.4470245348778
 20
88.3917665328804
 30
0.0
 10
147.3149660786927
 20
88.49255505009256
 30
0.0
 10
147.220732572674
 20
88.63446047081995
 30
0.0
 10
147.1794056326524
 20
88.79976270302538
 30
0.0
 10
147.1940840559527
 20
88.96556012015054
 30
0.0
 10
147.2596402030464
 20
89.11508479247766
 30
0.0
 10
147.3703482436287
 20
89.24230268333729
 30
0.0
 10
147.4727022171474
 20
89.28921695790974
 30
0.0
 10
147.5249545059943
 20
89.3131669633832
 30
0.0
  0
LINE
  5
23B
330
1F
100
AcDbEntity
  8
0
  6
Continuous
 62
     7
370
    15
100
AcDbLine
 10
146.1871595406
 20
94.990211355
 30
0.0
 11
149.1871595667
 21
94.990211355
 31
0.0
  0
LINE
  5
23C
330
1F
100
AcDbEntity
  8
0
  6
Continuous
 62
     7
370
    15
100
AcDbLine
 10
150.4030919918
 20
46.8601759546
 30
0.0
 11
150.4030919918
 21
63.7402188056
 31
0.0
  0
LINE
  5
23D
330
1F
100
AcDbEntity
  8
0
  6
Continuous
 62
     7
370
    15
100
AcDbLine
 10
144.9712271155
 20
46.823094415
 30
0.0
 11
144.9712271155
 21
63.7402188056
 31
0.0
  0
LINE
  5
23E
330
1F
100
AcDbEntity
  8
0
  6
Continuous
 62
     7
370
    15
100
AcDbLine
 10
144.9712271155
 20
63.7402188056
 30
0.0
 11
150.4030919918
 21
63.7402188056
 31
0.0
  0
LINE
  5
23F
330
1F
100
AcDbEntity
  8
0
  6
Continuous
 62
     7
370
    15
100
AcDbLine
 10
150.4030919918
 20
63.7402188056
 30
0.0
 11
154.1871596878
 21
63.7402188056
 31
0.0
  0
LINE
  5
240
330
1F
100
AcDbEntity
  8
0
  6
Continuous
 62
     7
370
    15
100
AcDbLine
 10
141.1871594196
 20
63.7402188056
 30
0.0
 11
144.9712271155
 21
63.7402188056
 31
0.0
  0
POINT
  5
241
330
1F
100
AcDbEntity
  8
0
  6
DOT2
 62
     7
370
     0
100
AcDbPoint
 10
147.6871595537
 20
88.8402155273
 30
0.0
  0
DIMENSION
  5
242
330
1F
100
AcDbEntity
  8
0
  6
Continuous
 62
     7
370
     0
100
AcDbDimension
  2
*D20
 10
172.4065623914
 20
88.8402155273
 30
0.0
 11
172.4065623914
 21
100.0695780785
 31
0.0
 70
   160
 71
     2
 42
-1.0
  3
SLDDIMSTYLE3
100
AcDbAlignedDimension
 13
153.9371595537
 23
63.7402155273
 33
0.0
 14
188.8370015699
 24
88.8402155273
 34
0.0
 50
90.0
100
AcDbRotatedDimension
  0
INSERT
  5
253
330
1F
100
AcDbEntity
  8
0
  6
Continuous
 62
     7
370
     0
100
AcDbBlockReference
  2
SW_NOTE_10
 10
137.74375625
 20
29.3279748659
 30
0.0
  0
LINE
  5
254
330
1F
100
AcDbEntity
  8
0
  6
CENTER
 62
     7
370
     0
100
AcDbLine
 10
124.8295381166
 20
88.8402155273
 30
0.0
 11
188.8370015699
 21
88.8402155273
 31
0.0
  0
LINE
  5
255
330
1F
100
AcDbEntity
  8
0
  6
Continuous
 62
     7
370
     0
100
AcDbLine
 10
126.8295381166
 20
76.1402155273
 30
0.0
 11
126.8295381166
 21
88.8402155273
 31
0.0
  0
SOLID
  5
256
330
1F
100
AcDbEntity
  8
0
  6
Continuous
 62
     7
370
     0
100
AcDbTrace
 10
126.8295381166
 20
88.8402155273
 30
0.0
 11
125.8135381166
 21
82.4902155273
 31
0.0
 12
127.8455381166
 22
82.4902155273
 32
0.0
 13
127.8455381166
 23
82.4902155273
 33
0.0
  0
LINE
  5
257
330
1F
100
AcDbEntity
  8
0
  6
Continuous
 62
     7
370
     0
100
AcDbLine
 10
186.8370015699
 20
76.1402155273
 30
0.0
 11
186.8370015699
 21
88.8402155273
 31
0.0
  0
SOLID
  5
258
330
1F
100
AcDbEntity
  8
0
  6
Continuous
 62
     7
370
     0
100
AcDbTrace
 10
186.8370015699
 20
88.8402155273
 30
0.0
 11
185.8210015699
 21
82.4902155273
 31
0.0
 12
187.8530015699
 22
82.4902155273
 32
0.0
 13
187.8530015699
 23
82.4902155273
 33
0.0
  0
MTEXT
  5
259
330
1F
100
AcDbEntity
  8
0
  6
Continuous
 62
     7
100
AcDbMText
 10
128.3456648356
 20
81.697286014
 30
0.0
 40
3.5
 41
0.0
 71
     1
 72
     1
  1
C
  7
SLDTEXTSTYLE0
 73
     1
 44
1.0
  0
MTEXT
  5
25A
330
1F
100
AcDbEntity
  8
0
  6
Continuous
 62
     7
100
AcDbMText
 10
188.3531282889
 20
81.697286014
 30
0.0
 40
3.5
 41
0.0
 71
     1
 72
     1
  1
C
  7
SLDTEXTSTYLE0
 73
     1
 44
1.0
  0
LINE
  5
25B
330
1F
100
AcDbEntity
  8
0
  6
Continuous
 62
     7
370
    15
100
AcDbLine
 10
148.1871595537
 20
137.1136398142
 30
0.0
 11
148.1871595537
 21
134.2852126895
 31
0.0
  0
LINE
  5
25C
330
1F
100
AcDbEntity
  8
0
  6
Continuous
 62
     7
370
    15
100
AcDbLine
 10
147.1871595537
 20
134.2852126895
 30
0.0
 11
147.1871595537
 21
137.1136398142
 31
0.0
  0
SPLINE
  5
25D
330
1F
100
AcDbEntity
  8
0
  6
Continuous
 62
     7
370
    15
100
AcDbSpline
210
0.0
220
0.0
230
1.0
 70
     8
 71
     3
 72
    26
 73
    22
 74
     0
 42
0.00000001
 43
0.00000001
 40
0.0
 40
0.0
 40
0.0
 40
0.0
 40
0.0542934793927659
 40
0.1046646564035837
 40
0.1550477581870739
 40
0.2070327580286354
 40
0.2590234159274337
 40
0.313524152248606
 40
0.3680143648624147
 40
0.422141825822641
 40
0.4762575161694205
 40
0.5278222459158471
 40
0.5793910486572712
 40
0.6301367528401448
 40
0.6808933356969669
 40
0.7335316473117997
 40
0.7861731328880565
 40
0.840881385636055
 40
0.8955757329219473
 40
0.9477925170289212
 40
1.0
 40
1.0
 40
1.0
 40
1.0
 10
148.187159553667
 20
134.2852126894538
 30
0.0
 10
148.1857472848582
 20
134.2847102165013
 30
0.0
 10
148.1830247732182
 20
134.2837415705513
 30
0.0
 10
148.1618239659377
 20
134.2764073701611
 30
0.0
 10
148.1301829313715
 20
134.2661664522712
 30
0.0
 10
148.0864972088503
 20
134.2532660420787
 30
0.0
 10
148.0313649703314
 20
134.2390021440438
 30
0.0
 10
147.9655438805333
 20
134.224929925975
 30
0.0
 10
147.8907067288049
 20
134.2125755057015
 30
0.0
 10
147.8096202191853
 20
134.2037194770544
 30
0.0
 10
147.7262225258878
 20
134.1991248050494
 30
0.0
 10
147.6429816206924
 20
134.1993942942875
 30
0.0
 10
147.5627943907643
 20
134.2038751358854
 30
0.0
 10
147.4866537312506
 20
134.2123140330298
 30
0.0
 10
147.4153762205351
 20
134.2236930479244
 30
0.0
 10
147.3507108070791
 20
134.2372191723601
 30
0.0
 10
147.2935090271014
 20
134.2516576062299
 30
0.0
 10
147.2466489073811
 20
134.265349875791
 30
0.0
 10
147.2124441557338
 20
134.2764361497402
 30
0.0
 10
147.191206280774
 20
134.283746496759
 30
0.0
 10
147.1885083826015
 20
134.2847239875774
 30
0.0
 10
147.187159553667
 20
134.2852126894538
 30
0.0
  0
SPLINE
  5
25E
330
1F
100
AcDbEntity
  8
0
  6
Continuous
 62
     7
370
    15
100
AcDbSpline
210
0.0
220
0.0
230
1.0
 70
     8
 71
     3
 72
    27
 73
    23
 74
     0
 42
0.00000001
 43
0.00000001
 40
0.0
 40
0.0
 40
0.0
 40
0.0
 40
0.0397824602940179
 40
0.0795674720964449
 40
0.13004193501297
 40
0.1805282324161785
 40
0.2332239592229926
 40
0.285921626510491
 40
0.3406786134164697
 40
0.3954222356151694
 40
0.4477158270936732
 40
0.5000017864706032
 40
0.5517185577296339
 40
0.6034425743844807
 40
0.6550799927022458
 40
0.7067282762871884
 40
0.7599951267990145
 40
0.813261065253437
 40
0.8680637373817648
 40
0.9228501919104277
 40
0.9614261953109151
 40
1.0
 40
1.0
 40
1.0
 40
1.0
 10
147.187159553667
 20
137.1136398142
 30
0.0
 10
147.1879351509996
 20
137.1139183409479
 30
0.0
 10
147.1894863954088
 20
137.1144754123074
 30
0.0
 10
147.2027660470534
 20
137.119096035966
 30
0.0
 10
147.2267761157549
 20
137.1271634658812
 30
0.0
 10
147.2645495889143
 20
137.1389004408837
 30
0.0
 10
147.3139032763177
 20
137.1526003888532
 30
0.0
 10
147.3745875418675
 20
137.1670250436196
 30
0.0
 10
147.4452249436007
 20
137.1803996275114
 30
0.0
 10
147.5228886490135
 20
137.1911553754254
 30
0.0
 10
147.6044296009128
 20
137.1978321338665
 30
0.0
 10
147.6868599066323
 20
137.2002141930785
 30
0.0
 10
147.7689866124464
 20
137.197868170956
 30
0.0
 10
147.8484061386534
 20
137.1914340957108
 30
0.0
 10
147.9230761206035
 20
137.1813131059827
 30
0.0
 10
147.9920511810105
 20
137.1686328936847
 30
0.0
 10
148.0532427132482
 20
137.1544476833926
 30
0.0
 10
148.1056666627139
 20
137.1401385286457
 30
0.0
 10
148.1466549157537
 20
137.127478896481
 30
0.0
 10
148.1719146132527
 20
137.1189717455174
 30
0.0
 10
148.1849719334254
 20
137.1144248504753
 30
0.0
 10
148.1864303607745
 20
137.1139014879866
 30
0.0
 10
148.187159553667
 20
137.1136398142
 30
0.0
  0
ARC
  5
25F
330
1F
100
AcDbEntity
  8
0
  6
Continuous
 62
     7
370
    15
100
AcDbCircle
 10
147.6871595537
 20
135.6994262518
 30
0.0
 40
1.499999999999984
100
AcDbArc
 50
109.4712206345
 51
250.5287793655
  0
ARC
  5
260
330
1F
100
AcDbEntity
  8
0
  6
Continuous
 62
     7
370
    15
100
AcDbCircle
 10
147.6871595537
 20
135.6994262518
 30
0.0
 40
1.499999999999984
100
AcDbArc
 50
289.4712206345
 51
70.5287793655
  0
HATCH
  5
261
330
1F
100
AcDbEntity
  8
0
  6
Continuous
 62
     7
370
     0
100
AcDbHatch
 10
0.0
 20
0.0
 30
0.0
210
0.0
220
0.0
230
1.0
  2
ANSI38
 70
     0
 71
     0
 91
        1
 92
        0
 93
        2
 72
     1
 10
148.187159553667
 20
137.1136398141999
 11
148.187159553667
 21
134.2852126894537
 72
     2
 10
147.687159553667
 20
135.6994262518268
 40
1.5
 50
289.4712206344917
 51
430.5287793655103
 73
     1
 97
        0
 75
     0
 76
     1
 52
0.0
 41
1.0
 77
     0
 78
     2
 53
45.0
 43
0.0
 44
0.0
 45
-2.245064030267288
 46
2.245064030267288
 79
     0
 53
135.0
 43
0.0
 44
0.0
 45
-6.735192090801864
 46
2.245064030267289
 79
     2
 49
7.9375
 49
-4.7625
 98
        1
 10
0.0
 20
0.0
  0
HATCH
  5
262
330
1F
100
AcDbEntity
  8
0
  6
Continuous
 62
     7
370
     0
100
AcDbHatch
 10
0.0
 20
0.0
 30
0.0
210
0.0
220
0.0
230
1.0
  2
ANSI38
 70
     0
 71
     0
 91
        1
 92
        0
 93
        2
 72
     1
 10
147.187159553667
 20
134.2852126894537
 11
147.187159553667
 21
137.1136398141999
 72
     2
 10
147.687159553667
 20
135.6994262518268
 40
1.5
 50
109.4712206344905
 51
250.5287793655098
 73
     1
 97
        0
 75
     0
 76
     1
 52
0.0
 41
1.0
 77
     0
 78
     2
 53
45.0
 43
0.0
 44
0.0
 45
-2.245064030267288
 46
2.245064030267288
 79
     0
 53
135.0
 43
0.0
 44
0.0
 45
-6.735192090801864
 46
2.245064030267289
 79
     2
 49
7.9375
 49
-4.7625
 98
        1
 10
0.0
 20
0.0
  0
DIMENSION
  5
263
330
1F
100
AcDbEntity
  8
0
  6
Continuous
 62
     7
370
     0
100
AcDbDimension
  2
*D22
 10
148.1871595537
 20
156.3597562531
 30
0.0
 11
136.1871595537
 21
156.3597562531
 31
0.0
 70
   160
  1
(%%c<>)
 71
     2
 42
-1.0
  3
SLDDIMSTYLE4
100
AcDbAlignedDimension
 13
147.1871595537
 23
137.1136398142
 33
0.0
 14
148.1871595537
 24
137.1136398142
 34
0.0
100
AcDbRotatedDimension
  0
INSERT
  5
276
330
1F
100
AcDbEntity
  8
0
  6
Continuous
 62
     7
370
     0
100
AcDbBlockReference
  2
SW_NOTE_11
 10
133.7430598964
 20
127.5898634671
 30
0.0
  0
INSERT
  5
281
330
1F
100
AcDbEntity
  8
0
  6
Continuous
 62
     7
370
     0
100
AcDbBlockReference
  2
SW_DATUMTAG_3
 10
164.9191773119
 20
150.4213010817
 30
0.0
  0
ENDSEC
  0
SECTION
  2
OBJECTS
  0
DICTIONARY
  5
C
330
0
100
AcDbDictionary
281
     1
  3
ACAD_GROUP
350
D
  3
ACAD_IMAGE_DICT
350
45
  3
ACAD_LAYOUT
350
1A
  3
ACAD_MLINESTYLE
350
17
  3
ACAD_PLOTSETTINGS
350
19
  3
ACAD_PLOTSTYLENAME
350
E
  0
IMAGEDEF_REACTOR
  5
48
330
47
100
AcDbRasterImageDefReactor
 90
        2
330
47
  0
DICTIONARY
  5
D
102
{ACAD_REACTORS
330
C
102
}
330
C
100
AcDbDictionary
281
     1
  0
DICTIONARY
  5
45
102
{ACAD_REACTORS
330
C
102
}
330
C
100
AcDbDictionary
281
     1
  3
J:\Ingenierie\Projets INNOVANTS\HOWIT\Prototype-2013\Plans\dxfD4B6.bmp
350
46
  0
DICTIONARY
  5
1A
102
{ACAD_REACTORS
330
C
102
}
330
C
100
AcDbDictionary
281
     1
  3
Layout1
350
1E
  3
Layout2
350
26
  3
Model
350
22
  0
DICTIONARY
  5
17
102
{ACAD_REACTORS
330
C
102
}
330
C
100
AcDbDictionary
281
     1
  3
Standard
350
18
  0
DICTIONARY
  5
19
102
{ACAD_REACTORS
330
C
102
}
330
C
100
AcDbDictionary
281
     1
  0
ACDBDICTIONARYWDFLT
  5
E
102
{ACAD_REACTORS
330
C
102
}
330
C
100
AcDbDictionary
281
     1
  3
Normal
350
F
100
AcDbDictionaryWithDefault
340
F
  0
IMAGEDEF
  5
46
102
{ACAD_REACTORS
330
45
330
48
102
}
330
45
100
AcDbRasterImageDef
 90
        0
  1
J:\Ingenierie\Projets INNOVANTS\HOWIT\Prototype-2013\Plans\dxfD4B6.bmp
 10
400.0
 20
420.0
 11
0.2645502645502645
 21
0.2645502645502645
280
     1
281
     3
  0
LAYOUT
  5
1E
102
{ACAD_REACTORS
330
1A
102
}
330
1A
100
AcDbPlotSettings
  1

  2
none_device
  4

  6

 40
0.0
 41
0.0
 42
0.0
 43
0.0
 44
0.0
 45
0.0
 46
0.0
 47
0.0
 48
0.0
 49
0.0
140
0.0
141
0.0
142
1.0
143
1.0
 70
   688
 72
     0
 73
     0
 74
     5
  7

 75
    16
147
1.0
148
0.0
149
0.0
100
AcDbLayout
  1
Layout1
 70
     1
 71
     1
 10
0.0
 20
0.0
 11
420.0
 21
297.0
 12
0.0
 22
0.0
 32
0.0
 14
1.0000000000E+20
 24
1.0000000000E+20
 34
1.0000000000E+20
 15
-1.0000000000E+20
 25
-1.0000000000E+20
 35
-1.0000000000E+20
146
0.0
 13
0.0
 23
0.0
 33
0.0
 16
1.0
 26
0.0
 36
0.0
 17
0.0
 27
1.0
 37
0.0
 76
     0
330
1B
  0
LAYOUT
  5
26
102
{ACAD_REACTORS
330
1A
102
}
330
1A
100
AcDbPlotSettings
  1

  2
none_device
  4

  6

 40
0.0
 41
0.0
 42
0.0
 43
0.0
 44
0.0
 45
0.0
 46
0.0
 47
0.0
 48
0.0
 49
0.0
140
0.0
141
0.0
142
1.0
143
1.0
 70
   688
 72
     0
 73
     0
 74
     5
  7

 75
    16
147
1.0
148
0.0
149
0.0
100
AcDbLayout
  1
Layout2
 70
     1
 71
     2
 10
0.0
 20
0.0
 11
0.0
 21
0.0
 12
0.0
 22
0.0
 32
0.0
 14
0.0
 24
0.0
 34
0.0
 15
0.0
 25
0.0
 35
0.0
146
0.0
 13
0.0
 23
0.0
 33
0.0
 16
1.0
 26
0.0
 36
0.0
 17
0.0
 27
1.0
 37
0.0
 76
     0
330
23
  0
LAYOUT
  5
22
102
{ACAD_REACTORS
330
1A
102
}
330
1A
100
AcDbPlotSettings
  1

  2
none_device
  4

  6

 40
0.0
 41
0.0
 42
0.0
 43
0.0
 44
0.0
 45
0.0
 46
0.0
 47
0.0
 48
0.0
 49
0.0
140
0.0
141
0.0
142
1.0
143
1.0
 70
  1712
 72
     0
 73
     0
 74
     0
  7

 75
     0
147
1.0
148
0.0
149
0.0
100
AcDbLayout
  1
Model
 70
     1
 71
     0
 10
0.0
 20
0.0
 11
420.0
 21
297.0
 12
0.0
 22
0.0
 32
0.0
 14
0.0
 24
0.0
 34
0.0
 15
420.0
 25
297.0
 35
0.0
146
0.0
 13
0.0
 23
0.0
 33
0.0
 16
1.0
 26
0.0
 36
0.0
 17
0.0
 27
1.0
 37
0.0
 76
     0
330
1F
331
29
  0
MLINESTYLE
  5
18
102
{ACAD_REACTORS
330
17
102
}
330
17
100
AcDbMlineStyle
  2
Standard
 70
     0
  3

 62
   256
 51
90.0
 52
90.0
 71
     2
 49
0.5
 62
   256
  6
BYLAYER
 49
-0.5
 62
   256
  6
BYLAYER
  0
ACDBPLACEHOLDER
  5
F
102
{ACAD_REACTORS
330
E
102
}
330
E
  0
ENDSEC
  0
EOF
