  0
SECTION
  2
HEADER
  9
$ACADVER
  1
AC1015
  9
$ACADMAINTVER
 70
     6
  9
$DWGCODEPAGE
  3
ANSI_1252
  9
$INSBASE
 10
0.0
 20
0.0
 30
0.0
  9
$EXTMIN
 10
0.0
 20
0.0
 30
0.0
  9
$EXTMAX
 10
420.0
 20
297.0
 30
0.0
  9
$LIMMIN
 10
0.0
 20
0.0
  9
$LIMMAX
 10
420.0
 20
297.0
  9
$ORTHOMODE
 70
     0
  9
$REGENMODE
 70
     1
  9
$FILLMODE
 70
     1
  9
$QTEXTMODE
 70
     0
  9
$MIRRTEXT
 70
     1
  9
$LTSCALE
 40
1.0
  9
$ATTMODE
 70
     1
  9
$TEXTSIZE
 40
3.5
  9
$TRACEWID
 40
1.0
  9
$TEXTSTYLE
  7
Standard
  9
$CLAYER
  8
0
  9
$CELTYPE
  6
ByLayer
  9
$CECOLOR
 62
   256
  9
$CELTSCALE
 40
1.0
  9
$DISPSILH
 70
     0
  9
$DIMSCALE
 40
1.0
  9
$DIMASZ
 40
3.302
  9
$DIMEXO
 40
1.0
  9
$DIMDLI
 40
3.75
  9
$DIMRND
 40
0.0
  9
$DIMDLE
 40
0.0
  9
$DIMEXE
 40
1.0
  9
$DIMTP
 40
0.0
  9
$DIMTM
 40
0.0
  9
$DIMTXT
 40
3.5
  9
$DIMCEN
 40
2.5
  9
$DIMTSZ
 40
0.0
  9
$DIMTOL
 70
     0
  9
$DIMLIM
 70
     0
  9
$DIMTIH
 70
     1
  9
$DIMTOH
 70
     1
  9
$DIMSE1
 70
     0
  9
$DIMSE2
 70
     0
  9
$DIMTAD
 70
     1
  9
$DIMZIN
 70
     0
  9
$DIMBLK
  1

  9
$DIMASO
 70
     1
  9
$DIMSHO
 70
     1
  9
$DIMPOST
  1

  9
$DIMAPOST
  1

  9
$DIMALT
 70
     0
  9
$DIMALTD
 70
     3
  9
$DIMALTF
 40
0.0393700787
  9
$DIMLFAC
 40
2.0
  9
$DIMTOFL
 70
     1
  9
$DIMTVP
 40
0.0
  9
$DIMTIX
 70
     0
  9
$DIMSOXD
 70
     0
  9
$DIMSAH
 70
     0
  9
$DIMBLK1
  1

  9
$DIMBLK2
  1

  9
$DIMSTYLE
  2
ISO-25
  9
$DIMCLRD
 70
     0
  9
$DIMCLRE
 70
     0
  9
$DIMCLRT
 70
     0
  9
$DIMTFAC
 40
1.0
  9
$DIMGAP
 40
1.524
  9
$DIMJUST
 70
     0
  9
$DIMSD1
 70
     0
  9
$DIMSD2
 70
     0
  9
$DIMTOLJ
 70
     0
  9
$DIMTZIN
 70
     0
  9
$DIMALTZ
 70
     0
  9
$DIMALTTZ
 70
     0
  9
$DIMUPT
 70
     0
  9
$DIMDEC
 70
     3
  9
$DIMTDEC
 70
     3
  9
$DIMALTU
 70
     2
  9
$DIMALTTD
 70
     3
  9
$DIMTXSTY
  7
Standard
  9
$DIMAUNIT
 70
     0
  9
$DIMADEC
 70
     2
  9
$DIMALTRND
 40
0.0
  9
$DIMAZIN
 70
     0
  9
$DIMDSEP
 70
    44
  9
$DIMATFIT
 70
     3
  9
$DIMFRAC
 70
     0
  9
$DIMLDRBLK
  1

  9
$DIMLUNIT
 70
     2
  9
$DIMLWD
 70
    -2
  9
$DIMLWE
 70
    -2
  9
$DIMTMOVE
 70
     0
  9
$LUNITS
 70
     2
  9
$LUPREC
 70
     2
  9
$SKETCHINC
 40
1.0
  9
$FILLETRAD
 40
10.0
  9
$AUNITS
 70
     0
  9
$AUPREC
 70
     2
  9
$MENU
  1
.
  9
$ELEVATION
 40
0.0
  9
$PELEVATION
 40
0.0
  9
$THICKNESS
 40
0.0
  9
$LIMCHECK
 70
     0
  9
$CHAMFERA
 40
10.0
  9
$CHAMFERB
 40
10.0
  9
$CHAMFERC
 40
20.0
  9
$CHAMFERD
 40
0.0
  9
$SKPOLY
 70
     0
  9
$TDCREATE
 40
2456833.427686817
  9
$TDUCREATE
 40
2456833.386020151
  9
$TDUPDATE
 40
2456833.427686829
  9
$TDUUPDATE
 40
2456833.386020162
  9
$TDINDWG
 40
0.0000000116
  9
$TDUSRTIMER
 40
0.0000000116
  9
$USRTIMER
 70
     1
  9
$ANGBASE
 50
0.0
  9
$ANGDIR
 70
     0
  9
$PDMODE
 70
     0
  9
$PDSIZE
 40
-1.0
  9
$PLINEWID
 40
0.0
  9
$SPLFRAME
 70
     0
  9
$SPLINETYPE
 70
     6
  9
$SPLINESEGS
 70
     8
  9
$HANDSEED
  5
181
  9
$SURFTAB1
 70
     6
  9
$SURFTAB2
 70
     6
  9
$SURFTYPE
 70
     6
  9
$SURFU
 70
     6
  9
$SURFV
 70
     6
  9
$UCSBASE
  2

  9
$UCSNAME
  2

  9
$UCSORG
 10
0.0
 20
0.0
 30
0.0
  9
$UCSXDIR
 10
1.0
 20
0.0
 30
0.0
  9
$UCSYDIR
 10
0.0
 20
1.0
 30
0.0
  9
$UCSORTHOREF
  2

  9
$UCSORTHOVIEW
 70
     0
  9
$UCSORGTOP
 10
0.0
 20
0.0
 30
0.0
  9
$UCSORGBOTTOM
 10
0.0
 20
0.0
 30
0.0
  9
$UCSORGLEFT
 10
0.0
 20
0.0
 30
0.0
  9
$UCSORGRIGHT
 10
0.0
 20
0.0
 30
0.0
  9
$UCSORGFRONT
 10
0.0
 20
0.0
 30
0.0
  9
$UCSORGBACK
 10
0.0
 20
0.0
 30
0.0
  9
$PUCSBASE
  2

  9
$PUCSNAME
  2

  9
$PUCSORG
 10
0.0
 20
0.0
 30
0.0
  9
$PUCSXDIR
 10
1.0
 20
0.0
 30
0.0
  9
$PUCSYDIR
 10
0.0
 20
1.0
 30
0.0
  9
$PUCSORTHOREF
  2

  9
$PUCSORTHOVIEW
 70
     0
  9
$PUCSORGTOP
 10
0.0
 20
0.0
 30
0.0
  9
$PUCSORGBOTTOM
 10
0.0
 20
0.0
 30
0.0
  9
$PUCSORGLEFT
 10
0.0
 20
0.0
 30
0.0
  9
$PUCSORGRIGHT
 10
0.0
 20
0.0
 30
0.0
  9
$PUCSORGFRONT
 10
0.0
 20
0.0
 30
0.0
  9
$PUCSORGBACK
 10
0.0
 20
0.0
 30
0.0
  9
$USERI1
 70
     0
  9
$USERI2
 70
     0
  9
$USERI3
 70
     0
  9
$USERI4
 70
     0
  9
$USERI5
 70
     0
  9
$USERR1
 40
0.0
  9
$USERR2
 40
0.0
  9
$USERR3
 40
0.0
  9
$USERR4
 40
0.0
  9
$USERR5
 40
0.0
  9
$WORLDVIEW
 70
     1
  9
$SHADEDGE
 70
     3
  9
$SHADEDIF
 70
    70
  9
$TILEMODE
 70
     1
  9
$MAXACTVP
 70
    64
  9
$PINSBASE
 10
0.0
 20
0.0
 30
0.0
  9
$PLIMCHECK
 70
     0
  9
$PEXTMIN
 10
1.0000000000E+20
 20
1.0000000000E+20
 30
1.0000000000E+20
  9
$PEXTMAX
 10
-1.0000000000E+20
 20
-1.0000000000E+20
 30
-1.0000000000E+20
  9
$PLIMMIN
 10
0.0
 20
0.0
  9
$PLIMMAX
 10
420.0
 20
297.0
  9
$UNITMODE
 70
     0
  9
$VISRETAIN
 70
     1
  9
$PLINEGEN
 70
     0
  9
$PSLTSCALE
 70
     1
  9
$TREEDEPTH
 70
  3020
  9
$CMLSTYLE
  2
Standard
  9
$CMLJUST
 70
     0
  9
$CMLSCALE
 40
20.0
  9
$PROXYGRAPHICS
 70
     1
  9
$MEASUREMENT
 70
     1
  9
$CELWEIGHT
370
    -1
  9
$ENDCAPS
280
     0
  9
$JOINSTYLE
280
     0
  9
$LWDISPLAY
290
     1
  9
$INSUNITS
 70
     4
  9
$HYPERLINKBASE
  1

  9
$STYLESHEET
  1

  9
$XEDIT
290
     1
  9
$CEPSNTYPE
380
     0
  9
$PSTYLEMODE
290
     1
  9
$FINGERPRINTGUID
  2
{95F3C64B-50F2-4E3F-8D03-CB68DE7C57FD}
  9
$VERSIONGUID
  2
{FAEB1C32-E019-11D5-929B-00C0DF256EC4}
  9
$EXTNAMES
290
     1
  9
$PSVPSCALE
 40
0.0
  9
$OLESTARTUP
290
     0
  0
ENDSEC
  0
SECTION
  2
CLASSES
  0
CLASS
  1
ACDBDICTIONARYWDFLT
  2
AcDbDictionaryWithDefault
  3
ObjectDBX Classes
 90
        0
280
     0
281
     0
  0
CLASS
  1
VISUALSTYLE
  2
AcDbVisualStyle
  3
ObjectDBX Classes
 90
     4095
280
     0
281
     0
  0
CLASS
  1
MATERIAL
  2
AcDbMaterial
  3
ObjectDBX Classes
 90
     1153
280
     0
281
     0
  0
CLASS
  1
IMAGEDEF
  2
AcDbRasterImageDef
  3
ISM
 90
        0
280
     0
281
     0
  0
CLASS
  1
IMAGE
  2
AcDbRasterImage
  3
ISM
 90
      127
280
     0
281
     1
  0
CLASS
  1
IMAGEDEF_REACTOR
  2
AcDbRasterImageDefReactor
  3
ISM
 90
        1
280
     0
281
     0
  0
CLASS
  1
ACDBPLACEHOLDER
  2
AcDbPlaceHolder
  3
ObjectDBX Classes
 90
        0
280
     0
281
     0
  0
CLASS
  1
LAYOUT
  2
AcDbLayout
  3
ObjectDBX Classes
 90
        0
280
     0
281
     0
  0
ENDSEC
  0
SECTION
  2
TABLES
  0
TABLE
  2
VPORT
  5
8
330
0
100
AcDbSymbolTable
 70
     1
  0
VPORT
  5
29
330
8
100
AcDbSymbolTableRecord
100
AcDbViewportTableRecord
  2
*Active
 70
     0
 10
0.0
 20
0.0
 11
1.0
 21
1.0
 12
210.0
 22
148.5
 13
0.0
 23
0.0
 14
10.0
 24
10.0
 15
10.0
 25
10.0
 16
0.0
 26
0.0
 36
1.0
 17
0.0
 27
0.0
 37
0.0
 40
297.0
 41
1.4141414141
 42
50.0
 43
0.0
 44
0.0
 50
0.0
 51
0.0
 71
     0
 72
  2000
 73
     1
 74
     3
 75
     0
 76
     0
 77
     0
 78
     0
281
     0
 65
     1
110
0.0
120
0.0
130
0.0
111
1.0
121
0.0
131
0.0
112
0.0
122
1.0
132
0.0
 79
     0
146
0.0
  0
ENDTAB
  0
TABLE
  2
LTYPE
  5
5
330
0
100
AcDbSymbolTable
 70
     6
  0
LTYPE
  5
14
330
5
100
AcDbSymbolTableRecord
100
AcDbLinetypeTableRecord
  2
ByBlock
 70
     0
  3

 72
    65
 73
     0
 40
0.0
  0
LTYPE
  5
15
330
5
100
AcDbSymbolTableRecord
100
AcDbLinetypeTableRecord
  2
ByLayer
 70
     0
  3

 72
    65
 73
     0
 40
0.0
  0
LTYPE
  5
16
330
5
100
AcDbSymbolTableRecord
100
AcDbLinetypeTableRecord
  2
Continuous
 70
     0
  3
Solid line
 72
    65
 73
     0
 40
0.0
  0
LTYPE
  5
3F
330
5
100
AcDbSymbolTableRecord
100
AcDbLinetypeTableRecord
  2
HIDDEN
 70
     0
  3
Hidden __ __ __ __ __ __ __ __ __ __ __ __ __ __
 72
    65
 73
     2
 40
1.905
 49
1.27
 74
     0
 49
-0.635
 74
     0
  0
LTYPE
  5
40
330
5
100
AcDbSymbolTableRecord
100
AcDbLinetypeTableRecord
  2
PHANTOM
 70
     0
  3
Phantom ______  __  __  ______  __  __  ______
 72
    65
 73
     6
 40
12.7
 49
6.35
 74
     0
 49
-1.27
 74
     0
 49
1.27
 74
     0
 49
-1.27
 74
     0
 49
1.27
 74
     0
 49
-1.27
 74
     0
  0
LTYPE
  5
41
330
5
100
AcDbSymbolTableRecord
100
AcDbLinetypeTableRecord
  2
CENTER
 70
     0
  3
Center ____ _ ____ _ ____ _ ____ _ ____ _ ____
 72
    65
 73
     4
 40
10.16
 49
6.35
 74
     0
 49
-1.27
 74
     0
 49
1.27
 74
     0
 49
-1.27
 74
     0
  0
LTYPE
  5
42
330
5
100
AcDbSymbolTableRecord
100
AcDbLinetypeTableRecord
  2
CENTERX2
 70
     0
  3
Center (2x) ________  __  ________  __  _____
 72
    65
 73
     4
 40
20.32
 49
12.7
 74
     0
 49
-2.54
 74
     0
 49
2.54
 74
     0
 49
-2.54
 74
     0
  0
LTYPE
  5
43
330
5
100
AcDbSymbolTableRecord
100
AcDbLinetypeTableRecord
  2
DOT2
 70
     0
  3
Dot (.5x) ........................................
 72
    65
 73
     2
 40
0.635
 49
0.0
 74
     0
 49
-0.635
 74
     0
  0
ENDTAB
  0
TABLE
  2
LAYER
  5
2
330
0
100
AcDbSymbolTable
 70
     2
  0
LAYER
  5
10
330
2
100
AcDbSymbolTableRecord
100
AcDbLayerTableRecord
  2
0
 70
     0
 62
     7
  6
Continuous
370
    -3
390
F
  0
LAYER
  5
44
330
2
100
AcDbSymbolTableRecord
100
AcDbLayerTableRecord
  2
FORMAT
 70
     0
 62
     7
  6
Continuous
370
    -3
390
F
  0
ENDTAB
  0
TABLE
  2
STYLE
  5
3
330
0
100
AcDbSymbolTable
 70
     4
  0
STYLE
  5
11
330
3
100
AcDbSymbolTableRecord
100
AcDbTextStyleTableRecord
  2
Standard
 70
     0
 40
0.0
 41
1.0
 50
0.0
 71
     0
 42
2.5
  3
txt
  4

  0
STYLE
  5
6D
330
3
100
AcDbSymbolTableRecord
100
AcDbTextStyleTableRecord
  2
SLDTEXTSTYLE0
 70
     0
 40
0.0
 41
0.75
 50
0.0
 71
     0
 42
0.2
  3
TXT
  4

  0
STYLE
  5
79
330
3
100
AcDbSymbolTableRecord
100
AcDbTextStyleTableRecord
  2
SLDTEXTSTYLE1
 70
     0
 40
0.0
 41
0.7
 50
0.0
 71
     0
 42
0.2
  3
TXT
  4

  0
STYLE
  5
96
330
3
100
AcDbSymbolTableRecord
100
AcDbTextStyleTableRecord
  2
SLDTEXTSTYLE2
 70
     0
 40
0.0
 41
0.6875
 50
0.0
 71
     0
 42
0.2
  3
TXT
  4

  0
ENDTAB
  0
TABLE
  2
VIEW
  5
6
330
0
100
AcDbSymbolTable
 70
     0
  0
ENDTAB
  0
TABLE
  2
UCS
  5
7
330
0
100
AcDbSymbolTable
 70
     0
  0
ENDTAB
  0
TABLE
  2
APPID
  5
9
330
0
100
AcDbSymbolTable
 70
     1
  0
APPID
  5
12
330
9
100
AcDbSymbolTableRecord
100
AcDbRegAppTableRecord
  2
ACAD
 70
     0
  0
ENDTAB
  0
TABLE
  2
DIMSTYLE
  5
A
330
0
100
AcDbSymbolTable
 70
     8
100
AcDbDimStyleTable
  0
DIMSTYLE
105
27
330
A
100
AcDbSymbolTableRecord
100
AcDbDimStyleTableRecord
  2
ISO-25
 70
     0
 41
2.5
 42
0.625
 43
3.75
 44
1.25
 73
     0
 74
     0
 77
     1
 78
     8
140
2.5
141
2.5
143
0.0393700787
147
0.625
171
     3
172
     1
178
     0
271
     2
272
     2
274
     3
278
    44
283
     0
284
     8
340
11
  0
DIMSTYLE
105
A9
102
{ACAD_REACTORS
330
A8
330
B4
102
}
330
A
100
AcDbSymbolTableRecord
100
AcDbDimStyleTableRecord
  2
SLDDIMSTYLE0
 70
     0
 41
3.302
 44
0.0
 73
     0
 74
     0
 77
     1
 78
    12
 79
     3
140
3.5
144
2.0
147
0.875
173
     1
178
     0
179
     2
272
     2
276
     2
284
    12
340
6D
  0
DIMSTYLE
105
C0
102
{ACAD_REACTORS
330
BF
330
15B
102
}
330
A
100
AcDbSymbolTableRecord
100
AcDbDimStyleTableRecord
  2
SLDDIMSTYLE1
 70
     0
 41
3.302
 44
0.0
 45
0.000000001
 73
     0
 74
     0
 77
     1
 78
    12
 79
     3
140
3.5
144
2.0
147
0.875
172
     1
173
     1
178
     0
271
     2
272
     2
276
     2
284
    12
289
     0
340
6D
  0
DIMSTYLE
105
CE
102
{ACAD_REACTORS
330
CD
102
}
330
A
100
AcDbSymbolTableRecord
100
AcDbDimStyleTableRecord
  2
SLDDIMSTYLE2
 70
     0
 41
3.302
 44
0.0
 45
0.000000001
 73
     0
 74
     0
 77
     1
 78
    12
 79
     3
140
3.5
141
0.0
144
2.0
147
0.875
172
     1
173
     1
178
     0
271
     2
272
     2
276
     2
284
    12
340
6D
341
CF
343
CF
  0
DIMSTYLE
105
DC
102
{ACAD_REACTORS
330
DB
102
}
330
A
100
AcDbSymbolTableRecord
100
AcDbDimStyleTableRecord
  2
SLDDIMSTYLE3
 70
     0
 41
3.302
 44
0.0
 45
0.000000001
 73
     0
 74
     0
 77
     1
 78
    12
 79
     3
140
3.5
141
0.0
144
2.0
147
0.875
172
     1
173
     1
178
     0
271
     2
272
     2
276
     2
284
    12
340
6D
341
CF
343
CF
  0
DIMSTYLE
105
E6
102
{ACAD_REACTORS
330
E5
102
}
330
A
100
AcDbSymbolTableRecord
100
AcDbDimStyleTableRecord
  2
SLDDIMSTYLE4
 70
     0
 41
3.302
 44
0.0
 45
0.000000001
 73
     0
 74
     0
 77
     1
 78
    12
 79
     3
140
3.5
141
0.0
144
2.0
147
0.875
172
     1
173
     1
178
     0
271
     2
272
     2
276
     2
284
    12
340
6D
341
CF
343
CF
  0
DIMSTYLE
105
F1
102
{ACAD_REACTORS
330
F0
330
FA
102
}
330
A
100
AcDbSymbolTableRecord
100
AcDbDimStyleTableRecord
  2
SLDDIMSTYLE5
 70
     0
 41
3.302
 44
0.0
 45
0.000000001
 73
     0
 74
     0
 77
     1
 78
    12
 79
     3
140
3.5
141
0.0
144
2.0
147
0.875
172
     1
173
     1
178
     0
271
     2
272
     2
276
     2
284
    12
340
6D
341
CF
343
CF
  0
DIMSTYLE
105
104
102
{ACAD_REACTORS
330
103
102
}
330
A
100
AcDbSymbolTableRecord
100
AcDbDimStyleTableRecord
  2
SLDDIMSTYLE6
 70
     0
 41
3.302
 44
0.0
 45
0.000000001
 73
     0
 74
     0
 77
     1
 78
    12
 79
     3
140
3.5
141
0.0
144
2.0
147
0.875
173
     1
178
     0
271
     2
272
     2
276
     2
284
    12
340
6D
  0
ENDTAB
  0
TABLE
  2
BLOCK_RECORD
  5
1
330
0
100
AcDbSymbolTable
 70
    16
  0
BLOCK_RECORD
  5
1F
330
1
100
AcDbSymbolTableRecord
100
AcDbBlockTableRecord
  2
*Model_Space
340
22
  0
BLOCK_RECORD
  5
1B
330
1
100
AcDbSymbolTableRecord
100
AcDbBlockTableRecord
  2
*Paper_Space
340
1E
  0
BLOCK_RECORD
  5
23
330
1
100
AcDbSymbolTableRecord
100
AcDbBlockTableRecord
  2
*Paper_Space0
340
26
  0
BLOCK_RECORD
  5
6A
330
1
100
AcDbSymbolTableRecord
100
AcDbBlockTableRecord
  2
SW_NOTE_0
340
0
102
{BLKREFS
331
70
102
}
  0
BLOCK_RECORD
  5
84
330
1
100
AcDbSymbolTableRecord
100
AcDbBlockTableRecord
  2
SW_NOTE_1
340
0
102
{BLKREFS
331
89
102
}
  0
BLOCK_RECORD
  5
90
330
1
100
AcDbSymbolTableRecord
100
AcDbBlockTableRecord
  2
SW_NOTE_2
340
0
102
{BLKREFS
331
9A
102
}
  0
BLOCK_RECORD
  5
AA
330
1
100
AcDbSymbolTableRecord
100
AcDbBlockTableRecord
  2
*D4
340
0
  0
BLOCK_RECORD
  5
B5
330
1
100
AcDbSymbolTableRecord
100
AcDbBlockTableRecord
  2
*D5
340
0
  0
BLOCK_RECORD
  5
C1
330
1
100
AcDbSymbolTableRecord
100
AcDbBlockTableRecord
  2
*D6
340
0
  0
BLOCK_RECORD
  5
CF
330
1
100
AcDbSymbolTableRecord
100
AcDbBlockTableRecord
  2
_NONE
340
0
  0
BLOCK_RECORD
  5
D2
330
1
100
AcDbSymbolTableRecord
100
AcDbBlockTableRecord
  2
*D8
340
0
  0
BLOCK_RECORD
  5
DD
330
1
100
AcDbSymbolTableRecord
100
AcDbBlockTableRecord
  2
*D9
340
0
  0
BLOCK_RECORD
  5
E7
330
1
100
AcDbSymbolTableRecord
100
AcDbBlockTableRecord
  2
*D10
340
0
  0
BLOCK_RECORD
  5
F2
330
1
100
AcDbSymbolTableRecord
100
AcDbBlockTableRecord
  2
*D11
340
0
  0
BLOCK_RECORD
  5
FB
330
1
100
AcDbSymbolTableRecord
100
AcDbBlockTableRecord
  2
*D12
340
0
  0
BLOCK_RECORD
  5
105
330
1
100
AcDbSymbolTableRecord
100
AcDbBlockTableRecord
  2
*D13
340
0
  0
BLOCK_RECORD
  5
10C
330
1
100
AcDbSymbolTableRecord
100
AcDbBlockTableRecord
  2
SW_CENTERMARKSYMBOL_0
340
0
102
{BLKREFS
331
156
102
}
  0
BLOCK_RECORD
  5
15C
330
1
100
AcDbSymbolTableRecord
100
AcDbBlockTableRecord
  2
*D15
340
0
  0
ENDTAB
  0
ENDSEC
  0
SECTION
  2
BLOCKS
  0
BLOCK
  5
20
330
1F
100
AcDbEntity
  8
0
100
AcDbBlockBegin
  2
*Model_Space
 70
     0
 10
0.0
 20
0.0
 30
0.0
  3
*Model_Space
  1

  0
ENDBLK
  5
21
330
1F
100
AcDbEntity
  8
0
100
AcDbBlockEnd
  0
BLOCK
  5
1C
330
1B
100
AcDbEntity
 67
     1
  8
0
100
AcDbBlockBegin
  2
*Paper_Space
 70
     0
 10
0.0
 20
0.0
 30
0.0
  3
*Paper_Space
  1

  0
ENDBLK
  5
1D
330
1B
100
AcDbEntity
 67
     1
  8
0
100
AcDbBlockEnd
  0
BLOCK
  5
24
330
23
100
AcDbEntity
  8
0
100
AcDbBlockBegin
  2
*Paper_Space0
 70
     0
 10
0.0
 20
0.0
 30
0.0
  3
*Paper_Space0
  1

  0
ENDBLK
  5
25
330
23
100
AcDbEntity
  8
0
100
AcDbBlockEnd
  0
BLOCK
  5
6B
330
6A
100
AcDbEntity
  8
0
100
AcDbBlockBegin
  2
SW_NOTE_0
 70
     0
 10
0.0
 20
0.0
 30
0.0
  3
SW_NOTE_0
  1

  0
MTEXT
  5
6E
330
6A
100
AcDbEntity
  8
0
  6
Continuous
 62
     0
370
     0
100
AcDbMText
 10
-3.4106583948
 20
0.0
 30
0.0
 40
2.6458333333
 41
0.0
 71
     1
 72
     1
  1
Copyright © 2014 Théophile BRESSON, AeroSeeD SAS, Vincent MAUVADY, David VANTYGHEM, Pascal CORRADINI
  7
SLDTEXTSTYLE0
 11
-3.491481338843133E-15
 21
1.0
 31
0.0
 73
     1
 44
1.0
  0
MTEXT
  5
6F
330
6A
100
AcDbEntity
  8
0
  6
Continuous
 62
     0
370
     0
100
AcDbMText
 10
0.1171193403
 20
0.0
 30
0.0
 40
2.6458333333
 41
0.0
 71
     1
 72
     1
  1
Licensed under TAPR Open Hardware Licence (www.tapr.org/OHL)
  7
SLDTEXTSTYLE0
 11
-3.491481338843133E-15
 21
1.0
 31
0.0
 73
     1
 44
1.0
  0
ENDBLK
  5
6C
330
6A
100
AcDbEntity
  8
0
100
AcDbBlockEnd
  0
BLOCK
  5
85
330
84
100
AcDbEntity
  8
0
100
AcDbBlockBegin
  2
SW_NOTE_1
 70
     0
 10
0.0
 20
0.0
 30
0.0
  3
SW_NOTE_1
  1

  0
MTEXT
  5
87
330
84
100
AcDbEntity
  8
0
  6
Continuous
 62
     0
370
     0
100
AcDbMText
 10
0.0
 20
1.9336016097
 30
0.0
 40
1.5
 41
0.0
 71
     1
 72
     1
  1
CASSER LES
  7
SLDTEXTSTYLE0
 73
     1
 44
1.0
  0
MTEXT
  5
88
330
84
100
AcDbEntity
  8
0
  6
Continuous
 62
     0
370
     0
100
AcDbMText
 10
0.0
 20
-0.5663983345
 30
0.0
 40
1.5
 41
0.0
 71
     1
 72
     1
  1
ANGLES VIFS
  7
SLDTEXTSTYLE0
 73
     1
 44
1.0
  0
ENDBLK
  5
86
330
84
100
AcDbEntity
  8
0
100
AcDbBlockEnd
  0
BLOCK
  5
91
330
90
100
AcDbEntity
  8
0
100
AcDbBlockBegin
  2
SW_NOTE_2
 70
     0
 10
0.0
 20
0.0
 30
0.0
  3
SW_NOTE_2
  1

  0
MTEXT
  5
93
330
90
100
AcDbEntity
  8
0
  6
Continuous
 62
     0
370
     0
100
AcDbMText
 10
0.0
 20
1.9336016097
 30
0.0
 40
1.5
 41
0.0
 71
     1
 72
     1
  1
SAUF INDICATION CONTRAIRE:
  7
SLDTEXTSTYLE0
 73
     1
 44
1.0
  0
MTEXT
  5
94
330
90
100
AcDbEntity
  8
0
  6
Continuous
 62
     0
370
     0
100
AcDbMText
 10
0.0
 20
-0.5663983345
 30
0.0
 40
1.5
 41
0.0
 71
     1
 72
     1
  1
LES COTES SONT EN MILLIMETRES
  7
SLDTEXTSTYLE0
 73
     1
 44
1.0
  0
MTEXT
  5
95
330
90
100
AcDbEntity
  8
0
  6
Continuous
 62
     0
370
     0
100
AcDbMText
 10
0.0
 20
-3.0663982786
 30
0.0
 40
1.5
 41
0.0
 71
     1
 72
     1
  1
ETAT DE SURFACE:
  7
SLDTEXTSTYLE0
 73
     1
 44
1.0
  0
MTEXT
  5
97
330
90
100
AcDbEntity
  8
0
  6
Continuous
 62
     0
370
     0
100
AcDbMText
 10
17.3330735415
 20
-3.0663982786
 30
0.0
 40
1.5
 41
0.0
 71
     1
 72
     1
  1
Ra = 3.2
  7
SLDTEXTSTYLE2
 73
     1
 44
1.0
  0
MTEXT
  5
98
330
90
100
AcDbEntity
  8
0
  6
Continuous
 62
     0
370
     0
100
AcDbMText
 10
0.0
 20
-5.5663982227
 30
0.0
 40
1.5
 41
0.0
 71
     1
 72
     1
  1
TOLERANCES:
  7
SLDTEXTSTYLE0
 73
     1
 44
1.0
  0
MTEXT
  5
99
330
90
100
AcDbEntity
  8
0
  6
Continuous
 62
     0
370
     0
100
AcDbMText
 10
1.6624999698
 20
-8.0663981668
 30
0.0
 40
1.5
 41
0.0
 71
     1
 72
     1
  1
Iso 2768 mK
  7
SLDTEXTSTYLE0
 73
     1
 44
1.0
  0
ENDBLK
  5
92
330
90
100
AcDbEntity
  8
0
100
AcDbBlockEnd
  0
BLOCK
  5
AB
330
AA
100
AcDbEntity
  8
0
100
AcDbBlockBegin
  2
*D4
 70
     1
 10
0.0
 20
0.0
 30
0.0
  3
*D4
  1

  0
ARC
  5
AD
330
AA
100
AcDbEntity
  8
0
  6
Continuous
 62
     7
370
     0
100
AcDbCircle
 10
147.0568703998
 20
192.5244769893
 30
0.0
 40
80.44185510082977
100
AcDbArc
 50
180.0
 51
300.0
  0
SOLID
  5
AE
330
AA
100
AcDbEntity
  8
0
  6
Continuous
 62
     7
370
     0
100
AcDbTrace
 10
66.615015299
 20
192.5244769893
 30
0.0
 11
66.1748501097
 21
189.2127519696
 31
0.0
 12
67.1906363671
 22
189.2335913356
 32
0.0
 13
67.1906363671
 23
189.2335913356
 33
0.0
  0
SOLID
  5
AF
330
AA
100
AcDbEntity
  8
0
  6
Continuous
 62
     7
370
     0
100
AcDbTrace
 10
187.2777979502
 20
122.8597869445
 30
0.0
 11
184.1399968391
 21
121.7128465856
 31
0.0
 12
184.6298425474
 22
120.8227301988
 32
0.0
 13
184.6298425474
 23
120.8227301988
 33
0.0
  0
LINE
  5
B0
330
AA
100
AcDbEntity
  8
0
  6
Continuous
 62
     7
370
     0
100
AcDbLine
 10
104.8068703998
 20
192.5244769893
 30
0.0
 11
65.615015299
 21
192.5244769893
 31
0.0
  0
LINE
  5
B1
330
AA
100
AcDbEntity
  8
0
  6
Continuous
 62
     7
370
     0
100
AcDbLine
 10
164.0568703998
 20
163.0796132607
 30
0.0
 11
187.7777979502
 21
121.9937615407
 31
0.0
  0
MTEXT
  5
B2
330
AA
100
AcDbEntity
  8
0
  6
Continuous
 62
     7
370
     0
100
AcDbMText
 10
91.7486303153
 20
139.3481875197
 30
0.05
 40
3.5
 41
0.0
 71
     1
 72
     1
  1
120°
  7
SLDTEXTSTYLE0
 11
0.7893900497496815
 21
-0.6138919687992305
 31
0.0
 73
     1
 44
1.0
  0
MTEXT
  5
B3
330
AA
100
AcDbEntity
  8
0
  6
Continuous
 62
     7
370
     0
100
AcDbMText
 10
102.627412403
 20
130.8879884633
 30
0.05
 40
3.5
 41
0.0
 71
     1
 72
     1
  1
(x3)
  7
SLDTEXTSTYLE0
 11
0.7893900497496815
 21
-0.6138919687992305
 31
0.0
 73
     1
 44
1.0
  0
ENDBLK
  5
AC
330
AA
100
AcDbEntity
  8
0
100
AcDbBlockEnd
  0
BLOCK
  5
B6
330
B5
100
AcDbEntity
  8
0
100
AcDbBlockBegin
  2
*D5
 70
     1
 10
0.0
 20
0.0
 30
0.0
  3
*D5
  1

  0
ARC
  5
B8
330
B5
100
AcDbEntity
  8
0
  6
Continuous
 62
     7
370
     0
100
AcDbCircle
 10
147.0568703998
 20
192.5244769893
 30
0.0
 40
80.01656618904099
100
AcDbArc
 50
90.0
 51
120.0
  0
SOLID
  5
B9
330
B5
100
AcDbEntity
  8
0
  6
Continuous
 62
     7
370
     0
100
AcDbTrace
 10
147.0568703998
 20
272.5410431784
 30
0.0
 11
143.7450974651
 21
272.980847713
 31
0.0
 12
143.7660474516
 22
271.965063731
 32
0.0
 13
143.7660474516
 23
271.965063731
 33
0.0
  0
SOLID
  5
BA
330
B5
100
AcDbEntity
  8
0
  6
Continuous
 62
     7
370
     0
100
AcDbTrace
 10
107.0485873053
 20
261.8208560326
 30
0.0
 11
110.1865133014
 21
262.9674546733
 31
0.0
 12
109.696764531
 22
263.8576243997
 32
0.0
 13
109.696764531
 23
263.8576243997
 33
0.0
  0
LINE
  5
BB
330
B5
100
AcDbEntity
  8
0
  6
Continuous
 62
     7
370
     0
100
AcDbLine
 10
147.0568703998
 20
234.7744769893
 30
0.0
 11
147.0568703998
 21
273.5410431784
 31
0.0
  0
LINE
  5
BC
330
B5
100
AcDbEntity
  8
0
  6
Continuous
 62
     7
370
     0
100
AcDbLine
 10
126.1674627614
 20
228.7059923591
 30
0.0
 11
106.5485873053
 21
262.6868814364
 31
0.0
  0
MTEXT
  5
BD
330
B5
100
AcDbEntity
  8
0
  6
Continuous
 62
     7
370
     0
100
AcDbMText
 10
118.8163435085
 20
272.7867238945
 30
0.05
 40
3.5
 41
0.0
 71
     1
 72
     1
  1
30°
  7
SLDTEXTSTYLE0
 11
0.9750587709824314
 21
0.2219468250059695
 31
0.0
 73
     1
 44
1.0
  0
MTEXT
  5
BE
330
B5
100
AcDbEntity
  8
0
  6
Continuous
 62
     7
370
     0
100
AcDbMText
 10
129.7322621411
 20
275.271449487
 30
0.05
 40
3.5
 41
0.0
 71
     1
 72
     1
  1
(x2)
  7
SLDTEXTSTYLE0
 11
0.9750587709824314
 21
0.2219468250059695
 31
0.0
 73
     1
 44
1.0
  0
ENDBLK
  5
B7
330
B5
100
AcDbEntity
  8
0
100
AcDbBlockEnd
  0
BLOCK
  5
C2
330
C1
100
AcDbEntity
  8
0
100
AcDbBlockBegin
  2
*D6
 70
     1
 10
0.0
 20
0.0
 30
0.0
  3
*D6
  1

  0
SOLID
  5
C4
330
C1
100
AcDbEntity
  8
0
  6
Continuous
 62
     7
370
     0
100
AcDbTrace
 10
222.5568703998
 20
200.0244769893
 30
0.0
 11
223.0648703998
 21
203.3264769893
 31
0.0
 12
222.0488703998
 22
203.3264769893
 32
0.0
 13
222.0488703998
 23
203.3264769893
 33
0.0
  0
SOLID
  5
C5
330
C1
100
AcDbEntity
  8
0
  6
Continuous
 62
     7
370
     0
100
AcDbTrace
 10
222.5568703998
 20
185.0244769893
 30
0.0
 11
222.0488703998
 21
181.7224769893
 31
0.0
 12
223.0648703998
 22
181.7224769893
 32
0.0
 13
223.0648703998
 23
181.7224769893
 33
0.0
  0
LINE
  5
C6
330
C1
100
AcDbEntity
  8
0
  6
Continuous
 62
     7
370
     0
100
AcDbLine
 10
187.3474545136
 20
200.0244769893
 30
0.0
 11
223.5568703998
 21
200.0244769893
 31
0.0
  0
LINE
  5
C7
330
C1
100
AcDbEntity
  8
0
  6
Continuous
 62
     7
370
     0
100
AcDbLine
 10
187.3474545136
 20
185.0244769893
 30
0.0
 11
223.5568703998
 21
185.0244769893
 31
0.0
  0
LINE
  5
C8
330
C1
100
AcDbEntity
  8
0
  6
Continuous
 62
     7
370
     0
100
AcDbLine
 10
222.5568703998
 20
200.0244769893
 30
0.0
 11
222.5568703998
 21
206.3744769893
 31
0.0
  0
LINE
  5
C9
330
C1
100
AcDbEntity
  8
0
  6
Continuous
 62
     7
370
     0
100
AcDbLine
 10
222.5568703998
 20
200.0244769893
 30
0.0
 11
222.5568703998
 21
185.0244769893
 31
0.0
  0
LINE
  5
CA
330
C1
100
AcDbEntity
  8
0
  6
Continuous
 62
     7
370
     0
100
AcDbLine
 10
222.5568703998
 20
185.0244769893
 30
0.0
 11
222.5568703998
 21
163.8344198321
 31
0.0
  0
MTEXT
  5
CB
330
C1
100
AcDbEntity
  8
0
  6
Continuous
 62
     7
370
     0
100
AcDbMText
 10
218.0451334852
 20
163.8344198321
 30
-1.45
 40
3.5
 41
0.0
 71
     1
 72
     1
  1
30
  7
SLDTEXTSTYLE0
 11
8.054838117258495E-15
 21
1.0
 31
0.0
 73
     1
 44
1.0
  0
MTEXT
  5
CC
330
C1
100
AcDbEntity
  8
0
  6
Continuous
 62
     7
370
     0
100
AcDbMText
 10
218.0451334852
 20
173.1628923943
 30
-1.45
 40
3.5
 41
0.0
 71
     1
 72
     1
  1
(x3)
  7
SLDTEXTSTYLE0
 11
8.054838117258495E-15
 21
1.0
 31
0.0
 73
     1
 44
1.0
  0
ENDBLK
  5
C3
330
C1
100
AcDbEntity
  8
0
100
AcDbBlockEnd
  0
BLOCK
  5
D0
330
CF
100
AcDbEntity
  8
0
100
AcDbBlockBegin
  2
_NONE
 70
     0
 10
0.0
 20
0.0
 30
0.0
  3
_NONE
  1

  0
ENDBLK
  5
D1
330
CF
100
AcDbEntity
  8
0
100
AcDbBlockEnd
  0
BLOCK
  5
D3
330
D2
100
AcDbEntity
  8
0
100
AcDbBlockBegin
  2
*D8
 70
     1
 10
0.0
 20
0.0
 30
0.0
  3
*D8
  1

  0
SOLID
  5
D5
330
D2
100
AcDbEntity
  8
0
  6
Continuous
 62
     7
370
     0
100
AcDbTrace
 10
188.6433382781
 20
201.013879708
 30
0.0
 11
191.8767881867
 21
201.854159238
 31
0.0
 12
191.4746949218
 22
202.7872063999
 32
0.0
 13
191.4746949218
 23
202.7872063999
 33
0.0
  0
LINE
  5
D6
330
D2
100
AcDbEntity
  8
0
  6
Continuous
 62
     7
370
     0
100
AcDbLine
 10
188.6433382781
 20
201.013879708
 30
0.0
 11
228.789698745
 21
218.3148070486
 31
0.0
  0
LINE
  5
D7
330
D2
100
AcDbEntity
  8
0
  6
Continuous
 62
     7
370
     0
100
AcDbLine
 10
188.6433382781
 20
201.013879708
 30
0.0
 11
184.051570749
 21
199.0350742706
 31
0.0
  0
MTEXT
  5
D8
330
D2
100
AcDbEntity
  8
0
  6
Continuous
 62
     7
370
     0
100
AcDbMText
 10
201.585186526
 20
211.4926611883
 30
-1.45
 40
3.5
 41
0.0
 71
     1
 72
     1
  1
%%c
  7
SLDTEXTSTYLE0
 11
0.9183535058099974
 21
0.3957610874839605
 31
0.0
 73
     1
 44
1.0
  0
MTEXT
  5
D9
330
D2
100
AcDbEntity
  8
0
  6
Continuous
 62
     7
370
     0
100
AcDbMText
 10
206.4114958092
 20
213.6307676742
 30
-1.45
 40
3.5
 41
0.0
 71
     1
 72
     1
  1
10
  7
SLDTEXTSTYLE0
 11
0.9183535058099974
 21
0.3957610874839605
 31
0.0
 73
     1
 44
1.0
  0
MTEXT
  5
DA
330
D2
100
AcDbEntity
  8
0
  6
Continuous
 62
     7
370
     0
100
AcDbMText
 10
214.9783312905
 20
217.32261412
 30
-1.45
 40
3.5
 41
0.0
 71
     1
 72
     1
  1
(x2x3)
  7
SLDTEXTSTYLE0
 11
0.9183535058099974
 21
0.3957610874839605
 31
0.0
 73
     1
 44
1.0
  0
ENDBLK
  5
D4
330
D2
100
AcDbEntity
  8
0
100
AcDbBlockEnd
  0
BLOCK
  5
DE
330
DD
100
AcDbEntity
  8
0
100
AcDbBlockBegin
  2
*D9
 70
     1
 10
0.0
 20
0.0
 30
0.0
  3
*D9
  1

  0
SOLID
  5
E0
330
DD
100
AcDbEntity
  8
0
  6
Continuous
 62
     7
370
     0
100
AcDbTrace
 10
115.1813181323
 20
201.0655054777
 30
0.0
 11
112.1233111288
 21
202.4108162844
 31
0.0
 12
111.8603509789
 22
201.4294356449
 32
0.0
 13
111.8603509789
 23
201.4294356449
 33
0.0
  0
LINE
  5
E1
330
DD
100
AcDbEntity
  8
0
  6
Continuous
 62
     7
370
     0
100
AcDbLine
 10
115.1813181323
 20
201.0655054777
 30
0.0
 11
50.3683259344
 21
218.4320943962
 31
0.0
  0
LINE
  5
E2
330
DD
100
AcDbEntity
  8
0
  6
Continuous
 62
     7
370
     0
100
AcDbLine
 10
115.1813181323
 20
201.0655054777
 30
0.0
 11
178.9324226673
 21
183.983448501
 31
0.0
  0
MTEXT
  5
E3
330
DD
100
AcDbEntity
  8
0
  6
Continuous
 62
     7
370
     0
100
AcDbMText
 10
51.5357137431
 20
222.7888450101
 30
-1.45
 40
3.5
 41
0.0
 71
     1
 72
     1
  1
%%c
  7
SLDTEXTSTYLE0
 11
0.9659258262890682
 21
-0.2588190451025209
 31
0.0
 73
     1
 44
1.0
  0
MTEXT
  5
E4
330
DD
100
AcDbEntity
  8
0
  6
Continuous
 62
     7
370
     0
100
AcDbMText
 10
56.6481323663
 20
221.4743350395
 30
-1.45
 40
3.5
 41
0.0
 71
     1
 72
     1
  1
132
  7
SLDTEXTSTYLE0
 11
0.9659258262890682
 21
-0.2588190451025209
 31
0.0
 73
     1
 44
1.0
  0
ENDBLK
  5
DF
330
DD
100
AcDbEntity
  8
0
100
AcDbBlockEnd
  0
BLOCK
  5
E8
330
E7
100
AcDbEntity
  8
0
100
AcDbBlockBegin
  2
*D10
 70
     1
 10
0.0
 20
0.0
 30
0.0
  3
*D10
  1

  0
SOLID
  5
EA
330
E7
100
AcDbEntity
  8
0
  6
Continuous
 62
     7
370
     0
100
AcDbTrace
 10
109.9516856381
 20
193.624457931
 30
0.0
 11
106.8936786346
 21
194.9697687377
 31
0.0
 12
106.6307184848
 22
193.9883880982
 32
0.0
 13
106.6307184848
 23
193.9883880982
 33
0.0
  0
LINE
  5
EB
330
E7
100
AcDbEntity
  8
0
  6
Continuous
 62
     7
370
     0
100
AcDbLine
 10
109.9516856381
 20
193.624457931
 30
0.0
 11
51.5408779645
 21
209.2755866764
 31
0.0
  0
LINE
  5
EC
330
E7
100
AcDbEntity
  8
0
  6
Continuous
 62
     7
370
     0
100
AcDbLine
 10
109.9516856381
 20
193.624457931
 30
0.0
 11
118.1620551615
 21
191.4244960477
 31
0.0
  0
MTEXT
  5
ED
330
E7
100
AcDbEntity
  8
0
  6
Continuous
 62
     7
370
     0
100
AcDbMText
 10
52.7074544844
 20
213.6293095195
 30
-1.45
 40
3.5
 41
0.0
 71
     1
 72
     1
  1
%%c
  7
SLDTEXTSTYLE0
 11
0.965925826289068
 21
-0.2588190451025217
 31
0.0
 73
     1
 44
1.0
  0
MTEXT
  5
EE
330
E7
100
AcDbEntity
  8
0
  6
Continuous
 62
     7
370
     0
100
AcDbMText
 10
57.8198731076
 20
212.3147995489
 30
-1.45
 40
3.5
 41
0.0
 71
     1
 72
     1
  1
17
  7
SLDTEXTSTYLE0
 11
0.965925826289068
 21
-0.2588190451025217
 31
0.0
 73
     1
 44
1.0
  0
MTEXT
  5
EF
330
E7
100
AcDbEntity
  8
0
  6
Continuous
 62
     7
370
     0
100
AcDbMText
 10
66.8304856752
 20
209.9004131881
 30
-1.45
 40
3.5
 41
0.0
 71
     1
 72
     1
  1
H7 (x3)
  7
SLDTEXTSTYLE0
 11
0.965925826289068
 21
-0.2588190451025217
 31
0.0
 73
     1
 44
1.0
  0
ENDBLK
  5
E9
330
E7
100
AcDbEntity
  8
0
100
AcDbBlockEnd
  0
BLOCK
  5
F3
330
F2
100
AcDbEntity
  8
0
100
AcDbBlockBegin
  2
*D11
 70
     1
 10
0.0
 20
0.0
 30
0.0
  3
*D11
  1

  0
SOLID
  5
F5
330
F2
100
AcDbEntity
  8
0
  6
Continuous
 62
     7
370
     0
100
AcDbTrace
 10
144.0516665798
 20
195.5296808094
 30
0.0
 11
142.0760102331
 21
198.2237576457
 31
0.0
 12
141.3575897434
 22
197.505337156
 32
0.0
 13
141.3575897434
 23
197.505337156
 33
0.0
  0
LINE
  5
F6
330
F2
100
AcDbEntity
  8
0
  6
Continuous
 62
     7
370
     0
100
AcDbLine
 10
144.0516665798
 20
195.5296808094
 30
0.0
 11
84.8907616088
 21
254.6905857804
 31
0.0
  0
LINE
  5
F7
330
F2
100
AcDbEntity
  8
0
  6
Continuous
 62
     7
370
     0
100
AcDbLine
 10
144.0516665798
 20
195.5296808094
 30
0.0
 11
150.0620742198
 21
189.5192731693
 31
0.0
  0
MTEXT
  5
F8
330
F2
100
AcDbEntity
  8
0
  6
Continuous
 62
     7
370
     0
100
AcDbMText
 10
88.0798627104
 20
257.879686882
 30
-1.45
 40
3.5
 41
0.0
 71
     1
 72
     1
  1
%%c
  7
SLDTEXTSTYLE0
 11
0.7071067811865431
 21
-0.7071067811865519
 31
0.0
 73
     1
 44
1.0
  0
MTEXT
  5
F9
330
F2
100
AcDbEntity
  8
0
  6
Continuous
 62
     7
370
     0
100
AcDbMText
 10
91.8500921275
 20
254.1850785422
 30
-1.45
 40
3.5
 41
0.0
 71
     1
 72
     1
  1
17
  7
SLDTEXTSTYLE0
 11
0.7071067811865431
 21
-0.7071067811865519
 31
0.0
 73
     1
 44
1.0
  0
ENDBLK
  5
F4
330
F2
100
AcDbEntity
  8
0
100
AcDbBlockEnd
  0
BLOCK
  5
FC
330
FB
100
AcDbEntity
  8
0
100
AcDbBlockBegin
  2
*D12
 70
     1
 10
0.0
 20
0.0
 30
0.0
  3
*D12
  1

  0
SOLID
  5
FE
330
FB
100
AcDbEntity
  8
0
  6
Continuous
 62
     7
370
     0
100
AcDbTrace
 10
180.6444425062
 20
226.1120490957
 30
0.0
 11
183.3385193425
 21
228.0877054423
 31
0.0
 12
182.6200988528
 22
228.806125932
 32
0.0
 13
182.6200988528
 23
228.806125932
 33
0.0
  0
LINE
  5
FF
330
FB
100
AcDbEntity
  8
0
  6
Continuous
 62
     7
370
     0
100
AcDbLine
 10
180.6444425062
 20
226.1120490957
 30
0.0
 11
216.0738410319
 21
261.5414476215
 31
0.0
  0
LINE
  5
100
330
FB
100
AcDbEntity
  8
0
  6
Continuous
 62
     7
370
     0
100
AcDbLine
 10
180.6444425062
 20
226.1120490957
 30
0.0
 11
113.4692982934
 21
158.936904883
 31
0.0
  0
MTEXT
  5
101
330
FB
100
AcDbEntity
  8
0
  6
Continuous
 62
     7
370
     0
100
AcDbMText
 10
201.6553055163
 20
253.5015344143
 30
-1.45
 40
3.5
 41
0.0
 71
     1
 72
     1
  1
%%c
  7
SLDTEXTSTYLE0
 11
0.7071067811865464
 21
0.7071067811865487
 31
0.0
 73
     1
 44
1.0
  0
MTEXT
  5
102
330
FB
100
AcDbEntity
  8
0
  6
Continuous
 62
     7
370
     0
100
AcDbMText
 10
205.349913856
 20
257.2717638314
 30
-1.45
 40
3.5
 41
0.0
 71
     1
 72
     1
  1
190
  7
SLDTEXTSTYLE0
 11
0.7071067811865464
 21
0.7071067811865487
 31
0.0
 73
     1
 44
1.0
  0
ENDBLK
  5
FD
330
FB
100
AcDbEntity
  8
0
100
AcDbBlockEnd
  0
BLOCK
  5
106
330
105
100
AcDbEntity
  8
0
100
AcDbBlockBegin
  2
*D13
 70
     1
 10
0.0
 20
0.0
 30
0.0
  3
*D13
  1

  0
SOLID
  5
108
330
105
100
AcDbEntity
  8
0
  6
Continuous
 62
     7
370
     0
100
AcDbTrace
 10
183.9883055314
 20
207.8890173052
 30
0.0
 11
187.2321251636
 21
208.6883308821
 31
0.0
 12
186.8418658395
 22
209.6263893345
 32
0.0
 13
186.8418658395
 23
209.6263893345
 33
0.0
  0
LINE
  5
109
330
105
100
AcDbEntity
  8
0
  6
Continuous
 62
     7
370
     0
100
AcDbLine
 10
183.9883055314
 20
207.8890173052
 30
0.0
 11
219.9326700419
 21
222.8429078237
 31
0.0
  0
LINE
  5
10A
330
105
100
AcDbEntity
  8
0
  6
Continuous
 62
     7
370
     0
100
AcDbLine
 10
183.9883055314
 20
207.8890173052
 30
0.0
 11
147.0568703998
 21
192.5244769893
 31
0.0
  0
MTEXT
  5
10B
330
105
100
AcDbEntity
  8
0
  6
Continuous
 62
     7
370
     0
100
AcDbMText
 10
208.1827583804
 20
222.8390714101
 30
-1.45
 40
3.5
 41
0.0
 71
     1
 72
     1
  1
R80
  7
SLDTEXTSTYLE0
 11
0.9232858782905513
 21
0.3841135078973991
 31
0.0
 73
     1
 44
1.0
  0
ENDBLK
  5
107
330
105
100
AcDbEntity
  8
0
100
AcDbBlockEnd
  0
BLOCK
  5
10D
330
10C
100
AcDbEntity
  8
0
100
AcDbBlockBegin
  2
SW_CENTERMARKSYMBOL_0
 70
     0
 10
0.0
 20
0.0
 30
0.0
  3
SW_CENTERMARKSYMBOL_0
  1

  0
ARC
  5
10F
330
10C
100
AcDbEntity
  8
0
  6
Continuous
 62
     0
370
     0
100
AcDbCircle
 10
26.1404825853
 20
-30.276643972
 30
0.0
 40
40.00000000000004
100
AcDbArc
 50
130.8069228749
 51
132.5974159846
  0
ARC
  5
110
330
10C
100
AcDbEntity
  8
0
  6
Continuous
 62
     0
370
     0
100
AcDbCircle
 10
26.1404825853
 20
-30.276643972
 30
0.0
 40
40.00000000000004
100
AcDbArc
 50
129.0164297651
 51
130.8069228749
  0
ARC
  5
111
330
10C
100
AcDbEntity
  8
0
  6
Continuous
 62
     0
370
     0
100
AcDbCircle
 10
26.1404825853
 20
-30.276643972
 30
0.0
 40
40.00000000000004
100
AcDbArc
 50
250.8069228749
 51
252.5974159846
  0
ARC
  5
112
330
10C
100
AcDbEntity
  8
0
  6
Continuous
 62
     0
370
     0
100
AcDbCircle
 10
26.1404825853
 20
-30.276643972
 30
0.0
 40
40.00000000000004
100
AcDbArc
 50
249.0164297651
 51
250.8069228749
  0
ARC
  5
113
330
10C
100
AcDbEntity
  8
0
  6
Continuous
 62
     0
370
     0
100
AcDbCircle
 10
26.1404825853
 20
-30.276643972
 30
0.0
 40
40.00000000000003
100
AcDbArc
 50
10.8069228749
 51
12.5974159846
  0
ARC
  5
114
330
10C
100
AcDbEntity
  8
0
  6
Continuous
 62
     0
370
     0
100
AcDbCircle
 10
26.1404825853
 20
-30.276643972
 30
0.0
 40
40.00000000000003
100
AcDbArc
 50
9.0164297651
 51
10.8069228749
  0
ARC
  5
115
330
10C
100
AcDbEntity
  8
0
  6
Continuous
 62
     0
370
     0
100
AcDbCircle
 10
26.1404825853
 20
-30.276643972
 30
0.0
 40
40.00000000000005
100
AcDbArc
 50
109.1930771251
 51
110.9835702349
  0
ARC
  5
116
330
10C
100
AcDbEntity
  8
0
  6
Continuous
 62
     0
370
     0
100
AcDbCircle
 10
26.1404825853
 20
-30.276643972
 30
0.0
 40
40.00000000000003
100
AcDbArc
 50
107.4025840154
 51
109.1930771251
  0
ARC
  5
117
330
10C
100
AcDbEntity
  8
0
  6
Continuous
 62
     0
370
     0
100
AcDbCircle
 10
26.1404825853
 20
-30.276643972
 30
0.0
 40
33.00000000000003
100
AcDbArc
 50
60.0
 51
62.1702946785
  0
ARC
  5
118
330
10C
100
AcDbEntity
  8
0
  6
Continuous
 62
     0
370
     0
100
AcDbCircle
 10
26.1404825853
 20
-30.276643972
 30
0.0
 40
33.00000000000004
100
AcDbArc
 50
57.8297053215
 51
60.0
  0
ARC
  5
119
330
10C
100
AcDbEntity
  8
0
  6
Continuous
 62
     0
370
     0
100
AcDbCircle
 10
26.1404825853
 20
-30.276643972
 30
0.0
 40
40.00000000000002
100
AcDbArc
 50
229.1930771251
 51
230.9835702349
  0
ARC
  5
11A
330
10C
100
AcDbEntity
  8
0
  6
Continuous
 62
     0
370
     0
100
AcDbCircle
 10
26.1404825853
 20
-30.276643972
 30
0.0
 40
40.00000000000003
100
AcDbArc
 50
227.4025840154
 51
229.1930771251
  0
ARC
  5
11B
330
10C
100
AcDbEntity
  8
0
  6
Continuous
 62
     0
370
     0
100
AcDbCircle
 10
26.1404825853
 20
-30.276643972
 30
0.0
 40
40.00000000000004
100
AcDbArc
 50
349.1930771251
 51
350.9835702349
  0
ARC
  5
11C
330
10C
100
AcDbEntity
  8
0
  6
Continuous
 62
     0
370
     0
100
AcDbCircle
 10
26.1404825853
 20
-30.276643972
 30
0.0
 40
40.00000000000004
100
AcDbArc
 50
347.4025840154
 51
349.1930771251
  0
ARC
  5
11D
330
10C
100
AcDbEntity
  8
0
  6
Continuous
 62
     0
370
     0
100
AcDbCircle
 10
26.1404825853
 20
-30.276643972
 30
0.0
 40
33.00000000000001
100
AcDbArc
 50
180.0
 51
182.1702946785
  0
ARC
  5
11E
330
10C
100
AcDbEntity
  8
0
  6
Continuous
 62
     0
370
     0
100
AcDbCircle
 10
26.1404825853
 20
-30.276643972
 30
0.0
 40
33.00000000000001
100
AcDbArc
 50
177.8297053215
 51
180.0
  0
ARC
  5
11F
330
10C
100
AcDbEntity
  8
0
  6
Continuous
 62
     0
370
     0
100
AcDbCircle
 10
26.1404825853
 20
-30.276643972
 30
0.0
 40
33.00000000000001
100
AcDbArc
 50
300.0
 51
302.1702946785
  0
ARC
  5
120
330
10C
100
AcDbEntity
  8
0
  6
Continuous
 62
     0
370
     0
100
AcDbCircle
 10
26.1404825853
 20
-30.276643972
 30
0.0
 40
33.00000000000001
100
AcDbArc
 50
297.8297053215
 51
300.0
  0
ARC
  5
121
330
10C
100
AcDbEntity
  8
0
  6
CENTERX2
 62
     0
370
     0
100
AcDbCircle
 10
26.1404825853
 20
-30.276643972
 30
0.0
 40
40.00000000000004
100
AcDbArc
 50
14.3879090944
 51
105.6120909056
  0
ARC
  5
122
330
10C
100
AcDbEntity
  8
0
  6
CENTERX2
 62
     0
370
     0
100
AcDbCircle
 10
26.1404825853
 20
-30.276643972
 30
0.0
 40
40.00000000000004
100
AcDbArc
 50
112.7740633447
 51
127.2259366553
  0
ARC
  5
123
330
10C
100
AcDbEntity
  8
0
  6
CENTERX2
 62
     0
370
     0
100
AcDbCircle
 10
26.1404825853
 20
-30.276643972
 30
0.0
 40
40.00000000000004
100
AcDbArc
 50
134.3879090944
 51
225.6120909056
  0
ARC
  5
124
330
10C
100
AcDbEntity
  8
0
  6
CENTERX2
 62
     0
370
     0
100
AcDbCircle
 10
26.1404825853
 20
-30.276643972
 30
0.0
 40
40.00000000000002
100
AcDbArc
 50
232.7740633447
 51
247.2259366553
  0
ARC
  5
125
330
10C
100
AcDbEntity
  8
0
  6
CENTERX2
 62
     0
370
     0
100
AcDbCircle
 10
26.1404825853
 20
-30.276643972
 30
0.0
 40
40.00000000000004
100
AcDbArc
 50
254.3879090944
 51
345.6120909056
  0
ARC
  5
126
330
10C
100
AcDbEntity
  8
0
  6
CENTERX2
 62
     0
370
     0
100
AcDbCircle
 10
26.1404825853
 20
-30.276643972
 30
0.0
 40
40.00000000000003
100
AcDbArc
 50
352.7740633447
 51
7.2259366553
  0
ARC
  5
127
330
10C
100
AcDbEntity
  8
0
  6
CENTERX2
 62
     0
370
     0
100
AcDbCircle
 10
26.1404825853
 20
-30.276643972
 30
0.0
 40
33.00000000000003
100
AcDbArc
 50
64.3405893571
 51
175.6594106429
  0
ARC
  5
128
330
10C
100
AcDbEntity
  8
0
  6
CENTERX2
 62
     0
370
     0
100
AcDbCircle
 10
26.1404825853
 20
-30.276643972
 30
0.0
 40
33.00000000000002
100
AcDbArc
 50
184.3405893571
 51
295.6594106429
  0
ARC
  5
129
330
10C
100
AcDbEntity
  8
0
  6
CENTERX2
 62
     0
370
     0
100
AcDbCircle
 10
26.1404825853
 20
-30.276643972
 30
0.0
 40
33.00000000000003
100
AcDbArc
 50
304.3405893571
 51
55.6594106429
  0
LINE
  5
12A
330
10C
100
AcDbEntity
  8
0
  6
Continuous
 62
     0
370
     0
100
AcDbLine
 10
0.0
 20
0.0
 30
0.0
 11
-0.8168900808
 21
0.9461451241
 31
0.0
  0
LINE
  5
12B
330
10C
100
AcDbEntity
  8
0
  6
Continuous
 62
     0
370
     0
100
AcDbLine
 10
0.0
 20
0.0
 30
0.0
 11
0.8168900808
 21
-0.9461451241
 31
0.0
  0
LINE
  5
12C
330
10C
100
AcDbEntity
  8
0
  6
Continuous
 62
     0
370
     0
100
AcDbLine
 10
-1.6337801616
 20
1.8922902483
 30
0.0
 11
-2.4506702424
 21
2.8384353724
 31
0.0
  0
LINE
  5
12D
330
10C
100
AcDbEntity
  8
0
  6
Continuous
 62
     0
370
     0
100
AcDbLine
 10
1.6337801616
 20
-1.8922902483
 30
0.0
 11
2.4506702424
 21
-2.8384353724
 31
0.0
  0
LINE
  5
12E
330
10C
100
AcDbEntity
  8
0
  6
Continuous
 62
     0
370
     0
100
AcDbLine
 10
26.1404825853
 20
-30.276643972
 30
0.0
 11
26.1404825853
 21
-29.026643972
 31
0.0
  0
LINE
  5
12F
330
10C
100
AcDbEntity
  8
0
  6
Continuous
 62
     0
370
     0
100
AcDbLine
 10
26.1404825853
 20
-30.276643972
 30
0.0
 11
24.8904825853
 21
-30.276643972
 31
0.0
  0
LINE
  5
130
330
10C
100
AcDbEntity
  8
0
  6
Continuous
 62
     0
370
     0
100
AcDbLine
 10
26.1404825853
 20
-30.276643972
 30
0.0
 11
26.1404825853
 21
-31.526643972
 31
0.0
  0
LINE
  5
131
330
10C
100
AcDbEntity
  8
0
  6
Continuous
 62
     0
370
     0
100
AcDbLine
 10
26.1404825853
 20
-30.276643972
 30
0.0
 11
27.3904825853
 21
-30.276643972
 31
0.0
  0
LINE
  5
132
330
10C
100
AcDbEntity
  8
0
  6
Continuous
 62
     0
370
     0
100
AcDbLine
 10
26.1404825853
 20
-27.776643972
 30
0.0
 11
26.1404825853
 21
10.973356028
 31
0.0
  0
LINE
  5
133
330
10C
100
AcDbEntity
  8
0
  6
Continuous
 62
     0
370
     0
100
AcDbLine
 10
23.6404825853
 20
-30.276643972
 30
0.0
 11
-15.1095174147
 21
-30.276643972
 31
0.0
  0
LINE
  5
134
330
10C
100
AcDbEntity
  8
0
  6
Continuous
 62
     0
370
     0
100
AcDbLine
 10
26.1404825853
 20
-32.776643972
 30
0.0
 11
26.1404825853
 21
-71.526643972
 31
0.0
  0
LINE
  5
135
330
10C
100
AcDbEntity
  8
0
  6
Continuous
 62
     0
370
     0
100
AcDbLine
 10
28.6404825853
 20
-30.276643972
 30
0.0
 11
67.3904825853
 21
-30.276643972
 31
0.0
  0
LINE
  5
136
330
10C
100
AcDbEntity
  8
0
  6
Continuous
 62
     0
370
     0
100
AcDbLine
 10
12.9903810568
 20
-68.0532879441
 30
0.0
 11
12.579440384
 21
-69.2338080682
 31
0.0
  0
LINE
  5
137
330
10C
100
AcDbEntity
  8
0
  6
Continuous
 62
     0
370
     0
100
AcDbLine
 10
12.9903810568
 20
-68.0532879441
 30
0.0
 11
13.4013217295
 21
-66.87276782
 31
0.0
  0
LINE
  5
138
330
10C
100
AcDbEntity
  8
0
  6
Continuous
 62
     0
370
     0
100
AcDbLine
 10
12.1684997112
 20
-70.4143281923
 30
0.0
 11
11.7575590385
 21
-71.5948483165
 31
0.0
  0
LINE
  5
139
330
10C
100
AcDbEntity
  8
0
  6
Continuous
 62
     0
370
     0
100
AcDbLine
 10
13.8122624023
 20
-65.6922476958
 30
0.0
 11
14.2232030751
 21
-64.5117275717
 31
0.0
  0
LINE
  5
13A
330
10C
100
AcDbEntity
  8
0
  6
Continuous
 62
     0
370
     0
100
AcDbLine
 10
65.431066699
 20
-22.776643972
 30
0.0
 11
66.6588974526
 21
-22.542268972
 31
0.0
  0
LINE
  5
13B
330
10C
100
AcDbEntity
  8
0
  6
Continuous
 62
     0
370
     0
100
AcDbLine
 10
65.431066699
 20
-22.776643972
 30
0.0
 11
64.2032359455
 21
-23.011018972
 31
0.0
  0
LINE
  5
13C
330
10C
100
AcDbEntity
  8
0
  6
Continuous
 62
     0
370
     0
100
AcDbLine
 10
67.8867282061
 20
-22.307893972
 30
0.0
 11
69.1145589597
 21
-22.073518972
 31
0.0
  0
LINE
  5
13D
330
10C
100
AcDbEntity
  8
0
  6
Continuous
 62
     0
370
     0
100
AcDbLine
 10
62.9754051919
 20
-23.245393972
 30
0.0
 11
61.7475744384
 21
-23.479768972
 31
0.0
  0
LINE
  5
13E
330
10C
100
AcDbEntity
  8
0
  6
Continuous
 62
     0
370
     0
100
AcDbLine
 10
12.9903810568
 20
7.5
 30
0.0
 11
12.579440384
 21
8.6805201241
 31
0.0
  0
LINE
  5
13F
330
10C
100
AcDbEntity
  8
0
  6
Continuous
 62
     0
370
     0
100
AcDbLine
 10
12.9903810568
 20
7.5
 30
0.0
 11
13.4013217295
 21
6.3194798759
 31
0.0
  0
LINE
  5
140
330
10C
100
AcDbEntity
  8
0
  6
Continuous
 62
     0
370
     0
100
AcDbLine
 10
12.1684997112
 20
9.8610402483
 30
0.0
 11
11.7575590385
 21
11.0415603724
 31
0.0
  0
LINE
  5
141
330
10C
100
AcDbEntity
  8
0
  6
Continuous
 62
     0
370
     0
100
AcDbLine
 10
13.8122624023
 20
5.1389597517
 30
0.0
 11
14.2232030751
 21
3.9584396276
 31
0.0
  0
LINE
  5
142
330
10C
100
AcDbEntity
  8
0
  6
Continuous
 62
     0
370
     0
100
AcDbLine
 10
42.6404825853
 20
-1.6978056472
 30
0.0
 11
43.2654825853
 21
-0.6152738924
 31
0.0
  0
LINE
  5
143
330
10C
100
AcDbEntity
  8
0
  6
Continuous
 62
     0
370
     0
100
AcDbLine
 10
42.6404825853
 20
-1.6978056472
 30
0.0
 11
42.0154825853
 21
-2.7803374019
 31
0.0
  0
LINE
  5
144
330
10C
100
AcDbEntity
  8
0
  6
Continuous
 62
     0
370
     0
100
AcDbLine
 10
43.8904825853
 20
0.4672578623
 30
0.0
 11
45.3904825853
 21
3.0653340737
 31
0.0
  0
LINE
  5
145
330
10C
100
AcDbEntity
  8
0
  6
Continuous
 62
     0
370
     0
100
AcDbLine
 10
41.3904825853
 20
-3.8628691566
 30
0.0
 11
39.8904825853
 21
-6.460945368
 31
0.0
  0
LINE
  5
146
330
10C
100
AcDbEntity
  8
0
  6
Continuous
 62
     0
370
     0
100
AcDbLine
 10
0.0
 20
-60.5532879441
 30
0.0
 11
-0.8168900808
 21
-61.4994330682
 31
0.0
  0
LINE
  5
147
330
10C
100
AcDbEntity
  8
0
  6
Continuous
 62
     0
370
     0
100
AcDbLine
 10
0.0
 20
-60.5532879441
 30
0.0
 11
0.8168900808
 21
-59.60714282
 31
0.0
  0
LINE
  5
148
330
10C
100
AcDbEntity
  8
0
  6
Continuous
 62
     0
370
     0
100
AcDbLine
 10
-1.6337801616
 20
-62.4455781923
 30
0.0
 11
-2.4506702424
 21
-63.3917233165
 31
0.0
  0
LINE
  5
149
330
10C
100
AcDbEntity
  8
0
  6
Continuous
 62
     0
370
     0
100
AcDbLine
 10
1.6337801616
 20
-58.6609976958
 30
0.0
 11
2.4506702424
 21
-57.7148525717
 31
0.0
  0
LINE
  5
14A
330
10C
100
AcDbEntity
  8
0
  6
Continuous
 62
     0
370
     0
100
AcDbLine
 10
65.431066699
 20
-37.776643972
 30
0.0
 11
66.6588974526
 21
-38.011018972
 31
0.0
  0
LINE
  5
14B
330
10C
100
AcDbEntity
  8
0
  6
Continuous
 62
     0
370
     0
100
AcDbLine
 10
65.431066699
 20
-37.776643972
 30
0.0
 11
64.2032359455
 21
-37.542268972
 31
0.0
  0
LINE
  5
14C
330
10C
100
AcDbEntity
  8
0
  6
Continuous
 62
     0
370
     0
100
AcDbLine
 10
67.8867282061
 20
-38.245393972
 30
0.0
 11
69.1145589597
 21
-38.479768972
 31
0.0
  0
LINE
  5
14D
330
10C
100
AcDbEntity
  8
0
  6
Continuous
 62
     0
370
     0
100
AcDbLine
 10
62.9754051919
 20
-37.307893972
 30
0.0
 11
61.7475744383
 21
-37.073518972
 31
0.0
  0
LINE
  5
14E
330
10C
100
AcDbEntity
  8
0
  6
Continuous
 62
     0
370
     0
100
AcDbLine
 10
-6.8595174147
 20
-30.276643972
 30
0.0
 11
-8.1095174147
 21
-30.276643972
 31
0.0
  0
LINE
  5
14F
330
10C
100
AcDbEntity
  8
0
  6
Continuous
 62
     0
370
     0
100
AcDbLine
 10
-6.8595174147
 20
-30.276643972
 30
0.0
 11
-5.6095174147
 21
-30.276643972
 31
0.0
  0
LINE
  5
150
330
10C
100
AcDbEntity
  8
0
  6
Continuous
 62
     0
370
     0
100
AcDbLine
 10
-9.3595174147
 20
-30.276643972
 30
0.0
 11
-12.3595174147
 21
-30.276643972
 31
0.0
  0
LINE
  5
151
330
10C
100
AcDbEntity
  8
0
  6
Continuous
 62
     0
370
     0
100
AcDbLine
 10
-4.3595174147
 20
-30.276643972
 30
0.0
 11
-1.3595174147
 21
-30.276643972
 31
0.0
  0
LINE
  5
152
330
10C
100
AcDbEntity
  8
0
  6
Continuous
 62
     0
370
     0
100
AcDbLine
 10
42.6404825853
 20
-58.8554822969
 30
0.0
 11
43.2654825853
 21
-59.9380140517
 31
0.0
  0
LINE
  5
153
330
10C
100
AcDbEntity
  8
0
  6
Continuous
 62
     0
370
     0
100
AcDbLine
 10
42.6404825853
 20
-58.8554822969
 30
0.0
 11
42.0154825853
 21
-57.7729505422
 31
0.0
  0
LINE
  5
154
330
10C
100
AcDbEntity
  8
0
  6
Continuous
 62
     0
370
     0
100
AcDbLine
 10
43.8904825853
 20
-61.0205458064
 30
0.0
 11
45.3904825853
 21
-63.6186220177
 31
0.0
  0
LINE
  5
155
330
10C
100
AcDbEntity
  8
0
  6
Continuous
 62
     0
370
     0
100
AcDbLine
 10
41.3904825853
 20
-56.6904187875
 30
0.0
 11
39.8904825853
 21
-54.0923425761
 31
0.0
  0
ENDBLK
  5
10E
330
10C
100
AcDbEntity
  8
0
100
AcDbBlockEnd
  0
BLOCK
  5
15D
330
15C
100
AcDbEntity
  8
0
100
AcDbBlockBegin
  2
*D15
 70
     1
 10
0.0
 20
0.0
 30
0.0
  3
*D15
  1

  0
SOLID
  5
15F
330
15C
100
AcDbEntity
  8
0
  6
Continuous
 62
     7
370
     0
100
AcDbTrace
 10
89.5568703998
 20
74.9406569343
 30
0.0
 11
90.0648703998
 21
78.2426569343
 31
0.0
 12
89.0488703998
 22
78.2426569343
 32
0.0
 13
89.0488703998
 23
78.2426569343
 33
0.0
  0
SOLID
  5
160
330
15C
100
AcDbEntity
  8
0
  6
Continuous
 62
     7
370
     0
100
AcDbTrace
 10
89.5568703998
 20
71.9406569343
 30
0.0
 11
89.0488703998
 21
68.6386569343
 31
0.0
 12
90.0648703998
 22
68.6386569343
 32
0.0
 13
90.0648703998
 23
68.6386569343
 33
0.0
  0
LINE
  5
161
330
15C
100
AcDbEntity
  8
0
  6
Continuous
 62
     7
370
     0
100
AcDbLine
 10
98.5568703998
 20
74.9406569343
 30
0.0
 11
88.5568703998
 21
74.9406569343
 31
0.0
  0
LINE
  5
162
330
15C
100
AcDbEntity
  8
0
  6
Continuous
 62
     7
370
     0
100
AcDbLine
 10
98.5568703998
 20
71.9406569343
 30
0.0
 11
88.5568703998
 21
71.9406569343
 31
0.0
  0
LINE
  5
163
330
15C
100
AcDbEntity
  8
0
  6
Continuous
 62
     7
370
     0
100
AcDbLine
 10
89.5568703998
 20
74.9406569343
 30
0.0
 11
89.5568703998
 21
81.2906569343
 31
0.0
  0
LINE
  5
164
330
15C
100
AcDbEntity
  8
0
  6
Continuous
 62
     7
370
     0
100
AcDbLine
 10
89.5568703998
 20
74.9406569343
 30
0.0
 11
89.5568703998
 21
71.9406569343
 31
0.0
  0
LINE
  5
165
330
15C
100
AcDbEntity
  8
0
  6
Continuous
 62
     7
370
     0
100
AcDbLine
 10
89.5568703998
 20
71.9406569343
 30
0.0
 11
89.5568703998
 21
60.2896151729
 31
0.0
  0
MTEXT
  5
166
330
15C
100
AcDbEntity
  8
0
  6
Continuous
 62
     7
370
     0
100
AcDbMText
 10
85.0451334852
 20
60.2896151729
 30
0.05
 40
3.5
 41
0.0
 71
     1
 72
     1
  1
6
  7
SLDTEXTSTYLE0
 11
-7.044195017643634E-15
 21
1.0
 31
0.0
 73
     1
 44
1.0
  0
ENDBLK
  5
15E
330
15C
100
AcDbEntity
  8
0
100
AcDbBlockEnd
  0
ENDSEC
  0
SECTION
  2
ENTITIES
  0
IMAGE
  5
47
330
1F
100
AcDbEntity
  8
0
 92
      140
310
8C00000001000000840000000600000005000000FCAD6E4CBC4736405FCB2A77004F6A400000000000000000F3AD6E4CBC473640E304B366C6036C400000000000000000805EA6F45CCB1F40E204B366C6036C400000000000000000A45EA6F45CCB1F405ECB2A77004F6A400000000000000000FCAD6E4CBC4736405FCB2A
310
77004F6A400000000000000000
100
AcDbRasterImage
 90
        0
 10
22.2802169581
 20
210.4688068233
 30
0.0
 11
-8.125545164955866E-17
 21
0.03412290517345387
 31
0.0
 12
-0.03412290517345382
 22
-8.125545164955851E-17
 32
0.0
 13
400.0
 23
420.0
340
46
 70
     7
280
     0
281
    50
282
    50
283
     0
360
48
 71
     1
 91
        2
 14
-0.5
 24
-0.5
 14
399.5
 24
419.5
  0
LINE
  5
49
330
1F
100
AcDbEntity
  8
0
  6
Continuous
 62
     7
370
    40
100
AcDbLine
 10
25.0788435654
 20
10.2147801566
 30
0.0
 11
25.0788435654
 21
287.2147801566
 31
0.0
  0
LINE
  5
4A
330
1F
100
AcDbEntity
  8
0
  6
Continuous
 62
     7
370
    40
100
AcDbLine
 10
0.0788435654
 20
0.2147801566
 30
0.0
 11
420.0788435654
 21
0.2147801566
 31
0.0
  0
LINE
  5
4B
330
1F
100
AcDbEntity
  8
0
  6
Continuous
 62
     7
370
    40
100
AcDbLine
 10
0.0788435654
 20
0.2147801566
 30
0.0
 11
0.0788435654
 21
297.2147801566
 31
0.0
  0
LINE
  5
4C
330
1F
100
AcDbEntity
  8
0
  6
Continuous
 62
     7
370
    40
100
AcDbLine
 10
0.0788435654
 20
297.2147801566
 30
0.0
 11
420.0788435654
 21
297.2147801566
 31
0.0
  0
LINE
  5
4D
330
1F
100
AcDbEntity
  8
0
  6
Continuous
 62
     7
370
    40
100
AcDbLine
 10
420.0788435654
 20
0.2147801566
 30
0.0
 11
420.0788435654
 21
297.2147801566
 31
0.0
  0
LINE
  5
4E
330
1F
100
AcDbEntity
  8
0
  6
Continuous
 62
     7
370
    40
100
AcDbLine
 10
25.0788435654
 20
287.2147801566
 30
0.0
 11
410.0788435654
 21
287.2147801566
 31
0.0
  0
LINE
  5
4F
330
1F
100
AcDbEntity
  8
0
  6
Continuous
 62
     7
370
    40
100
AcDbLine
 10
25.0788435654
 20
10.2147801566
 30
0.0
 11
410.0788435654
 21
10.2147801566
 31
0.0
  0
LINE
  5
50
330
1F
100
AcDbEntity
  8
0
  6
Continuous
 62
     7
370
    40
100
AcDbLine
 10
410.0788435654
 20
287.2147801566
 30
0.0
 11
410.0788435654
 21
10.2147801566
 31
0.0
  0
LINE
  5
51
330
1F
100
AcDbEntity
  8
0
  6
Continuous
 62
     7
370
    40
100
AcDbLine
 10
222.8788435654
 20
14.4647801566
 30
0.0
 11
410.0788435654
 21
14.4647801566
 31
0.0
  0
LINE
  5
52
330
1F
100
AcDbEntity
  8
0
  6
Continuous
 62
     7
370
    40
100
AcDbLine
 10
410.0788435654
 20
48.4647801566
 30
0.0
 11
222.8788435654
 21
48.4647801566
 31
0.0
  0
LINE
  5
53
330
1F
100
AcDbEntity
  8
0
  6
Continuous
 62
     7
370
    40
100
AcDbLine
 10
222.8788435654
 20
65.4647801566
 30
0.0
 11
410.0788435654
 21
65.4647801566
 31
0.0
  0
LINE
  5
54
330
1F
100
AcDbEntity
  8
0
  6
Continuous
 62
     7
370
    40
100
AcDbLine
 10
249.8697959991
 20
48.4647801566
 30
0.0
 11
249.8697959991
 21
10.2147801566
 31
0.0
  0
LINE
  5
55
330
1F
100
AcDbEntity
  8
0
  6
Continuous
 62
     7
370
    40
100
AcDbLine
 10
321.6788435654
 20
31.4647801566
 30
0.0
 11
222.8788435654
 21
31.4647801566
 31
0.0
  0
LINE
  5
56
330
1F
100
AcDbEntity
  8
0
  6
Continuous
 62
     7
370
    40
100
AcDbLine
 10
321.6788435654
 20
35.7147801566
 30
0.0
 11
222.8788435654
 21
35.7147801566
 31
0.0
  0
LINE
  5
57
330
1F
100
AcDbEntity
  8
0
  6
Continuous
 62
     7
370
    40
100
AcDbLine
 10
321.6788435654
 20
39.9647801566
 30
0.0
 11
222.8788435654
 21
39.9647801566
 31
0.0
  0
LINE
  5
58
330
1F
100
AcDbEntity
  8
0
  6
Continuous
 62
     7
370
    40
100
AcDbLine
 10
321.6788435654
 20
44.2147801566
 30
0.0
 11
222.8788435654
 21
44.2147801566
 31
0.0
  0
LINE
  5
59
330
1F
100
AcDbEntity
  8
0
  6
Continuous
 62
     7
370
    40
100
AcDbLine
 10
277.4788435654
 20
10.2147801566
 30
0.0
 11
277.4788435654
 21
48.4647801566
 31
0.0
  0
LINE
  5
5A
330
1F
100
AcDbEntity
  8
0
  6
Continuous
 62
     7
370
    40
100
AcDbLine
 10
222.8788435654
 20
65.4647801566
 30
0.0
 11
222.8788435654
 21
10.2147801566
 31
0.0
  0
LINE
  5
5B
330
1F
100
AcDbEntity
  8
0
  6
Continuous
 62
     7
370
    40
100
AcDbLine
 10
230.6788435654
 20
48.4647801566
 30
0.0
 11
230.6788435654
 21
10.2147801566
 31
0.0
  0
LINE
  5
5C
330
1F
100
AcDbEntity
  8
0
  6
Continuous
 62
     7
370
    40
100
AcDbLine
 10
256.6788435654
 20
48.4647801566
 30
0.0
 11
256.6788435654
 21
65.4647801566
 31
0.0
  0
LINE
  5
5D
330
1F
100
AcDbEntity
  8
0
  6
Continuous
 62
     7
370
    40
100
AcDbLine
 10
267.2777697289
 20
48.4647801566
 30
0.0
 11
267.2777697289
 21
10.2147801566
 31
0.0
  0
LINE
  5
5E
330
1F
100
AcDbEntity
  8
0
  6
Continuous
 62
     7
370
    40
100
AcDbLine
 10
287.8788435654
 20
31.4647801566
 30
0.0
 11
287.8788435654
 21
48.4647801566
 31
0.0
  0
LINE
  5
5F
330
1F
100
AcDbEntity
  8
0
  6
Continuous
 62
     7
370
    40
100
AcDbLine
 10
277.4788435654
 20
18.7147801566
 30
0.0
 11
222.8788435654
 21
18.7147801566
 31
0.0
  0
LINE
  5
60
330
1F
100
AcDbEntity
  8
0
  6
Continuous
 62
     7
370
    40
100
AcDbLine
 10
303.4788435654
 20
65.4647801566
 30
0.0
 11
303.4788435654
 21
27.2147801566
 31
0.0
  0
LINE
  5
61
330
1F
100
AcDbEntity
  8
0
  6
Continuous
 62
     7
370
    40
100
AcDbLine
 10
277.4788435654
 20
22.9647081566
 30
0.0
 11
222.8788435654
 21
22.9647081566
 31
0.0
  0
LINE
  5
62
330
1F
100
AcDbEntity
  8
0
  6
Continuous
 62
     7
370
    40
100
AcDbLine
 10
277.4788435654
 20
27.2147801566
 30
0.0
 11
222.8788435654
 21
27.2147801566
 31
0.0
  0
LINE
  5
63
330
1F
100
AcDbEntity
  8
0
  6
Continuous
 62
     7
370
    40
100
AcDbLine
 10
277.4788435654
 20
27.2147801566
 30
0.0
 11
410.0788435654
 21
27.2147801566
 31
0.0
  0
LINE
  5
64
330
1F
100
AcDbEntity
  8
0
  6
Continuous
 62
     7
370
    40
100
AcDbLine
 10
321.6788435654
 20
65.4647801566
 30
0.0
 11
321.6788435654
 21
10.2147801566
 31
0.0
  0
LINE
  5
65
330
1F
100
AcDbEntity
  8
0
  6
Continuous
 62
     7
370
    40
100
AcDbLine
 10
365.8788435654
 20
10.2147801566
 30
0.0
 11
365.8788435654
 21
14.4647801566
 31
0.0
  0
LINE
  5
66
330
1F
100
AcDbEntity
  8
0
  6
Continuous
 62
     7
370
    40
100
AcDbLine
 10
373.6788435654
 20
59.0897801566
 30
0.0
 11
373.6788435654
 21
65.4647801566
 31
0.0
  0
LINE
  5
67
330
1F
100
AcDbEntity
  8
0
  6
Continuous
 62
     7
370
    40
100
AcDbLine
 10
397.0788435654
 20
14.4647801566
 30
0.0
 11
397.0788435654
 21
27.2147801566
 31
0.0
  0
LINE
  5
68
330
1F
100
AcDbEntity
  8
0
  6
Continuous
 62
     7
370
    40
100
AcDbLine
 10
410.0788435654
 20
59.0897801566
 30
0.0
 11
321.6788435654
 21
59.0897801566
 31
0.0
  0
LINE
  5
69
330
1F
100
AcDbEntity
  8
0
  6
Continuous
 62
     7
370
    40
100
AcDbLine
 10
410.0788435654
 20
18.7147801566
 30
0.0
 11
397.0788435654
 21
18.7147801566
 31
0.0
  0
INSERT
  5
70
330
1F
100
AcDbEntity
  8
0
  6
Continuous
 62
     7
370
     0
100
AcDbBlockReference
  2
SW_NOTE_0
 10
13.5493319535
 20
10.1082574568
 30
0.0
  0
MTEXT
  5
71
330
1F
100
AcDbEntity
  8
0
  6
Continuous
 62
     7
370
     0
100
AcDbMText
 10
396.7385966686
 20
62.9900954614
 30
0.0
 40
1.905
 41
0.0
 71
     2
 72
     1
  1
4
  7
SLDTEXTSTYLE0
 73
     1
 44
1.0
  0
MTEXT
  5
72
330
1F
100
AcDbEntity
  8
0
  6
Continuous
 62
     7
370
     0
100
AcDbMText
 10
366.1328288579
 20
41.2496797141
 30
0.0
 40
6.35
 41
0.0
 71
     2
 72
     1
  1
Porte satellite
  7
SLDTEXTSTYLE0
 73
     1
 44
1.0
  0
MTEXT
  5
73
330
1F
100
AcDbEntity
  8
0
  6
Continuous
 62
     7
370
     0
100
AcDbMText
 10
362.6783803629
 20
24.8465186829
 30
0.0
 40
6.35
 41
0.0
 71
     2
 72
     1
  1
ASD-US000013
  7
SLDTEXTSTYLE0
 73
     1
 44
1.0
  0
MTEXT
  5
74
330
1F
100
AcDbEntity
  8
0
  6
Continuous
 62
     7
370
     0
100
AcDbMText
 10
272.5762722308
 20
42.773880237
 30
0.0
 40
1.4986
 41
0.0
 71
     2
 72
     1
  1
22-11/2013
  7
SLDTEXTSTYLE0
 73
     1
 44
1.0
  0
MTEXT
  5
75
330
1F
100
AcDbEntity
  8
0
  6
Continuous
 62
     7
370
     0
100
AcDbMText
 10
240.1135264709
 20
42.5981456645
 30
0.0
 40
1.4986
 41
0.0
 71
     2
 72
     1
  1
BRESSON-T
  7
SLDTEXTSTYLE0
 73
     1
 44
1.0
  0
MTEXT
  5
76
330
1F
100
AcDbEntity
  8
0
  6
Continuous
 62
     7
370
     0
100
AcDbMText
 10
278.4966546935
 20
13.1640920602
 30
0.0
 40
1.4986
 41
0.0
 71
     1
 72
     1
  1
MASSE:
  7
SLDTEXTSTYLE0
 73
     1
 44
1.0
  0
MTEXT
  5
77
330
1F
100
AcDbEntity
  8
0
  6
Continuous
 62
     7
370
     0
100
AcDbMText
 10
299.8177807388
 20
21.700345848
 30
0.0
 40
2.38125
 41
0.0
 71
     2
 72
     1
  1
Acier
  7
SLDTEXTSTYLE0
 73
     1
 44
1.0
  0
MTEXT
  5
78
330
1F
100
AcDbEntity
  8
0
  6
Continuous
 62
     7
370
     0
100
AcDbMText
 10
400.9998284117
 20
24.5152246096
 30
0.0
 40
2.9104166667
 41
0.0
 71
     1
 72
     1
  1
A3
  7
SLDTEXTSTYLE0
 73
     1
 44
1.0
  0
MTEXT
  5
7A
330
1F
100
AcDbEntity
  8
0
  6
Continuous
 62
     7
370
     0
100
AcDbMText
 10
367.3571379932
 20
13.114867664
 30
0.0
 40
1.5
 41
0.0
 71
     1
 72
     1
  1
FEUILLE 1 SUR 1
  7
SLDTEXTSTYLE1
 73
     1
 44
1.0
  0
MTEXT
  5
7B
330
1F
100
AcDbEntity
  8
0
  6
Continuous
 62
     7
370
     0
100
AcDbMText
 10
322.9528096828
 20
13.114867664
 30
0.0
 40
1.5
 41
0.0
 71
     1
 72
     1
  1
ECHELLE:1:2
  7
SLDTEXTSTYLE0
 73
     1
 44
1.0
  0
MTEXT
  5
7C
330
1F
100
AcDbEntity
  8
0
  6
Continuous
 62
     7
370
     0
100
AcDbMText
 10
322.9528096828
 20
25.0834182165
 30
0.0
 40
1.5
 41
0.0
 71
     1
 72
     1
  1
No. DE PLAN
  7
SLDTEXTSTYLE0
 73
     1
 44
1.0
  0
MTEXT
  5
7D
330
1F
100
AcDbEntity
  8
0
  6
Continuous
 62
     7
370
     0
100
AcDbMText
 10
322.835030502
 20
46.4931146755
 30
0.0
 40
1.5
 41
0.0
 71
     1
 72
     1
  1
TITRE:
  7
SLDTEXTSTYLE0
 73
     1
 44
1.0
  0
MTEXT
  5
7E
330
1F
100
AcDbEntity
  8
0
  6
Continuous
 62
     7
370
     0
100
AcDbMText
 10
376.2064252647
 20
62.5496890699
 30
0.0
 40
1.5
 41
0.0
 71
     1
 72
     1
  1
REVISION
  7
SLDTEXTSTYLE0
 73
     1
 44
1.0
  0
MTEXT
  5
7F
330
1F
100
AcDbEntity
  8
0
  6
Continuous
 62
     7
370
     0
100
AcDbMText
 10
335.4934840882
 20
62.7477739645
 30
0.0
 40
1.5
 41
0.0
 71
     1
 72
     1
  1
NE PAS CHANGER L'ECHELLE
  7
SLDTEXTSTYLE0
 73
     1
 44
1.0
  0
MTEXT
  5
80
330
1F
100
AcDbEntity
  8
0
  6
Continuous
 62
     7
370
     0
100
AcDbMText
 10
278.5247058741
 20
26.2008366787
 30
0.0
 40
1.5
 41
0.0
 71
     1
 72
     1
  1
MATERIAU:
  7
SLDTEXTSTYLE0
 73
     1
 44
1.0
  0
MTEXT
  5
81
330
1F
100
AcDbEntity
  8
0
  6
Continuous
 62
     7
370
     0
100
AcDbMText
 10
270.0935455311
 20
46.7909596107
 30
0.0
 40
1.5
 41
0.0
 71
     1
 72
     1
  1
DATE
  7
SLDTEXTSTYLE0
 73
     1
 44
1.0
  0
MTEXT
  5
82
330
1F
100
AcDbEntity
  8
0
  6
Continuous
 62
     7
370
     0
100
AcDbMText
 10
252.9124311285
 20
46.776536769
 30
0.0
 40
1.5
 41
0.0
 71
     1
 72
     1
  1
SIGNATURE
  7
SLDTEXTSTYLE0
 73
     1
 44
1.0
  0
MTEXT
  5
83
330
1F
100
AcDbEntity
  8
0
  6
Continuous
 62
     7
370
     0
100
AcDbMText
 10
237.201082783
 20
46.7162630229
 30
0.0
 40
1.5
 41
0.0
 71
     1
 72
     1
  1
NOM
  7
SLDTEXTSTYLE0
 73
     1
 44
1.0
  0
INSERT
  5
89
330
1F
100
AcDbEntity
  8
0
  6
Continuous
 62
     7
370
     0
100
AcDbBlockReference
  2
SW_NOTE_1
 10
304.1880592516
 20
62.2842700325
 30
0.0
  0
MTEXT
  5
8A
330
1F
100
AcDbEntity
  8
0
  6
Continuous
 62
     7
370
     0
100
AcDbMText
 10
257.2501357322
 20
64.1340523846
 30
0.0
 40
1.5
 41
0.0
 71
     1
 72
     1
  1
FINITION:
  7
SLDTEXTSTYLE0
 73
     1
 44
1.0
  0
MTEXT
  5
8B
330
1F
100
AcDbEntity
  8
0
  6
Continuous
 62
     7
370
     0
100
AcDbMText
 10
223.5478864275
 20
25.5644295968
 30
0.0
 40
1.5
 41
0.0
 71
     1
 72
     1
  1
QUAL.
  7
SLDTEXTSTYLE0
 73
     1
 44
1.0
  0
MTEXT
  5
8C
330
1F
100
AcDbEntity
  8
0
  6
Continuous
 62
     7
370
     0
100
AcDbMText
 10
223.3340300644
 20
29.9484850401
 30
0.0
 40
1.5
 41
0.0
 71
     1
 72
     1
  1
FAB.
  7
SLDTEXTSTYLE0
 73
     1
 44
1.0
  0
MTEXT
  5
8D
330
1F
100
AcDbEntity
  8
0
  6
Continuous
 62
     7
370
     0
100
AcDbMText
 10
223.2805659737
 20
34.2790763926
 30
0.0
 40
1.5
 41
0.0
 71
     1
 72
     1
  1
APPR.
  7
SLDTEXTSTYLE0
 73
     1
 44
1.0
  0
MTEXT
  5
8E
330
1F
100
AcDbEntity
  8
0
  6
Continuous
 62
     7
370
     0
100
AcDbMText
 10
223.289312433
 20
38.3691875495
 30
0.0
 40
1.5
 41
0.0
 71
     1
 72
     1
  1
VERIF.
  7
SLDTEXTSTYLE0
 73
     1
 44
1.0
  0
MTEXT
  5
8F
330
1F
100
AcDbEntity
  8
0
  6
Continuous
 62
     7
370
     0
100
AcDbMText
 10
223.0909928094
 20
42.6444952754
 30
0.0
 40
1.5
 41
0.0
 71
     1
 72
     1
  1
AUTEUR
  7
SLDTEXTSTYLE0
 73
     1
 44
1.0
  0
INSERT
  5
9A
330
1F
100
AcDbEntity
  8
0
  6
Continuous
 62
     7
370
     0
100
AcDbBlockReference
  2
SW_NOTE_2
 10
225.1431677117
 20
61.4986553933
 30
0.0
  0
CIRCLE
  5
9B
330
1F
100
AcDbEntity
  8
0
  6
Continuous
 62
     7
370
    15
100
AcDbCircle
 10
147.0568703998
 20
192.5244769893
 30
0.0
 40
4.25
  0
CIRCLE
  5
9C
330
1F
100
AcDbEntity
  8
0
  6
Continuous
 62
     7
370
    15
100
AcDbCircle
 10
147.0568703998
 20
192.5244769893
 30
0.0
 40
47.5
  0
CIRCLE
  5
9D
330
1F
100
AcDbEntity
  8
0
  6
Continuous
 62
     7
370
    15
100
AcDbCircle
 10
114.0568703998
 20
192.5244769893
 30
0.0
 40
4.25
  0
CIRCLE
  5
9E
330
1F
100
AcDbEntity
  8
0
  6
Continuous
 62
     7
370
    15
100
AcDbCircle
 10
163.5568703998
 20
221.1033153142
 30
0.0
 40
4.250000000000004
  0
CIRCLE
  5
9F
330
1F
100
AcDbEntity
  8
0
  6
Continuous
 62
     7
370
    15
100
AcDbCircle
 10
163.5568703998
 20
163.9456386645
 30
0.0
 40
4.24999999999999
  0
CIRCLE
  5
A0
330
1F
100
AcDbEntity
  8
0
  6
Continuous
 62
     7
370
    15
100
AcDbCircle
 10
120.9163878145
 20
162.2478330173
 30
0.0
 40
2.5
  0
CIRCLE
  5
A1
330
1F
100
AcDbEntity
  8
0
  6
Continuous
 62
     7
370
    15
100
AcDbCircle
 10
133.9067688713
 20
154.7478330173
 30
0.0
 40
2.5
  0
CIRCLE
  5
A2
330
1F
100
AcDbEntity
  8
0
  6
Continuous
 62
     7
370
    15
100
AcDbCircle
 10
133.9067688713
 20
230.3011209614
 30
0.0
 40
2.5
  0
CIRCLE
  5
A3
330
1F
100
AcDbEntity
  8
0
  6
Continuous
 62
     7
370
    15
100
AcDbCircle
 10
120.9163878145
 20
222.8011209614
 30
0.0
 40
2.499999999999972
  0
CIRCLE
  5
A4
330
1F
100
AcDbEntity
  8
0
  6
Continuous
 62
     7
370
    15
100
AcDbCircle
 10
186.3474545136
 20
185.0244769893
 30
0.0
 40
2.5
  0
CIRCLE
  5
A5
330
1F
100
AcDbEntity
  8
0
  6
Continuous
 62
     7
370
    15
100
AcDbCircle
 10
186.3474545136
 20
200.0244769893
 30
0.0
 40
2.5
  0
LINE
  5
A6
330
1F
100
AcDbEntity
  8
0
  6
CENTERX2
 62
     7
370
     0
100
AcDbLine
 10
147.0568703998
 20
192.5244769893
 30
0.0
 11
163.5568703998
 21
163.9456386645
 31
0.0
  0
LINE
  5
A7
330
1F
100
AcDbEntity
  8
0
  6
CENTERX2
 62
     7
370
     0
100
AcDbLine
 10
147.0568703998
 20
192.5244769893
 30
0.0
 11
126.6674627614
 21
227.8399669554
 31
0.0
  0
DIMENSION
  5
A8
330
1F
100
AcDbEntity
  8
0
  6
Continuous
 62
     7
370
     0
100
AcDbDimension
  2
*D4
 10
147.0568703998
 20
192.5244769893
 30
0.0
 11
97.6742615981
 21
129.0244769893
 31
0.0
 70
   162
  1
<> (x3)
 71
     1
 42
-1.0
  3
SLDDIMSTYLE0
100
AcDb2LineAngularDimension
 13
105.8068703998
 23
192.5244769893
 33
0.0
 14
188.3068703998
 24
192.5244769893
 34
0.0
 15
163.5568703998
 25
163.9456386645
 35
0.0
 16
106.8359428494
 26
122.8597869445
 36
0.0
  0
DIMENSION
  5
B4
330
1F
100
AcDbEntity
  8
0
  6
Continuous
 62
     7
370
     0
100
AcDbDimension
  2
*D5
 10
126.6674627614
 20
227.8399669554
 30
0.0
 11
129.2974475863
 21
270.5453316759
 31
0.0
 70
   162
  1
<> (x2)
 71
     1
 42
-1.0
  3
SLDDIMSTYLE0
100
AcDb2LineAngularDimension
 13
147.0568703998
 23
233.7744769893
 33
0.0
 14
147.0568703998
 24
151.2744769893
 34
0.0
 15
147.0568703998
 25
192.5244769893
 35
0.0
 16
126.3470591464
 26
269.8145448023
 36
0.0
  0
DIMENSION
  5
BF
330
1F
100
AcDbEntity
  8
0
  6
Continuous
 62
     7
370
     0
100
AcDbDimension
  2
*D6
 10
222.5568703998
 20
185.0244769893
 30
0.0
 11
222.5568703998
 21
172.6233091061
 31
0.0
 70
   160
  1
<> (x3)
 71
     2
 42
-1.0
  3
SLDDIMSTYLE1
100
AcDbAlignedDimension
 13
186.3474545136
 23
200.0244769893
 33
0.0
 14
186.3474545136
 24
185.0244769893
 34
0.0
 50
90.0
100
AcDbRotatedDimension
  0
DIMENSION
  5
CD
330
1F
100
AcDbEntity
  8
0
  6
Continuous
 62
     7
370
     0
100
AcDbDimension
  2
*D8
 10
184.051570749
 20
199.0350742706
 30
0.0
 11
216.1887359136
 21
212.8844738533
 31
0.0
 70
   163
  1
<> (x2x3)
 71
     1
 42
-1.0
  3
SLDDIMSTYLE2
100
AcDbDiametricDimension
 15
188.6433382781
 25
201.013879708
 35
0.0
 40
0.0
  0
DIMENSION
  5
DB
330
1F
100
AcDbEntity
  8
0
  6
Continuous
 62
     7
370
     0
100
AcDbDimension
  2
*D9
 10
178.9324226673
 20
183.983448501
 30
0.0
 11
57.9968578713
 21
216.3880481037
 31
0.0
 70
   163
  1
<>
 71
     1
 42
-1.0
  3
SLDDIMSTYLE3
100
AcDbDiametricDimension
 15
115.1813181323
 25
201.0655054777
 35
0.0
 40
0.0
  0
DIMENSION
  5
E5
330
1F
100
AcDbEntity
  8
0
  6
Continuous
 62
     7
370
     0
100
AcDbDimension
  2
*D10
 10
118.1620551615
 20
191.4244960477
 30
0.0
 11
65.9171431027
 21
205.4234907219
 31
0.0
 70
   163
  1
<>H7 (x3)
 71
     1
 42
-1.0
  3
SLDDIMSTYLE4
100
AcDbDiametricDimension
 15
109.9516856381
 25
193.624457931
 35
0.0
 40
0.0
  0
DIMENSION
  5
F0
330
1F
100
AcDbEntity
  8
0
  6
Continuous
 62
     7
370
     0
100
AcDbDimension
  2
*D11
 10
150.0620742198
 20
189.5192731693
 30
0.0
 11
89.5568803998
 21
250.0244869893
 31
0.0
 70
   163
  1
<>
 71
     1
 42
-1.0
  3
SLDDIMSTYLE5
100
AcDbDiametricDimension
 15
144.0516665798
 25
195.5296808094
 35
0.0
 40
0.0
  0
DIMENSION
  5
FA
330
1F
100
AcDbEntity
  8
0
  6
Continuous
 62
     7
370
     0
100
AcDbDimension
  2
*D12
 10
113.4692982934
 20
158.936904883
 30
0.0
 11
210.4902220947
 21
255.9578286842
 31
0.0
 70
   163
  1
<>
 71
     1
 42
-1.0
  3
SLDDIMSTYLE5
100
AcDbDiametricDimension
 15
180.6444425062
 25
226.1120490957
 35
0.0
 40
0.0
  0
DIMENSION
  5
103
330
1F
100
AcDbEntity
  8
0
  6
Continuous
 62
     7
370
     0
100
AcDbDimension
  2
*D13
 10
147.0568703998
 20
192.5244769893
 30
0.0
 11
214.972238956
 21
220.7792315149
 31
0.0
 70
   164
  1
<>
 71
     1
 42
-1.0
  3
SLDDIMSTYLE6
100
AcDbRadialDimension
 15
183.9883055314
 25
207.8890173052
 35
0.0
 40
0.0
  0
INSERT
  5
156
330
1F
100
AcDbEntity
  8
0
  6
Continuous
 62
     7
370
     0
100
AcDbBlockReference
  2
SW_CENTERMARKSYMBOL_0
 10
120.9163878145
 20
222.8011209614
 30
0.0
  0
LINE
  5
157
330
1F
100
AcDbEntity
  8
0
  6
Continuous
 62
     7
370
    15
100
AcDbLine
 10
99.5568703998
 20
74.9406569343
 30
0.0
 11
99.5568703998
 21
71.9406569343
 31
0.0
  0
LINE
  5
158
330
1F
100
AcDbEntity
  8
0
  6
Continuous
 62
     7
370
    15
100
AcDbLine
 10
194.5568703998
 20
71.9406569343
 30
0.0
 11
194.5568703998
 21
74.9406569343
 31
0.0
  0
LINE
  5
159
330
1F
100
AcDbEntity
  8
0
  6
Continuous
 62
     7
370
    15
100
AcDbLine
 10
194.5568703998
 20
71.9406569343
 30
0.0
 11
99.5568703998
 21
71.9406569343
 31
0.0
  0
LINE
  5
15A
330
1F
100
AcDbEntity
  8
0
  6
Continuous
 62
     7
370
    15
100
AcDbLine
 10
194.5568703998
 20
74.9406569343
 30
0.0
 11
99.5568703998
 21
74.9406569343
 31
0.0
  0
DIMENSION
  5
15B
330
1F
100
AcDbEntity
  8
0
  6
Continuous
 62
     7
370
     0
100
AcDbDimension
  2
*D15
 10
89.5568703998
 20
71.9406569343
 30
0.0
 11
89.5568703998
 21
63.0045457408
 31
0.0
 70
   160
 71
     2
 42
-1.0
  3
SLDDIMSTYLE1
100
AcDbAlignedDimension
 13
99.5568703998
 23
74.9406569343
 33
0.0
 14
99.5568703998
 24
71.9406569343
 34
0.0
 50
90.0
100
AcDbRotatedDimension
  0
LINE
  5
167
330
1F
100
AcDbEntity
  8
0
  6
Continuous
 62
     7
370
    15
100
AcDbLine
 10
345.0022337215
 20
220.719467434
 30
0.0
 11
342.880913378
 21
221.9440796017
 31
0.0
  0
LINE
  5
168
330
1F
100
AcDbEntity
  8
0
  6
Continuous
 62
     7
370
    15
100
AcDbLine
 10
295.3847735777
 20
139.6694376755
 30
0.0
 11
297.5060939213
 21
138.4448255078
 31
0.0
  0
LWPOLYLINE
  5
169
330
1F
100
AcDbEntity
  8
0
  6
Continuous
 62
     7
370
    15
100
AcDbPolyline
 90
       43
 70
   128
 43
0.0
 10
319.1328434779
 20
177.3364601881
 10
319.5807458655
 20
177.6337890992
 10
320.018642854
 20
178.0019969065
 10
320.4367525481
 20
178.4328584563
 10
320.8257350683
 20
178.9167490134
 10
321.1769011877
 20
179.4428592623
 10
321.4824064356
 20
179.9994367696
 10
321.7354263296
 20
180.5740485133
 10
321.9303088233
 20
181.1538586167
 10
322.0627005638
 20
181.7259150802
 10
322.1296441385
 20
182.2774391076
 10
322.1296441385
 20
182.7961105636
 10
322.0627005638
 20
183.2703431848
 10
321.9303088233
 20
183.6895433983
 10
321.7354263296
 20
184.0443469638
 10
321.4824064356
 20
184.3268281562
 10
321.1769011877
 20
184.5306768123
 10
320.8257350683
 20
184.6513392899
 10
320.4367525481
 20
184.6861201888
 10
320.018642854
 20
184.6342425611
 10
319.5807458655
 20
184.4968652673
 10
319.1328434779
 20
184.2770570891
 10
318.6849410902
 20
183.9797281781
 10
318.2470441017
 20
183.6115203707
 10
317.8289344076
 20
183.1806588209
 10
317.4399518875
 20
182.6967682638
 10
317.088785768
 20
182.1706580149
 10
316.7832805201
 20
181.6140805076
 10
316.5302606261
 20
181.0394687639
 10
316.3353781325
 20
180.4596586605
 10
316.2029863919
 20
179.887602197
 10
316.1360428172
 20
179.3360781696
 10
316.1360428172
 20
178.8174067137
 10
316.2029863919
 20
178.3431740924
 10
316.3353781325
 20
177.923973879
 10
316.5302606261
 20
177.5691703134
 10
316.7832805201
 20
177.286689121
 10
317.088785768
 20
177.082840465
 10
317.4399518875
 20
176.9621779873
 10
317.8289344076
 20
176.9273970884
 10
318.2470441017
 20
176.9792747161
 10
318.6849410902
 20
177.1166520099
 10
319.1328434779
 20
177.3364601881
  0
LWPOLYLINE
  5
16A
330
1F
100
AcDbEntity
  8
0
  6
Continuous
 62
     7
370
    15
100
AcDbPolyline
 90
      143
 70
   128
 43
0.0
 10
319.1328434779
 20
142.021070074
 10
320.6185342005
 20
142.9167034756
 10
322.1013166138
 20
143.8865084394
 10
323.5782881015
 20
144.9285865267
 10
325.0465574226
 20
146.0408978208
 10
326.503250371
 20
147.2212649201
 10
327.9455154017
 20
148.4673772005
 10
329.3705292134
 20
149.7767953387
 10
330.7755022744
 20
151.1469560873
 10
332.1576842841
 20
152.5751772921
 10
333.5143695562
 20
154.0586631432
 10
334.8429023157
 20
155.5945096474
 10
336.1406818973
 20
157.1797103129
 10
337.4051678365
 20
158.811162035
 10
338.6338848427
 20
160.4856711704
 10
339.8244276447
 20
162.1999597888
 10
340.974465699
 20
163.9506720897
 10
342.081747752
 20
165.7343809716
 10
343.1441062473
 20
167.5475947406
 10
344.1594615682
 20
169.3867639455
 10
345.1258261089
 20
171.2482883264
 10
346.0413081654
 20
173.1285238618
 10
346.9041156387
 20
175.0237899023
 10
347.7125595426
 20
176.9303763756
 10
348.4650573102
 20
178.8445510493
 10
349.1601358918
 20
180.7625668365
 10
349.7964346384
 20
182.6806691312
 10
350.3727079654
 20
184.5951031582
 10
350.8878277905
 20
186.5021213228
 10
351.3407857427
 20
188.3979905475
 10
351.7306951354
 20
190.2789995793
 10
352.0567927027
 20
192.1414662546
 10
352.3184400933
 20
193.9817447075
 10
352.5151251201
 20
195.7962325065
 10
352.6464627629
 20
197.5813777064
 10
352.7121959222
 20
199.3336858018
 10
352.7121959222
 20
201.0497265673
 10
352.6464627629
 20
202.7261407724
 10
352.5151251201
 20
204.3596467576
 10
352.3184400933
 20
205.9470468583
 10
352.0567927027
 20
207.4852336643
 10
351.7306951354
 20
208.9711961025
 10
351.3407857427
 20
210.4020253318
 10
350.8878277905
 20
211.7749204368
 10
350.3727079654
 20
213.0871939108
 10
349.7964346384
 20
214.3362769168
 10
349.1601358918
 20
215.5197243163
 10
348.4650573102
 20
216.6352194553
 10
347.7125595426
 20
217.6805786998
 10
346.9041156387
 20
218.6537557099
 10
346.0413081654
 20
219.5528454459
 10
345.1258261089
 20
220.3760878975
 10
344.1594615682
 20
221.1218715289
 10
343.1441062473
 20
221.7887364336
 10
342.081747752
 20
222.3753771923
 10
340.974465699
 20
222.880645428
 10
339.8244276447
 20
223.3035520546
 10
338.6338848427
 20
223.6432692125
 10
337.4051678365
 20
223.8991318893
 10
336.1406818973
 20
224.0706392218
 10
334.8429023157
 20
224.1574554764
 10
333.5143695562
 20
224.1594107062
 10
332.1576842841
 20
224.0765010837
 10
330.7755022744
 20
223.9088889084
 10
329.3705292133
 20
223.6569022891
 10
327.9455154017
 20
223.3210345013
 10
326.503250371
 20
222.9019430221
 10
325.0465574226
 20
222.4004482426
 10
323.5782881015
 20
221.8175318625
 10
322.1013166138
 20
221.1543349679
 10
320.6185342005
 20
220.412155798
 10
319.1328434779
 20
219.5924472032
 10
317.6471527552
 20
218.6968138017
 10
316.1643703419
 20
217.7270088379
 10
314.6873988542
 20
216.6849307505
 10
313.2191295331
 20
215.5726194564
 10
311.7624365847
 20
214.3922523571
 10
310.320171554
 20
213.1461400767
 10
308.8951577424
 20
211.8367219385
 10
307.4901846813
 20
210.46656119
 10
306.1080026716
 20
209.0383399851
 10
304.7513173995
 20
207.554854134
 10
303.42278464
 20
206.0190076299
 10
302.1250050584
 20
204.4338069644
 10
300.8605191192
 20
202.8023552422
 10
299.631802113
 20
201.1278461068
 10
298.441259311
 20
199.4135574884
 10
297.2912212568
 20
197.6628451875
 10
296.1839392037
 20
195.8791363056
 10
295.1215807084
 20
194.0659225367
 10
294.1062253875
 20
192.2267533317
 10
293.1398608468
 20
190.3652289508
 10
292.2243787903
 20
188.4849934155
 10
291.361571317
 20
186.589727375
 10
290.5531274131
 20
184.6831409016
 10
289.8006296455
 20
182.7689662279
 10
289.1055510639
 20
180.8509504407
 10
288.4692523173
 20
178.932848146
 10
287.8929789903
 20
177.018414119
 10
287.3778591652
 20
175.1113959544
 10
286.924901213
 20
173.2155267297
 10
286.5349918203
 20
171.3345176979
 10
286.208894253
 20
169.4720510226
 10
285.9472468624
 20
167.6317725697
 10
285.7505618356
 20
165.8172847707
 10
285.6192241928
 20
164.0321395708
 10
285.5534910335
 20
162.2798314754
 10
285.5534910335
 20
160.56379071
 10
285.6192241928
 20
158.8873765048
 10
285.7505618356
 20
157.2538705196
 10
285.9472468624
 20
155.6664704189
 10
286.208894253
 20
154.128283613
 10
286.5349918203
 20
152.6423211747
 10
286.924901213
 20
151.2114919454
 10
287.3778591652
 20
149.8385968404
 10
287.8929789903
 20
148.5263233665
 10
288.4692523173
 20
147.2772403604
 10
289.1055510639
 20
146.093792961
 10
289.8006296455
 20
144.9782978219
 10
290.5531274131
 20
143.9329385775
 10
291.361571317
 20
142.9597615674
 10
292.2243787903
 20
142.0606718313
 10
293.1398608468
 20
141.2374293797
 10
294.1062253875
 20
140.4916457483
 10
295.1215807084
 20
139.8247808436
 10
296.1839392037
 20
139.238140085
 10
297.2912212568
 20
138.7328718492
 10
298.441259311
 20
138.3099652226
 10
299.631802113
 20
137.9702480648
 10
300.8605191192
 20
137.714385388
 10
302.1250050584
 20
137.5428780555
 10
303.42278464
 20
137.4560618008
 10
304.7513173995
 20
137.4541065711
 10
306.1080026716
 20
137.5370161935
 10
307.4901846813
 20
137.7046283688
 10
308.8951577424
 20
137.9566149881
 10
310.320171554
 20
138.2924827759
 10
311.7624365847
 20
138.7115742551
 10
313.2191295331
 20
139.2130690346
 10
314.6873988542
 20
139.7959854147
 10
316.1643703419
 20
140.4591823093
 10
317.6471527552
 20
141.2013614793
 10
319.1328434779
 20
142.021070074
  0
LWPOLYLINE
  5
16B
330
1F
100
AcDbEntity
  8
0
  6
Continuous
 62
     7
370
    15
100
AcDbPolyline
 90
       43
 70
   128
 43
0.0
 10
295.7983196987
 20
163.865726343
 10
296.2462220864
 20
164.1630552541
 10
296.6841190748
 20
164.5312630615
 10
297.1022287689
 20
164.9621246112
 10
297.4912112891
 20
165.4460151683
 10
297.8423774085
 20
165.9721254173
 10
298.1478826564
 20
166.5287029245
 10
298.4009025504
 20
167.1033146683
 10
298.5957850441
 20
167.6831247717
 10
298.7281767847
 20
168.2551812351
 10
298.7951203593
 20
168.8067052625
 10
298.7951203593
 20
169.3253767185
 10
298.7281767847
 20
169.7996093397
 10
298.5957850441
 20
170.2188095532
 10
298.4009025504
 20
170.5736131188
 10
298.1478826564
 20
170.8560943111
 10
297.8423774085
 20
171.0599429672
 10
297.4912112891
 20
171.1806054448
 10
297.1022287689
 20
171.2153863437
 10
296.6841190748
 20
171.163508716
 10
296.2462220864
 20
171.0261314222
 10
295.7983196987
 20
170.8063232441
 10
295.350417311
 20
170.508994333
 10
294.9125203226
 20
170.1407865256
 10
294.4944106284
 20
169.7099249758
 10
294.1054281083
 20
169.2260344188
 10
293.7542619889
 20
168.6999241698
 10
293.448756741
 20
168.1433466626
 10
293.195736847
 20
167.5687349188
 10
293.0008543533
 20
166.9889248154
 10
292.8684626127
 20
166.416868352
 10
292.801519038
 20
165.8653443246
 10
292.801519038
 20
165.3466728686
 10
292.8684626127
 20
164.8724402473
 10
293.0008543533
 20
164.4532400339
 10
293.195736847
 20
164.0984364683
 10
293.448756741
 20
163.815955276
 10
293.7542619889
 20
163.6121066199
 10
294.1054281083
 20
163.4914441422
 10
294.4944106284
 20
163.4566632434
 10
294.9125203226
 20
163.5085408711
 10
295.350417311
 20
163.6459181649
 10
295.7983196987
 20
163.865726343
  0
LWPOLYLINE
  5
16C
330
1F
100
AcDbEntity
  8
0
  6
Continuous
 62
     7
370
    15
100
AcDbPolyline
 90
       43
 70
   128
 43
0.0
 10
328.1975225157
 20
211.110623535
 10
328.002640022
 20
210.5308134316
 10
327.8702482815
 20
209.9587569681
 10
327.8033047068
 20
209.4072329407
 10
327.8033047068
 20
208.8885614848
 10
327.8702482815
 20
208.4143288635
 10
328.002640022
 20
207.99512865
 10
328.1975225157
 20
207.6403250845
 10
328.4505424097
 20
207.3578438921
 10
328.7560476576
 20
207.1539952361
 10
329.107213777
 20
207.0333327584
 10
329.4961962972
 20
206.9985518595
 10
329.9143059913
 20
207.0504294872
 10
330.3522029798
 20
207.187806781
 10
330.8001053674
 20
207.4076149592
 10
331.2480077551
 20
207.7049438702
 10
331.6859047435
 20
208.0731516776
 10
332.1040144377
 20
208.5040132274
 10
332.4929969578
 20
208.9879037845
 10
332.8441630773
 20
209.5140140334
 10
333.1496683252
 20
210.0705915407
 10
333.4026882191
 20
210.6452032844
 10
333.5975707128
 20
211.2250133878
 10
333.7299624534
 20
211.7970698513
 10
333.7969060281
 20
212.3485938787
 10
333.7969060281
 20
212.8672653346
 10
333.7299624534
 20
213.3414979559
 10
333.5975707128
 20
213.7606981694
 10
333.4026882191
 20
214.1155017349
 10
333.1496683252
 20
214.3979829273
 10
332.8441630773
 20
214.6018315833
 10
332.4929969578
 20
214.722494061
 10
332.1040144377
 20
214.7572749599
 10
331.6859047435
 20
214.7053973322
 10
331.2480077551
 20
214.5680200384
 10
330.8001053674
 20
214.3482118602
 10
330.3522029798
 20
214.0508829492
 10
329.9143059913
 20
213.6826751418
 10
329.4961962972
 20
213.251813592
 10
329.107213777
 20
212.7679230349
 10
328.7560476576
 20
212.241812786
 10
328.4505424097
 20
211.6852352787
 10
328.1975225157
 20
211.110623535
  0
LWPOLYLINE
  5
16D
330
1F
100
AcDbEntity
  8
0
  6
Continuous
 62
     7
370
    15
100
AcDbPolyline
 90
       43
 70
   128
 43
0.0
 10
333.4026882191
 20
167.4439260378
 10
333.1496683252
 20
167.7264072302
 10
332.8441630773
 20
167.9302558862
 10
332.4929969578
 20
168.0509183639
 10
332.1040144377
 20
168.0856992628
 10
331.6859047435
 20
168.0338216351
 10
331.2480077551
 20
167.8964443413
 10
330.8001053674
 20
167.6766361631
 10
330.3522029798
 20
167.3793072521
 10
329.9143059913
 20
167.0110994447
 10
329.4961962972
 20
166.5802378949
 10
329.107213777
 20
166.0963473378
 10
328.7560476576
 20
165.5702370889
 10
328.4505424097
 20
165.0136595816
 10
328.1975225157
 20
164.4390478379
 10
328.002640022
 20
163.8592377345
 10
327.8702482815
 20
163.287181271
 10
327.8033047068
 20
162.7356572436
 10
327.8033047068
 20
162.2169857877
 10
327.8702482815
 20
161.7427531664
 10
328.002640022
 20
161.3235529529
 10
328.1975225157
 20
160.9687493874
 10
328.4505424097
 20
160.686268195
 10
328.7560476576
 20
160.482419539
 10
329.107213777
 20
160.3617570613
 10
329.4961962972
 20
160.3269761624
 10
329.9143059913
 20
160.3788537901
 10
330.3522029798
 20
160.5162310839
 10
330.8001053674
 20
160.7360392621
 10
331.2480077551
 20
161.0333681731
 10
331.6859047435
 20
161.4015759805
 10
332.1040144377
 20
161.8324375303
 10
332.4929969578
 20
162.3163280874
 10
332.8441630773
 20
162.8424383363
 10
333.1496683252
 20
163.3990158436
 10
333.4026882191
 20
163.9736275873
 10
333.5975707128
 20
164.5534376907
 10
333.7299624534
 20
165.1254941542
 10
333.7969060281
 20
165.6770181816
 10
333.7969060281
 20
166.1956896375
 10
333.7299624534
 20
166.6699222588
 10
333.5975707128
 20
167.0891224722
 10
333.4026882191
 20
167.4439260378
  0
LWPOLYLINE
  5
16E
330
1F
100
AcDbEntity
  8
0
  6
Continuous
 62
     7
370
    15
100
AcDbPolyline
 90
       33
 70
   128
 43
0.0
 10
300.6487309783
 20
143.372640144
 10
300.9936052024
 20
143.6109558026
 10
301.3252261035
 20
143.9185611379
 10
301.6308496763
 20
144.2836350492
 10
301.8987309783
 20
144.6921479508
 10
302.1185754814
 20
145.1284009212
 10
302.2819346844
 20
145.5756290032
 10
302.382530785
 20
146.0166454725
 10
302.4164979313
 20
146.4345023135
 10
302.382530785
 20
146.8131415221
 10
302.2819346844
 20
147.138012206
 10
302.1185754814
 20
147.3966297668
 10
301.8987309783
 20
147.5790556768
 10
301.6308496763
 20
147.6782794106
 10
301.3252261035
 20
147.6904878557
 10
300.9936052024
 20
147.6152118484
 10
300.6487309783
 20
147.4553442034
 10
300.3038567542
 20
147.2170285448
 10
299.9722358531
 20
146.9094232096
 10
299.6666122803
 20
146.5443492983
 10
299.3987309783
 20
146.1358363966
 10
299.1788864753
 20
145.6995834263
 10
299.0155272722
 20
145.2523553443
 10
298.9149311717
 20
144.811338875
 10
298.8809640254
 20
144.3934820339
 10
298.9149311717
 20
144.0148428253
 10
299.0155272722
 20
143.6899721415
 10
299.1788864753
 20
143.4313545806
 10
299.3987309783
 20
143.2489286706
 10
299.6666122803
 20
143.1497049368
 10
299.9722358531
 20
143.1374964918
 10
300.3038567542
 20
143.2127724991
 10
300.6487309783
 20
143.372640144
  0
LWPOLYLINE
  5
16F
330
1F
100
AcDbEntity
  8
0
  6
Continuous
 62
     7
370
    15
100
AcDbPolyline
 90
       33
 70
   128
 43
0.0
 10
309.8343175138
 20
142.5513102901
 10
310.1791917379
 20
142.7896259487
 10
310.5108126389
 20
143.0972312839
 10
310.8164362117
 20
143.4623051952
 10
311.0843175138
 20
143.8708180969
 10
311.3041620168
 20
144.3070710672
 10
311.4675212199
 20
144.7542991493
 10
311.5681173204
 20
145.1953156186
 10
311.6020844667
 20
145.6131724596
 10
311.5681173204
 20
145.9918116682
 10
311.4675212199
 20
146.316682352
 10
311.3041620168
 20
146.5752999129
 10
311.0843175138
 20
146.7577258229
 10
310.8164362117
 20
146.8569495567
 10
310.5108126389
 20
146.8691580017
 10
310.1791917379
 20
146.7938819944
 10
309.8343175138
 20
146.6340143495
 10
309.4894432897
 20
146.3956986909
 10
309.1578223886
 20
146.0880933556
 10
308.8521988158
 20
145.7230194443
 10
308.5843175138
 20
145.3145065427
 10
308.3644730107
 20
144.8782535723
 10
308.2011138077
 20
144.4310254903
 10
308.1005177071
 20
143.990009021
 10
308.0665505608
 20
143.57215218
 10
308.1005177071
 20
143.1935129714
 10
308.2011138077
 20
142.8686422875
 10
308.3644730107
 20
142.6100247267
 10
308.5843175138
 20
142.4275988167
 10
308.8521988158
 20
142.3283750829
 10
309.1578223886
 20
142.3161666378
 10
309.4894432897
 20
142.3914426451
 10
309.8343175138
 20
142.5513102901
  0
LWPOLYLINE
  5
170
330
1F
100
AcDbEntity
  8
0
  6
Continuous
 62
     7
370
    15
100
AcDbPolyline
 90
       33
 70
   128
 43
0.0
 10
309.8343175138
 20
204.2436533686
 10
310.1791917379
 20
204.4819690272
 10
310.5108126389
 20
204.7895743624
 10
310.8164362117
 20
205.1546482737
 10
311.0843175138
 20
205.5631611754
 10
311.3041620168
 20
205.9994141457
 10
311.4675212199
 20
206.4466422277
 10
311.5681173204
 20
206.8876586971
 10
311.6020844667
 20
207.3055155381
 10
311.5681173204
 20
207.6841547467
 10
311.4675212199
 20
208.0090254305
 10
311.3041620168
 20
208.2676429914
 10
311.0843175138
 20
208.4500689014
 10
310.8164362117
 20
208.5492926352
 10
310.5108126389
 20
208.5615010802
 10
310.1791917379
 20
208.4862250729
 10
309.8343175138
 20
208.326357428
 10
309.4894432897
 20
208.0880417694
 10
309.1578223886
 20
207.7804364341
 10
308.8521988158
 20
207.4153625228
 10
308.5843175138
 20
207.0068496212
 10
308.3644730107
 20
206.5705966508
 10
308.2011138077
 20
206.1233685688
 10
308.1005177071
 20
205.6823520995
 10
308.0665505608
 20
205.2644952585
 10
308.1005177071
 20
204.8858560499
 10
308.2011138077
 20
204.560985366
 10
308.3644730107
 20
204.3023678052
 10
308.5843175138
 20
204.1199418952
 10
308.8521988158
 20
204.0207181614
 10
309.1578223886
 20
204.0085097163
 10
309.4894432897
 20
204.0837857236
 10
309.8343175138
 20
204.2436533686
  0
LWPOLYLINE
  5
171
330
1F
100
AcDbEntity
  8
0
  6
Continuous
 62
     7
370
    15
100
AcDbPolyline
 90
       33
 70
   128
 43
0.0
 10
300.6487309783
 20
192.8168710442
 10
300.9936052024
 20
193.0551867029
 10
301.3252261035
 20
193.3627920381
 10
301.6308496763
 20
193.7278659494
 10
301.8987309783
 20
194.136378851
 10
302.1185754814
 20
194.5726318214
 10
302.2819346844
 20
195.0198599034
 10
302.382530785
 20
195.4608763727
 10
302.4164979313
 20
195.8787332137
 10
302.382530785
 20
196.2573724224
 10
302.2819346844
 20
196.5822431062
 10
302.1185754814
 20
196.840860667
 10
301.8987309783
 20
197.023286577
 10
301.6308496763
 20
197.1225103108
 10
301.3252261035
 20
197.1347187559
 10
300.9936052024
 20
197.0594427486
 10
300.6487309783
 20
196.8995751036
 10
300.3038567542
 20
196.661259445
 10
299.9722358531
 20
196.3536541098
 10
299.6666122803
 20
195.9885801985
 10
299.3987309783
 20
195.5800672968
 10
299.1788864753
 20
195.1438143265
 10
299.0155272722
 20
194.6965862445
 10
298.9149311717
 20
194.2555697752
 10
298.8809640254
 20
193.8377129342
 10
298.9149311717
 20
193.4590737255
 10
299.0155272722
 20
193.1342030417
 10
299.1788864753
 20
192.8755854808
 10
299.3987309783
 20
192.6931595708
 10
299.6666122803
 20
192.5939358371
 10
299.9722358531
 20
192.581727392
 10
300.3038567542
 20
192.6570033993
 10
300.6487309783
 20
192.8168710442
  0
LWPOLYLINE
  5
172
330
1F
100
AcDbEntity
  8
0
  6
Continuous
 62
     7
370
    15
100
AcDbPolyline
 90
       33
 70
   128
 43
0.0
 10
346.9154819415
 20
188.6799263141
 10
347.2603561656
 20
188.9182419728
 10
347.5919770667
 20
189.225847308
 10
347.8976006395
 20
189.5909212193
 10
348.1654819415
 20
189.9994341209
 10
348.3853264445
 20
190.4356870913
 10
348.5486856476
 20
190.8829151733
 10
348.6492817481
 20
191.3239316426
 10
348.6832488944
 20
191.7417884836
 10
348.6492817481
 20
192.1204276923
 10
348.5486856476
 20
192.4452983761
 10
348.3853264445
 20
192.7039159369
 10
348.1654819415
 20
192.8863418469
 10
347.8976006395
 20
192.9855655807
 10
347.5919770667
 20
192.9977740258
 10
347.2603561656
 20
192.9224980185
 10
346.9154819415
 20
192.7626303735
 10
346.5706077174
 20
192.5243147149
 10
346.2389868163
 20
192.2167093797
 10
345.9333632435
 20
191.8516354684
 10
345.6654819415
 20
191.4431225667
 10
345.4456374384
 20
191.0068695964
 10
345.2822782354
 20
190.5596415144
 10
345.1816821348
 20
190.1186250451
 10
345.1477149885
 20
189.7007682041
 10
345.1816821348
 20
189.3221289954
 10
345.2822782354
 20
188.9972583116
 10
345.4456374384
 20
188.7386407507
 10
345.6654819415
 20
188.5562148407
 10
345.9333632435
 20
188.456991107
 10
346.2389868163
 20
188.4447826619
 10
346.5706077174
 20
188.5200586692
 10
346.9154819415
 20
188.6799263141
  0
LWPOLYLINE
  5
173
330
1F
100
AcDbEntity
  8
0
  6
Continuous
 62
     7
370
    15
100
AcDbPolyline
 90
       33
 70
   128
 43
0.0
 10
346.9154819415
 20
200.9280384924
 10
347.2603561656
 20
201.166354151
 10
347.5919770667
 20
201.4739594863
 10
347.8976006395
 20
201.8390333976
 10
348.1654819415
 20
202.2475462992
 10
348.3853264445
 20
202.6837992696
 10
348.5486856476
 20
203.1310273516
 10
348.6492817481
 20
203.5720438209
 10
348.6832488944
 20
203.9899006619
 10
348.6492817481
 20
204.3685398705
 10
348.5486856476
 20
204.6934105544
 10
348.3853264445
 20
204.9520281152
 10
348.1654819415
 20
205.1344540252
 10
347.8976006395
 20
205.233677759
 10
347.5919770667
 20
205.2458862041
 10
347.2603561656
 20
205.1706101968
 10
346.9154819415
 20
205.0107425518
 10
346.5706077174
 20
204.7724268932
 10
346.2389868163
 20
204.464821558
 10
345.9333632435
 20
204.0997476467
 10
345.6654819415
 20
203.691234745
 10
345.4456374384
 20
203.2549817747
 10
345.2822782354
 20
202.8077536926
 10
345.1816821348
 20
202.3667372233
 10
345.1477149885
 20
201.9488803823
 10
345.1816821348
 20
201.5702411737
 10
345.2822782354
 20
201.2453704899
 10
345.4456374384
 20
200.986752929
 10
345.6654819415
 20
200.804327019
 10
345.9333632435
 20
200.7051032852
 10
346.2389868163
 20
200.6928948402
 10
346.5706077174
 20
200.7681708475
 10
346.9154819415
 20
200.9280384924
  0
LWPOLYLINE
  5
174
330
1F
100
AcDbEntity
  8
0
  6
Continuous
 62
     7
370
    15
100
AcDbPolyline
 90
       55
 70
   128
 43
0.0
 10
321.2541638214
 20
140.7964579063
 10
322.7398545441
 20
141.6920913078
 10
324.2226369573
 20
142.6618962716
 10
325.6996084451
 20
143.703974359
 10
327.1678777662
 20
144.8162856531
 10
328.6245707145
 20
145.9966527524
 10
330.0668357453
 20
147.2427650328
 10
331.4918495569
 20
148.552183171
 10
332.8968226179
 20
149.9223439195
 10
334.2790046276
 20
151.3505651244
 10
335.6356898998
 20
152.8340509755
 10
336.9642226593
 20
154.3698974796
 10
338.2620022409
 20
155.9550981451
 10
339.5264881801
 20
157.5865498673
 10
340.7552051863
 20
159.2610590026
 10
341.9457479882
 20
160.975347621
 10
343.0957860425
 20
162.726059922
 10
344.2030680956
 20
164.5097688039
 10
345.2654265909
 20
166.3229825728
 10
346.2807819117
 20
168.1621517778
 10
347.2471464524
 20
170.0236761587
 10
348.162628509
 20
171.903911694
 10
349.0254359823
 20
173.7991777345
 10
349.8338798862
 20
175.7057642079
 10
350.5863776538
 20
177.6199388816
 10
351.2814562354
 20
179.5379546688
 10
351.917754982
 20
181.4560569635
 10
352.4940283089
 20
183.3704909904
 10
353.0091481341
 20
185.2775091551
 10
353.4621060863
 20
187.1733783798
 10
353.852015479
 20
189.0543874116
 10
354.1781130463
 20
190.9168540869
 10
354.4397604368
 20
192.7571325398
 10
354.6364454636
 20
194.5716203387
 10
354.7677831065
 20
196.3567655387
 10
354.8335162658
 20
198.1090736341
 10
354.8335162658
 20
199.8251143995
 10
354.7677831065
 20
201.5015286046
 10
354.6364454636
 20
203.1350345899
 10
354.4397604368
 20
204.7224346906
 10
354.1781130463
 20
206.2606214965
 10
353.852015479
 20
207.7465839348
 10
353.4621060863
 20
209.1774131641
 10
353.0091481341
 20
210.5503082691
 10
352.4940283089
 20
211.862581743
 10
351.917754982
 20
213.1116647491
 10
351.2814562354
 20
214.2951121485
 10
350.5863776538
 20
215.4106072876
 10
349.8338798862
 20
216.455966532
 10
349.0254359823
 20
217.4291435421
 10
348.162628509
 20
218.3282332782
 10
347.2471464524
 20
219.1514757298
 10
346.2807819117
 20
219.8972593612
 10
345.2654265909
 20
220.5641242659
 10
345.0022337215
 20
220.719467434
  0
LWPOLYLINE
  5
175
330
1F
100
AcDbEntity
  8
0
  6
Continuous
 62
     7
370
    15
100
AcDbPolyline
 90
       19
 70
   128
 43
0.0
 10
297.5060939213
 20
138.4448255078
 10
298.3052595472
 20
138.0135279172
 10
299.4125416003
 20
137.5082596814
 10
300.5625796546
 20
137.0853530548
 10
301.7531224565
 20
136.745635897
 10
302.9818394627
 20
136.4897732202
 10
304.2463254019
 20
136.3182658877
 10
305.5441049835
 20
136.2314496331
 10
306.872637743
 20
136.2294944033
 10
308.2293230152
 20
136.3124040258
 10
309.6115050249
 20
136.480016201
 10
311.0164780859
 20
136.7320028204
 10
312.4414918975
 20
137.0678706082
 10
313.8837569283
 20
137.4869620874
 10
315.3404498766
 20
137.9884568669
 10
316.8087191978
 20
138.571373247
 10
318.2856906855
 20
139.2345701416
 10
319.7684730988
 20
139.9767493115
 10
321.2541638214
 20
140.7964579063
  0
LWPOLYLINE
  5
176
330
1F
100
AcDbEntity
  8
0
  6
Continuous
 62
     7
370
    15
100
AcDbPolyline
 90
       16
 70
   128
 43
0.0
 10
333.7020305155
 20
166.7835417079
 10
333.3693280987
 20
166.6718321735
 10
332.921425711
 20
166.4520239954
 10
332.4735233233
 20
166.1546950843
 10
332.0356263349
 20
165.7864872769
 10
331.6175166407
 20
165.3556257272
 10
331.2285341206
 20
164.8717351701
 10
330.8773680012
 20
164.3456249211
 10
330.5718627532
 20
163.7890474139
 10
330.3188428593
 20
163.2144356701
 10
330.1239603656
 20
162.6346255667
 10
329.991568625
 20
162.0625691033
 10
329.9246250503
 20
161.5110450759
 10
329.9246250503
 20
160.9923736199
 10
329.991568625
 20
160.5181409987
 10
330.019500563
 20
160.4045215496
  0
ARC
  5
177
330
1F
100
AcDbEntity
  8
0
  6
Continuous
 62
     7
370
    15
100
AcDbCircle
 10
351.2837599574
 20
188.1995251222
 30
0.0
 40
4.041912348473893
100
AcDbArc
 50
130.8941980982
 51
169.1111784345
  0
ARC
  5
178
330
1F
100
AcDbEntity
  8
0
  6
Continuous
 62
     7
370
    15
100
AcDbCircle
 10
351.2837599574
 20
200.4476373005
 30
0.0
 40
4.041912348473967
100
AcDbArc
 50
130.8941980982
 51
169.1111784345
  0
ARC
  5
179
330
1F
100
AcDbEntity
  8
0
  6
Continuous
 62
     7
370
    15
100
AcDbCircle
 10
314.2025955297
 20
142.0709090982
 30
0.0
 40
4.041912348473791
100
AcDbArc
 50
130.8941980982
 51
169.1111784345
  0
ARC
  5
17A
330
1F
100
AcDbEntity
  8
0
  6
Continuous
 62
     7
370
    15
100
AcDbCircle
 10
305.0170089943
 20
142.8922389521
 30
0.0
 40
4.04191234847567
100
AcDbArc
 50
130.8941980983
 51
169.1111784344
  0
LWPOLYLINE
  5
17B
330
1F
100
AcDbEntity
  8
0
  6
Continuous
 62
     7
370
    15
100
AcDbPolyline
 90
       16
 70
   128
 43
0.0
 10
322.0347686259
 20
183.3839626339
 10
321.7020662091
 20
183.2722530996
 10
321.2541638214
 20
183.0524449214
 10
320.8062614338
 20
182.7551160103
 10
320.3683644453
 20
182.3869082029
 10
319.9502547512
 20
181.9560466532
 10
319.561272231
 20
181.4721560961
 10
319.2101061116
 20
180.9460458472
 10
318.9046008637
 20
180.3894683399
 10
318.6515809697
 20
179.8148565962
 10
318.456698476
 20
179.2350464928
 10
318.3243067355
 20
178.6629900293
 10
318.2573631608
 20
178.1114660019
 10
318.2573631608
 20
177.5927945459
 10
318.3243067355
 20
177.1185619247
 10
318.3522386734
 20
177.0049424756
  0
ARC
  5
17C
330
1F
100
AcDbEntity
  8
0
  6
Continuous
 62
     7
370
    15
100
AcDbCircle
 10
334.4981142972
 20
208.0198887486
 30
0.0
 40
4.576977537548178
100
AcDbArc
 50
155.9383474923
 51
191.8999945909
  0
ARC
  5
17D
330
1F
100
AcDbEntity
  8
0
  6
Continuous
 62
     7
370
    15
100
AcDbCircle
 10
335.8408942242
 20
208.0396392976
 30
0.0
 40
5.822554516358597
100
AcDbArc
 50
111.5517305553
 51
161.5119491063
  0
LWPOLYLINE
  5
17E
330
1F
100
AcDbEntity
  8
0
  6
Continuous
 62
     7
370
    15
100
AcDbPolyline
 90
       16
 70
   128
 43
0.0
 10
298.7002448467
 20
169.9132287888
 10
298.3675424299
 20
169.8015192545
 10
297.9196400423
 20
169.5817110763
 10
297.4717376546
 20
169.2843821653
 10
297.0338406661
 20
168.9161743579
 10
296.615730972
 20
168.4853128081
 10
296.2267484519
 20
168.001422251
 10
295.8755823324
 20
167.4753120021
 10
295.5700770845
 20
166.9187344948
 10
295.3170571906
 20
166.3441227511
 10
295.1221746969
 20
165.7643126477
 10
294.9897829563
 20
165.1922561842
 10
294.9228393816
 20
164.6407321568
 10
294.9228393816
 20
164.1220607009
 10
294.9897829563
 20
163.6478280796
 10
295.0177148942
 20
163.5342086305
  0
ARC
  5
17F
330
1F
100
AcDbEntity
  8
0
  6
Continuous
 62
     7
370
    15
100
AcDbCircle
 10
314.2025955297
 20
203.7632521767
 30
0.0
 40
4.041912348474064
100
AcDbArc
 50
130.8941980982
 51
169.1111784345
  0
ARC
  5
180
330
1F
100
AcDbEntity
  8
0
  6
Continuous
 62
     7
370
    15
100
AcDbCircle
 10
305.0170089943
 20
192.3364698523
 30
0.0
 40
4.04191234847507
100
AcDbArc
 50
130.8941980982
 51
169.1111784345
  0
ENDSEC
  0
SECTION
  2
OBJECTS
  0
DICTIONARY
  5
C
330
0
100
AcDbDictionary
281
     1
  3
ACAD_GROUP
350
D
  3
ACAD_IMAGE_DICT
350
45
  3
ACAD_LAYOUT
350
1A
  3
ACAD_MLINESTYLE
350
17
  3
ACAD_PLOTSETTINGS
350
19
  3
ACAD_PLOTSTYLENAME
350
E
  0
IMAGEDEF_REACTOR
  5
48
330
47
100
AcDbRasterImageDefReactor
 90
        2
330
47
  0
DICTIONARY
  5
D
102
{ACAD_REACTORS
330
C
102
}
330
C
100
AcDbDictionary
281
     1
  0
DICTIONARY
  5
45
102
{ACAD_REACTORS
330
C
102
}
330
C
100
AcDbDictionary
281
     1
  3
J:\Ingenierie\Projets INNOVANTS\HOWIT\Prototype-2013\Plans\dxfE882.bmp
350
46
  0
DICTIONARY
  5
1A
102
{ACAD_REACTORS
330
C
102
}
330
C
100
AcDbDictionary
281
     1
  3
Layout1
350
1E
  3
Layout2
350
26
  3
Model
350
22
  0
DICTIONARY
  5
17
102
{ACAD_REACTORS
330
C
102
}
330
C
100
AcDbDictionary
281
     1
  3
Standard
350
18
  0
DICTIONARY
  5
19
102
{ACAD_REACTORS
330
C
102
}
330
C
100
AcDbDictionary
281
     1
  0
ACDBDICTIONARYWDFLT
  5
E
102
{ACAD_REACTORS
330
C
102
}
330
C
100
AcDbDictionary
281
     1
  3
Normal
350
F
100
AcDbDictionaryWithDefault
340
F
  0
IMAGEDEF
  5
46
102
{ACAD_REACTORS
330
45
330
48
102
}
330
45
100
AcDbRasterImageDef
 90
        0
  1
J:\Ingenierie\Projets INNOVANTS\HOWIT\Prototype-2013\Plans\dxfE882.bmp
 10
400.0
 20
420.0
 11
0.2645502645502645
 21
0.2645502645502645
280
     1
281
     3
  0
LAYOUT
  5
1E
102
{ACAD_REACTORS
330
1A
102
}
330
1A
100
AcDbPlotSettings
  1

  2
none_device
  4

  6

 40
0.0
 41
0.0
 42
0.0
 43
0.0
 44
0.0
 45
0.0
 46
0.0
 47
0.0
 48
0.0
 49
0.0
140
0.0
141
0.0
142
1.0
143
1.0
 70
   688
 72
     0
 73
     0
 74
     5
  7

 75
    16
147
1.0
148
0.0
149
0.0
100
AcDbLayout
  1
Layout1
 70
     1
 71
     1
 10
0.0
 20
0.0
 11
420.0
 21
297.0
 12
0.0
 22
0.0
 32
0.0
 14
1.0000000000E+20
 24
1.0000000000E+20
 34
1.0000000000E+20
 15
-1.0000000000E+20
 25
-1.0000000000E+20
 35
-1.0000000000E+20
146
0.0
 13
0.0
 23
0.0
 33
0.0
 16
1.0
 26
0.0
 36
0.0
 17
0.0
 27
1.0
 37
0.0
 76
     0
330
1B
  0
LAYOUT
  5
26
102
{ACAD_REACTORS
330
1A
102
}
330
1A
100
AcDbPlotSettings
  1

  2
none_device
  4

  6

 40
0.0
 41
0.0
 42
0.0
 43
0.0
 44
0.0
 45
0.0
 46
0.0
 47
0.0
 48
0.0
 49
0.0
140
0.0
141
0.0
142
1.0
143
1.0
 70
   688
 72
     0
 73
     0
 74
     5
  7

 75
    16
147
1.0
148
0.0
149
0.0
100
AcDbLayout
  1
Layout2
 70
     1
 71
     2
 10
0.0
 20
0.0
 11
0.0
 21
0.0
 12
0.0
 22
0.0
 32
0.0
 14
0.0
 24
0.0
 34
0.0
 15
0.0
 25
0.0
 35
0.0
146
0.0
 13
0.0
 23
0.0
 33
0.0
 16
1.0
 26
0.0
 36
0.0
 17
0.0
 27
1.0
 37
0.0
 76
     0
330
23
  0
LAYOUT
  5
22
102
{ACAD_REACTORS
330
1A
102
}
330
1A
100
AcDbPlotSettings
  1

  2
none_device
  4

  6

 40
0.0
 41
0.0
 42
0.0
 43
0.0
 44
0.0
 45
0.0
 46
0.0
 47
0.0
 48
0.0
 49
0.0
140
0.0
141
0.0
142
1.0
143
1.0
 70
  1712
 72
     0
 73
     0
 74
     0
  7

 75
     0
147
1.0
148
0.0
149
0.0
100
AcDbLayout
  1
Model
 70
     1
 71
     0
 10
0.0
 20
0.0
 11
420.0
 21
297.0
 12
0.0
 22
0.0
 32
0.0
 14
0.0
 24
0.0
 34
0.0
 15
420.0
 25
297.0
 35
0.0
146
0.0
 13
0.0
 23
0.0
 33
0.0
 16
1.0
 26
0.0
 36
0.0
 17
0.0
 27
1.0
 37
0.0
 76
     0
330
1F
331
29
  0
MLINESTYLE
  5
18
102
{ACAD_REACTORS
330
17
102
}
330
17
100
AcDbMlineStyle
  2
Standard
 70
     0
  3

 62
   256
 51
90.0
 52
90.0
 71
     2
 49
0.5
 62
   256
  6
BYLAYER
 49
-0.5
 62
   256
  6
BYLAYER
  0
ACDBPLACEHOLDER
  5
F
102
{ACAD_REACTORS
330
E
102
}
330
E
  0
ENDSEC
  0
EOF
