  0
SECTION
  2
HEADER
  9
$ACADVER
  1
AC1015
  9
$ACADMAINTVER
 70
     6
  9
$DWGCODEPAGE
  3
ANSI_1252
  9
$INSBASE
 10
0.0
 20
0.0
 30
0.0
  9
$EXTMIN
 10
0.0
 20
0.0
 30
0.0
  9
$EXTMAX
 10
420.0
 20
297.0
 30
0.0
  9
$LIMMIN
 10
0.0
 20
0.0
  9
$LIMMAX
 10
420.0
 20
297.0
  9
$ORTHOMODE
 70
     0
  9
$REGENMODE
 70
     1
  9
$FILLMODE
 70
     1
  9
$QTEXTMODE
 70
     0
  9
$MIRRTEXT
 70
     1
  9
$LTSCALE
 40
1.0
  9
$ATTMODE
 70
     1
  9
$TEXTSIZE
 40
3.5
  9
$TRACEWID
 40
1.0
  9
$TEXTSTYLE
  7
Standard
  9
$CLAYER
  8
0
  9
$CELTYPE
  6
ByLayer
  9
$CECOLOR
 62
   256
  9
$CELTSCALE
 40
1.0
  9
$DISPSILH
 70
     0
  9
$DIMSCALE
 40
1.0
  9
$DIMASZ
 40
3.302
  9
$DIMEXO
 40
1.0
  9
$DIMDLI
 40
3.75
  9
$DIMRND
 40
0.0
  9
$DIMDLE
 40
0.0
  9
$DIMEXE
 40
1.0
  9
$DIMTP
 40
0.0
  9
$DIMTM
 40
0.0
  9
$DIMTXT
 40
3.5
  9
$DIMCEN
 40
2.5
  9
$DIMTSZ
 40
0.0
  9
$DIMTOL
 70
     0
  9
$DIMLIM
 70
     0
  9
$DIMTIH
 70
     1
  9
$DIMTOH
 70
     1
  9
$DIMSE1
 70
     0
  9
$DIMSE2
 70
     0
  9
$DIMTAD
 70
     1
  9
$DIMZIN
 70
     0
  9
$DIMBLK
  1

  9
$DIMASO
 70
     1
  9
$DIMSHO
 70
     1
  9
$DIMPOST
  1

  9
$DIMAPOST
  1

  9
$DIMALT
 70
     0
  9
$DIMALTD
 70
     3
  9
$DIMALTF
 40
0.0393700787
  9
$DIMLFAC
 40
5.0
  9
$DIMTOFL
 70
     1
  9
$DIMTVP
 40
0.0
  9
$DIMTIX
 70
     0
  9
$DIMSOXD
 70
     0
  9
$DIMSAH
 70
     0
  9
$DIMBLK1
  1

  9
$DIMBLK2
  1

  9
$DIMSTYLE
  2
ISO-25
  9
$DIMCLRD
 70
     0
  9
$DIMCLRE
 70
     0
  9
$DIMCLRT
 70
     0
  9
$DIMTFAC
 40
1.0
  9
$DIMGAP
 40
1.524
  9
$DIMJUST
 70
     0
  9
$DIMSD1
 70
     0
  9
$DIMSD2
 70
     0
  9
$DIMTOLJ
 70
     0
  9
$DIMTZIN
 70
     0
  9
$DIMALTZ
 70
     0
  9
$DIMALTTZ
 70
     0
  9
$DIMUPT
 70
     0
  9
$DIMDEC
 70
     3
  9
$DIMTDEC
 70
     3
  9
$DIMALTU
 70
     2
  9
$DIMALTTD
 70
     3
  9
$DIMTXSTY
  7
Standard
  9
$DIMAUNIT
 70
     0
  9
$DIMADEC
 70
     2
  9
$DIMALTRND
 40
0.0
  9
$DIMAZIN
 70
     0
  9
$DIMDSEP
 70
    44
  9
$DIMATFIT
 70
     3
  9
$DIMFRAC
 70
     0
  9
$DIMLDRBLK
  1

  9
$DIMLUNIT
 70
     2
  9
$DIMLWD
 70
    -2
  9
$DIMLWE
 70
    -2
  9
$DIMTMOVE
 70
     0
  9
$LUNITS
 70
     2
  9
$LUPREC
 70
     2
  9
$SKETCHINC
 40
1.0
  9
$FILLETRAD
 40
10.0
  9
$AUNITS
 70
     0
  9
$AUPREC
 70
     2
  9
$MENU
  1
.
  9
$ELEVATION
 40
0.0
  9
$PELEVATION
 40
0.0
  9
$THICKNESS
 40
0.0
  9
$LIMCHECK
 70
     0
  9
$CHAMFERA
 40
10.0
  9
$CHAMFERB
 40
10.0
  9
$CHAMFERC
 40
20.0
  9
$CHAMFERD
 40
0.0
  9
$SKPOLY
 70
     0
  9
$TDCREATE
 40
2456790.302606829
  9
$TDUCREATE
 40
2456790.260940162
  9
$TDUPDATE
 40
2456790.30260684
  9
$TDUUPDATE
 40
2456790.260940174
  9
$TDINDWG
 40
0.0000000116
  9
$TDUSRTIMER
 40
0.0000000116
  9
$USRTIMER
 70
     1
  9
$ANGBASE
 50
0.0
  9
$ANGDIR
 70
     0
  9
$PDMODE
 70
     0
  9
$PDSIZE
 40
-1.0
  9
$PLINEWID
 40
0.0
  9
$SPLFRAME
 70
     0
  9
$SPLINETYPE
 70
     6
  9
$SPLINESEGS
 70
     8
  9
$HANDSEED
  5
14A
  9
$SURFTAB1
 70
     6
  9
$SURFTAB2
 70
     6
  9
$SURFTYPE
 70
     6
  9
$SURFU
 70
     6
  9
$SURFV
 70
     6
  9
$UCSBASE
  2

  9
$UCSNAME
  2

  9
$UCSORG
 10
0.0
 20
0.0
 30
0.0
  9
$UCSXDIR
 10
1.0
 20
0.0
 30
0.0
  9
$UCSYDIR
 10
0.0
 20
1.0
 30
0.0
  9
$UCSORTHOREF
  2

  9
$UCSORTHOVIEW
 70
     0
  9
$UCSORGTOP
 10
0.0
 20
0.0
 30
0.0
  9
$UCSORGBOTTOM
 10
0.0
 20
0.0
 30
0.0
  9
$UCSORGLEFT
 10
0.0
 20
0.0
 30
0.0
  9
$UCSORGRIGHT
 10
0.0
 20
0.0
 30
0.0
  9
$UCSORGFRONT
 10
0.0
 20
0.0
 30
0.0
  9
$UCSORGBACK
 10
0.0
 20
0.0
 30
0.0
  9
$PUCSBASE
  2

  9
$PUCSNAME
  2

  9
$PUCSORG
 10
0.0
 20
0.0
 30
0.0
  9
$PUCSXDIR
 10
1.0
 20
0.0
 30
0.0
  9
$PUCSYDIR
 10
0.0
 20
1.0
 30
0.0
  9
$PUCSORTHOREF
  2

  9
$PUCSORTHOVIEW
 70
     0
  9
$PUCSORGTOP
 10
0.0
 20
0.0
 30
0.0
  9
$PUCSORGBOTTOM
 10
0.0
 20
0.0
 30
0.0
  9
$PUCSORGLEFT
 10
0.0
 20
0.0
 30
0.0
  9
$PUCSORGRIGHT
 10
0.0
 20
0.0
 30
0.0
  9
$PUCSORGFRONT
 10
0.0
 20
0.0
 30
0.0
  9
$PUCSORGBACK
 10
0.0
 20
0.0
 30
0.0
  9
$USERI1
 70
     0
  9
$USERI2
 70
     0
  9
$USERI3
 70
     0
  9
$USERI4
 70
     0
  9
$USERI5
 70
     0
  9
$USERR1
 40
0.0
  9
$USERR2
 40
0.0
  9
$USERR3
 40
0.0
  9
$USERR4
 40
0.0
  9
$USERR5
 40
0.0
  9
$WORLDVIEW
 70
     1
  9
$SHADEDGE
 70
     3
  9
$SHADEDIF
 70
    70
  9
$TILEMODE
 70
     1
  9
$MAXACTVP
 70
    64
  9
$PINSBASE
 10
0.0
 20
0.0
 30
0.0
  9
$PLIMCHECK
 70
     0
  9
$PEXTMIN
 10
1.0000000000E+20
 20
1.0000000000E+20
 30
1.0000000000E+20
  9
$PEXTMAX
 10
-1.0000000000E+20
 20
-1.0000000000E+20
 30
-1.0000000000E+20
  9
$PLIMMIN
 10
0.0
 20
0.0
  9
$PLIMMAX
 10
420.0
 20
297.0
  9
$UNITMODE
 70
     0
  9
$VISRETAIN
 70
     1
  9
$PLINEGEN
 70
     0
  9
$PSLTSCALE
 70
     1
  9
$TREEDEPTH
 70
  3020
  9
$CMLSTYLE
  2
Standard
  9
$CMLJUST
 70
     0
  9
$CMLSCALE
 40
20.0
  9
$PROXYGRAPHICS
 70
     1
  9
$MEASUREMENT
 70
     1
  9
$CELWEIGHT
370
    -1
  9
$ENDCAPS
280
     0
  9
$JOINSTYLE
280
     0
  9
$LWDISPLAY
290
     1
  9
$INSUNITS
 70
     4
  9
$HYPERLINKBASE
  1

  9
$STYLESHEET
  1

  9
$XEDIT
290
     1
  9
$CEPSNTYPE
380
     0
  9
$PSTYLEMODE
290
     1
  9
$FINGERPRINTGUID
  2
{97DA2B7D-2D79-4F84-B59A-85AE7330D7D4}
  9
$VERSIONGUID
  2
{FAEB1C32-E019-11D5-929B-00C0DF256EC4}
  9
$EXTNAMES
290
     1
  9
$PSVPSCALE
 40
0.0
  9
$OLESTARTUP
290
     0
  0
ENDSEC
  0
SECTION
  2
CLASSES
  0
CLASS
  1
ACDBDICTIONARYWDFLT
  2
AcDbDictionaryWithDefault
  3
ObjectDBX Classes
 90
        0
280
     0
281
     0
  0
CLASS
  1
VISUALSTYLE
  2
AcDbVisualStyle
  3
ObjectDBX Classes
 90
     4095
280
     0
281
     0
  0
CLASS
  1
MATERIAL
  2
AcDbMaterial
  3
ObjectDBX Classes
 90
     1153
280
     0
281
     0
  0
CLASS
  1
IMAGEDEF
  2
AcDbRasterImageDef
  3
ISM
 90
        0
280
     0
281
     0
  0
CLASS
  1
IMAGE
  2
AcDbRasterImage
  3
ISM
 90
      127
280
     0
281
     1
  0
CLASS
  1
IMAGEDEF_REACTOR
  2
AcDbRasterImageDefReactor
  3
ISM
 90
        1
280
     0
281
     0
  0
CLASS
  1
ACDBPLACEHOLDER
  2
AcDbPlaceHolder
  3
ObjectDBX Classes
 90
        0
280
     0
281
     0
  0
CLASS
  1
LAYOUT
  2
AcDbLayout
  3
ObjectDBX Classes
 90
        0
280
     0
281
     0
  0
ENDSEC
  0
SECTION
  2
TABLES
  0
TABLE
  2
VPORT
  5
8
330
0
100
AcDbSymbolTable
 70
     1
  0
VPORT
  5
29
330
8
100
AcDbSymbolTableRecord
100
AcDbViewportTableRecord
  2
*Active
 70
     0
 10
0.0
 20
0.0
 11
1.0
 21
1.0
 12
210.0
 22
148.5
 13
0.0
 23
0.0
 14
10.0
 24
10.0
 15
10.0
 25
10.0
 16
0.0
 26
0.0
 36
1.0
 17
0.0
 27
0.0
 37
0.0
 40
297.0
 41
1.4141414141
 42
50.0
 43
0.0
 44
0.0
 50
0.0
 51
0.0
 71
     0
 72
  2000
 73
     1
 74
     3
 75
     0
 76
     0
 77
     0
 78
     0
281
     0
 65
     1
110
0.0
120
0.0
130
0.0
111
1.0
121
0.0
131
0.0
112
0.0
122
1.0
132
0.0
 79
     0
146
0.0
  0
ENDTAB
  0
TABLE
  2
LTYPE
  5
5
330
0
100
AcDbSymbolTable
 70
     6
  0
LTYPE
  5
14
330
5
100
AcDbSymbolTableRecord
100
AcDbLinetypeTableRecord
  2
ByBlock
 70
     0
  3

 72
    65
 73
     0
 40
0.0
  0
LTYPE
  5
15
330
5
100
AcDbSymbolTableRecord
100
AcDbLinetypeTableRecord
  2
ByLayer
 70
     0
  3

 72
    65
 73
     0
 40
0.0
  0
LTYPE
  5
16
330
5
100
AcDbSymbolTableRecord
100
AcDbLinetypeTableRecord
  2
Continuous
 70
     0
  3
Solid line
 72
    65
 73
     0
 40
0.0
  0
LTYPE
  5
3F
330
5
100
AcDbSymbolTableRecord
100
AcDbLinetypeTableRecord
  2
HIDDEN
 70
     0
  3
Hidden __ __ __ __ __ __ __ __ __ __ __ __ __ __
 72
    65
 73
     2
 40
1.905
 49
1.27
 74
     0
 49
-0.635
 74
     0
  0
LTYPE
  5
40
330
5
100
AcDbSymbolTableRecord
100
AcDbLinetypeTableRecord
  2
PHANTOM
 70
     0
  3
Phantom ______  __  __  ______  __  __  ______
 72
    65
 73
     6
 40
12.7
 49
6.35
 74
     0
 49
-1.27
 74
     0
 49
1.27
 74
     0
 49
-1.27
 74
     0
 49
1.27
 74
     0
 49
-1.27
 74
     0
  0
LTYPE
  5
41
330
5
100
AcDbSymbolTableRecord
100
AcDbLinetypeTableRecord
  2
CENTER
 70
     0
  3
Center ____ _ ____ _ ____ _ ____ _ ____ _ ____
 72
    65
 73
     4
 40
10.16
 49
6.35
 74
     0
 49
-1.27
 74
     0
 49
1.27
 74
     0
 49
-1.27
 74
     0
  0
LTYPE
  5
42
330
5
100
AcDbSymbolTableRecord
100
AcDbLinetypeTableRecord
  2
CENTERX2
 70
     0
  3
Center (2x) ________  __  ________  __  _____
 72
    65
 73
     4
 40
20.32
 49
12.7
 74
     0
 49
-2.54
 74
     0
 49
2.54
 74
     0
 49
-2.54
 74
     0
  0
LTYPE
  5
43
330
5
100
AcDbSymbolTableRecord
100
AcDbLinetypeTableRecord
  2
DOT2
 70
     0
  3
Dot (.5x) ........................................
 72
    65
 73
     2
 40
0.635
 49
0.0
 74
     0
 49
-0.635
 74
     0
  0
ENDTAB
  0
TABLE
  2
LAYER
  5
2
330
0
100
AcDbSymbolTable
 70
     2
  0
LAYER
  5
10
330
2
100
AcDbSymbolTableRecord
100
AcDbLayerTableRecord
  2
0
 70
     0
 62
     7
  6
Continuous
370
    -3
390
F
  0
LAYER
  5
44
330
2
100
AcDbSymbolTableRecord
100
AcDbLayerTableRecord
  2
FORMAT
 70
     0
 62
     7
  6
Continuous
370
    -3
390
F
  0
ENDTAB
  0
TABLE
  2
STYLE
  5
3
330
0
100
AcDbSymbolTable
 70
     4
  0
STYLE
  5
11
330
3
100
AcDbSymbolTableRecord
100
AcDbTextStyleTableRecord
  2
Standard
 70
     0
 40
0.0
 41
1.0
 50
0.0
 71
     0
 42
2.5
  3
txt
  4

  0
STYLE
  5
6D
330
3
100
AcDbSymbolTableRecord
100
AcDbTextStyleTableRecord
  2
SLDTEXTSTYLE0
 70
     0
 40
0.0
 41
0.75
 50
0.0
 71
     0
 42
0.2
  3
TXT
  4

  0
STYLE
  5
7A
330
3
100
AcDbSymbolTableRecord
100
AcDbTextStyleTableRecord
  2
SLDTEXTSTYLE1
 70
     0
 40
0.0
 41
0.7
 50
0.0
 71
     0
 42
0.2
  3
TXT
  4

  0
STYLE
  5
97
330
3
100
AcDbSymbolTableRecord
100
AcDbTextStyleTableRecord
  2
SLDTEXTSTYLE2
 70
     0
 40
0.0
 41
0.6875
 50
0.0
 71
     0
 42
0.2
  3
TXT
  4

  0
ENDTAB
  0
TABLE
  2
VIEW
  5
6
330
0
100
AcDbSymbolTable
 70
     0
  0
ENDTAB
  0
TABLE
  2
UCS
  5
7
330
0
100
AcDbSymbolTable
 70
     0
  0
ENDTAB
  0
TABLE
  2
APPID
  5
9
330
0
100
AcDbSymbolTable
 70
     1
  0
APPID
  5
12
330
9
100
AcDbSymbolTableRecord
100
AcDbRegAppTableRecord
  2
ACAD
 70
     0
  0
ENDTAB
  0
TABLE
  2
DIMSTYLE
  5
A
330
0
100
AcDbSymbolTable
 70
     6
100
AcDbDimStyleTable
  0
DIMSTYLE
105
27
330
A
100
AcDbSymbolTableRecord
100
AcDbDimStyleTableRecord
  2
ISO-25
 70
     0
 41
2.5
 42
0.625
 43
3.75
 44
1.25
 73
     0
 74
     0
 77
     1
 78
     8
140
2.5
141
2.5
143
0.0393700787
147
0.625
171
     3
172
     1
178
     0
271
     2
272
     2
274
     3
278
    44
283
     0
284
     8
340
11
  0
DIMSTYLE
105
A6
102
{ACAD_REACTORS
330
A5
330
B0
102
}
330
A
100
AcDbSymbolTableRecord
100
AcDbDimStyleTableRecord
  2
SLDDIMSTYLE0
 70
     0
 41
3.302
 44
0.0
 45
0.000000001
 73
     0
 74
     0
 77
     1
 78
    12
 79
     3
140
3.5
144
5.0
147
0.875
173
     1
178
     0
271
     2
272
     2
276
     2
284
    12
340
6D
  0
DIMSTYLE
105
BB
102
{ACAD_REACTORS
330
BA
102
}
330
A
100
AcDbSymbolTableRecord
100
AcDbDimStyleTableRecord
  2
SLDDIMSTYLE1
 70
     0
 41
3.302
 44
0.0
 45
0.000000001
 73
     0
 74
     0
 77
     1
 78
    12
 79
     3
140
3.5
141
0.0
144
5.0
147
0.875
173
     1
178
     0
271
     2
272
     2
276
     2
284
    12
340
6D
  0
DIMSTYLE
105
C4
102
{ACAD_REACTORS
330
C3
102
}
330
A
100
AcDbSymbolTableRecord
100
AcDbDimStyleTableRecord
  2
SLDDIMSTYLE2
 70
     0
 41
3.302
 44
0.0
 45
0.000000001
 73
     0
 74
     0
 77
     1
 78
    12
 79
     3
140
3.5
141
0.0
144
5.0
147
0.875
173
     1
178
     0
271
     2
272
     2
276
     2
279
     1
284
    12
340
6D
  0
DIMSTYLE
105
F0
102
{ACAD_REACTORS
330
EF
330
10A
102
}
330
A
100
AcDbSymbolTableRecord
100
AcDbDimStyleTableRecord
  2
SLDDIMSTYLE3
 70
     0
 41
3.302
 44
0.0
 45
0.000000001
 73
     0
 74
     0
 77
     1
 78
    12
 79
     3
140
3.5
144
5.0
147
0.875
172
     1
173
     1
178
     0
271
     2
272
     2
276
     2
284
    12
289
     0
340
6D
  0
DIMSTYLE
105
FD
102
{ACAD_REACTORS
330
FC
102
}
330
A
100
AcDbSymbolTableRecord
100
AcDbDimStyleTableRecord
  2
SLDDIMSTYLE4
 70
     0
 41
3.302
 44
0.0
 45
0.000000001
 73
     0
 74
     0
 77
     1
 78
    12
 79
     3
140
3.5
141
0.0
144
5.0
147
0.875
172
     1
173
     1
178
     0
271
     2
272
     2
276
     2
284
    12
340
6D
341
FE
343
FE
  0
ENDTAB
  0
TABLE
  2
BLOCK_RECORD
  5
1
330
0
100
AcDbSymbolTable
 70
    17
  0
BLOCK_RECORD
  5
1F
330
1
100
AcDbSymbolTableRecord
100
AcDbBlockTableRecord
  2
*Model_Space
340
22
  0
BLOCK_RECORD
  5
1B
330
1
100
AcDbSymbolTableRecord
100
AcDbBlockTableRecord
  2
*Paper_Space
340
1E
  0
BLOCK_RECORD
  5
23
330
1
100
AcDbSymbolTableRecord
100
AcDbBlockTableRecord
  2
*Paper_Space0
340
26
  0
BLOCK_RECORD
  5
6A
330
1
100
AcDbSymbolTableRecord
100
AcDbBlockTableRecord
  2
SW_NOTE_0
340
0
102
{BLKREFS
331
70
102
}
  0
BLOCK_RECORD
  5
85
330
1
100
AcDbSymbolTableRecord
100
AcDbBlockTableRecord
  2
SW_NOTE_1
340
0
102
{BLKREFS
331
8A
102
}
  0
BLOCK_RECORD
  5
91
330
1
100
AcDbSymbolTableRecord
100
AcDbBlockTableRecord
  2
SW_NOTE_2
340
0
102
{BLKREFS
331
9B
102
}
  0
BLOCK_RECORD
  5
A7
330
1
100
AcDbSymbolTableRecord
100
AcDbBlockTableRecord
  2
*D4
340
0
  0
BLOCK_RECORD
  5
B1
330
1
100
AcDbSymbolTableRecord
100
AcDbBlockTableRecord
  2
*D5
340
0
  0
BLOCK_RECORD
  5
BC
330
1
100
AcDbSymbolTableRecord
100
AcDbBlockTableRecord
  2
*D6
340
0
  0
BLOCK_RECORD
  5
C5
330
1
100
AcDbSymbolTableRecord
100
AcDbBlockTableRecord
  2
*D7
340
0
  0
BLOCK_RECORD
  5
CB
330
1
100
AcDbSymbolTableRecord
100
AcDbBlockTableRecord
  2
SW_CENTERMARKSYMBOL_0
340
0
102
{BLKREFS
331
D6
102
}
  0
BLOCK_RECORD
  5
D7
330
1
100
AcDbSymbolTableRecord
100
AcDbBlockTableRecord
  2
SW_DATUMTAG_0
340
0
102
{BLKREFS
331
E2
102
}
  0
BLOCK_RECORD
  5
F1
330
1
100
AcDbSymbolTableRecord
100
AcDbBlockTableRecord
  2
*D10
340
0
  0
BLOCK_RECORD
  5
FE
330
1
100
AcDbSymbolTableRecord
100
AcDbBlockTableRecord
  2
_NONE
340
0
  0
BLOCK_RECORD
  5
101
330
1
100
AcDbSymbolTableRecord
100
AcDbBlockTableRecord
  2
*D12
340
0
  0
BLOCK_RECORD
  5
10B
330
1
100
AcDbSymbolTableRecord
100
AcDbBlockTableRecord
  2
*D13
340
0
  0
BLOCK_RECORD
  5
115
330
1
100
AcDbSymbolTableRecord
100
AcDbBlockTableRecord
  2
SW_CENTERMARKSYMBOL_1
340
0
102
{BLKREFS
331
120
102
}
  0
BLOCK_RECORD
  5
121
330
1
100
AcDbSymbolTableRecord
100
AcDbBlockTableRecord
  2
SW_DATUMTAG_1
340
0
102
{BLKREFS
331
12C
102
}
  0
BLOCK_RECORD
  5
12D
330
1
100
AcDbSymbolTableRecord
100
AcDbBlockTableRecord
  2
SW_DATUMTAG_2
340
0
102
{BLKREFS
331
138
102
}
  0
ENDTAB
  0
ENDSEC
  0
SECTION
  2
BLOCKS
  0
BLOCK
  5
20
330
1F
100
AcDbEntity
  8
0
100
AcDbBlockBegin
  2
*Model_Space
 70
     0
 10
0.0
 20
0.0
 30
0.0
  3
*Model_Space
  1

  0
ENDBLK
  5
21
330
1F
100
AcDbEntity
  8
0
100
AcDbBlockEnd
  0
BLOCK
  5
1C
330
1B
100
AcDbEntity
 67
     1
  8
0
100
AcDbBlockBegin
  2
*Paper_Space
 70
     0
 10
0.0
 20
0.0
 30
0.0
  3
*Paper_Space
  1

  0
ENDBLK
  5
1D
330
1B
100
AcDbEntity
 67
     1
  8
0
100
AcDbBlockEnd
  0
BLOCK
  5
24
330
23
100
AcDbEntity
  8
0
100
AcDbBlockBegin
  2
*Paper_Space0
 70
     0
 10
0.0
 20
0.0
 30
0.0
  3
*Paper_Space0
  1

  0
ENDBLK
  5
25
330
23
100
AcDbEntity
  8
0
100
AcDbBlockEnd
  0
BLOCK
  5
6B
330
6A
100
AcDbEntity
  8
0
100
AcDbBlockBegin
  2
SW_NOTE_0
 70
     0
 10
0.0
 20
0.0
 30
0.0
  3
SW_NOTE_0
  1

  0
MTEXT
  5
6E
330
6A
100
AcDbEntity
  8
0
  6
Continuous
 62
     0
370
     0
100
AcDbMText
 10
-3.4106583948
 20
0.0
 30
0.0
 40
2.6458333333
 41
0.0
 71
     1
 72
     1
  1
Copyright © 2014 Théophile BRESSON, AeroSeeD SAS, Vincent MAUVADY, David VANTYGHEM, Pascal CORRADINI
  7
SLDTEXTSTYLE0
 11
-3.491481338843133E-15
 21
1.0
 31
0.0
 73
     1
 44
1.0
  0
MTEXT
  5
6F
330
6A
100
AcDbEntity
  8
0
  6
Continuous
 62
     0
370
     0
100
AcDbMText
 10
0.1171193403
 20
0.0
 30
0.0
 40
2.6458333333
 41
0.0
 71
     1
 72
     1
  1
Licensed under TAPR Open Hardware Licence (www.tapr.org/OHL)
  7
SLDTEXTSTYLE0
 11
-3.491481338843133E-15
 21
1.0
 31
0.0
 73
     1
 44
1.0
  0
ENDBLK
  5
6C
330
6A
100
AcDbEntity
  8
0
100
AcDbBlockEnd
  0
BLOCK
  5
86
330
85
100
AcDbEntity
  8
0
100
AcDbBlockBegin
  2
SW_NOTE_1
 70
     0
 10
0.0
 20
0.0
 30
0.0
  3
SW_NOTE_1
  1

  0
MTEXT
  5
88
330
85
100
AcDbEntity
  8
0
  6
Continuous
 62
     0
370
     0
100
AcDbMText
 10
0.0
 20
1.9336016097
 30
0.0
 40
1.5
 41
0.0
 71
     1
 72
     1
  1
CASSER LES
  7
SLDTEXTSTYLE0
 73
     1
 44
1.0
  0
MTEXT
  5
89
330
85
100
AcDbEntity
  8
0
  6
Continuous
 62
     0
370
     0
100
AcDbMText
 10
0.0
 20
-0.5663983345
 30
0.0
 40
1.5
 41
0.0
 71
     1
 72
     1
  1
ANGLES VIFS
  7
SLDTEXTSTYLE0
 73
     1
 44
1.0
  0
ENDBLK
  5
87
330
85
100
AcDbEntity
  8
0
100
AcDbBlockEnd
  0
BLOCK
  5
92
330
91
100
AcDbEntity
  8
0
100
AcDbBlockBegin
  2
SW_NOTE_2
 70
     0
 10
0.0
 20
0.0
 30
0.0
  3
SW_NOTE_2
  1

  0
MTEXT
  5
94
330
91
100
AcDbEntity
  8
0
  6
Continuous
 62
     0
370
     0
100
AcDbMText
 10
0.0
 20
1.9336016097
 30
0.0
 40
1.5
 41
0.0
 71
     1
 72
     1
  1
SAUF INDICATION CONTRAIRE:
  7
SLDTEXTSTYLE0
 73
     1
 44
1.0
  0
MTEXT
  5
95
330
91
100
AcDbEntity
  8
0
  6
Continuous
 62
     0
370
     0
100
AcDbMText
 10
0.0
 20
-0.5663983345
 30
0.0
 40
1.5
 41
0.0
 71
     1
 72
     1
  1
LES COTES SONT EN MILLIMETRES
  7
SLDTEXTSTYLE0
 73
     1
 44
1.0
  0
MTEXT
  5
96
330
91
100
AcDbEntity
  8
0
  6
Continuous
 62
     0
370
     0
100
AcDbMText
 10
0.0
 20
-3.0663982786
 30
0.0
 40
1.5
 41
0.0
 71
     1
 72
     1
  1
ETAT DE SURFACE:
  7
SLDTEXTSTYLE0
 73
     1
 44
1.0
  0
MTEXT
  5
98
330
91
100
AcDbEntity
  8
0
  6
Continuous
 62
     0
370
     0
100
AcDbMText
 10
17.3330735415
 20
-3.0663982786
 30
0.0
 40
1.5
 41
0.0
 71
     1
 72
     1
  1
Ra = 3.2
  7
SLDTEXTSTYLE2
 73
     1
 44
1.0
  0
MTEXT
  5
99
330
91
100
AcDbEntity
  8
0
  6
Continuous
 62
     0
370
     0
100
AcDbMText
 10
0.0
 20
-5.5663982227
 30
0.0
 40
1.5
 41
0.0
 71
     1
 72
     1
  1
TOLERANCES:
  7
SLDTEXTSTYLE0
 73
     1
 44
1.0
  0
MTEXT
  5
9A
330
91
100
AcDbEntity
  8
0
  6
Continuous
 62
     0
370
     0
100
AcDbMText
 10
1.6624999698
 20
-8.0663981668
 30
0.0
 40
1.5
 41
0.0
 71
     1
 72
     1
  1
Iso 2768 mK
  7
SLDTEXTSTYLE0
 73
     1
 44
1.0
  0
ENDBLK
  5
93
330
91
100
AcDbEntity
  8
0
100
AcDbBlockEnd
  0
BLOCK
  5
A8
330
A7
100
AcDbEntity
  8
0
100
AcDbBlockBegin
  2
*D4
 70
     1
 10
0.0
 20
0.0
 30
0.0
  3
*D4
  1

  0
SOLID
  5
AA
330
A7
100
AcDbEntity
  8
0
  6
Continuous
 62
     7
370
     0
100
AcDbTrace
 10
77.4644371595
 20
176.5991786068
 30
0.0
 11
80.7664371595
 21
176.0911786068
 31
0.0
 12
80.7664371595
 22
177.1071786068
 32
0.0
 13
80.7664371595
 23
177.1071786068
 33
0.0
  0
SOLID
  5
AB
330
A7
100
AcDbEntity
  8
0
  6
Continuous
 62
     7
370
     0
100
AcDbTrace
 10
217.4644371595
 20
176.5991786068
 30
0.0
 11
214.1624371595
 21
177.1071786068
 31
0.0
 12
214.1624371595
 22
176.0911786068
 32
0.0
 13
214.1624371595
 23
176.0911786068
 33
0.0
  0
LINE
  5
AC
330
A7
100
AcDbEntity
  8
0
  6
Continuous
 62
     7
370
     0
100
AcDbLine
 10
77.4644371595
 20
211.3308984124
 30
0.0
 11
77.4644371595
 21
175.5991786068
 31
0.0
  0
LINE
  5
AD
330
A7
100
AcDbEntity
  8
0
  6
Continuous
 62
     7
370
     0
100
AcDbLine
 10
217.4644371595
 20
211.3308984124
 30
0.0
 11
217.4644371595
 21
175.5991786068
 31
0.0
  0
LINE
  5
AE
330
A7
100
AcDbEntity
  8
0
  6
Continuous
 62
     7
370
     0
100
AcDbLine
 10
77.4644371595
 20
176.5991786068
 30
0.0
 11
217.4644371595
 21
176.5991786068
 31
0.0
  0
MTEXT
  5
AF
330
A7
100
AcDbEntity
  8
0
  6
Continuous
 62
     7
370
     0
100
AcDbMText
 10
167.8671995827
 20
181.1109155214
 30
-0.18
 40
3.5
 41
0.0
 71
     1
 72
     1
  1
700
  7
SLDTEXTSTYLE0
 73
     1
 44
1.0
  0
ENDBLK
  5
A9
330
A7
100
AcDbEntity
  8
0
100
AcDbBlockEnd
  0
BLOCK
  5
B2
330
B1
100
AcDbEntity
  8
0
100
AcDbBlockBegin
  2
*D5
 70
     1
 10
0.0
 20
0.0
 30
0.0
  3
*D5
  1

  0
SOLID
  5
B4
330
B1
100
AcDbEntity
  8
0
  6
Continuous
 62
     7
370
     0
100
AcDbTrace
 10
68.552562155
 20
192.3308984124
 30
0.0
 11
69.060562155
 21
195.6328984124
 31
0.0
 12
68.044562155
 22
195.6328984124
 32
0.0
 13
68.044562155
 23
195.6328984124
 33
0.0
  0
SOLID
  5
B5
330
B1
100
AcDbEntity
  8
0
  6
Continuous
 62
     7
370
     0
100
AcDbTrace
 10
68.552562155
 20
212.3308984124
 30
0.0
 11
68.044562155
 21
209.0288984124
 31
0.0
 12
69.060562155
 22
209.0288984124
 32
0.0
 13
69.060562155
 23
209.0288984124
 33
0.0
  0
LINE
  5
B6
330
B1
100
AcDbEntity
  8
0
  6
Continuous
 62
     7
370
     0
100
AcDbLine
 10
78.5944371595
 20
192.3308984124
 30
0.0
 11
67.552562155
 21
192.3308984124
 31
0.0
  0
LINE
  5
B7
330
B1
100
AcDbEntity
  8
0
  6
Continuous
 62
     7
370
     0
100
AcDbLine
 10
78.5944371595
 20
212.3308984124
 30
0.0
 11
67.552562155
 21
212.3308984124
 31
0.0
  0
LINE
  5
B8
330
B1
100
AcDbEntity
  8
0
  6
Continuous
 62
     7
370
     0
100
AcDbLine
 10
68.552562155
 20
192.3308984124
 30
0.0
 11
68.552562155
 21
212.3308984124
 31
0.0
  0
MTEXT
  5
B9
330
B1
100
AcDbEntity
  8
0
  6
Continuous
 62
     7
370
     0
100
AcDbMText
 10
64.0408252404
 20
197.6925972364
 30
0.02
 40
3.5
 41
0.0
 71
     1
 72
     1
  1
100
  7
SLDTEXTSTYLE0
 11
6.123233995736766E-17
 21
1.0
 31
0.0
 73
     1
 44
1.0
  0
ENDBLK
  5
B3
330
B1
100
AcDbEntity
  8
0
100
AcDbBlockEnd
  0
BLOCK
  5
BD
330
BC
100
AcDbEntity
  8
0
100
AcDbBlockBegin
  2
*D6
 70
     1
 10
0.0
 20
0.0
 30
0.0
  3
*D6
  1

  0
SOLID
  5
BF
330
BC
100
AcDbEntity
  8
0
  6
Continuous
 62
     7
370
     0
100
AcDbTrace
 10
236.7005230649
 20
246.9694816547
 30
0.0
 11
239.001582041
 21
249.3915459785
 31
0.0
 12
238.1671553552
 22
249.9711907887
 32
0.0
 13
238.1671553552
 23
249.9711907887
 33
0.0
  0
LINE
  5
C0
330
BC
100
AcDbEntity
  8
0
  6
Continuous
 62
     7
370
     0
100
AcDbLine
 10
236.7005230649
 20
246.9694816547
 30
0.0
 11
245.6366973623
 21
259.8335359363
 31
0.0
  0
LINE
  5
C1
330
BC
100
AcDbEntity
  8
0
  6
Continuous
 62
     7
370
     0
100
AcDbLine
 10
236.7005230649
 20
246.9694816547
 30
0.0
 11
219.5850267001
 21
222.3308984124
 31
0.0
  0
MTEXT
  5
C2
330
BC
100
AcDbEntity
  8
0
  6
Continuous
 62
     7
370
     0
100
AcDbMText
 10
234.2715000254
 20
251.3686667987
 30
-0.22
 40
3.5
 41
0.0
 71
     1
 72
     1
  1
R150
  7
SLDTEXTSTYLE0
 11
0.5705165454925912
 21
0.8212861080763513
 31
0.0
 73
     1
 44
1.0
  0
ENDBLK
  5
BE
330
BC
100
AcDbEntity
  8
0
100
AcDbBlockEnd
  0
BLOCK
  5
C6
330
C5
100
AcDbEntity
  8
0
100
AcDbBlockBegin
  2
*D7
 70
     1
 10
0.0
 20
0.0
 30
0.0
  3
*D7
  1

  0
SOLID
  5
C8
330
C5
100
AcDbEntity
  8
0
  6
Continuous
 62
     7
370
     0
100
AcDbTrace
 10
186.656094512
 20
215.2598306005
 30
0.0
 11
184.6801629983
 21
217.9537056261
 31
0.0
 12
183.961815893
 22
217.2352117595
 32
0.0
 13
183.961815893
 23
217.2352117595
 33
0.0
  0
LINE
  5
C9
330
C5
100
AcDbEntity
  8
0
  6
Continuous
 62
     7
370
     0
100
AcDbLine
 10
186.656094512
 20
215.2598306005
 30
0.0
 11
145.7397622093
 21
256.1678052371
 31
0.0
  0
MTEXT
  5
CA
330
C5
100
AcDbEntity
  8
0
  6
Continuous
 62
     7
370
     0
100
AcDbMText
 10
148.9300419765
 20
259.3580850043
 30
0.02
 40
3.5
 41
0.0
 71
     1
 72
     1
  1
R50
  7
SLDTEXTSTYLE0
 11
0.7071067811865457
 21
-0.7071067811865493
 31
0.0
 73
     1
 44
1.0
  0
ENDBLK
  5
C7
330
C5
100
AcDbEntity
  8
0
100
AcDbBlockEnd
  0
BLOCK
  5
CC
330
CB
100
AcDbEntity
  8
0
100
AcDbBlockBegin
  2
SW_CENTERMARKSYMBOL_0
 70
     0
 10
0.0
 20
0.0
 30
0.0
  3
SW_CENTERMARKSYMBOL_0
  1

  0
LINE
  5
CE
330
CB
100
AcDbEntity
  8
0
  6
Continuous
 62
     0
370
     0
100
AcDbLine
 10
0.0
 20
0.0
 30
0.0
 11
0.0
 21
0.5
 31
0.0
  0
LINE
  5
CF
330
CB
100
AcDbEntity
  8
0
  6
Continuous
 62
     0
370
     0
100
AcDbLine
 10
0.0
 20
0.0
 30
0.0
 11
-0.5
 21
0.0
 31
0.0
  0
LINE
  5
D0
330
CB
100
AcDbEntity
  8
0
  6
Continuous
 62
     0
370
     0
100
AcDbLine
 10
0.0
 20
0.0
 30
0.0
 11
0.0
 21
-0.5
 31
0.0
  0
LINE
  5
D1
330
CB
100
AcDbEntity
  8
0
  6
Continuous
 62
     0
370
     0
100
AcDbLine
 10
0.0
 20
0.0
 30
0.0
 11
0.5
 21
0.0
 31
0.0
  0
LINE
  5
D2
330
CB
100
AcDbEntity
  8
0
  6
Continuous
 62
     0
370
     0
100
AcDbLine
 10
0.0
 20
0.5
 30
0.0
 11
0.0
 21
0.9
 31
0.0
  0
LINE
  5
D3
330
CB
100
AcDbEntity
  8
0
  6
Continuous
 62
     0
370
     0
100
AcDbLine
 10
-0.5
 20
0.0
 30
0.0
 11
-0.9
 21
0.0
 31
0.0
  0
LINE
  5
D4
330
CB
100
AcDbEntity
  8
0
  6
Continuous
 62
     0
370
     0
100
AcDbLine
 10
0.0
 20
-0.5
 30
0.0
 11
0.0
 21
-0.9
 31
0.0
  0
LINE
  5
D5
330
CB
100
AcDbEntity
  8
0
  6
Continuous
 62
     0
370
     0
100
AcDbLine
 10
0.5
 20
0.0
 30
0.0
 11
0.9
 21
0.0
 31
0.0
  0
ENDBLK
  5
CD
330
CB
100
AcDbEntity
  8
0
100
AcDbBlockEnd
  0
BLOCK
  5
D8
330
D7
100
AcDbEntity
  8
0
100
AcDbBlockBegin
  2
SW_DATUMTAG_0
 70
     0
 10
0.0
 20
0.0
 30
0.0
  3
SW_DATUMTAG_0
  1

  0
LINE
  5
DA
330
D7
100
AcDbEntity
  8
0
  6
Continuous
 62
     0
370
     0
100
AcDbLine
 10
1.8958334113
 20
29.3370465528
 30
0.0
 11
1.8958334113
 21
6.2781251702
 31
0.0
  0
LINE
  5
DB
330
D7
100
AcDbEntity
  8
0
  6
Continuous
 62
     0
370
     0
100
AcDbLine
 10
42.9249260455
 20
29.3370465528
 30
0.0
 11
-0.5041665887
 21
29.3370465528
 31
0.0
  0
LINE
  5
DC
330
D7
100
AcDbEntity
  8
0
  6
Continuous
 62
     0
370
     0
100
AcDbLine
 10
5.3958334113
 20
-0.7218748298
 30
0.0
 11
-1.6041665887
 21
-0.7218748298
 31
0.0
  0
LINE
  5
DD
330
D7
100
AcDbEntity
  8
0
  6
Continuous
 62
     0
370
     0
100
AcDbLine
 10
-1.6041665887
 20
-0.7218748298
 30
0.0
 11
-1.6041665887
 21
6.2781251702
 31
0.0
  0
LINE
  5
DE
330
D7
100
AcDbEntity
  8
0
  6
Continuous
 62
     0
370
     0
100
AcDbLine
 10
-1.6041665887
 20
6.2781251702
 30
0.0
 11
5.3958334113
 21
6.2781251702
 31
0.0
  0
LINE
  5
DF
330
D7
100
AcDbEntity
  8
0
  6
Continuous
 62
     0
370
     0
100
AcDbLine
 10
5.3958334113
 20
6.2781251702
 30
0.0
 11
5.3958334113
 21
-0.7218748298
 31
0.0
  0
MTEXT
  5
E0
330
D7
100
AcDbEntity
  8
0
  6
Continuous
 62
     0
370
     0
100
AcDbMText
 10
0.0
 20
4.5117370892
 30
0.2
 40
3.5
 41
0.0
 71
     1
 72
     1
  1
C
  7
SLDTEXTSTYLE0
 73
     1
 44
1.0
  0
SOLID
  5
E1
330
D7
100
AcDbEntity
  8
0
  6
Continuous
 62
     0
370
     0
100
AcDbTrace
 10
3.2958334113
 20
29.3370465528
 30
0.0
 11
0.4958334113
 21
29.3370465528
 31
0.0
 12
1.8958334113
 22
26.8870465528
 32
0.0
 13
1.8958334113
 23
26.8870465528
 33
0.0
  0
ENDBLK
  5
D9
330
D7
100
AcDbEntity
  8
0
100
AcDbBlockEnd
  0
BLOCK
  5
F2
330
F1
100
AcDbEntity
  8
0
100
AcDbBlockBegin
  2
*D10
 70
     1
 10
0.0
 20
0.0
 30
0.0
  3
*D10
  1

  0
SOLID
  5
F4
330
F1
100
AcDbEntity
  8
0
  6
Continuous
 62
     7
370
     0
100
AcDbTrace
 10
221.9508996753
 20
107.6377372263
 30
0.0
 11
221.4428996753
 21
104.3357372263
 31
0.0
 12
222.4588996753
 22
104.3357372263
 32
0.0
 13
222.4588996753
 23
104.3357372263
 33
0.0
  0
SOLID
  5
F5
330
F1
100
AcDbEntity
  8
0
  6
Continuous
 62
     7
370
     0
100
AcDbTrace
 10
221.9508996753
 20
108.0377372263
 30
0.0
 11
222.4588996753
 21
111.3397372263
 31
0.0
 12
221.4428996753
 22
111.3397372263
 32
0.0
 13
221.4428996753
 23
111.3397372263
 33
0.0
  0
LINE
  5
F6
330
F1
100
AcDbEntity
  8
0
  6
Continuous
 62
     7
370
     0
100
AcDbLine
 10
78.4644371595
 20
107.6377372263
 30
0.0
 11
222.9508996753
 21
107.6377372263
 31
0.0
  0
LINE
  5
F7
330
F1
100
AcDbEntity
  8
0
  6
Continuous
 62
     7
370
     0
100
AcDbLine
 10
78.4644371595
 20
108.0377372263
 30
0.0
 11
222.9508996753
 21
108.0377372263
 31
0.0
  0
LINE
  5
F8
330
F1
100
AcDbEntity
  8
0
  6
Continuous
 62
     7
370
     0
100
AcDbLine
 10
221.9508996753
 20
107.6377372263
 30
0.0
 11
221.9508996753
 21
101.2877372263
 31
0.0
  0
LINE
  5
F9
330
F1
100
AcDbEntity
  8
0
  6
Continuous
 62
     7
370
     0
100
AcDbLine
 10
221.9508996753
 20
107.6377372263
 30
0.0
 11
221.9508996753
 21
108.0377372263
 31
0.0
  0
LINE
  5
FA
330
F1
100
AcDbEntity
  8
0
  6
Continuous
 62
     7
370
     0
100
AcDbLine
 10
221.9508996753
 20
108.0377372263
 30
0.0
 11
221.9508996753
 21
128.2726677942
 31
0.0
  0
MTEXT
  5
FB
330
F1
100
AcDbEntity
  8
0
  6
Continuous
 62
     7
370
     0
100
AcDbMText
 10
217.4391627607
 20
122.8428066584
 30
-10.0199775
 40
3.5
 41
0.0
 71
     1
 72
     1
  1
2
  7
SLDTEXTSTYLE0
 11
6.123233995736766E-17
 21
1.0
 31
0.0
 73
     1
 44
1.0
  0
ENDBLK
  5
F3
330
F1
100
AcDbEntity
  8
0
100
AcDbBlockEnd
  0
BLOCK
  5
FF
330
FE
100
AcDbEntity
  8
0
100
AcDbBlockBegin
  2
_NONE
 70
     0
 10
0.0
 20
0.0
 30
0.0
  3
_NONE
  1

  0
ENDBLK
  5
100
330
FE
100
AcDbEntity
  8
0
100
AcDbBlockEnd
  0
BLOCK
  5
102
330
101
100
AcDbEntity
  8
0
100
AcDbBlockBegin
  2
*D12
 70
     1
 10
0.0
 20
0.0
 30
0.0
  3
*D12
  1

  0
SOLID
  5
104
330
101
100
AcDbEntity
  8
0
  6
Continuous
 62
     7
370
     0
100
AcDbTrace
 10
78.2644371595
 20
109.2233778723
 30
0.0
 11
80.3553780646
 21
111.8289937556
 31
0.0
 12
79.4754962543
 22
112.3369937556
 32
0.0
 13
79.4754962543
 23
112.3369937556
 33
0.0
  0
LINE
  5
105
330
101
100
AcDbEntity
  8
0
  6
Continuous
 62
     7
370
     0
100
AcDbLine
 10
78.2644371595
 20
109.2233778723
 30
0.0
 11
99.9683464025
 21
146.8156514042
 31
0.0
  0
LINE
  5
106
330
101
100
AcDbEntity
  8
0
  6
Continuous
 62
     7
370
     0
100
AcDbLine
 10
78.2644371595
 20
109.2233778723
 30
0.0
 11
76.6644371595
 21
106.4520965802
 31
0.0
  0
MTEXT
  5
107
330
101
100
AcDbEntity
  8
0
  6
Continuous
 62
     7
370
     0
100
AcDbMText
 10
86.0965602942
 20
131.794708993
 30
-29.9799775
 40
3.5
 41
0.0
 71
     1
 72
     1
  1
%%c
  7
SLDTEXTSTYLE0
 11
0.4999999999999984
 21
0.8660254037844396
 31
0.0
 73
     1
 44
1.0
  0
MTEXT
  5
108
330
101
100
AcDbEntity
  8
0
  6
Continuous
 62
     7
370
     0
100
AcDbMText
 10
88.68947073
 20
136.3927059606
 30
-29.9799775
 40
3.5
 41
0.0
 71
     1
 72
     1
  1
int
  7
SLDTEXTSTYLE0
 11
0.4999999999999984
 21
0.8660254037844396
 31
0.0
 73
     1
 44
1.0
  0
MTEXT
  5
109
330
101
100
AcDbEntity
  8
0
  6
Continuous
 62
     7
370
     0
100
AcDbMText
 10
92.0144706696
 20
142.1517747912
 30
-29.9799775
 40
3.5
 41
0.0
 71
     1
 72
     1
  1
16
  7
SLDTEXTSTYLE0
 11
0.4999999999999984
 21
0.8660254037844396
 31
0.0
 73
     1
 44
1.0
  0
ENDBLK
  5
103
330
101
100
AcDbEntity
  8
0
100
AcDbBlockEnd
  0
BLOCK
  5
10C
330
10B
100
AcDbEntity
  8
0
100
AcDbBlockBegin
  2
*D13
 70
     1
 10
0.0
 20
0.0
 30
0.0
  3
*D13
  1

  0
SOLID
  5
10E
330
10B
100
AcDbEntity
  8
0
  6
Continuous
 62
     7
370
     0
100
AcDbTrace
 10
78.6270843103
 20
108.9369422129
 30
0.0
 11
75.8786736695
 21
107.0375983921
 31
0.0
 12
76.576668836
 22
106.2993174514
 32
0.0
 13
76.576668836
 23
106.2993174514
 33
0.0
  0
SOLID
  5
10F
330
10B
100
AcDbEntity
  8
0
  6
Continuous
 62
     7
370
     0
100
AcDbTrace
 10
79.012211179
 20
109.3010538647
 30
0.0
 11
81.7606218198
 21
111.2003976855
 31
0.0
 12
81.0626266533
 22
111.9386786263
 32
0.0
 13
81.0626266533
 23
111.9386786263
 33
0.0
  0
LINE
  5
110
330
10B
100
AcDbEntity
  8
0
  6
Continuous
 62
     7
370
     0
100
AcDbLine
 10
78.6270843103
 20
108.9369422129
 30
0.0
 11
74.0128284304
 21
104.5744724222
 31
0.0
  0
LINE
  5
111
330
10B
100
AcDbEntity
  8
0
  6
Continuous
 62
     7
370
     0
100
AcDbLine
 10
78.6270843103
 20
108.9369422129
 30
0.0
 11
79.012211179
 21
109.3010538647
 31
0.0
  0
LINE
  5
112
330
10B
100
AcDbEntity
  8
0
  6
Continuous
 62
     7
370
     0
100
AcDbLine
 10
79.012211179
 20
109.3010538647
 30
0.0
 11
125.5464328239
 21
153.2960427518
 31
0.0
  0
MTEXT
  5
113
330
10B
100
AcDbEntity
  8
0
  6
Continuous
 62
     7
370
     0
100
AcDbMText
 10
108.3457208935
 20
143.2428385138
 30
-29.9799775
 40
3.5
 41
0.0
 71
     1
 72
     1
  1
ep.
  7
SLDTEXTSTYLE0
 11
0.7266544692783052
 21
0.6870031166434869
 31
0.0
 73
     1
 44
1.0
  0
MTEXT
  5
114
330
10B
100
AcDbEntity
  8
0
  6
Continuous
 62
     7
370
     0
100
AcDbMText
 10
113.8031990752
 20
148.402518497
 30
-29.9799775
 40
3.5
 41
0.0
 71
     1
 72
     1
  1
2,65
  7
SLDTEXTSTYLE0
 11
0.7266544692783052
 21
0.6870031166434869
 31
0.0
 73
     1
 44
1.0
  0
ENDBLK
  5
10D
330
10B
100
AcDbEntity
  8
0
100
AcDbBlockEnd
  0
BLOCK
  5
116
330
115
100
AcDbEntity
  8
0
100
AcDbBlockBegin
  2
SW_CENTERMARKSYMBOL_1
 70
     0
 10
0.0
 20
0.0
 30
0.0
  3
SW_CENTERMARKSYMBOL_1
  1

  0
LINE
  5
118
330
115
100
AcDbEntity
  8
0
  6
Continuous
 62
     0
370
     0
100
AcDbLine
 10
0.0
 20
0.0
 30
0.0
 11
0.0
 21
0.5
 31
0.0
  0
LINE
  5
119
330
115
100
AcDbEntity
  8
0
  6
Continuous
 62
     0
370
     0
100
AcDbLine
 10
0.0
 20
0.0
 30
0.0
 11
-0.5
 21
0.0
 31
0.0
  0
LINE
  5
11A
330
115
100
AcDbEntity
  8
0
  6
Continuous
 62
     0
370
     0
100
AcDbLine
 10
0.0
 20
0.0
 30
0.0
 11
0.0
 21
-0.5
 31
0.0
  0
LINE
  5
11B
330
115
100
AcDbEntity
  8
0
  6
Continuous
 62
     0
370
     0
100
AcDbLine
 10
0.0
 20
0.0
 30
0.0
 11
0.5
 21
0.0
 31
0.0
  0
LINE
  5
11C
330
115
100
AcDbEntity
  8
0
  6
Continuous
 62
     0
370
     0
100
AcDbLine
 10
0.0
 20
1.0
 30
0.0
 11
0.0
 21
2.1
 31
0.0
  0
LINE
  5
11D
330
115
100
AcDbEntity
  8
0
  6
Continuous
 62
     0
370
     0
100
AcDbLine
 10
-1.0
 20
0.0
 30
0.0
 11
-2.1
 21
0.0
 31
0.0
  0
LINE
  5
11E
330
115
100
AcDbEntity
  8
0
  6
Continuous
 62
     0
370
     0
100
AcDbLine
 10
0.0
 20
-1.0
 30
0.0
 11
0.0
 21
-2.1
 31
0.0
  0
LINE
  5
11F
330
115
100
AcDbEntity
  8
0
  6
Continuous
 62
     0
370
     0
100
AcDbLine
 10
1.0
 20
0.0
 30
0.0
 11
2.1
 21
0.0
 31
0.0
  0
ENDBLK
  5
117
330
115
100
AcDbEntity
  8
0
100
AcDbBlockEnd
  0
BLOCK
  5
122
330
121
100
AcDbEntity
  8
0
100
AcDbBlockBegin
  2
SW_DATUMTAG_1
 70
     0
 10
0.0
 20
0.0
 30
0.0
  3
SW_DATUMTAG_1
  1

  0
LINE
  5
124
330
121
100
AcDbEntity
  8
0
  6
Continuous
 62
     0
370
     0
100
AcDbLine
 10
1.7256945139
 20
-27.70568402
 30
0.0
 11
1.7256945139
 21
-0.7218748298
 31
0.0
  0
LINE
  5
125
330
121
100
AcDbEntity
  8
0
  6
Continuous
 62
     0
370
     0
100
AcDbLine
 10
38.6283272018
 20
-27.70568402
 30
0.0
 11
-0.6743054861
 21
-27.70568402
 31
0.0
  0
LINE
  5
126
330
121
100
AcDbEntity
  8
0
  6
Continuous
 62
     0
370
     0
100
AcDbLine
 10
5.2256945139
 20
-0.7218748298
 30
0.0
 11
-1.7743054861
 21
-0.7218748298
 31
0.0
  0
LINE
  5
127
330
121
100
AcDbEntity
  8
0
  6
Continuous
 62
     0
370
     0
100
AcDbLine
 10
-1.7743054861
 20
-0.7218748298
 30
0.0
 11
-1.7743054861
 21
6.2781251702
 31
0.0
  0
LINE
  5
128
330
121
100
AcDbEntity
  8
0
  6
Continuous
 62
     0
370
     0
100
AcDbLine
 10
-1.7743054861
 20
6.2781251702
 30
0.0
 11
5.2256945139
 21
6.2781251702
 31
0.0
  0
LINE
  5
129
330
121
100
AcDbEntity
  8
0
  6
Continuous
 62
     0
370
     0
100
AcDbLine
 10
5.2256945139
 20
6.2781251702
 30
0.0
 11
5.2256945139
 21
-0.7218748298
 31
0.0
  0
MTEXT
  5
12A
330
121
100
AcDbEntity
  8
0
  6
Continuous
 62
     0
370
     0
100
AcDbMText
 10
0.0
 20
4.5117370892
 30
-29.9999775
 40
3.5
 41
0.0
 71
     1
 72
     1
  1
A
  7
SLDTEXTSTYLE0
 73
     1
 44
1.0
  0
SOLID
  5
12B
330
121
100
AcDbEntity
  8
0
  6
Continuous
 62
     0
370
     0
100
AcDbTrace
 10
3.1256945139
 20
-27.70568402
 30
0.0
 11
0.3256945139
 21
-27.70568402
 31
0.0
 12
1.7256945139
 22
-25.25568402
 32
0.0
 13
1.7256945139
 23
-25.25568402
 33
0.0
  0
ENDBLK
  5
123
330
121
100
AcDbEntity
  8
0
100
AcDbBlockEnd
  0
BLOCK
  5
12E
330
12D
100
AcDbEntity
  8
0
100
AcDbBlockBegin
  2
SW_DATUMTAG_2
 70
     0
 10
0.0
 20
0.0
 30
0.0
  3
SW_DATUMTAG_2
  1

  0
LINE
  5
130
330
12D
100
AcDbEntity
  8
0
  6
Continuous
 62
     0
370
     0
100
AcDbLine
 10
40.558053405
 20
2.7781251702
 30
0.0
 11
4.8392361579
 21
2.7781251702
 31
0.0
  0
LINE
  5
131
330
12D
100
AcDbEntity
  8
0
  6
Continuous
 62
     0
370
     0
100
AcDbLine
 10
40.558053405
 20
-38.7246583926
 30
0.0
 11
40.558053405
 21
5.1781251702
 31
0.0
  0
LINE
  5
132
330
12D
100
AcDbEntity
  8
0
  6
Continuous
 62
     0
370
     0
100
AcDbLine
 10
4.8392361579
 20
-0.7218748298
 30
0.0
 11
-2.1607638421
 21
-0.7218748298
 31
0.0
  0
LINE
  5
133
330
12D
100
AcDbEntity
  8
0
  6
Continuous
 62
     0
370
     0
100
AcDbLine
 10
-2.1607638421
 20
-0.7218748298
 30
0.0
 11
-2.1607638421
 21
6.2781251702
 31
0.0
  0
LINE
  5
134
330
12D
100
AcDbEntity
  8
0
  6
Continuous
 62
     0
370
     0
100
AcDbLine
 10
-2.1607638421
 20
6.2781251702
 30
0.0
 11
4.8392361579
 21
6.2781251702
 31
0.0
  0
LINE
  5
135
330
12D
100
AcDbEntity
  8
0
  6
Continuous
 62
     0
370
     0
100
AcDbLine
 10
4.8392361579
 20
6.2781251702
 30
0.0
 11
4.8392361579
 21
-0.7218748298
 31
0.0
  0
MTEXT
  5
136
330
12D
100
AcDbEntity
  8
0
  6
Continuous
 62
     0
370
     0
100
AcDbMText
 10
0.0
 20
4.5117370892
 30
-29.9999775
 40
3.5
 41
0.0
 71
     1
 72
     1
  1
B
  7
SLDTEXTSTYLE0
 73
     1
 44
1.0
  0
SOLID
  5
137
330
12D
100
AcDbEntity
  8
0
  6
Continuous
 62
     0
370
     0
100
AcDbTrace
 10
40.558053405
 20
1.3781251702
 30
0.0
 11
40.558053405
 21
4.1781251702
 31
0.0
 12
38.108053405
 22
2.7781251702
 32
0.0
 13
38.108053405
 23
2.7781251702
 33
0.0
  0
ENDBLK
  5
12F
330
12D
100
AcDbEntity
  8
0
100
AcDbBlockEnd
  0
ENDSEC
  0
SECTION
  2
ENTITIES
  0
IMAGE
  5
47
330
1F
100
AcDbEntity
  8
0
 92
      140
310
8C00000001000000840000000600000005000000FB83CFF3254F38403D4DA44F66496A400000000000000000F483CFF3254F384038F20EA341BA6B40000000000000000095679FD48069284037F20EA341BA6B400000000000000000A3679FD4806928403C4DA44F66496A400000000000000000FB83CFF3254F38403D4DA4
310
4F66496A400000000000000000
100
AcDbRasterImage
 90
        0
 10
24.3091728574
 20
210.293739148
 30
0.0
 11
-6.222191665606318E-17
 21
0.02881693293640597
 31
0.0
 12
-0.02881693293640586
 22
-6.222191665606295E-17
 32
0.0
 13
400.0
 23
420.0
340
46
 70
     7
280
     0
281
    50
282
    50
283
     0
360
48
 71
     1
 91
        2
 14
-0.5
 24
-0.5
 14
399.5
 24
419.5
  0
LINE
  5
49
330
1F
100
AcDbEntity
  8
0
  6
Continuous
 62
     7
370
    40
100
AcDbLine
 10
25.0788435654
 20
10.2147801566
 30
0.0
 11
25.0788435654
 21
287.2147801566
 31
0.0
  0
LINE
  5
4A
330
1F
100
AcDbEntity
  8
0
  6
Continuous
 62
     7
370
    40
100
AcDbLine
 10
0.0788435654
 20
0.2147801566
 30
0.0
 11
420.0788435654
 21
0.2147801566
 31
0.0
  0
LINE
  5
4B
330
1F
100
AcDbEntity
  8
0
  6
Continuous
 62
     7
370
    40
100
AcDbLine
 10
0.0788435654
 20
0.2147801566
 30
0.0
 11
0.0788435654
 21
297.2147801566
 31
0.0
  0
LINE
  5
4C
330
1F
100
AcDbEntity
  8
0
  6
Continuous
 62
     7
370
    40
100
AcDbLine
 10
0.0788435654
 20
297.2147801566
 30
0.0
 11
420.0788435654
 21
297.2147801566
 31
0.0
  0
LINE
  5
4D
330
1F
100
AcDbEntity
  8
0
  6
Continuous
 62
     7
370
    40
100
AcDbLine
 10
420.0788435654
 20
0.2147801566
 30
0.0
 11
420.0788435654
 21
297.2147801566
 31
0.0
  0
LINE
  5
4E
330
1F
100
AcDbEntity
  8
0
  6
Continuous
 62
     7
370
    40
100
AcDbLine
 10
25.0788435654
 20
287.2147801566
 30
0.0
 11
410.0788435654
 21
287.2147801566
 31
0.0
  0
LINE
  5
4F
330
1F
100
AcDbEntity
  8
0
  6
Continuous
 62
     7
370
    40
100
AcDbLine
 10
25.0788435654
 20
10.2147801566
 30
0.0
 11
410.0788435654
 21
10.2147801566
 31
0.0
  0
LINE
  5
50
330
1F
100
AcDbEntity
  8
0
  6
Continuous
 62
     7
370
    40
100
AcDbLine
 10
410.0788435654
 20
287.2147801566
 30
0.0
 11
410.0788435654
 21
10.2147801566
 31
0.0
  0
LINE
  5
51
330
1F
100
AcDbEntity
  8
0
  6
Continuous
 62
     7
370
    40
100
AcDbLine
 10
222.8788435654
 20
14.4647801566
 30
0.0
 11
410.0788435654
 21
14.4647801566
 31
0.0
  0
LINE
  5
52
330
1F
100
AcDbEntity
  8
0
  6
Continuous
 62
     7
370
    40
100
AcDbLine
 10
410.0788435654
 20
48.4647801566
 30
0.0
 11
222.8788435654
 21
48.4647801566
 31
0.0
  0
LINE
  5
53
330
1F
100
AcDbEntity
  8
0
  6
Continuous
 62
     7
370
    40
100
AcDbLine
 10
222.8788435654
 20
65.4647801566
 30
0.0
 11
410.0788435654
 21
65.4647801566
 31
0.0
  0
LINE
  5
54
330
1F
100
AcDbEntity
  8
0
  6
Continuous
 62
     7
370
    40
100
AcDbLine
 10
249.8697959991
 20
48.4647801566
 30
0.0
 11
249.8697959991
 21
10.2147801566
 31
0.0
  0
LINE
  5
55
330
1F
100
AcDbEntity
  8
0
  6
Continuous
 62
     7
370
    40
100
AcDbLine
 10
321.6788435654
 20
31.4647801566
 30
0.0
 11
222.8788435654
 21
31.4647801566
 31
0.0
  0
LINE
  5
56
330
1F
100
AcDbEntity
  8
0
  6
Continuous
 62
     7
370
    40
100
AcDbLine
 10
321.6788435654
 20
35.7147801566
 30
0.0
 11
222.8788435654
 21
35.7147801566
 31
0.0
  0
LINE
  5
57
330
1F
100
AcDbEntity
  8
0
  6
Continuous
 62
     7
370
    40
100
AcDbLine
 10
321.6788435654
 20
39.9647801566
 30
0.0
 11
222.8788435654
 21
39.9647801566
 31
0.0
  0
LINE
  5
58
330
1F
100
AcDbEntity
  8
0
  6
Continuous
 62
     7
370
    40
100
AcDbLine
 10
321.6788435654
 20
44.2147801566
 30
0.0
 11
222.8788435654
 21
44.2147801566
 31
0.0
  0
LINE
  5
59
330
1F
100
AcDbEntity
  8
0
  6
Continuous
 62
     7
370
    40
100
AcDbLine
 10
277.4788435654
 20
10.2147801566
 30
0.0
 11
277.4788435654
 21
48.4647801566
 31
0.0
  0
LINE
  5
5A
330
1F
100
AcDbEntity
  8
0
  6
Continuous
 62
     7
370
    40
100
AcDbLine
 10
222.8788435654
 20
65.4647801566
 30
0.0
 11
222.8788435654
 21
10.2147801566
 31
0.0
  0
LINE
  5
5B
330
1F
100
AcDbEntity
  8
0
  6
Continuous
 62
     7
370
    40
100
AcDbLine
 10
230.6788435654
 20
48.4647801566
 30
0.0
 11
230.6788435654
 21
10.2147801566
 31
0.0
  0
LINE
  5
5C
330
1F
100
AcDbEntity
  8
0
  6
Continuous
 62
     7
370
    40
100
AcDbLine
 10
256.6788435654
 20
48.4647801566
 30
0.0
 11
256.6788435654
 21
65.4647801566
 31
0.0
  0
LINE
  5
5D
330
1F
100
AcDbEntity
  8
0
  6
Continuous
 62
     7
370
    40
100
AcDbLine
 10
267.2777697289
 20
48.4647801566
 30
0.0
 11
267.2777697289
 21
10.2147801566
 31
0.0
  0
LINE
  5
5E
330
1F
100
AcDbEntity
  8
0
  6
Continuous
 62
     7
370
    40
100
AcDbLine
 10
287.8788435654
 20
31.4647801566
 30
0.0
 11
287.8788435654
 21
48.4647801566
 31
0.0
  0
LINE
  5
5F
330
1F
100
AcDbEntity
  8
0
  6
Continuous
 62
     7
370
    40
100
AcDbLine
 10
277.4788435654
 20
18.7147801566
 30
0.0
 11
222.8788435654
 21
18.7147801566
 31
0.0
  0
LINE
  5
60
330
1F
100
AcDbEntity
  8
0
  6
Continuous
 62
     7
370
    40
100
AcDbLine
 10
303.4788435654
 20
65.4647801566
 30
0.0
 11
303.4788435654
 21
27.2147801566
 31
0.0
  0
LINE
  5
61
330
1F
100
AcDbEntity
  8
0
  6
Continuous
 62
     7
370
    40
100
AcDbLine
 10
277.4788435654
 20
22.9647081566
 30
0.0
 11
222.8788435654
 21
22.9647081566
 31
0.0
  0
LINE
  5
62
330
1F
100
AcDbEntity
  8
0
  6
Continuous
 62
     7
370
    40
100
AcDbLine
 10
277.4788435654
 20
27.2147801566
 30
0.0
 11
222.8788435654
 21
27.2147801566
 31
0.0
  0
LINE
  5
63
330
1F
100
AcDbEntity
  8
0
  6
Continuous
 62
     7
370
    40
100
AcDbLine
 10
277.4788435654
 20
27.2147801566
 30
0.0
 11
410.0788435654
 21
27.2147801566
 31
0.0
  0
LINE
  5
64
330
1F
100
AcDbEntity
  8
0
  6
Continuous
 62
     7
370
    40
100
AcDbLine
 10
321.6788435654
 20
65.4647801566
 30
0.0
 11
321.6788435654
 21
10.2147801566
 31
0.0
  0
LINE
  5
65
330
1F
100
AcDbEntity
  8
0
  6
Continuous
 62
     7
370
    40
100
AcDbLine
 10
365.8788435654
 20
10.2147801566
 30
0.0
 11
365.8788435654
 21
14.4647801566
 31
0.0
  0
LINE
  5
66
330
1F
100
AcDbEntity
  8
0
  6
Continuous
 62
     7
370
    40
100
AcDbLine
 10
373.6788435654
 20
59.0897801566
 30
0.0
 11
373.6788435654
 21
65.4647801566
 31
0.0
  0
LINE
  5
67
330
1F
100
AcDbEntity
  8
0
  6
Continuous
 62
     7
370
    40
100
AcDbLine
 10
397.0788435654
 20
14.4647801566
 30
0.0
 11
397.0788435654
 21
27.2147801566
 31
0.0
  0
LINE
  5
68
330
1F
100
AcDbEntity
  8
0
  6
Continuous
 62
     7
370
    40
100
AcDbLine
 10
410.0788435654
 20
59.0897801566
 30
0.0
 11
321.6788435654
 21
59.0897801566
 31
0.0
  0
LINE
  5
69
330
1F
100
AcDbEntity
  8
0
  6
Continuous
 62
     7
370
    40
100
AcDbLine
 10
410.0788435654
 20
18.7147801566
 30
0.0
 11
397.0788435654
 21
18.7147801566
 31
0.0
  0
INSERT
  5
70
330
1F
100
AcDbEntity
  8
0
  6
Continuous
 62
     7
370
     0
100
AcDbBlockReference
  2
SW_NOTE_0
 10
19.0293402032
 20
10.1082574568
 30
0.0
  0
MTEXT
  5
71
330
1F
100
AcDbEntity
  8
0
  6
Continuous
 62
     7
370
     0
100
AcDbMText
 10
33.5624175824
 20
23.88591697
 30
0.0
 40
3.5
 41
0.0
 71
     1
 72
     1
  1
Note : Equilibrage en cours de réalisation
  7
SLDTEXTSTYLE0
 73
     1
 44
1.0
  0
MTEXT
  5
72
330
1F
100
AcDbEntity
  8
0
  6
Continuous
 62
     7
370
     0
100
AcDbMText
 10
396.7409117618
 20
62.9900954614
 30
0.0
 40
1.905
 41
0.0
 71
     2
 72
     1
  1
2
  7
SLDTEXTSTYLE0
 73
     1
 44
1.0
  0
MTEXT
  5
73
330
1F
100
AcDbEntity
  8
0
  6
Continuous
 62
     7
370
     0
100
AcDbMText
 10
366.821945753
 20
41.3635933752
 30
0.0
 40
6.35
 41
0.0
 71
     2
 72
     1
  1
Girouette
  7
SLDTEXTSTYLE0
 73
     1
 44
1.0
  0
MTEXT
  5
74
330
1F
100
AcDbEntity
  8
0
  6
Continuous
 62
     7
370
     0
100
AcDbMText
 10
362.6668040233
 20
24.8465186829
 30
0.0
 40
6.35
 41
0.0
 71
     2
 72
     1
  1
ASD-US000014
  7
SLDTEXTSTYLE0
 73
     1
 44
1.0
  0
MTEXT
  5
75
330
1F
100
AcDbEntity
  8
0
  6
Continuous
 62
     7
370
     0
100
AcDbMText
 10
272.5762722308
 20
42.773880237
 30
0.0
 40
1.4986
 41
0.0
 71
     2
 72
     1
  1
22-11/2013
  7
SLDTEXTSTYLE0
 73
     1
 44
1.0
  0
MTEXT
  5
76
330
1F
100
AcDbEntity
  8
0
  6
Continuous
 62
     7
370
     0
100
AcDbMText
 10
240.1135264709
 20
42.5981456645
 30
0.0
 40
1.4986
 41
0.0
 71
     2
 72
     1
  1
BRESSON-T
  7
SLDTEXTSTYLE0
 73
     1
 44
1.0
  0
MTEXT
  5
77
330
1F
100
AcDbEntity
  8
0
  6
Continuous
 62
     7
370
     0
100
AcDbMText
 10
278.4966546935
 20
13.1640920602
 30
0.0
 40
1.4986
 41
0.0
 71
     1
 72
     1
  1
MASSE:
  7
SLDTEXTSTYLE0
 73
     1
 44
1.0
  0
MTEXT
  5
78
330
1F
100
AcDbEntity
  8
0
  6
Continuous
 62
     7
370
     0
100
AcDbMText
 10
299.8177807388
 20
21.700345848
 30
0.0
 40
2.38125
 41
0.0
 71
     2
 72
     1
  1
Acier
  7
SLDTEXTSTYLE0
 73
     1
 44
1.0
  0
MTEXT
  5
79
330
1F
100
AcDbEntity
  8
0
  6
Continuous
 62
     7
370
     0
100
AcDbMText
 10
400.9998284117
 20
24.5152246096
 30
0.0
 40
2.9104166667
 41
0.0
 71
     1
 72
     1
  1
A3
  7
SLDTEXTSTYLE0
 73
     1
 44
1.0
  0
MTEXT
  5
7B
330
1F
100
AcDbEntity
  8
0
  6
Continuous
 62
     7
370
     0
100
AcDbMText
 10
367.3571379932
 20
13.114867664
 30
0.0
 40
1.5
 41
0.0
 71
     1
 72
     1
  1
FEUILLE 1 SUR 1
  7
SLDTEXTSTYLE1
 73
     1
 44
1.0
  0
MTEXT
  5
7C
330
1F
100
AcDbEntity
  8
0
  6
Continuous
 62
     7
370
     0
100
AcDbMText
 10
322.9528096828
 20
13.114867664
 30
0.0
 40
1.5
 41
0.0
 71
     1
 72
     1
  1
ECHELLE:1:5
  7
SLDTEXTSTYLE0
 73
     1
 44
1.0
  0
MTEXT
  5
7D
330
1F
100
AcDbEntity
  8
0
  6
Continuous
 62
     7
370
     0
100
AcDbMText
 10
322.9528096828
 20
25.0834182165
 30
0.0
 40
1.5
 41
0.0
 71
     1
 72
     1
  1
No. DE PLAN
  7
SLDTEXTSTYLE0
 73
     1
 44
1.0
  0
MTEXT
  5
7E
330
1F
100
AcDbEntity
  8
0
  6
Continuous
 62
     7
370
     0
100
AcDbMText
 10
322.835030502
 20
46.4931146755
 30
0.0
 40
1.5
 41
0.0
 71
     1
 72
     1
  1
TITRE:
  7
SLDTEXTSTYLE0
 73
     1
 44
1.0
  0
MTEXT
  5
7F
330
1F
100
AcDbEntity
  8
0
  6
Continuous
 62
     7
370
     0
100
AcDbMText
 10
376.2064252647
 20
62.5496890699
 30
0.0
 40
1.5
 41
0.0
 71
     1
 72
     1
  1
REVISION
  7
SLDTEXTSTYLE0
 73
     1
 44
1.0
  0
MTEXT
  5
80
330
1F
100
AcDbEntity
  8
0
  6
Continuous
 62
     7
370
     0
100
AcDbMText
 10
335.4934840882
 20
62.7477739645
 30
0.0
 40
1.5
 41
0.0
 71
     1
 72
     1
  1
NE PAS CHANGER L'ECHELLE
  7
SLDTEXTSTYLE0
 73
     1
 44
1.0
  0
MTEXT
  5
81
330
1F
100
AcDbEntity
  8
0
  6
Continuous
 62
     7
370
     0
100
AcDbMText
 10
278.5247058741
 20
26.2008366787
 30
0.0
 40
1.5
 41
0.0
 71
     1
 72
     1
  1
MATERIAU:
  7
SLDTEXTSTYLE0
 73
     1
 44
1.0
  0
MTEXT
  5
82
330
1F
100
AcDbEntity
  8
0
  6
Continuous
 62
     7
370
     0
100
AcDbMText
 10
270.0935455311
 20
46.7909596107
 30
0.0
 40
1.5
 41
0.0
 71
     1
 72
     1
  1
DATE
  7
SLDTEXTSTYLE0
 73
     1
 44
1.0
  0
MTEXT
  5
83
330
1F
100
AcDbEntity
  8
0
  6
Continuous
 62
     7
370
     0
100
AcDbMText
 10
252.9124311285
 20
46.776536769
 30
0.0
 40
1.5
 41
0.0
 71
     1
 72
     1
  1
SIGNATURE
  7
SLDTEXTSTYLE0
 73
     1
 44
1.0
  0
MTEXT
  5
84
330
1F
100
AcDbEntity
  8
0
  6
Continuous
 62
     7
370
     0
100
AcDbMText
 10
237.201082783
 20
46.7162630229
 30
0.0
 40
1.5
 41
0.0
 71
     1
 72
     1
  1
NOM
  7
SLDTEXTSTYLE0
 73
     1
 44
1.0
  0
INSERT
  5
8A
330
1F
100
AcDbEntity
  8
0
  6
Continuous
 62
     7
370
     0
100
AcDbBlockReference
  2
SW_NOTE_1
 10
304.1880592516
 20
62.2842700325
 30
0.0
  0
MTEXT
  5
8B
330
1F
100
AcDbEntity
  8
0
  6
Continuous
 62
     7
370
     0
100
AcDbMText
 10
257.2501357322
 20
64.1340523846
 30
0.0
 40
1.5
 41
0.0
 71
     1
 72
     1
  1
FINITION:
  7
SLDTEXTSTYLE0
 73
     1
 44
1.0
  0
MTEXT
  5
8C
330
1F
100
AcDbEntity
  8
0
  6
Continuous
 62
     7
370
     0
100
AcDbMText
 10
223.5478864275
 20
25.5644295968
 30
0.0
 40
1.5
 41
0.0
 71
     1
 72
     1
  1
QUAL.
  7
SLDTEXTSTYLE0
 73
     1
 44
1.0
  0
MTEXT
  5
8D
330
1F
100
AcDbEntity
  8
0
  6
Continuous
 62
     7
370
     0
100
AcDbMText
 10
223.3340300644
 20
29.9484850401
 30
0.0
 40
1.5
 41
0.0
 71
     1
 72
     1
  1
FAB.
  7
SLDTEXTSTYLE0
 73
     1
 44
1.0
  0
MTEXT
  5
8E
330
1F
100
AcDbEntity
  8
0
  6
Continuous
 62
     7
370
     0
100
AcDbMText
 10
223.2805659737
 20
34.2790763926
 30
0.0
 40
1.5
 41
0.0
 71
     1
 72
     1
  1
APPR.
  7
SLDTEXTSTYLE0
 73
     1
 44
1.0
  0
MTEXT
  5
8F
330
1F
100
AcDbEntity
  8
0
  6
Continuous
 62
     7
370
     0
100
AcDbMText
 10
223.289312433
 20
38.3691875495
 30
0.0
 40
1.5
 41
0.0
 71
     1
 72
     1
  1
VERIF.
  7
SLDTEXTSTYLE0
 73
     1
 44
1.0
  0
MTEXT
  5
90
330
1F
100
AcDbEntity
  8
0
  6
Continuous
 62
     7
370
     0
100
AcDbMText
 10
223.0909928094
 20
42.6444952754
 30
0.0
 40
1.5
 41
0.0
 71
     1
 72
     1
  1
AUTEUR
  7
SLDTEXTSTYLE0
 73
     1
 44
1.0
  0
INSERT
  5
9B
330
1F
100
AcDbEntity
  8
0
  6
Continuous
 62
     7
370
     0
100
AcDbBlockReference
  2
SW_NOTE_2
 10
225.1953643589
 20
61.0313091656
 30
0.0
  0
LINE
  5
9C
330
1F
100
AcDbEntity
  8
0
  6
Continuous
 62
     7
370
    15
100
AcDbLine
 10
75.3344371595
 20
212.3308984124
 30
0.0
 11
75.3344371595
 21
192.3308984124
 31
0.0
  0
LINE
  5
9D
330
1F
100
AcDbEntity
  8
0
  6
Continuous
 62
     7
370
    15
100
AcDbLine
 10
79.5850267001
 20
212.3308984124
 30
0.0
 11
79.5850267001
 21
192.3308984124
 31
0.0
  0
LINE
  5
9E
330
1F
100
AcDbEntity
  8
0
  6
Continuous
 62
     7
370
    15
100
AcDbLine
 10
75.3344371595
 20
212.3308984124
 30
0.0
 11
79.5850267001
 21
212.3308984124
 31
0.0
  0
LINE
  5
9F
330
1F
100
AcDbEntity
  8
0
  6
Continuous
 62
     7
370
    15
100
AcDbLine
 10
75.3344371595
 20
192.3308984124
 30
0.0
 11
79.5850267001
 21
192.3308984124
 31
0.0
  0
ARC
  5
A0
330
1F
100
AcDbEntity
  8
0
  6
Continuous
 62
     7
370
    15
100
AcDbCircle
 10
179.5850267001
 20
222.3308984124
 30
0.0
 40
10.00000000000003
100
AcDbArc
 50
270.0
 51
0.0
  0
ARC
  5
A1
330
1F
100
AcDbEntity
  8
0
  6
Continuous
 62
     7
370
    15
100
AcDbCircle
 10
219.5850267001
 20
222.3308984124
 30
0.0
 40
30.0
100
AcDbArc
 50
180.0
 51
270.0
  0
LINE
  5
A2
330
1F
100
AcDbEntity
  8
0
  6
Continuous
 62
     7
370
    15
100
AcDbLine
 10
79.5850267001
 20
212.3308984124
 30
0.0
 11
179.5850267001
 21
212.3308984124
 31
0.0
  0
LINE
  5
A3
330
1F
100
AcDbEntity
  8
0
  6
Continuous
 62
     7
370
    15
100
AcDbLine
 10
79.5850267001
 20
192.3308984124
 30
0.0
 11
219.5850267001
 21
192.3308984124
 31
0.0
  0
ARC
  5
A4
330
1F
100
AcDbEntity
  8
0
  6
Continuous
 62
     7
370
    15
100
AcDbCircle
 10
219.5850267001
 20
222.3308984124
 30
0.0
 40
30.0
100
AcDbArc
 50
270.0
 51
180.0
  0
DIMENSION
  5
A5
330
1F
100
AcDbEntity
  8
0
  6
Continuous
 62
     7
370
     0
100
AcDbDimension
  2
*D4
 10
217.4644371595
 20
179.3773036023
 30
0.0
 11
173.1682411113
 21
179.3773036023
 31
0.0
 70
   160
 71
     2
 42
-1.0
  3
SLDDIMSTYLE0
100
AcDbAlignedDimension
 13
77.4644371595
 23
212.3308984124
 33
0.0
 14
217.4644371595
 24
212.3308984124
 34
0.0
100
AcDbRotatedDimension
  0
DIMENSION
  5
B0
330
1F
100
AcDbEntity
  8
0
  6
Continuous
 62
     7
370
     0
100
AcDbDimension
  2
*D5
 10
65.7744371595
 20
212.3308984124
 30
0.0
 11
65.7744371595
 21
202.993638765
 31
0.0
 70
   160
 71
     2
 42
-1.0
  3
SLDDIMSTYLE0
100
AcDbAlignedDimension
 13
79.5944371595
 23
192.3308984124
 33
0.0
 14
79.5944371595
 24
212.3308984124
 34
0.0
 50
90.0
100
AcDbRotatedDimension
  0
DIMENSION
  5
BA
330
1F
100
AcDbEntity
  8
0
  6
Continuous
 62
     7
370
     0
100
AcDbDimension
  2
*D6
 10
219.5850267001
 20
222.3308984124
 30
0.0
 11
241.8601204063
 21
254.3969667041
 31
0.0
 70
   164
  1
<>
 71
     1
 42
-1.0
  3
SLDDIMSTYLE1
100
AcDbRadialDimension
 15
236.7005230649
 25
246.9694816547
 35
0.0
 40
0.0
  0
DIMENSION
  5
C3
330
1F
100
AcDbEntity
  8
0
  6
Continuous
 62
     7
370
     0
100
AcDbDimension
  2
*D7
 10
179.5850267001
 20
222.3308984124
 30
0.0
 11
149.5160415015
 21
252.399903611
 31
0.0
 70
   164
  1
<>
 71
     1
 42
-1.0
  3
SLDDIMSTYLE2
100
AcDbRadialDimension
 15
186.656094512
 25
215.2598306005
 35
0.0
 40
0.0
  0
INSERT
  5
D6
330
1F
100
AcDbEntity
  8
0
  6
Continuous
 62
     7
370
     0
100
AcDbBlockReference
  2
SW_CENTERMARKSYMBOL_0
 10
77.4644371595
 20
208.3308984124
 30
0.0
  0
INSERT
  5
E2
330
1F
100
AcDbEntity
  8
0
  6
Continuous
 62
     7
370
     0
100
AcDbBlockReference
  2
SW_DATUMTAG_0
 10
36.6601006547
 20
162.9938518596
 30
0.0
  0
LINE
  5
E3
330
1F
100
AcDbEntity
  8
0
  6
Continuous
 62
     7
370
    15
100
AcDbLine
 10
249.5850267001
 20
107.6377372263
 30
0.0
 11
249.5850267001
 21
108.0377372263
 31
0.0
  0
LINE
  5
E4
330
1F
100
AcDbEntity
  8
0
  6
Continuous
 62
     7
370
    15
100
AcDbLine
 10
189.5850267001
 20
107.6377372263
 30
0.0
 11
249.5850267001
 21
107.6377372263
 31
0.0
  0
LINE
  5
E5
330
1F
100
AcDbEntity
  8
0
  6
Continuous
 62
     7
370
    15
100
AcDbLine
 10
189.5850267001
 20
107.6377372263
 30
0.0
 11
189.5850267001
 21
108.0377372263
 31
0.0
  0
LINE
  5
E6
330
1F
100
AcDbEntity
  8
0
  6
Continuous
 62
     7
370
    15
100
AcDbLine
 10
189.5850267001
 20
108.0377372263
 30
0.0
 11
249.5850267001
 21
108.0377372263
 31
0.0
  0
LINE
  5
E7
330
1F
100
AcDbEntity
  8
0
  6
Continuous
 62
     7
370
    15
100
AcDbLine
 10
179.5850267001
 20
108.0377372263
 30
0.0
 11
189.5850267001
 21
108.0377372263
 31
0.0
  0
LINE
  5
E8
330
1F
100
AcDbEntity
  8
0
  6
Continuous
 62
     7
370
    15
100
AcDbLine
 10
179.5850267001
 20
107.6377372263
 30
0.0
 11
189.5850267001
 21
107.6377372263
 31
0.0
  0
LINE
  5
E9
330
1F
100
AcDbEntity
  8
0
  6
Continuous
 62
     7
370
    15
100
AcDbLine
 10
179.5850267001
 20
107.6377372263
 30
0.0
 11
179.5850267001
 21
108.0377372263
 31
0.0
  0
ARC
  5
EA
330
1F
100
AcDbEntity
  8
0
  6
Continuous
 62
     7
370
    15
100
AcDbCircle
 10
77.4644371595
 20
107.8377372263
 30
0.0
 40
2.130000000000003
100
AcDbArc
 50
5.3878223067
 51
354.6121776933
  0
CIRCLE
  5
EB
330
1F
100
AcDbEntity
  8
0
  6
Continuous
 62
     7
370
    15
100
AcDbCircle
 10
77.4644371595
 20
107.8377372263
 30
0.0
 40
1.700000000000003
  0
LINE
  5
EC
330
1F
100
AcDbEntity
  8
0
  6
Continuous
 62
     7
370
    15
100
AcDbLine
 10
79.5850267001
 20
108.0377372263
 30
0.0
 11
179.5850267001
 21
108.0377372263
 31
0.0
  0
LINE
  5
ED
330
1F
100
AcDbEntity
  8
0
  6
Continuous
 62
     7
370
    15
100
AcDbLine
 10
79.5850267001
 20
107.6377372263
 30
0.0
 11
179.5850267001
 21
107.6377372263
 31
0.0
  0
CIRCLE
  5
EE
330
1F
100
AcDbEntity
  8
0
  6
Continuous
 62
     7
370
    15
100
AcDbCircle
 10
77.4644371595
 20
107.8377372263
 30
0.0
 40
1.599999999999994
  0
DIMENSION
  5
EF
330
1F
100
AcDbEntity
  8
0
  6
Continuous
 62
     7
370
     0
100
AcDbDimension
  2
*D10
 10
219.1727746798
 20
108.0377372263
 30
0.0
 11
219.1727746798
 21
125.5577372263
 31
0.0
 70
   160
 71
     2
 42
-1.0
  3
SLDDIMSTYLE3
100
AcDbAlignedDimension
 13
77.4644371595
 23
107.6377372263
 33
0.0
 14
77.4644371595
 24
108.0377372263
 34
0.0
 50
90.0
100
AcDbRotatedDimension
  0
DIMENSION
  5
FC
330
1F
100
AcDbEntity
  8
0
  6
Continuous
 62
     7
370
     0
100
AcDbDimension
  2
*D12
 10
76.6644371595
 20
106.4520965802
 30
0.0
 11
95.0379474155
 21
138.2759425365
 31
0.0
 70
   163
  1
%%cint <>
 71
     1
 42
-1.0
  3
SLDDIMSTYLE4
100
AcDbDiametricDimension
 15
78.2644371595
 25
109.2233778723
 35
0.0
 40
0.0
  0
DIMENSION
  5
10A
330
1F
100
AcDbEntity
  8
0
  6
Continuous
 62
     7
370
     0
100
AcDbDimension
  2
*D13
 10
79.012211179
 20
109.3010538647
 30
0.0
 11
118.4958655196
 21
146.6302037362
 31
0.0
 70
   160
  1
ep.<>
 71
     2
 42
-1.0
  3
SLDDIMSTYLE3
100
AcDbAlignedDimension
 13
78.6270843103
 23
108.9369422129
 33
0.0
 14
79.012211179
 24
109.3010538647
 34
0.0
 50
43.3933452625
100
AcDbRotatedDimension
  0
INSERT
  5
120
330
1F
100
AcDbEntity
  8
0
  6
Continuous
 62
     7
370
     0
100
AcDbBlockReference
  2
SW_CENTERMARKSYMBOL_1
 10
77.4644371595
 20
107.8377372263
 30
0.0
  0
INSERT
  5
12C
330
1F
100
AcDbEntity
  8
0
  6
Continuous
 62
     7
370
     0
100
AcDbBlockReference
  2
SW_DATUMTAG_1
 10
36.7361099576
 20
135.5434212463
 30
0.0
  0
INSERT
  5
138
330
1F
100
AcDbEntity
  8
0
  6
Continuous
 62
     7
370
     0
100
AcDbBlockReference
  2
SW_DATUMTAG_2
 10
36.9063837545
 20
148.6623956189
 30
0.0
  0
LINE
  5
139
330
1F
100
AcDbEntity
  8
0
  6
Continuous
 62
     7
370
    15
100
AcDbLine
 10
358.2947863507
 20
184.9641538005
 30
0.0
 11
358.0119436382
 21
184.8008721781
 31
0.0
  0
LINE
  5
13A
330
1F
100
AcDbEntity
  8
0
  6
Continuous
 62
     7
370
    15
100
AcDbLine
 10
388.0095056173
 20
132.8379404353
 30
0.0
 11
388.2923483297
 21
133.0012220577
 31
0.0
  0
LINE
  5
13B
330
1F
100
AcDbEntity
  8
0
  6
Continuous
 62
     7
370
    15
100
AcDbLine
 10
274.7877133735
 20
207.6834988737
 30
0.0
 11
274.7877133735
 21
208.7498400781
 31
0.0
  0
LINE
  5
13C
330
1F
100
AcDbEntity
  8
0
  6
Continuous
 62
     7
370
    15
100
AcDbLine
 10
270.5277133735
 20
208.7498400781
 30
0.0
 11
270.5277133735
 21
192.4190238403
 31
0.0
  0
LWPOLYLINE
  5
13D
330
1F
100
AcDbEntity
  8
0
  6
Continuous
 62
     7
370
    15
100
AcDbPolyline
 90
       98
 70
   128
 43
0.0
 10
351.7975211921
 20
171.0655279841
 10
351.8225493934
 20
172.2406705992
 10
351.8975749384
 20
173.3841433061
 10
352.022420791
 20
174.4932478734
 10
352.1967923546
 20
175.5653671676
 10
352.4202781679
 20
176.5979713288
 10
352.6923508756
 20
177.5886237401
 10
353.0123684727
 20
178.5349867773
 10
353.3795758197
 20
179.4348273252
 10
353.7931064242
 20
180.2860220467
 10
354.2519844857
 20
181.0865623935
 10
354.7551271982
 20
181.8345593453
 10
355.3013473051
 20
182.5282478676
 10
355.889355901
 20
183.1659910766
 10
356.5177654729
 20
183.7462841012
 10
357.1850931745
 20
184.267757635
 10
357.8897643249
 20
184.7291811665
 10
358.6301161247
 20
185.129465883
 10
359.4044015794
 20
185.4676672403
 10
360.2107936222
 20
185.7429871908
 10
361.0473894246
 20
185.9547760672
 10
361.912214887
 20
186.1025341152
 10
362.8032292969
 20
186.1859126729
 10
363.7183301441
 20
186.2047149933
 10
364.6553580821
 20
186.1588967092
 10
365.6121020234
 20
186.0485659369
 10
366.5863043572
 20
185.8739830219
 10
367.5756662763
 20
185.6355599245
 10
368.5778532017
 20
185.333859247
 10
369.5905002915
 20
184.969592907
 10
370.6112180213
 20
184.543620457
 10
371.6375978222
 20
184.0569470563
 10
372.667217765
 20
183.510721099
 10
373.6976482745
 20
182.9062315045
 10
374.7264578631
 20
182.2449046757
 10
375.7512188678
 20
181.528301133
 10
376.7695131791
 20
180.7581118327
 10
377.7789379468
 20
179.9361541762
 10
378.77711125
 20
179.0643677216
 10
379.7616777177
 20
178.1448096073
 10
380.7303140868
 20
177.1796496975
 10
381.6807346838
 20
176.1711654621
 10
382.610696819
 20
175.1217366026
 10
383.518006078
 20
174.033839437
 10
384.4005215
 20
172.9100410558
 10
385.2561606297
 20
171.7529932653
 10
386.0829044313
 20
170.5654263297
 10
386.8788020529
 20
169.3501425287
 10
387.6419754295
 20
168.1100095448
 10
388.3706237151
 20
166.8479536969
 10
389.063027532
 20
165.5669530348
 10
389.7175530276
 20
164.2700303118
 10
390.3326557303
 20
162.9602458526
 10
390.9068841936
 20
161.6406903311
 10
391.4388834214
 20
160.314477478
 10
391.9273980648
 20
158.9847367333
 10
392.3712753851
 20
157.6546058614
 10
392.769467973
 20
156.3272235476
 10
393.121036221
 20
155.0057219911
 10
393.4251505399
 20
153.6932195147
 10
393.6810933168
 20
152.3928132062
 10
393.8882606085
 20
151.1075716101
 10
394.0461635659
 20
149.8405274872
 10
394.1544295884
 20
148.5946706581
 10
394.2128032028
 20
147.3729409479
 10
394.2211466658
 20
146.1782212496
 10
394.1794402897
 20
145.013330721
 10
394.087782488
 20
143.8810181327
 10
393.9463895441
 20
142.7839553818
 10
393.7555951002
 20
141.7247311869
 10
393.5158493705
 20
140.7058449795
 10
393.2277180785
 20
139.7297010067
 10
392.8918811222
 20
138.7986026571
 10
392.50913097
 20
137.9147470264
 10
392.0803707902
 20
137.0802197322
 10
391.6066123202
 20
136.2969899931
 10
391.0889734792
 20
135.5669059817
 10
390.5286757299
 20
134.8916904638
 10
389.9270411964
 20
134.272936733
 10
389.2854895448
 20
133.7121048508
 10
388.6055346324
 20
133.2105182019
 10
387.8887809362
 20
132.7693603709
 10
387.1369197668
 20
132.3896723499
 10
386.3517252768
 20
132.0723500817
 10
385.5350502752
 20
131.8181423455
 10
384.6888218548
 20
131.6276489908
 10
383.8150368451
 20
131.5013195212
 10
382.9157571003
 20
131.439452034
 10
381.9931046343
 20
131.4421925168
 10
381.0492566129
 20
131.5095345028
 10
380.0864402168
 20
131.6413190865
 10
379.1069273859
 20
131.8372352981
 10
378.1130294585
 20
132.096820838
 10
377.107091717
 20
132.4194631668
 10
376.0914878542
 20
132.8044009515
 10
375.0686143716
 20
133.2507258615
 10
374.0408849247
 20
133.7573847122
 10
373.0107246277
 20
134.3231819501
  0
LWPOLYLINE
  5
13E
330
1F
100
AcDbEntity
  8
0
  6
Continuous
 62
     7
370
    15
100
AcDbPolyline
 90
       33
 70
   128
 43
0.0
 10
373.0107246277
 20
134.3231819501
 10
371.9698420701
 20
134.9535774354
 10
370.9314670897
 20
135.6414677929
 10
369.8981012229
 20
136.3851958343
 10
368.8722339385
 20
137.1829698538
 10
367.8563366406
 20
138.0328679439
 10
366.8528567149
 20
138.9328426255
 10
365.8642116323
 20
139.8807257809
 10
364.8927831255
 20
140.8742338765
 10
363.9409114509
 20
141.9109734643
 10
363.0108897506
 20
142.9884469479
 10
362.1049585284
 20
144.1040585991
 10
361.2253002519
 20
145.2551208119
 10
360.3740340951
 20
146.4388605766
 10
359.5532108326
 20
147.6524261603
 10
358.7648078996
 20
148.8928939773
 10
358.0107246277
 20
150.157275632
 10
357.2927776697
 20
151.4425251182
 10
356.6126966227
 20
152.7455461573
 10
355.9721198614
 20
154.0631996575
 10
355.3725905914
 20
155.3923112761
 10
354.8155531313
 20
156.7296790668
 10
354.3023494329
 20
158.0720811935
 10
353.8342158491
 20
159.4162836919
 10
353.4122801546
 20
160.7590482603
 10
353.0375588294
 20
162.0971400614
 10
352.7109546101
 20
163.4273355147
 10
352.4332543148
 20
164.746430063
 10
352.2051269479
 20
166.051245892
 10
352.0271220881
 20
167.3386395859
 10
351.8996685648
 20
168.6055097007
 10
351.8230734247
 20
169.8488042352
 10
351.7975211921
 20
171.0655279841
  0
LWPOLYLINE
  5
13F
330
1F
100
AcDbEntity
  8
0
  6
Continuous
 62
     7
370
    15
100
AcDbPolyline
 90
       66
 70
   128
 43
0.0
 10
358.2947863507
 20
184.9641538005
 10
358.9129588371
 20
185.2927475054
 10
359.6872442919
 20
185.6309488627
 10
360.4936363347
 20
185.9062688132
 10
361.330232137
 20
186.1180576896
 10
362.1950575995
 20
186.2658157376
 10
363.0860720094
 20
186.3491942952
 10
364.0011728566
 20
186.3679966157
 10
364.9382007945
 20
186.3221783315
 10
365.8949447359
 20
186.2118475592
 10
366.8691470697
 20
186.0372646443
 10
367.8585089888
 20
185.7988415468
 10
368.8606959142
 20
185.4971408693
 10
369.873343004
 20
185.1328745293
 10
370.8940607337
 20
184.7069020793
 10
371.9204405347
 20
184.2202286786
 10
372.9500604774
 20
183.6740027214
 10
373.980490987
 20
183.0695131269
 10
375.0093005756
 20
182.408186298
 10
376.0340615802
 20
181.6915827554
 10
377.0523558915
 20
180.9213934551
 10
378.0617806592
 20
180.0994357986
 10
379.0599539625
 20
179.227649344
 10
380.0445204302
 20
178.3080912297
 10
381.0131567992
 20
177.3429313198
 10
381.9635773963
 20
176.3344470844
 10
382.8935395315
 20
175.285018225
 10
383.8008487905
 20
174.1971210593
 10
384.6833642125
 20
173.0733226782
 10
385.5390033422
 20
171.9162748877
 10
386.3657471438
 20
170.7287079521
 10
387.1616447653
 20
169.5134241511
 10
387.924818142
 20
168.2732911672
 10
388.6534664276
 20
167.0112353193
 10
389.3458702445
 20
165.7302346571
 10
390.0003957401
 20
164.4333119342
 10
390.6154984428
 20
163.1235274749
 10
391.1897269061
 20
161.8039719534
 10
391.7217261339
 20
160.4777591004
 10
392.2102407773
 20
159.1480183557
 10
392.6541180975
 20
157.8178874838
 10
393.0523106855
 20
156.4905051699
 10
393.4038789334
 20
155.1690036135
 10
393.7079932524
 20
153.8565011371
 10
393.9639360293
 20
152.5560948285
 10
394.1711033209
 20
151.2708532325
 10
394.3290062783
 20
150.0038091096
 10
394.4372723009
 20
148.7579522805
 10
394.4956459153
 20
147.5362225703
 10
394.5039893783
 20
146.3415028719
 10
394.4622830021
 20
145.1766123433
 10
394.3706252005
 20
144.0442997551
 10
394.2292322566
 20
142.9472370042
 10
394.0384378127
 20
141.8880128092
 10
393.798692083
 20
140.8691266019
 10
393.510560791
 20
139.892982629
 10
393.1747238347
 20
138.9618842795
 10
392.7919736825
 20
138.0780286487
 10
392.3632135026
 20
137.2435013545
 10
391.8894550327
 20
136.4602716154
 10
391.3718161917
 20
135.7301876041
 10
390.8115184423
 20
135.0549720862
 10
390.2098839089
 20
134.4362183553
 10
389.5683322573
 20
133.8753864731
 10
388.8883773449
 20
133.3737998242
 10
388.2923483297
 20
133.0012220577
  0
LINE
  5
140
330
1F
100
AcDbEntity
  8
0
  6
Continuous
 62
     7
370
    15
100
AcDbLine
 10
274.0157752616
 20
207.8025660154
 30
0.0
 11
274.0157752616
 21
191.4717497777
 31
0.0
  0
LINE
  5
141
330
1F
100
AcDbEntity
  8
0
  6
Continuous
 62
     7
370
    15
100
AcDbLine
 10
274.0157752616
 20
207.8025660154
 30
0.0
 11
344.7264533803
 21
166.9821604243
 31
0.0
  0
LWPOLYLINE
  5
142
330
1F
100
AcDbEntity
  8
0
  6
Continuous
 62
     7
370
    15
100
AcDbPolyline
 90
       19
 70
   128
 43
0.0
 10
344.7264533803
 20
166.9821604243
 10
345.3427375474
 20
166.6574589906
 10
345.95433142
 20
166.397372417
 10
346.5565803992
 20
166.2038801194
 10
347.1449010067
 20
166.0784546911
 10
347.7148157676
 20
166.0220506953
 10
348.2619872862
 20
166.0350974004
 10
348.782251257
 20
166.1174955132
 10
349.271648157
 20
166.2686179343
 10
349.7264533803
 20
166.4873145307
 10
350.1432055845
 20
166.7719208894
 10
350.5187330337
 20
167.1202709841
 10
350.8501777372
 20
167.5297136603
 10
351.1350172008
 20
167.9971328118
 10
351.3710836242
 20
168.5189710969
 10
351.5565803992
 20
169.091257011
 10
351.6900957835
 20
169.7096351127
 10
351.7706136443
 20
170.3693991713
 10
351.7975211921
 20
171.0655279841
  0
LINE
  5
143
330
1F
100
AcDbEntity
  8
0
  6
Continuous
 62
     7
370
    15
100
AcDbLine
 10
274.0157752616
 20
191.4717497777
 30
0.0
 11
373.0107246277
 21
134.3231819501
 31
0.0
  0
LINE
  5
144
330
1F
100
AcDbEntity
  8
0
  6
Continuous
 62
     7
370
    15
100
AcDbLine
 10
344.7264533803
 20
166.9821604243
 30
0.0
 11
345.0092960927
 21
167.1454420467
 31
0.0
  0
LWPOLYLINE
  5
145
330
1F
100
AcDbEntity
  8
0
  6
Continuous
 62
     7
370
    15
100
AcDbPolyline
 90
       10
 70
   128
 43
0.0
 10
345.0092960927
 20
167.1454420467
 10
345.6255802599
 20
166.8207406129
 10
346.2371741324
 20
166.5606540393
 10
346.8394231117
 20
166.3671617418
 10
347.4277437192
 20
166.2417363134
 10
347.99765848
 20
166.1853323176
 10
348.5448299987
 20
166.1983790228
 10
349.0650939695
 20
166.2807771356
 10
349.5544908695
 20
166.4318995566
 10
349.8654684873
 20
166.572185056
  0
LWPOLYLINE
  5
146
330
1F
100
AcDbEntity
  8
0
  6
Continuous
 62
     7
370
    15
100
AcDbPolyline
 90
       34
 70
   128
 43
0.0
 10
274.2986179741
 20
207.9658476378
 10
274.5201192317
 20
208.1531511816
 10
274.6782663134
 20
208.3607525209
 10
274.7676794691
 20
208.5815896013
 10
274.7853170973
 20
208.8081501227
 10
274.7305792118
 20
209.0327270889
 10
274.6053278524
 20
209.247680979
 10
274.4138237427
 20
209.4456996238
 10
274.1625813517
 20
209.620046947
 10
273.8601472882
 20
209.7647921086
 10
273.5168095681
 20
209.875011257
 10
273.1442476426
 20
209.9469550249
 10
272.7551350938
 20
209.9781760735
 10
272.362708513
 20
209.9676123445
 10
271.9803172258
 20
209.9156231882
 10
271.6209691838
 20
209.8239771399
 10
271.2968884674
 20
209.6957917582
 10
271.0190994548
 20
209.5354275747
 10
270.7970518016
 20
209.3483397594
 10
270.6382989883
 20
209.1408925503
 10
270.5482413703
 20
208.9201427591
 10
270.5299424722
 20
208.693599716
 10
270.5840247747
 20
208.468969823
 10
270.7086485392
 20
208.2538944014
 10
270.8995743913
 20
208.0556897545
 10
271.1503075329
 20
207.881098286
 10
271.4523186783
 20
207.7360591408
 10
271.7953341984
 20
207.6255061715
 10
272.1676856023
 20
207.5532001008
 10
272.5567064693
 20
207.5216005921
 10
272.949163327
 20
207.5317825781
 10
273.3317058195
 20
207.5833996943
 10
273.691320852
 20
207.6746960612
 10
274.0157752616
 20
207.8025660154
  0
LWPOLYLINE
  5
147
330
1F
100
AcDbEntity
  8
0
  6
Continuous
 62
     7
370
    15
100
AcDbPolyline
 90
       31
 70
   128
 43
0.0
 10
271.4556318455
 20
208.055893183
 10
271.731827014
 20
207.9267779153
 10
272.0484878593
 20
207.8336344137
 10
272.391774783
 20
207.780533496
 10
272.7466844991
 20
207.7697959272
 10
273.0977057502
 20
207.8018909905
 10
273.4294972231
 20
207.8754159778
 10
273.7275580383
 20
207.9871574942
 10
273.978861508
 20
208.1322318992
 10
274.1724244646
 20
208.3042987453
 10
274.2997872782
 20
208.4958378856
 10
274.3553835826
 20
208.6984781405
 10
274.3367835525
 20
208.9033631586
 10
274.2448000986
 20
209.1015384813
 10
274.083453339
 20
209.2843428962
 10
273.8597949015
 20
209.4437869731
 10
273.5835997331
 20
209.5729022408
 10
273.2669388878
 20
209.6660457424
 10
272.9236519641
 20
209.7191466601
 10
272.5687422479
 20
209.7298842289
 10
272.2177209969
 20
209.6977891656
 10
271.885929524
 20
209.6242641783
 10
271.5878687087
 20
209.5125226619
 10
271.3365652391
 20
209.3674482569
 10
271.1430022824
 20
209.1953814108
 10
271.0156394688
 20
209.0038422705
 10
270.9600431644
 20
208.8012020156
 10
270.9786431945
 20
208.5963169975
 10
271.0706266485
 20
208.3981416748
 10
271.231973408
 20
208.2153372599
 10
271.4556318455
 20
208.055893183
  0
LINE
  5
148
330
1F
100
AcDbEntity
  8
0
  6
Continuous
 62
     7
370
    15
100
AcDbLine
 10
274.2986179741
 20
207.9658476378
 30
0.0
 11
345.0092960927
 21
167.1454420467
 31
0.0
  0
LWPOLYLINE
  5
149
330
1F
100
AcDbEntity
  8
0
  6
Continuous
 62
     7
370
    15
100
AcDbPolyline
 90
       14
 70
   128
 43
0.0
 10
270.5277133735
 20
192.4190238403
 10
270.5299424722
 20
192.3627834783
 10
270.5840247747
 20
192.1381535853
 10
270.7086485392
 20
191.9230781637
 10
270.8995743913
 20
191.7248735168
 10
271.1503075329
 20
191.5502820482
 10
271.4523186783
 20
191.4052429031
 10
271.7953341984
 20
191.2946899338
 10
272.1676856023
 20
191.2223838631
 10
272.5567064693
 20
191.1907843544
 10
272.949163327
 20
191.2009663404
 10
273.3317058195
 20
191.2525834565
 10
273.691320852
 20
191.3438798235
 10
274.0157752616
 20
191.4717497777
  0
ENDSEC
  0
SECTION
  2
OBJECTS
  0
DICTIONARY
  5
C
330
0
100
AcDbDictionary
281
     1
  3
ACAD_GROUP
350
D
  3
ACAD_IMAGE_DICT
350
45
  3
ACAD_LAYOUT
350
1A
  3
ACAD_MLINESTYLE
350
17
  3
ACAD_PLOTSETTINGS
350
19
  3
ACAD_PLOTSTYLENAME
350
E
  0
IMAGEDEF_REACTOR
  5
48
330
47
100
AcDbRasterImageDefReactor
 90
        2
330
47
  0
DICTIONARY
  5
D
102
{ACAD_REACTORS
330
C
102
}
330
C
100
AcDbDictionary
281
     1
  0
DICTIONARY
  5
45
102
{ACAD_REACTORS
330
C
102
}
330
C
100
AcDbDictionary
281
     1
  3
J:\Ingenierie\Projets INNOVANTS\HOWIT\Prototype-2013\Plans\dxf4110.bmp
350
46
  0
DICTIONARY
  5
1A
102
{ACAD_REACTORS
330
C
102
}
330
C
100
AcDbDictionary
281
     1
  3
Layout1
350
1E
  3
Layout2
350
26
  3
Model
350
22
  0
DICTIONARY
  5
17
102
{ACAD_REACTORS
330
C
102
}
330
C
100
AcDbDictionary
281
     1
  3
Standard
350
18
  0
DICTIONARY
  5
19
102
{ACAD_REACTORS
330
C
102
}
330
C
100
AcDbDictionary
281
     1
  0
ACDBDICTIONARYWDFLT
  5
E
102
{ACAD_REACTORS
330
C
102
}
330
C
100
AcDbDictionary
281
     1
  3
Normal
350
F
100
AcDbDictionaryWithDefault
340
F
  0
IMAGEDEF
  5
46
102
{ACAD_REACTORS
330
45
330
48
102
}
330
45
100
AcDbRasterImageDef
 90
        0
  1
J:\Ingenierie\Projets INNOVANTS\HOWIT\Prototype-2013\Plans\dxf4110.bmp
 10
400.0
 20
420.0
 11
0.2645502645502645
 21
0.2645502645502645
280
     1
281
     3
  0
LAYOUT
  5
1E
102
{ACAD_REACTORS
330
1A
102
}
330
1A
100
AcDbPlotSettings
  1

  2
none_device
  4

  6

 40
0.0
 41
0.0
 42
0.0
 43
0.0
 44
0.0
 45
0.0
 46
0.0
 47
0.0
 48
0.0
 49
0.0
140
0.0
141
0.0
142
1.0
143
1.0
 70
   688
 72
     0
 73
     0
 74
     5
  7

 75
    16
147
1.0
148
0.0
149
0.0
100
AcDbLayout
  1
Layout1
 70
     1
 71
     1
 10
0.0
 20
0.0
 11
420.0
 21
297.0
 12
0.0
 22
0.0
 32
0.0
 14
1.0000000000E+20
 24
1.0000000000E+20
 34
1.0000000000E+20
 15
-1.0000000000E+20
 25
-1.0000000000E+20
 35
-1.0000000000E+20
146
0.0
 13
0.0
 23
0.0
 33
0.0
 16
1.0
 26
0.0
 36
0.0
 17
0.0
 27
1.0
 37
0.0
 76
     0
330
1B
  0
LAYOUT
  5
26
102
{ACAD_REACTORS
330
1A
102
}
330
1A
100
AcDbPlotSettings
  1

  2
none_device
  4

  6

 40
0.0
 41
0.0
 42
0.0
 43
0.0
 44
0.0
 45
0.0
 46
0.0
 47
0.0
 48
0.0
 49
0.0
140
0.0
141
0.0
142
1.0
143
1.0
 70
   688
 72
     0
 73
     0
 74
     5
  7

 75
    16
147
1.0
148
0.0
149
0.0
100
AcDbLayout
  1
Layout2
 70
     1
 71
     2
 10
0.0
 20
0.0
 11
0.0
 21
0.0
 12
0.0
 22
0.0
 32
0.0
 14
0.0
 24
0.0
 34
0.0
 15
0.0
 25
0.0
 35
0.0
146
0.0
 13
0.0
 23
0.0
 33
0.0
 16
1.0
 26
0.0
 36
0.0
 17
0.0
 27
1.0
 37
0.0
 76
     0
330
23
  0
LAYOUT
  5
22
102
{ACAD_REACTORS
330
1A
102
}
330
1A
100
AcDbPlotSettings
  1

  2
none_device
  4

  6

 40
0.0
 41
0.0
 42
0.0
 43
0.0
 44
0.0
 45
0.0
 46
0.0
 47
0.0
 48
0.0
 49
0.0
140
0.0
141
0.0
142
1.0
143
1.0
 70
  1712
 72
     0
 73
     0
 74
     0
  7

 75
     0
147
1.0
148
0.0
149
0.0
100
AcDbLayout
  1
Model
 70
     1
 71
     0
 10
0.0
 20
0.0
 11
420.0
 21
297.0
 12
0.0
 22
0.0
 32
0.0
 14
0.0
 24
0.0
 34
0.0
 15
420.0
 25
297.0
 35
0.0
146
0.0
 13
0.0
 23
0.0
 33
0.0
 16
1.0
 26
0.0
 36
0.0
 17
0.0
 27
1.0
 37
0.0
 76
     0
330
1F
331
29
  0
MLINESTYLE
  5
18
102
{ACAD_REACTORS
330
17
102
}
330
17
100
AcDbMlineStyle
  2
Standard
 70
     0
  3

 62
   256
 51
90.0
 52
90.0
 71
     2
 49
0.5
 62
   256
  6
BYLAYER
 49
-0.5
 62
   256
  6
BYLAYER
  0
ACDBPLACEHOLDER
  5
F
102
{ACAD_REACTORS
330
E
102
}
330
E
  0
ENDSEC
  0
EOF
